# MagicaVoxel @ Ephtracy

# group
o 

# material
mtllib door.mtl
usemtl palette

# normals
vn -1 0 0
vn 1 0 0
vn 0 0 1
vn 0 0 -1
vn 0 -1 0
vn 0 1 0

# texcoords
vt 0.970703 0.5
vt 0.974609 0.5
vt 0.978516 0.5

# verts
v -1.6 -1.6 1.4
v -1.6 -1.6 1
v -1.6 3.8 1.4
v -1.6 3.8 1
v -1.5 -1.6 1.5
v -1.5 -1.6 1.4
v -1.5 2.6 1.5
v -1.5 2.6 1.4
v -1.4 -1.6 1.6
v -1.4 -1.6 1.5
v -1.4 2.5 1.6
v -1.4 2.5 1.5
v -1.4 3.8 1.4
v -1.4 3.8 1
v -1.4 4 1.4
v -1.4 4 1
v -1 2.6 1.6
v -1 2.6 1.5
v -1 2.6 1.4
v -1 3 1.6
v -1 3 1.4
v -1 4 1.4
v -1 4 1
v -1 4.2 1.4
v -1 4.2 1
v 0.4 3.8 1.4
v 0.4 3.8 1
v 0.4 4 1.4
v 0.4 4 1
v 0.6 4 1.4
v 0.6 4 1
v 0.6 4.2 1.4
v 0.6 4.2 1
v 1.3 -1.6 1.6
v 1.3 -1.6 1
v 1.3 2.4 1.6
v 1.3 2.4 1
v -1.3 -1.6 1.6
v -1.3 -1.6 1
v -1.3 2.4 1.6
v -1.3 2.4 1
v -0.4 4 1.4
v -0.4 4 1
v -0.4 4.2 1.4
v -0.4 4.2 1
v -0.2 3.8 1.4
v -0.2 3.8 1
v -0.2 4 1.4
v -0.2 4 1
v 0 2.6 1.6
v 0 2.6 1.5
v 0 2.6 1.4
v 0 3 1.6
v 0 3 1.4
v 1.4 -1.6 1.6
v 1.4 -1.6 1.5
v 1.4 2.5 1.6
v 1.4 2.5 1.5
v 1.4 4 1.4
v 1.4 4 1
v 1.4 4.2 1.4
v 1.4 4.2 1
v 1.5 -1.6 1.5
v 1.5 -1.6 1.4
v 1.5 2.6 1.5
v 1.5 2.6 1.4
v 1.6 -1.6 1.4
v 1.6 -1.6 1
v 1.6 4 1.4
v 1.6 4 1
v -1.4 -1.6 1.6
v -1.4 2.5 1.6
v -1.3 -1.6 1.6
v -1.3 2.4 1.6
v -1 2.6 1.6
v -1 3 1.6
v 0 2.6 1.6
v 0 3 1.6
v 1.3 -1.6 1.6
v 1.3 2.4 1.6
v 1.4 -1.6 1.6
v 1.4 2.5 1.6
v -1.5 -1.6 1.5
v -1.5 2.6 1.5
v -1.4 -1.6 1.5
v -1.4 2.5 1.5
v -1 2.6 1.5
v 0 2.6 1.5
v 1.4 -1.6 1.5
v 1.4 2.5 1.5
v 1.5 -1.6 1.5
v 1.5 2.6 1.5
v -1.6 -1.6 1.4
v -1.6 3.8 1.4
v -1.5 -1.6 1.4
v -1.5 2.6 1.4
v -1.4 3.8 1.4
v -1.4 4 1.4
v -1 2.6 1.4
v -1 3 1.4
v -1 4 1.4
v -1 4.2 1.4
v -0.4 4 1.4
v -0.4 4.2 1.4
v -0.2 3.8 1.4
v -0.2 4 1.4
v 0 2.6 1.4
v 0 3 1.4
v 0.4 3.8 1.4
v 0.4 4 1.4
v 0.6 4 1.4
v 0.6 4.2 1.4
v 1.4 4 1.4
v 1.4 4.2 1.4
v 1.5 -1.6 1.4
v 1.5 2.6 1.4
v 1.6 -1.6 1.4
v 1.6 4 1.4
v -1.6 -1.6 1
v -1.6 3.8 1
v -1.4 -1.6 1
v -1.4 2.5 1
v -1.4 3.8 1
v -1.4 4 1
v -1.3 -1.6 1
v -1.3 2.4 1
v -1 4 1
v -1 4.2 1
v -0.4 4 1
v -0.4 4.2 1
v -0.2 3.8 1
v -0.2 4 1
v 0.4 3.8 1
v 0.4 4 1
v 0.6 4 1
v 0.6 4.2 1
v 1.3 -1.6 1
v 1.3 2.4 1
v 1.4 -1.6 1
v 1.4 2.5 1
v 1.4 4 1
v 1.4 4.2 1
v 1.6 -1.6 1
v 1.6 4 1
v -1.4 -1.6 1.6
v -1.3 -1.6 1.6
v 1.3 -1.6 1.6
v 1.4 -1.6 1.6
v -1.5 -1.6 1.5
v -1.4 -1.6 1.5
v 1.4 -1.6 1.5
v 1.5 -1.6 1.5
v -1.6 -1.6 1.4
v -1.5 -1.6 1.4
v -1.4 -1.6 1.4
v 1.4 -1.6 1.4
v 1.5 -1.6 1.4
v 1.6 -1.6 1.4
v -1.6 -1.6 1
v -1.4 -1.6 1
v -1.3 -1.6 1
v 1.3 -1.6 1
v 1.4 -1.6 1
v 1.6 -1.6 1
v -1.3 2.4 1.6
v 1.3 2.4 1.6
v -1.3 2.4 1
v 1.3 2.4 1
v -1 2.6 1.6
v 0 2.6 1.6
v -1 2.6 1.5
v 0 2.6 1.5
v -1.4 2.5 1.6
v 1.4 2.5 1.6
v -1.4 2.5 1.5
v 1.4 2.5 1.5
v -1.5 2.6 1.5
v -1 2.6 1.5
v 0 2.6 1.5
v 1.5 2.6 1.5
v -1.5 2.6 1.4
v -1 2.6 1.4
v 0 2.6 1.4
v 1.5 2.6 1.4
v -1 3 1.6
v 0 3 1.6
v -1 3 1.4
v 0 3 1.4
v -1.6 3.8 1.4
v -1.4 3.8 1.4
v -0.2 3.8 1.4
v 0.4 3.8 1.4
v -1.6 3.8 1
v -1.4 3.8 1
v -0.2 3.8 1
v 0.4 3.8 1
v -1.4 4 1.4
v -1 4 1.4
v -0.4 4 1.4
v -0.2 4 1.4
v 0.4 4 1.4
v 0.6 4 1.4
v 1.4 4 1.4
v 1.6 4 1.4
v -1.4 4 1
v -1 4 1
v -0.4 4 1
v -0.2 4 1
v 0.4 4 1
v 0.6 4 1
v 1.4 4 1
v 1.6 4 1
v -1 4.2 1.4
v -0.4 4.2 1.4
v 0.6 4.2 1.4
v 1.4 4.2 1.4
v -1 4.2 1
v -0.4 4.2 1
v 0.6 4.2 1
v 1.4 4.2 1

# faces
f 3/1/1 2/1/1 1/1/1
f 4/1/1 2/1/1 3/1/1
f 7/3/1 6/3/1 5/3/1
f 8/3/1 6/3/1 7/3/1
f 11/3/1 10/3/1 9/3/1
f 12/3/1 10/3/1 11/3/1
f 15/1/1 14/1/1 13/1/1
f 16/1/1 14/1/1 15/1/1
f 20/2/1 18/2/1 17/2/1
f 20/2/1 19/2/1 18/2/1
f 21/2/1 19/2/1 20/2/1
f 24/1/1 23/1/1 22/1/1
f 25/1/1 23/1/1 24/1/1
f 28/1/1 27/1/1 26/1/1
f 29/1/1 27/1/1 28/1/1
f 32/1/1 31/1/1 30/1/1
f 33/1/1 31/1/1 32/1/1
f 36/3/1 35/3/1 34/3/1
f 37/3/1 35/3/1 36/3/1
f 38/3/2 39/3/2 40/3/2
f 40/3/2 39/3/2 41/3/2
f 42/1/2 43/1/2 44/1/2
f 44/1/2 43/1/2 45/1/2
f 46/1/2 47/1/2 48/1/2
f 48/1/2 47/1/2 49/1/2
f 50/2/2 51/2/2 53/2/2
f 51/2/2 52/2/2 53/2/2
f 53/2/2 52/2/2 54/2/2
f 55/3/2 56/3/2 57/3/2
f 57/3/2 56/3/2 58/3/2
f 59/1/2 60/1/2 61/1/2
f 61/1/2 60/1/2 62/1/2
f 63/3/2 64/3/2 65/3/2
f 65/3/2 64/3/2 66/3/2
f 67/1/2 68/1/2 69/1/2
f 69/1/2 68/1/2 70/1/2
f 73/3/3 72/3/3 71/3/3
f 74/3/3 72/3/3 73/3/3
f 77/2/3 76/2/3 75/2/3
f 78/2/3 76/2/3 77/2/3
f 80/3/3 72/3/3 74/3/3
f 81/3/3 80/3/3 79/3/3
f 82/3/3 72/3/3 80/3/3
f 82/3/3 80/3/3 81/3/3
f 85/3/3 84/3/3 83/3/3
f 86/3/3 84/3/3 85/3/3
f 87/3/3 84/3/3 86/3/3
f 88/3/3 87/3/3 86/3/3
f 90/3/3 88/3/3 86/3/3
f 91/3/3 90/3/3 89/3/3
f 92/3/3 88/3/3 90/3/3
f 92/3/3 90/3/3 91/3/3
f 95/1/3 94/1/3 93/1/3
f 96/1/3 94/1/3 95/1/3
f 97/1/3 94/1/3 96/1/3
f 99/1/3 97/1/3 96/1/3
f 99/1/3 98/1/3 97/1/3
f 100/1/3 98/1/3 99/1/3
f 101/1/3 98/1/3 100/1/3
f 103/1/3 102/1/3 101/1/3
f 103/1/3 101/1/3 100/1/3
f 104/1/3 102/1/3 103/1/3
f 105/1/3 103/1/3 100/1/3
f 106/1/3 103/1/3 105/1/3
f 108/1/3 105/1/3 100/1/3
f 109/1/3 105/1/3 108/1/3
f 109/1/3 108/1/3 107/1/3
f 111/1/3 110/1/3 109/1/3
f 113/1/3 111/1/3 109/1/3
f 113/1/3 112/1/3 111/1/3
f 114/1/3 112/1/3 113/1/3
f 116/1/3 109/1/3 107/1/3
f 116/1/3 113/1/3 109/1/3
f 117/1/3 116/1/3 115/1/3
f 118/1/3 113/1/3 116/1/3
f 118/1/3 116/1/3 117/1/3
f 119/1/4 120/1/4 121/1/4
f 121/1/4 120/1/4 122/1/4
f 122/1/4 120/1/4 123/1/4
f 121/3/4 122/3/4 125/3/4
f 125/3/4 122/3/4 126/3/4
f 123/1/4 124/1/4 127/1/4
f 122/1/4 123/1/4 127/1/4
f 122/1/4 127/1/4 129/1/4
f 127/1/4 128/1/4 129/1/4
f 129/1/4 128/1/4 130/1/4
f 122/1/4 129/1/4 131/1/4
f 131/1/4 129/1/4 132/1/4
f 122/1/4 131/1/4 133/1/4
f 133/1/4 134/1/4 135/1/4
f 126/3/4 122/3/4 138/3/4
f 137/3/4 138/3/4 139/3/4
f 135/1/4 136/1/4 140/1/4
f 139/3/4 138/3/4 140/3/4
f 133/1/4 135/1/4 140/1/4
f 138/3/4 122/3/4 140/3/4
f 122/1/4 133/1/4 140/1/4
f 140/1/4 136/1/4 141/1/4
f 141/1/4 136/1/4 142/1/4
f 139/1/4 140/1/4 143/1/4
f 140/1/4 141/1/4 143/1/4
f 143/1/4 141/1/4 144/1/4
f 150/3/5 146/3/5 145/3/5
f 151/3/5 148/3/5 147/3/5
f 154/3/5 150/3/5 149/3/5
f 155/3/5 146/3/5 150/3/5
f 155/3/5 150/3/5 154/3/5
f 156/3/5 152/3/5 151/3/5
f 156/3/5 151/3/5 147/3/5
f 157/3/5 152/3/5 156/3/5
f 159/1/5 154/1/5 153/1/5
f 159/1/5 155/1/5 154/1/5
f 160/3/5 146/3/5 155/3/5
f 160/1/5 155/1/5 159/1/5
f 161/3/5 146/3/5 160/3/5
f 162/3/5 156/3/5 147/3/5
f 163/1/5 158/1/5 157/1/5
f 163/3/5 156/3/5 162/3/5
f 163/1/5 157/1/5 156/1/5
f 164/1/5 158/1/5 163/1/5
f 167/3/5 166/3/5 165/3/5
f 168/3/5 166/3/5 167/3/5
f 171/2/5 170/2/5 169/2/5
f 172/2/5 170/2/5 171/2/5
f 173/3/6 174/3/6 175/3/6
f 175/3/6 174/3/6 176/3/6
f 177/3/6 178/3/6 181/3/6
f 181/3/6 178/3/6 182/3/6
f 179/3/6 180/3/6 183/3/6
f 183/3/6 180/3/6 184/3/6
f 185/2/6 186/2/6 187/2/6
f 187/2/6 186/2/6 188/2/6
f 189/1/6 190/1/6 193/1/6
f 193/1/6 190/1/6 194/1/6
f 191/1/6 192/1/6 195/1/6
f 195/1/6 192/1/6 196/1/6
f 197/1/6 198/1/6 205/1/6
f 205/1/6 198/1/6 206/1/6
f 199/1/6 200/1/6 207/1/6
f 207/1/6 200/1/6 208/1/6
f 201/1/6 202/1/6 209/1/6
f 209/1/6 202/1/6 210/1/6
f 203/1/6 204/1/6 211/1/6
f 211/1/6 204/1/6 212/1/6
f 213/1/6 214/1/6 217/1/6
f 217/1/6 214/1/6 218/1/6
f 215/1/6 216/1/6 219/1/6
f 219/1/6 216/1/6 220/1/6
