# MagicaVoxel @ Ephtracy

# group
o 

# material
mtllib shield16.mtl
usemtl palette

# normals
vn -1 0 0
vn 1 0 0
vn 0 0 1
vn 0 0 -1
vn 0 -1 0
vn 0 1 0

# texcoords
vt 0.919922 0.5
vt 0.931641 0.5
vt 0.939453 0.5
vt 0.951172 0.5
vt 0.970703 0.5

# verts
v -1.1 0.5 -0.2
v -1.1 0.5 -0.3
v -1.1 0.7 -0.2
v -1.1 0.7 -0.3
v -1.1 0.8 -0.2
v -1.1 0.8 -0.3
v -1.1 1 -0.2
v -1.1 1 -0.3
v -1 0.2 -0.2
v -1 0.2 -0.3
v -1 0.3 -0.2
v -1 0.3 -0.3
v -1 0.4 -0.2
v -1 0.4 -0.3
v -1 0.5 -0.2
v -1 0.5 -0.3
v -1 1 -0.2
v -1 1 -0.3
v -1 1.2 -0.2
v -1 1.2 -0.3
v -1 1.3 -0.2
v -1 1.3 -0.3
v -0.9 0.1 -0.2
v -0.9 0.1 -0.3
v -0.9 0.2 -0.2
v -0.9 0.2 -0.3
v -0.9 1.3 -0.2
v -0.9 1.3 -0.3
v -0.9 1.4 -0.2
v -0.9 1.4 -0.3
v -0.8 0 -0.2
v -0.8 0 -0.3
v -0.8 0.1 -0.2
v -0.8 0.1 -0.3
v -0.8 1.4 -0.2
v -0.8 1.4 -0.3
v -0.8 1.5 -0.2
v -0.8 1.5 -0.3
v -0.7 0 -0.1
v -0.7 0 -0.2
v -0.7 0.1 -0.1
v -0.7 0.1 -0.2
v -0.7 1.5 -0.2
v -0.7 1.5 -0.3
v -0.7 1.6 -0.2
v -0.7 1.6 -0.3
v -0.6 -0.1 -0.1
v -0.6 -0.1 -0.2
v -0.6 0 -0.1
v -0.6 0 -0.2
v -0.6 0.1 -0.1
v -0.6 0.1 -0.2
v -0.6 1.1 -0.1
v -0.6 1.1 -0.2
v -0.6 1.2 -0.1
v -0.6 1.2 -0.2
v -0.6 1.5 -0.2
v -0.6 1.6 -0.1
v -0.6 1.6 -0.2
v -0.6 1.7 -0.1
v -0.6 1.7 -0.2
v -0.4 -0.2 -0.1
v -0.4 -0.2 -0.2
v -0.4 -0.1 -0.1
v -0.4 -0.1 -0.2
v -0.4 0.4 -0.2
v -0.4 0.4 -0.3
v -0.4 0.5 -0.2
v -0.4 0.5 -0.3
v -0.4 0.5 -0.5
v -0.4 0.6 -0.2
v -0.4 0.6 -0.4
v -0.4 1 -0.2
v -0.4 1 -0.4
v -0.4 1.1 -0.2
v -0.4 1.1 -0.3
v -0.4 1.1 -0.5
v -0.4 1.2 -0.2
v -0.4 1.2 -0.3
v -0.4 1.7 -0.1
v -0.4 1.7 -0.2
v -0.4 1.8 -0.1
v -0.4 1.8 -0.2
v -0.3 -0.2 2.23517e-08
v -0.3 -0.2 -0.1
v -0.3 -0.1 2.23517e-08
v -0.3 -0.1 -0.1
v -0.3 1.7 2.23517e-08
v -0.3 1.7 -0.1
v -0.3 1.8 -0.1
v -0.3 1.9 2.23517e-08
v -0.3 1.9 -0.1
v -0.2 -0.3 2.23517e-08
v -0.2 -0.3 -0.1
v -0.2 -0.2 2.23517e-08
v -0.2 -0.2 -0.1
v -0.2 -0.1 2.23517e-08
v -0.2 -0.1 -0.1
v -0.2 0.5 2.23517e-08
v -0.2 0.5 -0.1
v -0.2 0.7 2.23517e-08
v -0.2 0.7 -0.1
v -0.2 1.7 2.23517e-08
v -0.2 1.7 -0.1
v 0.2 -0.2 -0.1
v 0.2 -0.2 -0.2
v 0.2 -0.1 -0.1
v 0.2 -0.1 -0.2
v 0.2 0.2 -0.1
v 0.2 0.2 -0.2
v 0.2 0.4 -0.1
v 0.2 0.4 -0.2
v 0.2 0.7 -0.3
v 0.2 0.7 -0.4
v 0.2 1 -0.2
v 0.2 1 -0.3
v 0.2 1.1 -0.2
v 0.2 1.1 -0.4
v 0.2 1.2 -0.1
v 0.2 1.2 -0.2
v 0.2 1.3 -0.1
v 0.2 1.3 -0.2
v 0.2 1.7 -0.1
v 0.2 1.7 -0.2
v 0.2 1.8 -0.1
v 0.2 1.8 -0.2
v 0.3 0.5 -0.2
v 0.3 0.5 -0.4
v 0.3 0.7 -0.3
v 0.3 0.7 -0.4
v 0.3 0.8 -0.2
v 0.3 0.8 -0.3
v 0.4 0.4 -0.2
v 0.4 0.4 -0.3
v 0.4 0.5 -0.2
v 0.4 0.5 -0.3
v 0.6 0 -0.2
v 0.6 0 -0.3
v 0.6 0.1 -0.2
v 0.6 0.1 -0.3
v 0.6 0.6 -0.3
v 0.6 1 -0.2
v 0.6 1 -0.3
v 0.6 1.1 -0.2
v 0.6 1.1 -0.3
v 0.6 1.2 -0.2
v 0.6 1.2 -0.3
v 0.6 1.3 -0.2
v 0.6 1.3 -0.3
v 0.6 1.4 -0.2
v 0.6 1.4 -0.3
v 0.6 1.5 -0.2
v 0.6 1.5 -0.3
v -0.7 0 -0.2
v -0.7 0 -0.3
v -0.7 0.1 -0.2
v -0.7 0.1 -0.3
v -0.6 0.1 -0.2
v -0.6 0.1 -0.3
v -0.6 1.1 -0.2
v -0.6 1.2 -0.2
v -0.6 1.5 -0.2
v -0.6 1.5 -0.3
v -0.6 1.6 -0.2
v -0.6 1.6 -0.3
v -0.3 0.4 -0.2
v -0.3 0.4 -0.3
v -0.3 0.5 -0.2
v -0.3 0.5 -0.3
v -0.3 0.5 -0.5
v -0.3 0.6 -0.3
v -0.3 0.6 -0.4
v -0.3 1 -0.3
v -0.3 1 -0.4
v -0.3 1.1 -0.2
v -0.3 1.1 -0.3
v -0.3 1.1 -0.5
v -0.3 1.2 -0.2
v -0.3 1.2 -0.3
v -0.2 -0.2 -0.1
v -0.2 -0.2 -0.2
v -0.2 -0.1 -0.1
v -0.2 -0.1 -0.2
v -0.2 0.5 -0.1
v -0.2 0.5 -0.2
v -0.2 0.5 -0.3
v -0.2 0.6 -0.2
v -0.2 0.6 -0.3
v -0.2 0.7 -0.1
v -0.2 1 -0.2
v -0.2 1 -0.3
v -0.2 1.1 -0.2
v -0.2 1.1 -0.3
v -0.2 1.7 -0.1
v -0.2 1.7 -0.2
v -0.2 1.8 -0.1
v -0.2 1.8 -0.2
v 0.2 -0.3 2.23517e-08
v 0.2 -0.3 -0.1
v 0.2 -0.2 2.23517e-08
v 0.2 -0.2 -0.1
v 0.2 -0.1 2.23517e-08
v 0.2 -0.1 -0.1
v 0.2 0.2 -0.1
v 0.2 0.4 -0.1
v 0.2 1.2 -0.1
v 0.2 1.3 -0.1
v 0.2 1.7 2.23517e-08
v 0.2 1.7 -0.1
v 0.3 -0.2 2.23517e-08
v 0.3 -0.2 -0.2
v 0.3 -0.1 2.23517e-08
v 0.3 -0.1 -0.1
v 0.3 -0.1 -0.2
v 0.3 1.7 2.23517e-08
v 0.3 1.7 -0.1
v 0.3 1.7 -0.2
v 0.3 1.8 -0.1
v 0.3 1.8 -0.2
v 0.3 1.9 2.23517e-08
v 0.3 1.9 -0.1
v 0.5 -0.1 -0.1
v 0.5 -0.1 -0.2
v 0.5 0 -0.1
v 0.5 0 -0.2
v 0.5 0.4 -0.2
v 0.5 0.4 -0.3
v 0.5 0.5 -0.3
v 0.5 0.5 -0.4
v 0.5 0.6 -0.3
v 0.5 0.6 -0.4
v 0.5 0.8 -0.2
v 0.5 0.8 -0.3
v 0.5 1.6 -0.1
v 0.5 1.6 -0.2
v 0.5 1.7 -0.1
v 0.5 1.7 -0.2
v 0.6 0 -0.1
v 0.6 0 -0.2
v 0.6 0.1 -0.1
v 0.6 0.1 -0.2
v 0.6 0.6 -0.3
v 0.6 0.6 -0.4
v 0.6 1.1 -0.3
v 0.6 1.1 -0.4
v 0.6 1.2 -0.2
v 0.6 1.3 -0.2
v 0.6 1.4 -0.2
v 0.6 1.5 -0.1
v 0.6 1.5 -0.2
v 0.6 1.6 -0.1
v 0.6 1.6 -0.2
v 0.7 0 -0.2
v 0.7 0 -0.3
v 0.7 0.1 -0.2
v 0.7 0.1 -0.3
v 0.7 1.4 -0.2
v 0.7 1.4 -0.3
v 0.7 1.5 -0.2
v 0.7 1.5 -0.3
v 0.8 0.1 -0.2
v 0.8 0.1 -0.3
v 0.8 0.2 -0.2
v 0.8 0.2 -0.3
v 0.8 1.3 -0.2
v 0.8 1.3 -0.3
v 0.8 1.4 -0.2
v 0.8 1.4 -0.3
v 0.9 0.2 -0.2
v 0.9 0.2 -0.3
v 0.9 0.3 -0.2
v 0.9 0.3 -0.3
v 0.9 0.5 -0.2
v 0.9 0.5 -0.3
v 0.9 1 -0.2
v 0.9 1 -0.3
v 0.9 1.3 -0.2
v 0.9 1.3 -0.3
v 1 0.5 -0.2
v 1 0.5 -0.3
v 1 0.8 -0.2
v 1 0.8 -0.3
v 1 0.9 -0.2
v 1 0.9 -0.3
v 1 1 -0.2
v 1 1 -0.3
v -0.3 -0.2 2.23517e-08
v -0.3 -0.1 2.23517e-08
v -0.3 1.7 2.23517e-08
v -0.3 1.9 2.23517e-08
v -0.2 -0.3 2.23517e-08
v -0.2 -0.2 2.23517e-08
v -0.2 -0.1 2.23517e-08
v -0.2 0.5 2.23517e-08
v -0.2 0.7 2.23517e-08
v -0.2 1.7 2.23517e-08
v -0.2 1.8 2.23517e-08
v -0.1 -0.1 2.23517e-08
v -0.1 0.1 2.23517e-08
v -0.1 1.2 2.23517e-08
v -0.1 1.3 2.23517e-08
v -0.1 1.8 2.23517e-08
v -0.1 1.9 2.23517e-08
v 0 -0.3 2.23517e-08
v 0 -0.2 2.23517e-08
v 0 -0.1 2.23517e-08
v 0 0.1 2.23517e-08
v 0 0.5 2.23517e-08
v 0 0.7 2.23517e-08
v 0 1.2 2.23517e-08
v 0 1.3 2.23517e-08
v 0 1.8 2.23517e-08
v 0 1.9 2.23517e-08
v 0.1 -0.3 2.23517e-08
v 0.1 -0.2 2.23517e-08
v 0.1 1.8 2.23517e-08
v 0.2 -0.3 2.23517e-08
v 0.2 -0.2 2.23517e-08
v 0.2 -0.1 2.23517e-08
v 0.2 1.7 2.23517e-08
v 0.2 1.8 2.23517e-08
v 0.3 -0.2 2.23517e-08
v 0.3 -0.1 2.23517e-08
v 0.3 1.7 2.23517e-08
v 0.3 1.9 2.23517e-08
v -0.7 0 -0.1
v -0.7 0.1 -0.1
v -0.6 -0.1 -0.1
v -0.6 0 -0.1
v -0.6 0.1 -0.1
v -0.6 1.1 -0.1
v -0.6 1.2 -0.1
v -0.6 1.6 -0.1
v -0.6 1.7 -0.1
v -0.5 -0.1 -0.1
v -0.5 0 -0.1
v -0.5 0.2 -0.1
v -0.5 0.4 -0.1
v -0.5 0.7 -0.1
v -0.5 0.8 -0.1
v -0.5 1.1 -0.1
v -0.5 1.2 -0.1
v -0.5 1.6 -0.1
v -0.5 1.7 -0.1
v -0.4 -0.2 -0.1
v -0.4 -0.1 -0.1
v -0.4 0 -0.1
v -0.4 0.2 -0.1
v -0.4 0.4 -0.1
v -0.4 0.7 -0.1
v -0.4 0.8 -0.1
v -0.4 1.6 -0.1
v -0.4 1.7 -0.1
v -0.4 1.8 -0.1
v -0.3 -0.2 -0.1
v -0.3 -0.1 -0.1
v -0.3 1.7 -0.1
v -0.3 1.8 -0.1
v -0.2 -0.1 -0.1
v -0.2 0.5 -0.1
v -0.2 0.7 -0.1
v -0.2 1.7 -0.1
v 0.2 -0.1 -0.1
v 0.2 0.2 -0.1
v 0.2 0.4 -0.1
v 0.2 1.2 -0.1
v 0.2 1.3 -0.1
v 0.2 1.7 -0.1
v 0.3 -0.1 -0.1
v 0.3 0 -0.1
v 0.3 0.2 -0.1
v 0.3 0.4 -0.1
v 0.3 0.7 -0.1
v 0.3 0.8 -0.1
v 0.3 1.2 -0.1
v 0.3 1.3 -0.1
v 0.3 1.6 -0.1
v 0.3 1.7 -0.1
v 0.4 -0.1 -0.1
v 0.4 0 -0.1
v 0.4 0.7 -0.1
v 0.4 0.8 -0.1
v 0.4 1.6 -0.1
v 0.4 1.7 -0.1
v 0.5 -0.1 -0.1
v 0.5 0 -0.1
v 0.5 0.1 -0.1
v 0.5 1.5 -0.1
v 0.5 1.6 -0.1
v 0.5 1.7 -0.1
v 0.6 0 -0.1
v 0.6 0.1 -0.1
v 0.6 1.5 -0.1
v 0.6 1.6 -0.1
v -1.1 0.5 -0.2
v -1.1 0.7 -0.2
v -1.1 0.8 -0.2
v -1.1 1 -0.2
v -1 0.2 -0.2
v -1 0.3 -0.2
v -1 0.4 -0.2
v -1 0.5 -0.2
v -1 0.6 -0.2
v -1 0.7 -0.2
v -1 0.8 -0.2
v -1 1 -0.2
v -1 1.2 -0.2
v -1 1.3 -0.2
v -0.9 0.1 -0.2
v -0.9 0.2 -0.2
v -0.9 0.3 -0.2
v -0.9 0.4 -0.2
v -0.9 0.5 -0.2
v -0.9 0.6 -0.2
v -0.9 0.7 -0.2
v -0.9 0.9 -0.2
v -0.9 1 -0.2
v -0.9 1.2 -0.2
v -0.9 1.3 -0.2
v -0.9 1.4 -0.2
v -0.8 0 -0.2
v -0.8 0.1 -0.2
v -0.8 0.2 -0.2
v -0.8 0.9 -0.2
v -0.8 1 -0.2
v -0.8 1.3 -0.2
v -0.8 1.4 -0.2
v -0.8 1.5 -0.2
v -0.7 0 -0.2
v -0.7 0.1 -0.2
v -0.7 1.4 -0.2
v -0.7 1.5 -0.2
v -0.7 1.6 -0.2
v -0.6 0.1 -0.2
v -0.6 1.1 -0.2
v -0.6 1.2 -0.2
v -0.6 1.5 -0.2
v -0.6 1.6 -0.2
v 0.6 0 -0.2
v 0.6 0.1 -0.2
v 0.6 1.2 -0.2
v 0.6 1.3 -0.2
v 0.6 1.4 -0.2
v 0.6 1.5 -0.2
v 0.7 0 -0.2
v 0.7 0.1 -0.2
v 0.7 0.2 -0.2
v 0.7 0.6 -0.2
v 0.7 0.7 -0.2
v 0.7 1.3 -0.2
v 0.7 1.4 -0.2
v 0.7 1.5 -0.2
v 0.8 0.1 -0.2
v 0.8 0.2 -0.2
v 0.8 0.3 -0.2
v 0.8 0.5 -0.2
v 0.8 0.6 -0.2
v 0.8 0.7 -0.2
v 0.8 1 -0.2
v 0.8 1.2 -0.2
v 0.8 1.3 -0.2
v 0.8 1.4 -0.2
v 0.9 0.2 -0.2
v 0.9 0.3 -0.2
v 0.9 0.5 -0.2
v 0.9 0.8 -0.2
v 0.9 0.9 -0.2
v 0.9 1 -0.2
v 0.9 1.3 -0.2
v 1 0.5 -0.2
v 1 0.8 -0.2
v 1 0.9 -0.2
v 1 1 -0.2
v 0.2 0.7 -0.3
v 0.2 1 -0.3
v 0.3 0.7 -0.3
v 0.3 0.8 -0.3
v 0.5 0.6 -0.3
v 0.5 0.8 -0.3
v 0.6 0.6 -0.3
v 0.6 1 -0.3
v -0.4 0.6 -0.4
v -0.4 1 -0.4
v -0.3 0.6 -0.4
v -0.3 1 -0.4
v -0.3 1.8 -0.1
v -0.3 1.9 -0.1
v -0.2 -0.3 -0.1
v -0.2 -0.2 -0.1
v -0.2 -0.1 -0.1
v -0.2 0.5 -0.1
v -0.2 0.7 -0.1
v -0.2 1.7 -0.1
v -0.2 1.8 -0.1
v -0.1 -0.1 -0.1
v -0.1 0.1 -0.1
v -0.1 1.2 -0.1
v -0.1 1.3 -0.1
v -0.1 1.8 -0.1
v -0.1 1.9 -0.1
v 0 -0.3 -0.1
v 0 -0.2 -0.1
v 0 -0.1 -0.1
v 0 0.1 -0.1
v 0 0.5 -0.1
v 0 0.7 -0.1
v 0 1.2 -0.1
v 0 1.3 -0.1
v 0 1.8 -0.1
v 0 1.9 -0.1
v 0.1 -0.3 -0.1
v 0.1 -0.2 -0.1
v 0.1 1.8 -0.1
v 0.2 -0.3 -0.1
v 0.2 -0.2 -0.1
v 0.2 -0.1 -0.1
v 0.2 0.2 -0.1
v 0.2 0.4 -0.1
v 0.2 1.2 -0.1
v 0.2 1.3 -0.1
v 0.2 1.7 -0.1
v 0.2 1.8 -0.1
v 0.3 1.8 -0.1
v 0.3 1.9 -0.1
v -0.7 0 -0.2
v -0.7 0.1 -0.2
v -0.6 -0.1 -0.2
v -0.6 0 -0.2
v -0.6 0.1 -0.2
v -0.6 1.1 -0.2
v -0.6 1.2 -0.2
v -0.6 1.5 -0.2
v -0.6 1.6 -0.2
v -0.6 1.7 -0.2
v -0.5 -0.1 -0.2
v -0.5 0 -0.2
v -0.5 0.2 -0.2
v -0.5 0.4 -0.2
v -0.5 0.7 -0.2
v -0.5 0.8 -0.2
v -0.5 1.1 -0.2
v -0.5 1.2 -0.2
v -0.5 1.6 -0.2
v -0.5 1.7 -0.2
v -0.4 -0.2 -0.2
v -0.4 -0.1 -0.2
v -0.4 0 -0.2
v -0.4 0.2 -0.2
v -0.4 0.4 -0.2
v -0.4 0.5 -0.2
v -0.4 0.6 -0.2
v -0.4 0.7 -0.2
v -0.4 0.8 -0.2
v -0.4 1 -0.2
v -0.4 1.1 -0.2
v -0.4 1.2 -0.2
v -0.4 1.6 -0.2
v -0.4 1.7 -0.2
v -0.4 1.8 -0.2
v -0.3 -0.1 -0.2
v -0.3 0.4 -0.2
v -0.3 0.5 -0.2
v -0.3 0.6 -0.2
v -0.3 1 -0.2
v -0.3 1.1 -0.2
v -0.3 1.2 -0.2
v -0.3 1.7 -0.2
v -0.2 -0.2 -0.2
v -0.2 -0.1 -0.2
v -0.2 0.5 -0.2
v -0.2 0.6 -0.2
v -0.2 1 -0.2
v -0.2 1.1 -0.2
v -0.2 1.7 -0.2
v -0.2 1.8 -0.2
v 0.2 -0.2 -0.2
v 0.2 -0.1 -0.2
v 0.2 0.2 -0.2
v 0.2 0.4 -0.2
v 0.2 1 -0.2
v 0.2 1.1 -0.2
v 0.2 1.2 -0.2
v 0.2 1.3 -0.2
v 0.2 1.7 -0.2
v 0.2 1.8 -0.2
v 0.3 -0.2 -0.2
v 0.3 -0.1 -0.2
v 0.3 0 -0.2
v 0.3 0.2 -0.2
v 0.3 0.4 -0.2
v 0.3 0.5 -0.2
v 0.3 0.8 -0.2
v 0.3 1.2 -0.2
v 0.3 1.3 -0.2
v 0.3 1.6 -0.2
v 0.3 1.7 -0.2
v 0.3 1.8 -0.2
v 0.4 -0.1 -0.2
v 0.4 0 -0.2
v 0.4 0.4 -0.2
v 0.4 0.5 -0.2
v 0.4 0.8 -0.2
v 0.4 1 -0.2
v 0.4 1.1 -0.2
v 0.4 1.6 -0.2
v 0.4 1.7 -0.2
v 0.5 -0.1 -0.2
v 0.5 0 -0.2
v 0.5 0.1 -0.2
v 0.5 0.4 -0.2
v 0.5 0.8 -0.2
v 0.5 1 -0.2
v 0.5 1.1 -0.2
v 0.5 1.5 -0.2
v 0.5 1.6 -0.2
v 0.5 1.7 -0.2
v 0.6 0 -0.2
v 0.6 0.1 -0.2
v 0.6 1 -0.2
v 0.6 1.1 -0.2
v 0.6 1.2 -0.2
v 0.6 1.3 -0.2
v 0.6 1.4 -0.2
v 0.6 1.5 -0.2
v 0.6 1.6 -0.2
v -1.1 0.5 -0.3
v -1.1 0.7 -0.3
v -1.1 0.8 -0.3
v -1.1 1 -0.3
v -1 0.2 -0.3
v -1 0.3 -0.3
v -1 0.4 -0.3
v -1 0.5 -0.3
v -1 0.6 -0.3
v -1 0.7 -0.3
v -1 0.8 -0.3
v -1 1 -0.3
v -1 1.2 -0.3
v -1 1.3 -0.3
v -0.9 0.1 -0.3
v -0.9 0.2 -0.3
v -0.9 0.3 -0.3
v -0.9 0.4 -0.3
v -0.9 0.5 -0.3
v -0.9 0.6 -0.3
v -0.9 0.7 -0.3
v -0.9 0.9 -0.3
v -0.9 1 -0.3
v -0.9 1.2 -0.3
v -0.9 1.3 -0.3
v -0.9 1.4 -0.3
v -0.8 0 -0.3
v -0.8 0.1 -0.3
v -0.8 0.2 -0.3
v -0.8 0.9 -0.3
v -0.8 1 -0.3
v -0.8 1.3 -0.3
v -0.8 1.4 -0.3
v -0.8 1.5 -0.3
v -0.7 0 -0.3
v -0.7 0.1 -0.3
v -0.7 1.4 -0.3
v -0.7 1.5 -0.3
v -0.7 1.6 -0.3
v -0.6 0.1 -0.3
v -0.6 1.5 -0.3
v -0.6 1.6 -0.3
v -0.4 0.4 -0.3
v -0.4 0.5 -0.3
v -0.4 1.1 -0.3
v -0.4 1.2 -0.3
v -0.3 0.4 -0.3
v -0.3 0.5 -0.3
v -0.3 0.6 -0.3
v -0.3 1 -0.3
v -0.3 1.1 -0.3
v -0.3 1.2 -0.3
v -0.2 0.5 -0.3
v -0.2 0.6 -0.3
v -0.2 1 -0.3
v -0.2 1.1 -0.3
v 0.4 0.4 -0.3
v 0.4 0.5 -0.3
v 0.5 0.4 -0.3
v 0.5 0.5 -0.3
v 0.6 0 -0.3
v 0.6 0.1 -0.3
v 0.6 0.6 -0.3
v 0.6 1.1 -0.3
v 0.6 1.2 -0.3
v 0.6 1.3 -0.3
v 0.6 1.4 -0.3
v 0.6 1.5 -0.3
v 0.7 0 -0.3
v 0.7 0.1 -0.3
v 0.7 0.2 -0.3
v 0.7 0.6 -0.3
v 0.7 0.7 -0.3
v 0.7 1.3 -0.3
v 0.7 1.4 -0.3
v 0.7 1.5 -0.3
v 0.8 0.1 -0.3
v 0.8 0.2 -0.3
v 0.8 0.3 -0.3
v 0.8 0.5 -0.3
v 0.8 0.6 -0.3
v 0.8 0.7 -0.3
v 0.8 1 -0.3
v 0.8 1.2 -0.3
v 0.8 1.3 -0.3
v 0.8 1.4 -0.3
v 0.9 0.2 -0.3
v 0.9 0.3 -0.3
v 0.9 0.5 -0.3
v 0.9 0.8 -0.3
v 0.9 0.9 -0.3
v 0.9 1 -0.3
v 0.9 1.3 -0.3
v 1 0.5 -0.3
v 1 0.8 -0.3
v 1 0.9 -0.3
v 1 1 -0.3
v 0.2 0.7 -0.4
v 0.2 1.1 -0.4
v 0.3 0.5 -0.4
v 0.3 0.7 -0.4
v 0.5 0.5 -0.4
v 0.5 0.6 -0.4
v 0.6 0.6 -0.4
v 0.6 1.1 -0.4
v -0.4 0.5 -0.5
v -0.4 1.1 -0.5
v -0.3 0.5 -0.5
v -0.3 1.1 -0.5
v -0.2 -0.3 2.23517e-08
v 0 -0.3 2.23517e-08
v 0.1 -0.3 2.23517e-08
v 0.2 -0.3 2.23517e-08
v -0.2 -0.3 -0.1
v 0 -0.3 -0.1
v 0.1 -0.3 -0.1
v 0.2 -0.3 -0.1
v -0.3 -0.2 2.23517e-08
v -0.2 -0.2 2.23517e-08
v 0.2 -0.2 2.23517e-08
v 0.3 -0.2 2.23517e-08
v -0.4 -0.2 -0.1
v -0.3 -0.2 -0.1
v -0.2 -0.2 -0.1
v 0.2 -0.2 -0.1
v -0.4 -0.2 -0.2
v -0.2 -0.2 -0.2
v 0.2 -0.2 -0.2
v 0.3 -0.2 -0.2
v -0.6 -0.1 -0.1
v -0.5 -0.1 -0.1
v -0.4 -0.1 -0.1
v 0.3 -0.1 -0.1
v 0.4 -0.1 -0.1
v 0.5 -0.1 -0.1
v -0.6 -0.1 -0.2
v -0.5 -0.1 -0.2
v -0.4 -0.1 -0.2
v 0.3 -0.1 -0.2
v 0.4 -0.1 -0.2
v 0.5 -0.1 -0.2
v -0.7 0 -0.1
v -0.6 0 -0.1
v 0.5 0 -0.1
v 0.6 0 -0.1
v -0.8 0 -0.2
v -0.7 0 -0.2
v -0.6 0 -0.2
v 0.5 0 -0.2
v 0.6 0 -0.2
v 0.7 0 -0.2
v -0.8 0 -0.3
v -0.7 0 -0.3
v 0.6 0 -0.3
v 0.7 0 -0.3
v -0.9 0.1 -0.2
v -0.8 0.1 -0.2
v -0.7 0.1 -0.2
v -0.6 0.1 -0.2
v 0.7 0.1 -0.2
v 0.8 0.1 -0.2
v -0.9 0.1 -0.3
v -0.8 0.1 -0.3
v -0.7 0.1 -0.3
v -0.6 0.1 -0.3
v 0.7 0.1 -0.3
v 0.8 0.1 -0.3
v -1 0.2 -0.2
v -0.9 0.2 -0.2
v 0.8 0.2 -0.2
v 0.9 0.2 -0.2
v -1 0.2 -0.3
v -0.9 0.2 -0.3
v 0.8 0.2 -0.3
v 0.9 0.2 -0.3
v -0.4 0.4 -0.2
v -0.3 0.4 -0.2
v 0.4 0.4 -0.2
v 0.5 0.4 -0.2
v -0.4 0.4 -0.3
v -0.3 0.4 -0.3
v 0.4 0.4 -0.3
v 0.5 0.4 -0.3
v -1.1 0.5 -0.2
v -1 0.5 -0.2
v -0.3 0.5 -0.2
v -0.2 0.5 -0.2
v 0.3 0.5 -0.2
v 0.4 0.5 -0.2
v 0.9 0.5 -0.2
v 1 0.5 -0.2
v -1.1 0.5 -0.3
v -1 0.5 -0.3
v -0.4 0.5 -0.3
v -0.3 0.5 -0.3
v -0.2 0.5 -0.3
v 0.4 0.5 -0.3
v 0.5 0.5 -0.3
v 0.9 0.5 -0.3
v 1 0.5 -0.3
v 0.3 0.5 -0.4
v 0.5 0.5 -0.4
v -0.4 0.5 -0.5
v -0.3 0.5 -0.5
v 0.5 0.6 -0.3
v 0.6 0.6 -0.3
v 0.5 0.6 -0.4
v 0.6 0.6 -0.4
v 0.2 0.7 -0.3
v 0.3 0.7 -0.3
v 0.2 0.7 -0.4
v 0.3 0.7 -0.4
v -0.4 1 -0.2
v -0.3 1 -0.2
v -0.2 1 -0.2
v 0.2 1 -0.2
v 0.4 1 -0.2
v 0.5 1 -0.2
v 0.6 1 -0.2
v -0.3 1 -0.3
v -0.2 1 -0.3
v 0.2 1 -0.3
v 0.6 1 -0.3
v -0.4 1 -0.4
v -0.3 1 -0.4
v -0.3 1.7 2.23517e-08
v -0.2 1.7 2.23517e-08
v 0.2 1.7 2.23517e-08
v 0.3 1.7 2.23517e-08
v -0.3 1.7 -0.1
v -0.2 1.7 -0.1
v 0.2 1.7 -0.1
v 0.3 1.7 -0.1
v -0.3 -0.1 2.23517e-08
v -0.2 -0.1 2.23517e-08
v 0.2 -0.1 2.23517e-08
v 0.3 -0.1 2.23517e-08
v -0.3 -0.1 -0.1
v -0.2 -0.1 -0.1
v 0.2 -0.1 -0.1
v 0.3 -0.1 -0.1
v -0.7 0.1 -0.1
v -0.6 0.1 -0.1
v -0.7 0.1 -0.2
v -0.6 0.1 -0.2
v -0.4 0.6 -0.2
v -0.3 0.6 -0.2
v -0.2 0.6 -0.2
v -0.3 0.6 -0.3
v -0.2 0.6 -0.3
v -0.4 0.6 -0.4
v -0.3 0.6 -0.4
v 0.3 0.8 -0.2
v 0.4 0.8 -0.2
v 0.5 0.8 -0.2
v 0.3 0.8 -0.3
v 0.5 0.8 -0.3
v -1.1 1 -0.2
v -1 1 -0.2
v 0.9 1 -0.2
v 1 1 -0.2
v -1.1 1 -0.3
v -1 1 -0.3
v 0.9 1 -0.3
v 1 1 -0.3
v -0.3 1.1 -0.2
v -0.2 1.1 -0.2
v 0.2 1.1 -0.2
v 0.4 1.1 -0.2
v 0.5 1.1 -0.2
v 0.6 1.1 -0.2
v -0.4 1.1 -0.3
v -0.3 1.1 -0.3
v -0.2 1.1 -0.3
v 0.6 1.1 -0.3
v 0.2 1.1 -0.4
v 0.6 1.1 -0.4
v -0.4 1.1 -0.5
v -0.3 1.1 -0.5
v -0.4 1.2 -0.2
v -0.3 1.2 -0.2
v -0.4 1.2 -0.3
v -0.3 1.2 -0.3
v -1 1.3 -0.2
v -0.9 1.3 -0.2
v 0.8 1.3 -0.2
v 0.9 1.3 -0.2
v -1 1.3 -0.3
v -0.9 1.3 -0.3
v 0.8 1.3 -0.3
v 0.9 1.3 -0.3
v -0.9 1.4 -0.2
v -0.8 1.4 -0.2
v 0.7 1.4 -0.2
v 0.8 1.4 -0.2
v -0.9 1.4 -0.3
v -0.8 1.4 -0.3
v 0.7 1.4 -0.3
v 0.8 1.4 -0.3
v -0.8 1.5 -0.2
v -0.7 1.5 -0.2
v 0.6 1.5 -0.2
v 0.7 1.5 -0.2
v -0.8 1.5 -0.3
v -0.7 1.5 -0.3
v 0.6 1.5 -0.3
v 0.7 1.5 -0.3
v 0.5 1.6 -0.1
v 0.6 1.6 -0.1
v -0.7 1.6 -0.2
v -0.6 1.6 -0.2
v 0.5 1.6 -0.2
v 0.6 1.6 -0.2
v -0.7 1.6 -0.3
v -0.6 1.6 -0.3
v -0.6 1.7 -0.1
v -0.5 1.7 -0.1
v -0.4 1.7 -0.1
v 0.3 1.7 -0.1
v 0.4 1.7 -0.1
v 0.5 1.7 -0.1
v -0.6 1.7 -0.2
v -0.5 1.7 -0.2
v -0.4 1.7 -0.2
v 0.3 1.7 -0.2
v 0.4 1.7 -0.2
v 0.5 1.7 -0.2
v -0.4 1.8 -0.1
v -0.3 1.8 -0.1
v -0.2 1.8 -0.1
v 0.2 1.8 -0.1
v 0.3 1.8 -0.1
v -0.4 1.8 -0.2
v -0.2 1.8 -0.2
v 0.2 1.8 -0.2
v 0.3 1.8 -0.2
v -0.3 1.9 2.23517e-08
v -0.1 1.9 2.23517e-08
v 0 1.9 2.23517e-08
v 0.3 1.9 2.23517e-08
v -0.3 1.9 -0.1
v -0.1 1.9 -0.1
v 0 1.9 -0.1
v 0.3 1.9 -0.1

# faces
f 3/1/1 2/1/1 1/1/1
f 4/1/1 2/1/1 3/1/1
f 5/4/1 4/4/1 3/4/1
f 6/4/1 4/4/1 5/4/1
f 7/1/1 6/1/1 5/1/1
f 8/1/1 6/1/1 7/1/1
f 11/1/1 10/1/1 9/1/1
f 12/1/1 10/1/1 11/1/1
f 13/4/1 12/4/1 11/4/1
f 14/4/1 12/4/1 13/4/1
f 15/1/1 14/1/1 13/1/1
f 16/1/1 14/1/1 15/1/1
f 19/1/1 18/1/1 17/1/1
f 20/1/1 18/1/1 19/1/1
f 21/4/1 20/4/1 19/4/1
f 22/4/1 20/4/1 21/4/1
f 25/1/1 24/1/1 23/1/1
f 26/1/1 24/1/1 25/1/1
f 29/1/1 28/1/1 27/1/1
f 30/1/1 28/1/1 29/1/1
f 33/4/1 32/4/1 31/4/1
f 34/4/1 32/4/1 33/4/1
f 37/1/1 36/1/1 35/1/1
f 38/1/1 36/1/1 37/1/1
f 41/1/1 40/1/1 39/1/1
f 42/1/1 40/1/1 41/1/1
f 45/1/1 44/1/1 43/1/1
f 46/1/1 44/1/1 45/1/1
f 49/1/1 48/1/1 47/1/1
f 50/1/1 48/1/1 49/1/1
f 53/3/1 52/3/1 51/3/1
f 54/3/1 52/3/1 53/3/1
f 55/5/1 54/5/1 53/5/1
f 56/5/1 54/5/1 55/5/1
f 57/3/1 56/3/1 55/3/1
f 58/3/1 57/3/1 55/3/1
f 59/3/1 57/3/1 58/3/1
f 60/4/1 59/4/1 58/4/1
f 61/4/1 59/4/1 60/4/1
f 64/1/1 63/1/1 62/1/1
f 65/1/1 63/1/1 64/1/1
f 68/4/1 67/4/1 66/4/1
f 69/4/1 67/4/1 68/4/1
f 71/1/1 69/1/1 68/1/1
f 71/1/1 70/1/1 69/1/1
f 72/1/1 70/1/1 71/1/1
f 74/1/1 70/1/1 72/1/1
f 75/1/1 74/1/1 73/1/1
f 76/1/1 74/1/1 75/1/1
f 77/1/1 70/1/1 74/1/1
f 77/1/1 74/1/1 76/1/1
f 78/4/1 76/4/1 75/4/1
f 79/4/1 76/4/1 78/4/1
f 82/1/1 81/1/1 80/1/1
f 83/1/1 81/1/1 82/1/1
f 86/4/1 85/4/1 84/4/1
f 87/4/1 85/4/1 86/4/1
f 90/1/1 89/1/1 88/1/1
f 91/1/1 90/1/1 88/1/1
f 92/1/1 90/1/1 91/1/1
f 95/1/1 94/1/1 93/1/1
f 96/1/1 94/1/1 95/1/1
f 99/3/1 98/3/1 97/3/1
f 100/3/1 98/3/1 99/3/1
f 101/5/1 100/5/1 99/5/1
f 102/5/1 100/5/1 101/5/1
f 103/3/1 102/3/1 101/3/1
f 104/3/1 102/3/1 103/3/1
f 107/1/1 106/1/1 105/1/1
f 108/1/1 106/1/1 107/1/1
f 109/3/1 108/3/1 107/3/1
f 110/3/1 108/3/1 109/3/1
f 111/5/1 110/5/1 109/5/1
f 112/5/1 110/5/1 111/5/1
f 115/3/1 112/3/1 111/3/1
f 116/2/1 114/2/1 113/2/1
f 117/3/1 115/3/1 111/3/1
f 117/2/1 116/2/1 115/2/1
f 118/2/1 114/2/1 116/2/1
f 118/2/1 116/2/1 117/2/1
f 119/3/1 117/3/1 111/3/1
f 120/3/1 117/3/1 119/3/1
f 121/5/1 120/5/1 119/5/1
f 122/5/1 120/5/1 121/5/1
f 123/3/1 122/3/1 121/3/1
f 124/3/1 122/3/1 123/3/1
f 125/1/1 124/1/1 123/1/1
f 126/1/1 124/1/1 125/1/1
f 129/2/1 128/2/1 127/2/1
f 130/2/1 128/2/1 129/2/1
f 131/2/1 129/2/1 127/2/1
f 132/2/1 129/2/1 131/2/1
f 135/2/1 134/2/1 133/2/1
f 136/2/1 134/2/1 135/2/1
f 139/1/1 138/1/1 137/1/1
f 140/1/1 138/1/1 139/1/1
f 141/3/1 140/3/1 139/3/1
f 142/3/1 141/3/1 139/3/1
f 143/3/1 141/3/1 142/3/1
f 146/3/1 145/3/1 144/3/1
f 147/3/1 145/3/1 146/3/1
f 148/5/1 147/5/1 146/5/1
f 149/5/1 147/5/1 148/5/1
f 150/3/1 149/3/1 148/3/1
f 151/3/1 149/3/1 150/3/1
f 152/1/1 151/1/1 150/1/1
f 153/1/1 151/1/1 152/1/1
f 154/4/2 155/4/2 156/4/2
f 156/4/2 155/4/2 157/4/2
f 158/2/2 159/2/2 160/2/2
f 160/2/2 159/2/2 161/2/2
f 161/2/2 159/2/2 162/2/2
f 162/2/2 159/2/2 163/2/2
f 162/1/2 163/1/2 164/1/2
f 164/1/2 163/1/2 165/1/2
f 166/4/2 167/4/2 168/4/2
f 168/4/2 167/4/2 169/4/2
f 169/1/2 170/1/2 171/1/2
f 171/1/2 170/1/2 172/1/2
f 172/1/2 170/1/2 174/1/2
f 173/1/2 174/1/2 176/1/2
f 174/1/2 170/1/2 177/1/2
f 176/1/2 174/1/2 177/1/2
f 175/4/2 176/4/2 178/4/2
f 178/4/2 176/4/2 179/4/2
f 180/1/2 181/1/2 182/1/2
f 182/1/2 181/1/2 183/1/2
f 182/2/2 183/2/2 184/2/2
f 184/2/2 183/2/2 185/2/2
f 184/2/2 185/2/2 187/2/2
f 185/4/2 186/4/2 187/4/2
f 187/4/2 186/4/2 188/4/2
f 184/2/2 187/2/2 189/2/2
f 189/2/2 187/2/2 190/2/2
f 189/2/2 190/2/2 192/2/2
f 190/4/2 191/4/2 192/4/2
f 192/4/2 191/4/2 193/4/2
f 189/2/2 192/2/2 194/2/2
f 194/2/2 192/2/2 195/2/2
f 194/1/2 195/1/2 196/1/2
f 196/1/2 195/1/2 197/1/2
f 198/1/2 199/1/2 200/1/2
f 200/1/2 199/1/2 201/1/2
f 202/2/2 203/2/2 204/2/2
f 202/2/2 204/2/2 205/2/2
f 202/2/2 205/2/2 206/2/2
f 202/2/2 206/2/2 207/2/2
f 202/2/2 207/2/2 208/2/2
f 208/2/2 207/2/2 209/2/2
f 210/1/2 211/1/2 212/1/2
f 212/1/2 211/1/2 213/1/2
f 213/1/2 211/1/2 214/1/2
f 215/1/2 216/1/2 218/1/2
f 216/1/2 217/1/2 218/1/2
f 218/1/2 217/1/2 219/1/2
f 215/1/2 218/1/2 220/1/2
f 220/1/2 218/1/2 221/1/2
f 222/4/2 223/4/2 224/4/2
f 224/4/2 223/4/2 225/4/2
f 226/2/2 227/2/2 228/2/2
f 226/2/2 228/2/2 230/2/2
f 228/2/2 229/2/2 230/2/2
f 230/2/2 229/2/2 231/2/2
f 226/2/2 230/2/2 232/2/2
f 232/2/2 230/2/2 233/2/2
f 234/4/2 235/4/2 236/4/2
f 236/4/2 235/4/2 237/4/2
f 238/1/2 239/1/2 240/1/2
f 240/1/2 239/1/2 241/1/2
f 242/2/2 243/2/2 244/2/2
f 244/2/2 243/2/2 245/2/2
f 240/2/2 241/2/2 246/2/2
f 240/2/2 246/2/2 247/2/2
f 240/2/2 247/2/2 248/2/2
f 240/2/2 248/2/2 249/2/2
f 249/2/2 248/2/2 250/2/2
f 249/4/2 250/4/2 251/4/2
f 251/4/2 250/4/2 252/4/2
f 253/1/2 254/1/2 255/1/2
f 255/1/2 254/1/2 256/1/2
f 257/1/2 258/1/2 259/1/2
f 259/1/2 258/1/2 260/1/2
f 261/1/2 262/1/2 263/1/2
f 263/1/2 262/1/2 264/1/2
f 265/1/2 266/1/2 267/1/2
f 267/1/2 266/1/2 268/1/2
f 269/4/2 270/4/2 271/4/2
f 271/4/2 270/4/2 272/4/2
f 271/1/2 272/1/2 273/1/2
f 273/1/2 272/1/2 274/1/2
f 275/1/2 276/1/2 277/1/2
f 277/1/2 276/1/2 278/1/2
f 279/1/2 280/1/2 281/1/2
f 281/1/2 280/1/2 282/1/2
f 281/4/2 282/4/2 283/4/2
f 283/4/2 282/4/2 284/4/2
f 283/1/2 284/1/2 285/1/2
f 285/1/2 284/1/2 286/1/2
f 292/4/3 288/4/3 287/4/3
f 293/4/3 288/4/3 292/4/3
f 296/1/3 290/1/3 289/1/3
f 297/1/3 290/1/3 296/1/3
f 298/3/3 293/3/3 292/3/3
f 298/3/3 294/3/3 293/3/3
f 299/3/3 294/3/3 298/3/3
f 300/3/3 297/3/3 296/3/3
f 300/3/3 296/3/3 295/3/3
f 301/3/3 297/3/3 300/3/3
f 302/1/3 290/1/3 297/1/3
f 302/3/3 297/3/3 301/3/3
f 303/1/3 290/1/3 302/1/3
f 304/1/3 292/1/3 291/1/3
f 305/3/3 298/3/3 292/3/3
f 305/1/3 292/1/3 304/1/3
f 306/5/3 299/5/3 298/5/3
f 306/3/3 298/3/3 305/3/3
f 307/3/3 294/3/3 299/3/3
f 307/5/3 299/5/3 306/5/3
f 308/5/3 295/5/3 294/5/3
f 308/3/3 294/3/3 307/3/3
f 309/3/3 300/3/3 295/3/3
f 309/5/3 295/5/3 308/5/3
f 310/5/3 301/5/3 300/5/3
f 310/3/3 300/3/3 309/3/3
f 311/3/3 302/3/3 301/3/3
f 311/5/3 301/5/3 310/5/3
f 312/4/3 303/4/3 302/4/3
f 312/3/3 302/3/3 311/3/3
f 313/4/3 303/4/3 312/4/3
f 314/4/3 305/4/3 304/4/3
f 315/5/3 307/5/3 306/5/3
f 315/4/3 305/4/3 314/4/3
f 315/5/3 309/5/3 308/5/3
f 315/5/3 306/5/3 305/5/3
f 315/5/3 312/5/3 311/5/3
f 315/5/3 311/5/3 310/5/3
f 315/5/3 310/5/3 309/5/3
f 315/5/3 308/5/3 307/5/3
f 316/1/3 313/1/3 312/1/3
f 316/5/3 312/5/3 315/5/3
f 317/1/3 315/1/3 314/1/3
f 318/2/3 316/2/3 315/2/3
f 318/1/3 315/1/3 317/1/3
f 319/2/3 316/2/3 318/2/3
f 320/2/3 316/2/3 319/2/3
f 321/1/3 313/1/3 316/1/3
f 321/2/3 316/2/3 320/2/3
f 322/1/3 319/1/3 318/1/3
f 323/1/3 319/1/3 322/1/3
f 324/1/3 321/1/3 320/1/3
f 325/1/3 313/1/3 321/1/3
f 325/1/3 321/1/3 324/1/3
f 329/1/3 327/1/3 326/1/3
f 330/1/3 327/1/3 329/1/3
f 335/1/3 329/1/3 328/1/3
f 336/3/3 330/3/3 329/3/3
f 336/1/3 329/1/3 335/1/3
f 336/3/3 331/3/3 330/3/3
f 337/3/3 331/3/3 336/3/3
f 338/3/3 331/3/3 337/3/3
f 339/3/3 331/3/3 338/3/3
f 340/3/3 331/3/3 339/3/3
f 341/5/3 332/5/3 331/5/3
f 341/3/3 331/3/3 340/3/3
f 342/3/3 333/3/3 332/3/3
f 342/5/3 332/5/3 341/5/3
f 343/4/3 334/4/3 333/4/3
f 343/3/3 333/3/3 342/3/3
f 344/4/3 334/4/3 343/4/3
f 346/4/3 336/4/3 335/4/3
f 347/3/3 337/3/3 336/3/3
f 347/4/3 336/4/3 346/4/3
f 348/5/3 338/5/3 337/5/3
f 348/3/3 337/3/3 347/3/3
f 349/3/3 339/3/3 338/3/3
f 349/5/3 338/5/3 348/5/3
f 350/5/3 340/5/3 339/5/3
f 350/3/3 339/3/3 349/3/3
f 351/3/3 342/3/3 341/3/3
f 351/5/3 340/5/3 350/5/3
f 351/3/3 341/3/3 340/3/3
f 351/3/3 343/3/3 342/3/3
f 352/1/3 344/1/3 343/1/3
f 352/3/3 343/3/3 351/3/3
f 353/1/3 344/1/3 352/1/3
f 355/1/3 346/1/3 345/1/3
f 356/5/3 350/5/3 349/5/3
f 356/1/3 346/1/3 355/1/3
f 356/5/3 349/5/3 348/5/3
f 356/5/3 352/5/3 351/5/3
f 356/5/3 351/5/3 350/5/3
f 356/5/3 348/5/3 347/5/3
f 356/5/3 347/5/3 346/5/3
f 356/5/3 353/5/3 352/5/3
f 357/1/3 354/1/3 353/1/3
f 357/5/3 353/5/3 356/5/3
f 358/1/3 354/1/3 357/1/3
f 359/2/3 357/2/3 356/2/3
f 360/2/3 357/2/3 359/2/3
f 361/2/3 357/2/3 360/2/3
f 362/2/3 357/2/3 361/2/3
f 369/3/3 364/3/3 363/3/3
f 370/3/3 364/3/3 369/3/3
f 371/5/3 365/5/3 364/5/3
f 371/3/3 364/3/3 370/3/3
f 372/3/3 366/3/3 365/3/3
f 372/5/3 365/5/3 371/5/3
f 373/3/3 366/3/3 372/3/3
f 374/3/3 366/3/3 373/3/3
f 375/5/3 367/5/3 366/5/3
f 375/3/3 366/3/3 374/3/3
f 376/3/3 368/3/3 367/3/3
f 376/5/3 367/5/3 375/5/3
f 377/3/3 368/3/3 376/3/3
f 378/3/3 368/3/3 377/3/3
f 379/1/3 370/1/3 369/1/3
f 380/3/3 371/3/3 370/3/3
f 380/1/3 370/1/3 379/1/3
f 380/3/3 372/3/3 371/3/3
f 380/3/3 373/3/3 372/3/3
f 381/5/3 374/5/3 373/5/3
f 381/3/3 373/3/3 380/3/3
f 382/3/3 375/3/3 374/3/3
f 382/5/3 374/5/3 381/5/3
f 382/3/3 377/3/3 376/3/3
f 382/3/3 376/3/3 375/3/3
f 383/1/3 378/1/3 377/1/3
f 383/3/3 377/3/3 382/3/3
f 384/1/3 378/1/3 383/1/3
f 385/4/3 380/4/3 379/4/3
f 386/5/3 381/5/3 380/5/3
f 386/4/3 380/4/3 385/4/3
f 386/5/3 382/5/3 381/5/3
f 386/5/3 383/5/3 382/5/3
f 387/5/3 383/5/3 386/5/3
f 388/5/3 383/5/3 387/5/3
f 389/4/3 384/4/3 383/4/3
f 389/5/3 383/5/3 388/5/3
f 390/4/3 384/4/3 389/4/3
f 391/1/3 387/1/3 386/1/3
f 392/2/3 388/2/3 387/2/3
f 392/1/3 387/1/3 391/1/3
f 393/4/3 389/4/3 388/4/3
f 393/2/3 388/2/3 392/2/3
f 394/4/3 389/4/3 393/4/3
f 402/1/3 396/1/3 395/1/3
f 403/1/3 396/1/3 402/1/3
f 404/4/3 397/4/3 396/4/3
f 404/1/3 396/1/3 403/1/3
f 405/1/3 398/1/3 397/1/3
f 405/4/3 397/4/3 404/4/3
f 406/1/3 398/1/3 405/1/3
f 410/1/3 400/1/3 399/1/3
f 411/4/3 401/4/3 400/4/3
f 411/1/3 400/1/3 410/1/3
f 412/1/3 402/1/3 401/1/3
f 412/4/3 401/4/3 411/4/3
f 413/3/3 403/3/3 402/3/3
f 413/1/3 402/1/3 412/1/3
f 414/5/3 404/5/3 403/5/3
f 414/3/3 403/3/3 413/3/3
f 415/3/3 405/3/3 404/3/3
f 415/5/3 404/5/3 414/5/3
f 415/3/3 406/3/3 405/3/3
f 416/3/3 406/3/3 415/3/3
f 417/1/3 407/1/3 406/1/3
f 417/3/3 406/3/3 416/3/3
f 418/4/3 408/4/3 407/4/3
f 418/1/3 407/1/3 417/1/3
f 419/4/3 408/4/3 418/4/3
f 422/1/3 410/1/3 409/1/3
f 423/3/3 412/3/3 411/3/3
f 423/3/3 413/3/3 412/3/3
f 423/1/3 410/1/3 422/1/3
f 423/3/3 411/3/3 410/3/3
f 423/3/3 414/3/3 413/3/3
f 423/3/3 416/3/3 415/3/3
f 423/3/3 415/3/3 414/3/3
f 424/5/3 417/5/3 416/5/3
f 424/3/3 416/3/3 423/3/3
f 425/3/3 419/3/3 418/3/3
f 425/5/3 417/5/3 424/5/3
f 425/3/3 418/3/3 417/3/3
f 426/1/3 420/1/3 419/1/3
f 426/3/3 419/3/3 425/3/3
f 427/1/3 420/1/3 426/1/3
f 429/4/3 422/4/3 421/4/3
f 430/5/3 425/5/3 424/5/3
f 430/4/3 422/4/3 429/4/3
f 430/5/3 423/5/3 422/5/3
f 430/5/3 427/5/3 426/5/3
f 430/5/3 426/5/3 425/5/3
f 430/5/3 424/5/3 423/5/3
f 431/1/3 428/1/3 427/1/3
f 431/5/3 427/5/3 430/5/3
f 432/1/3 428/1/3 431/1/3
f 434/2/3 431/2/3 430/2/3
f 434/2/3 432/2/3 431/2/3
f 435/2/3 432/2/3 434/2/3
f 436/2/3 432/2/3 435/2/3
f 437/1/3 433/1/3 432/1/3
f 437/2/3 432/2/3 436/2/3
f 438/1/3 433/1/3 437/1/3
f 445/1/3 440/1/3 439/1/3
f 446/3/3 441/3/3 440/3/3
f 446/1/3 440/1/3 445/1/3
f 447/3/3 441/3/3 446/3/3
f 448/3/3 441/3/3 447/3/3
f 449/3/3 441/3/3 448/3/3
f 450/5/3 442/5/3 441/5/3
f 450/3/3 443/3/3 442/3/3
f 451/1/3 444/1/3 443/1/3
f 451/3/3 443/3/3 450/3/3
f 452/1/3 444/1/3 451/1/3
f 453/1/3 447/1/3 446/1/3
f 454/3/3 448/3/3 447/3/3
f 454/1/3 447/1/3 453/1/3
f 455/3/3 448/3/3 454/3/3
f 456/3/3 448/3/3 455/3/3
f 457/5/3 449/5/3 448/5/3
f 457/3/3 448/3/3 456/3/3
f 458/3/3 441/3/3 449/3/3
f 458/5/3 449/5/3 457/5/3
f 459/3/3 441/3/3 458/3/3
f 460/5/3 450/5/3 441/5/3
f 460/3/3 441/3/3 459/3/3
f 461/1/3 451/1/3 450/1/3
f 461/5/3 450/5/3 460/5/3
f 462/1/3 451/1/3 461/1/3
f 463/4/3 455/4/3 454/4/3
f 464/1/3 456/1/3 455/1/3
f 464/4/3 455/4/3 463/4/3
f 465/5/3 459/5/3 458/5/3
f 465/1/3 456/1/3 464/1/3
f 465/5/3 457/5/3 456/5/3
f 465/5/3 458/5/3 457/5/3
f 466/5/3 459/5/3 465/5/3
f 467/5/3 459/5/3 466/5/3
f 468/1/3 461/1/3 460/1/3
f 468/5/3 459/5/3 467/5/3
f 468/1/3 460/1/3 459/1/3
f 469/1/3 461/1/3 468/1/3
f 470/1/3 466/1/3 465/1/3
f 471/4/3 467/4/3 466/4/3
f 471/1/3 466/1/3 470/1/3
f 472/1/3 468/1/3 467/1/3
f 472/4/3 467/4/3 471/4/3
f 473/1/3 468/1/3 472/1/3
f 476/2/3 475/2/3 474/2/3
f 477/2/3 475/2/3 476/2/3
f 479/2/3 475/2/3 477/2/3
f 480/2/3 479/2/3 478/2/3
f 481/2/3 475/2/3 479/2/3
f 481/2/3 479/2/3 480/2/3
f 484/1/3 483/1/3 482/1/3
f 485/1/3 483/1/3 484/1/3
f 486/1/4 487/1/4 494/1/4
f 489/3/4 490/3/4 495/3/4
f 490/3/4 491/3/4 495/3/4
f 495/3/4 491/3/4 496/3/4
f 492/3/4 493/3/4 497/3/4
f 493/3/4 494/3/4 497/3/4
f 497/3/4 494/3/4 498/3/4
f 494/1/4 487/1/4 499/1/4
f 498/3/4 494/3/4 499/3/4
f 499/1/4 487/1/4 500/1/4
f 488/1/4 489/1/4 501/1/4
f 489/3/4 495/3/4 502/3/4
f 501/1/4 489/1/4 502/1/4
f 495/5/4 496/5/4 503/5/4
f 502/3/4 495/3/4 503/3/4
f 496/3/4 491/3/4 504/3/4
f 503/5/4 496/5/4 504/5/4
f 491/5/4 492/5/4 505/5/4
f 504/3/4 491/3/4 505/3/4
f 492/3/4 497/3/4 506/3/4
f 505/5/4 492/5/4 506/5/4
f 497/5/4 498/5/4 507/5/4
f 506/3/4 497/3/4 507/3/4
f 498/3/4 499/3/4 508/3/4
f 507/5/4 498/5/4 508/5/4
f 499/4/4 500/4/4 509/4/4
f 508/3/4 499/3/4 509/3/4
f 509/4/4 500/4/4 510/4/4
f 501/4/4 502/4/4 511/4/4
f 502/5/4 503/5/4 512/5/4
f 511/4/4 502/4/4 512/4/4
f 505/5/4 506/5/4 512/5/4
f 503/5/4 504/5/4 512/5/4
f 508/5/4 509/5/4 512/5/4
f 507/5/4 508/5/4 512/5/4
f 506/5/4 507/5/4 512/5/4
f 504/5/4 505/5/4 512/5/4
f 509/1/4 510/1/4 513/1/4
f 512/5/4 509/5/4 513/5/4
f 511/1/4 512/1/4 514/1/4
f 512/2/4 513/2/4 515/2/4
f 514/1/4 512/1/4 515/1/4
f 515/2/4 513/2/4 516/2/4
f 516/2/4 513/2/4 517/2/4
f 517/2/4 513/2/4 518/2/4
f 518/2/4 513/2/4 519/2/4
f 519/2/4 513/2/4 520/2/4
f 520/2/4 513/2/4 521/2/4
f 513/1/4 510/1/4 522/1/4
f 521/2/4 513/2/4 522/2/4
f 522/1/4 510/1/4 523/1/4
f 523/1/4 510/1/4 524/1/4
f 525/1/4 526/1/4 528/1/4
f 528/1/4 526/1/4 529/1/4
f 527/1/4 528/1/4 535/1/4
f 528/3/4 529/3/4 536/3/4
f 535/1/4 528/1/4 536/1/4
f 529/3/4 530/3/4 536/3/4
f 536/3/4 530/3/4 537/3/4
f 537/3/4 530/3/4 538/3/4
f 538/3/4 530/3/4 539/3/4
f 539/3/4 530/3/4 540/3/4
f 530/5/4 531/5/4 541/5/4
f 540/3/4 530/3/4 541/3/4
f 532/3/4 533/3/4 542/3/4
f 541/5/4 531/5/4 542/5/4
f 531/3/4 532/3/4 542/3/4
f 533/4/4 534/4/4 543/4/4
f 542/3/4 533/3/4 543/3/4
f 543/4/4 534/4/4 544/4/4
f 535/4/4 536/4/4 546/4/4
f 536/3/4 537/3/4 547/3/4
f 546/4/4 536/4/4 547/4/4
f 537/5/4 538/5/4 548/5/4
f 547/3/4 537/3/4 548/3/4
f 538/3/4 539/3/4 549/3/4
f 548/5/4 538/5/4 549/5/4
f 549/3/4 539/3/4 550/3/4
f 550/3/4 539/3/4 551/3/4
f 539/5/4 540/5/4 552/5/4
f 551/3/4 539/3/4 552/3/4
f 541/3/4 542/3/4 553/3/4
f 552/5/4 540/5/4 553/5/4
f 540/3/4 541/3/4 553/3/4
f 542/3/4 543/3/4 553/3/4
f 553/3/4 543/3/4 554/3/4
f 554/3/4 543/3/4 555/3/4
f 555/3/4 543/3/4 556/3/4
f 543/1/4 544/1/4 557/1/4
f 556/3/4 543/3/4 557/3/4
f 557/1/4 544/1/4 558/1/4
f 547/5/4 548/5/4 560/5/4
f 545/1/4 546/1/4 560/1/4
f 546/5/4 547/5/4 560/5/4
f 548/5/4 549/5/4 560/5/4
f 560/5/4 549/5/4 561/5/4
f 551/5/4 552/5/4 563/5/4
f 553/5/4 554/5/4 563/5/4
f 552/5/4 553/5/4 563/5/4
f 563/5/4 554/5/4 564/5/4
f 556/5/4 557/5/4 566/5/4
f 557/5/4 558/5/4 566/5/4
f 558/1/4 559/1/4 567/1/4
f 566/5/4 558/5/4 567/5/4
f 545/1/4 560/1/4 568/1/4
f 561/2/4 562/2/4 569/2/4
f 568/1/4 560/1/4 569/1/4
f 560/2/4 561/2/4 569/2/4
f 569/2/4 562/2/4 570/2/4
f 563/2/4 564/2/4 571/2/4
f 571/2/4 564/2/4 572/2/4
f 565/2/4 566/2/4 573/2/4
f 566/2/4 567/2/4 573/2/4
f 567/1/4 559/1/4 574/1/4
f 573/2/4 567/2/4 574/2/4
f 574/1/4 559/1/4 575/1/4
f 576/1/4 577/1/4 586/1/4
f 577/3/4 578/3/4 587/3/4
f 586/1/4 577/1/4 587/1/4
f 587/3/4 578/3/4 588/3/4
f 578/5/4 579/5/4 589/5/4
f 588/3/4 578/3/4 589/3/4
f 579/3/4 580/3/4 590/3/4
f 589/5/4 579/5/4 590/5/4
f 590/3/4 580/3/4 591/3/4
f 591/3/4 580/3/4 592/3/4
f 581/3/4 582/3/4 593/3/4
f 582/5/4 583/5/4 593/5/4
f 583/3/4 584/3/4 594/3/4
f 593/5/4 583/5/4 594/5/4
f 594/3/4 584/3/4 595/3/4
f 584/1/4 585/1/4 596/1/4
f 595/3/4 584/3/4 596/3/4
f 596/1/4 585/1/4 597/1/4
f 587/1/4 588/1/4 598/1/4
f 588/3/4 589/3/4 599/3/4
f 598/1/4 588/1/4 599/1/4
f 589/3/4 590/3/4 599/3/4
f 590/3/4 591/3/4 599/3/4
f 599/3/4 591/3/4 600/3/4
f 600/3/4 591/3/4 601/3/4
f 592/3/4 580/3/4 602/3/4
f 602/3/4 580/3/4 603/3/4
f 594/3/4 595/3/4 604/3/4
f 581/3/4 593/3/4 604/3/4
f 593/3/4 594/3/4 604/3/4
f 595/1/4 596/1/4 605/1/4
f 604/3/4 595/3/4 605/3/4
f 605/1/4 596/1/4 606/1/4
f 598/4/4 599/4/4 607/4/4
f 599/5/4 600/5/4 608/5/4
f 607/4/4 599/4/4 608/4/4
f 608/5/4 600/5/4 609/5/4
f 609/5/4 600/5/4 610/5/4
f 602/5/4 603/5/4 611/5/4
f 611/5/4 603/5/4 612/5/4
f 604/5/4 605/5/4 613/5/4
f 613/5/4 605/5/4 614/5/4
f 605/4/4 606/4/4 615/4/4
f 614/5/4 605/5/4 615/5/4
f 615/4/4 606/4/4 616/4/4
f 608/1/4 609/1/4 617/1/4
f 609/2/4 610/2/4 618/2/4
f 617/1/4 609/1/4 618/1/4
f 611/2/4 612/2/4 618/2/4
f 610/2/4 611/2/4 618/2/4
f 618/2/4 612/2/4 619/2/4
f 613/2/4 614/2/4 620/2/4
f 620/2/4 614/2/4 621/2/4
f 621/2/4 614/2/4 622/2/4
f 622/2/4 614/2/4 623/2/4
f 614/4/4 615/4/4 624/4/4
f 623/2/4 614/2/4 624/2/4
f 624/4/4 615/4/4 625/4/4
f 626/1/4 627/1/4 633/1/4
f 633/1/4 627/1/4 634/1/4
f 627/4/4 628/4/4 635/4/4
f 634/1/4 627/1/4 635/1/4
f 628/1/4 629/1/4 636/1/4
f 635/4/4 628/4/4 636/4/4
f 636/1/4 629/1/4 637/1/4
f 630/1/4 631/1/4 641/1/4
f 631/4/4 632/4/4 642/4/4
f 641/1/4 631/1/4 642/1/4
f 632/1/4 633/1/4 643/1/4
f 642/4/4 632/4/4 643/4/4
f 633/3/4 634/3/4 644/3/4
f 643/1/4 633/1/4 644/1/4
f 634/5/4 635/5/4 645/5/4
f 644/3/4 634/3/4 645/3/4
f 635/3/4 636/3/4 646/3/4
f 645/5/4 635/5/4 646/5/4
f 636/3/4 637/3/4 646/3/4
f 646/3/4 637/3/4 647/3/4
f 637/1/4 638/1/4 648/1/4
f 647/3/4 637/3/4 648/3/4
f 638/4/4 639/4/4 649/4/4
f 648/1/4 638/1/4 649/1/4
f 649/4/4 639/4/4 650/4/4
f 640/1/4 641/1/4 653/1/4
f 642/3/4 643/3/4 654/3/4
f 643/3/4 644/3/4 654/3/4
f 653/1/4 641/1/4 654/1/4
f 641/3/4 642/3/4 654/3/4
f 644/3/4 645/3/4 654/3/4
f 646/3/4 647/3/4 654/3/4
f 645/3/4 646/3/4 654/3/4
f 647/5/4 648/5/4 655/5/4
f 654/3/4 647/3/4 655/3/4
f 649/3/4 650/3/4 656/3/4
f 655/5/4 648/5/4 656/5/4
f 648/3/4 649/3/4 656/3/4
f 650/1/4 651/1/4 657/1/4
f 656/3/4 650/3/4 657/3/4
f 657/1/4 651/1/4 658/1/4
f 652/4/4 653/4/4 660/4/4
f 655/5/4 656/5/4 661/5/4
f 660/4/4 653/4/4 661/4/4
f 653/5/4 654/5/4 661/5/4
f 657/5/4 658/5/4 661/5/4
f 656/5/4 657/5/4 661/5/4
f 654/5/4 655/5/4 661/5/4
f 658/1/4 659/1/4 662/1/4
f 661/5/4 658/5/4 662/5/4
f 662/1/4 659/1/4 663/1/4
f 661/2/4 662/2/4 665/2/4
f 662/2/4 663/2/4 665/2/4
f 663/1/4 664/1/4 666/1/4
f 665/2/4 663/2/4 666/2/4
f 666/1/4 664/1/4 667/1/4
f 668/4/4 669/4/4 672/4/4
f 672/4/4 669/4/4 673/4/4
f 670/4/4 671/4/4 676/4/4
f 676/4/4 671/4/4 677/4/4
f 673/4/4 674/4/4 678/4/4
f 678/4/4 674/4/4 679/4/4
f 675/4/4 676/4/4 680/4/4
f 680/4/4 676/4/4 681/4/4
f 682/2/4 683/2/4 684/2/4
f 684/2/4 683/2/4 685/2/4
f 686/1/4 687/1/4 694/1/4
f 689/3/4 690/3/4 695/3/4
f 694/1/4 687/1/4 695/1/4
f 688/3/4 689/3/4 695/3/4
f 687/3/4 688/3/4 695/3/4
f 695/3/4 690/3/4 696/3/4
f 696/3/4 690/3/4 697/3/4
f 697/3/4 690/3/4 698/3/4
f 691/3/4 692/3/4 699/3/4
f 690/5/4 691/5/4 699/5/4
f 692/1/4 693/1/4 700/1/4
f 699/3/4 692/3/4 700/3/4
f 700/1/4 693/1/4 701/1/4
f 695/1/4 696/1/4 702/1/4
f 696/3/4 697/3/4 703/3/4
f 702/1/4 696/1/4 703/1/4
f 703/3/4 697/3/4 704/3/4
f 704/3/4 697/3/4 705/3/4
f 697/5/4 698/5/4 706/5/4
f 705/3/4 697/3/4 706/3/4
f 698/3/4 690/3/4 707/3/4
f 706/5/4 698/5/4 707/5/4
f 707/3/4 690/3/4 708/3/4
f 690/5/4 699/5/4 709/5/4
f 708/3/4 690/3/4 709/3/4
f 699/1/4 700/1/4 710/1/4
f 709/5/4 699/5/4 710/5/4
f 710/1/4 700/1/4 711/1/4
f 703/4/4 704/4/4 712/4/4
f 704/1/4 705/1/4 713/1/4
f 712/4/4 704/4/4 713/4/4
f 705/5/4 706/5/4 714/5/4
f 713/1/4 705/1/4 714/1/4
f 707/5/4 708/5/4 714/5/4
f 706/5/4 707/5/4 714/5/4
f 714/5/4 708/5/4 715/5/4
f 715/5/4 708/5/4 716/5/4
f 709/1/4 710/1/4 717/1/4
f 716/5/4 708/5/4 717/5/4
f 708/1/4 709/1/4 717/1/4
f 717/1/4 710/1/4 718/1/4
f 714/1/4 715/1/4 719/1/4
f 715/4/4 716/4/4 720/4/4
f 719/1/4 715/1/4 720/1/4
f 716/1/4 717/1/4 721/1/4
f 720/4/4 716/4/4 721/4/4
f 721/1/4 717/1/4 722/1/4
f 723/2/4 724/2/4 726/2/4
f 725/2/4 726/2/4 727/2/4
f 727/2/4 726/2/4 728/2/4
f 728/2/4 726/2/4 729/2/4
f 726/2/4 724/2/4 730/2/4
f 729/2/4 726/2/4 730/2/4
f 731/1/4 732/1/4 733/1/4
f 733/1/4 732/1/4 734/1/4
f 739/1/5 736/1/5 735/1/5
f 740/4/5 737/4/5 736/4/5
f 740/1/5 736/1/5 739/1/5
f 741/1/5 738/1/5 737/1/5
f 741/4/5 737/4/5 740/4/5
f 742/1/5 738/1/5 741/1/5
f 748/4/5 744/4/5 743/4/5
f 749/4/5 744/4/5 748/4/5
f 750/1/5 746/1/5 745/1/5
f 751/1/5 749/1/5 748/1/5
f 751/1/5 748/1/5 747/1/5
f 752/1/5 749/1/5 751/1/5
f 753/1/5 746/1/5 750/1/5
f 754/1/5 746/1/5 753/1/5
f 761/1/5 756/1/5 755/1/5
f 762/4/5 757/4/5 756/4/5
f 762/1/5 756/1/5 761/1/5
f 763/4/5 757/4/5 762/4/5
f 764/1/5 759/1/5 758/1/5
f 765/4/5 760/4/5 759/4/5
f 765/1/5 759/1/5 764/1/5
f 766/4/5 760/4/5 765/4/5
f 772/1/5 768/1/5 767/1/5
f 773/1/5 768/1/5 772/1/5
f 774/1/5 770/1/5 769/1/5
f 775/1/5 770/1/5 774/1/5
f 777/4/5 772/4/5 771/4/5
f 778/4/5 772/4/5 777/4/5
f 779/1/5 776/1/5 775/1/5
f 780/1/5 776/1/5 779/1/5
f 787/1/5 782/1/5 781/1/5
f 788/1/5 782/1/5 787/1/5
f 789/2/5 784/2/5 783/2/5
f 790/2/5 784/2/5 789/2/5
f 791/1/5 786/1/5 785/1/5
f 792/1/5 786/1/5 791/1/5
f 797/1/5 794/1/5 793/1/5
f 798/1/5 794/1/5 797/1/5
f 799/4/5 796/4/5 795/4/5
f 800/4/5 796/4/5 799/4/5
f 805/4/5 802/4/5 801/4/5
f 806/4/5 802/4/5 805/4/5
f 807/2/5 804/2/5 803/2/5
f 808/2/5 804/2/5 807/2/5
f 817/1/5 810/1/5 809/1/5
f 818/1/5 810/1/5 817/1/5
f 820/4/5 812/4/5 811/4/5
f 821/4/5 812/4/5 820/4/5
f 822/2/5 814/2/5 813/2/5
f 824/1/5 816/1/5 815/1/5
f 825/1/5 816/1/5 824/1/5
f 826/2/5 823/2/5 822/2/5
f 826/2/5 822/2/5 813/2/5
f 827/2/5 823/2/5 826/2/5
f 828/1/5 820/1/5 819/1/5
f 829/1/5 820/1/5 828/1/5
f 832/2/5 831/2/5 830/2/5
f 833/2/5 831/2/5 832/2/5
f 836/2/5 835/2/5 834/2/5
f 837/2/5 835/2/5 836/2/5
f 845/1/5 839/1/5 838/1/5
f 845/4/5 840/4/5 839/4/5
f 846/4/5 840/4/5 845/4/5
f 847/2/5 844/2/5 843/2/5
f 847/2/5 843/2/5 842/2/5
f 847/2/5 842/2/5 841/2/5
f 848/2/5 844/2/5 847/2/5
f 849/1/5 845/1/5 838/1/5
f 850/1/5 845/1/5 849/1/5
f 855/1/5 852/1/5 851/1/5
f 856/1/5 852/1/5 855/1/5
f 857/1/5 854/1/5 853/1/5
f 858/1/5 854/1/5 857/1/5
f 859/4/6 860/4/6 863/4/6
f 863/4/6 860/4/6 864/4/6
f 861/1/6 862/1/6 865/1/6
f 865/1/6 862/1/6 866/1/6
f 867/1/6 868/1/6 869/1/6
f 869/1/6 868/1/6 870/1/6
f 871/1/6 872/1/6 874/1/6
f 872/4/6 873/4/6 874/4/6
f 874/4/6 873/4/6 875/4/6
f 871/1/6 874/1/6 876/1/6
f 876/1/6 874/1/6 877/1/6
f 878/2/6 879/2/6 881/2/6
f 879/2/6 880/2/6 881/2/6
f 881/2/6 880/2/6 882/2/6
f 883/1/6 884/1/6 887/1/6
f 887/1/6 884/1/6 888/1/6
f 885/1/6 886/1/6 889/1/6
f 889/1/6 886/1/6 890/1/6
f 891/4/6 892/4/6 898/4/6
f 898/4/6 892/4/6 899/4/6
f 895/2/6 896/2/6 900/2/6
f 893/2/6 894/2/6 900/2/6
f 894/2/6 895/2/6 900/2/6
f 893/2/6 900/2/6 901/2/6
f 901/2/6 900/2/6 902/2/6
f 897/1/6 898/1/6 903/1/6
f 903/1/6 898/1/6 904/1/6
f 905/4/6 906/4/6 907/4/6
f 907/4/6 906/4/6 908/4/6
f 909/4/6 910/4/6 913/4/6
f 913/4/6 910/4/6 914/4/6
f 911/1/6 912/1/6 915/1/6
f 915/1/6 912/1/6 916/1/6
f 917/1/6 918/1/6 921/1/6
f 921/1/6 918/1/6 922/1/6
f 919/1/6 920/1/6 923/1/6
f 923/1/6 920/1/6 924/1/6
f 925/1/6 926/1/6 929/1/6
f 929/1/6 926/1/6 930/1/6
f 927/1/6 928/1/6 931/1/6
f 931/1/6 928/1/6 932/1/6
f 933/4/6 934/4/6 937/4/6
f 937/4/6 934/4/6 938/4/6
f 935/1/6 936/1/6 939/1/6
f 939/1/6 936/1/6 940/1/6
f 941/4/6 942/4/6 947/4/6
f 942/1/6 943/1/6 948/1/6
f 947/4/6 942/4/6 948/4/6
f 948/1/6 943/1/6 949/1/6
f 944/1/6 945/1/6 950/1/6
f 945/4/6 946/4/6 951/4/6
f 950/1/6 945/1/6 951/1/6
f 951/4/6 946/4/6 952/4/6
f 953/1/6 954/1/6 958/1/6
f 954/1/6 955/1/6 958/1/6
f 958/1/6 955/1/6 959/1/6
f 956/1/6 957/1/6 960/1/6
f 960/1/6 957/1/6 961/1/6
f 962/1/6 963/1/6 966/1/6
f 963/4/6 964/4/6 967/4/6
f 966/1/6 963/1/6 967/1/6
f 964/1/6 965/1/6 968/1/6
f 967/4/6 964/4/6 968/4/6
f 968/1/6 965/1/6 969/1/6
