# MagicaVoxel @ Ephtracy

# group
o 

# material
mtllib Arrow.mtl
usemtl palette

# normals
vn -1 0 0
vn 1 0 0
vn 0 0 1
vn 0 0 -1
vn 0 -1 0
vn 0 1 0

# texcoords
vt 0.181641 0.5
vt 0.958984 0.5
vt 0.962891 0.5

# verts
v -2.23517e-08 0.8 -1.1
v -2.23517e-08 0.8 -1.2
v -2.23517e-08 0.9 -0.5
v -2.23517e-08 0.9 -0.6
v -2.23517e-08 0.9 -1.1
v -2.23517e-08 0.9 -1.2
v -2.23517e-08 1 -0.5
v -2.23517e-08 1 -0.6
v -2.23517e-08 1 -1.1
v -2.23517e-08 1 -1.2
v -2.23517e-08 1.1 -1.1
v -2.23517e-08 1.1 -1.2
v 0.1 0.8 -1.1
v 0.1 0.8 -1.2
v 0.1 0.9 -0.5
v 0.1 0.9 -0.6
v 0.1 0.9 -1.1
v 0.1 0.9 -1.2
v 0.1 1 -0.5
v 0.1 1 -0.6
v 0.1 1 -1.1
v 0.1 1 -1.2
v 0.1 1.1 -1.1
v 0.1 1.1 -1.2
v -2.23517e-08 0.9 -0.5
v -2.23517e-08 1 -0.5
v 0.1 0.9 -0.5
v 0.1 1 -0.5
v -2.23517e-08 0.8 -1.1
v -2.23517e-08 0.9 -1.1
v -2.23517e-08 1 -1.1
v -2.23517e-08 1.1 -1.1
v 0.1 0.8 -1.1
v 0.1 0.9 -1.1
v 0.1 1 -1.1
v 0.1 1.1 -1.1
v -2.23517e-08 0.9 -1.1
v -2.23517e-08 1 -1.1
v 0.1 0.9 -1.1
v 0.1 1 -1.1
v -2.23517e-08 0.8 -1.2
v -2.23517e-08 0.9 -1.2
v -2.23517e-08 1 -1.2
v -2.23517e-08 1.1 -1.2
v 0.1 0.8 -1.2
v 0.1 0.9 -1.2
v 0.1 1 -1.2
v 0.1 1.1 -1.2
v -2.23517e-08 0.8 -1.1
v 0.1 0.8 -1.1
v -2.23517e-08 0.8 -1.2
v 0.1 0.8 -1.2
v -2.23517e-08 0.9 -0.5
v 0.1 0.9 -0.5
v -2.23517e-08 0.9 -0.6
v 0.1 0.9 -0.6
v -2.23517e-08 0.9 -1.1
v 0.1 0.9 -1.1
v -2.23517e-08 1 -1.1
v 0.1 1 -1.1
v -2.23517e-08 1 -1.2
v 0.1 1 -1.2
v -2.23517e-08 0.9 -1.1
v 0.1 0.9 -1.1
v -2.23517e-08 0.9 -1.2
v 0.1 0.9 -1.2
v -2.23517e-08 1 -0.5
v 0.1 1 -0.5
v -2.23517e-08 1 -0.6
v 0.1 1 -0.6
v -2.23517e-08 1 -1.1
v 0.1 1 -1.1
v -2.23517e-08 1.1 -1.1
v 0.1 1.1 -1.1
v -2.23517e-08 1.1 -1.2
v 0.1 1.1 -1.2

# faces
f 5/2/1 2/2/1 1/2/1
f 6/2/1 2/2/1 5/2/1
f 7/3/1 4/3/1 3/3/1
f 8/1/1 5/1/1 4/1/1
f 8/3/1 4/3/1 7/3/1
f 9/1/1 5/1/1 8/1/1
f 11/2/1 10/2/1 9/2/1
f 12/2/1 10/2/1 11/2/1
f 13/2/2 14/2/2 17/2/2
f 17/2/2 14/2/2 18/2/2
f 15/3/2 16/3/2 19/3/2
f 16/1/2 17/1/2 20/1/2
f 19/3/2 16/3/2 20/3/2
f 20/1/2 17/1/2 21/1/2
f 21/2/2 22/2/2 23/2/2
f 23/2/2 22/2/2 24/2/2
f 27/3/3 26/3/3 25/3/3
f 28/3/3 26/3/3 27/3/3
f 33/2/3 30/2/3 29/2/3
f 34/2/3 30/2/3 33/2/3
f 35/2/3 32/2/3 31/2/3
f 36/2/3 32/2/3 35/2/3
f 37/1/4 38/1/4 39/1/4
f 39/1/4 38/1/4 40/1/4
f 41/2/4 42/2/4 45/2/4
f 45/2/4 42/2/4 46/2/4
f 43/2/4 44/2/4 47/2/4
f 47/2/4 44/2/4 48/2/4
f 51/2/5 50/2/5 49/2/5
f 52/2/5 50/2/5 51/2/5
f 55/3/5 54/3/5 53/3/5
f 56/3/5 54/3/5 55/3/5
f 57/1/5 56/1/5 55/1/5
f 58/1/5 56/1/5 57/1/5
f 61/2/5 60/2/5 59/2/5
f 62/2/5 60/2/5 61/2/5
f 63/2/6 64/2/6 65/2/6
f 65/2/6 64/2/6 66/2/6
f 67/3/6 68/3/6 69/3/6
f 69/3/6 68/3/6 70/3/6
f 69/1/6 70/1/6 71/1/6
f 71/1/6 70/1/6 72/1/6
f 73/2/6 74/2/6 75/2/6
f 75/2/6 74/2/6 76/2/6
