# MagicaVoxel @ Ephtracy

# group
o 

# material
mtllib ArrowShooterTrap.mtl
usemtl palette

# normals
vn -1 0 0
vn 1 0 0
vn 0 0 1
vn 0 0 -1
vn 0 -1 0
vn 0 1 0

# texcoords
vt 0.810547 0.5
vt 0.826172 0.5
vt 0.830078 0.5
vt 0.833984 0.5
vt 0.841797 0.5
vt 0.958984 0.5
vt 0.962891 0.5

# verts
v -1.6 -0.8 1.4
v -1.6 -0.8 -1.6
v -1.6 -0.6 1.2
v -1.6 -0.6 0.7
v -1.6 -0.6 0.6
v -1.6 -0.6 -0.1
v -1.6 -0.6 -0.2
v -1.6 -0.6 -0.7
v -1.6 -0.6 -0.8
v -1.6 -0.6 -1.4
v -1.6 -0.2 1.2
v -1.6 -0.2 0.7
v -1.6 -0.2 0.6
v -1.6 -0.2 -0.1
v -1.6 -0.2 -0.2
v -1.6 -0.2 -0.7
v -1.6 -0.2 -0.8
v -1.6 -0.2 -1.4
v -1.6 -0.1 1.2
v -1.6 -0.1 1.1
v -1.6 -0.1 1
v -1.6 -0.1 0.3
v -1.6 -0.1 0.2
v -1.6 -0.1 -0.4
v -1.6 -0.1 -0.5
v -1.6 -0.1 -1.1
v -1.6 -0.1 -1.2
v -1.6 -0.1 -1.4
v -1.6 0.3 1.2
v -1.6 0.3 1.1
v -1.6 0.3 1
v -1.6 0.3 0.3
v -1.6 0.3 0.2
v -1.6 0.3 -0.4
v -1.6 0.3 -0.5
v -1.6 0.3 -1.1
v -1.6 0.3 -1.2
v -1.6 0.3 -1.4
v -1.6 0.4 1.2
v -1.6 0.4 0.6
v -1.6 0.4 0.5
v -1.6 0.4 -0.2
v -1.6 0.4 -0.3
v -1.6 0.4 -1
v -1.6 0.4 -1.1
v -1.6 0.4 -1.4
v -1.6 0.8 1.2
v -1.6 0.8 0.6
v -1.6 0.8 0.5
v -1.6 0.8 -0.2
v -1.6 0.8 -0.3
v -1.6 0.8 -1
v -1.6 0.8 -1.1
v -1.6 0.8 -1.4
v -1.6 0.9 1.2
v -1.6 0.9 1
v -1.6 0.9 0.9
v -1.6 0.9 0.2
v -1.6 0.9 0.1
v -1.6 0.9 -0.5
v -1.6 0.9 -0.6
v -1.6 0.9 -1.2
v -1.6 0.9 -1.3
v -1.6 0.9 -1.4
v -1.6 1.3 1.2
v -1.6 1.3 1
v -1.6 1.3 0.9
v -1.6 1.3 0.2
v -1.6 1.3 0.1
v -1.6 1.3 -0.5
v -1.6 1.3 -0.6
v -1.6 1.3 -1.2
v -1.6 1.3 -1.3
v -1.6 1.3 -1.4
v -1.6 1.4 1.2
v -1.6 1.4 0.9
v -1.6 1.4 0.8
v -1.6 1.4 0.1
v -1.6 1.4 0
v -1.6 1.4 -0.7
v -1.6 1.4 -0.8
v -1.6 1.4 -1.4
v -1.6 1.8 1.2
v -1.6 1.8 0.9
v -1.6 1.8 0.8
v -1.6 1.8 0.1
v -1.6 1.8 0
v -1.6 1.8 -0.7
v -1.6 1.8 -0.8
v -1.6 1.8 -1.4
v -1.6 1.9 1.2
v -1.6 1.9 0.8
v -1.6 1.9 0.7
v -1.6 1.9 0
v -1.6 1.9 -0.1
v -1.6 1.9 -0.8
v -1.6 1.9 -0.9
v -1.6 1.9 -1.4
v -1.6 2.1 1.2
v -1.6 2.1 0.8
v -1.6 2.1 0.7
v -1.6 2.1 0
v -1.6 2.1 -0.1
v -1.6 2.1 -0.8
v -1.6 2.1 -0.9
v -1.6 2.1 -1.4
v -1.6 2.3 1.4
v -1.6 2.3 -1.6
v -0.6 2.3 0.1
v -0.6 2.3 0
v -0.6 2.4 0.1
v -0.6 2.4 0
v -0.5 2.3 0.2
v -0.5 2.3 0.1
v -0.5 2.4 0.2
v -0.5 2.4 0.1
v -0.4 2.3 0.3
v -0.4 2.3 0.2
v -0.4 2.4 0.3
v -0.4 2.4 0.2
v -0.3 2.3 0.4
v -0.3 2.3 0.3
v -0.3 2.4 0.4
v -0.3 2.4 0.3
v -0.2 0.7 1.6
v -0.2 0.7 1.5
v -0.2 0.7 1.4
v -0.2 0.8 1.6
v -0.2 0.8 1.5
v -0.2 0.8 1.4
v -0.2 0.9 1.4
v -0.2 1 1.6
v -0.2 1 1.5
v -0.2 1.1 1.6
v -0.2 1.1 1.5
v -0.2 1.1 1.4
v -0.2 2.3 0.5
v -0.2 2.3 0.4
v -0.2 2.3 0
v -0.2 2.3 -0.1
v -0.2 2.4 0.5
v -0.2 2.4 0.4
v -0.2 2.4 0
v -0.2 2.4 -0.1
v -0.1 2.3 0.6
v -0.1 2.3 0.5
v -0.1 2.3 -0.1
v -0.1 2.3 -0.7
v -0.1 2.4 0.6
v -0.1 2.4 0.5
v -0.1 2.4 -0.1
v -0.1 2.4 -0.7
v 0.1 0.8 1.6
v 0.1 0.8 1.4
v 0.1 1 1.6
v 0.1 1 1.4
v -0.1 0.8 1.6
v -0.1 0.8 1.4
v -0.1 1 1.6
v -0.1 1 1.4
v 0.1 2.3 0.6
v 0.1 2.3 0.5
v 0.1 2.3 -0.1
v 0.1 2.3 -0.7
v 0.1 2.4 0.6
v 0.1 2.4 0.5
v 0.1 2.4 -0.1
v 0.1 2.4 -0.7
v 0.2 0.7 1.6
v 0.2 0.7 1.5
v 0.2 0.7 1.4
v 0.2 0.8 1.6
v 0.2 0.8 1.5
v 0.2 0.8 1.4
v 0.2 0.9 1.4
v 0.2 1 1.6
v 0.2 1 1.5
v 0.2 1.1 1.6
v 0.2 1.1 1.5
v 0.2 1.1 1.4
v 0.2 2.3 0.5
v 0.2 2.3 0.4
v 0.2 2.3 0
v 0.2 2.3 -0.1
v 0.2 2.4 0.5
v 0.2 2.4 0.4
v 0.2 2.4 0
v 0.2 2.4 -0.1
v 0.3 2.3 0.4
v 0.3 2.3 0.3
v 0.3 2.4 0.4
v 0.3 2.4 0.3
v 0.4 2.3 0.3
v 0.4 2.3 0.2
v 0.4 2.4 0.3
v 0.4 2.4 0.2
v 0.5 2.3 0.2
v 0.5 2.3 0.1
v 0.5 2.4 0.2
v 0.5 2.4 0.1
v 0.6 2.3 0.1
v 0.6 2.3 0
v 0.6 2.4 0.1
v 0.6 2.4 0
v 1.6 -0.8 1.4
v 1.6 -0.8 -1.6
v 1.6 -0.6 1.2
v 1.6 -0.6 0.7
v 1.6 -0.6 0.6
v 1.6 -0.6 -0.1
v 1.6 -0.6 -0.2
v 1.6 -0.6 -0.7
v 1.6 -0.6 -0.8
v 1.6 -0.6 -1.4
v 1.6 -0.2 1.2
v 1.6 -0.2 0.7
v 1.6 -0.2 0.6
v 1.6 -0.2 -0.1
v 1.6 -0.2 -0.2
v 1.6 -0.2 -0.7
v 1.6 -0.2 -0.8
v 1.6 -0.2 -1.4
v 1.6 -0.1 1.2
v 1.6 -0.1 1.1
v 1.6 -0.1 1
v 1.6 -0.1 0.3
v 1.6 -0.1 0.2
v 1.6 -0.1 -0.4
v 1.6 -0.1 -0.5
v 1.6 -0.1 -1.1
v 1.6 -0.1 -1.2
v 1.6 -0.1 -1.4
v 1.6 0.3 1.2
v 1.6 0.3 1.1
v 1.6 0.3 1
v 1.6 0.3 0.3
v 1.6 0.3 0.2
v 1.6 0.3 -0.4
v 1.6 0.3 -0.5
v 1.6 0.3 -1.1
v 1.6 0.3 -1.2
v 1.6 0.3 -1.4
v 1.6 0.4 1.2
v 1.6 0.4 0.6
v 1.6 0.4 0.5
v 1.6 0.4 -0.2
v 1.6 0.4 -0.3
v 1.6 0.4 -1
v 1.6 0.4 -1.1
v 1.6 0.4 -1.4
v 1.6 0.8 1.2
v 1.6 0.8 0.6
v 1.6 0.8 0.5
v 1.6 0.8 -0.2
v 1.6 0.8 -0.3
v 1.6 0.8 -1
v 1.6 0.8 -1.1
v 1.6 0.8 -1.4
v 1.6 0.9 1.2
v 1.6 0.9 1
v 1.6 0.9 0.9
v 1.6 0.9 0.2
v 1.6 0.9 0.1
v 1.6 0.9 -0.5
v 1.6 0.9 -0.6
v 1.6 0.9 -1.2
v 1.6 0.9 -1.3
v 1.6 0.9 -1.4
v 1.6 1.3 1.2
v 1.6 1.3 1
v 1.6 1.3 0.9
v 1.6 1.3 0.2
v 1.6 1.3 0.1
v 1.6 1.3 -0.5
v 1.6 1.3 -0.6
v 1.6 1.3 -1.2
v 1.6 1.3 -1.3
v 1.6 1.3 -1.4
v 1.6 1.4 1.2
v 1.6 1.4 0.9
v 1.6 1.4 0.8
v 1.6 1.4 0.1
v 1.6 1.4 0
v 1.6 1.4 -0.7
v 1.6 1.4 -0.8
v 1.6 1.4 -1.4
v 1.6 1.8 1.2
v 1.6 1.8 0.9
v 1.6 1.8 0.8
v 1.6 1.8 0.1
v 1.6 1.8 0
v 1.6 1.8 -0.7
v 1.6 1.8 -0.8
v 1.6 1.8 -1.4
v 1.6 1.9 1.2
v 1.6 1.9 0.8
v 1.6 1.9 0.7
v 1.6 1.9 0
v 1.6 1.9 -0.1
v 1.6 1.9 -0.8
v 1.6 1.9 -0.9
v 1.6 1.9 -1.4
v 1.6 2.1 1.2
v 1.6 2.1 0.8
v 1.6 2.1 0.7
v 1.6 2.1 0
v 1.6 2.1 -0.1
v 1.6 2.1 -0.8
v 1.6 2.1 -0.9
v 1.6 2.1 -1.4
v 1.6 2.3 1.4
v 1.6 2.3 -1.6
v -0.2 0.7 1.6
v -0.2 0.8 1.6
v -0.2 1 1.6
v -0.2 1.1 1.6
v -0.1 0.7 1.6
v -0.1 0.8 1.6
v -0.1 1 1.6
v -0.1 1.1 1.6
v 0.1 0.7 1.6
v 0.1 0.8 1.6
v 0.1 1 1.6
v 0.1 1.1 1.6
v 0.2 0.7 1.6
v 0.2 0.8 1.6
v 0.2 1 1.6
v 0.2 1.1 1.6
v -1.6 -0.8 1.4
v -1.6 2.3 1.4
v -1.4 -0.6 1.4
v -1.4 -0.2 1.4
v -1.4 -0.1 1.4
v -1.4 0.3 1.4
v -1.4 0.4 1.4
v -1.4 0.8 1.4
v -1.4 0.9 1.4
v -1.4 1.3 1.4
v -1.4 1.4 1.4
v -1.4 1.8 1.4
v -1.4 1.9 1.4
v -1.4 2.1 1.4
v -1.2 -0.6 1.4
v -1.2 -0.2 1.4
v -1.1 -0.6 1.4
v -1.1 -0.2 1.4
v -1.1 0.9 1.4
v -1.1 1.3 1.4
v -1 0.9 1.4
v -1 1.3 1.4
v -0.9 1.9 1.4
v -0.9 2.1 1.4
v -0.8 0.4 1.4
v -0.8 0.8 1.4
v -0.8 1.9 1.4
v -0.8 2.1 1.4
v -0.7 -0.1 1.4
v -0.7 0.3 1.4
v -0.7 0.4 1.4
v -0.7 0.8 1.4
v -0.7 1.4 1.4
v -0.7 1.8 1.4
v -0.6 -0.1 1.4
v -0.6 0.3 1.4
v -0.6 1.4 1.4
v -0.6 1.8 1.4
v -0.4 -0.6 1.4
v -0.4 -0.2 1.4
v -0.3 -0.6 1.4
v -0.3 -0.2 1.4
v -0.2 0.7 1.4
v -0.2 0.8 1.4
v -0.2 0.9 1.4
v -0.2 1.1 1.4
v -0.2 1.3 1.4
v -0.2 1.9 1.4
v -0.2 2.1 1.4
v -0.1 0.8 1.4
v -0.1 1 1.4
v -0.1 1.1 1.4
v -0.1 1.3 1.4
v -0.1 1.9 1.4
v -0.1 2.1 1.4
v 0 0.4 1.4
v 0 0.7 1.4
v 0.1 -0.1 1.4
v 0.1 0.3 1.4
v 0.1 0.4 1.4
v 0.1 0.7 1.4
v 0.1 0.8 1.4
v 0.1 1 1.4
v 0.1 1.4 1.4
v 0.1 1.8 1.4
v 0.2 -0.1 1.4
v 0.2 0.3 1.4
v 0.2 0.7 1.4
v 0.2 0.8 1.4
v 0.2 0.9 1.4
v 0.2 1.1 1.4
v 0.2 1.4 1.4
v 0.2 1.8 1.4
v 0.6 -0.6 1.4
v 0.6 -0.2 1.4
v 0.6 0.9 1.4
v 0.6 1.3 1.4
v 0.6 1.9 1.4
v 0.6 2.1 1.4
v 0.7 -0.6 1.4
v 0.7 -0.2 1.4
v 0.7 0.4 1.4
v 0.7 0.8 1.4
v 0.7 0.9 1.4
v 0.7 1.3 1.4
v 0.7 1.9 1.4
v 0.7 2.1 1.4
v 0.8 -0.1 1.4
v 0.8 0.3 1.4
v 0.8 0.4 1.4
v 0.8 0.8 1.4
v 0.8 1.4 1.4
v 0.8 1.8 1.4
v 0.9 -0.1 1.4
v 0.9 0.3 1.4
v 0.9 1.4 1.4
v 0.9 1.8 1.4
v 1.4 -0.6 1.4
v 1.4 -0.2 1.4
v 1.4 -0.1 1.4
v 1.4 0.3 1.4
v 1.4 0.4 1.4
v 1.4 0.8 1.4
v 1.4 0.9 1.4
v 1.4 1.3 1.4
v 1.4 1.4 1.4
v 1.4 1.8 1.4
v 1.4 1.9 1.4
v 1.4 2.1 1.4
v 1.6 -0.8 1.4
v 1.6 2.3 1.4
v -0.1 2.3 0.6
v -0.1 2.4 0.6
v 0.1 2.3 0.6
v 0.1 2.4 0.6
v -0.2 2.3 0.5
v -0.2 2.4 0.5
v -0.1 2.3 0.5
v -0.1 2.4 0.5
v 0.1 2.3 0.5
v 0.1 2.4 0.5
v 0.2 2.3 0.5
v 0.2 2.4 0.5
v -0.3 2.3 0.4
v -0.3 2.4 0.4
v -0.2 2.3 0.4
v -0.2 2.4 0.4
v 0.2 2.3 0.4
v 0.2 2.4 0.4
v 0.3 2.3 0.4
v 0.3 2.4 0.4
v -0.4 2.3 0.3
v -0.4 2.4 0.3
v -0.3 2.3 0.3
v -0.3 2.4 0.3
v 0.3 2.3 0.3
v 0.3 2.4 0.3
v 0.4 2.3 0.3
v 0.4 2.4 0.3
v -0.5 2.3 0.2
v -0.5 2.4 0.2
v -0.4 2.3 0.2
v -0.4 2.4 0.2
v 0.4 2.3 0.2
v 0.4 2.4 0.2
v 0.5 2.3 0.2
v 0.5 2.4 0.2
v -0.6 2.3 0.1
v -0.6 2.4 0.1
v -0.5 2.3 0.1
v -0.5 2.4 0.1
v 0.5 2.3 0.1
v 0.5 2.4 0.1
v 0.6 2.3 0.1
v 0.6 2.4 0.1
v -0.6 2.3 0
v -0.6 2.4 0
v -0.2 2.3 0
v -0.2 2.4 0
v 0.2 2.3 0
v 0.2 2.4 0
v 0.6 2.3 0
v 0.6 2.4 0
v -0.2 2.3 -0.1
v -0.2 2.4 -0.1
v -0.1 2.3 -0.1
v -0.1 2.4 -0.1
v 0.1 2.3 -0.1
v 0.1 2.4 -0.1
v 0.2 2.3 -0.1
v 0.2 2.4 -0.1
v -0.1 2.3 -0.7
v -0.1 2.4 -0.7
v 0.1 2.3 -0.7
v 0.1 2.4 -0.7
v -1.6 -0.8 -1.6
v -1.6 2.3 -1.6
v -1.4 -0.6 -1.6
v -1.4 -0.2 -1.6
v -1.4 -0.1 -1.6
v -1.4 0.3 -1.6
v -1.4 0.4 -1.6
v -1.4 0.8 -1.6
v -1.4 0.9 -1.6
v -1.4 1.3 -1.6
v -1.4 1.4 -1.6
v -1.4 1.8 -1.6
v -1.4 1.9 -1.6
v -1.4 2.1 -1.6
v -1.2 -0.6 -1.6
v -1.2 -0.2 -1.6
v -1.1 -0.6 -1.6
v -1.1 -0.2 -1.6
v -1.1 0.9 -1.6
v -1.1 1.3 -1.6
v -1 0.9 -1.6
v -1 1.3 -1.6
v -0.9 1.9 -1.6
v -0.9 2.1 -1.6
v -0.8 0.4 -1.6
v -0.8 0.8 -1.6
v -0.8 1.9 -1.6
v -0.8 2.1 -1.6
v -0.7 -0.1 -1.6
v -0.7 0.3 -1.6
v -0.7 0.4 -1.6
v -0.7 0.8 -1.6
v -0.7 1.4 -1.6
v -0.7 1.8 -1.6
v -0.6 -0.1 -1.6
v -0.6 0.3 -1.6
v -0.6 1.4 -1.6
v -0.6 1.8 -1.6
v -0.4 -0.6 -1.6
v -0.4 -0.2 -1.6
v -0.3 -0.6 -1.6
v -0.3 -0.2 -1.6
v -0.2 0.9 -1.6
v -0.2 1.3 -1.6
v -0.2 1.9 -1.6
v -0.2 2.1 -1.6
v -0.1 0.9 -1.6
v -0.1 1.3 -1.6
v -0.1 1.9 -1.6
v -0.1 2.1 -1.6
v 0 0.4 -1.6
v 0 0.8 -1.6
v 0.1 -0.1 -1.6
v 0.1 0.3 -1.6
v 0.1 0.4 -1.6
v 0.1 0.8 -1.6
v 0.1 1.4 -1.6
v 0.1 1.8 -1.6
v 0.2 -0.1 -1.6
v 0.2 0.3 -1.6
v 0.2 1.4 -1.6
v 0.2 1.8 -1.6
v 0.6 -0.6 -1.6
v 0.6 -0.2 -1.6
v 0.6 0.9 -1.6
v 0.6 1.3 -1.6
v 0.6 1.9 -1.6
v 0.6 2.1 -1.6
v 0.7 -0.6 -1.6
v 0.7 -0.2 -1.6
v 0.7 0.4 -1.6
v 0.7 0.8 -1.6
v 0.7 0.9 -1.6
v 0.7 1.3 -1.6
v 0.7 1.9 -1.6
v 0.7 2.1 -1.6
v 0.8 -0.1 -1.6
v 0.8 0.3 -1.6
v 0.8 0.4 -1.6
v 0.8 0.8 -1.6
v 0.8 1.4 -1.6
v 0.8 1.8 -1.6
v 0.9 -0.1 -1.6
v 0.9 0.3 -1.6
v 0.9 1.4 -1.6
v 0.9 1.8 -1.6
v 1.4 -0.6 -1.6
v 1.4 -0.2 -1.6
v 1.4 -0.1 -1.6
v 1.4 0.3 -1.6
v 1.4 0.4 -1.6
v 1.4 0.8 -1.6
v 1.4 0.9 -1.6
v 1.4 1.3 -1.6
v 1.4 1.4 -1.6
v 1.4 1.8 -1.6
v 1.4 1.9 -1.6
v 1.4 2.1 -1.6
v 1.6 -0.8 -1.6
v 1.6 2.3 -1.6
v -1.6 -0.8 1.4
v 1.6 -0.8 1.4
v -1.4 -0.8 1.2
v -1.2 -0.8 1.2
v -1.1 -0.8 1.2
v -0.4 -0.8 1.2
v -0.3 -0.8 1.2
v 0.6 -0.8 1.2
v 0.7 -0.8 1.2
v 1.4 -0.8 1.2
v -1.4 -0.8 0.9
v -1.2 -0.8 0.9
v -1.1 -0.8 0.9
v -0.4 -0.8 0.9
v -0.3 -0.8 0.9
v 0.6 -0.8 0.9
v 0.7 -0.8 0.9
v 1.4 -0.8 0.9
v -1.4 -0.8 0.8
v -0.7 -0.8 0.8
v -0.6 -0.8 0.8
v 0.1 -0.8 0.8
v 0.2 -0.8 0.8
v 0.8 -0.8 0.8
v 0.9 -0.8 0.8
v 1.4 -0.8 0.8
v -1.4 -0.8 0.4
v -0.7 -0.8 0.4
v -0.6 -0.8 0.4
v 0.1 -0.8 0.4
v 0.2 -0.8 0.4
v 0.8 -0.8 0.4
v 0.9 -0.8 0.4
v 1.4 -0.8 0.4
v -1.4 -0.8 0.3
v -0.8 -0.8 0.3
v -0.7 -0.8 0.3
v 0 -0.8 0.3
v 0.1 -0.8 0.3
v 0.7 -0.8 0.3
v 0.8 -0.8 0.3
v 1.4 -0.8 0.3
v -1.4 -0.8 -0.1
v -0.8 -0.8 -0.1
v -0.7 -0.8 -0.1
v 0 -0.8 -0.1
v 0.1 -0.8 -0.1
v 0.7 -0.8 -0.1
v 0.8 -0.8 -0.1
v 1.4 -0.8 -0.1
v -1.4 -0.8 -0.2
v -1.1 -0.8 -0.2
v -1 -0.8 -0.2
v -0.2 -0.8 -0.2
v -0.1 -0.8 -0.2
v 0.6 -0.8 -0.2
v 0.7 -0.8 -0.2
v 1.4 -0.8 -0.2
v -1.4 -0.8 -0.6
v -1.1 -0.8 -0.6
v -1 -0.8 -0.6
v -0.2 -0.8 -0.6
v -0.1 -0.8 -0.6
v 0.6 -0.8 -0.6
v 0.7 -0.8 -0.6
v 1.4 -0.8 -0.6
v -1.4 -0.8 -0.7
v -0.7 -0.8 -0.7
v -0.6 -0.8 -0.7
v 0.1 -0.8 -0.7
v 0.2 -0.8 -0.7
v 0.8 -0.8 -0.7
v 0.9 -0.8 -0.7
v 1.4 -0.8 -0.7
v -1.4 -0.8 -1.1
v -0.7 -0.8 -1.1
v -0.6 -0.8 -1.1
v 0.1 -0.8 -1.1
v 0.2 -0.8 -1.1
v 0.8 -0.8 -1.1
v 0.9 -0.8 -1.1
v 1.4 -0.8 -1.1
v -1.4 -0.8 -1.2
v -0.9 -0.8 -1.2
v -0.8 -0.8 -1.2
v -0.2 -0.8 -1.2
v -0.1 -0.8 -1.2
v 0.6 -0.8 -1.2
v 0.7 -0.8 -1.2
v 1.4 -0.8 -1.2
v -1.4 -0.8 -1.4
v -0.9 -0.8 -1.4
v -0.8 -0.8 -1.4
v -0.2 -0.8 -1.4
v -0.1 -0.8 -1.4
v 0.6 -0.8 -1.4
v 0.7 -0.8 -1.4
v 1.4 -0.8 -1.4
v -1.6 -0.8 -1.6
v 1.6 -0.8 -1.6
v -0.2 0.7 1.6
v -0.1 0.7 1.6
v 0.1 0.7 1.6
v 0.2 0.7 1.6
v -0.2 0.7 1.5
v -0.1 0.7 1.5
v 0.1 0.7 1.5
v 0.2 0.7 1.5
v -0.2 0.7 1.4
v 0 0.7 1.4
v 0.1 0.7 1.4
v 0.2 0.7 1.4
v -0.1 1 1.6
v 0.1 1 1.6
v -0.1 1 1.4
v 0.1 1 1.4
v -0.1 0.8 1.6
v 0.1 0.8 1.6
v -0.1 0.8 1.4
v 0.1 0.8 1.4
v -0.2 1.1 1.6
v -0.1 1.1 1.6
v 0.1 1.1 1.6
v 0.2 1.1 1.6
v -0.2 1.1 1.5
v -0.1 1.1 1.5
v 0.1 1.1 1.5
v 0.2 1.1 1.5
v -0.2 1.1 1.4
v -0.1 1.1 1.4
v 0.2 1.1 1.4
v -1.6 2.3 1.4
v 1.6 2.3 1.4
v -1.4 2.3 1.2
v 1.4 2.3 1.2
v -0.1 2.3 0.6
v 0.1 2.3 0.6
v -0.2 2.3 0.5
v -0.1 2.3 0.5
v 0.1 2.3 0.5
v 0.2 2.3 0.5
v -0.3 2.3 0.4
v -0.2 2.3 0.4
v 0.2 2.3 0.4
v 0.3 2.3 0.4
v -0.4 2.3 0.3
v -0.3 2.3 0.3
v 0.3 2.3 0.3
v 0.4 2.3 0.3
v -0.5 2.3 0.2
v -0.4 2.3 0.2
v 0.4 2.3 0.2
v 0.5 2.3 0.2
v -0.6 2.3 0.1
v -0.5 2.3 0.1
v 0.5 2.3 0.1
v 0.6 2.3 0.1
v -0.6 2.3 0
v -0.2 2.3 0
v 0.2 2.3 0
v 0.6 2.3 0
v -0.2 2.3 -0.1
v -0.1 2.3 -0.1
v 0.1 2.3 -0.1
v 0.2 2.3 -0.1
v -0.1 2.3 -0.7
v 0.1 2.3 -0.7
v -1.4 2.3 -1.4
v 1.4 2.3 -1.4
v -1.6 2.3 -1.6
v 1.6 2.3 -1.6
v -0.1 2.4 0.6
v 0.1 2.4 0.6
v -0.2 2.4 0.5
v -0.1 2.4 0.5
v 0.1 2.4 0.5
v 0.2 2.4 0.5
v -0.3 2.4 0.4
v -0.2 2.4 0.4
v 0.2 2.4 0.4
v 0.3 2.4 0.4
v -0.4 2.4 0.3
v -0.3 2.4 0.3
v 0.3 2.4 0.3
v 0.4 2.4 0.3
v -0.5 2.4 0.2
v -0.4 2.4 0.2
v 0.4 2.4 0.2
v 0.5 2.4 0.2
v -0.6 2.4 0.1
v -0.5 2.4 0.1
v 0.5 2.4 0.1
v 0.6 2.4 0.1
v -0.6 2.4 0
v -0.2 2.4 0
v 0.2 2.4 0
v 0.6 2.4 0
v -0.2 2.4 -0.1
v -0.1 2.4 -0.1
v 0.1 2.4 -0.1
v 0.2 2.4 -0.1
v -0.1 2.4 -0.7
v 0.1 2.4 -0.7

# faces
f 3/1/1 2/1/1 1/1/1
f 4/1/1 2/1/1 3/1/1
f 5/1/1 2/1/1 4/1/1
f 6/1/1 2/1/1 5/1/1
f 7/1/1 2/1/1 6/1/1
f 8/1/1 2/1/1 7/1/1
f 9/1/1 2/1/1 8/1/1
f 10/1/1 2/1/1 9/1/1
f 11/1/1 3/1/1 1/1/1
f 11/5/1 4/5/1 3/5/1
f 12/2/1 5/2/1 4/2/1
f 12/5/1 4/5/1 11/5/1
f 13/5/1 6/5/1 5/5/1
f 13/2/1 5/2/1 12/2/1
f 14/2/1 7/2/1 6/2/1
f 14/5/1 6/5/1 13/5/1
f 15/5/1 8/5/1 7/5/1
f 15/2/1 7/2/1 14/2/1
f 16/2/1 9/2/1 8/2/1
f 16/5/1 8/5/1 15/5/1
f 17/5/1 10/5/1 9/5/1
f 17/2/1 9/2/1 16/2/1
f 18/1/1 2/1/1 10/1/1
f 18/5/1 10/5/1 17/5/1
f 19/2/1 17/2/1 16/2/1
f 19/2/1 16/2/1 15/2/1
f 19/2/1 18/2/1 17/2/1
f 19/2/1 15/2/1 14/2/1
f 19/2/1 14/2/1 13/2/1
f 19/2/1 13/2/1 12/2/1
f 19/2/1 12/2/1 11/2/1
f 19/1/1 11/1/1 1/1/1
f 20/2/1 18/2/1 19/2/1
f 21/2/1 18/2/1 20/2/1
f 22/2/1 18/2/1 21/2/1
f 23/2/1 18/2/1 22/2/1
f 24/2/1 18/2/1 23/2/1
f 25/2/1 18/2/1 24/2/1
f 26/2/1 18/2/1 25/2/1
f 27/2/1 18/2/1 26/2/1
f 28/1/1 2/1/1 18/1/1
f 28/2/1 18/2/1 27/2/1
f 29/1/1 19/1/1 1/1/1
f 29/5/1 20/5/1 19/5/1
f 30/2/1 21/2/1 20/2/1
f 30/5/1 20/5/1 29/5/1
f 31/5/1 22/5/1 21/5/1
f 31/2/1 21/2/1 30/2/1
f 32/2/1 23/2/1 22/2/1
f 32/5/1 22/5/1 31/5/1
f 33/5/1 24/5/1 23/5/1
f 33/2/1 23/2/1 32/2/1
f 34/2/1 25/2/1 24/2/1
f 34/5/1 24/5/1 33/5/1
f 35/5/1 26/5/1 25/5/1
f 35/2/1 25/2/1 34/2/1
f 36/2/1 27/2/1 26/2/1
f 36/5/1 26/5/1 35/5/1
f 37/5/1 28/5/1 27/5/1
f 37/2/1 27/2/1 36/2/1
f 38/1/1 2/1/1 28/1/1
f 38/5/1 28/5/1 37/5/1
f 39/2/1 35/2/1 34/2/1
f 39/2/1 37/2/1 36/2/1
f 39/2/1 38/2/1 37/2/1
f 39/2/1 34/2/1 33/2/1
f 39/2/1 33/2/1 32/2/1
f 39/2/1 32/2/1 31/2/1
f 39/2/1 31/2/1 30/2/1
f 39/2/1 30/2/1 29/2/1
f 39/1/1 29/1/1 1/1/1
f 39/2/1 36/2/1 35/2/1
f 40/2/1 38/2/1 39/2/1
f 41/2/1 38/2/1 40/2/1
f 42/2/1 38/2/1 41/2/1
f 43/2/1 38/2/1 42/2/1
f 44/2/1 38/2/1 43/2/1
f 45/2/1 38/2/1 44/2/1
f 46/1/1 2/1/1 38/1/1
f 46/2/1 38/2/1 45/2/1
f 47/1/1 39/1/1 1/1/1
f 47/5/1 40/5/1 39/5/1
f 48/2/1 41/2/1 40/2/1
f 48/5/1 40/5/1 47/5/1
f 49/5/1 42/5/1 41/5/1
f 49/2/1 41/2/1 48/2/1
f 50/2/1 43/2/1 42/2/1
f 50/5/1 42/5/1 49/5/1
f 51/5/1 44/5/1 43/5/1
f 51/2/1 43/2/1 50/2/1
f 52/2/1 45/2/1 44/2/1
f 52/5/1 44/5/1 51/5/1
f 53/5/1 46/5/1 45/5/1
f 53/2/1 45/2/1 52/2/1
f 54/1/1 2/1/1 46/1/1
f 54/5/1 46/5/1 53/5/1
f 55/2/1 51/2/1 50/2/1
f 55/2/1 53/2/1 52/2/1
f 55/2/1 54/2/1 53/2/1
f 55/2/1 50/2/1 49/2/1
f 55/2/1 49/2/1 48/2/1
f 55/2/1 48/2/1 47/2/1
f 55/1/1 47/1/1 1/1/1
f 55/2/1 52/2/1 51/2/1
f 56/2/1 54/2/1 55/2/1
f 57/2/1 54/2/1 56/2/1
f 58/2/1 54/2/1 57/2/1
f 59/2/1 54/2/1 58/2/1
f 60/2/1 54/2/1 59/2/1
f 61/2/1 54/2/1 60/2/1
f 62/2/1 54/2/1 61/2/1
f 63/2/1 54/2/1 62/2/1
f 64/1/1 2/1/1 54/1/1
f 64/2/1 54/2/1 63/2/1
f 65/1/1 55/1/1 1/1/1
f 65/5/1 56/5/1 55/5/1
f 66/2/1 57/2/1 56/2/1
f 66/5/1 56/5/1 65/5/1
f 67/5/1 58/5/1 57/5/1
f 67/2/1 57/2/1 66/2/1
f 68/2/1 59/2/1 58/2/1
f 68/5/1 58/5/1 67/5/1
f 69/5/1 60/5/1 59/5/1
f 69/2/1 59/2/1 68/2/1
f 70/2/1 61/2/1 60/2/1
f 70/5/1 60/5/1 69/5/1
f 71/5/1 62/5/1 61/5/1
f 71/2/1 61/2/1 70/2/1
f 72/2/1 63/2/1 62/2/1
f 72/5/1 62/5/1 71/5/1
f 73/5/1 64/5/1 63/5/1
f 73/2/1 63/2/1 72/2/1
f 74/1/1 2/1/1 64/1/1
f 74/5/1 64/5/1 73/5/1
f 75/2/1 71/2/1 70/2/1
f 75/2/1 73/2/1 72/2/1
f 75/2/1 74/2/1 73/2/1
f 75/2/1 70/2/1 69/2/1
f 75/2/1 69/2/1 68/2/1
f 75/2/1 68/2/1 67/2/1
f 75/2/1 67/2/1 66/2/1
f 75/2/1 66/2/1 65/2/1
f 75/1/1 65/1/1 1/1/1
f 75/2/1 72/2/1 71/2/1
f 76/2/1 74/2/1 75/2/1
f 77/2/1 74/2/1 76/2/1
f 78/2/1 74/2/1 77/2/1
f 79/2/1 74/2/1 78/2/1
f 80/2/1 74/2/1 79/2/1
f 81/2/1 74/2/1 80/2/1
f 82/1/1 2/1/1 74/1/1
f 82/2/1 74/2/1 81/2/1
f 83/1/1 75/1/1 1/1/1
f 83/5/1 76/5/1 75/5/1
f 84/2/1 77/2/1 76/2/1
f 84/5/1 76/5/1 83/5/1
f 85/5/1 78/5/1 77/5/1
f 85/2/1 77/2/1 84/2/1
f 86/2/1 79/2/1 78/2/1
f 86/5/1 78/5/1 85/5/1
f 87/5/1 80/5/1 79/5/1
f 87/2/1 79/2/1 86/2/1
f 88/2/1 81/2/1 80/2/1
f 88/5/1 80/5/1 87/5/1
f 89/5/1 82/5/1 81/5/1
f 89/2/1 81/2/1 88/2/1
f 90/1/1 2/1/1 82/1/1
f 90/5/1 82/5/1 89/5/1
f 91/2/1 87/2/1 86/2/1
f 91/2/1 89/2/1 88/2/1
f 91/2/1 90/2/1 89/2/1
f 91/2/1 86/2/1 85/2/1
f 91/2/1 85/2/1 84/2/1
f 91/2/1 84/2/1 83/2/1
f 91/1/1 83/1/1 1/1/1
f 91/2/1 88/2/1 87/2/1
f 92/2/1 90/2/1 91/2/1
f 93/2/1 90/2/1 92/2/1
f 94/2/1 90/2/1 93/2/1
f 95/2/1 90/2/1 94/2/1
f 96/2/1 90/2/1 95/2/1
f 97/2/1 90/2/1 96/2/1
f 98/1/1 2/1/1 90/1/1
f 98/2/1 90/2/1 97/2/1
f 99/1/1 91/1/1 1/1/1
f 99/5/1 92/5/1 91/5/1
f 100/2/1 93/2/1 92/2/1
f 100/5/1 92/5/1 99/5/1
f 101/5/1 94/5/1 93/5/1
f 101/2/1 93/2/1 100/2/1
f 102/2/1 95/2/1 94/2/1
f 102/5/1 94/5/1 101/5/1
f 103/5/1 96/5/1 95/5/1
f 103/2/1 95/2/1 102/2/1
f 104/2/1 97/2/1 96/2/1
f 104/5/1 96/5/1 103/5/1
f 105/5/1 98/5/1 97/5/1
f 105/2/1 97/2/1 104/2/1
f 106/1/1 2/1/1 98/1/1
f 106/5/1 98/5/1 105/5/1
f 107/1/1 103/1/1 102/1/1
f 107/1/1 105/1/1 104/1/1
f 107/1/1 106/1/1 105/1/1
f 107/1/1 102/1/1 101/1/1
f 107/1/1 101/1/1 100/1/1
f 107/1/1 100/1/1 99/1/1
f 107/1/1 99/1/1 1/1/1
f 107/1/1 104/1/1 103/1/1
f 108/1/1 2/1/1 106/1/1
f 108/1/1 106/1/1 107/1/1
f 111/6/1 110/6/1 109/6/1
f 112/6/1 110/6/1 111/6/1
f 115/6/1 114/6/1 113/6/1
f 116/6/1 114/6/1 115/6/1
f 119/6/1 118/6/1 117/6/1
f 120/6/1 118/6/1 119/6/1
f 123/6/1 122/6/1 121/6/1
f 124/6/1 122/6/1 123/6/1
f 128/6/1 126/6/1 125/6/1
f 129/7/1 127/7/1 126/7/1
f 129/6/1 126/6/1 128/6/1
f 130/7/1 127/7/1 129/7/1
f 131/7/1 129/7/1 128/7/1
f 131/7/1 130/7/1 129/7/1
f 132/7/1 131/7/1 128/7/1
f 133/7/1 131/7/1 132/7/1
f 134/6/1 133/6/1 132/6/1
f 135/7/1 131/7/1 133/7/1
f 135/6/1 133/6/1 134/6/1
f 136/7/1 131/7/1 135/7/1
f 141/6/1 138/6/1 137/6/1
f 142/6/1 138/6/1 141/6/1
f 143/6/1 140/6/1 139/6/1
f 144/6/1 140/6/1 143/6/1
f 149/6/1 146/6/1 145/6/1
f 150/6/1 146/6/1 149/6/1
f 151/6/1 148/6/1 147/6/1
f 152/6/1 148/6/1 151/6/1
f 155/7/1 154/7/1 153/7/1
f 156/7/1 154/7/1 155/7/1
f 157/7/2 158/7/2 159/7/2
f 159/7/2 158/7/2 160/7/2
f 161/6/2 162/6/2 165/6/2
f 165/6/2 162/6/2 166/6/2
f 163/6/2 164/6/2 167/6/2
f 167/6/2 164/6/2 168/6/2
f 169/6/2 170/6/2 172/6/2
f 170/7/2 171/7/2 173/7/2
f 172/6/2 170/6/2 173/6/2
f 173/7/2 171/7/2 174/7/2
f 172/7/2 173/7/2 175/7/2
f 173/7/2 174/7/2 175/7/2
f 172/7/2 175/7/2 176/7/2
f 176/7/2 175/7/2 177/7/2
f 176/6/2 177/6/2 178/6/2
f 177/7/2 175/7/2 179/7/2
f 178/6/2 177/6/2 179/6/2
f 179/7/2 175/7/2 180/7/2
f 181/6/2 182/6/2 185/6/2
f 185/6/2 182/6/2 186/6/2
f 183/6/2 184/6/2 187/6/2
f 187/6/2 184/6/2 188/6/2
f 189/6/2 190/6/2 191/6/2
f 191/6/2 190/6/2 192/6/2
f 193/6/2 194/6/2 195/6/2
f 195/6/2 194/6/2 196/6/2
f 197/6/2 198/6/2 199/6/2
f 199/6/2 198/6/2 200/6/2
f 201/6/2 202/6/2 203/6/2
f 203/6/2 202/6/2 204/6/2
f 205/1/2 206/1/2 207/1/2
f 207/1/2 206/1/2 208/1/2
f 208/1/2 206/1/2 209/1/2
f 209/1/2 206/1/2 210/1/2
f 210/1/2 206/1/2 211/1/2
f 211/1/2 206/1/2 212/1/2
f 212/1/2 206/1/2 213/1/2
f 213/1/2 206/1/2 214/1/2
f 205/1/2 207/1/2 215/1/2
f 207/5/2 208/5/2 215/5/2
f 208/2/2 209/2/2 216/2/2
f 215/5/2 208/5/2 216/5/2
f 209/5/2 210/5/2 217/5/2
f 216/2/2 209/2/2 217/2/2
f 210/2/2 211/2/2 218/2/2
f 217/5/2 210/5/2 218/5/2
f 211/5/2 212/5/2 219/5/2
f 218/2/2 211/2/2 219/2/2
f 212/2/2 213/2/2 220/2/2
f 219/5/2 212/5/2 220/5/2
f 213/5/2 214/5/2 221/5/2
f 220/2/2 213/2/2 221/2/2
f 214/1/2 206/1/2 222/1/2
f 221/5/2 214/5/2 222/5/2
f 220/2/2 221/2/2 223/2/2
f 219/2/2 220/2/2 223/2/2
f 221/2/2 222/2/2 223/2/2
f 218/2/2 219/2/2 223/2/2
f 217/2/2 218/2/2 223/2/2
f 216/2/2 217/2/2 223/2/2
f 215/2/2 216/2/2 223/2/2
f 205/1/2 215/1/2 223/1/2
f 223/2/2 222/2/2 224/2/2
f 224/2/2 222/2/2 225/2/2
f 225/2/2 222/2/2 226/2/2
f 226/2/2 222/2/2 227/2/2
f 227/2/2 222/2/2 228/2/2
f 228/2/2 222/2/2 229/2/2
f 229/2/2 222/2/2 230/2/2
f 230/2/2 222/2/2 231/2/2
f 222/1/2 206/1/2 232/1/2
f 231/2/2 222/2/2 232/2/2
f 205/1/2 223/1/2 233/1/2
f 223/5/2 224/5/2 233/5/2
f 224/2/2 225/2/2 234/2/2
f 233/5/2 224/5/2 234/5/2
f 225/5/2 226/5/2 235/5/2
f 234/2/2 225/2/2 235/2/2
f 226/2/2 227/2/2 236/2/2
f 235/5/2 226/5/2 236/5/2
f 227/5/2 228/5/2 237/5/2
f 236/2/2 227/2/2 237/2/2
f 228/2/2 229/2/2 238/2/2
f 237/5/2 228/5/2 238/5/2
f 229/5/2 230/5/2 239/5/2
f 238/2/2 229/2/2 239/2/2
f 230/2/2 231/2/2 240/2/2
f 239/5/2 230/5/2 240/5/2
f 231/5/2 232/5/2 241/5/2
f 240/2/2 231/2/2 241/2/2
f 232/1/2 206/1/2 242/1/2
f 241/5/2 232/5/2 242/5/2
f 238/2/2 239/2/2 243/2/2
f 240/2/2 241/2/2 243/2/2
f 241/2/2 242/2/2 243/2/2
f 237/2/2 238/2/2 243/2/2
f 236/2/2 237/2/2 243/2/2
f 235/2/2 236/2/2 243/2/2
f 234/2/2 235/2/2 243/2/2
f 233/2/2 234/2/2 243/2/2
f 205/1/2 233/1/2 243/1/2
f 239/2/2 240/2/2 243/2/2
f 243/2/2 242/2/2 244/2/2
f 244/2/2 242/2/2 245/2/2
f 245/2/2 242/2/2 246/2/2
f 246/2/2 242/2/2 247/2/2
f 247/2/2 242/2/2 248/2/2
f 248/2/2 242/2/2 249/2/2
f 242/1/2 206/1/2 250/1/2
f 249/2/2 242/2/2 250/2/2
f 205/1/2 243/1/2 251/1/2
f 243/5/2 244/5/2 251/5/2
f 244/2/2 245/2/2 252/2/2
f 251/5/2 244/5/2 252/5/2
f 245/5/2 246/5/2 253/5/2
f 252/2/2 245/2/2 253/2/2
f 246/2/2 247/2/2 254/2/2
f 253/5/2 246/5/2 254/5/2
f 247/5/2 248/5/2 255/5/2
f 254/2/2 247/2/2 255/2/2
f 248/2/2 249/2/2 256/2/2
f 255/5/2 248/5/2 256/5/2
f 249/5/2 250/5/2 257/5/2
f 256/2/2 249/2/2 257/2/2
f 250/1/2 206/1/2 258/1/2
f 257/5/2 250/5/2 258/5/2
f 254/2/2 255/2/2 259/2/2
f 256/2/2 257/2/2 259/2/2
f 257/2/2 258/2/2 259/2/2
f 253/2/2 254/2/2 259/2/2
f 252/2/2 253/2/2 259/2/2
f 251/2/2 252/2/2 259/2/2
f 205/1/2 251/1/2 259/1/2
f 255/2/2 256/2/2 259/2/2
f 259/2/2 258/2/2 260/2/2
f 260/2/2 258/2/2 261/2/2
f 261/2/2 258/2/2 262/2/2
f 262/2/2 258/2/2 263/2/2
f 263/2/2 258/2/2 264/2/2
f 264/2/2 258/2/2 265/2/2
f 265/2/2 258/2/2 266/2/2
f 266/2/2 258/2/2 267/2/2
f 258/1/2 206/1/2 268/1/2
f 267/2/2 258/2/2 268/2/2
f 205/1/2 259/1/2 269/1/2
f 259/5/2 260/5/2 269/5/2
f 260/2/2 261/2/2 270/2/2
f 269/5/2 260/5/2 270/5/2
f 261/5/2 262/5/2 271/5/2
f 270/2/2 261/2/2 271/2/2
f 262/2/2 263/2/2 272/2/2
f 271/5/2 262/5/2 272/5/2
f 263/5/2 264/5/2 273/5/2
f 272/2/2 263/2/2 273/2/2
f 264/2/2 265/2/2 274/2/2
f 273/5/2 264/5/2 274/5/2
f 265/5/2 266/5/2 275/5/2
f 274/2/2 265/2/2 275/2/2
f 266/2/2 267/2/2 276/2/2
f 275/5/2 266/5/2 276/5/2
f 267/5/2 268/5/2 277/5/2
f 276/2/2 267/2/2 277/2/2
f 268/1/2 206/1/2 278/1/2
f 277/5/2 268/5/2 278/5/2
f 274/2/2 275/2/2 279/2/2
f 276/2/2 277/2/2 279/2/2
f 277/2/2 278/2/2 279/2/2
f 273/2/2 274/2/2 279/2/2
f 272/2/2 273/2/2 279/2/2
f 271/2/2 272/2/2 279/2/2
f 270/2/2 271/2/2 279/2/2
f 269/2/2 270/2/2 279/2/2
f 205/1/2 269/1/2 279/1/2
f 275/2/2 276/2/2 279/2/2
f 279/2/2 278/2/2 280/2/2
f 280/2/2 278/2/2 281/2/2
f 281/2/2 278/2/2 282/2/2
f 282/2/2 278/2/2 283/2/2
f 283/2/2 278/2/2 284/2/2
f 284/2/2 278/2/2 285/2/2
f 278/1/2 206/1/2 286/1/2
f 285/2/2 278/2/2 286/2/2
f 205/1/2 279/1/2 287/1/2
f 279/5/2 280/5/2 287/5/2
f 280/2/2 281/2/2 288/2/2
f 287/5/2 280/5/2 288/5/2
f 281/5/2 282/5/2 289/5/2
f 288/2/2 281/2/2 289/2/2
f 282/2/2 283/2/2 290/2/2
f 289/5/2 282/5/2 290/5/2
f 283/5/2 284/5/2 291/5/2
f 290/2/2 283/2/2 291/2/2
f 284/2/2 285/2/2 292/2/2
f 291/5/2 284/5/2 292/5/2
f 285/5/2 286/5/2 293/5/2
f 292/2/2 285/2/2 293/2/2
f 286/1/2 206/1/2 294/1/2
f 293/5/2 286/5/2 294/5/2
f 290/2/2 291/2/2 295/2/2
f 292/2/2 293/2/2 295/2/2
f 293/2/2 294/2/2 295/2/2
f 289/2/2 290/2/2 295/2/2
f 288/2/2 289/2/2 295/2/2
f 287/2/2 288/2/2 295/2/2
f 205/1/2 287/1/2 295/1/2
f 291/2/2 292/2/2 295/2/2
f 295/2/2 294/2/2 296/2/2
f 296/2/2 294/2/2 297/2/2
f 297/2/2 294/2/2 298/2/2
f 298/2/2 294/2/2 299/2/2
f 299/2/2 294/2/2 300/2/2
f 300/2/2 294/2/2 301/2/2
f 294/1/2 206/1/2 302/1/2
f 301/2/2 294/2/2 302/2/2
f 205/1/2 295/1/2 303/1/2
f 295/5/2 296/5/2 303/5/2
f 296/2/2 297/2/2 304/2/2
f 303/5/2 296/5/2 304/5/2
f 297/5/2 298/5/2 305/5/2
f 304/2/2 297/2/2 305/2/2
f 298/2/2 299/2/2 306/2/2
f 305/5/2 298/5/2 306/5/2
f 299/5/2 300/5/2 307/5/2
f 306/2/2 299/2/2 307/2/2
f 300/2/2 301/2/2 308/2/2
f 307/5/2 300/5/2 308/5/2
f 301/5/2 302/5/2 309/5/2
f 308/2/2 301/2/2 309/2/2
f 302/1/2 206/1/2 310/1/2
f 309/5/2 302/5/2 310/5/2
f 306/1/2 307/1/2 311/1/2
f 308/1/2 309/1/2 311/1/2
f 309/1/2 310/1/2 311/1/2
f 305/1/2 306/1/2 311/1/2
f 304/1/2 305/1/2 311/1/2
f 303/1/2 304/1/2 311/1/2
f 205/1/2 303/1/2 311/1/2
f 307/1/2 308/1/2 311/1/2
f 310/1/2 206/1/2 312/1/2
f 311/1/2 310/1/2 312/1/2
f 317/6/3 314/6/3 313/6/3
f 318/7/3 315/7/3 314/7/3
f 318/6/3 314/6/3 317/6/3
f 319/6/3 316/6/3 315/6/3
f 319/7/3 315/7/3 318/7/3
f 320/6/3 316/6/3 319/6/3
f 321/7/3 318/7/3 317/7/3
f 322/7/3 318/7/3 321/7/3
f 323/7/3 320/7/3 319/7/3
f 324/7/3 320/7/3 323/7/3
f 325/6/3 322/6/3 321/6/3
f 326/7/3 323/7/3 322/7/3
f 326/6/3 322/6/3 325/6/3
f 327/6/3 324/6/3 323/6/3
f 327/7/3 323/7/3 326/7/3
f 328/6/3 324/6/3 327/6/3
f 331/1/3 330/1/3 329/1/3
f 332/1/3 330/1/3 331/1/3
f 333/1/3 330/1/3 332/1/3
f 334/1/3 330/1/3 333/1/3
f 335/1/3 330/1/3 334/1/3
f 336/1/3 330/1/3 335/1/3
f 337/1/3 330/1/3 336/1/3
f 338/1/3 330/1/3 337/1/3
f 339/1/3 330/1/3 338/1/3
f 340/1/3 330/1/3 339/1/3
f 341/1/3 330/1/3 340/1/3
f 342/1/3 330/1/3 341/1/3
f 343/1/3 331/1/3 329/1/3
f 343/5/3 332/5/3 331/5/3
f 344/2/3 333/2/3 332/2/3
f 344/5/3 332/5/3 343/5/3
f 345/1/3 343/1/3 329/1/3
f 345/2/3 344/2/3 343/2/3
f 346/2/3 333/2/3 344/2/3
f 346/2/3 344/2/3 345/2/3
f 347/2/3 337/2/3 336/2/3
f 347/5/3 338/5/3 337/5/3
f 348/2/3 339/2/3 338/2/3
f 348/5/3 338/5/3 347/5/3
f 349/2/3 347/2/3 336/2/3
f 349/2/3 348/2/3 347/2/3
f 350/2/3 339/2/3 348/2/3
f 350/2/3 348/2/3 349/2/3
f 351/5/3 342/5/3 341/5/3
f 351/2/3 341/2/3 340/2/3
f 352/1/3 330/1/3 342/1/3
f 352/5/3 342/5/3 351/5/3
f 353/2/3 335/2/3 334/2/3
f 353/5/3 336/5/3 335/5/3
f 354/2/3 349/2/3 336/2/3
f 354/5/3 336/5/3 353/5/3
f 355/2/3 351/2/3 340/2/3
f 355/2/3 352/2/3 351/2/3
f 356/1/3 330/1/3 352/1/3
f 356/2/3 352/2/3 355/2/3
f 357/5/3 334/5/3 333/5/3
f 357/2/3 333/2/3 346/2/3
f 358/2/3 354/2/3 353/2/3
f 358/5/3 334/5/3 357/5/3
f 358/2/3 353/2/3 334/2/3
f 359/2/3 354/2/3 358/2/3
f 360/2/3 349/2/3 354/2/3
f 360/2/3 354/2/3 359/2/3
f 361/2/3 339/2/3 350/2/3
f 361/5/3 340/5/3 339/5/3
f 362/2/3 355/2/3 340/2/3
f 362/5/3 340/5/3 361/5/3
f 363/2/3 359/2/3 358/2/3
f 363/2/3 357/2/3 346/2/3
f 363/2/3 358/2/3 357/2/3
f 364/2/3 359/2/3 363/2/3
f 365/2/3 361/2/3 350/2/3
f 365/2/3 362/2/3 361/2/3
f 366/2/3 355/2/3 362/2/3
f 366/2/3 362/2/3 365/2/3
f 367/1/3 345/1/3 329/1/3
f 367/5/3 346/5/3 345/5/3
f 368/2/3 363/2/3 346/2/3
f 368/5/3 346/5/3 367/5/3
f 369/1/3 367/1/3 329/1/3
f 369/2/3 368/2/3 367/2/3
f 370/2/3 363/2/3 368/2/3
f 370/2/3 368/2/3 369/2/3
f 371/5/3 360/5/3 359/5/3
f 372/2/3 349/2/3 360/2/3
f 372/5/3 360/5/3 371/5/3
f 373/5/3 350/5/3 349/5/3
f 373/2/3 349/2/3 372/2/3
f 374/5/3 350/5/3 373/5/3
f 375/2/3 365/2/3 350/2/3
f 375/5/3 350/5/3 374/5/3
f 376/2/3 355/2/3 366/2/3
f 376/5/3 356/5/3 355/5/3
f 377/1/3 330/1/3 356/1/3
f 377/5/3 356/5/3 376/5/3
f 380/2/3 375/2/3 374/2/3
f 381/2/3 365/2/3 375/2/3
f 381/2/3 375/2/3 380/2/3
f 382/2/3 376/2/3 366/2/3
f 382/2/3 377/2/3 376/2/3
f 383/1/3 330/1/3 377/1/3
f 383/2/3 377/2/3 382/2/3
f 384/5/3 371/5/3 359/5/3
f 384/2/3 359/2/3 364/2/3
f 385/5/3 371/5/3 384/5/3
f 386/5/3 364/5/3 363/5/3
f 386/2/3 363/2/3 370/2/3
f 387/2/3 385/2/3 384/2/3
f 387/5/3 364/5/3 386/5/3
f 387/2/3 384/2/3 364/2/3
f 388/2/3 385/2/3 387/2/3
f 389/2/3 385/2/3 388/2/3
f 390/5/3 379/5/3 378/5/3
f 391/5/3 379/5/3 390/5/3
f 392/2/3 365/2/3 381/2/3
f 392/5/3 366/5/3 365/5/3
f 393/2/3 382/2/3 366/2/3
f 393/5/3 366/5/3 392/5/3
f 394/2/3 388/2/3 387/2/3
f 394/2/3 386/2/3 370/2/3
f 394/2/3 387/2/3 386/2/3
f 395/2/3 388/2/3 394/2/3
f 396/5/3 389/5/3 388/5/3
f 399/5/3 381/5/3 380/5/3
f 400/2/3 392/2/3 381/2/3
f 400/2/3 393/2/3 392/2/3
f 401/2/3 382/2/3 393/2/3
f 401/2/3 393/2/3 400/2/3
f 402/5/3 370/5/3 369/5/3
f 402/1/3 369/1/3 329/1/3
f 403/2/3 394/2/3 370/2/3
f 403/5/3 370/5/3 402/5/3
f 404/5/3 399/5/3 398/5/3
f 404/2/3 398/2/3 397/2/3
f 405/2/3 400/2/3 381/2/3
f 405/5/3 399/5/3 404/5/3
f 405/5/3 381/5/3 399/5/3
f 406/5/3 383/5/3 382/5/3
f 406/2/3 382/2/3 401/2/3
f 407/1/3 330/1/3 383/1/3
f 407/5/3 383/5/3 406/5/3
f 408/2/3 403/2/3 402/2/3
f 408/1/3 402/1/3 329/1/3
f 409/2/3 394/2/3 403/2/3
f 409/2/3 403/2/3 408/2/3
f 410/2/3 388/2/3 395/2/3
f 410/5/3 396/5/3 388/5/3
f 410/5/3 397/5/3 396/5/3
f 411/2/3 404/2/3 397/2/3
f 411/5/3 397/5/3 410/5/3
f 411/2/3 405/2/3 404/2/3
f 412/2/3 405/2/3 411/2/3
f 413/2/3 400/2/3 405/2/3
f 413/2/3 405/2/3 412/2/3
f 414/2/3 406/2/3 401/2/3
f 414/2/3 407/2/3 406/2/3
f 415/1/3 330/1/3 407/1/3
f 415/2/3 407/2/3 414/2/3
f 416/2/3 394/2/3 409/2/3
f 416/5/3 395/5/3 394/5/3
f 417/2/3 410/2/3 395/2/3
f 417/5/3 395/5/3 416/5/3
f 417/2/3 412/2/3 411/2/3
f 417/2/3 411/2/3 410/2/3
f 418/2/3 412/2/3 417/2/3
f 419/2/3 412/2/3 418/2/3
f 420/2/3 400/2/3 413/2/3
f 420/5/3 401/5/3 400/5/3
f 421/2/3 414/2/3 401/2/3
f 421/5/3 401/5/3 420/5/3
f 422/2/3 416/2/3 409/2/3
f 422/2/3 417/2/3 416/2/3
f 422/2/3 418/2/3 417/2/3
f 423/2/3 418/2/3 422/2/3
f 424/2/3 420/2/3 413/2/3
f 424/2/3 421/2/3 420/2/3
f 425/2/3 414/2/3 421/2/3
f 425/2/3 421/2/3 424/2/3
f 426/1/3 408/1/3 329/1/3
f 426/5/3 409/5/3 408/5/3
f 427/2/3 422/2/3 409/2/3
f 427/5/3 409/5/3 426/5/3
f 428/5/3 423/5/3 422/5/3
f 428/2/3 422/2/3 427/2/3
f 429/2/3 418/2/3 423/2/3
f 429/5/3 423/5/3 428/5/3
f 430/5/3 419/5/3 418/5/3
f 430/2/3 418/2/3 429/2/3
f 431/2/3 412/2/3 419/2/3
f 431/5/3 419/5/3 430/5/3
f 432/5/3 413/5/3 412/5/3
f 432/2/3 412/2/3 431/2/3
f 433/2/3 424/2/3 413/2/3
f 433/5/3 413/5/3 432/5/3
f 434/5/3 425/5/3 424/5/3
f 434/2/3 424/2/3 433/2/3
f 435/2/3 414/2/3 425/2/3
f 435/5/3 425/5/3 434/5/3
f 436/5/3 415/5/3 414/5/3
f 436/2/3 414/2/3 435/2/3
f 437/1/3 330/1/3 415/1/3
f 437/5/3 415/5/3 436/5/3
f 438/1/3 434/1/3 433/1/3
f 438/1/3 430/1/3 429/1/3
f 438/1/3 437/1/3 436/1/3
f 438/1/3 426/1/3 329/1/3
f 438/1/3 427/1/3 426/1/3
f 438/1/3 431/1/3 430/1/3
f 438/1/3 429/1/3 428/1/3
f 438/1/3 433/1/3 432/1/3
f 438/1/3 428/1/3 427/1/3
f 438/1/3 432/1/3 431/1/3
f 438/1/3 435/1/3 434/1/3
f 438/1/3 436/1/3 435/1/3
f 439/1/3 330/1/3 437/1/3
f 439/1/3 437/1/3 438/1/3
f 442/6/3 441/6/3 440/6/3
f 443/6/3 441/6/3 442/6/3
f 446/6/3 445/6/3 444/6/3
f 447/6/3 445/6/3 446/6/3
f 450/6/3 449/6/3 448/6/3
f 451/6/3 449/6/3 450/6/3
f 454/6/3 453/6/3 452/6/3
f 455/6/3 453/6/3 454/6/3
f 458/6/3 457/6/3 456/6/3
f 459/6/3 457/6/3 458/6/3
f 462/6/3 461/6/3 460/6/3
f 463/6/3 461/6/3 462/6/3
f 466/6/3 465/6/3 464/6/3
f 467/6/3 465/6/3 466/6/3
f 470/6/3 469/6/3 468/6/3
f 471/6/3 469/6/3 470/6/3
f 474/6/3 473/6/3 472/6/3
f 475/6/3 473/6/3 474/6/3
f 478/6/3 477/6/3 476/6/3
f 479/6/3 477/6/3 478/6/3
f 482/6/3 481/6/3 480/6/3
f 483/6/3 481/6/3 482/6/3
f 484/6/4 485/6/4 486/6/4
f 486/6/4 485/6/4 487/6/4
f 488/6/4 489/6/4 490/6/4
f 490/6/4 489/6/4 491/6/4
f 492/6/4 493/6/4 494/6/4
f 494/6/4 493/6/4 495/6/4
f 496/6/4 497/6/4 498/6/4
f 498/6/4 497/6/4 499/6/4
f 500/6/4 501/6/4 502/6/4
f 502/6/4 501/6/4 503/6/4
f 504/1/4 505/1/4 506/1/4
f 506/1/4 505/1/4 507/1/4
f 507/1/4 505/1/4 508/1/4
f 508/1/4 505/1/4 509/1/4
f 509/1/4 505/1/4 510/1/4
f 510/1/4 505/1/4 511/1/4
f 511/1/4 505/1/4 512/1/4
f 512/1/4 505/1/4 513/1/4
f 513/1/4 505/1/4 514/1/4
f 514/1/4 505/1/4 515/1/4
f 515/1/4 505/1/4 516/1/4
f 516/1/4 505/1/4 517/1/4
f 504/1/4 506/1/4 518/1/4
f 506/5/4 507/5/4 518/5/4
f 507/2/4 508/2/4 519/2/4
f 518/5/4 507/5/4 519/5/4
f 504/1/4 518/1/4 520/1/4
f 518/2/4 519/2/4 520/2/4
f 519/2/4 508/2/4 521/2/4
f 520/2/4 519/2/4 521/2/4
f 511/2/4 512/2/4 522/2/4
f 512/5/4 513/5/4 522/5/4
f 513/2/4 514/2/4 523/2/4
f 522/5/4 513/5/4 523/5/4
f 511/2/4 522/2/4 524/2/4
f 522/2/4 523/2/4 524/2/4
f 523/2/4 514/2/4 525/2/4
f 524/2/4 523/2/4 525/2/4
f 516/5/4 517/5/4 526/5/4
f 515/2/4 516/2/4 526/2/4
f 517/1/4 505/1/4 527/1/4
f 526/5/4 517/5/4 527/5/4
f 509/2/4 510/2/4 528/2/4
f 510/5/4 511/5/4 528/5/4
f 511/2/4 524/2/4 529/2/4
f 528/5/4 511/5/4 529/5/4
f 515/2/4 526/2/4 530/2/4
f 526/2/4 527/2/4 530/2/4
f 527/1/4 505/1/4 531/1/4
f 530/2/4 527/2/4 531/2/4
f 508/5/4 509/5/4 532/5/4
f 521/2/4 508/2/4 532/2/4
f 528/2/4 529/2/4 533/2/4
f 532/5/4 509/5/4 533/5/4
f 509/2/4 528/2/4 533/2/4
f 533/2/4 529/2/4 534/2/4
f 529/2/4 524/2/4 535/2/4
f 534/2/4 529/2/4 535/2/4
f 525/2/4 514/2/4 536/2/4
f 514/5/4 515/5/4 536/5/4
f 515/2/4 530/2/4 537/2/4
f 536/5/4 515/5/4 537/5/4
f 533/2/4 534/2/4 538/2/4
f 521/2/4 532/2/4 538/2/4
f 532/2/4 533/2/4 538/2/4
f 538/2/4 534/2/4 539/2/4
f 525/2/4 536/2/4 540/2/4
f 536/2/4 537/2/4 540/2/4
f 537/2/4 530/2/4 541/2/4
f 540/2/4 537/2/4 541/2/4
f 504/1/4 520/1/4 542/1/4
f 520/5/4 521/5/4 542/5/4
f 521/2/4 538/2/4 543/2/4
f 542/5/4 521/5/4 543/5/4
f 504/1/4 542/1/4 544/1/4
f 542/2/4 543/2/4 544/2/4
f 543/2/4 538/2/4 545/2/4
f 544/2/4 543/2/4 545/2/4
f 535/2/4 524/2/4 546/2/4
f 524/5/4 525/5/4 546/5/4
f 525/2/4 540/2/4 547/2/4
f 546/5/4 525/5/4 547/5/4
f 541/2/4 530/2/4 548/2/4
f 530/5/4 531/5/4 548/5/4
f 531/1/4 505/1/4 549/1/4
f 548/5/4 531/5/4 549/5/4
f 535/2/4 546/2/4 550/2/4
f 546/2/4 547/2/4 550/2/4
f 547/2/4 540/2/4 551/2/4
f 550/2/4 547/2/4 551/2/4
f 541/2/4 548/2/4 552/2/4
f 548/2/4 549/2/4 552/2/4
f 549/1/4 505/1/4 553/1/4
f 552/2/4 549/2/4 553/2/4
f 539/2/4 534/2/4 554/2/4
f 534/5/4 535/5/4 554/5/4
f 535/2/4 550/2/4 555/2/4
f 554/5/4 535/5/4 555/5/4
f 545/2/4 538/2/4 556/2/4
f 538/5/4 539/5/4 556/5/4
f 539/2/4 554/2/4 557/2/4
f 556/5/4 539/5/4 557/5/4
f 554/2/4 555/2/4 557/2/4
f 557/2/4 555/2/4 558/2/4
f 555/2/4 550/2/4 559/2/4
f 558/2/4 555/2/4 559/2/4
f 551/2/4 540/2/4 560/2/4
f 540/5/4 541/5/4 560/5/4
f 541/2/4 552/2/4 561/2/4
f 560/5/4 541/5/4 561/5/4
f 557/2/4 558/2/4 562/2/4
f 545/2/4 556/2/4 562/2/4
f 556/2/4 557/2/4 562/2/4
f 562/2/4 558/2/4 563/2/4
f 551/2/4 560/2/4 564/2/4
f 560/2/4 561/2/4 564/2/4
f 561/2/4 552/2/4 565/2/4
f 564/2/4 561/2/4 565/2/4
f 504/1/4 544/1/4 566/1/4
f 544/5/4 545/5/4 566/5/4
f 545/2/4 562/2/4 567/2/4
f 566/5/4 545/5/4 567/5/4
f 559/2/4 550/2/4 568/2/4
f 550/5/4 551/5/4 568/5/4
f 551/2/4 564/2/4 569/2/4
f 568/5/4 551/5/4 569/5/4
f 565/2/4 552/2/4 570/2/4
f 552/5/4 553/5/4 570/5/4
f 553/1/4 505/1/4 571/1/4
f 570/5/4 553/5/4 571/5/4
f 566/2/4 567/2/4 572/2/4
f 504/1/4 566/1/4 572/1/4
f 567/2/4 562/2/4 573/2/4
f 572/2/4 567/2/4 573/2/4
f 563/2/4 558/2/4 574/2/4
f 558/5/4 559/5/4 574/5/4
f 559/2/4 568/2/4 575/2/4
f 574/5/4 559/5/4 575/5/4
f 568/2/4 569/2/4 575/2/4
f 575/2/4 569/2/4 576/2/4
f 569/2/4 564/2/4 577/2/4
f 576/2/4 569/2/4 577/2/4
f 565/2/4 570/2/4 578/2/4
f 570/2/4 571/2/4 578/2/4
f 571/1/4 505/1/4 579/1/4
f 578/2/4 571/2/4 579/2/4
f 573/2/4 562/2/4 580/2/4
f 562/5/4 563/5/4 580/5/4
f 563/2/4 574/2/4 581/2/4
f 580/5/4 563/5/4 581/5/4
f 575/2/4 576/2/4 581/2/4
f 574/2/4 575/2/4 581/2/4
f 581/2/4 576/2/4 582/2/4
f 582/2/4 576/2/4 583/2/4
f 577/2/4 564/2/4 584/2/4
f 564/5/4 565/5/4 584/5/4
f 565/2/4 578/2/4 585/2/4
f 584/5/4 565/5/4 585/5/4
f 573/2/4 580/2/4 586/2/4
f 580/2/4 581/2/4 586/2/4
f 581/2/4 582/2/4 586/2/4
f 586/2/4 582/2/4 587/2/4
f 577/2/4 584/2/4 588/2/4
f 584/2/4 585/2/4 588/2/4
f 585/2/4 578/2/4 589/2/4
f 588/2/4 585/2/4 589/2/4
f 504/1/4 572/1/4 590/1/4
f 572/5/4 573/5/4 590/5/4
f 573/2/4 586/2/4 591/2/4
f 590/5/4 573/5/4 591/5/4
f 586/5/4 587/5/4 592/5/4
f 591/2/4 586/2/4 592/2/4
f 587/2/4 582/2/4 593/2/4
f 592/5/4 587/5/4 593/5/4
f 582/5/4 583/5/4 594/5/4
f 593/2/4 582/2/4 594/2/4
f 583/2/4 576/2/4 595/2/4
f 594/5/4 583/5/4 595/5/4
f 576/5/4 577/5/4 596/5/4
f 595/2/4 576/2/4 596/2/4
f 577/2/4 588/2/4 597/2/4
f 596/5/4 577/5/4 597/5/4
f 588/5/4 589/5/4 598/5/4
f 597/2/4 588/2/4 598/2/4
f 589/2/4 578/2/4 599/2/4
f 598/5/4 589/5/4 599/5/4
f 578/5/4 579/5/4 600/5/4
f 599/2/4 578/2/4 600/2/4
f 579/1/4 505/1/4 601/1/4
f 600/5/4 579/5/4 601/5/4
f 599/1/4 600/1/4 602/1/4
f 595/1/4 596/1/4 602/1/4
f 600/1/4 601/1/4 602/1/4
f 504/1/4 590/1/4 602/1/4
f 590/1/4 591/1/4 602/1/4
f 592/1/4 593/1/4 602/1/4
f 596/1/4 597/1/4 602/1/4
f 591/1/4 592/1/4 602/1/4
f 594/1/4 595/1/4 602/1/4
f 593/1/4 594/1/4 602/1/4
f 597/1/4 598/1/4 602/1/4
f 598/1/4 599/1/4 602/1/4
f 601/1/4 505/1/4 603/1/4
f 602/1/4 601/1/4 603/1/4
f 606/1/5 605/1/5 604/1/5
f 607/1/5 605/1/5 606/1/5
f 608/1/5 605/1/5 607/1/5
f 609/1/5 605/1/5 608/1/5
f 610/1/5 605/1/5 609/1/5
f 611/1/5 605/1/5 610/1/5
f 612/1/5 605/1/5 611/1/5
f 613/1/5 605/1/5 612/1/5
f 614/1/5 606/1/5 604/1/5
f 614/5/5 607/5/5 606/5/5
f 615/2/5 608/2/5 607/2/5
f 615/5/5 607/5/5 614/5/5
f 616/5/5 609/5/5 608/5/5
f 616/2/5 608/2/5 615/2/5
f 617/2/5 610/2/5 609/2/5
f 617/5/5 609/5/5 616/5/5
f 618/5/5 611/5/5 610/5/5
f 618/2/5 610/2/5 617/2/5
f 619/2/5 612/2/5 611/2/5
f 619/5/5 611/5/5 618/5/5
f 620/5/5 613/5/5 612/5/5
f 620/2/5 612/2/5 619/2/5
f 621/1/5 605/1/5 613/1/5
f 621/5/5 613/5/5 620/5/5
f 622/2/5 620/2/5 619/2/5
f 622/2/5 619/2/5 618/2/5
f 622/2/5 621/2/5 620/2/5
f 622/2/5 618/2/5 617/2/5
f 622/2/5 617/2/5 616/2/5
f 622/2/5 616/2/5 615/2/5
f 622/2/5 615/2/5 614/2/5
f 622/1/5 614/1/5 604/1/5
f 623/2/5 621/2/5 622/2/5
f 624/2/5 621/2/5 623/2/5
f 625/2/5 621/2/5 624/2/5
f 626/2/5 621/2/5 625/2/5
f 627/2/5 621/2/5 626/2/5
f 628/2/5 621/2/5 627/2/5
f 629/1/5 605/1/5 621/1/5
f 629/2/5 621/2/5 628/2/5
f 630/1/5 622/1/5 604/1/5
f 630/5/5 623/5/5 622/5/5
f 631/2/5 624/2/5 623/2/5
f 631/5/5 623/5/5 630/5/5
f 632/5/5 625/5/5 624/5/5
f 632/2/5 624/2/5 631/2/5
f 633/2/5 626/2/5 625/2/5
f 633/5/5 625/5/5 632/5/5
f 634/5/5 627/5/5 626/5/5
f 634/2/5 626/2/5 633/2/5
f 635/2/5 628/2/5 627/2/5
f 635/5/5 627/5/5 634/5/5
f 636/5/5 629/5/5 628/5/5
f 636/2/5 628/2/5 635/2/5
f 637/1/5 605/1/5 629/1/5
f 637/5/5 629/5/5 636/5/5
f 638/2/5 634/2/5 633/2/5
f 638/2/5 636/2/5 635/2/5
f 638/2/5 637/2/5 636/2/5
f 638/2/5 633/2/5 632/2/5
f 638/2/5 632/2/5 631/2/5
f 638/2/5 631/2/5 630/2/5
f 638/1/5 630/1/5 604/1/5
f 638/2/5 635/2/5 634/2/5
f 639/2/5 637/2/5 638/2/5
f 640/2/5 637/2/5 639/2/5
f 641/2/5 637/2/5 640/2/5
f 642/2/5 637/2/5 641/2/5
f 643/2/5 637/2/5 642/2/5
f 644/2/5 637/2/5 643/2/5
f 645/1/5 605/1/5 637/1/5
f 645/2/5 637/2/5 644/2/5
f 646/1/5 638/1/5 604/1/5
f 646/5/5 639/5/5 638/5/5
f 647/2/5 640/2/5 639/2/5
f 647/5/5 639/5/5 646/5/5
f 648/5/5 641/5/5 640/5/5
f 648/2/5 640/2/5 647/2/5
f 649/2/5 642/2/5 641/2/5
f 649/5/5 641/5/5 648/5/5
f 650/5/5 643/5/5 642/5/5
f 650/2/5 642/2/5 649/2/5
f 651/2/5 644/2/5 643/2/5
f 651/5/5 643/5/5 650/5/5
f 652/5/5 645/5/5 644/5/5
f 652/2/5 644/2/5 651/2/5
f 653/1/5 605/1/5 645/1/5
f 653/5/5 645/5/5 652/5/5
f 654/2/5 650/2/5 649/2/5
f 654/2/5 652/2/5 651/2/5
f 654/2/5 653/2/5 652/2/5
f 654/2/5 649/2/5 648/2/5
f 654/2/5 648/2/5 647/2/5
f 654/2/5 647/2/5 646/2/5
f 654/1/5 646/1/5 604/1/5
f 654/2/5 651/2/5 650/2/5
f 655/2/5 653/2/5 654/2/5
f 656/2/5 653/2/5 655/2/5
f 657/2/5 653/2/5 656/2/5
f 658/2/5 653/2/5 657/2/5
f 659/2/5 653/2/5 658/2/5
f 660/2/5 653/2/5 659/2/5
f 661/1/5 605/1/5 653/1/5
f 661/2/5 653/2/5 660/2/5
f 662/1/5 654/1/5 604/1/5
f 662/5/5 655/5/5 654/5/5
f 663/2/5 656/2/5 655/2/5
f 663/5/5 655/5/5 662/5/5
f 664/5/5 657/5/5 656/5/5
f 664/2/5 656/2/5 663/2/5
f 665/2/5 658/2/5 657/2/5
f 665/5/5 657/5/5 664/5/5
f 666/5/5 659/5/5 658/5/5
f 666/2/5 658/2/5 665/2/5
f 667/2/5 660/2/5 659/2/5
f 667/5/5 659/5/5 666/5/5
f 668/5/5 661/5/5 660/5/5
f 668/2/5 660/2/5 667/2/5
f 669/1/5 605/1/5 661/1/5
f 669/5/5 661/5/5 668/5/5
f 670/2/5 666/2/5 665/2/5
f 670/2/5 668/2/5 667/2/5
f 670/2/5 669/2/5 668/2/5
f 670/2/5 665/2/5 664/2/5
f 670/2/5 664/2/5 663/2/5
f 670/2/5 663/2/5 662/2/5
f 670/1/5 662/1/5 604/1/5
f 670/2/5 667/2/5 666/2/5
f 671/2/5 669/2/5 670/2/5
f 672/2/5 669/2/5 671/2/5
f 673/2/5 669/2/5 672/2/5
f 674/2/5 669/2/5 673/2/5
f 675/2/5 669/2/5 674/2/5
f 676/2/5 669/2/5 675/2/5
f 677/1/5 605/1/5 669/1/5
f 677/2/5 669/2/5 676/2/5
f 678/1/5 670/1/5 604/1/5
f 678/5/5 671/5/5 670/5/5
f 679/2/5 672/2/5 671/2/5
f 679/5/5 671/5/5 678/5/5
f 680/5/5 673/5/5 672/5/5
f 680/2/5 672/2/5 679/2/5
f 681/2/5 674/2/5 673/2/5
f 681/5/5 673/5/5 680/5/5
f 682/5/5 675/5/5 674/5/5
f 682/2/5 674/2/5 681/2/5
f 683/2/5 676/2/5 675/2/5
f 683/5/5 675/5/5 682/5/5
f 684/5/5 677/5/5 676/5/5
f 684/2/5 676/2/5 683/2/5
f 685/1/5 605/1/5 677/1/5
f 685/5/5 677/5/5 684/5/5
f 686/2/5 682/2/5 681/2/5
f 686/2/5 684/2/5 683/2/5
f 686/2/5 685/2/5 684/2/5
f 686/2/5 681/2/5 680/2/5
f 686/2/5 680/2/5 679/2/5
f 686/2/5 679/2/5 678/2/5
f 686/1/5 678/1/5 604/1/5
f 686/2/5 683/2/5 682/2/5
f 687/2/5 685/2/5 686/2/5
f 688/2/5 685/2/5 687/2/5
f 689/2/5 685/2/5 688/2/5
f 690/2/5 685/2/5 689/2/5
f 691/2/5 685/2/5 690/2/5
f 692/2/5 685/2/5 691/2/5
f 693/1/5 605/1/5 685/1/5
f 693/2/5 685/2/5 692/2/5
f 694/1/5 686/1/5 604/1/5
f 694/5/5 687/5/5 686/5/5
f 695/2/5 688/2/5 687/2/5
f 695/5/5 687/5/5 694/5/5
f 696/5/5 689/5/5 688/5/5
f 696/2/5 688/2/5 695/2/5
f 697/2/5 690/2/5 689/2/5
f 697/5/5 689/5/5 696/5/5
f 698/5/5 691/5/5 690/5/5
f 698/2/5 690/2/5 697/2/5
f 699/2/5 692/2/5 691/2/5
f 699/5/5 691/5/5 698/5/5
f 700/5/5 693/5/5 692/5/5
f 700/2/5 692/2/5 699/2/5
f 701/1/5 605/1/5 693/1/5
f 701/5/5 693/5/5 700/5/5
f 702/1/5 698/1/5 697/1/5
f 702/1/5 700/1/5 699/1/5
f 702/1/5 701/1/5 700/1/5
f 702/1/5 697/1/5 696/1/5
f 702/1/5 696/1/5 695/1/5
f 702/1/5 695/1/5 694/1/5
f 702/1/5 694/1/5 604/1/5
f 702/1/5 699/1/5 698/1/5
f 703/1/5 605/1/5 701/1/5
f 703/1/5 701/1/5 702/1/5
f 708/6/5 705/6/5 704/6/5
f 709/7/5 706/7/5 705/7/5
f 709/6/5 705/6/5 708/6/5
f 710/6/5 707/6/5 706/6/5
f 710/7/5 706/7/5 709/7/5
f 711/6/5 707/6/5 710/6/5
f 712/7/5 709/7/5 708/7/5
f 712/7/5 710/7/5 709/7/5
f 712/7/5 711/7/5 710/7/5
f 713/7/5 711/7/5 712/7/5
f 714/7/5 711/7/5 713/7/5
f 715/7/5 711/7/5 714/7/5
f 718/7/5 717/7/5 716/7/5
f 719/7/5 717/7/5 718/7/5
f 720/7/6 721/7/6 722/7/6
f 722/7/6 721/7/6 723/7/6
f 724/6/6 725/6/6 728/6/6
f 725/7/6 726/7/6 729/7/6
f 728/6/6 725/6/6 729/6/6
f 726/6/6 727/6/6 730/6/6
f 729/7/6 726/7/6 730/7/6
f 730/6/6 727/6/6 731/6/6
f 728/7/6 729/7/6 732/7/6
f 729/7/6 730/7/6 732/7/6
f 730/7/6 731/7/6 732/7/6
f 732/7/6 731/7/6 733/7/6
f 733/7/6 731/7/6 734/7/6
f 735/1/6 736/1/6 737/1/6
f 737/1/6 736/1/6 738/1/6
f 737/5/6 738/5/6 739/5/6
f 739/5/6 738/5/6 740/5/6
f 737/5/6 739/5/6 741/5/6
f 741/5/6 739/5/6 742/5/6
f 740/5/6 738/5/6 743/5/6
f 743/5/6 738/5/6 744/5/6
f 737/5/6 741/5/6 745/5/6
f 745/5/6 741/5/6 746/5/6
f 744/5/6 738/5/6 747/5/6
f 747/5/6 738/5/6 748/5/6
f 737/5/6 745/5/6 749/5/6
f 749/5/6 745/5/6 750/5/6
f 748/5/6 738/5/6 751/5/6
f 751/5/6 738/5/6 752/5/6
f 737/5/6 749/5/6 753/5/6
f 753/5/6 749/5/6 754/5/6
f 752/5/6 738/5/6 755/5/6
f 755/5/6 738/5/6 756/5/6
f 737/5/6 753/5/6 757/5/6
f 757/5/6 753/5/6 758/5/6
f 756/5/6 738/5/6 759/5/6
f 759/5/6 738/5/6 760/5/6
f 737/5/6 757/5/6 761/5/6
f 760/5/6 738/5/6 764/5/6
f 761/5/6 762/5/6 765/5/6
f 763/5/6 764/5/6 768/5/6
f 765/5/6 766/5/6 769/5/6
f 767/5/6 768/5/6 770/5/6
f 735/1/6 737/1/6 771/1/6
f 769/5/6 770/5/6 771/5/6
f 765/5/6 769/5/6 771/5/6
f 737/5/6 761/5/6 771/5/6
f 761/5/6 765/5/6 771/5/6
f 770/5/6 768/5/6 772/5/6
f 771/5/6 770/5/6 772/5/6
f 738/1/6 736/1/6 772/1/6
f 768/5/6 764/5/6 772/5/6
f 764/5/6 738/5/6 772/5/6
f 735/1/6 771/1/6 773/1/6
f 771/1/6 772/1/6 773/1/6
f 772/1/6 736/1/6 774/1/6
f 773/1/6 772/1/6 774/1/6
f 775/6/6 776/6/6 778/6/6
f 778/6/6 776/6/6 779/6/6
f 777/6/6 778/6/6 782/6/6
f 779/6/6 780/6/6 782/6/6
f 778/6/6 779/6/6 782/6/6
f 782/6/6 780/6/6 783/6/6
f 781/6/6 782/6/6 786/6/6
f 783/6/6 784/6/6 786/6/6
f 782/6/6 783/6/6 786/6/6
f 786/6/6 784/6/6 787/6/6
f 785/6/6 786/6/6 790/6/6
f 787/6/6 788/6/6 790/6/6
f 786/6/6 787/6/6 790/6/6
f 790/6/6 788/6/6 791/6/6
f 789/6/6 790/6/6 794/6/6
f 791/6/6 792/6/6 794/6/6
f 790/6/6 791/6/6 794/6/6
f 794/6/6 792/6/6 795/6/6
f 793/6/6 794/6/6 797/6/6
f 795/6/6 796/6/6 797/6/6
f 794/6/6 795/6/6 797/6/6
f 797/6/6 796/6/6 798/6/6
f 798/6/6 796/6/6 799/6/6
f 799/6/6 796/6/6 800/6/6
f 798/6/6 799/6/6 801/6/6
f 801/6/6 799/6/6 802/6/6
f 802/6/6 799/6/6 803/6/6
f 803/6/6 799/6/6 804/6/6
f 802/6/6 803/6/6 805/6/6
f 805/6/6 803/6/6 806/6/6
