# MagicaVoxel @ Ephtracy

# group
o 

# material
mtllib Arrow2.mtl
usemtl palette

# normals
vn -1 0 0
vn 1 0 0
vn 0 0 1
vn 0 0 -1
vn 0 -1 0
vn 0 1 0

# texcoords
vt 0.181641 0.5
vt 0.185547 0.5
vt 0.958984 0.5
vt 0.962891 0.5
vt 0.966797 0.5
vt 0.990234 0.5
vt 0.994141 0.5

# verts
v -2.23517e-08 -2.23517e-08 1.3
v -2.23517e-08 -2.23517e-08 1.2
v -2.23517e-08 -2.23517e-08 1.1
v -2.23517e-08 0.1 1.3
v -2.23517e-08 0.1 1.2
v -2.23517e-08 0.1 1.1
v -2.23517e-08 0.1 1
v -2.23517e-08 0.2 1.3
v -2.23517e-08 0.2 1.2
v -2.23517e-08 0.2 1.1
v -2.23517e-08 0.2 1
v -2.23517e-08 0.2 0.9
v -2.23517e-08 0.3 1.2
v -2.23517e-08 0.3 1.1
v -2.23517e-08 0.3 1
v -2.23517e-08 0.3 0.9
v -2.23517e-08 0.3 0.8
v -2.23517e-08 0.4 1.1
v -2.23517e-08 0.4 1
v -2.23517e-08 0.4 0.9
v -2.23517e-08 0.4 0.8
v -2.23517e-08 0.4 0.7
v -2.23517e-08 0.5 0.9
v -2.23517e-08 0.5 0.8
v -2.23517e-08 0.5 0.7
v -2.23517e-08 0.5 0.6
v -2.23517e-08 0.6 0.8
v -2.23517e-08 0.6 0.7
v -2.23517e-08 0.6 0.6
v -2.23517e-08 0.6 0.5
v -2.23517e-08 0.7 0.7
v -2.23517e-08 0.7 0.6
v -2.23517e-08 0.7 0.5
v -2.23517e-08 0.7 0.4
v -2.23517e-08 0.8 0.6
v -2.23517e-08 0.8 0.5
v -2.23517e-08 0.8 0.4
v -2.23517e-08 0.8 0.2
v -2.23517e-08 0.9 0.5
v -2.23517e-08 0.9 0.4
v -2.23517e-08 0.9 0.3
v -2.23517e-08 0.9 0.2
v -2.23517e-08 0.9 0.0999999
v -2.23517e-08 1 0.4
v -2.23517e-08 1 0.3
v -2.23517e-08 1 0.2
v -2.23517e-08 1 0.0999999
v -2.23517e-08 1 0
v -2.23517e-08 1.1 0.4
v -2.23517e-08 1.1 0.3
v -2.23517e-08 1.1 0.2
v -2.23517e-08 1.1 0.0999999
v -2.23517e-08 1.1 0
v -2.23517e-08 1.2 0.3
v -2.23517e-08 1.2 0.2
v -2.23517e-08 1.2 0.0999999
v 0.1 -2.23517e-08 1.3
v 0.1 -2.23517e-08 1.2
v 0.1 -2.23517e-08 1.1
v 0.1 0.1 1.3
v 0.1 0.1 1.2
v 0.1 0.1 1.1
v 0.1 0.1 1
v 0.1 0.2 1.3
v 0.1 0.2 1.2
v 0.1 0.2 1.1
v 0.1 0.2 1
v 0.1 0.2 0.9
v 0.1 0.3 1.2
v 0.1 0.3 1.1
v 0.1 0.3 1
v 0.1 0.3 0.9
v 0.1 0.3 0.8
v 0.1 0.4 1.1
v 0.1 0.4 1
v 0.1 0.4 0.9
v 0.1 0.4 0.8
v 0.1 0.4 0.7
v 0.1 0.5 0.9
v 0.1 0.5 0.8
v 0.1 0.5 0.7
v 0.1 0.5 0.6
v 0.1 0.6 0.8
v 0.1 0.6 0.7
v 0.1 0.6 0.6
v 0.1 0.6 0.5
v 0.1 0.7 0.7
v 0.1 0.7 0.6
v 0.1 0.7 0.5
v 0.1 0.7 0.4
v 0.1 0.8 0.6
v 0.1 0.8 0.5
v 0.1 0.8 0.4
v 0.1 0.8 0.2
v 0.1 0.9 0.5
v 0.1 0.9 0.4
v 0.1 0.9 0.3
v 0.1 0.9 0.2
v 0.1 0.9 0.0999999
v 0.1 1 0.4
v 0.1 1 0.3
v 0.1 1 0.2
v 0.1 1 0.0999999
v 0.1 1 0
v 0.1 1.1 0.4
v 0.1 1.1 0.3
v 0.1 1.1 0.2
v 0.1 1.1 0.0999999
v 0.1 1.1 0
v 0.1 1.2 0.3
v 0.1 1.2 0.2
v 0.1 1.2 0.0999999
v -2.23517e-08 -2.23517e-08 1.3
v -2.23517e-08 0.1 1.3
v -2.23517e-08 0.2 1.3
v 0.1 -2.23517e-08 1.3
v 0.1 0.1 1.3
v 0.1 0.2 1.3
v -2.23517e-08 0.2 1.2
v -2.23517e-08 0.3 1.2
v 0.1 0.2 1.2
v 0.1 0.3 1.2
v -2.23517e-08 0.3 1.1
v -2.23517e-08 0.4 1.1
v 0.1 0.3 1.1
v 0.1 0.4 1.1
v -2.23517e-08 0.4 0.9
v -2.23517e-08 0.5 0.9
v 0.1 0.4 0.9
v 0.1 0.5 0.9
v -2.23517e-08 0.5 0.8
v -2.23517e-08 0.6 0.8
v 0.1 0.5 0.8
v 0.1 0.6 0.8
v -2.23517e-08 0.6 0.7
v -2.23517e-08 0.7 0.7
v 0.1 0.6 0.7
v 0.1 0.7 0.7
v -2.23517e-08 0.7 0.6
v -2.23517e-08 0.8 0.6
v 0.1 0.7 0.6
v 0.1 0.8 0.6
v -2.23517e-08 0.8 0.5
v -2.23517e-08 0.9 0.5
v 0.1 0.8 0.5
v 0.1 0.9 0.5
v -2.23517e-08 0.9 0.4
v -2.23517e-08 1 0.4
v -2.23517e-08 1.1 0.4
v 0.1 0.9 0.4
v 0.1 1 0.4
v 0.1 1.1 0.4
v -2.23517e-08 1.1 0.3
v -2.23517e-08 1.2 0.3
v 0.1 1.1 0.3
v 0.1 1.2 0.3
v -2.23517e-08 -2.23517e-08 1.1
v -2.23517e-08 0.1 1.1
v 0.1 -2.23517e-08 1.1
v 0.1 0.1 1.1
v -2.23517e-08 0.1 1
v -2.23517e-08 0.2 1
v 0.1 0.1 1
v 0.1 0.2 1
v -2.23517e-08 0.2 0.9
v -2.23517e-08 0.3 0.9
v 0.1 0.2 0.9
v 0.1 0.3 0.9
v -2.23517e-08 0.3 0.8
v -2.23517e-08 0.4 0.8
v 0.1 0.3 0.8
v 0.1 0.4 0.8
v -2.23517e-08 0.4 0.7
v -2.23517e-08 0.5 0.7
v 0.1 0.4 0.7
v 0.1 0.5 0.7
v -2.23517e-08 0.5 0.6
v -2.23517e-08 0.6 0.6
v 0.1 0.5 0.6
v 0.1 0.6 0.6
v -2.23517e-08 0.6 0.5
v -2.23517e-08 0.7 0.5
v 0.1 0.6 0.5
v 0.1 0.7 0.5
v -2.23517e-08 0.7 0.4
v -2.23517e-08 0.8 0.4
v 0.1 0.7 0.4
v 0.1 0.8 0.4
v -2.23517e-08 0.8 0.2
v -2.23517e-08 0.9 0.2
v 0.1 0.8 0.2
v 0.1 0.9 0.2
v -2.23517e-08 0.9 0.0999999
v -2.23517e-08 1 0.0999999
v -2.23517e-08 1.1 0.0999999
v -2.23517e-08 1.2 0.0999999
v 0.1 0.9 0.0999999
v 0.1 1 0.0999999
v 0.1 1.1 0.0999999
v 0.1 1.2 0.0999999
v -2.23517e-08 1 0
v -2.23517e-08 1.1 0
v 0.1 1 0
v 0.1 1.1 0
v -2.23517e-08 -2.23517e-08 1.3
v 0.1 -2.23517e-08 1.3
v -2.23517e-08 -2.23517e-08 1.2
v 0.1 -2.23517e-08 1.2
v -2.23517e-08 -2.23517e-08 1.1
v 0.1 -2.23517e-08 1.1
v -2.23517e-08 0.1 1.1
v 0.1 0.1 1.1
v -2.23517e-08 0.1 1
v 0.1 0.1 1
v -2.23517e-08 0.2 1
v 0.1 0.2 1
v -2.23517e-08 0.2 0.9
v 0.1 0.2 0.9
v -2.23517e-08 0.3 0.9
v 0.1 0.3 0.9
v -2.23517e-08 0.3 0.8
v 0.1 0.3 0.8
v -2.23517e-08 0.4 0.8
v 0.1 0.4 0.8
v -2.23517e-08 0.4 0.7
v 0.1 0.4 0.7
v -2.23517e-08 0.5 0.7
v 0.1 0.5 0.7
v -2.23517e-08 0.5 0.6
v 0.1 0.5 0.6
v -2.23517e-08 0.6 0.6
v 0.1 0.6 0.6
v -2.23517e-08 0.6 0.5
v 0.1 0.6 0.5
v -2.23517e-08 0.7 0.5
v 0.1 0.7 0.5
v -2.23517e-08 0.7 0.4
v 0.1 0.7 0.4
v -2.23517e-08 0.8 0.4
v 0.1 0.8 0.4
v -2.23517e-08 0.8 0.2
v 0.1 0.8 0.2
v -2.23517e-08 0.9 0.2
v 0.1 0.9 0.2
v -2.23517e-08 0.9 0.0999999
v 0.1 0.9 0.0999999
v -2.23517e-08 1 0.0999999
v 0.1 1 0.0999999
v -2.23517e-08 1 0
v 0.1 1 0
v -2.23517e-08 0.2 1.3
v 0.1 0.2 1.3
v -2.23517e-08 0.2 1.2
v 0.1 0.2 1.2
v -2.23517e-08 0.3 1.2
v 0.1 0.3 1.2
v -2.23517e-08 0.3 1.1
v 0.1 0.3 1.1
v -2.23517e-08 0.4 1.1
v 0.1 0.4 1.1
v -2.23517e-08 0.4 1
v 0.1 0.4 1
v -2.23517e-08 0.4 0.9
v 0.1 0.4 0.9
v -2.23517e-08 0.5 0.9
v 0.1 0.5 0.9
v -2.23517e-08 0.5 0.8
v 0.1 0.5 0.8
v -2.23517e-08 0.6 0.8
v 0.1 0.6 0.8
v -2.23517e-08 0.6 0.7
v 0.1 0.6 0.7
v -2.23517e-08 0.7 0.7
v 0.1 0.7 0.7
v -2.23517e-08 0.7 0.6
v 0.1 0.7 0.6
v -2.23517e-08 0.8 0.6
v 0.1 0.8 0.6
v -2.23517e-08 0.8 0.5
v 0.1 0.8 0.5
v -2.23517e-08 0.9 0.5
v 0.1 0.9 0.5
v -2.23517e-08 0.9 0.4
v 0.1 0.9 0.4
v -2.23517e-08 1.1 0.4
v 0.1 1.1 0.4
v -2.23517e-08 1.1 0.3
v 0.1 1.1 0.3
v -2.23517e-08 1.1 0.0999999
v 0.1 1.1 0.0999999
v -2.23517e-08 1.1 0
v 0.1 1.1 0
v -2.23517e-08 1.2 0.3
v 0.1 1.2 0.3
v -2.23517e-08 1.2 0.2
v 0.1 1.2 0.2
v -2.23517e-08 1.2 0.0999999
v 0.1 1.2 0.0999999

# faces
f 4/5/1 2/5/1 1/5/1
f 5/4/1 3/4/1 2/4/1
f 5/5/1 2/5/1 4/5/1
f 6/4/1 3/4/1 5/4/1
f 8/4/1 5/4/1 4/4/1
f 9/5/1 7/5/1 6/5/1
f 9/4/1 5/4/1 8/4/1
f 9/5/1 6/5/1 5/5/1
f 10/5/1 7/5/1 9/5/1
f 11/5/1 7/5/1 10/5/1
f 13/5/1 10/5/1 9/5/1
f 14/1/1 11/1/1 10/1/1
f 14/5/1 10/5/1 13/5/1
f 15/7/1 12/7/1 11/7/1
f 15/1/1 11/1/1 14/1/1
f 16/7/1 12/7/1 15/7/1
f 18/7/1 15/7/1 14/7/1
f 19/1/1 16/1/1 15/1/1
f 19/7/1 15/7/1 18/7/1
f 20/2/1 17/2/1 16/2/1
f 20/1/1 16/1/1 19/1/1
f 21/2/1 17/2/1 20/2/1
f 23/1/1 21/1/1 20/1/1
f 24/2/1 22/2/1 21/2/1
f 24/1/1 21/1/1 23/1/1
f 25/2/1 22/2/1 24/2/1
f 27/1/1 25/1/1 24/1/1
f 28/2/1 26/2/1 25/2/1
f 28/1/1 25/1/1 27/1/1
f 29/2/1 26/2/1 28/2/1
f 31/1/1 29/1/1 28/1/1
f 32/2/1 30/2/1 29/2/1
f 32/1/1 29/1/1 31/1/1
f 33/2/1 30/2/1 32/2/1
f 35/1/1 33/1/1 32/1/1
f 36/2/1 34/2/1 33/2/1
f 36/1/1 33/1/1 35/1/1
f 37/2/1 34/2/1 36/2/1
f 39/1/1 37/1/1 36/1/1
f 40/6/1 38/6/1 37/6/1
f 40/1/1 37/1/1 39/1/1
f 41/6/1 38/6/1 40/6/1
f 42/6/1 38/6/1 41/6/1
f 44/5/1 41/5/1 40/5/1
f 45/3/1 42/3/1 41/3/1
f 45/5/1 41/5/1 44/5/1
f 46/6/1 43/6/1 42/6/1
f 46/3/1 42/3/1 45/3/1
f 47/6/1 43/6/1 46/6/1
f 49/3/1 45/3/1 44/3/1
f 50/5/1 46/5/1 45/5/1
f 50/3/1 45/3/1 49/3/1
f 51/4/1 47/4/1 46/4/1
f 51/5/1 46/5/1 50/5/1
f 52/6/1 48/6/1 47/6/1
f 52/4/1 47/4/1 51/4/1
f 53/6/1 48/6/1 52/6/1
f 54/4/1 51/4/1 50/4/1
f 55/6/1 52/6/1 51/6/1
f 55/4/1 51/4/1 54/4/1
f 56/6/1 52/6/1 55/6/1
f 57/5/2 58/5/2 60/5/2
f 58/4/2 59/4/2 61/4/2
f 60/5/2 58/5/2 61/5/2
f 61/4/2 59/4/2 62/4/2
f 60/4/2 61/4/2 64/4/2
f 62/5/2 63/5/2 65/5/2
f 64/4/2 61/4/2 65/4/2
f 61/5/2 62/5/2 65/5/2
f 65/5/2 63/5/2 66/5/2
f 66/5/2 63/5/2 67/5/2
f 65/5/2 66/5/2 69/5/2
f 66/1/2 67/1/2 70/1/2
f 69/5/2 66/5/2 70/5/2
f 67/7/2 68/7/2 71/7/2
f 70/1/2 67/1/2 71/1/2
f 71/7/2 68/7/2 72/7/2
f 70/7/2 71/7/2 74/7/2
f 71/1/2 72/1/2 75/1/2
f 74/7/2 71/7/2 75/7/2
f 72/2/2 73/2/2 76/2/2
f 75/1/2 72/1/2 76/1/2
f 76/2/2 73/2/2 77/2/2
f 76/1/2 77/1/2 79/1/2
f 77/2/2 78/2/2 80/2/2
f 79/1/2 77/1/2 80/1/2
f 80/2/2 78/2/2 81/2/2
f 80/1/2 81/1/2 83/1/2
f 81/2/2 82/2/2 84/2/2
f 83/1/2 81/1/2 84/1/2
f 84/2/2 82/2/2 85/2/2
f 84/1/2 85/1/2 87/1/2
f 85/2/2 86/2/2 88/2/2
f 87/1/2 85/1/2 88/1/2
f 88/2/2 86/2/2 89/2/2
f 88/1/2 89/1/2 91/1/2
f 89/2/2 90/2/2 92/2/2
f 91/1/2 89/1/2 92/1/2
f 92/2/2 90/2/2 93/2/2
f 92/1/2 93/1/2 95/1/2
f 93/6/2 94/6/2 96/6/2
f 95/1/2 93/1/2 96/1/2
f 96/6/2 94/6/2 97/6/2
f 97/6/2 94/6/2 98/6/2
f 96/5/2 97/5/2 100/5/2
f 97/3/2 98/3/2 101/3/2
f 100/5/2 97/5/2 101/5/2
f 98/6/2 99/6/2 102/6/2
f 101/3/2 98/3/2 102/3/2
f 102/6/2 99/6/2 103/6/2
f 100/3/2 101/3/2 105/3/2
f 101/5/2 102/5/2 106/5/2
f 105/3/2 101/3/2 106/3/2
f 102/4/2 103/4/2 107/4/2
f 106/5/2 102/5/2 107/5/2
f 103/6/2 104/6/2 108/6/2
f 107/4/2 103/4/2 108/4/2
f 108/6/2 104/6/2 109/6/2
f 106/4/2 107/4/2 110/4/2
f 107/6/2 108/6/2 111/6/2
f 110/4/2 107/4/2 111/4/2
f 111/6/2 108/6/2 112/6/2
f 116/5/3 114/5/3 113/5/3
f 117/4/3 115/4/3 114/4/3
f 117/5/3 114/5/3 116/5/3
f 118/4/3 115/4/3 117/4/3
f 121/5/3 120/5/3 119/5/3
f 122/5/3 120/5/3 121/5/3
f 125/7/3 124/7/3 123/7/3
f 126/7/3 124/7/3 125/7/3
f 129/1/3 128/1/3 127/1/3
f 130/1/3 128/1/3 129/1/3
f 133/1/3 132/1/3 131/1/3
f 134/1/3 132/1/3 133/1/3
f 137/1/3 136/1/3 135/1/3
f 138/1/3 136/1/3 137/1/3
f 141/1/3 140/1/3 139/1/3
f 142/1/3 140/1/3 141/1/3
f 145/1/3 144/1/3 143/1/3
f 146/1/3 144/1/3 145/1/3
f 150/5/3 148/5/3 147/5/3
f 151/3/3 149/3/3 148/3/3
f 151/5/3 148/5/3 150/5/3
f 152/3/3 149/3/3 151/3/3
f 155/4/3 154/4/3 153/4/3
f 156/4/3 154/4/3 155/4/3
f 157/4/4 158/4/4 159/4/4
f 159/4/4 158/4/4 160/4/4
f 161/5/4 162/5/4 163/5/4
f 163/5/4 162/5/4 164/5/4
f 165/7/4 166/7/4 167/7/4
f 167/7/4 166/7/4 168/7/4
f 169/2/4 170/2/4 171/2/4
f 171/2/4 170/2/4 172/2/4
f 173/2/4 174/2/4 175/2/4
f 175/2/4 174/2/4 176/2/4
f 177/2/4 178/2/4 179/2/4
f 179/2/4 178/2/4 180/2/4
f 181/2/4 182/2/4 183/2/4
f 183/2/4 182/2/4 184/2/4
f 185/2/4 186/2/4 187/2/4
f 187/2/4 186/2/4 188/2/4
f 189/6/4 190/6/4 191/6/4
f 191/6/4 190/6/4 192/6/4
f 193/6/4 194/6/4 197/6/4
f 197/6/4 194/6/4 198/6/4
f 195/6/4 196/6/4 199/6/4
f 199/6/4 196/6/4 200/6/4
f 201/6/4 202/6/4 203/6/4
f 203/6/4 202/6/4 204/6/4
f 207/5/5 206/5/5 205/5/5
f 208/5/5 206/5/5 207/5/5
f 209/4/5 208/4/5 207/4/5
f 210/4/5 208/4/5 209/4/5
f 213/5/5 212/5/5 211/5/5
f 214/5/5 212/5/5 213/5/5
f 217/7/5 216/7/5 215/7/5
f 218/7/5 216/7/5 217/7/5
f 221/2/5 220/2/5 219/2/5
f 222/2/5 220/2/5 221/2/5
f 225/2/5 224/2/5 223/2/5
f 226/2/5 224/2/5 225/2/5
f 229/2/5 228/2/5 227/2/5
f 230/2/5 228/2/5 229/2/5
f 233/2/5 232/2/5 231/2/5
f 234/2/5 232/2/5 233/2/5
f 237/2/5 236/2/5 235/2/5
f 238/2/5 236/2/5 237/2/5
f 241/6/5 240/6/5 239/6/5
f 242/6/5 240/6/5 241/6/5
f 245/6/5 244/6/5 243/6/5
f 246/6/5 244/6/5 245/6/5
f 249/6/5 248/6/5 247/6/5
f 250/6/5 248/6/5 249/6/5
f 251/4/6 252/4/6 253/4/6
f 253/4/6 252/4/6 254/4/6
f 255/5/6 256/5/6 257/5/6
f 257/5/6 256/5/6 258/5/6
f 259/7/6 260/7/6 261/7/6
f 261/7/6 260/7/6 262/7/6
f 261/1/6 262/1/6 263/1/6
f 263/1/6 262/1/6 264/1/6
f 265/1/6 266/1/6 267/1/6
f 267/1/6 266/1/6 268/1/6
f 269/1/6 270/1/6 271/1/6
f 271/1/6 270/1/6 272/1/6
f 273/1/6 274/1/6 275/1/6
f 275/1/6 274/1/6 276/1/6
f 277/1/6 278/1/6 279/1/6
f 279/1/6 278/1/6 280/1/6
f 281/1/6 282/1/6 283/1/6
f 283/1/6 282/1/6 284/1/6
f 285/3/6 286/3/6 287/3/6
f 287/3/6 286/3/6 288/3/6
f 289/6/6 290/6/6 291/6/6
f 291/6/6 290/6/6 292/6/6
f 293/4/6 294/4/6 295/4/6
f 295/4/6 294/4/6 296/4/6
f 295/6/6 296/6/6 297/6/6
f 297/6/6 296/6/6 298/6/6
