# MagicaVoxel @ Ephtracy

# group
o 

# material
mtllib shelf.mtl
usemtl palette

# normals
vn -1 0 0
vn 1 0 0
vn 0 0 1
vn 0 0 -1
vn 0 -1 0
vn 0 1 0

# texcoords
vt 0.923828 0.5
vt 0.927734 0.5
vt 0.939453 0.5
vt 0.951172 0.5
vt 0.955078 0.5
vt 0.958984 0.5
vt 0.962891 0.5
vt 0.970703 0.5
vt 0.978516 0.5
vt 0.982422 0.5
vt 0.986328 0.5
vt 0.990234 0.5
vt 0.994141 0.5

# verts
v -0.8 0 2.23517e-08
v -0.8 0 -0.4
v -0.8 0 -0.8
v -0.8 3 2.23517e-08
v -0.8 3 -0.4
v -0.8 3 -0.8
v -0.3 0.4 -0.1
v -0.3 0.4 -0.2
v -0.3 0.6 -0.2
v -0.3 0.7 -0.1
v -0.3 0.7 -0.2
v -0.3 0.8 -0.1
v -0.3 0.8 -0.2
v -0.3 0.8 -0.6
v -0.3 0.9 -0.1
v -0.3 0.9 -0.6
v -0.3 2.2 -0.1
v -0.3 2.2 -0.2
v -0.3 2.4 -0.2
v -0.3 2.5 -0.1
v -0.3 2.5 -0.2
v -0.3 2.6 -0.1
v -0.3 2.6 -0.2
v -0.3 2.6 -0.6
v -0.3 2.7 -0.1
v -0.3 2.7 -0.6
v -0.1 1.3 -0.2
v -0.1 1.3 -0.3
v -0.1 1.4 -0.2
v -0.1 1.4 -0.3
v -0.1 1.5 -0.2
v -0.1 1.5 -0.3
v -0.1 1.6 -0.3
v -0.1 1.7 -0.2
v -0.1 1.7 -0.3
v -0.1 1.7 -0.6
v -0.1 1.8 -0.2
v -0.1 1.8 -0.6
v -0.1 1.9 -0.2
v -0.1 1.9 -0.4
v -0.1 1.9 -0.6
v 0.1 0.4 -0.1
v 0.1 0.4 -0.2
v 0.1 0.5 -0.1
v 0.1 0.5 -0.2
v 0.1 0.6 -0.1
v 0.1 0.6 -0.2
v 0.1 0.7 -0.2
v 0.1 0.8 -0.1
v 0.1 0.8 -0.2
v 0.1 0.8 -0.6
v 0.1 0.9 -0.1
v 0.1 0.9 -0.6
v 0.1 1 -0.1
v 0.1 1 -0.4
v 0.1 1 -0.6
v 0.1 2.2 -0.2
v 0.1 2.2 -0.3
v 0.1 2.4 -0.2
v 0.1 2.4 -0.3
v 0.1 2.5 -0.2
v 0.1 2.5 -0.3
v 0.3 1.3 -0.2
v 0.3 1.3 -0.3
v 0.3 1.5 -0.2
v 0.3 1.5 -0.3
v 0.3 1.6 -0.2
v 0.3 1.6 -0.3
v 0.3 2.2 -0.1
v 0.3 2.2 -0.2
v 0.3 2.4 -0.2
v 0.3 2.5 -0.1
v 0.3 2.5 -0.2
v 0.3 2.5 -0.6
v 0.3 2.6 -0.1
v 0.3 2.6 -0.6
v 0.3 2.7 -0.1
v 0.3 2.7 -0.6
v 0.5 0 2.23517e-08
v 0.5 0 -0.4
v 0.5 0 -0.8
v 0.5 0.2 2.23517e-08
v 0.5 0.2 -0.4
v 0.5 0.2 -0.8
v 0.5 0.4 2.23517e-08
v 0.5 0.4 -0.2
v 0.5 0.7 -0.2
v 0.5 0.8 -0.2
v 0.5 0.9 -0.2
v 0.5 0.9 -0.4
v 0.5 0.9 -0.6
v 0.5 1 2.23517e-08
v 0.5 1 -0.4
v 0.5 1 -0.6
v 0.5 1.3 2.23517e-08
v 0.5 1.3 -0.2
v 0.5 1.5 -0.2
v 0.5 1.6 -0.2
v 0.5 1.6 -0.4
v 0.5 1.6 -0.6
v 0.5 1.9 2.23517e-08
v 0.5 1.9 -0.4
v 0.5 1.9 -0.6
v 0.5 2.2 2.23517e-08
v 0.5 2.2 -0.1
v 0.5 2.5 -0.1
v 0.5 2.6 -0.1
v 0.5 2.7 -0.1
v 0.5 2.7 -0.4
v 0.5 2.7 -0.6
v 0.5 2.8 2.23517e-08
v 0.5 2.8 -0.4
v 0.5 2.8 -0.6
v -0.5 0 2.23517e-08
v -0.5 0 -0.4
v -0.5 0 -0.8
v -0.5 0.2 2.23517e-08
v -0.5 0.2 -0.4
v -0.5 0.2 -0.8
v -0.5 0.4 2.23517e-08
v -0.5 0.4 -0.2
v -0.5 0.6 -0.2
v -0.5 0.7 -0.2
v -0.5 0.8 -0.2
v -0.5 0.8 -0.4
v -0.5 0.8 -0.6
v -0.5 1 2.23517e-08
v -0.5 1 -0.4
v -0.5 1 -0.6
v -0.5 1.3 2.23517e-08
v -0.5 1.3 -0.2
v -0.5 1.6 -0.2
v -0.5 1.7 -0.2
v -0.5 1.8 -0.2
v -0.5 1.8 -0.4
v -0.5 1.8 -0.6
v -0.5 1.9 2.23517e-08
v -0.5 1.9 -0.4
v -0.5 1.9 -0.6
v -0.5 2.2 2.23517e-08
v -0.5 2.2 -0.2
v -0.5 2.4 -0.2
v -0.5 2.5 -0.2
v -0.5 2.6 -0.2
v -0.5 2.6 -0.4
v -0.5 2.6 -0.6
v -0.5 2.8 2.23517e-08
v -0.5 2.8 -0.4
v -0.5 2.8 -0.6
v -0.3 1.3 -0.2
v -0.3 1.3 -0.3
v -0.3 1.5 -0.3
v -0.3 1.6 -0.2
v -0.3 1.6 -0.3
v -0.3 1.7 -0.2
v -0.3 1.7 -0.3
v -0.3 1.7 -0.6
v -0.3 1.8 -0.2
v -0.3 1.8 -0.6
v -0.1 0.4 -0.1
v -0.1 0.4 -0.2
v -0.1 0.6 -0.2
v -0.1 0.7 -0.1
v -0.1 0.7 -0.2
v -0.1 0.8 -0.1
v -0.1 0.8 -0.2
v -0.1 0.8 -0.6
v -0.1 0.9 -0.1
v -0.1 0.9 -0.6
v -0.1 2.2 -0.1
v -0.1 2.2 -0.3
v -0.1 2.4 -0.3
v -0.1 2.5 -0.1
v -0.1 2.5 -0.3
v -0.1 2.6 -0.1
v -0.1 2.6 -0.3
v -0.1 2.6 -0.6
v -0.1 2.7 -0.1
v -0.1 2.7 -0.6
v 0.1 1.3 -0.2
v 0.1 1.3 -0.3
v 0.1 1.4 -0.2
v 0.1 1.4 -0.3
v 0.1 1.5 -0.2
v 0.1 1.5 -0.3
v 0.1 1.6 -0.3
v 0.1 1.7 -0.2
v 0.1 1.7 -0.3
v 0.1 1.8 -0.2
v 0.1 1.8 -0.3
v 0.1 1.8 -0.6
v 0.1 1.9 -0.2
v 0.1 1.9 -0.4
v 0.1 1.9 -0.6
v 0.1 2.5 -0.3
v 0.1 2.5 -0.6
v 0.1 2.6 -0.3
v 0.1 2.6 -0.6
v 0.3 0.4 -0.1
v 0.3 0.4 -0.2
v 0.3 0.5 -0.1
v 0.3 0.5 -0.2
v 0.3 0.6 -0.1
v 0.3 0.6 -0.2
v 0.3 0.7 -0.2
v 0.3 0.8 -0.1
v 0.3 0.8 -0.2
v 0.3 0.9 -0.1
v 0.3 0.9 -0.2
v 0.3 0.9 -0.6
v 0.3 1 -0.1
v 0.3 1 -0.4
v 0.3 1 -0.6
v 0.3 1.6 -0.3
v 0.3 1.6 -0.6
v 0.3 1.7 -0.3
v 0.3 1.7 -0.6
v 0.3 1.8 -0.3
v 0.3 1.8 -0.6
v 0.8 0 2.23517e-08
v 0.8 0 -0.4
v 0.8 0 -0.8
v 0.8 3 2.23517e-08
v 0.8 3 -0.4
v 0.8 3 -0.8
v -0.8 0 2.23517e-08
v -0.8 3 2.23517e-08
v -0.5 0 2.23517e-08
v -0.5 0.2 2.23517e-08
v -0.5 0.4 2.23517e-08
v -0.5 1 2.23517e-08
v -0.5 1.3 2.23517e-08
v -0.5 1.9 2.23517e-08
v -0.5 2.2 2.23517e-08
v -0.5 2.8 2.23517e-08
v 0.5 0 2.23517e-08
v 0.5 0.2 2.23517e-08
v 0.5 0.4 2.23517e-08
v 0.5 1 2.23517e-08
v 0.5 1.3 2.23517e-08
v 0.5 1.9 2.23517e-08
v 0.5 2.2 2.23517e-08
v 0.5 2.8 2.23517e-08
v 0.8 0 2.23517e-08
v 0.8 3 2.23517e-08
v -0.3 0.4 -0.1
v -0.3 0.7 -0.1
v -0.3 0.8 -0.1
v -0.3 0.9 -0.1
v -0.3 2.2 -0.1
v -0.3 2.5 -0.1
v -0.3 2.6 -0.1
v -0.3 2.7 -0.1
v -0.1 0.4 -0.1
v -0.1 0.7 -0.1
v -0.1 0.8 -0.1
v -0.1 0.9 -0.1
v -0.1 2.2 -0.1
v -0.1 2.5 -0.1
v -0.1 2.6 -0.1
v -0.1 2.7 -0.1
v 0.1 0.4 -0.1
v 0.1 0.5 -0.1
v 0.1 0.6 -0.1
v 0.1 0.8 -0.1
v 0.1 0.9 -0.1
v 0.1 1 -0.1
v 0.3 0.4 -0.1
v 0.3 0.5 -0.1
v 0.3 0.6 -0.1
v 0.3 0.8 -0.1
v 0.3 0.9 -0.1
v 0.3 1 -0.1
v 0.3 2.2 -0.1
v 0.3 2.5 -0.1
v 0.3 2.6 -0.1
v 0.3 2.7 -0.1
v 0.5 2.2 -0.1
v 0.5 2.5 -0.1
v 0.5 2.6 -0.1
v 0.5 2.7 -0.1
v -0.5 0.4 -0.2
v -0.5 0.6 -0.2
v -0.5 0.7 -0.2
v -0.5 0.8 -0.2
v -0.5 1.3 -0.2
v -0.5 1.6 -0.2
v -0.5 1.7 -0.2
v -0.5 1.8 -0.2
v -0.5 2.2 -0.2
v -0.5 2.4 -0.2
v -0.5 2.5 -0.2
v -0.5 2.6 -0.2
v -0.3 0.4 -0.2
v -0.3 0.6 -0.2
v -0.3 0.7 -0.2
v -0.3 0.8 -0.2
v -0.3 1.3 -0.2
v -0.3 1.6 -0.2
v -0.3 1.7 -0.2
v -0.3 1.8 -0.2
v -0.3 2.2 -0.2
v -0.3 2.4 -0.2
v -0.3 2.5 -0.2
v -0.3 2.6 -0.2
v -0.1 0.4 -0.2
v -0.1 0.6 -0.2
v -0.1 0.7 -0.2
v -0.1 0.8 -0.2
v -0.1 1.3 -0.2
v -0.1 1.4 -0.2
v -0.1 1.5 -0.2
v -0.1 1.7 -0.2
v -0.1 1.8 -0.2
v -0.1 1.9 -0.2
v 0.1 0.4 -0.2
v 0.1 0.5 -0.2
v 0.1 0.6 -0.2
v 0.1 0.7 -0.2
v 0.1 0.8 -0.2
v 0.1 1.3 -0.2
v 0.1 1.4 -0.2
v 0.1 1.5 -0.2
v 0.1 1.7 -0.2
v 0.1 1.8 -0.2
v 0.1 1.9 -0.2
v 0.1 2.2 -0.2
v 0.1 2.4 -0.2
v 0.1 2.5 -0.2
v 0.3 0.4 -0.2
v 0.3 0.5 -0.2
v 0.3 0.6 -0.2
v 0.3 0.7 -0.2
v 0.3 0.8 -0.2
v 0.3 0.9 -0.2
v 0.3 1.3 -0.2
v 0.3 1.5 -0.2
v 0.3 1.6 -0.2
v 0.3 2.2 -0.2
v 0.3 2.4 -0.2
v 0.3 2.5 -0.2
v 0.5 0.4 -0.2
v 0.5 0.7 -0.2
v 0.5 0.8 -0.2
v 0.5 0.9 -0.2
v 0.5 1.3 -0.2
v 0.5 1.5 -0.2
v 0.5 1.6 -0.2
v -0.3 1.3 -0.3
v -0.3 1.5 -0.3
v -0.3 1.6 -0.3
v -0.3 1.7 -0.3
v -0.1 1.3 -0.3
v -0.1 1.4 -0.3
v -0.1 1.5 -0.3
v -0.1 1.6 -0.3
v -0.1 1.7 -0.3
v -0.1 2.2 -0.3
v -0.1 2.4 -0.3
v -0.1 2.5 -0.3
v -0.1 2.6 -0.3
v 0.1 1.3 -0.3
v 0.1 1.4 -0.3
v 0.1 1.5 -0.3
v 0.1 1.6 -0.3
v 0.1 1.7 -0.3
v 0.1 1.8 -0.3
v 0.1 2.2 -0.3
v 0.1 2.4 -0.3
v 0.1 2.5 -0.3
v 0.1 2.6 -0.3
v 0.3 1.3 -0.3
v 0.3 1.5 -0.3
v 0.3 1.6 -0.3
v 0.3 1.7 -0.3
v 0.3 1.8 -0.3
v -0.5 0.8 -0.6
v -0.5 1 -0.6
v -0.5 1.8 -0.6
v -0.5 1.9 -0.6
v -0.5 2.6 -0.6
v -0.5 2.8 -0.6
v -0.3 0.8 -0.6
v -0.3 0.9 -0.6
v -0.3 1.7 -0.6
v -0.3 1.8 -0.6
v -0.3 2.6 -0.6
v -0.3 2.7 -0.6
v -0.1 0.8 -0.6
v -0.1 0.9 -0.6
v -0.1 1.7 -0.6
v -0.1 1.8 -0.6
v -0.1 1.9 -0.6
v -0.1 2.6 -0.6
v -0.1 2.7 -0.6
v 0.1 0.8 -0.6
v 0.1 0.9 -0.6
v 0.1 1 -0.6
v 0.1 1.8 -0.6
v 0.1 1.9 -0.6
v 0.1 2.5 -0.6
v 0.1 2.6 -0.6
v 0.3 0.9 -0.6
v 0.3 1 -0.6
v 0.3 1.6 -0.6
v 0.3 1.7 -0.6
v 0.3 1.8 -0.6
v 0.3 2.5 -0.6
v 0.3 2.6 -0.6
v 0.3 2.7 -0.6
v 0.5 0.9 -0.6
v 0.5 1 -0.6
v 0.5 1.6 -0.6
v 0.5 1.9 -0.6
v 0.5 2.7 -0.6
v 0.5 2.8 -0.6
v -0.8 0 -0.8
v -0.8 3 -0.8
v -0.5 0 -0.8
v -0.5 0.2 -0.8
v 0.5 0 -0.8
v 0.5 0.2 -0.8
v 0.8 0 -0.8
v 0.8 3 -0.8
v -0.8 0 2.23517e-08
v -0.5 0 2.23517e-08
v 0.5 0 2.23517e-08
v 0.8 0 2.23517e-08
v -0.8 0 -0.4
v -0.5 0 -0.4
v 0.5 0 -0.4
v 0.8 0 -0.4
v -0.8 0 -0.8
v -0.5 0 -0.8
v 0.5 0 -0.8
v 0.8 0 -0.8
v -0.5 0.2 2.23517e-08
v 0.5 0.2 2.23517e-08
v -0.5 0.2 -0.4
v 0.5 0.2 -0.4
v -0.5 0.2 -0.8
v 0.5 0.2 -0.8
v -0.5 1 2.23517e-08
v 0.5 1 2.23517e-08
v 0.1 1 -0.1
v 0.3 1 -0.1
v -0.5 1 -0.4
v 0.1 1 -0.4
v 0.3 1 -0.4
v 0.5 1 -0.4
v -0.5 1 -0.6
v 0.1 1 -0.6
v 0.3 1 -0.6
v 0.5 1 -0.6
v -0.5 1.9 2.23517e-08
v 0.5 1.9 2.23517e-08
v -0.1 1.9 -0.2
v 0.1 1.9 -0.2
v -0.5 1.9 -0.4
v -0.1 1.9 -0.4
v 0.1 1.9 -0.4
v 0.5 1.9 -0.4
v -0.5 1.9 -0.6
v -0.1 1.9 -0.6
v 0.1 1.9 -0.6
v 0.5 1.9 -0.6
v -0.5 2.8 2.23517e-08
v 0.5 2.8 2.23517e-08
v -0.5 2.8 -0.4
v 0.5 2.8 -0.4
v -0.5 2.8 -0.6
v 0.5 2.8 -0.6
v -0.5 0.4 2.23517e-08
v 0.5 0.4 2.23517e-08
v -0.3 0.4 -0.1
v -0.1 0.4 -0.1
v 0.1 0.4 -0.1
v 0.3 0.4 -0.1
v -0.5 0.4 -0.2
v -0.3 0.4 -0.2
v -0.1 0.4 -0.2
v 0.1 0.4 -0.2
v 0.3 0.4 -0.2
v 0.5 0.4 -0.2
v -0.5 0.8 -0.2
v -0.3 0.8 -0.2
v -0.1 0.8 -0.2
v 0.1 0.8 -0.2
v -0.5 0.8 -0.4
v -0.5 0.8 -0.6
v -0.3 0.8 -0.6
v -0.1 0.8 -0.6
v 0.1 0.8 -0.6
v -0.3 0.9 -0.1
v -0.1 0.9 -0.1
v 0.3 0.9 -0.2
v 0.5 0.9 -0.2
v 0.5 0.9 -0.4
v -0.3 0.9 -0.6
v -0.1 0.9 -0.6
v 0.3 0.9 -0.6
v 0.5 0.9 -0.6
v -0.5 1.3 2.23517e-08
v 0.5 1.3 2.23517e-08
v -0.5 1.3 -0.2
v -0.3 1.3 -0.2
v -0.1 1.3 -0.2
v 0.1 1.3 -0.2
v 0.3 1.3 -0.2
v 0.5 1.3 -0.2
v -0.3 1.3 -0.3
v -0.1 1.3 -0.3
v 0.1 1.3 -0.3
v 0.3 1.3 -0.3
v 0.3 1.6 -0.2
v 0.5 1.6 -0.2
v 0.3 1.6 -0.3
v 0.5 1.6 -0.4
v 0.3 1.6 -0.6
v 0.5 1.6 -0.6
v -0.3 1.7 -0.3
v -0.1 1.7 -0.3
v -0.3 1.7 -0.6
v -0.1 1.7 -0.6
v -0.5 1.8 -0.2
v -0.3 1.8 -0.2
v 0.1 1.8 -0.3
v 0.3 1.8 -0.3
v -0.5 1.8 -0.4
v -0.5 1.8 -0.6
v -0.3 1.8 -0.6
v 0.1 1.8 -0.6
v 0.3 1.8 -0.6
v -0.5 2.2 2.23517e-08
v 0.5 2.2 2.23517e-08
v -0.3 2.2 -0.1
v -0.1 2.2 -0.1
v 0.3 2.2 -0.1
v 0.5 2.2 -0.1
v -0.5 2.2 -0.2
v -0.3 2.2 -0.2
v 0.1 2.2 -0.2
v 0.3 2.2 -0.2
v -0.1 2.2 -0.3
v 0.1 2.2 -0.3
v 0.1 2.5 -0.2
v 0.3 2.5 -0.2
v 0.1 2.5 -0.3
v 0.1 2.5 -0.6
v 0.3 2.5 -0.6
v -0.5 2.6 -0.2
v -0.3 2.6 -0.2
v -0.1 2.6 -0.3
v 0.1 2.6 -0.3
v -0.5 2.6 -0.4
v -0.5 2.6 -0.6
v -0.3 2.6 -0.6
v -0.1 2.6 -0.6
v 0.1 2.6 -0.6
v -0.3 2.7 -0.1
v -0.1 2.7 -0.1
v 0.3 2.7 -0.1
v 0.5 2.7 -0.1
v 0.5 2.7 -0.4
v -0.3 2.7 -0.6
v -0.1 2.7 -0.6
v 0.3 2.7 -0.6
v 0.5 2.7 -0.6
v -0.8 3 2.23517e-08
v 0.8 3 2.23517e-08
v -0.8 3 -0.4
v 0.8 3 -0.4
v -0.8 3 -0.8
v 0.8 3 -0.8

# faces
f 4/8/1 2/8/1 1/8/1
f 5/3/1 3/3/1 2/3/1
f 5/8/1 2/8/1 4/8/1
f 6/3/1 3/3/1 5/3/1
f 9/12/1 8/12/1 7/12/1
f 10/12/1 9/12/1 7/12/1
f 11/12/1 9/12/1 10/12/1
f 12/13/1 11/13/1 10/13/1
f 13/13/1 11/13/1 12/13/1
f 15/12/1 13/12/1 12/12/1
f 15/12/1 14/12/1 13/12/1
f 16/12/1 14/12/1 15/12/1
f 19/5/1 18/5/1 17/5/1
f 20/5/1 19/5/1 17/5/1
f 21/5/1 19/5/1 20/5/1
f 22/1/1 21/1/1 20/1/1
f 23/1/1 21/1/1 22/1/1
f 25/5/1 23/5/1 22/5/1
f 25/5/1 24/5/1 23/5/1
f 26/5/1 24/5/1 25/5/1
f 29/6/1 28/6/1 27/6/1
f 30/6/1 28/6/1 29/6/1
f 31/2/1 30/2/1 29/2/1
f 32/2/1 30/2/1 31/2/1
f 33/6/1 32/6/1 31/6/1
f 34/6/1 33/6/1 31/6/1
f 35/6/1 33/6/1 34/6/1
f 37/2/1 35/2/1 34/2/1
f 37/2/1 36/2/1 35/2/1
f 38/2/1 36/2/1 37/2/1
f 39/6/1 38/6/1 37/6/1
f 40/6/1 38/6/1 39/6/1
f 41/6/1 38/6/1 40/6/1
f 44/5/1 43/5/1 42/5/1
f 45/5/1 43/5/1 44/5/1
f 46/1/1 45/1/1 44/1/1
f 47/1/1 45/1/1 46/1/1
f 48/5/1 47/5/1 46/5/1
f 49/5/1 48/5/1 46/5/1
f 50/5/1 48/5/1 49/5/1
f 52/1/1 50/1/1 49/1/1
f 52/1/1 51/1/1 50/1/1
f 53/1/1 51/1/1 52/1/1
f 54/5/1 53/5/1 52/5/1
f 55/5/1 53/5/1 54/5/1
f 56/5/1 53/5/1 55/5/1
f 59/11/1 58/11/1 57/11/1
f 60/11/1 58/11/1 59/11/1
f 61/7/1 60/7/1 59/7/1
f 62/7/1 60/7/1 61/7/1
f 65/10/1 64/10/1 63/10/1
f 66/10/1 64/10/1 65/10/1
f 67/4/1 66/4/1 65/4/1
f 68/4/1 66/4/1 67/4/1
f 71/6/1 70/6/1 69/6/1
f 72/6/1 71/6/1 69/6/1
f 73/6/1 71/6/1 72/6/1
f 75/2/1 73/2/1 72/2/1
f 75/2/1 74/2/1 73/2/1
f 76/2/1 74/2/1 75/2/1
f 77/6/1 76/6/1 75/6/1
f 78/6/1 76/6/1 77/6/1
f 82/8/1 80/8/1 79/8/1
f 83/3/1 81/3/1 80/3/1
f 83/8/1 80/8/1 82/8/1
f 84/3/1 81/3/1 83/3/1
f 87/8/1 86/8/1 85/8/1
f 88/8/1 87/8/1 85/8/1
f 89/8/1 88/8/1 85/8/1
f 92/8/1 89/8/1 85/8/1
f 92/8/1 90/8/1 89/8/1
f 93/3/1 91/3/1 90/3/1
f 93/8/1 90/8/1 92/8/1
f 94/3/1 91/3/1 93/3/1
f 97/8/1 96/8/1 95/8/1
f 98/8/1 97/8/1 95/8/1
f 101/8/1 98/8/1 95/8/1
f 101/8/1 99/8/1 98/8/1
f 102/3/1 100/3/1 99/3/1
f 102/8/1 99/8/1 101/8/1
f 103/3/1 100/3/1 102/3/1
f 106/8/1 105/8/1 104/8/1
f 107/8/1 106/8/1 104/8/1
f 108/8/1 107/8/1 104/8/1
f 111/8/1 108/8/1 104/8/1
f 111/8/1 109/8/1 108/8/1
f 112/3/1 110/3/1 109/3/1
f 112/8/1 109/8/1 111/8/1
f 113/3/1 110/3/1 112/3/1
f 114/8/2 115/8/2 117/8/2
f 115/3/2 116/3/2 118/3/2
f 117/8/2 115/8/2 118/8/2
f 118/3/2 116/3/2 119/3/2
f 120/8/2 121/8/2 122/8/2
f 120/8/2 122/8/2 123/8/2
f 120/8/2 123/8/2 124/8/2
f 120/8/2 124/8/2 127/8/2
f 124/8/2 125/8/2 127/8/2
f 125/3/2 126/3/2 128/3/2
f 127/8/2 125/8/2 128/8/2
f 128/3/2 126/3/2 129/3/2
f 130/8/2 131/8/2 132/8/2
f 130/8/2 132/8/2 133/8/2
f 130/8/2 133/8/2 134/8/2
f 130/8/2 134/8/2 137/8/2
f 134/8/2 135/8/2 137/8/2
f 135/3/2 136/3/2 138/3/2
f 137/8/2 135/8/2 138/8/2
f 138/3/2 136/3/2 139/3/2
f 140/8/2 141/8/2 142/8/2
f 140/8/2 142/8/2 143/8/2
f 140/8/2 143/8/2 144/8/2
f 140/8/2 144/8/2 147/8/2
f 144/8/2 145/8/2 147/8/2
f 145/3/2 146/3/2 148/3/2
f 147/8/2 145/8/2 148/8/2
f 148/3/2 146/3/2 149/3/2
f 150/12/2 151/12/2 152/12/2
f 150/12/2 152/12/2 153/12/2
f 153/12/2 152/12/2 154/12/2
f 153/13/2 154/13/2 155/13/2
f 155/13/2 154/13/2 156/13/2
f 155/12/2 156/12/2 158/12/2
f 156/12/2 157/12/2 158/12/2
f 158/12/2 157/12/2 159/12/2
f 160/12/2 161/12/2 162/12/2
f 160/12/2 162/12/2 163/12/2
f 163/12/2 162/12/2 164/12/2
f 163/13/2 164/13/2 165/13/2
f 165/13/2 164/13/2 166/13/2
f 165/12/2 166/12/2 168/12/2
f 166/12/2 167/12/2 168/12/2
f 168/12/2 167/12/2 169/12/2
f 170/5/2 171/5/2 172/5/2
f 170/5/2 172/5/2 173/5/2
f 173/5/2 172/5/2 174/5/2
f 173/1/2 174/1/2 175/1/2
f 175/1/2 174/1/2 176/1/2
f 175/5/2 176/5/2 178/5/2
f 176/5/2 177/5/2 178/5/2
f 178/5/2 177/5/2 179/5/2
f 180/6/2 181/6/2 182/6/2
f 182/6/2 181/6/2 183/6/2
f 182/2/2 183/2/2 184/2/2
f 184/2/2 183/2/2 185/2/2
f 184/6/2 185/6/2 186/6/2
f 184/6/2 186/6/2 187/6/2
f 187/6/2 186/6/2 188/6/2
f 187/2/2 188/2/2 189/2/2
f 189/2/2 188/2/2 190/2/2
f 189/6/2 190/6/2 192/6/2
f 190/6/2 191/6/2 192/6/2
f 192/6/2 191/6/2 193/6/2
f 193/6/2 191/6/2 194/6/2
f 195/12/2 196/12/2 197/12/2
f 197/12/2 196/12/2 198/12/2
f 199/5/2 200/5/2 201/5/2
f 201/5/2 200/5/2 202/5/2
f 201/1/2 202/1/2 203/1/2
f 203/1/2 202/1/2 204/1/2
f 203/5/2 204/5/2 205/5/2
f 203/5/2 205/5/2 206/5/2
f 206/5/2 205/5/2 207/5/2
f 206/1/2 207/1/2 208/1/2
f 208/1/2 207/1/2 209/1/2
f 208/5/2 209/5/2 211/5/2
f 209/5/2 210/5/2 211/5/2
f 211/5/2 210/5/2 212/5/2
f 212/5/2 210/5/2 213/5/2
f 214/13/2 215/13/2 216/13/2
f 216/13/2 215/13/2 217/13/2
f 216/12/2 217/12/2 218/12/2
f 218/12/2 217/12/2 219/12/2
f 220/8/2 221/8/2 223/8/2
f 221/3/2 222/3/2 224/3/2
f 223/8/2 221/8/2 224/8/2
f 224/3/2 222/3/2 225/3/2
f 228/8/3 227/8/3 226/8/3
f 229/8/3 227/8/3 228/8/3
f 230/8/3 227/8/3 229/8/3
f 231/8/3 227/8/3 230/8/3
f 232/8/3 227/8/3 231/8/3
f 233/8/3 227/8/3 232/8/3
f 234/8/3 227/8/3 233/8/3
f 235/8/3 227/8/3 234/8/3
f 237/8/3 230/8/3 229/8/3
f 238/8/3 230/8/3 237/8/3
f 239/8/3 232/8/3 231/8/3
f 240/8/3 232/8/3 239/8/3
f 241/8/3 234/8/3 233/8/3
f 242/8/3 234/8/3 241/8/3
f 243/8/3 227/8/3 235/8/3
f 244/8/3 242/8/3 241/8/3
f 244/8/3 243/8/3 242/8/3
f 244/8/3 238/8/3 237/8/3
f 244/8/3 240/8/3 239/8/3
f 244/8/3 241/8/3 240/8/3
f 244/8/3 237/8/3 236/8/3
f 244/8/3 239/8/3 238/8/3
f 245/8/3 227/8/3 243/8/3
f 245/8/3 243/8/3 244/8/3
f 254/12/3 247/12/3 246/12/3
f 255/13/3 248/13/3 247/13/3
f 255/12/3 247/12/3 254/12/3
f 256/12/3 249/12/3 248/12/3
f 256/13/3 248/13/3 255/13/3
f 257/12/3 249/12/3 256/12/3
f 258/5/3 251/5/3 250/5/3
f 259/1/3 252/1/3 251/1/3
f 259/5/3 251/5/3 258/5/3
f 260/5/3 253/5/3 252/5/3
f 260/1/3 252/1/3 259/1/3
f 261/5/3 253/5/3 260/5/3
f 268/5/3 263/5/3 262/5/3
f 269/1/3 264/1/3 263/1/3
f 269/5/3 263/5/3 268/5/3
f 270/5/3 265/5/3 264/5/3
f 270/1/3 264/1/3 269/1/3
f 271/1/3 266/1/3 265/1/3
f 271/5/3 265/5/3 270/5/3
f 272/5/3 267/5/3 266/5/3
f 272/1/3 266/1/3 271/1/3
f 273/5/3 267/5/3 272/5/3
f 278/6/3 275/6/3 274/6/3
f 279/2/3 276/2/3 275/2/3
f 279/6/3 275/6/3 278/6/3
f 280/6/3 277/6/3 276/6/3
f 280/2/3 276/2/3 279/2/3
f 281/6/3 277/6/3 280/6/3
f 294/6/3 283/6/3 282/6/3
f 295/2/3 284/2/3 283/2/3
f 295/6/3 283/6/3 294/6/3
f 296/6/3 285/6/3 284/6/3
f 296/2/3 284/2/3 295/2/3
f 297/6/3 285/6/3 296/6/3
f 298/12/3 287/12/3 286/12/3
f 299/13/3 288/13/3 287/13/3
f 299/12/3 287/12/3 298/12/3
f 300/12/3 289/12/3 288/12/3
f 300/13/3 288/13/3 299/13/3
f 301/12/3 289/12/3 300/12/3
f 302/10/3 291/10/3 290/10/3
f 303/4/3 292/4/3 291/4/3
f 303/10/3 291/10/3 302/10/3
f 304/10/3 293/10/3 292/10/3
f 304/4/3 292/4/3 303/4/3
f 305/10/3 293/10/3 304/10/3
f 316/10/3 307/10/3 306/10/3
f 317/10/3 307/10/3 316/10/3
f 318/4/3 308/4/3 307/4/3
f 318/10/3 307/10/3 317/10/3
f 319/10/3 309/10/3 308/10/3
f 319/4/3 308/4/3 318/4/3
f 320/10/3 309/10/3 319/10/3
f 321/6/3 311/6/3 310/6/3
f 322/2/3 312/2/3 311/2/3
f 322/6/3 311/6/3 321/6/3
f 323/6/3 313/6/3 312/6/3
f 323/2/3 312/2/3 322/2/3
f 324/2/3 314/2/3 313/2/3
f 324/6/3 313/6/3 323/6/3
f 325/6/3 315/6/3 314/6/3
f 325/2/3 314/2/3 324/2/3
f 326/6/3 315/6/3 325/6/3
f 339/11/3 328/11/3 327/11/3
f 340/7/3 329/7/3 328/7/3
f 340/11/3 328/11/3 339/11/3
f 341/7/3 329/7/3 340/7/3
f 342/11/3 331/11/3 330/11/3
f 342/11/3 332/11/3 331/11/3
f 342/11/3 333/11/3 332/11/3
f 343/7/3 334/7/3 333/7/3
f 343/11/3 333/11/3 342/11/3
f 344/11/3 335/11/3 334/11/3
f 344/7/3 334/7/3 343/7/3
f 345/11/3 335/11/3 344/11/3
f 346/10/3 337/10/3 336/10/3
f 347/4/3 338/4/3 337/4/3
f 347/10/3 337/10/3 346/10/3
f 348/4/3 338/4/3 347/4/3
f 353/11/3 350/11/3 349/11/3
f 354/11/3 350/11/3 353/11/3
f 355/7/3 351/7/3 350/7/3
f 355/11/3 350/11/3 354/11/3
f 356/11/3 352/11/3 351/11/3
f 356/7/3 351/7/3 355/7/3
f 357/11/3 352/11/3 356/11/3
f 368/12/3 359/12/3 358/12/3
f 369/13/3 360/13/3 359/13/3
f 369/12/3 359/12/3 368/12/3
f 370/12/3 361/12/3 360/12/3
f 370/13/3 360/13/3 369/13/3
f 371/12/3 361/12/3 370/12/3
f 372/12/3 363/12/3 362/12/3
f 372/12/3 364/12/3 363/12/3
f 372/12/3 365/12/3 364/12/3
f 373/12/3 365/12/3 372/12/3
f 374/13/3 366/13/3 365/13/3
f 374/12/3 365/12/3 373/12/3
f 375/12/3 367/12/3 366/12/3
f 375/13/3 366/13/3 374/13/3
f 376/12/3 367/12/3 375/12/3
f 383/3/3 378/3/3 377/3/3
f 384/3/3 378/3/3 383/3/3
f 386/3/3 380/3/3 379/3/3
f 387/3/3 382/3/3 381/3/3
f 388/3/3 382/3/3 387/3/3
f 390/3/3 378/3/3 384/3/3
f 391/3/3 386/3/3 385/3/3
f 392/3/3 380/3/3 386/3/3
f 392/3/3 386/3/3 391/3/3
f 393/3/3 380/3/3 392/3/3
f 395/3/3 382/3/3 388/3/3
f 396/3/3 390/3/3 389/3/3
f 397/3/3 378/3/3 390/3/3
f 397/3/3 390/3/3 396/3/3
f 398/3/3 378/3/3 397/3/3
f 402/3/3 395/3/3 394/3/3
f 407/3/3 400/3/3 399/3/3
f 408/3/3 402/3/3 401/3/3
f 409/3/3 395/3/3 402/3/3
f 409/3/3 402/3/3 408/3/3
f 410/3/3 382/3/3 395/3/3
f 410/3/3 395/3/3 409/3/3
f 411/3/3 404/3/3 403/3/3
f 412/3/3 404/3/3 411/3/3
f 413/3/3 406/3/3 405/3/3
f 413/3/3 407/3/3 406/3/3
f 414/3/3 400/3/3 407/3/3
f 414/3/3 407/3/3 413/3/3
f 415/3/3 382/3/3 410/3/3
f 416/3/3 382/3/3 415/3/3
f 417/3/4 418/3/4 419/3/4
f 419/3/4 418/3/4 420/3/4
f 420/3/4 418/3/4 422/3/4
f 421/3/4 422/3/4 423/3/4
f 422/3/4 418/3/4 424/3/4
f 423/3/4 422/3/4 424/3/4
f 429/8/5 426/8/5 425/8/5
f 430/8/5 426/8/5 429/8/5
f 431/8/5 428/8/5 427/8/5
f 432/8/5 428/8/5 431/8/5
f 433/3/5 430/3/5 429/3/5
f 434/3/5 430/3/5 433/3/5
f 435/3/5 432/3/5 431/3/5
f 436/3/5 432/3/5 435/3/5
f 439/8/5 438/8/5 437/8/5
f 440/8/5 438/8/5 439/8/5
f 441/3/5 440/3/5 439/3/5
f 442/3/5 440/3/5 441/3/5
f 445/8/5 444/8/5 443/8/5
f 446/8/5 444/8/5 445/8/5
f 447/8/5 445/8/5 443/8/5
f 448/8/5 445/8/5 447/8/5
f 449/8/5 444/8/5 446/8/5
f 450/8/5 444/8/5 449/8/5
f 451/3/5 448/3/5 447/3/5
f 452/3/5 448/3/5 451/3/5
f 453/3/5 450/3/5 449/3/5
f 454/3/5 450/3/5 453/3/5
f 457/8/5 456/8/5 455/8/5
f 458/8/5 456/8/5 457/8/5
f 459/8/5 457/8/5 455/8/5
f 460/8/5 457/8/5 459/8/5
f 461/8/5 456/8/5 458/8/5
f 462/8/5 456/8/5 461/8/5
f 463/3/5 460/3/5 459/3/5
f 464/3/5 460/3/5 463/3/5
f 465/3/5 462/3/5 461/3/5
f 466/3/5 462/3/5 465/3/5
f 469/8/5 468/8/5 467/8/5
f 470/8/5 468/8/5 469/8/5
f 471/3/5 470/3/5 469/3/5
f 472/3/5 470/3/5 471/3/5
f 473/8/6 474/8/6 475/8/6
f 475/8/6 474/8/6 476/8/6
f 476/8/6 474/8/6 477/8/6
f 477/8/6 474/8/6 478/8/6
f 473/8/6 475/8/6 479/8/6
f 479/8/6 475/8/6 480/8/6
f 476/8/6 477/8/6 481/8/6
f 481/8/6 477/8/6 482/8/6
f 478/8/6 474/8/6 483/8/6
f 483/8/6 474/8/6 484/8/6
f 485/6/6 486/6/6 489/6/6
f 489/6/6 486/6/6 490/6/6
f 490/6/6 486/6/6 491/6/6
f 487/10/6 488/10/6 492/10/6
f 492/10/6 488/10/6 493/10/6
f 496/11/6 497/11/6 498/11/6
f 494/12/6 495/12/6 499/12/6
f 499/12/6 495/12/6 500/12/6
f 496/11/6 498/11/6 501/11/6
f 501/11/6 498/11/6 502/11/6
f 503/8/6 504/8/6 505/8/6
f 505/8/6 504/8/6 506/8/6
f 506/8/6 504/8/6 507/8/6
f 507/8/6 504/8/6 508/8/6
f 508/8/6 504/8/6 509/8/6
f 509/8/6 504/8/6 510/8/6
f 506/8/6 507/8/6 511/8/6
f 511/8/6 507/8/6 512/8/6
f 508/8/6 509/8/6 513/8/6
f 513/8/6 509/8/6 514/8/6
f 515/4/6 516/4/6 517/4/6
f 517/4/6 516/4/6 518/4/6
f 517/4/6 518/4/6 519/4/6
f 519/4/6 518/4/6 520/4/6
f 521/11/6 522/11/6 523/11/6
f 523/11/6 522/11/6 524/11/6
f 525/12/6 526/12/6 529/12/6
f 529/12/6 526/12/6 530/12/6
f 530/12/6 526/12/6 531/12/6
f 527/12/6 528/12/6 532/12/6
f 532/12/6 528/12/6 533/12/6
f 534/8/6 535/8/6 536/8/6
f 536/8/6 535/8/6 537/8/6
f 537/8/6 535/8/6 538/8/6
f 538/8/6 535/8/6 539/8/6
f 534/8/6 536/8/6 540/8/6
f 540/8/6 536/8/6 541/8/6
f 537/8/6 538/8/6 542/8/6
f 542/8/6 538/8/6 543/8/6
f 537/8/6 542/8/6 544/8/6
f 544/8/6 542/8/6 545/8/6
f 546/7/6 547/7/6 548/7/6
f 548/7/6 547/7/6 549/7/6
f 549/7/6 547/7/6 550/7/6
f 551/10/6 552/10/6 555/10/6
f 555/10/6 552/10/6 556/10/6
f 556/10/6 552/10/6 557/10/6
f 553/12/6 554/12/6 558/12/6
f 558/12/6 554/12/6 559/12/6
f 562/6/6 563/6/6 564/6/6
f 560/5/6 561/5/6 565/5/6
f 565/5/6 561/5/6 566/5/6
f 562/6/6 564/6/6 567/6/6
f 567/6/6 564/6/6 568/6/6
f 569/8/6 570/8/6 571/8/6
f 571/8/6 570/8/6 572/8/6
f 571/3/6 572/3/6 573/3/6
f 573/3/6 572/3/6 574/3/6
