# MagicaVoxel @ Ephtracy

# group
o 

# material
mtllib Axe.mtl
usemtl palette

# normals
vn -1 0 0
vn 1 0 0
vn 0 0 1
vn 0 0 -1
vn 0 -1 0
vn 0 1 0

# texcoords
vt 0.181641 0.5
vt 0.978516 0.5

# verts
v -0.2 1.5 4.47035e-08
v -0.2 1.5 -0.1
v -0.2 1.7 4.47035e-08
v -0.2 1.7 -0.1
v -0.0999999 -0.8 4.47035e-08
v -0.0999999 -0.8 -0.1
v -0.0999999 1.5 4.47035e-08
v -0.0999999 1.5 -0.1
v -0.0999999 1.7 4.47035e-08
v -0.0999999 1.7 -0.1
v -0.0999999 1.8 4.47035e-08
v -0.0999999 1.8 -0.1
v -0.0999999 2 4.47035e-08
v -0.0999999 2 -0.1
v 5.96046e-08 1.5 0.1
v 5.96046e-08 1.5 4.47035e-08
v 5.96046e-08 1.5 -0.1
v 5.96046e-08 1.5 -0.2
v 5.96046e-08 1.7 0.1
v 5.96046e-08 1.7 4.47035e-08
v 5.96046e-08 1.7 -0.1
v 5.96046e-08 1.7 -0.2
v 0.1 -0.8 4.47035e-08
v 0.1 -0.8 -0.1
v 0.1 1.4 4.47035e-08
v 0.1 1.4 -0.1
v 0.1 1.6 0.1
v 0.1 1.6 4.47035e-08
v 0.1 1.6 -0.1
v 0.1 1.6 -0.2
v 0.1 1.7 0.1
v 0.1 1.7 4.47035e-08
v 0.1 1.7 -0.1
v 0.1 1.7 -0.2
v 0.1 1.8 4.47035e-08
v 0.1 1.8 -0.1
v 0.1 2 4.47035e-08
v 0.1 2 -0.1
v 0.2 1.5 0.1
v 0.2 1.5 4.47035e-08
v 0.2 1.5 -0.1
v 0.2 1.5 -0.2
v 0.2 1.6 0.1
v 0.2 1.6 4.47035e-08
v 0.2 1.6 -0.1
v 0.2 1.6 -0.2
v 0.3 1.7 4.47035e-08
v 0.3 1.7 -0.1
v 0.3 1.8 4.47035e-08
v 0.3 1.8 -0.1
v 0.4 1.6 4.47035e-08
v 0.4 1.6 -0.1
v 0.4 1.7 4.47035e-08
v 0.4 1.7 -0.1
v 0.6 1.5 4.47035e-08
v 0.6 1.5 -0.1
v 0.6 1.6 4.47035e-08
v 0.6 1.6 -0.1
v 0.7 1.4 4.47035e-08
v 0.7 1.4 -0.1
v 0.7 1.5 4.47035e-08
v 0.7 1.5 -0.1
v 5.96046e-08 1.5 0.1
v 5.96046e-08 1.7 0.1
v 0.1 1.6 0.1
v 0.1 1.7 0.1
v 0.2 1.5 0.1
v 0.2 1.6 0.1
v -0.2 1.5 4.47035e-08
v -0.2 1.7 4.47035e-08
v -0.0999999 -0.8 4.47035e-08
v -0.0999999 1.5 4.47035e-08
v -0.0999999 1.7 4.47035e-08
v -0.0999999 1.8 4.47035e-08
v -0.0999999 2 4.47035e-08
v 5.96046e-08 1.4 4.47035e-08
v 5.96046e-08 1.5 4.47035e-08
v 5.96046e-08 1.7 4.47035e-08
v 0.1 -0.8 4.47035e-08
v 0.1 1.4 4.47035e-08
v 0.1 1.6 4.47035e-08
v 0.1 1.7 4.47035e-08
v 0.1 1.8 4.47035e-08
v 0.1 2 4.47035e-08
v 0.2 1.5 4.47035e-08
v 0.2 1.6 4.47035e-08
v 0.3 1.7 4.47035e-08
v 0.3 1.8 4.47035e-08
v 0.4 1.6 4.47035e-08
v 0.4 1.7 4.47035e-08
v 0.6 1.5 4.47035e-08
v 0.6 1.6 4.47035e-08
v 0.7 1.4 4.47035e-08
v 0.7 1.5 4.47035e-08
v -0.2 1.5 -0.1
v -0.2 1.7 -0.1
v -0.0999999 -0.8 -0.1
v -0.0999999 1.5 -0.1
v -0.0999999 1.7 -0.1
v -0.0999999 1.8 -0.1
v -0.0999999 2 -0.1
v 5.96046e-08 1.4 -0.1
v 5.96046e-08 1.5 -0.1
v 5.96046e-08 1.7 -0.1
v 0.1 -0.8 -0.1
v 0.1 1.4 -0.1
v 0.1 1.6 -0.1
v 0.1 1.7 -0.1
v 0.1 1.8 -0.1
v 0.1 2 -0.1
v 0.2 1.5 -0.1
v 0.2 1.6 -0.1
v 0.3 1.7 -0.1
v 0.3 1.8 -0.1
v 0.4 1.6 -0.1
v 0.4 1.7 -0.1
v 0.6 1.5 -0.1
v 0.6 1.6 -0.1
v 0.7 1.4 -0.1
v 0.7 1.5 -0.1
v 5.96046e-08 1.5 -0.2
v 5.96046e-08 1.7 -0.2
v 0.1 1.6 -0.2
v 0.1 1.7 -0.2
v 0.2 1.5 -0.2
v 0.2 1.6 -0.2
v -0.0999999 -0.8 4.47035e-08
v 0.1 -0.8 4.47035e-08
v -0.0999999 -0.8 -0.1
v 0.1 -0.8 -0.1
v 0.1 1.4 4.47035e-08
v 0.7 1.4 4.47035e-08
v 0.1 1.4 -0.1
v 0.7 1.4 -0.1
v 5.96046e-08 1.5 0.1
v 0.2 1.5 0.1
v -0.2 1.5 4.47035e-08
v -0.0999999 1.5 4.47035e-08
v 5.96046e-08 1.5 4.47035e-08
v 0.2 1.5 4.47035e-08
v -0.2 1.5 -0.1
v -0.0999999 1.5 -0.1
v 5.96046e-08 1.5 -0.1
v 0.2 1.5 -0.1
v 5.96046e-08 1.5 -0.2
v 0.2 1.5 -0.2
v 0.6 1.5 4.47035e-08
v 0.7 1.5 4.47035e-08
v 0.6 1.5 -0.1
v 0.7 1.5 -0.1
v 0.1 1.6 0.1
v 0.2 1.6 0.1
v 0.1 1.6 4.47035e-08
v 0.2 1.6 4.47035e-08
v 0.4 1.6 4.47035e-08
v 0.6 1.6 4.47035e-08
v 0.1 1.6 -0.1
v 0.2 1.6 -0.1
v 0.4 1.6 -0.1
v 0.6 1.6 -0.1
v 0.1 1.6 -0.2
v 0.2 1.6 -0.2
v 5.96046e-08 1.7 0.1
v 0.1 1.7 0.1
v -0.2 1.7 4.47035e-08
v -0.0999999 1.7 4.47035e-08
v 5.96046e-08 1.7 4.47035e-08
v 0.1 1.7 4.47035e-08
v 0.3 1.7 4.47035e-08
v 0.4 1.7 4.47035e-08
v -0.2 1.7 -0.1
v -0.0999999 1.7 -0.1
v 5.96046e-08 1.7 -0.1
v 0.1 1.7 -0.1
v 0.3 1.7 -0.1
v 0.4 1.7 -0.1
v 5.96046e-08 1.7 -0.2
v 0.1 1.7 -0.2
v 0.1 1.8 4.47035e-08
v 0.3 1.8 4.47035e-08
v 0.1 1.8 -0.1
v 0.3 1.8 -0.1
v -0.0999999 2 4.47035e-08
v 0.1 2 4.47035e-08
v -0.0999999 2 -0.1
v 0.1 2 -0.1

# faces
f 3/2/1 2/2/1 1/2/1
f 4/2/1 2/2/1 3/2/1
f 7/1/1 6/1/1 5/1/1
f 8/1/1 6/1/1 7/1/1
f 11/2/1 10/2/1 9/2/1
f 12/2/1 10/2/1 11/2/1
f 13/1/1 12/1/1 11/1/1
f 14/1/1 12/1/1 13/1/1
f 19/2/1 16/2/1 15/2/1
f 20/2/1 16/2/1 19/2/1
f 21/2/1 18/2/1 17/2/1
f 22/2/1 18/2/1 21/2/1
f 23/1/2 24/1/2 25/1/2
f 25/1/2 24/1/2 26/1/2
f 27/2/2 28/2/2 31/2/2
f 31/2/2 28/2/2 32/2/2
f 29/2/2 30/2/2 33/2/2
f 33/2/2 30/2/2 34/2/2
f 35/1/2 36/1/2 37/1/2
f 37/1/2 36/1/2 38/1/2
f 39/2/2 40/2/2 43/2/2
f 43/2/2 40/2/2 44/2/2
f 41/2/2 42/2/2 45/2/2
f 45/2/2 42/2/2 46/2/2
f 47/2/2 48/2/2 49/2/2
f 49/2/2 48/2/2 50/2/2
f 51/2/2 52/2/2 53/2/2
f 53/2/2 52/2/2 54/2/2
f 55/2/2 56/2/2 57/2/2
f 57/2/2 56/2/2 58/2/2
f 59/2/2 60/2/2 61/2/2
f 61/2/2 60/2/2 62/2/2
f 65/2/3 64/2/3 63/2/3
f 66/2/3 64/2/3 65/2/3
f 67/2/3 65/2/3 63/2/3
f 68/2/3 65/2/3 67/2/3
f 72/2/3 70/2/3 69/2/3
f 73/2/3 70/2/3 72/2/3
f 76/1/3 72/1/3 71/1/3
f 77/2/3 73/2/3 72/2/3
f 77/1/3 72/1/3 76/1/3
f 77/2/3 74/2/3 73/2/3
f 78/2/3 74/2/3 77/2/3
f 79/1/3 76/1/3 71/1/3
f 80/2/3 77/2/3 76/2/3
f 80/1/3 76/1/3 79/1/3
f 82/2/3 74/2/3 78/2/3
f 83/1/3 75/1/3 74/1/3
f 83/2/3 74/2/3 82/2/3
f 84/1/3 75/1/3 83/1/3
f 85/2/3 77/2/3 80/2/3
f 86/2/3 82/2/3 81/2/3
f 86/2/3 83/2/3 82/2/3
f 87/2/3 83/2/3 86/2/3
f 87/2/3 86/2/3 85/2/3
f 88/2/3 83/2/3 87/2/3
f 89/2/3 87/2/3 85/2/3
f 90/2/3 87/2/3 89/2/3
f 91/2/3 85/2/3 80/2/3
f 91/2/3 89/2/3 85/2/3
f 92/2/3 89/2/3 91/2/3
f 93/2/3 91/2/3 80/2/3
f 94/2/3 91/2/3 93/2/3
f 95/2/4 96/2/4 98/2/4
f 98/2/4 96/2/4 99/2/4
f 97/1/4 98/1/4 102/1/4
f 98/2/4 99/2/4 103/2/4
f 102/1/4 98/1/4 103/1/4
f 99/2/4 100/2/4 103/2/4
f 103/2/4 100/2/4 104/2/4
f 97/1/4 102/1/4 105/1/4
f 102/2/4 103/2/4 106/2/4
f 105/1/4 102/1/4 106/1/4
f 104/2/4 100/2/4 108/2/4
f 100/1/4 101/1/4 109/1/4
f 108/2/4 100/2/4 109/2/4
f 109/1/4 101/1/4 110/1/4
f 106/2/4 103/2/4 111/2/4
f 107/2/4 108/2/4 112/2/4
f 108/2/4 109/2/4 112/2/4
f 112/2/4 109/2/4 113/2/4
f 111/2/4 112/2/4 113/2/4
f 113/2/4 109/2/4 114/2/4
f 111/2/4 113/2/4 115/2/4
f 115/2/4 113/2/4 116/2/4
f 106/2/4 111/2/4 117/2/4
f 111/2/4 115/2/4 117/2/4
f 117/2/4 115/2/4 118/2/4
f 106/2/4 117/2/4 119/2/4
f 119/2/4 117/2/4 120/2/4
f 121/2/4 122/2/4 123/2/4
f 123/2/4 122/2/4 124/2/4
f 121/2/4 123/2/4 125/2/4
f 125/2/4 123/2/4 126/2/4
f 129/1/5 128/1/5 127/1/5
f 130/1/5 128/1/5 129/1/5
f 133/2/5 132/2/5 131/2/5
f 134/2/5 132/2/5 133/2/5
f 139/2/5 136/2/5 135/2/5
f 140/2/5 136/2/5 139/2/5
f 141/2/5 138/2/5 137/2/5
f 142/2/5 138/2/5 141/2/5
f 145/2/5 144/2/5 143/2/5
f 146/2/5 144/2/5 145/2/5
f 147/2/6 148/2/6 149/2/6
f 149/2/6 148/2/6 150/2/6
f 151/2/6 152/2/6 153/2/6
f 153/2/6 152/2/6 154/2/6
f 155/2/6 156/2/6 159/2/6
f 159/2/6 156/2/6 160/2/6
f 157/2/6 158/2/6 161/2/6
f 161/2/6 158/2/6 162/2/6
f 163/2/6 164/2/6 167/2/6
f 167/2/6 164/2/6 168/2/6
f 165/2/6 166/2/6 171/2/6
f 171/2/6 166/2/6 172/2/6
f 169/2/6 170/2/6 175/2/6
f 175/2/6 170/2/6 176/2/6
f 173/2/6 174/2/6 177/2/6
f 177/2/6 174/2/6 178/2/6
f 179/2/6 180/2/6 181/2/6
f 181/2/6 180/2/6 182/2/6
f 183/1/6 184/1/6 185/1/6
f 185/1/6 184/1/6 186/1/6
