# MagicaVoxel @ Ephtracy

# group
o 

# material
mtllib AxeHead.mtl
usemtl palette

# normals
vn -1 0 0
vn 1 0 0
vn 0 0 1
vn 0 0 -1
vn 0 -1 0
vn 0 1 0

# texcoords
vt 0.958984 0.5
vt 0.962891 0.5
vt 0.966797 0.5
vt 0.990234 0.5

# verts
v -0.1 1.1 0.7
v -0.1 1.1 0.6
v -0.1 1.3 0.7
v -0.1 1.3 0.6
v -4.47035e-08 1.3 0.7
v -4.47035e-08 1.3 0.6
v -4.47035e-08 1.4 0.7
v -4.47035e-08 1.4 0.6
v 0.1 0.5 0.7
v 0.1 0.5 0.6
v 0.1 0.7 0.7
v 0.1 0.7 0.6
v 0.1 1.4 0.7
v 0.1 1.4 0.6
v 0.1 1.5 0.7
v 0.1 1.5 0.6
v 0.2 0.4 0.7
v 0.2 0.4 0.6
v 0.2 0.5 0.7
v 0.2 0.5 0.6
v 0.3 0.7 0.7
v 0.3 0.7 0.6
v 0.3 0.8 0.7
v 0.3 0.8 0.6
v 0.3 0.9 0.7
v 0.3 0.9 0.6
v 0.3 1.1 0.7
v 0.3 1.1 0.6
v 0.3 1.2 0.7
v 0.3 1.2 0.6
v 0.4 0.8 0.7
v 0.4 0.8 0.6
v 0.4 0.9 0.7
v 0.4 0.9 0.6
v 0.7 1.1 0.7
v 0.7 1.1 0.6
v 0.7 1.4 0.7
v 0.7 1.4 0.6
v 0.8 1.4 0.7
v 0.8 1.4 0.6
v 0.8 1.5 0.7
v 0.8 1.5 0.6
v 0.2 1.1 0.7
v 0.2 1.1 0.6
v 0.2 1.2 0.7
v 0.2 1.2 0.6
v 0.2 1.4 0.7
v 0.2 1.4 0.6
v 0.2 1.5 0.7
v 0.2 1.5 0.6
v 0.3 1.3 0.7
v 0.3 1.3 0.6
v 0.3 1.4 0.7
v 0.3 1.4 0.6
v 0.4 1.2 0.7
v 0.4 1.2 0.6
v 0.4 1.3 0.7
v 0.4 1.3 0.6
v 0.6 1.1 0.7
v 0.6 1.1 0.6
v 0.6 1.2 0.7
v 0.6 1.2 0.6
v 0.7 0.4 0.7
v 0.7 0.4 0.6
v 0.7 0.5 0.7
v 0.7 0.5 0.6
v 0.9 0.5 0.7
v 0.9 0.5 0.6
v 0.9 0.6 0.7
v 0.9 0.6 0.6
v 0.9 1.4 0.7
v 0.9 1.4 0.6
v 0.9 1.5 0.7
v 0.9 1.5 0.6
v 1 0.6 0.7
v 1 0.6 0.6
v 1 0.7 0.7
v 1 0.7 0.6
v 1 1.3 0.7
v 1 1.3 0.6
v 1 1.4 0.7
v 1 1.4 0.6
v 1.1 0.7 0.7
v 1.1 0.7 0.6
v 1.1 0.8 0.7
v 1.1 0.8 0.6
v 1.1 1 0.7
v 1.1 1 0.6
v 1.1 1.3 0.7
v 1.1 1.3 0.6
v 1.2 0.8 0.7
v 1.2 0.8 0.6
v 1.2 1 0.7
v 1.2 1 0.6
v -0.1 1.1 0.7
v -0.1 1.3 0.7
v -4.47035e-08 1.1 0.7
v -4.47035e-08 1.2 0.7
v -4.47035e-08 1.3 0.7
v -4.47035e-08 1.4 0.7
v 0.1 0.5 0.7
v 0.1 0.7 0.7
v 0.1 1.1 0.7
v 0.1 1.2 0.7
v 0.1 1.3 0.7
v 0.1 1.4 0.7
v 0.1 1.5 0.7
v 0.2 0.4 0.7
v 0.2 0.5 0.7
v 0.2 0.6 0.7
v 0.2 0.7 0.7
v 0.2 1.1 0.7
v 0.2 1.2 0.7
v 0.2 1.3 0.7
v 0.2 1.4 0.7
v 0.2 1.5 0.7
v 0.3 0.5 0.7
v 0.3 0.6 0.7
v 0.3 0.7 0.7
v 0.3 0.8 0.7
v 0.3 0.9 0.7
v 0.3 1.1 0.7
v 0.3 1.2 0.7
v 0.3 1.3 0.7
v 0.3 1.4 0.7
v 0.4 0.8 0.7
v 0.4 0.9 0.7
v 0.4 1.1 0.7
v 0.4 1.2 0.7
v 0.4 1.3 0.7
v 0.6 0.5 0.7
v 0.6 0.6 0.7
v 0.6 1.1 0.7
v 0.6 1.2 0.7
v 0.7 0.4 0.7
v 0.7 0.5 0.7
v 0.7 1.1 0.7
v 0.7 1.4 0.7
v 0.8 0.6 0.7
v 0.8 0.7 0.7
v 0.8 1.4 0.7
v 0.8 1.5 0.7
v 0.9 0.5 0.7
v 0.9 0.6 0.7
v 0.9 0.7 0.7
v 0.9 0.8 0.7
v 0.9 0.9 0.7
v 0.9 1 0.7
v 0.9 1.1 0.7
v 0.9 1.3 0.7
v 0.9 1.4 0.7
v 0.9 1.5 0.7
v 1 0.6 0.7
v 1 0.7 0.7
v 1 0.8 0.7
v 1 0.9 0.7
v 1 1 0.7
v 1 1.1 0.7
v 1 1.3 0.7
v 1 1.4 0.7
v 1.1 0.7 0.7
v 1.1 0.8 0.7
v 1.1 1 0.7
v 1.1 1.3 0.7
v 1.2 0.8 0.7
v 1.2 1 0.7
v -0.1 1.1 0.6
v -0.1 1.3 0.6
v -4.47035e-08 1.1 0.6
v -4.47035e-08 1.2 0.6
v -4.47035e-08 1.3 0.6
v -4.47035e-08 1.4 0.6
v 0.1 0.5 0.6
v 0.1 0.7 0.6
v 0.1 1.1 0.6
v 0.1 1.2 0.6
v 0.1 1.3 0.6
v 0.1 1.4 0.6
v 0.1 1.5 0.6
v 0.2 0.4 0.6
v 0.2 0.5 0.6
v 0.2 0.6 0.6
v 0.2 0.7 0.6
v 0.2 1.1 0.6
v 0.2 1.2 0.6
v 0.2 1.3 0.6
v 0.2 1.4 0.6
v 0.2 1.5 0.6
v 0.3 0.5 0.6
v 0.3 0.6 0.6
v 0.3 0.7 0.6
v 0.3 0.8 0.6
v 0.3 0.9 0.6
v 0.3 1.1 0.6
v 0.3 1.2 0.6
v 0.3 1.3 0.6
v 0.3 1.4 0.6
v 0.4 0.8 0.6
v 0.4 0.9 0.6
v 0.4 1.1 0.6
v 0.4 1.2 0.6
v 0.4 1.3 0.6
v 0.6 0.5 0.6
v 0.6 0.6 0.6
v 0.6 1.1 0.6
v 0.6 1.2 0.6
v 0.7 0.4 0.6
v 0.7 0.5 0.6
v 0.7 1.1 0.6
v 0.7 1.4 0.6
v 0.8 0.6 0.6
v 0.8 0.7 0.6
v 0.8 1.4 0.6
v 0.8 1.5 0.6
v 0.9 0.5 0.6
v 0.9 0.6 0.6
v 0.9 0.7 0.6
v 0.9 0.8 0.6
v 0.9 0.9 0.6
v 0.9 1 0.6
v 0.9 1.1 0.6
v 0.9 1.3 0.6
v 0.9 1.4 0.6
v 0.9 1.5 0.6
v 1 0.6 0.6
v 1 0.7 0.6
v 1 0.8 0.6
v 1 0.9 0.6
v 1 1 0.6
v 1 1.1 0.6
v 1 1.3 0.6
v 1 1.4 0.6
v 1.1 0.7 0.6
v 1.1 0.8 0.6
v 1.1 1 0.6
v 1.1 1.3 0.6
v 1.2 0.8 0.6
v 1.2 1 0.6
v 0.2 0.4 0.7
v 0.7 0.4 0.7
v 0.2 0.4 0.6
v 0.7 0.4 0.6
v 0.1 0.5 0.7
v 0.2 0.5 0.7
v 0.7 0.5 0.7
v 0.9 0.5 0.7
v 0.1 0.5 0.6
v 0.2 0.5 0.6
v 0.7 0.5 0.6
v 0.9 0.5 0.6
v 0.9 0.6 0.7
v 1 0.6 0.7
v 0.9 0.6 0.6
v 1 0.6 0.6
v 1 0.7 0.7
v 1.1 0.7 0.7
v 1 0.7 0.6
v 1.1 0.7 0.6
v 1.1 0.8 0.7
v 1.2 0.8 0.7
v 1.1 0.8 0.6
v 1.2 0.8 0.6
v 0.3 0.9 0.7
v 0.4 0.9 0.7
v 0.3 0.9 0.6
v 0.4 0.9 0.6
v -0.1 1.1 0.7
v -4.47035e-08 1.1 0.7
v 0.1 1.1 0.7
v 0.2 1.1 0.7
v -0.1 1.1 0.6
v -4.47035e-08 1.1 0.6
v 0.1 1.1 0.6
v 0.2 1.1 0.6
v 0.2 1.2 0.7
v 0.3 1.2 0.7
v 0.2 1.2 0.6
v 0.3 1.2 0.6
v 0.1 0.7 0.7
v 0.2 0.7 0.7
v 0.3 0.7 0.7
v 0.1 0.7 0.6
v 0.2 0.7 0.6
v 0.3 0.7 0.6
v 0.3 0.8 0.7
v 0.4 0.8 0.7
v 0.3 0.8 0.6
v 0.4 0.8 0.6
v 1.1 1 0.7
v 1.2 1 0.7
v 1.1 1 0.6
v 1.2 1 0.6
v 0.6 1.1 0.7
v 0.7 1.1 0.7
v 0.6 1.1 0.6
v 0.7 1.1 0.6
v 0.4 1.2 0.7
v 0.6 1.2 0.7
v 0.4 1.2 0.6
v 0.6 1.2 0.6
v -0.1 1.3 0.7
v -4.47035e-08 1.3 0.7
v 0.3 1.3 0.7
v 0.4 1.3 0.7
v 1 1.3 0.7
v 1.1 1.3 0.7
v -0.1 1.3 0.6
v -4.47035e-08 1.3 0.6
v 0.3 1.3 0.6
v 0.4 1.3 0.6
v 1 1.3 0.6
v 1.1 1.3 0.6
v -4.47035e-08 1.4 0.7
v 0.1 1.4 0.7
v 0.2 1.4 0.7
v 0.3 1.4 0.7
v 0.7 1.4 0.7
v 0.8 1.4 0.7
v 0.9 1.4 0.7
v 1 1.4 0.7
v -4.47035e-08 1.4 0.6
v 0.1 1.4 0.6
v 0.2 1.4 0.6
v 0.3 1.4 0.6
v 0.7 1.4 0.6
v 0.8 1.4 0.6
v 0.9 1.4 0.6
v 1 1.4 0.6
v 0.1 1.5 0.7
v 0.2 1.5 0.7
v 0.8 1.5 0.7
v 0.9 1.5 0.7
v 0.1 1.5 0.6
v 0.2 1.5 0.6
v 0.8 1.5 0.6
v 0.9 1.5 0.6

# faces
f 3/4/1 2/4/1 1/4/1
f 4/4/1 2/4/1 3/4/1
f 7/4/1 6/4/1 5/4/1
f 8/4/1 6/4/1 7/4/1
f 11/3/1 10/3/1 9/3/1
f 12/3/1 10/3/1 11/3/1
f 15/4/1 14/4/1 13/4/1
f 16/4/1 14/4/1 15/4/1
f 19/3/1 18/3/1 17/3/1
f 20/3/1 18/3/1 19/3/1
f 23/2/1 22/2/1 21/2/1
f 24/2/1 22/2/1 23/2/1
f 27/2/1 26/2/1 25/2/1
f 28/2/1 26/2/1 27/2/1
f 29/4/1 28/4/1 27/4/1
f 30/4/1 28/4/1 29/4/1
f 33/2/1 32/2/1 31/2/1
f 34/2/1 32/2/1 33/2/1
f 37/2/1 36/2/1 35/2/1
f 38/2/1 36/2/1 37/2/1
f 41/3/1 40/3/1 39/3/1
f 42/3/1 40/3/1 41/3/1
f 43/1/2 44/1/2 45/1/2
f 45/1/2 44/1/2 46/1/2
f 47/4/2 48/4/2 49/4/2
f 49/4/2 48/4/2 50/4/2
f 51/4/2 52/4/2 53/4/2
f 53/4/2 52/4/2 54/4/2
f 55/2/2 56/2/2 57/2/2
f 57/2/2 56/2/2 58/2/2
f 59/2/2 60/2/2 61/2/2
f 61/2/2 60/2/2 62/2/2
f 63/3/2 64/3/2 65/3/2
f 65/3/2 64/3/2 66/3/2
f 67/3/2 68/3/2 69/3/2
f 69/3/2 68/3/2 70/3/2
f 71/3/2 72/3/2 73/3/2
f 73/3/2 72/3/2 74/3/2
f 75/3/2 76/3/2 77/3/2
f 77/3/2 76/3/2 78/3/2
f 79/3/2 80/3/2 81/3/2
f 81/3/2 80/3/2 82/3/2
f 83/3/2 84/3/2 85/3/2
f 85/3/2 84/3/2 86/3/2
f 87/3/2 88/3/2 89/3/2
f 89/3/2 88/3/2 90/3/2
f 91/3/2 92/3/2 93/3/2
f 93/3/2 92/3/2 94/3/2
f 97/4/3 96/4/3 95/4/3
f 98/4/3 96/4/3 97/4/3
f 99/4/3 96/4/3 98/4/3
f 103/3/3 98/3/3 97/3/3
f 104/1/3 99/1/3 98/1/3
f 104/3/3 98/3/3 103/3/3
f 105/4/3 100/4/3 99/4/3
f 105/1/3 99/1/3 104/1/3
f 106/4/3 100/4/3 105/4/3
f 109/3/3 102/3/3 101/3/3
f 110/3/3 102/3/3 109/3/3
f 111/3/3 102/3/3 110/3/3
f 112/1/3 104/1/3 103/1/3
f 113/3/3 105/3/3 104/3/3
f 113/1/3 104/1/3 112/1/3
f 114/2/3 106/2/3 105/2/3
f 114/3/3 105/3/3 113/3/3
f 115/4/3 107/4/3 106/4/3
f 115/2/3 106/2/3 114/2/3
f 116/4/3 107/4/3 115/4/3
f 117/3/3 109/3/3 108/3/3
f 117/3/3 110/3/3 109/3/3
f 118/2/3 111/2/3 110/2/3
f 118/3/3 110/3/3 117/3/3
f 119/2/3 111/2/3 118/2/3
f 123/2/3 114/2/3 113/2/3
f 124/4/3 115/4/3 114/4/3
f 124/2/3 114/2/3 123/2/3
f 125/4/3 115/4/3 124/4/3
f 126/2/3 118/2/3 117/2/3
f 126/2/3 119/2/3 118/2/3
f 126/2/3 120/2/3 119/2/3
f 127/2/3 122/2/3 121/2/3
f 128/4/3 123/4/3 122/4/3
f 128/2/3 122/2/3 127/2/3
f 129/2/3 124/2/3 123/2/3
f 129/4/3 123/4/3 128/4/3
f 130/2/3 124/2/3 129/2/3
f 131/2/3 126/2/3 117/2/3
f 131/3/3 117/3/3 108/3/3
f 131/2/3 129/2/3 128/2/3
f 131/2/3 127/2/3 126/2/3
f 131/2/3 128/2/3 127/2/3
f 132/2/3 129/2/3 131/2/3
f 133/2/3 129/2/3 132/2/3
f 134/2/3 129/2/3 133/2/3
f 135/3/3 131/3/3 108/3/3
f 135/3/3 132/3/3 131/3/3
f 136/3/3 132/3/3 135/3/3
f 137/2/3 133/2/3 132/2/3
f 139/2/3 137/2/3 132/2/3
f 139/2/3 138/2/3 137/2/3
f 139/3/3 132/3/3 136/3/3
f 140/2/3 138/2/3 139/2/3
f 141/2/3 138/2/3 140/2/3
f 143/3/3 139/3/3 136/3/3
f 143/3/3 140/3/3 139/3/3
f 144/3/3 140/3/3 143/3/3
f 145/2/3 141/2/3 140/2/3
f 145/3/3 140/3/3 144/3/3
f 146/2/3 141/2/3 145/2/3
f 147/2/3 141/2/3 146/2/3
f 148/2/3 141/2/3 147/2/3
f 149/2/3 141/2/3 148/2/3
f 150/2/3 141/2/3 149/2/3
f 151/3/3 142/3/3 141/3/3
f 151/2/3 141/2/3 150/2/3
f 152/3/3 142/3/3 151/3/3
f 153/3/3 145/3/3 144/3/3
f 153/3/3 146/3/3 145/3/3
f 154/3/3 146/3/3 153/3/3
f 155/2/3 147/2/3 146/2/3
f 155/3/3 146/3/3 154/3/3
f 156/1/3 148/1/3 147/1/3
f 156/2/3 147/2/3 155/2/3
f 157/2/3 149/2/3 148/2/3
f 157/1/3 148/1/3 156/1/3
f 158/1/3 150/1/3 149/1/3
f 158/2/3 149/2/3 157/2/3
f 159/3/3 151/3/3 150/3/3
f 159/1/3 150/1/3 158/1/3
f 160/3/3 151/3/3 159/3/3
f 161/3/3 155/3/3 154/3/3
f 162/1/3 157/1/3 156/1/3
f 162/3/3 155/3/3 161/3/3
f 162/1/3 156/1/3 155/1/3
f 163/3/3 158/3/3 157/3/3
f 163/1/3 157/1/3 162/1/3
f 163/3/3 159/3/3 158/3/3
f 164/3/3 159/3/3 163/3/3
f 165/3/3 163/3/3 162/3/3
f 166/3/3 163/3/3 165/3/3
f 167/4/4 168/4/4 169/4/4
f 169/4/4 168/4/4 170/4/4
f 170/4/4 168/4/4 171/4/4
f 169/3/4 170/3/4 175/3/4
f 170/1/4 171/1/4 176/1/4
f 175/3/4 170/3/4 176/3/4
f 171/4/4 172/4/4 177/4/4
f 176/1/4 171/1/4 177/1/4
f 177/4/4 172/4/4 178/4/4
f 173/3/4 174/3/4 181/3/4
f 181/3/4 174/3/4 182/3/4
f 182/3/4 174/3/4 183/3/4
f 175/1/4 176/1/4 184/1/4
f 176/3/4 177/3/4 185/3/4
f 184/1/4 176/1/4 185/1/4
f 177/2/4 178/2/4 186/2/4
f 185/3/4 177/3/4 186/3/4
f 178/4/4 179/4/4 187/4/4
f 186/2/4 178/2/4 187/2/4
f 187/4/4 179/4/4 188/4/4
f 180/3/4 181/3/4 189/3/4
f 181/3/4 182/3/4 189/3/4
f 182/2/4 183/2/4 190/2/4
f 189/3/4 182/3/4 190/3/4
f 190/2/4 183/2/4 191/2/4
f 185/2/4 186/2/4 195/2/4
f 186/4/4 187/4/4 196/4/4
f 195/2/4 186/2/4 196/2/4
f 196/4/4 187/4/4 197/4/4
f 189/2/4 190/2/4 198/2/4
f 190/2/4 191/2/4 198/2/4
f 191/2/4 192/2/4 198/2/4
f 193/2/4 194/2/4 199/2/4
f 194/4/4 195/4/4 200/4/4
f 199/2/4 194/2/4 200/2/4
f 195/2/4 196/2/4 201/2/4
f 200/4/4 195/4/4 201/4/4
f 201/2/4 196/2/4 202/2/4
f 189/2/4 198/2/4 203/2/4
f 180/3/4 189/3/4 203/3/4
f 200/2/4 201/2/4 203/2/4
f 198/2/4 199/2/4 203/2/4
f 199/2/4 200/2/4 203/2/4
f 203/2/4 201/2/4 204/2/4
f 204/2/4 201/2/4 205/2/4
f 205/2/4 201/2/4 206/2/4
f 180/3/4 203/3/4 207/3/4
f 203/3/4 204/3/4 207/3/4
f 207/3/4 204/3/4 208/3/4
f 204/2/4 205/2/4 209/2/4
f 204/2/4 209/2/4 211/2/4
f 209/2/4 210/2/4 211/2/4
f 208/3/4 204/3/4 211/3/4
f 211/2/4 210/2/4 212/2/4
f 212/2/4 210/2/4 213/2/4
f 208/3/4 211/3/4 215/3/4
f 211/3/4 212/3/4 215/3/4
f 215/3/4 212/3/4 216/3/4
f 212/2/4 213/2/4 217/2/4
f 216/3/4 212/3/4 217/3/4
f 217/2/4 213/2/4 218/2/4
f 218/2/4 213/2/4 219/2/4
f 219/2/4 213/2/4 220/2/4
f 220/2/4 213/2/4 221/2/4
f 221/2/4 213/2/4 222/2/4
f 213/3/4 214/3/4 223/3/4
f 222/2/4 213/2/4 223/2/4
f 223/3/4 214/3/4 224/3/4
f 216/3/4 217/3/4 225/3/4
f 217/3/4 218/3/4 225/3/4
f 225/3/4 218/3/4 226/3/4
f 218/2/4 219/2/4 227/2/4
f 226/3/4 218/3/4 227/3/4
f 219/1/4 220/1/4 228/1/4
f 227/2/4 219/2/4 228/2/4
f 220/2/4 221/2/4 229/2/4
f 228/1/4 220/1/4 229/1/4
f 221/1/4 222/1/4 230/1/4
f 229/2/4 221/2/4 230/2/4
f 222/3/4 223/3/4 231/3/4
f 230/1/4 222/1/4 231/1/4
f 231/3/4 223/3/4 232/3/4
f 226/3/4 227/3/4 233/3/4
f 228/1/4 229/1/4 234/1/4
f 233/3/4 227/3/4 234/3/4
f 227/1/4 228/1/4 234/1/4
f 229/3/4 230/3/4 235/3/4
f 234/1/4 229/1/4 235/1/4
f 230/3/4 231/3/4 235/3/4
f 235/3/4 231/3/4 236/3/4
f 234/3/4 235/3/4 237/3/4
f 237/3/4 235/3/4 238/3/4
f 241/3/5 240/3/5 239/3/5
f 242/3/5 240/3/5 241/3/5
f 247/3/5 244/3/5 243/3/5
f 248/3/5 244/3/5 247/3/5
f 249/3/5 246/3/5 245/3/5
f 250/3/5 246/3/5 249/3/5
f 253/3/5 252/3/5 251/3/5
f 254/3/5 252/3/5 253/3/5
f 257/3/5 256/3/5 255/3/5
f 258/3/5 256/3/5 257/3/5
f 261/3/5 260/3/5 259/3/5
f 262/3/5 260/3/5 261/3/5
f 265/2/5 264/2/5 263/2/5
f 266/2/5 264/2/5 265/2/5
f 271/4/5 268/4/5 267/4/5
f 272/3/5 269/3/5 268/3/5
f 272/4/5 268/4/5 271/4/5
f 273/1/5 270/1/5 269/1/5
f 273/3/5 269/3/5 272/3/5
f 274/1/5 270/1/5 273/1/5
f 277/2/5 276/2/5 275/2/5
f 278/2/5 276/2/5 277/2/5
f 279/3/6 280/3/6 282/3/6
f 280/2/6 281/2/6 283/2/6
f 282/3/6 280/3/6 283/3/6
f 283/2/6 281/2/6 284/2/6
f 285/2/6 286/2/6 287/2/6
f 287/2/6 286/2/6 288/2/6
f 289/3/6 290/3/6 291/3/6
f 291/3/6 290/3/6 292/3/6
f 293/2/6 294/2/6 295/2/6
f 295/2/6 294/2/6 296/2/6
f 297/2/6 298/2/6 299/2/6
f 299/2/6 298/2/6 300/2/6
f 301/4/6 302/4/6 307/4/6
f 307/4/6 302/4/6 308/4/6
f 303/2/6 304/2/6 309/2/6
f 309/2/6 304/2/6 310/2/6
f 305/3/6 306/3/6 311/3/6
f 311/3/6 306/3/6 312/3/6
f 313/4/6 314/4/6 321/4/6
f 321/4/6 314/4/6 322/4/6
f 315/4/6 316/4/6 323/4/6
f 323/4/6 316/4/6 324/4/6
f 317/2/6 318/2/6 325/2/6
f 325/2/6 318/2/6 326/2/6
f 319/3/6 320/3/6 327/3/6
f 327/3/6 320/3/6 328/3/6
f 329/4/6 330/4/6 333/4/6
f 333/4/6 330/4/6 334/4/6
f 331/3/6 332/3/6 335/3/6
f 335/3/6 332/3/6 336/3/6
