# MagicaVoxel @ Ephtracy

# group
o 

# material
mtllib AxeStick.mtl
usemtl palette

# normals
vn -1 0 0
vn 1 0 0
vn 0 0 1
vn 0 0 -1
vn 0 -1 0
vn 0 1 0

# texcoords
vt 0.177734 0.5
vt 0.181641 0.5
vt 0.185547 0.5
vt 0.962891 0.5
vt 0.966797 0.5

# verts
v -1.6 -0.8 0.8
v -1.6 -0.8 0.6
v -1.6 -0.7 0.8
v -1.6 -0.7 0.7
v -1.6 -0.7 0.6
v -1.6 -0.6 0.8
v -1.6 -0.6 0.7
v -1.6 -0.6 0.6
v -1.5 -0.6 0.8
v -1.5 -0.6 0.7
v -1.5 -0.6 0.6
v -1.5 -0.5 0.8
v -1.5 -0.5 0.7
v -1.5 -0.5 0.6
v -1.4 -0.5 0.8
v -1.4 -0.5 0.7
v -1.4 -0.5 0.6
v -1.4 -0.4 0.8
v -1.4 -0.4 0.7
v -1.4 -0.4 0.6
v -1.3 -0.4 0.8
v -1.3 -0.4 0.7
v -1.3 -0.4 0.6
v -1.3 -0.3 0.8
v -1.3 -0.3 0.7
v -1.3 -0.3 0.6
v -1.2 -0.3 0.8
v -1.2 -0.3 0.7
v -1.2 -0.3 0.6
v -1.2 -0.2 0.8
v -1.2 -0.2 0.7
v -1.2 -0.2 0.6
v -1.1 -0.2 0.8
v -1.1 -0.2 0.7
v -1.1 -0.2 0.6
v -1.1 -0.1 0.8
v -1.1 -0.1 0.7
v -1.1 -0.1 0.6
v -1 -0.1 0.8
v -1 -0.1 0.7
v -1 -0.1 0.6
v -1 0 0.8
v -1 0 0.7
v -1 0 0.6
v -0.9 0 0.8
v -0.9 0 0.7
v -0.9 0 0.6
v -0.9 0.1 0.8
v -0.9 0.1 0.6
v -0.8 0.1 0.8
v -0.8 0.1 0.7
v -0.8 0.1 0.6
v -0.8 0.2 0.8
v -0.8 0.2 0.7
v -0.8 0.2 0.6
v -0.7 0.2 0.8
v -0.7 0.2 0.7
v -0.7 0.2 0.6
v -0.7 0.3 0.8
v -0.7 0.3 0.7
v -0.7 0.3 0.6
v -0.6 0.3 0.8
v -0.6 0.3 0.7
v -0.6 0.3 0.6
v -0.6 0.4 0.8
v -0.6 0.4 0.6
v -0.5 0.4 0.8
v -0.5 0.4 0.7
v -0.5 0.4 0.6
v -0.5 0.5 0.8
v -0.5 0.5 0.7
v -0.5 0.5 0.6
v -0.4 0.5 0.8
v -0.4 0.5 0.7
v -0.4 0.5 0.6
v -0.4 0.6 0.8
v -0.4 0.6 0.7
v -0.4 0.6 0.6
v -0.3 0.6 0.8
v -0.3 0.6 0.7
v -0.3 0.6 0.6
v -0.3 0.7 0.8
v -0.3 0.7 0.7
v -0.3 0.7 0.6
v -0.2 0.7 0.8
v -0.2 0.7 0.7
v -0.2 0.7 0.6
v -0.2 0.8 0.8
v -0.2 0.8 0.7
v -0.2 0.8 0.6
v -0.1 0.8 0.8
v -0.1 0.8 0.7
v -0.1 0.8 0.6
v -0.1 0.9 0.8
v -0.1 0.9 0.6
v 0 0.9 0.8
v 0 0.9 0.7
v 0 0.9 0.6
v 0 1 0.8
v 0 1 0.7
v 0 1 0.6
v 0.1 1 0.8
v 0.1 1 0.7
v 0.1 1 0.6
v 0.1 1.1 0.8
v 0.1 1.1 0.6
v 0.2 1.1 0.8
v 0.2 1.1 0.7
v 0.2 1.1 0.6
v 0.2 1.2 0.8
v 0.2 1.2 0.7
v 0.2 1.2 0.6
v -1.5 -0.8 0.8
v -1.5 -0.8 0.6
v -1.5 -0.7 0.8
v -1.5 -0.7 0.6
v -1.4 -0.7 0.8
v -1.4 -0.7 0.6
v -1.4 -0.6 0.8
v -1.4 -0.6 0.6
v -1.3 -0.6 0.8
v -1.3 -0.6 0.6
v -1.3 -0.5 0.8
v -1.3 -0.5 0.6
v -1.2 -0.5 0.8
v -1.2 -0.5 0.6
v -1.2 -0.4 0.8
v -1.2 -0.4 0.6
v -1.1 -0.4 0.8
v -1.1 -0.4 0.6
v -1.1 -0.3 0.8
v -1.1 -0.3 0.6
v -1 -0.3 0.8
v -1 -0.3 0.6
v -1 -0.2 0.8
v -1 -0.2 0.6
v -0.9 -0.2 0.8
v -0.9 -0.2 0.6
v -0.9 -0.1 0.8
v -0.9 -0.1 0.6
v -0.8 -0.1 0.8
v -0.8 -0.1 0.6
v -0.8 0 0.8
v -0.8 0 0.6
v -0.7 0 0.8
v -0.7 0 0.6
v -0.7 0.1 0.8
v -0.7 0.1 0.6
v -0.6 0.1 0.8
v -0.6 0.1 0.6
v -0.6 0.2 0.8
v -0.6 0.2 0.6
v -0.5 0.2 0.8
v -0.5 0.2 0.6
v -0.5 0.3 0.8
v -0.5 0.3 0.6
v -0.4 0.3 0.8
v -0.4 0.3 0.6
v -0.4 0.4 0.8
v -0.4 0.4 0.6
v -0.3 0.4 0.8
v -0.3 0.4 0.6
v -0.3 0.5 0.8
v -0.3 0.5 0.6
v -0.2 0.5 0.8
v -0.2 0.5 0.6
v -0.2 0.6 0.8
v -0.2 0.6 0.6
v -0.1 0.6 0.8
v -0.1 0.6 0.6
v -0.1 0.7 0.8
v -0.1 0.7 0.6
v 0 0.7 0.8
v 0 0.7 0.6
v 0 0.8 0.8
v 0 0.8 0.6
v 0.1 0.8 0.8
v 0.1 0.8 0.6
v 0.1 0.9 0.8
v 0.1 0.9 0.6
v 0.2 0.9 0.8
v 0.2 0.9 0.6
v 0.2 1 0.8
v 0.2 1 0.7
v 0.2 1 0.6
v 0.3 1 0.8
v 0.3 1 0.7
v 0.3 1 0.6
v 0.3 1.1 0.8
v 0.3 1.1 0.7
v 0.3 1.1 0.6
v 0.3 1.2 0.8
v 0.3 1.2 0.7
v 0.3 1.2 0.6
v -1.6 -0.8 0.8
v -1.6 -0.7 0.8
v -1.6 -0.6 0.8
v -1.5 -0.8 0.8
v -1.5 -0.7 0.8
v -1.5 -0.6 0.8
v -1.5 -0.5 0.8
v -1.4 -0.7 0.8
v -1.4 -0.6 0.8
v -1.4 -0.5 0.8
v -1.4 -0.4 0.8
v -1.3 -0.6 0.8
v -1.3 -0.5 0.8
v -1.3 -0.4 0.8
v -1.3 -0.3 0.8
v -1.2 -0.5 0.8
v -1.2 -0.4 0.8
v -1.2 -0.3 0.8
v -1.2 -0.2 0.8
v -1.1 -0.4 0.8
v -1.1 -0.3 0.8
v -1.1 -0.2 0.8
v -1.1 -0.1 0.8
v -1 -0.3 0.8
v -1 -0.2 0.8
v -1 -0.1 0.8
v -1 0 0.8
v -0.9 -0.2 0.8
v -0.9 -0.1 0.8
v -0.9 0 0.8
v -0.9 0.1 0.8
v -0.8 -0.1 0.8
v -0.8 0 0.8
v -0.8 0.1 0.8
v -0.8 0.2 0.8
v -0.7 0 0.8
v -0.7 0.1 0.8
v -0.7 0.2 0.8
v -0.7 0.3 0.8
v -0.6 0.1 0.8
v -0.6 0.2 0.8
v -0.6 0.3 0.8
v -0.6 0.4 0.8
v -0.5 0.2 0.8
v -0.5 0.3 0.8
v -0.5 0.4 0.8
v -0.5 0.5 0.8
v -0.4 0.3 0.8
v -0.4 0.4 0.8
v -0.4 0.5 0.8
v -0.4 0.6 0.8
v -0.3 0.4 0.8
v -0.3 0.5 0.8
v -0.3 0.6 0.8
v -0.3 0.7 0.8
v -0.2 0.5 0.8
v -0.2 0.6 0.8
v -0.2 0.7 0.8
v -0.2 0.8 0.8
v -0.1 0.6 0.8
v -0.1 0.7 0.8
v -0.1 0.8 0.8
v -0.1 0.9 0.8
v 0 0.7 0.8
v 0 0.8 0.8
v 0 0.9 0.8
v 0 1 0.8
v 0.1 0.8 0.8
v 0.1 0.9 0.8
v 0.1 1 0.8
v 0.1 1.1 0.8
v 0.2 0.9 0.8
v 0.2 1 0.8
v 0.2 1.1 0.8
v 0.2 1.2 0.8
v 0.3 1 0.8
v 0.3 1.1 0.8
v 0.3 1.2 0.8
v -1.6 -0.8 0.6
v -1.6 -0.7 0.6
v -1.6 -0.6 0.6
v -1.5 -0.8 0.6
v -1.5 -0.7 0.6
v -1.5 -0.6 0.6
v -1.5 -0.5 0.6
v -1.4 -0.7 0.6
v -1.4 -0.6 0.6
v -1.4 -0.5 0.6
v -1.4 -0.4 0.6
v -1.3 -0.6 0.6
v -1.3 -0.5 0.6
v -1.3 -0.4 0.6
v -1.3 -0.3 0.6
v -1.2 -0.5 0.6
v -1.2 -0.4 0.6
v -1.2 -0.3 0.6
v -1.2 -0.2 0.6
v -1.1 -0.4 0.6
v -1.1 -0.3 0.6
v -1.1 -0.2 0.6
v -1.1 -0.1 0.6
v -1 -0.3 0.6
v -1 -0.2 0.6
v -1 -0.1 0.6
v -1 0 0.6
v -0.9 -0.2 0.6
v -0.9 -0.1 0.6
v -0.9 0 0.6
v -0.9 0.1 0.6
v -0.8 -0.1 0.6
v -0.8 0 0.6
v -0.8 0.1 0.6
v -0.8 0.2 0.6
v -0.7 0 0.6
v -0.7 0.1 0.6
v -0.7 0.2 0.6
v -0.7 0.3 0.6
v -0.6 0.1 0.6
v -0.6 0.2 0.6
v -0.6 0.3 0.6
v -0.6 0.4 0.6
v -0.5 0.2 0.6
v -0.5 0.3 0.6
v -0.5 0.4 0.6
v -0.5 0.5 0.6
v -0.4 0.3 0.6
v -0.4 0.4 0.6
v -0.4 0.5 0.6
v -0.4 0.6 0.6
v -0.3 0.4 0.6
v -0.3 0.5 0.6
v -0.3 0.6 0.6
v -0.3 0.7 0.6
v -0.2 0.5 0.6
v -0.2 0.6 0.6
v -0.2 0.7 0.6
v -0.2 0.8 0.6
v -0.1 0.6 0.6
v -0.1 0.7 0.6
v -0.1 0.8 0.6
v -0.1 0.9 0.6
v 0 0.7 0.6
v 0 0.8 0.6
v 0 0.9 0.6
v 0 1 0.6
v 0.1 0.8 0.6
v 0.1 0.9 0.6
v 0.1 1 0.6
v 0.1 1.1 0.6
v 0.2 0.9 0.6
v 0.2 1 0.6
v 0.2 1.1 0.6
v 0.2 1.2 0.6
v 0.3 1 0.6
v 0.3 1.1 0.6
v 0.3 1.2 0.6
v -1.6 -0.8 0.8
v -1.5 -0.8 0.8
v -1.6 -0.8 0.6
v -1.5 -0.8 0.6
v -1.5 -0.7 0.8
v -1.4 -0.7 0.8
v -1.5 -0.7 0.6
v -1.4 -0.7 0.6
v -1.4 -0.6 0.8
v -1.3 -0.6 0.8
v -1.4 -0.6 0.6
v -1.3 -0.6 0.6
v -1.3 -0.5 0.8
v -1.2 -0.5 0.8
v -1.3 -0.5 0.6
v -1.2 -0.5 0.6
v -1.2 -0.4 0.8
v -1.1 -0.4 0.8
v -1.2 -0.4 0.6
v -1.1 -0.4 0.6
v -1.1 -0.3 0.8
v -1 -0.3 0.8
v -1.1 -0.3 0.6
v -1 -0.3 0.6
v -1 -0.2 0.8
v -0.9 -0.2 0.8
v -1 -0.2 0.6
v -0.9 -0.2 0.6
v -0.9 -0.1 0.8
v -0.8 -0.1 0.8
v -0.9 -0.1 0.6
v -0.8 -0.1 0.6
v -0.8 0 0.8
v -0.7 0 0.8
v -0.8 0 0.6
v -0.7 0 0.6
v -0.7 0.1 0.8
v -0.6 0.1 0.8
v -0.7 0.1 0.6
v -0.6 0.1 0.6
v -0.6 0.2 0.8
v -0.5 0.2 0.8
v -0.6 0.2 0.6
v -0.5 0.2 0.6
v -0.5 0.3 0.8
v -0.4 0.3 0.8
v -0.5 0.3 0.6
v -0.4 0.3 0.6
v -0.4 0.4 0.8
v -0.3 0.4 0.8
v -0.4 0.4 0.6
v -0.3 0.4 0.6
v -0.3 0.5 0.8
v -0.2 0.5 0.8
v -0.3 0.5 0.6
v -0.2 0.5 0.6
v -0.2 0.6 0.8
v -0.1 0.6 0.8
v -0.2 0.6 0.6
v -0.1 0.6 0.6
v -0.1 0.7 0.8
v 0 0.7 0.8
v -0.1 0.7 0.6
v 0 0.7 0.6
v 0 0.8 0.8
v 0.1 0.8 0.8
v 0 0.8 0.6
v 0.1 0.8 0.6
v 0.1 0.9 0.8
v 0.2 0.9 0.8
v 0.1 0.9 0.6
v 0.2 0.9 0.6
v 0.2 1 0.8
v 0.3 1 0.8
v 0.2 1 0.7
v 0.3 1 0.7
v 0.2 1 0.6
v 0.3 1 0.6
v -1.6 -0.6 0.8
v -1.5 -0.6 0.8
v -1.6 -0.6 0.7
v -1.5 -0.6 0.7
v -1.6 -0.6 0.6
v -1.5 -0.6 0.6
v -1.5 -0.5 0.8
v -1.4 -0.5 0.8
v -1.5 -0.5 0.7
v -1.4 -0.5 0.7
v -1.5 -0.5 0.6
v -1.4 -0.5 0.6
v -1.4 -0.4 0.8
v -1.3 -0.4 0.8
v -1.4 -0.4 0.7
v -1.3 -0.4 0.7
v -1.4 -0.4 0.6
v -1.3 -0.4 0.6
v -1.3 -0.3 0.8
v -1.2 -0.3 0.8
v -1.3 -0.3 0.7
v -1.2 -0.3 0.7
v -1.3 -0.3 0.6
v -1.2 -0.3 0.6
v -1.2 -0.2 0.8
v -1.1 -0.2 0.8
v -1.2 -0.2 0.7
v -1.1 -0.2 0.7
v -1.2 -0.2 0.6
v -1.1 -0.2 0.6
v -1.1 -0.1 0.8
v -1 -0.1 0.8
v -1.1 -0.1 0.7
v -1 -0.1 0.7
v -1.1 -0.1 0.6
v -1 -0.1 0.6
v -1 0 0.8
v -0.9 0 0.8
v -1 0 0.7
v -0.9 0 0.7
v -1 0 0.6
v -0.9 0 0.6
v -0.9 0.1 0.8
v -0.8 0.1 0.8
v -0.8 0.1 0.7
v -0.9 0.1 0.6
v -0.8 0.1 0.6
v -0.8 0.2 0.8
v -0.7 0.2 0.8
v -0.8 0.2 0.7
v -0.7 0.2 0.7
v -0.8 0.2 0.6
v -0.7 0.2 0.6
v -0.7 0.3 0.8
v -0.6 0.3 0.8
v -0.7 0.3 0.7
v -0.6 0.3 0.7
v -0.7 0.3 0.6
v -0.6 0.3 0.6
v -0.6 0.4 0.8
v -0.5 0.4 0.8
v -0.5 0.4 0.7
v -0.6 0.4 0.6
v -0.5 0.4 0.6
v -0.5 0.5 0.8
v -0.4 0.5 0.8
v -0.5 0.5 0.7
v -0.4 0.5 0.7
v -0.5 0.5 0.6
v -0.4 0.5 0.6
v -0.4 0.6 0.8
v -0.3 0.6 0.8
v -0.4 0.6 0.7
v -0.3 0.6 0.7
v -0.4 0.6 0.6
v -0.3 0.6 0.6
v -0.3 0.7 0.8
v -0.2 0.7 0.8
v -0.3 0.7 0.7
v -0.2 0.7 0.7
v -0.3 0.7 0.6
v -0.2 0.7 0.6
v -0.2 0.8 0.8
v -0.1 0.8 0.8
v -0.2 0.8 0.7
v -0.1 0.8 0.7
v -0.2 0.8 0.6
v -0.1 0.8 0.6
v -0.1 0.9 0.8
v 0 0.9 0.8
v 0 0.9 0.7
v -0.1 0.9 0.6
v 0 0.9 0.6
v 0 1 0.8
v 0.1 1 0.8
v 0 1 0.7
v 0.1 1 0.7
v 0 1 0.6
v 0.1 1 0.6
v 0.1 1.1 0.8
v 0.2 1.1 0.8
v 0.2 1.1 0.7
v 0.1 1.1 0.6
v 0.2 1.1 0.6
v 0.2 1.2 0.8
v 0.3 1.2 0.8
v 0.2 1.2 0.7
v 0.3 1.2 0.7
v 0.2 1.2 0.6
v 0.3 1.2 0.6

# faces
f 3/1/1 2/1/1 1/1/1
f 4/1/1 2/1/1 3/1/1
f 5/1/1 2/1/1 4/1/1
f 6/5/1 4/5/1 3/5/1
f 7/4/1 5/4/1 4/4/1
f 7/5/1 4/5/1 6/5/1
f 8/4/1 5/4/1 7/4/1
f 12/2/1 10/2/1 9/2/1
f 13/3/1 11/3/1 10/3/1
f 13/2/1 10/2/1 12/2/1
f 14/3/1 11/3/1 13/3/1
f 18/2/1 16/2/1 15/2/1
f 19/3/1 17/3/1 16/3/1
f 19/2/1 16/2/1 18/2/1
f 20/3/1 17/3/1 19/3/1
f 24/3/1 22/3/1 21/3/1
f 25/2/1 23/2/1 22/2/1
f 25/3/1 22/3/1 24/3/1
f 26/2/1 23/2/1 25/2/1
f 30/2/1 28/2/1 27/2/1
f 31/3/1 29/3/1 28/3/1
f 31/2/1 28/2/1 30/2/1
f 32/3/1 29/3/1 31/3/1
f 36/3/1 34/3/1 33/3/1
f 37/2/1 35/2/1 34/2/1
f 37/3/1 34/3/1 36/3/1
f 38/2/1 35/2/1 37/2/1
f 42/2/1 40/2/1 39/2/1
f 43/3/1 41/3/1 40/3/1
f 43/2/1 40/2/1 42/2/1
f 44/3/1 41/3/1 43/3/1
f 48/3/1 46/3/1 45/3/1
f 48/3/1 47/3/1 46/3/1
f 49/3/1 47/3/1 48/3/1
f 53/3/1 51/3/1 50/3/1
f 54/2/1 52/2/1 51/2/1
f 54/3/1 51/3/1 53/3/1
f 55/2/1 52/2/1 54/2/1
f 59/2/1 57/2/1 56/2/1
f 60/3/1 58/3/1 57/3/1
f 60/2/1 57/2/1 59/2/1
f 61/3/1 58/3/1 60/3/1
f 65/3/1 63/3/1 62/3/1
f 65/3/1 64/3/1 63/3/1
f 66/3/1 64/3/1 65/3/1
f 70/2/1 68/2/1 67/2/1
f 71/3/1 69/3/1 68/3/1
f 71/2/1 68/2/1 70/2/1
f 72/3/1 69/3/1 71/3/1
f 76/3/1 74/3/1 73/3/1
f 77/2/1 75/2/1 74/2/1
f 77/3/1 74/3/1 76/3/1
f 78/2/1 75/2/1 77/2/1
f 82/3/1 80/3/1 79/3/1
f 83/2/1 81/2/1 80/2/1
f 83/3/1 80/3/1 82/3/1
f 84/2/1 81/2/1 83/2/1
f 88/2/1 86/2/1 85/2/1
f 89/3/1 87/3/1 86/3/1
f 89/2/1 86/2/1 88/2/1
f 90/3/1 87/3/1 89/3/1
f 94/3/1 92/3/1 91/3/1
f 94/3/1 93/3/1 92/3/1
f 95/3/1 93/3/1 94/3/1
f 99/3/1 97/3/1 96/3/1
f 100/2/1 98/2/1 97/2/1
f 100/3/1 97/3/1 99/3/1
f 101/2/1 98/2/1 100/2/1
f 105/3/1 103/3/1 102/3/1
f 105/3/1 104/3/1 103/3/1
f 106/3/1 104/3/1 105/3/1
f 110/2/1 108/2/1 107/2/1
f 111/3/1 109/3/1 108/3/1
f 111/2/1 108/2/1 110/2/1
f 112/3/1 109/3/1 111/3/1
f 113/1/2 114/1/2 115/1/2
f 115/1/2 114/1/2 116/1/2
f 117/1/2 118/1/2 119/1/2
f 119/1/2 118/1/2 120/1/2
f 121/1/2 122/1/2 123/1/2
f 123/1/2 122/1/2 124/1/2
f 125/1/2 126/1/2 127/1/2
f 127/1/2 126/1/2 128/1/2
f 129/1/2 130/1/2 131/1/2
f 131/1/2 130/1/2 132/1/2
f 133/1/2 134/1/2 135/1/2
f 135/1/2 134/1/2 136/1/2
f 137/1/2 138/1/2 139/1/2
f 139/1/2 138/1/2 140/1/2
f 141/1/2 142/1/2 143/1/2
f 143/1/2 142/1/2 144/1/2
f 145/1/2 146/1/2 147/1/2
f 147/1/2 146/1/2 148/1/2
f 149/1/2 150/1/2 151/1/2
f 151/1/2 150/1/2 152/1/2
f 153/1/2 154/1/2 155/1/2
f 155/1/2 154/1/2 156/1/2
f 157/1/2 158/1/2 159/1/2
f 159/1/2 158/1/2 160/1/2
f 161/1/2 162/1/2 163/1/2
f 163/1/2 162/1/2 164/1/2
f 165/1/2 166/1/2 167/1/2
f 167/1/2 166/1/2 168/1/2
f 169/1/2 170/1/2 171/1/2
f 171/1/2 170/1/2 172/1/2
f 173/1/2 174/1/2 175/1/2
f 175/1/2 174/1/2 176/1/2
f 177/1/2 178/1/2 179/1/2
f 179/1/2 178/1/2 180/1/2
f 181/1/2 182/1/2 183/1/2
f 183/1/2 182/1/2 184/1/2
f 184/1/2 182/1/2 185/1/2
f 186/1/2 187/1/2 189/1/2
f 187/2/2 188/2/2 190/2/2
f 189/1/2 187/1/2 190/1/2
f 190/2/2 188/2/2 191/2/2
f 189/2/2 190/2/2 192/2/2
f 190/3/2 191/3/2 193/3/2
f 192/2/2 190/2/2 193/2/2
f 193/3/2 191/3/2 194/3/2
f 198/1/3 196/1/3 195/1/3
f 199/5/3 197/5/3 196/5/3
f 199/1/3 196/1/3 198/1/3
f 200/5/3 197/5/3 199/5/3
f 202/1/3 200/1/3 199/1/3
f 203/2/3 201/2/3 200/2/3
f 203/1/3 200/1/3 202/1/3
f 204/2/3 201/2/3 203/2/3
f 206/1/3 204/1/3 203/1/3
f 207/2/3 205/2/3 204/2/3
f 207/1/3 204/1/3 206/1/3
f 208/2/3 205/2/3 207/2/3
f 210/1/3 208/1/3 207/1/3
f 211/3/3 209/3/3 208/3/3
f 211/1/3 208/1/3 210/1/3
f 212/3/3 209/3/3 211/3/3
f 214/1/3 212/1/3 211/1/3
f 215/2/3 213/2/3 212/2/3
f 215/1/3 212/1/3 214/1/3
f 216/2/3 213/2/3 215/2/3
f 218/1/3 216/1/3 215/1/3
f 219/3/3 217/3/3 216/3/3
f 219/1/3 216/1/3 218/1/3
f 220/3/3 217/3/3 219/3/3
f 222/1/3 220/1/3 219/1/3
f 223/2/3 221/2/3 220/2/3
f 223/1/3 220/1/3 222/1/3
f 224/2/3 221/2/3 223/2/3
f 226/1/3 224/1/3 223/1/3
f 227/3/3 225/3/3 224/3/3
f 227/1/3 224/1/3 226/1/3
f 228/3/3 225/3/3 227/3/3
f 230/1/3 228/1/3 227/1/3
f 231/3/3 229/3/3 228/3/3
f 231/1/3 228/1/3 230/1/3
f 232/3/3 229/3/3 231/3/3
f 234/1/3 232/1/3 231/1/3
f 235/2/3 233/2/3 232/2/3
f 235/1/3 232/1/3 234/1/3
f 236/2/3 233/2/3 235/2/3
f 238/1/3 236/1/3 235/1/3
f 239/3/3 237/3/3 236/3/3
f 239/1/3 236/1/3 238/1/3
f 240/3/3 237/3/3 239/3/3
f 242/1/3 240/1/3 239/1/3
f 243/2/3 241/2/3 240/2/3
f 243/1/3 240/1/3 242/1/3
f 244/2/3 241/2/3 243/2/3
f 246/1/3 244/1/3 243/1/3
f 247/3/3 245/3/3 244/3/3
f 247/1/3 244/1/3 246/1/3
f 248/3/3 245/3/3 247/3/3
f 250/1/3 248/1/3 247/1/3
f 251/3/3 249/3/3 248/3/3
f 251/1/3 248/1/3 250/1/3
f 252/3/3 249/3/3 251/3/3
f 254/1/3 252/1/3 251/1/3
f 255/2/3 253/2/3 252/2/3
f 255/1/3 252/1/3 254/1/3
f 256/2/3 253/2/3 255/2/3
f 258/1/3 256/1/3 255/1/3
f 259/3/3 257/3/3 256/3/3
f 259/1/3 256/1/3 258/1/3
f 260/3/3 257/3/3 259/3/3
f 262/1/3 260/1/3 259/1/3
f 263/3/3 261/3/3 260/3/3
f 263/1/3 260/1/3 262/1/3
f 264/3/3 261/3/3 263/3/3
f 266/1/3 264/1/3 263/1/3
f 267/3/3 265/3/3 264/3/3
f 267/1/3 264/1/3 266/1/3
f 268/3/3 265/3/3 267/3/3
f 270/1/3 268/1/3 267/1/3
f 271/2/3 269/2/3 268/2/3
f 271/1/3 268/1/3 270/1/3
f 272/2/3 269/2/3 271/2/3
f 273/1/4 274/1/4 276/1/4
f 274/4/4 275/4/4 277/4/4
f 276/1/4 274/1/4 277/1/4
f 277/4/4 275/4/4 278/4/4
f 277/1/4 278/1/4 280/1/4
f 278/3/4 279/3/4 281/3/4
f 280/1/4 278/1/4 281/1/4
f 281/3/4 279/3/4 282/3/4
f 281/1/4 282/1/4 284/1/4
f 282/3/4 283/3/4 285/3/4
f 284/1/4 282/1/4 285/1/4
f 285/3/4 283/3/4 286/3/4
f 285/1/4 286/1/4 288/1/4
f 286/2/4 287/2/4 289/2/4
f 288/1/4 286/1/4 289/1/4
f 289/2/4 287/2/4 290/2/4
f 289/1/4 290/1/4 292/1/4
f 290/3/4 291/3/4 293/3/4
f 292/1/4 290/1/4 293/1/4
f 293/3/4 291/3/4 294/3/4
f 293/1/4 294/1/4 296/1/4
f 294/2/4 295/2/4 297/2/4
f 296/1/4 294/1/4 297/1/4
f 297/2/4 295/2/4 298/2/4
f 297/1/4 298/1/4 300/1/4
f 298/3/4 299/3/4 301/3/4
f 300/1/4 298/1/4 301/1/4
f 301/3/4 299/3/4 302/3/4
f 301/1/4 302/1/4 304/1/4
f 302/3/4 303/3/4 305/3/4
f 304/1/4 302/1/4 305/1/4
f 305/3/4 303/3/4 306/3/4
f 305/1/4 306/1/4 308/1/4
f 306/2/4 307/2/4 309/2/4
f 308/1/4 306/1/4 309/1/4
f 309/2/4 307/2/4 310/2/4
f 309/1/4 310/1/4 312/1/4
f 310/3/4 311/3/4 313/3/4
f 312/1/4 310/1/4 313/1/4
f 313/3/4 311/3/4 314/3/4
f 313/1/4 314/1/4 316/1/4
f 314/3/4 315/3/4 317/3/4
f 316/1/4 314/1/4 317/1/4
f 317/3/4 315/3/4 318/3/4
f 317/1/4 318/1/4 320/1/4
f 318/3/4 319/3/4 321/3/4
f 320/1/4 318/1/4 321/1/4
f 321/3/4 319/3/4 322/3/4
f 321/1/4 322/1/4 324/1/4
f 322/2/4 323/2/4 325/2/4
f 324/1/4 322/1/4 325/1/4
f 325/2/4 323/2/4 326/2/4
f 325/1/4 326/1/4 328/1/4
f 326/2/4 327/2/4 329/2/4
f 328/1/4 326/1/4 329/1/4
f 329/2/4 327/2/4 330/2/4
f 329/1/4 330/1/4 332/1/4
f 330/3/4 331/3/4 333/3/4
f 332/1/4 330/1/4 333/1/4
f 333/3/4 331/3/4 334/3/4
f 333/1/4 334/1/4 336/1/4
f 334/3/4 335/3/4 337/3/4
f 336/1/4 334/1/4 337/1/4
f 337/3/4 335/3/4 338/3/4
f 337/1/4 338/1/4 340/1/4
f 338/2/4 339/2/4 341/2/4
f 340/1/4 338/1/4 341/1/4
f 341/2/4 339/2/4 342/2/4
f 341/1/4 342/1/4 344/1/4
f 342/3/4 343/3/4 345/3/4
f 344/1/4 342/1/4 345/1/4
f 345/3/4 343/3/4 346/3/4
f 345/2/4 346/2/4 348/2/4
f 346/3/4 347/3/4 349/3/4
f 348/2/4 346/2/4 349/2/4
f 349/3/4 347/3/4 350/3/4
f 353/1/5 352/1/5 351/1/5
f 354/1/5 352/1/5 353/1/5
f 357/1/5 356/1/5 355/1/5
f 358/1/5 356/1/5 357/1/5
f 361/1/5 360/1/5 359/1/5
f 362/1/5 360/1/5 361/1/5
f 365/1/5 364/1/5 363/1/5
f 366/1/5 364/1/5 365/1/5
f 369/1/5 368/1/5 367/1/5
f 370/1/5 368/1/5 369/1/5
f 373/1/5 372/1/5 371/1/5
f 374/1/5 372/1/5 373/1/5
f 377/1/5 376/1/5 375/1/5
f 378/1/5 376/1/5 377/1/5
f 381/1/5 380/1/5 379/1/5
f 382/1/5 380/1/5 381/1/5
f 385/1/5 384/1/5 383/1/5
f 386/1/5 384/1/5 385/1/5
f 389/1/5 388/1/5 387/1/5
f 390/1/5 388/1/5 389/1/5
f 393/1/5 392/1/5 391/1/5
f 394/1/5 392/1/5 393/1/5
f 397/1/5 396/1/5 395/1/5
f 398/1/5 396/1/5 397/1/5
f 401/1/5 400/1/5 399/1/5
f 402/1/5 400/1/5 401/1/5
f 405/1/5 404/1/5 403/1/5
f 406/1/5 404/1/5 405/1/5
f 409/1/5 408/1/5 407/1/5
f 410/1/5 408/1/5 409/1/5
f 413/1/5 412/1/5 411/1/5
f 414/1/5 412/1/5 413/1/5
f 417/1/5 416/1/5 415/1/5
f 418/1/5 416/1/5 417/1/5
f 421/1/5 420/1/5 419/1/5
f 422/1/5 420/1/5 421/1/5
f 425/1/5 424/1/5 423/1/5
f 426/1/5 424/1/5 425/1/5
f 427/2/5 426/2/5 425/2/5
f 428/2/5 426/2/5 427/2/5
f 429/5/6 430/5/6 431/5/6
f 431/5/6 430/5/6 432/5/6
f 431/4/6 432/4/6 433/4/6
f 433/4/6 432/4/6 434/4/6
f 435/2/6 436/2/6 437/2/6
f 437/2/6 436/2/6 438/2/6
f 437/3/6 438/3/6 439/3/6
f 439/3/6 438/3/6 440/3/6
f 441/2/6 442/2/6 443/2/6
f 443/2/6 442/2/6 444/2/6
f 443/3/6 444/3/6 445/3/6
f 445/3/6 444/3/6 446/3/6
f 447/3/6 448/3/6 449/3/6
f 449/3/6 448/3/6 450/3/6
f 449/2/6 450/2/6 451/2/6
f 451/2/6 450/2/6 452/2/6
f 453/2/6 454/2/6 455/2/6
f 455/2/6 454/2/6 456/2/6
f 455/3/6 456/3/6 457/3/6
f 457/3/6 456/3/6 458/3/6
f 459/3/6 460/3/6 461/3/6
f 461/3/6 460/3/6 462/3/6
f 461/2/6 462/2/6 463/2/6
f 463/2/6 462/2/6 464/2/6
f 465/2/6 466/2/6 467/2/6
f 467/2/6 466/2/6 468/2/6
f 467/3/6 468/3/6 469/3/6
f 469/3/6 468/3/6 470/3/6
f 471/3/6 472/3/6 473/3/6
f 471/3/6 473/3/6 474/3/6
f 474/3/6 473/3/6 475/3/6
f 476/3/6 477/3/6 478/3/6
f 478/3/6 477/3/6 479/3/6
f 478/2/6 479/2/6 480/2/6
f 480/2/6 479/2/6 481/2/6
f 482/2/6 483/2/6 484/2/6
f 484/2/6 483/2/6 485/2/6
f 484/3/6 485/3/6 486/3/6
f 486/3/6 485/3/6 487/3/6
f 488/3/6 489/3/6 490/3/6
f 488/3/6 490/3/6 491/3/6
f 491/3/6 490/3/6 492/3/6
f 493/2/6 494/2/6 495/2/6
f 495/2/6 494/2/6 496/2/6
f 495/3/6 496/3/6 497/3/6
f 497/3/6 496/3/6 498/3/6
f 499/3/6 500/3/6 501/3/6
f 501/3/6 500/3/6 502/3/6
f 501/2/6 502/2/6 503/2/6
f 503/2/6 502/2/6 504/2/6
f 505/3/6 506/3/6 507/3/6
f 507/3/6 506/3/6 508/3/6
f 507/2/6 508/2/6 509/2/6
f 509/2/6 508/2/6 510/2/6
f 511/2/6 512/2/6 513/2/6
f 513/2/6 512/2/6 514/2/6
f 513/3/6 514/3/6 515/3/6
f 515/3/6 514/3/6 516/3/6
f 517/3/6 518/3/6 519/3/6
f 517/3/6 519/3/6 520/3/6
f 520/3/6 519/3/6 521/3/6
f 522/3/6 523/3/6 524/3/6
f 524/3/6 523/3/6 525/3/6
f 524/2/6 525/2/6 526/2/6
f 526/2/6 525/2/6 527/2/6
f 528/3/6 529/3/6 530/3/6
f 528/3/6 530/3/6 531/3/6
f 531/3/6 530/3/6 532/3/6
f 533/2/6 534/2/6 535/2/6
f 535/2/6 534/2/6 536/2/6
f 535/3/6 536/3/6 537/3/6
f 537/3/6 536/3/6 538/3/6
