# MagicaVoxel @ Ephtracy

# group
o 

# material
mtllib AxeTrap.mtl
usemtl palette

# normals
vn -1 0 0
vn 1 0 0
vn 0 0 1
vn 0 0 -1
vn 0 -1 0
vn 0 1 0

# texcoords
vt 0.826172 0.5
vt 0.830078 0.5
vt 0.833984 0.5
vt 0.841797 0.5
vt 0.958984 0.5
vt 0.962891 0.5

# verts
v -1.6 -0.8 1.5
v -1.6 -0.8 -1.6
v -1.6 -0.6 1.3
v -1.6 -0.6 0.7
v -1.6 -0.6 0.6
v -1.6 -0.6 -0.1
v -1.6 -0.6 -0.2
v -1.6 -0.6 -0.7
v -1.6 -0.6 -0.8
v -1.6 -0.6 -1.4
v -1.6 -0.2 1.3
v -1.6 -0.2 0.7
v -1.6 -0.2 0.6
v -1.6 -0.2 -0.1
v -1.6 -0.2 -0.2
v -1.6 -0.2 -0.7
v -1.6 -0.2 -0.8
v -1.6 -0.2 -1.4
v -1.6 -0.1 1.3
v -1.6 -0.1 1.1
v -1.6 -0.1 1
v -1.6 -0.1 0.3
v -1.6 -0.1 0.2
v -1.6 -0.1 -0.4
v -1.6 -0.1 -0.5
v -1.6 -0.1 -1.1
v -1.6 -0.1 -1.2
v -1.6 -0.1 -1.4
v -1.6 0.3 1.3
v -1.6 0.3 1.1
v -1.6 0.3 1
v -1.6 0.3 0.3
v -1.6 0.3 0.2
v -1.6 0.3 -0.4
v -1.6 0.3 -0.5
v -1.6 0.3 -1.1
v -1.6 0.3 -1.2
v -1.6 0.3 -1.4
v -1.6 0.4 1.3
v -1.6 0.4 0.6
v -1.6 0.4 0.5
v -1.6 0.4 -0.2
v -1.6 0.4 -0.3
v -1.6 0.4 -1
v -1.6 0.4 -1.1
v -1.6 0.4 -1.4
v -1.6 0.8 1.3
v -1.6 0.8 0.6
v -1.6 0.8 0.5
v -1.6 0.8 -0.2
v -1.6 0.8 -0.3
v -1.6 0.8 -1
v -1.6 0.8 -1.1
v -1.6 0.8 -1.4
v -1.6 0.9 1.3
v -1.6 0.9 1
v -1.6 0.9 0.9
v -1.6 0.9 0.2
v -1.6 0.9 0.1
v -1.6 0.9 -0.5
v -1.6 0.9 -0.6
v -1.6 0.9 -1.2
v -1.6 0.9 -1.3
v -1.6 0.9 -1.4
v -1.6 1.3 1.3
v -1.6 1.3 1
v -1.6 1.3 0.9
v -1.6 1.3 0.2
v -1.6 1.3 0.1
v -1.6 1.3 -0.5
v -1.6 1.3 -0.6
v -1.6 1.3 -1.2
v -1.6 1.3 -1.3
v -1.6 1.3 -1.4
v -1.6 1.4 1.3
v -1.6 1.4 0.9
v -1.6 1.4 0.8
v -1.6 1.4 0.1
v -1.6 1.4 0
v -1.6 1.4 -0.7
v -1.6 1.4 -0.8
v -1.6 1.4 -1.4
v -1.6 1.8 1.3
v -1.6 1.8 0.9
v -1.6 1.8 0.8
v -1.6 1.8 0.1
v -1.6 1.8 0
v -1.6 1.8 -0.7
v -1.6 1.8 -0.8
v -1.6 1.8 -1.4
v -1.6 1.9 1.3
v -1.6 1.9 0.8
v -1.6 1.9 0.7
v -1.6 1.9 0
v -1.6 1.9 -0.1
v -1.6 1.9 -0.8
v -1.6 1.9 -0.9
v -1.6 1.9 -1.4
v -1.6 2.1 1.3
v -1.6 2.1 0.8
v -1.6 2.1 0.7
v -1.6 2.1 0
v -1.6 2.1 -0.1
v -1.6 2.1 -0.8
v -1.6 2.1 -0.9
v -1.6 2.1 -1.4
v -1.6 2.3 1.5
v -1.6 2.3 -1.6
v -0.2 0.7 1.6
v -0.2 0.7 1.5
v -0.2 0.8 1.5
v -0.2 0.9 1.5
v -0.2 1.1 1.6
v -0.2 1.1 1.5
v -0.2 2.3 0.2
v -0.2 2.3 -0.7
v -0.2 2.4 0.2
v -0.2 2.4 -0.7
v 0.1 0.8 1.6
v 0.1 0.8 1.5
v 0.1 0.8 -0.1
v 0.1 0.8 -0.6
v 0.1 0.9 -0.1
v 0.1 0.9 -0.6
v 0.1 1.1 1.6
v 0.1 1.1 1.5
v 0.1 1.1 1.4
v 0.1 2.2 1.4
v 0.1 2.2 0.1
v 0.1 2.3 1.5
v 0.1 2.3 0.2
v 0.1 2.3 0.1
v 0.1 2.3 -0.6
v 0.1 2.4 0.2
v 0.1 2.4 -0.6
v -0.1 0.8 1.6
v -0.1 0.8 1.5
v -0.1 0.8 -0.6
v -0.1 1.1 1.6
v -0.1 1.1 1.5
v -0.1 1.1 1.4
v -0.1 2.2 1.4
v -0.1 2.2 0.1
v -0.1 2.3 1.5
v -0.1 2.3 0.2
v -0.1 2.3 0.1
v -0.1 2.3 -0.6
v -0.1 2.4 0.2
v -0.1 2.4 -0.6
v 0.2 0.7 1.6
v 0.2 0.7 1.5
v 0.2 0.8 1.5
v 0.2 0.9 1.5
v 0.2 1.1 1.6
v 0.2 1.1 1.5
v 0.2 2.3 0.2
v 0.2 2.3 -0.7
v 0.2 2.4 0.2
v 0.2 2.4 -0.7
v 1.6 -0.8 1.5
v 1.6 -0.8 -1.6
v 1.6 -0.6 1.3
v 1.6 -0.6 0.7
v 1.6 -0.6 0.6
v 1.6 -0.6 -0.1
v 1.6 -0.6 -0.2
v 1.6 -0.6 -0.7
v 1.6 -0.6 -0.8
v 1.6 -0.6 -1.4
v 1.6 -0.2 1.3
v 1.6 -0.2 0.7
v 1.6 -0.2 0.6
v 1.6 -0.2 -0.1
v 1.6 -0.2 -0.2
v 1.6 -0.2 -0.7
v 1.6 -0.2 -0.8
v 1.6 -0.2 -1.4
v 1.6 -0.1 1.3
v 1.6 -0.1 1.1
v 1.6 -0.1 1
v 1.6 -0.1 0.3
v 1.6 -0.1 0.2
v 1.6 -0.1 -0.4
v 1.6 -0.1 -0.5
v 1.6 -0.1 -1.1
v 1.6 -0.1 -1.2
v 1.6 -0.1 -1.4
v 1.6 0.3 1.3
v 1.6 0.3 1.1
v 1.6 0.3 1
v 1.6 0.3 0.3
v 1.6 0.3 0.2
v 1.6 0.3 -0.4
v 1.6 0.3 -0.5
v 1.6 0.3 -1.1
v 1.6 0.3 -1.2
v 1.6 0.3 -1.4
v 1.6 0.4 1.3
v 1.6 0.4 0.6
v 1.6 0.4 0.5
v 1.6 0.4 -0.2
v 1.6 0.4 -0.3
v 1.6 0.4 -1
v 1.6 0.4 -1.1
v 1.6 0.4 -1.4
v 1.6 0.8 1.3
v 1.6 0.8 0.6
v 1.6 0.8 0.5
v 1.6 0.8 -0.2
v 1.6 0.8 -0.3
v 1.6 0.8 -1
v 1.6 0.8 -1.1
v 1.6 0.8 -1.4
v 1.6 0.9 1.3
v 1.6 0.9 1
v 1.6 0.9 0.9
v 1.6 0.9 0.2
v 1.6 0.9 0.1
v 1.6 0.9 -0.5
v 1.6 0.9 -0.6
v 1.6 0.9 -1.2
v 1.6 0.9 -1.3
v 1.6 0.9 -1.4
v 1.6 1.3 1.3
v 1.6 1.3 1
v 1.6 1.3 0.9
v 1.6 1.3 0.2
v 1.6 1.3 0.1
v 1.6 1.3 -0.5
v 1.6 1.3 -0.6
v 1.6 1.3 -1.2
v 1.6 1.3 -1.3
v 1.6 1.3 -1.4
v 1.6 1.4 1.3
v 1.6 1.4 0.9
v 1.6 1.4 0.8
v 1.6 1.4 0.1
v 1.6 1.4 0
v 1.6 1.4 -0.7
v 1.6 1.4 -0.8
v 1.6 1.4 -1.4
v 1.6 1.8 1.3
v 1.6 1.8 0.9
v 1.6 1.8 0.8
v 1.6 1.8 0.1
v 1.6 1.8 0
v 1.6 1.8 -0.7
v 1.6 1.8 -0.8
v 1.6 1.8 -1.4
v 1.6 1.9 1.3
v 1.6 1.9 0.8
v 1.6 1.9 0.7
v 1.6 1.9 0
v 1.6 1.9 -0.1
v 1.6 1.9 -0.8
v 1.6 1.9 -0.9
v 1.6 1.9 -1.4
v 1.6 2.1 1.3
v 1.6 2.1 0.8
v 1.6 2.1 0.7
v 1.6 2.1 0
v 1.6 2.1 -0.1
v 1.6 2.1 -0.8
v 1.6 2.1 -0.9
v 1.6 2.1 -1.4
v 1.6 2.3 1.5
v 1.6 2.3 -1.6
v -0.2 0.7 1.6
v -0.2 1.1 1.6
v -0.1 0.8 1.6
v -0.1 1.1 1.6
v 0.1 0.8 1.6
v 0.1 1.1 1.6
v 0.2 0.7 1.6
v 0.2 1.1 1.6
v -1.6 -0.8 1.5
v -1.6 2.3 1.5
v -1.4 -0.6 1.5
v -1.4 -0.2 1.5
v -1.4 -0.1 1.5
v -1.4 0.3 1.5
v -1.4 0.4 1.5
v -1.4 0.8 1.5
v -1.4 0.9 1.5
v -1.4 1.3 1.5
v -1.4 1.4 1.5
v -1.4 1.8 1.5
v -1.4 1.9 1.5
v -1.4 2.1 1.5
v -1.2 -0.6 1.5
v -1.2 -0.2 1.5
v -1.1 -0.6 1.5
v -1.1 -0.2 1.5
v -1.1 0.9 1.5
v -1.1 1.3 1.5
v -1 0.9 1.5
v -1 1.3 1.5
v -0.9 1.9 1.5
v -0.9 2.1 1.5
v -0.8 0.4 1.5
v -0.8 0.8 1.5
v -0.8 1.9 1.5
v -0.8 2.1 1.5
v -0.7 -0.1 1.5
v -0.7 0.3 1.5
v -0.7 0.4 1.5
v -0.7 0.8 1.5
v -0.7 1.4 1.5
v -0.7 1.8 1.5
v -0.6 -0.1 1.5
v -0.6 0.3 1.5
v -0.6 1.4 1.5
v -0.6 1.8 1.5
v -0.4 -0.6 1.5
v -0.4 -0.2 1.5
v -0.3 -0.6 1.5
v -0.3 -0.2 1.5
v -0.2 0.7 1.5
v -0.2 0.8 1.5
v -0.2 0.9 1.5
v -0.2 1.1 1.5
v -0.2 1.3 1.5
v -0.2 1.4 1.5
v -0.2 1.8 1.5
v -0.2 1.9 1.5
v -0.2 2.1 1.5
v -0.2 2.3 1.5
v -0.1 1.1 1.5
v -0.1 2.3 1.5
v 0 0.4 1.5
v 0 0.7 1.5
v 0.1 -0.1 1.5
v 0.1 0.3 1.5
v 0.1 0.4 1.5
v 0.1 0.7 1.5
v 0.1 1.1 1.5
v 0.1 2.3 1.5
v 0.2 -0.1 1.5
v 0.2 0.3 1.5
v 0.2 0.7 1.5
v 0.2 0.8 1.5
v 0.2 0.9 1.5
v 0.2 1.1 1.5
v 0.2 1.3 1.5
v 0.2 1.4 1.5
v 0.2 1.8 1.5
v 0.2 1.9 1.5
v 0.2 2.1 1.5
v 0.2 2.3 1.5
v 0.6 -0.6 1.5
v 0.6 -0.2 1.5
v 0.6 0.9 1.5
v 0.6 1.3 1.5
v 0.6 1.9 1.5
v 0.6 2.1 1.5
v 0.7 -0.6 1.5
v 0.7 -0.2 1.5
v 0.7 0.4 1.5
v 0.7 0.8 1.5
v 0.7 0.9 1.5
v 0.7 1.3 1.5
v 0.7 1.9 1.5
v 0.7 2.1 1.5
v 0.8 -0.1 1.5
v 0.8 0.3 1.5
v 0.8 0.4 1.5
v 0.8 0.8 1.5
v 0.8 1.4 1.5
v 0.8 1.8 1.5
v 0.9 -0.1 1.5
v 0.9 0.3 1.5
v 0.9 1.4 1.5
v 0.9 1.8 1.5
v 1.4 -0.6 1.5
v 1.4 -0.2 1.5
v 1.4 -0.1 1.5
v 1.4 0.3 1.5
v 1.4 0.4 1.5
v 1.4 0.8 1.5
v 1.4 0.9 1.5
v 1.4 1.3 1.5
v 1.4 1.4 1.5
v 1.4 1.8 1.5
v 1.4 1.9 1.5
v 1.4 2.1 1.5
v 1.6 -0.8 1.5
v 1.6 2.3 1.5
v -0.2 2.3 0.2
v -0.2 2.4 0.2
v -0.1 2.3 0.2
v -0.1 2.4 0.2
v 0.1 2.3 0.2
v 0.1 2.4 0.2
v 0.2 2.3 0.2
v 0.2 2.4 0.2
v -0.1 0.8 -0.6
v -0.1 2.3 -0.6
v -0.1 2.4 -0.6
v 0.1 0.8 -0.6
v 0.1 0.9 -0.6
v 0.1 2.3 -0.6
v 0.1 2.4 -0.6
v -0.2 2.3 -0.7
v -0.2 2.4 -0.7
v 0.2 2.3 -0.7
v 0.2 2.4 -0.7
v -1.6 -0.8 -1.6
v -1.6 2.3 -1.6
v -1.5 -0.7 -1.6
v -1.5 2.2 -1.6
v -1.4 -0.2 -1.6
v -1.4 -0.1 -1.6
v -1.4 0.3 -1.6
v -1.4 0.4 -1.6
v -1.4 0.8 -1.6
v -1.4 0.9 -1.6
v -1.4 1.3 -1.6
v -1.4 1.4 -1.6
v -1.4 1.8 -1.6
v -1.4 1.9 -1.6
v -1.2 -0.6 -1.6
v -1.2 -0.2 -1.6
v -1.1 -0.6 -1.6
v -1.1 -0.2 -1.6
v -1.1 0.9 -1.6
v -1.1 1.3 -1.6
v -1 0.9 -1.6
v -1 1.3 -1.6
v -0.9 1.9 -1.6
v -0.9 2.1 -1.6
v -0.8 0.4 -1.6
v -0.8 0.8 -1.6
v -0.8 1.9 -1.6
v -0.8 2.1 -1.6
v -0.7 -0.1 -1.6
v -0.7 0.3 -1.6
v -0.7 0.4 -1.6
v -0.7 0.8 -1.6
v -0.7 1.4 -1.6
v -0.7 1.8 -1.6
v -0.6 -0.1 -1.6
v -0.6 0.3 -1.6
v -0.6 1.4 -1.6
v -0.6 1.8 -1.6
v -0.4 -0.6 -1.6
v -0.4 -0.2 -1.6
v -0.3 -0.6 -1.6
v -0.3 -0.2 -1.6
v -0.2 0.9 -1.6
v -0.2 1.3 -1.6
v -0.2 1.9 -1.6
v -0.2 2.1 -1.6
v -0.1 0.9 -1.6
v -0.1 1.3 -1.6
v -0.1 1.9 -1.6
v -0.1 2.1 -1.6
v 0 0.4 -1.6
v 0 0.8 -1.6
v 0.1 -0.1 -1.6
v 0.1 0.3 -1.6
v 0.1 0.4 -1.6
v 0.1 0.8 -1.6
v 0.1 1.4 -1.6
v 0.1 1.8 -1.6
v 0.2 -0.1 -1.6
v 0.2 0.3 -1.6
v 0.2 1.4 -1.6
v 0.2 1.8 -1.6
v 0.6 -0.6 -1.6
v 0.6 -0.2 -1.6
v 0.6 0.9 -1.6
v 0.6 1.3 -1.6
v 0.6 1.9 -1.6
v 0.6 2.1 -1.6
v 0.7 -0.6 -1.6
v 0.7 -0.2 -1.6
v 0.7 0.4 -1.6
v 0.7 0.8 -1.6
v 0.7 0.9 -1.6
v 0.7 1.3 -1.6
v 0.7 1.9 -1.6
v 0.7 2.1 -1.6
v 0.8 -0.1 -1.6
v 0.8 0.3 -1.6
v 0.8 0.4 -1.6
v 0.8 0.8 -1.6
v 0.8 1.4 -1.6
v 0.8 1.8 -1.6
v 0.9 -0.1 -1.6
v 0.9 0.3 -1.6
v 0.9 1.4 -1.6
v 0.9 1.8 -1.6
v 1.4 -0.2 -1.6
v 1.4 -0.1 -1.6
v 1.4 0.3 -1.6
v 1.4 0.4 -1.6
v 1.4 0.8 -1.6
v 1.4 0.9 -1.6
v 1.4 1.3 -1.6
v 1.4 1.4 -1.6
v 1.4 1.8 -1.6
v 1.4 1.9 -1.6
v 1.5 -0.7 -1.6
v 1.5 2.2 -1.6
v 1.6 -0.8 -1.6
v 1.6 2.3 -1.6
v -1.6 -0.8 1.5
v 1.6 -0.8 1.5
v -1.4 -0.8 1.3
v -1.2 -0.8 1.3
v -1.1 -0.8 1.3
v -0.4 -0.8 1.3
v -0.3 -0.8 1.3
v 0.6 -0.8 1.3
v 0.7 -0.8 1.3
v 1.4 -0.8 1.3
v -1.4 -0.8 0.9
v -1.2 -0.8 0.9
v -1.1 -0.8 0.9
v -0.4 -0.8 0.9
v -0.3 -0.8 0.9
v 0.6 -0.8 0.9
v 0.7 -0.8 0.9
v 1.4 -0.8 0.9
v -1.4 -0.8 0.8
v -0.7 -0.8 0.8
v -0.6 -0.8 0.8
v 0.1 -0.8 0.8
v 0.2 -0.8 0.8
v 0.8 -0.8 0.8
v 0.9 -0.8 0.8
v 1.4 -0.8 0.8
v -1.4 -0.8 0.4
v -0.7 -0.8 0.4
v -0.6 -0.8 0.4
v 0.1 -0.8 0.4
v 0.2 -0.8 0.4
v 0.8 -0.8 0.4
v 0.9 -0.8 0.4
v 1.4 -0.8 0.4
v -1.4 -0.8 0.3
v -0.8 -0.8 0.3
v -0.7 -0.8 0.3
v 0 -0.8 0.3
v 0.1 -0.8 0.3
v 0.7 -0.8 0.3
v 0.8 -0.8 0.3
v 1.4 -0.8 0.3
v -1.4 -0.8 -0.1
v -0.8 -0.8 -0.1
v -0.7 -0.8 -0.1
v 0 -0.8 -0.1
v 0.1 -0.8 -0.1
v 0.7 -0.8 -0.1
v 0.8 -0.8 -0.1
v 1.4 -0.8 -0.1
v -1.4 -0.8 -0.2
v -1.1 -0.8 -0.2
v -1 -0.8 -0.2
v -0.2 -0.8 -0.2
v -0.1 -0.8 -0.2
v 0.6 -0.8 -0.2
v 0.7 -0.8 -0.2
v 1.4 -0.8 -0.2
v -1.4 -0.8 -0.6
v -1.1 -0.8 -0.6
v -1 -0.8 -0.6
v -0.2 -0.8 -0.6
v -0.1 -0.8 -0.6
v 0.6 -0.8 -0.6
v 0.7 -0.8 -0.6
v 1.4 -0.8 -0.6
v -1.4 -0.8 -0.7
v -0.7 -0.8 -0.7
v -0.6 -0.8 -0.7
v 0.1 -0.8 -0.7
v 0.2 -0.8 -0.7
v 0.8 -0.8 -0.7
v 0.9 -0.8 -0.7
v 1.4 -0.8 -0.7
v -1.4 -0.8 -1.1
v -0.7 -0.8 -1.1
v -0.6 -0.8 -1.1
v 0.1 -0.8 -1.1
v 0.2 -0.8 -1.1
v 0.8 -0.8 -1.1
v 0.9 -0.8 -1.1
v 1.4 -0.8 -1.1
v -1.4 -0.8 -1.2
v -0.9 -0.8 -1.2
v -0.8 -0.8 -1.2
v -0.2 -0.8 -1.2
v -0.1 -0.8 -1.2
v 0.6 -0.8 -1.2
v 0.7 -0.8 -1.2
v 1.4 -0.8 -1.2
v -1.4 -0.8 -1.4
v -0.9 -0.8 -1.4
v -0.8 -0.8 -1.4
v -0.2 -0.8 -1.4
v -0.1 -0.8 -1.4
v 0.6 -0.8 -1.4
v 0.7 -0.8 -1.4
v 1.4 -0.8 -1.4
v -1.6 -0.8 -1.6
v 1.6 -0.8 -1.6
v -0.2 0.7 1.6
v 0.2 0.7 1.6
v -0.2 0.7 1.5
v 0 0.7 1.5
v 0.1 0.7 1.5
v 0.2 0.7 1.5
v -0.1 0.8 1.6
v 0.1 0.8 1.6
v -0.1 0.8 1.5
v 0.1 0.8 1.5
v 0.1 0.8 -0.1
v -0.1 0.8 -0.6
v 0.1 0.8 -0.6
v -0.2 1.1 1.6
v -0.1 1.1 1.6
v 0.1 1.1 1.6
v 0.2 1.1 1.6
v -0.2 1.1 1.5
v -0.1 1.1 1.5
v 0.1 1.1 1.5
v 0.2 1.1 1.5
v -1.6 2.3 1.5
v -0.2 2.3 1.5
v -0.1 2.3 1.5
v 0.1 2.3 1.5
v 0.2 2.3 1.5
v 1.6 2.3 1.5
v -1.4 2.3 1.3
v -0.2 2.3 1.3
v 0.2 2.3 1.3
v 1.4 2.3 1.3
v -0.2 2.3 0.2
v -0.1 2.3 0.2
v 0.1 2.3 0.2
v 0.2 2.3 0.2
v -0.2 2.3 -0.7
v 0.2 2.3 -0.7
v -1.4 2.3 -1.4
v 1.4 2.3 -1.4
v -1.6 2.3 -1.6
v 1.6 2.3 -1.6
v -0.2 2.4 0.2
v -0.1 2.4 0.2
v 0.1 2.4 0.2
v 0.2 2.4 0.2
v -0.1 2.4 -0.6
v 0.1 2.4 -0.6
v -0.2 2.4 -0.7
v 0.2 2.4 -0.7

# faces
f 3/4/1 2/4/1 1/4/1
f 4/4/1 2/4/1 3/4/1
f 5/4/1 2/4/1 4/4/1
f 6/4/1 2/4/1 5/4/1
f 7/4/1 2/4/1 6/4/1
f 8/4/1 2/4/1 7/4/1
f 9/4/1 2/4/1 8/4/1
f 10/4/1 2/4/1 9/4/1
f 11/4/1 3/4/1 1/4/1
f 11/2/1 4/2/1 3/2/1
f 12/1/1 5/1/1 4/1/1
f 12/2/1 4/2/1 11/2/1
f 13/2/1 6/2/1 5/2/1
f 13/1/1 5/1/1 12/1/1
f 14/1/1 7/1/1 6/1/1
f 14/2/1 6/2/1 13/2/1
f 15/2/1 8/2/1 7/2/1
f 15/1/1 7/1/1 14/1/1
f 16/1/1 9/1/1 8/1/1
f 16/2/1 8/2/1 15/2/1
f 17/2/1 10/2/1 9/2/1
f 17/1/1 9/1/1 16/1/1
f 18/4/1 2/4/1 10/4/1
f 18/2/1 10/2/1 17/2/1
f 19/1/1 17/1/1 16/1/1
f 19/1/1 16/1/1 15/1/1
f 19/1/1 18/1/1 17/1/1
f 19/1/1 15/1/1 14/1/1
f 19/1/1 14/1/1 13/1/1
f 19/1/1 13/1/1 12/1/1
f 19/1/1 12/1/1 11/1/1
f 19/4/1 11/4/1 1/4/1
f 20/1/1 18/1/1 19/1/1
f 21/1/1 18/1/1 20/1/1
f 22/1/1 18/1/1 21/1/1
f 23/1/1 18/1/1 22/1/1
f 24/1/1 18/1/1 23/1/1
f 25/1/1 18/1/1 24/1/1
f 26/1/1 18/1/1 25/1/1
f 27/1/1 18/1/1 26/1/1
f 28/4/1 2/4/1 18/4/1
f 28/1/1 18/1/1 27/1/1
f 29/4/1 19/4/1 1/4/1
f 29/2/1 20/2/1 19/2/1
f 30/1/1 21/1/1 20/1/1
f 30/2/1 20/2/1 29/2/1
f 31/2/1 22/2/1 21/2/1
f 31/1/1 21/1/1 30/1/1
f 32/1/1 23/1/1 22/1/1
f 32/2/1 22/2/1 31/2/1
f 33/2/1 24/2/1 23/2/1
f 33/1/1 23/1/1 32/1/1
f 34/1/1 25/1/1 24/1/1
f 34/2/1 24/2/1 33/2/1
f 35/2/1 26/2/1 25/2/1
f 35/1/1 25/1/1 34/1/1
f 36/1/1 27/1/1 26/1/1
f 36/2/1 26/2/1 35/2/1
f 37/2/1 28/2/1 27/2/1
f 37/1/1 27/1/1 36/1/1
f 38/4/1 2/4/1 28/4/1
f 38/2/1 28/2/1 37/2/1
f 39/1/1 35/1/1 34/1/1
f 39/1/1 37/1/1 36/1/1
f 39/1/1 38/1/1 37/1/1
f 39/1/1 34/1/1 33/1/1
f 39/1/1 33/1/1 32/1/1
f 39/1/1 32/1/1 31/1/1
f 39/1/1 31/1/1 30/1/1
f 39/1/1 30/1/1 29/1/1
f 39/4/1 29/4/1 1/4/1
f 39/1/1 36/1/1 35/1/1
f 40/1/1 38/1/1 39/1/1
f 41/1/1 38/1/1 40/1/1
f 42/1/1 38/1/1 41/1/1
f 43/1/1 38/1/1 42/1/1
f 44/1/1 38/1/1 43/1/1
f 45/1/1 38/1/1 44/1/1
f 46/4/1 2/4/1 38/4/1
f 46/1/1 38/1/1 45/1/1
f 47/4/1 39/4/1 1/4/1
f 47/2/1 40/2/1 39/2/1
f 48/1/1 41/1/1 40/1/1
f 48/2/1 40/2/1 47/2/1
f 49/2/1 42/2/1 41/2/1
f 49/1/1 41/1/1 48/1/1
f 50/1/1 43/1/1 42/1/1
f 50/2/1 42/2/1 49/2/1
f 51/2/1 44/2/1 43/2/1
f 51/1/1 43/1/1 50/1/1
f 52/1/1 45/1/1 44/1/1
f 52/2/1 44/2/1 51/2/1
f 53/2/1 46/2/1 45/2/1
f 53/1/1 45/1/1 52/1/1
f 54/4/1 2/4/1 46/4/1
f 54/2/1 46/2/1 53/2/1
f 55/1/1 51/1/1 50/1/1
f 55/1/1 53/1/1 52/1/1
f 55/1/1 54/1/1 53/1/1
f 55/1/1 50/1/1 49/1/1
f 55/1/1 49/1/1 48/1/1
f 55/1/1 48/1/1 47/1/1
f 55/4/1 47/4/1 1/4/1
f 55/1/1 52/1/1 51/1/1
f 56/1/1 54/1/1 55/1/1
f 57/1/1 54/1/1 56/1/1
f 58/1/1 54/1/1 57/1/1
f 59/1/1 54/1/1 58/1/1
f 60/1/1 54/1/1 59/1/1
f 61/1/1 54/1/1 60/1/1
f 62/1/1 54/1/1 61/1/1
f 63/1/1 54/1/1 62/1/1
f 64/4/1 2/4/1 54/4/1
f 64/1/1 54/1/1 63/1/1
f 65/4/1 55/4/1 1/4/1
f 65/2/1 56/2/1 55/2/1
f 66/1/1 57/1/1 56/1/1
f 66/2/1 56/2/1 65/2/1
f 67/2/1 58/2/1 57/2/1
f 67/1/1 57/1/1 66/1/1
f 68/1/1 59/1/1 58/1/1
f 68/2/1 58/2/1 67/2/1
f 69/2/1 60/2/1 59/2/1
f 69/1/1 59/1/1 68/1/1
f 70/1/1 61/1/1 60/1/1
f 70/2/1 60/2/1 69/2/1
f 71/2/1 62/2/1 61/2/1
f 71/1/1 61/1/1 70/1/1
f 72/1/1 63/1/1 62/1/1
f 72/2/1 62/2/1 71/2/1
f 73/2/1 64/2/1 63/2/1
f 73/1/1 63/1/1 72/1/1
f 74/4/1 2/4/1 64/4/1
f 74/2/1 64/2/1 73/2/1
f 75/1/1 71/1/1 70/1/1
f 75/1/1 73/1/1 72/1/1
f 75/1/1 74/1/1 73/1/1
f 75/1/1 70/1/1 69/1/1
f 75/1/1 69/1/1 68/1/1
f 75/1/1 68/1/1 67/1/1
f 75/1/1 67/1/1 66/1/1
f 75/1/1 66/1/1 65/1/1
f 75/4/1 65/4/1 1/4/1
f 75/1/1 72/1/1 71/1/1
f 76/1/1 74/1/1 75/1/1
f 77/1/1 74/1/1 76/1/1
f 78/1/1 74/1/1 77/1/1
f 79/1/1 74/1/1 78/1/1
f 80/1/1 74/1/1 79/1/1
f 81/1/1 74/1/1 80/1/1
f 82/4/1 2/4/1 74/4/1
f 82/1/1 74/1/1 81/1/1
f 83/4/1 75/4/1 1/4/1
f 83/2/1 76/2/1 75/2/1
f 84/1/1 77/1/1 76/1/1
f 84/2/1 76/2/1 83/2/1
f 85/2/1 78/2/1 77/2/1
f 85/1/1 77/1/1 84/1/1
f 86/1/1 79/1/1 78/1/1
f 86/2/1 78/2/1 85/2/1
f 87/2/1 80/2/1 79/2/1
f 87/1/1 79/1/1 86/1/1
f 88/1/1 81/1/1 80/1/1
f 88/2/1 80/2/1 87/2/1
f 89/2/1 82/2/1 81/2/1
f 89/1/1 81/1/1 88/1/1
f 90/4/1 2/4/1 82/4/1
f 90/2/1 82/2/1 89/2/1
f 91/1/1 87/1/1 86/1/1
f 91/1/1 89/1/1 88/1/1
f 91/1/1 90/1/1 89/1/1
f 91/1/1 86/1/1 85/1/1
f 91/1/1 85/1/1 84/1/1
f 91/1/1 84/1/1 83/1/1
f 91/4/1 83/4/1 1/4/1
f 91/1/1 88/1/1 87/1/1
f 92/1/1 90/1/1 91/1/1
f 93/1/1 90/1/1 92/1/1
f 94/1/1 90/1/1 93/1/1
f 95/1/1 90/1/1 94/1/1
f 96/1/1 90/1/1 95/1/1
f 97/1/1 90/1/1 96/1/1
f 98/4/1 2/4/1 90/4/1
f 98/1/1 90/1/1 97/1/1
f 99/4/1 91/4/1 1/4/1
f 99/2/1 92/2/1 91/2/1
f 100/1/1 93/1/1 92/1/1
f 100/2/1 92/2/1 99/2/1
f 101/2/1 94/2/1 93/2/1
f 101/1/1 93/1/1 100/1/1
f 102/1/1 95/1/1 94/1/1
f 102/2/1 94/2/1 101/2/1
f 103/2/1 96/2/1 95/2/1
f 103/1/1 95/1/1 102/1/1
f 104/1/1 97/1/1 96/1/1
f 104/2/1 96/2/1 103/2/1
f 105/2/1 98/2/1 97/2/1
f 105/1/1 97/1/1 104/1/1
f 106/4/1 2/4/1 98/4/1
f 106/2/1 98/2/1 105/2/1
f 107/4/1 103/4/1 102/4/1
f 107/4/1 105/4/1 104/4/1
f 107/4/1 106/4/1 105/4/1
f 107/4/1 102/4/1 101/4/1
f 107/4/1 101/4/1 100/4/1
f 107/4/1 100/4/1 99/4/1
f 107/4/1 99/4/1 1/4/1
f 107/4/1 104/4/1 103/4/1
f 108/4/1 2/4/1 106/4/1
f 108/4/1 106/4/1 107/4/1
f 111/5/1 110/5/1 109/5/1
f 112/5/1 111/5/1 109/5/1
f 113/5/1 112/5/1 109/5/1
f 114/5/1 112/5/1 113/5/1
f 117/5/1 116/5/1 115/5/1
f 118/5/1 116/5/1 117/5/1
f 123/6/1 121/6/1 120/6/1
f 123/5/1 122/5/1 121/5/1
f 124/5/1 122/5/1 123/5/1
f 125/5/1 120/5/1 119/5/1
f 126/6/1 123/6/1 120/6/1
f 126/5/1 120/5/1 125/5/1
f 126/6/1 124/6/1 123/6/1
f 127/6/1 124/6/1 126/6/1
f 128/6/1 124/6/1 127/6/1
f 128/5/1 127/5/1 126/5/1
f 129/6/1 124/6/1 128/6/1
f 130/5/1 128/5/1 126/5/1
f 130/5/1 129/5/1 128/5/1
f 131/5/1 129/5/1 130/5/1
f 132/6/1 124/6/1 129/6/1
f 132/5/1 129/5/1 131/5/1
f 133/6/1 124/6/1 132/6/1
f 134/5/1 132/5/1 131/5/1
f 134/5/1 133/5/1 132/5/1
f 135/5/1 133/5/1 134/5/1
f 136/5/2 137/5/2 139/5/2
f 137/6/2 138/6/2 140/6/2
f 139/5/2 137/5/2 140/5/2
f 140/6/2 138/6/2 141/6/2
f 141/6/2 138/6/2 142/6/2
f 140/5/2 141/5/2 142/5/2
f 142/6/2 138/6/2 143/6/2
f 140/5/2 142/5/2 144/5/2
f 142/5/2 143/5/2 144/5/2
f 144/5/2 143/5/2 145/5/2
f 143/6/2 138/6/2 146/6/2
f 145/5/2 143/5/2 146/5/2
f 146/6/2 138/6/2 147/6/2
f 145/5/2 146/5/2 148/5/2
f 146/5/2 147/5/2 148/5/2
f 148/5/2 147/5/2 149/5/2
f 150/5/2 151/5/2 152/5/2
f 150/5/2 152/5/2 153/5/2
f 150/5/2 153/5/2 154/5/2
f 154/5/2 153/5/2 155/5/2
f 156/5/2 157/5/2 158/5/2
f 158/5/2 157/5/2 159/5/2
f 160/4/2 161/4/2 162/4/2
f 162/4/2 161/4/2 163/4/2
f 163/4/2 161/4/2 164/4/2
f 164/4/2 161/4/2 165/4/2
f 165/4/2 161/4/2 166/4/2
f 166/4/2 161/4/2 167/4/2
f 167/4/2 161/4/2 168/4/2
f 168/4/2 161/4/2 169/4/2
f 160/4/2 162/4/2 170/4/2
f 162/2/2 163/2/2 170/2/2
f 163/1/2 164/1/2 171/1/2
f 170/2/2 163/2/2 171/2/2
f 164/2/2 165/2/2 172/2/2
f 171/1/2 164/1/2 172/1/2
f 165/1/2 166/1/2 173/1/2
f 172/2/2 165/2/2 173/2/2
f 166/2/2 167/2/2 174/2/2
f 173/1/2 166/1/2 174/1/2
f 167/1/2 168/1/2 175/1/2
f 174/2/2 167/2/2 175/2/2
f 168/2/2 169/2/2 176/2/2
f 175/1/2 168/1/2 176/1/2
f 169/4/2 161/4/2 177/4/2
f 176/2/2 169/2/2 177/2/2
f 175/1/2 176/1/2 178/1/2
f 174/1/2 175/1/2 178/1/2
f 176/1/2 177/1/2 178/1/2
f 173/1/2 174/1/2 178/1/2
f 172/1/2 173/1/2 178/1/2
f 171/1/2 172/1/2 178/1/2
f 170/1/2 171/1/2 178/1/2
f 160/4/2 170/4/2 178/4/2
f 178/1/2 177/1/2 179/1/2
f 179/1/2 177/1/2 180/1/2
f 180/1/2 177/1/2 181/1/2
f 181/1/2 177/1/2 182/1/2
f 182/1/2 177/1/2 183/1/2
f 183/1/2 177/1/2 184/1/2
f 184/1/2 177/1/2 185/1/2
f 185/1/2 177/1/2 186/1/2
f 177/4/2 161/4/2 187/4/2
f 186/1/2 177/1/2 187/1/2
f 160/4/2 178/4/2 188/4/2
f 178/2/2 179/2/2 188/2/2
f 179/1/2 180/1/2 189/1/2
f 188/2/2 179/2/2 189/2/2
f 180/2/2 181/2/2 190/2/2
f 189/1/2 180/1/2 190/1/2
f 181/1/2 182/1/2 191/1/2
f 190/2/2 181/2/2 191/2/2
f 182/2/2 183/2/2 192/2/2
f 191/1/2 182/1/2 192/1/2
f 183/1/2 184/1/2 193/1/2
f 192/2/2 183/2/2 193/2/2
f 184/2/2 185/2/2 194/2/2
f 193/1/2 184/1/2 194/1/2
f 185/1/2 186/1/2 195/1/2
f 194/2/2 185/2/2 195/2/2
f 186/2/2 187/2/2 196/2/2
f 195/1/2 186/1/2 196/1/2
f 187/4/2 161/4/2 197/4/2
f 196/2/2 187/2/2 197/2/2
f 193/1/2 194/1/2 198/1/2
f 195/1/2 196/1/2 198/1/2
f 196/1/2 197/1/2 198/1/2
f 192/1/2 193/1/2 198/1/2
f 191/1/2 192/1/2 198/1/2
f 190/1/2 191/1/2 198/1/2
f 189/1/2 190/1/2 198/1/2
f 188/1/2 189/1/2 198/1/2
f 160/4/2 188/4/2 198/4/2
f 194/1/2 195/1/2 198/1/2
f 198/1/2 197/1/2 199/1/2
f 199/1/2 197/1/2 200/1/2
f 200/1/2 197/1/2 201/1/2
f 201/1/2 197/1/2 202/1/2
f 202/1/2 197/1/2 203/1/2
f 203/1/2 197/1/2 204/1/2
f 197/4/2 161/4/2 205/4/2
f 204/1/2 197/1/2 205/1/2
f 160/4/2 198/4/2 206/4/2
f 198/2/2 199/2/2 206/2/2
f 199/1/2 200/1/2 207/1/2
f 206/2/2 199/2/2 207/2/2
f 200/2/2 201/2/2 208/2/2
f 207/1/2 200/1/2 208/1/2
f 201/1/2 202/1/2 209/1/2
f 208/2/2 201/2/2 209/2/2
f 202/2/2 203/2/2 210/2/2
f 209/1/2 202/1/2 210/1/2
f 203/1/2 204/1/2 211/1/2
f 210/2/2 203/2/2 211/2/2
f 204/2/2 205/2/2 212/2/2
f 211/1/2 204/1/2 212/1/2
f 205/4/2 161/4/2 213/4/2
f 212/2/2 205/2/2 213/2/2
f 209/1/2 210/1/2 214/1/2
f 211/1/2 212/1/2 214/1/2
f 212/1/2 213/1/2 214/1/2
f 208/1/2 209/1/2 214/1/2
f 207/1/2 208/1/2 214/1/2
f 206/1/2 207/1/2 214/1/2
f 160/4/2 206/4/2 214/4/2
f 210/1/2 211/1/2 214/1/2
f 214/1/2 213/1/2 215/1/2
f 215/1/2 213/1/2 216/1/2
f 216/1/2 213/1/2 217/1/2
f 217/1/2 213/1/2 218/1/2
f 218/1/2 213/1/2 219/1/2
f 219/1/2 213/1/2 220/1/2
f 220/1/2 213/1/2 221/1/2
f 221/1/2 213/1/2 222/1/2
f 213/4/2 161/4/2 223/4/2
f 222/1/2 213/1/2 223/1/2
f 160/4/2 214/4/2 224/4/2
f 214/2/2 215/2/2 224/2/2
f 215/1/2 216/1/2 225/1/2
f 224/2/2 215/2/2 225/2/2
f 216/2/2 217/2/2 226/2/2
f 225/1/2 216/1/2 226/1/2
f 217/1/2 218/1/2 227/1/2
f 226/2/2 217/2/2 227/2/2
f 218/2/2 219/2/2 228/2/2
f 227/1/2 218/1/2 228/1/2
f 219/1/2 220/1/2 229/1/2
f 228/2/2 219/2/2 229/2/2
f 220/2/2 221/2/2 230/2/2
f 229/1/2 220/1/2 230/1/2
f 221/1/2 222/1/2 231/1/2
f 230/2/2 221/2/2 231/2/2
f 222/2/2 223/2/2 232/2/2
f 231/1/2 222/1/2 232/1/2
f 223/4/2 161/4/2 233/4/2
f 232/2/2 223/2/2 233/2/2
f 229/1/2 230/1/2 234/1/2
f 231/1/2 232/1/2 234/1/2
f 232/1/2 233/1/2 234/1/2
f 228/1/2 229/1/2 234/1/2
f 227/1/2 228/1/2 234/1/2
f 226/1/2 227/1/2 234/1/2
f 225/1/2 226/1/2 234/1/2
f 224/1/2 225/1/2 234/1/2
f 160/4/2 224/4/2 234/4/2
f 230/1/2 231/1/2 234/1/2
f 234/1/2 233/1/2 235/1/2
f 235/1/2 233/1/2 236/1/2
f 236/1/2 233/1/2 237/1/2
f 237/1/2 233/1/2 238/1/2
f 238/1/2 233/1/2 239/1/2
f 239/1/2 233/1/2 240/1/2
f 233/4/2 161/4/2 241/4/2
f 240/1/2 233/1/2 241/1/2
f 160/4/2 234/4/2 242/4/2
f 234/2/2 235/2/2 242/2/2
f 235/1/2 236/1/2 243/1/2
f 242/2/2 235/2/2 243/2/2
f 236/2/2 237/2/2 244/2/2
f 243/1/2 236/1/2 244/1/2
f 237/1/2 238/1/2 245/1/2
f 244/2/2 237/2/2 245/2/2
f 238/2/2 239/2/2 246/2/2
f 245/1/2 238/1/2 246/1/2
f 239/1/2 240/1/2 247/1/2
f 246/2/2 239/2/2 247/2/2
f 240/2/2 241/2/2 248/2/2
f 247/1/2 240/1/2 248/1/2
f 241/4/2 161/4/2 249/4/2
f 248/2/2 241/2/2 249/2/2
f 245/1/2 246/1/2 250/1/2
f 247/1/2 248/1/2 250/1/2
f 248/1/2 249/1/2 250/1/2
f 244/1/2 245/1/2 250/1/2
f 243/1/2 244/1/2 250/1/2
f 242/1/2 243/1/2 250/1/2
f 160/4/2 242/4/2 250/4/2
f 246/1/2 247/1/2 250/1/2
f 250/1/2 249/1/2 251/1/2
f 251/1/2 249/1/2 252/1/2
f 252/1/2 249/1/2 253/1/2
f 253/1/2 249/1/2 254/1/2
f 254/1/2 249/1/2 255/1/2
f 255/1/2 249/1/2 256/1/2
f 249/4/2 161/4/2 257/4/2
f 256/1/2 249/1/2 257/1/2
f 160/4/2 250/4/2 258/4/2
f 250/2/2 251/2/2 258/2/2
f 251/1/2 252/1/2 259/1/2
f 258/2/2 251/2/2 259/2/2
f 252/2/2 253/2/2 260/2/2
f 259/1/2 252/1/2 260/1/2
f 253/1/2 254/1/2 261/1/2
f 260/2/2 253/2/2 261/2/2
f 254/2/2 255/2/2 262/2/2
f 261/1/2 254/1/2 262/1/2
f 255/1/2 256/1/2 263/1/2
f 262/2/2 255/2/2 263/2/2
f 256/2/2 257/2/2 264/2/2
f 263/1/2 256/1/2 264/1/2
f 257/4/2 161/4/2 265/4/2
f 264/2/2 257/2/2 265/2/2
f 261/4/2 262/4/2 266/4/2
f 263/4/2 264/4/2 266/4/2
f 264/4/2 265/4/2 266/4/2
f 260/4/2 261/4/2 266/4/2
f 259/4/2 260/4/2 266/4/2
f 258/4/2 259/4/2 266/4/2
f 160/4/2 258/4/2 266/4/2
f 262/4/2 263/4/2 266/4/2
f 265/4/2 161/4/2 267/4/2
f 266/4/2 265/4/2 267/4/2
f 270/5/3 269/5/3 268/5/3
f 271/5/3 269/5/3 270/5/3
f 272/5/3 270/5/3 268/5/3
f 274/5/3 272/5/3 268/5/3
f 274/5/3 273/5/3 272/5/3
f 275/5/3 273/5/3 274/5/3
f 278/4/3 277/4/3 276/4/3
f 279/4/3 277/4/3 278/4/3
f 280/4/3 277/4/3 279/4/3
f 281/4/3 277/4/3 280/4/3
f 282/4/3 277/4/3 281/4/3
f 283/4/3 277/4/3 282/4/3
f 284/4/3 277/4/3 283/4/3
f 285/4/3 277/4/3 284/4/3
f 286/4/3 277/4/3 285/4/3
f 287/4/3 277/4/3 286/4/3
f 288/4/3 277/4/3 287/4/3
f 289/4/3 277/4/3 288/4/3
f 290/4/3 278/4/3 276/4/3
f 290/2/3 279/2/3 278/2/3
f 291/1/3 280/1/3 279/1/3
f 291/2/3 279/2/3 290/2/3
f 292/4/3 290/4/3 276/4/3
f 292/1/3 291/1/3 290/1/3
f 293/1/3 280/1/3 291/1/3
f 293/1/3 291/1/3 292/1/3
f 294/1/3 284/1/3 283/1/3
f 294/2/3 285/2/3 284/2/3
f 295/1/3 286/1/3 285/1/3
f 295/2/3 285/2/3 294/2/3
f 296/1/3 294/1/3 283/1/3
f 296/1/3 295/1/3 294/1/3
f 297/1/3 286/1/3 295/1/3
f 297/1/3 295/1/3 296/1/3
f 298/2/3 289/2/3 288/2/3
f 298/1/3 288/1/3 287/1/3
f 299/4/3 277/4/3 289/4/3
f 299/2/3 289/2/3 298/2/3
f 300/1/3 282/1/3 281/1/3
f 300/2/3 283/2/3 282/2/3
f 301/1/3 296/1/3 283/1/3
f 301/2/3 283/2/3 300/2/3
f 302/1/3 298/1/3 287/1/3
f 302/1/3 299/1/3 298/1/3
f 303/4/3 277/4/3 299/4/3
f 303/1/3 299/1/3 302/1/3
f 304/2/3 281/2/3 280/2/3
f 304/1/3 280/1/3 293/1/3
f 305/1/3 301/1/3 300/1/3
f 305/2/3 281/2/3 304/2/3
f 305/1/3 300/1/3 281/1/3
f 306/1/3 301/1/3 305/1/3
f 307/1/3 296/1/3 301/1/3
f 307/1/3 301/1/3 306/1/3
f 308/1/3 286/1/3 297/1/3
f 308/2/3 287/2/3 286/2/3
f 309/1/3 302/1/3 287/1/3
f 309/2/3 287/2/3 308/2/3
f 310/1/3 306/1/3 305/1/3
f 310/1/3 304/1/3 293/1/3
f 310/1/3 305/1/3 304/1/3
f 311/1/3 306/1/3 310/1/3
f 312/1/3 308/1/3 297/1/3
f 312/1/3 309/1/3 308/1/3
f 313/1/3 302/1/3 309/1/3
f 313/1/3 309/1/3 312/1/3
f 314/4/3 292/4/3 276/4/3
f 314/2/3 293/2/3 292/2/3
f 315/1/3 310/1/3 293/1/3
f 315/2/3 293/2/3 314/2/3
f 316/4/3 314/4/3 276/4/3
f 316/1/3 315/1/3 314/1/3
f 317/1/3 310/1/3 315/1/3
f 317/1/3 315/1/3 316/1/3
f 318/2/3 307/2/3 306/2/3
f 319/1/3 296/1/3 307/1/3
f 319/2/3 307/2/3 318/2/3
f 320/2/3 297/2/3 296/2/3
f 320/1/3 296/1/3 319/1/3
f 321/2/3 297/2/3 320/2/3
f 322/1/3 312/1/3 297/1/3
f 322/2/3 297/2/3 321/2/3
f 323/2/3 313/2/3 312/2/3
f 323/1/3 312/1/3 322/1/3
f 324/1/3 302/1/3 313/1/3
f 324/2/3 313/2/3 323/2/3
f 325/2/3 303/2/3 302/2/3
f 325/1/3 302/1/3 324/1/3
f 326/4/3 277/4/3 303/4/3
f 326/2/3 303/2/3 325/2/3
f 327/4/3 277/4/3 326/4/3
f 328/5/3 323/5/3 322/5/3
f 328/5/3 327/5/3 326/5/3
f 328/5/3 326/5/3 325/5/3
f 328/5/3 325/5/3 324/5/3
f 328/5/3 324/5/3 323/5/3
f 328/5/3 322/5/3 321/5/3
f 329/5/3 327/5/3 328/5/3
f 330/2/3 318/2/3 306/2/3
f 330/1/3 306/1/3 311/1/3
f 331/2/3 318/2/3 330/2/3
f 332/2/3 311/2/3 310/2/3
f 332/1/3 310/1/3 317/1/3
f 333/1/3 331/1/3 330/1/3
f 333/2/3 311/2/3 332/2/3
f 333/1/3 330/1/3 311/1/3
f 334/1/3 331/1/3 333/1/3
f 335/1/3 331/1/3 334/1/3
f 338/1/3 332/1/3 317/1/3
f 338/1/3 333/1/3 332/1/3
f 338/1/3 334/1/3 333/1/3
f 339/1/3 334/1/3 338/1/3
f 340/2/3 335/2/3 334/2/3
f 343/5/3 337/5/3 336/5/3
f 344/5/3 337/5/3 343/5/3
f 345/5/3 337/5/3 344/5/3
f 346/5/3 337/5/3 345/5/3
f 347/5/3 337/5/3 346/5/3
f 348/5/3 337/5/3 347/5/3
f 349/5/3 337/5/3 348/5/3
f 350/2/3 317/2/3 316/2/3
f 350/4/3 316/4/3 276/4/3
f 351/1/3 338/1/3 317/1/3
f 351/2/3 317/2/3 350/2/3
f 352/1/3 342/1/3 341/1/3
f 352/2/3 343/2/3 342/2/3
f 352/2/3 344/2/3 343/2/3
f 353/1/3 345/1/3 344/1/3
f 353/2/3 344/2/3 352/2/3
f 354/2/3 348/2/3 347/2/3
f 354/1/3 347/1/3 346/1/3
f 355/4/3 349/4/3 348/4/3
f 355/2/3 348/2/3 354/2/3
f 356/4/3 350/4/3 276/4/3
f 356/1/3 351/1/3 350/1/3
f 357/1/3 338/1/3 351/1/3
f 357/1/3 351/1/3 356/1/3
f 358/1/3 334/1/3 339/1/3
f 358/2/3 340/2/3 334/2/3
f 358/2/3 341/2/3 340/2/3
f 359/1/3 353/1/3 352/1/3
f 359/2/3 341/2/3 358/2/3
f 359/1/3 352/1/3 341/1/3
f 360/1/3 353/1/3 359/1/3
f 361/1/3 345/1/3 353/1/3
f 361/1/3 353/1/3 360/1/3
f 362/1/3 354/1/3 346/1/3
f 362/1/3 355/1/3 354/1/3
f 363/4/3 349/4/3 355/4/3
f 363/1/3 355/1/3 362/1/3
f 364/1/3 338/1/3 357/1/3
f 364/2/3 339/2/3 338/2/3
f 365/1/3 358/1/3 339/1/3
f 365/2/3 339/2/3 364/2/3
f 365/1/3 360/1/3 359/1/3
f 365/1/3 359/1/3 358/1/3
f 366/1/3 360/1/3 365/1/3
f 367/1/3 360/1/3 366/1/3
f 368/1/3 345/1/3 361/1/3
f 368/2/3 346/2/3 345/2/3
f 369/1/3 362/1/3 346/1/3
f 369/2/3 346/2/3 368/2/3
f 370/1/3 364/1/3 357/1/3
f 370/1/3 365/1/3 364/1/3
f 370/1/3 366/1/3 365/1/3
f 371/1/3 366/1/3 370/1/3
f 372/1/3 368/1/3 361/1/3
f 372/1/3 369/1/3 368/1/3
f 373/1/3 362/1/3 369/1/3
f 373/1/3 369/1/3 372/1/3
f 374/4/3 356/4/3 276/4/3
f 374/2/3 357/2/3 356/2/3
f 375/1/3 370/1/3 357/1/3
f 375/2/3 357/2/3 374/2/3
f 376/2/3 371/2/3 370/2/3
f 376/1/3 370/1/3 375/1/3
f 377/1/3 366/1/3 371/1/3
f 377/2/3 371/2/3 376/2/3
f 378/2/3 367/2/3 366/2/3
f 378/1/3 366/1/3 377/1/3
f 379/1/3 360/1/3 367/1/3
f 379/2/3 367/2/3 378/2/3
f 380/2/3 361/2/3 360/2/3
f 380/1/3 360/1/3 379/1/3
f 381/1/3 372/1/3 361/1/3
f 381/2/3 361/2/3 380/2/3
f 382/2/3 373/2/3 372/2/3
f 382/1/3 372/1/3 381/1/3
f 383/1/3 362/1/3 373/1/3
f 383/2/3 373/2/3 382/2/3
f 384/2/3 363/2/3 362/2/3
f 384/1/3 362/1/3 383/1/3
f 385/4/3 349/4/3 363/4/3
f 385/2/3 363/2/3 384/2/3
f 386/4/3 378/4/3 377/4/3
f 386/4/3 384/4/3 383/4/3
f 386/4/3 385/4/3 384/4/3
f 386/4/3 374/4/3 276/4/3
f 386/4/3 375/4/3 374/4/3
f 386/4/3 377/4/3 376/4/3
f 386/4/3 379/4/3 378/4/3
f 386/4/3 382/4/3 381/4/3
f 386/4/3 380/4/3 379/4/3
f 386/4/3 381/4/3 380/4/3
f 386/4/3 383/4/3 382/4/3
f 386/4/3 376/4/3 375/4/3
f 387/4/3 349/4/3 385/4/3
f 387/4/3 385/4/3 386/4/3
f 390/5/3 389/5/3 388/5/3
f 391/5/3 389/5/3 390/5/3
f 394/5/3 393/5/3 392/5/3
f 395/5/3 393/5/3 394/5/3
f 399/6/3 397/6/3 396/6/3
f 400/6/3 397/6/3 399/6/3
f 401/5/3 398/5/3 397/5/3
f 401/6/3 397/6/3 400/6/3
f 402/5/3 398/5/3 401/5/3
f 403/5/4 404/5/4 405/5/4
f 405/5/4 404/5/4 406/5/4
f 407/4/4 408/4/4 409/4/4
f 409/4/4 408/4/4 410/4/4
f 409/2/4 410/2/4 411/2/4
f 411/2/4 410/2/4 412/2/4
f 412/2/4 410/2/4 413/2/4
f 413/2/4 410/2/4 414/2/4
f 414/2/4 410/2/4 415/2/4
f 415/2/4 410/2/4 416/2/4
f 416/2/4 410/2/4 417/2/4
f 417/2/4 410/2/4 418/2/4
f 418/2/4 410/2/4 419/2/4
f 419/2/4 410/2/4 420/2/4
f 409/2/4 411/2/4 421/2/4
f 411/1/4 412/1/4 422/1/4
f 421/2/4 411/2/4 422/2/4
f 409/2/4 421/2/4 423/2/4
f 421/1/4 422/1/4 423/1/4
f 422/1/4 412/1/4 424/1/4
f 423/1/4 422/1/4 424/1/4
f 415/1/4 416/1/4 425/1/4
f 416/2/4 417/2/4 425/2/4
f 417/1/4 418/1/4 426/1/4
f 425/2/4 417/2/4 426/2/4
f 415/1/4 425/1/4 427/1/4
f 425/1/4 426/1/4 427/1/4
f 426/1/4 418/1/4 428/1/4
f 427/1/4 426/1/4 428/1/4
f 420/2/4 410/2/4 429/2/4
f 419/1/4 420/1/4 429/1/4
f 429/2/4 410/2/4 430/2/4
f 413/1/4 414/1/4 431/1/4
f 414/2/4 415/2/4 431/2/4
f 415/1/4 427/1/4 432/1/4
f 431/2/4 415/2/4 432/2/4
f 429/1/4 430/1/4 433/1/4
f 419/1/4 429/1/4 433/1/4
f 430/2/4 410/2/4 434/2/4
f 433/1/4 430/1/4 434/1/4
f 412/2/4 413/2/4 435/2/4
f 424/1/4 412/1/4 435/1/4
f 413/1/4 431/1/4 436/1/4
f 435/2/4 413/2/4 436/2/4
f 431/1/4 432/1/4 436/1/4
f 436/1/4 432/1/4 437/1/4
f 432/1/4 427/1/4 438/1/4
f 437/1/4 432/1/4 438/1/4
f 428/1/4 418/1/4 439/1/4
f 418/2/4 419/2/4 439/2/4
f 419/1/4 433/1/4 440/1/4
f 439/2/4 419/2/4 440/2/4
f 436/1/4 437/1/4 441/1/4
f 424/1/4 435/1/4 441/1/4
f 435/1/4 436/1/4 441/1/4
f 441/1/4 437/1/4 442/1/4
f 428/1/4 439/1/4 443/1/4
f 439/1/4 440/1/4 443/1/4
f 440/1/4 433/1/4 444/1/4
f 443/1/4 440/1/4 444/1/4
f 409/2/4 423/2/4 445/2/4
f 423/2/4 424/2/4 445/2/4
f 424/1/4 441/1/4 446/1/4
f 445/2/4 424/2/4 446/2/4
f 409/2/4 445/2/4 447/2/4
f 445/1/4 446/1/4 447/1/4
f 446/1/4 441/1/4 448/1/4
f 447/1/4 446/1/4 448/1/4
f 438/1/4 427/1/4 449/1/4
f 427/2/4 428/2/4 449/2/4
f 428/1/4 443/1/4 450/1/4
f 449/2/4 428/2/4 450/2/4
f 444/1/4 433/1/4 451/1/4
f 433/2/4 434/2/4 451/2/4
f 434/2/4 410/2/4 452/2/4
f 451/2/4 434/2/4 452/2/4
f 438/1/4 449/1/4 453/1/4
f 449/1/4 450/1/4 453/1/4
f 450/1/4 443/1/4 454/1/4
f 453/1/4 450/1/4 454/1/4
f 444/1/4 451/1/4 455/1/4
f 451/1/4 452/1/4 455/1/4
f 452/2/4 410/2/4 456/2/4
f 455/1/4 452/1/4 456/1/4
f 442/1/4 437/1/4 457/1/4
f 437/2/4 438/2/4 457/2/4
f 438/1/4 453/1/4 458/1/4
f 457/2/4 438/2/4 458/2/4
f 448/1/4 441/1/4 459/1/4
f 441/2/4 442/2/4 459/2/4
f 442/1/4 457/1/4 460/1/4
f 459/2/4 442/2/4 460/2/4
f 457/1/4 458/1/4 460/1/4
f 460/1/4 458/1/4 461/1/4
f 458/1/4 453/1/4 462/1/4
f 461/1/4 458/1/4 462/1/4
f 454/1/4 443/1/4 463/1/4
f 443/2/4 444/2/4 463/2/4
f 444/1/4 455/1/4 464/1/4
f 463/2/4 444/2/4 464/2/4
f 460/1/4 461/1/4 465/1/4
f 448/1/4 459/1/4 465/1/4
f 459/1/4 460/1/4 465/1/4
f 465/1/4 461/1/4 466/1/4
f 463/1/4 464/1/4 467/1/4
f 454/1/4 463/1/4 467/1/4
f 464/1/4 455/1/4 468/1/4
f 467/1/4 464/1/4 468/1/4
f 409/2/4 447/2/4 469/2/4
f 447/2/4 448/2/4 469/2/4
f 448/1/4 465/1/4 470/1/4
f 469/2/4 448/2/4 470/2/4
f 462/1/4 453/1/4 471/1/4
f 453/2/4 454/2/4 471/2/4
f 454/1/4 467/1/4 472/1/4
f 471/2/4 454/2/4 472/2/4
f 468/1/4 455/1/4 473/1/4
f 455/2/4 456/2/4 473/2/4
f 456/2/4 410/2/4 474/2/4
f 473/2/4 456/2/4 474/2/4
f 469/1/4 470/1/4 475/1/4
f 409/2/4 469/2/4 475/2/4
f 470/1/4 465/1/4 476/1/4
f 475/1/4 470/1/4 476/1/4
f 466/1/4 461/1/4 477/1/4
f 461/2/4 462/2/4 477/2/4
f 462/1/4 471/1/4 478/1/4
f 477/2/4 462/2/4 478/2/4
f 471/1/4 472/1/4 478/1/4
f 478/1/4 472/1/4 479/1/4
f 472/1/4 467/1/4 480/1/4
f 479/1/4 472/1/4 480/1/4
f 468/1/4 473/1/4 481/1/4
f 473/1/4 474/1/4 481/1/4
f 474/2/4 410/2/4 482/2/4
f 481/1/4 474/1/4 482/1/4
f 476/1/4 465/1/4 483/1/4
f 465/2/4 466/2/4 483/2/4
f 466/1/4 477/1/4 484/1/4
f 483/2/4 466/2/4 484/2/4
f 478/1/4 479/1/4 484/1/4
f 477/1/4 478/1/4 484/1/4
f 484/1/4 479/1/4 485/1/4
f 485/1/4 479/1/4 486/1/4
f 480/1/4 467/1/4 487/1/4
f 467/2/4 468/2/4 487/2/4
f 468/1/4 481/1/4 488/1/4
f 487/2/4 468/2/4 488/2/4
f 476/1/4 483/1/4 489/1/4
f 483/1/4 484/1/4 489/1/4
f 484/1/4 485/1/4 489/1/4
f 489/1/4 485/1/4 490/1/4
f 480/1/4 487/1/4 491/1/4
f 487/1/4 488/1/4 491/1/4
f 488/1/4 481/1/4 492/1/4
f 491/1/4 488/1/4 492/1/4
f 475/2/4 476/2/4 493/2/4
f 476/1/4 489/1/4 493/1/4
f 489/2/4 490/2/4 494/2/4
f 493/1/4 489/1/4 494/1/4
f 490/1/4 485/1/4 495/1/4
f 494/2/4 490/2/4 495/2/4
f 485/2/4 486/2/4 496/2/4
f 495/1/4 485/1/4 496/1/4
f 486/1/4 479/1/4 497/1/4
f 496/2/4 486/2/4 497/2/4
f 479/2/4 480/2/4 498/2/4
f 497/1/4 479/1/4 498/1/4
f 480/1/4 491/1/4 499/1/4
f 498/2/4 480/2/4 499/2/4
f 491/2/4 492/2/4 500/2/4
f 499/1/4 491/1/4 500/1/4
f 492/1/4 481/1/4 501/1/4
f 500/2/4 492/2/4 501/2/4
f 481/2/4 482/2/4 502/2/4
f 501/1/4 481/1/4 502/1/4
f 407/4/4 409/4/4 503/4/4
f 497/2/4 498/2/4 503/2/4
f 501/2/4 502/2/4 503/2/4
f 498/2/4 499/2/4 503/2/4
f 475/2/4 493/2/4 503/2/4
f 496/2/4 497/2/4 503/2/4
f 494/2/4 495/2/4 503/2/4
f 499/2/4 500/2/4 503/2/4
f 493/2/4 494/2/4 503/2/4
f 500/2/4 501/2/4 503/2/4
f 495/2/4 496/2/4 503/2/4
f 409/2/4 475/2/4 503/2/4
f 502/2/4 482/2/4 504/2/4
f 503/2/4 502/2/4 504/2/4
f 410/4/4 408/4/4 504/4/4
f 482/2/4 410/2/4 504/2/4
f 407/4/4 503/4/4 505/4/4
f 503/4/4 504/4/4 505/4/4
f 504/4/4 408/4/4 506/4/4
f 505/4/4 504/4/4 506/4/4
f 509/4/5 508/4/5 507/4/5
f 510/4/5 508/4/5 509/4/5
f 511/4/5 508/4/5 510/4/5
f 512/4/5 508/4/5 511/4/5
f 513/4/5 508/4/5 512/4/5
f 514/4/5 508/4/5 513/4/5
f 515/4/5 508/4/5 514/4/5
f 516/4/5 508/4/5 515/4/5
f 517/4/5 509/4/5 507/4/5
f 517/2/5 510/2/5 509/2/5
f 518/1/5 511/1/5 510/1/5
f 518/2/5 510/2/5 517/2/5
f 519/2/5 512/2/5 511/2/5
f 519/1/5 511/1/5 518/1/5
f 520/1/5 513/1/5 512/1/5
f 520/2/5 512/2/5 519/2/5
f 521/2/5 514/2/5 513/2/5
f 521/1/5 513/1/5 520/1/5
f 522/1/5 515/1/5 514/1/5
f 522/2/5 514/2/5 521/2/5
f 523/2/5 516/2/5 515/2/5
f 523/1/5 515/1/5 522/1/5
f 524/4/5 508/4/5 516/4/5
f 524/2/5 516/2/5 523/2/5
f 525/1/5 523/1/5 522/1/5
f 525/1/5 522/1/5 521/1/5
f 525/1/5 524/1/5 523/1/5
f 525/1/5 521/1/5 520/1/5
f 525/1/5 520/1/5 519/1/5
f 525/1/5 519/1/5 518/1/5
f 525/1/5 518/1/5 517/1/5
f 525/4/5 517/4/5 507/4/5
f 526/1/5 524/1/5 525/1/5
f 527/1/5 524/1/5 526/1/5
f 528/1/5 524/1/5 527/1/5
f 529/1/5 524/1/5 528/1/5
f 530/1/5 524/1/5 529/1/5
f 531/1/5 524/1/5 530/1/5
f 532/4/5 508/4/5 524/4/5
f 532/1/5 524/1/5 531/1/5
f 533/4/5 525/4/5 507/4/5
f 533/2/5 526/2/5 525/2/5
f 534/1/5 527/1/5 526/1/5
f 534/2/5 526/2/5 533/2/5
f 535/2/5 528/2/5 527/2/5
f 535/1/5 527/1/5 534/1/5
f 536/1/5 529/1/5 528/1/5
f 536/2/5 528/2/5 535/2/5
f 537/2/5 530/2/5 529/2/5
f 537/1/5 529/1/5 536/1/5
f 538/1/5 531/1/5 530/1/5
f 538/2/5 530/2/5 537/2/5
f 539/2/5 532/2/5 531/2/5
f 539/1/5 531/1/5 538/1/5
f 540/4/5 508/4/5 532/4/5
f 540/2/5 532/2/5 539/2/5
f 541/1/5 537/1/5 536/1/5
f 541/1/5 539/1/5 538/1/5
f 541/1/5 540/1/5 539/1/5
f 541/1/5 536/1/5 535/1/5
f 541/1/5 535/1/5 534/1/5
f 541/1/5 534/1/5 533/1/5
f 541/4/5 533/4/5 507/4/5
f 541/1/5 538/1/5 537/1/5
f 542/1/5 540/1/5 541/1/5
f 543/1/5 540/1/5 542/1/5
f 544/1/5 540/1/5 543/1/5
f 545/1/5 540/1/5 544/1/5
f 546/1/5 540/1/5 545/1/5
f 547/1/5 540/1/5 546/1/5
f 548/4/5 508/4/5 540/4/5
f 548/1/5 540/1/5 547/1/5
f 549/4/5 541/4/5 507/4/5
f 549/2/5 542/2/5 541/2/5
f 550/1/5 543/1/5 542/1/5
f 550/2/5 542/2/5 549/2/5
f 551/2/5 544/2/5 543/2/5
f 551/1/5 543/1/5 550/1/5
f 552/1/5 545/1/5 544/1/5
f 552/2/5 544/2/5 551/2/5
f 553/2/5 546/2/5 545/2/5
f 553/1/5 545/1/5 552/1/5
f 554/1/5 547/1/5 546/1/5
f 554/2/5 546/2/5 553/2/5
f 555/2/5 548/2/5 547/2/5
f 555/1/5 547/1/5 554/1/5
f 556/4/5 508/4/5 548/4/5
f 556/2/5 548/2/5 555/2/5
f 557/1/5 553/1/5 552/1/5
f 557/1/5 555/1/5 554/1/5
f 557/1/5 556/1/5 555/1/5
f 557/1/5 552/1/5 551/1/5
f 557/1/5 551/1/5 550/1/5
f 557/1/5 550/1/5 549/1/5
f 557/4/5 549/4/5 507/4/5
f 557/1/5 554/1/5 553/1/5
f 558/1/5 556/1/5 557/1/5
f 559/1/5 556/1/5 558/1/5
f 560/1/5 556/1/5 559/1/5
f 561/1/5 556/1/5 560/1/5
f 562/1/5 556/1/5 561/1/5
f 563/1/5 556/1/5 562/1/5
f 564/4/5 508/4/5 556/4/5
f 564/1/5 556/1/5 563/1/5
f 565/4/5 557/4/5 507/4/5
f 565/2/5 558/2/5 557/2/5
f 566/1/5 559/1/5 558/1/5
f 566/2/5 558/2/5 565/2/5
f 567/2/5 560/2/5 559/2/5
f 567/1/5 559/1/5 566/1/5
f 568/1/5 561/1/5 560/1/5
f 568/2/5 560/2/5 567/2/5
f 569/2/5 562/2/5 561/2/5
f 569/1/5 561/1/5 568/1/5
f 570/1/5 563/1/5 562/1/5
f 570/2/5 562/2/5 569/2/5
f 571/2/5 564/2/5 563/2/5
f 571/1/5 563/1/5 570/1/5
f 572/4/5 508/4/5 564/4/5
f 572/2/5 564/2/5 571/2/5
f 573/1/5 569/1/5 568/1/5
f 573/1/5 571/1/5 570/1/5
f 573/1/5 572/1/5 571/1/5
f 573/1/5 568/1/5 567/1/5
f 573/1/5 567/1/5 566/1/5
f 573/1/5 566/1/5 565/1/5
f 573/4/5 565/4/5 507/4/5
f 573/1/5 570/1/5 569/1/5
f 574/1/5 572/1/5 573/1/5
f 575/1/5 572/1/5 574/1/5
f 576/1/5 572/1/5 575/1/5
f 577/1/5 572/1/5 576/1/5
f 578/1/5 572/1/5 577/1/5
f 579/1/5 572/1/5 578/1/5
f 580/4/5 508/4/5 572/4/5
f 580/1/5 572/1/5 579/1/5
f 581/4/5 573/4/5 507/4/5
f 581/2/5 574/2/5 573/2/5
f 582/1/5 575/1/5 574/1/5
f 582/2/5 574/2/5 581/2/5
f 583/2/5 576/2/5 575/2/5
f 583/1/5 575/1/5 582/1/5
f 584/1/5 577/1/5 576/1/5
f 584/2/5 576/2/5 583/2/5
f 585/2/5 578/2/5 577/2/5
f 585/1/5 577/1/5 584/1/5
f 586/1/5 579/1/5 578/1/5
f 586/2/5 578/2/5 585/2/5
f 587/2/5 580/2/5 579/2/5
f 587/1/5 579/1/5 586/1/5
f 588/4/5 508/4/5 580/4/5
f 588/2/5 580/2/5 587/2/5
f 589/1/5 585/1/5 584/1/5
f 589/1/5 587/1/5 586/1/5
f 589/1/5 588/1/5 587/1/5
f 589/1/5 584/1/5 583/1/5
f 589/1/5 583/1/5 582/1/5
f 589/1/5 582/1/5 581/1/5
f 589/4/5 581/4/5 507/4/5
f 589/1/5 586/1/5 585/1/5
f 590/1/5 588/1/5 589/1/5
f 591/1/5 588/1/5 590/1/5
f 592/1/5 588/1/5 591/1/5
f 593/1/5 588/1/5 592/1/5
f 594/1/5 588/1/5 593/1/5
f 595/1/5 588/1/5 594/1/5
f 596/4/5 508/4/5 588/4/5
f 596/1/5 588/1/5 595/1/5
f 597/4/5 589/4/5 507/4/5
f 597/2/5 590/2/5 589/2/5
f 598/1/5 591/1/5 590/1/5
f 598/2/5 590/2/5 597/2/5
f 599/2/5 592/2/5 591/2/5
f 599/1/5 591/1/5 598/1/5
f 600/1/5 593/1/5 592/1/5
f 600/2/5 592/2/5 599/2/5
f 601/2/5 594/2/5 593/2/5
f 601/1/5 593/1/5 600/1/5
f 602/1/5 595/1/5 594/1/5
f 602/2/5 594/2/5 601/2/5
f 603/2/5 596/2/5 595/2/5
f 603/1/5 595/1/5 602/1/5
f 604/4/5 508/4/5 596/4/5
f 604/2/5 596/2/5 603/2/5
f 605/4/5 601/4/5 600/4/5
f 605/4/5 603/4/5 602/4/5
f 605/4/5 604/4/5 603/4/5
f 605/4/5 600/4/5 599/4/5
f 605/4/5 599/4/5 598/4/5
f 605/4/5 598/4/5 597/4/5
f 605/4/5 597/4/5 507/4/5
f 605/4/5 602/4/5 601/4/5
f 606/4/5 508/4/5 604/4/5
f 606/4/5 604/4/5 605/4/5
f 609/5/5 608/5/5 607/5/5
f 610/5/5 608/5/5 609/5/5
f 611/5/5 608/5/5 610/5/5
f 612/5/5 608/5/5 611/5/5
f 613/5/6 614/5/6 615/5/6
f 615/5/6 614/5/6 616/5/6
f 615/6/6 616/6/6 617/6/6
f 615/6/6 617/6/6 618/6/6
f 618/6/6 617/6/6 619/6/6
f 620/5/6 621/5/6 624/5/6
f 624/5/6 621/5/6 625/5/6
f 622/5/6 623/5/6 626/5/6
f 626/5/6 623/5/6 627/5/6
f 628/4/6 629/4/6 634/4/6
f 629/5/6 630/5/6 635/5/6
f 634/4/6 629/4/6 635/4/6
f 632/4/6 633/4/6 636/4/6
f 631/5/6 632/5/6 636/5/6
f 636/4/6 633/4/6 637/4/6
f 635/5/6 630/5/6 638/5/6
f 634/2/6 635/2/6 638/2/6
f 638/5/6 630/5/6 639/5/6
f 631/5/6 636/5/6 640/5/6
f 636/2/6 637/2/6 641/2/6
f 640/5/6 636/5/6 641/5/6
f 634/2/6 638/2/6 642/2/6
f 641/2/6 637/2/6 643/2/6
f 628/4/6 634/4/6 644/4/6
f 642/2/6 643/2/6 644/2/6
f 634/2/6 642/2/6 644/2/6
f 637/4/6 633/4/6 645/4/6
f 644/2/6 643/2/6 645/2/6
f 643/2/6 637/2/6 645/2/6
f 628/4/6 644/4/6 646/4/6
f 644/4/6 645/4/6 646/4/6
f 645/4/6 633/4/6 647/4/6
f 646/4/6 645/4/6 647/4/6
f 648/5/6 649/5/6 652/5/6
f 650/5/6 651/5/6 653/5/6
f 648/5/6 652/5/6 654/5/6
f 652/5/6 653/5/6 654/5/6
f 653/5/6 651/5/6 655/5/6
f 654/5/6 653/5/6 655/5/6
