# MagicaVoxel @ Ephtracy

# group
o 

# material
mtllib CandleStick.mtl
usemtl palette

# normals
vn -1 0 0
vn 1 0 0
vn 0 0 1
vn 0 0 -1
vn 0 -1 0
vn 0 1 0

# texcoords
vt 0.306641 0.5
vt 0.388672 0.5
vt 0.951172 0.5
vt 0.966797 0.5
vt 0.986328 0.5
vt 0.994141 0.5

# verts
v -0.7 0.5 0.2
v -0.7 0.5 -0.2
v -0.7 0.6 0.2
v -0.7 0.6 -0.2
v -0.7 0.7 0.2
v -0.7 0.7 -0.2
v -0.6 0.7 0.1
v -0.6 0.7 -0.1
v -0.6 1.3 0.1
v -0.6 1.3 -0.1
v -0.6 1.5 0.1
v -0.6 1.5 -0.1
v -0.4 -0.8 0.3
v -0.4 -0.8 0.1
v -0.4 -0.8 -0.2
v -0.4 -0.8 -0.3
v -0.4 -0.7 0.3
v -0.4 -0.7 0.1
v -0.4 -0.7 -0.2
v -0.4 -0.7 -0.3
v -0.3 -0.8 0.4
v -0.3 -0.8 0.3
v -0.3 -0.8 -0.3
v -0.3 -0.8 -0.4
v -0.3 -0.7 0.4
v -0.3 -0.7 0.3
v -0.3 -0.7 -0.3
v -0.3 -0.7 -0.4
v -0.2 -0.7 0.1
v -0.2 -0.7 -0.1
v -0.2 -0.5 0.1
v -0.2 -0.5 -0.1
v -0.2 -0.3 0
v -0.2 -0.3 -0.1
v -0.2 -0.1 0.1
v -0.2 -0.1 0
v -0.2 0 0.1
v -0.2 0 0
v -0.2 0.1 0.1
v -0.2 0.1 0
v -0.2 0.4 0.2
v -0.2 0.4 0.1
v -0.2 0.4 -0.1
v -0.2 0.4 -0.2
v -0.2 0.5 0.2
v -0.2 0.5 -0.2
v -0.1 -0.7 0.2
v -0.1 -0.7 0.1
v -0.1 -0.7 -0.1
v -0.1 -0.7 -0.2
v -0.1 -0.5 0.2
v -0.1 -0.5 0.1
v -0.1 -0.5 -0.1
v -0.1 -0.5 -0.2
v -0.1 -0.3 -0.1
v -0.1 -0.3 -0.2
v -0.1 -0.1 0.2
v -0.1 -0.1 0.1
v -0.1 0 0.1
v -0.1 0 -0.1
v -0.1 0 -0.2
v -0.1 0.1 0.2
v -0.1 0.1 0.1
v -0.1 0.1 -0.1
v -0.1 0.1 -0.2
v -0.1 0.2 0.2
v -0.1 0.2 0.1
v -0.1 0.4 0.2
v -0.1 0.4 0.1
v -0.1 0.4 -0.1
v -0.1 0.4 -0.2
v -0.1 0.7 0.1
v -0.1 0.7 -0.1
v -0.1 1.5 0.1
v -0.1 1.5 -0.1
v -0.1 1.6 0.1
v -0.1 1.6 0
v -0.1 1.7 0.1
v -0.1 1.7 0
v -0.1 1.7 -0.1
v 0.4 0.7 0.1
v 0.4 0.7 -0.1
v 0.4 1.1 0.1
v 0.4 1.1 -0.1
v 0.4 1.2 0
v 0.4 1.2 -0.1
v 0.4 1.3 0.1
v 0.4 1.3 0
v 0.4 1.3 -0.1
v -0.4 0.7 0.1
v -0.4 0.7 -0.1
v -0.4 1.3 0.1
v -0.4 1.3 0
v -0.4 1.3 -0.1
v -0.4 1.4 0.1
v -0.4 1.4 0
v -0.4 1.4 -0.1
v -0.4 1.5 0.1
v -0.4 1.5 0
v -0.4 1.5 -0.1
v 0.1 -0.7 0.2
v 0.1 -0.7 0.1
v 0.1 -0.7 -0.1
v 0.1 -0.7 -0.2
v 0.1 -0.5 0.1
v 0.1 -0.5 -0.1
v 0.1 -0.3 0.1
v 0.1 -0.3 -0.1
v 0.1 0 -0.1
v 0.1 0.1 -0.1
v 0.1 0.4 0.2
v 0.1 0.4 0.1
v 0.1 0.4 -0.1
v 0.1 0.4 -0.2
v 0.1 0.7 0.1
v 0.1 0.7 -0.1
v 0.1 1.5 0.1
v 0.1 1.5 -0.1
v 0.1 1.6 0.1
v 0.1 1.6 -0.1
v 0.1 1.7 0.1
v 0.1 1.7 -0.1
v 0.2 -0.7 0.1
v 0.2 -0.7 -0.1
v 0.2 -0.5 0.1
v 0.2 -0.5 -0.1
v 0.2 -0.3 0.1
v 0.2 -0.3 -0.1
v 0.2 0 0
v 0.2 0 -0.1
v 0.2 0.1 0
v 0.2 0.1 -0.1
v 0.2 0.4 0.2
v 0.2 0.4 0.1
v 0.2 0.4 -0.1
v 0.2 0.4 -0.2
v 0.2 0.5 0.2
v 0.2 0.5 -0.2
v 0.3 -0.8 0.4
v 0.3 -0.8 0.3
v 0.3 -0.8 -0.3
v 0.3 -0.8 -0.4
v 0.3 -0.7 0.4
v 0.3 -0.7 0.3
v 0.3 -0.7 -0.3
v 0.3 -0.7 -0.4
v 0.4 -0.8 0.3
v 0.4 -0.8 0.2
v 0.4 -0.8 0.1
v 0.4 -0.8 -0.1
v 0.4 -0.8 -0.3
v 0.4 -0.7 0.3
v 0.4 -0.7 0.2
v 0.4 -0.7 0.1
v 0.4 -0.7 -0.1
v 0.4 -0.7 -0.3
v 0.6 0.7 0.1
v 0.6 0.7 -0.1
v 0.6 1.1 0.1
v 0.6 1.1 -0.1
v 0.6 1.2 0.1
v 0.6 1.2 0
v 0.6 1.3 0.1
v 0.6 1.3 0
v 0.6 1.3 -0.1
v 0.7 0.5 0.2
v 0.7 0.5 -0.2
v 0.7 0.6 0.2
v 0.7 0.6 -0.2
v 0.7 0.7 0.2
v 0.7 0.7 -0.2
v -0.3 -0.8 0.4
v -0.3 -0.7 0.4
v -0.2 -0.8 0.4
v -0.2 -0.7 0.4
v -0.1 -0.8 0.4
v -0.1 -0.7 0.4
v 0 -0.8 0.4
v 0 -0.7 0.4
v 0.1 -0.8 0.4
v 0.1 -0.7 0.4
v 0.3 -0.8 0.4
v 0.3 -0.7 0.4
v -0.4 -0.8 0.3
v -0.4 -0.7 0.3
v -0.3 -0.8 0.3
v -0.3 -0.7 0.3
v 0.3 -0.8 0.3
v 0.3 -0.7 0.3
v 0.4 -0.8 0.3
v 0.4 -0.7 0.3
v -0.7 0.5 0.2
v -0.7 0.6 0.2
v -0.7 0.7 0.2
v -0.3 0.6 0.2
v -0.3 0.7 0.2
v -0.2 0.4 0.2
v -0.2 0.5 0.2
v -0.2 0.7 0.2
v -0.1 -0.7 0.2
v -0.1 -0.5 0.2
v -0.1 -0.1 0.2
v -0.1 0.1 0.2
v -0.1 0.2 0.2
v -0.1 0.4 0.2
v -0.1 0.5 0.2
v 0 -0.5 0.2
v 0 -0.1 0.2
v 0 0.1 0.2
v 0 0.2 0.2
v 0 0.4 0.2
v 0 0.6 0.2
v 0.1 -0.7 0.2
v 0.1 0.4 0.2
v 0.2 0.4 0.2
v 0.2 0.5 0.2
v 0.2 0.6 0.2
v 0.2 0.7 0.2
v 0.3 0.5 0.2
v 0.3 0.7 0.2
v 0.4 0.5 0.2
v 0.4 0.6 0.2
v 0.7 0.5 0.2
v 0.7 0.6 0.2
v 0.7 0.7 0.2
v -0.6 0.7 0.1
v -0.6 1.3 0.1
v -0.6 1.5 0.1
v -0.5 1.4 0.1
v -0.5 1.5 0.1
v -0.4 0.7 0.1
v -0.4 1.3 0.1
v -0.4 1.4 0.1
v -0.4 1.5 0.1
v -0.2 -0.7 0.1
v -0.2 -0.5 0.1
v -0.2 -0.1 0.1
v -0.2 0 0.1
v -0.2 0.1 0.1
v -0.2 0.4 0.1
v -0.1 -0.7 0.1
v -0.1 -0.5 0.1
v -0.1 -0.1 0.1
v -0.1 0 0.1
v -0.1 0.1 0.1
v -0.1 0.2 0.1
v -0.1 0.4 0.1
v -0.1 0.7 0.1
v -0.1 1.5 0.1
v -0.1 1.6 0.1
v -0.1 1.7 0.1
v 0.1 -0.7 0.1
v 0.1 -0.5 0.1
v 0.1 -0.3 0.1
v 0.1 0.4 0.1
v 0.1 0.7 0.1
v 0.1 1.5 0.1
v 0.1 1.6 0.1
v 0.1 1.7 0.1
v 0.2 -0.7 0.1
v 0.2 -0.5 0.1
v 0.2 -0.3 0.1
v 0.2 0.4 0.1
v 0.4 0.7 0.1
v 0.4 1.1 0.1
v 0.4 1.3 0.1
v 0.5 1.2 0.1
v 0.5 1.3 0.1
v 0.6 0.7 0.1
v 0.6 1.1 0.1
v 0.6 1.2 0.1
v 0.6 1.3 0.1
v -0.6 0.7 -0.1
v -0.6 1.3 -0.1
v -0.6 1.5 -0.1
v -0.5 1.3 -0.1
v -0.5 1.4 -0.1
v -0.4 0.7 -0.1
v -0.4 1.3 -0.1
v -0.4 1.4 -0.1
v -0.4 1.5 -0.1
v -0.2 -0.7 -0.1
v -0.2 -0.5 -0.1
v -0.2 -0.3 -0.1
v -0.2 0.4 -0.1
v -0.1 -0.7 -0.1
v -0.1 -0.5 -0.1
v -0.1 -0.3 -0.1
v -0.1 0 -0.1
v -0.1 0.1 -0.1
v -0.1 0.4 -0.1
v -0.1 0.7 -0.1
v -0.1 1.5 -0.1
v -0.1 1.7 -0.1
v 0 1.6 -0.1
v 0 1.7 -0.1
v 0.1 -0.7 -0.1
v 0.1 -0.5 -0.1
v 0.1 -0.3 -0.1
v 0.1 0 -0.1
v 0.1 0.1 -0.1
v 0.1 0.4 -0.1
v 0.1 0.7 -0.1
v 0.1 1.5 -0.1
v 0.1 1.6 -0.1
v 0.1 1.7 -0.1
v 0.2 -0.7 -0.1
v 0.2 -0.5 -0.1
v 0.2 -0.3 -0.1
v 0.2 0 -0.1
v 0.2 0.1 -0.1
v 0.2 0.4 -0.1
v 0.4 0.7 -0.1
v 0.4 1.1 -0.1
v 0.4 1.2 -0.1
v 0.4 1.3 -0.1
v 0.5 1.2 -0.1
v 0.5 1.3 -0.1
v 0.6 0.7 -0.1
v 0.6 1.1 -0.1
v 0.6 1.3 -0.1
v -0.7 0.5 -0.2
v -0.7 0.6 -0.2
v -0.7 0.7 -0.2
v -0.6 0.5 -0.2
v -0.6 0.6 -0.2
v -0.4 0.5 -0.2
v -0.4 0.6 -0.2
v -0.3 0.6 -0.2
v -0.3 0.7 -0.2
v -0.2 0.4 -0.2
v -0.2 0.5 -0.2
v -0.2 0.7 -0.2
v -0.1 -0.7 -0.2
v -0.1 -0.5 -0.2
v -0.1 -0.3 -0.2
v -0.1 0 -0.2
v -0.1 0.1 -0.2
v -0.1 0.4 -0.2
v -0.1 0.5 -0.2
v 0 -0.5 -0.2
v 0 -0.3 -0.2
v 0 0 -0.2
v 0 0.1 -0.2
v 0.1 -0.7 -0.2
v 0.1 0.4 -0.2
v 0.1 0.6 -0.2
v 0.2 0.4 -0.2
v 0.2 0.5 -0.2
v 0.2 0.6 -0.2
v 0.2 0.7 -0.2
v 0.3 0.6 -0.2
v 0.3 0.7 -0.2
v 0.5 0.5 -0.2
v 0.5 0.6 -0.2
v 0.6 0.5 -0.2
v 0.6 0.6 -0.2
v 0.7 0.5 -0.2
v 0.7 0.6 -0.2
v 0.7 0.7 -0.2
v -0.4 -0.8 -0.3
v -0.4 -0.7 -0.3
v -0.3 -0.8 -0.3
v -0.3 -0.7 -0.3
v 0.3 -0.8 -0.3
v 0.3 -0.7 -0.3
v 0.4 -0.8 -0.3
v 0.4 -0.7 -0.3
v -0.3 -0.8 -0.4
v -0.3 -0.7 -0.4
v -0.1 -0.8 -0.4
v -0.1 -0.7 -0.4
v 0 -0.8 -0.4
v 0 -0.7 -0.4
v 0.3 -0.8 -0.4
v 0.3 -0.7 -0.4
v -0.3 -0.8 0.4
v -0.2 -0.8 0.4
v -0.1 -0.8 0.4
v 0 -0.8 0.4
v 0.1 -0.8 0.4
v 0.3 -0.8 0.4
v -0.4 -0.8 0.3
v -0.3 -0.8 0.3
v -0.2 -0.8 0.3
v -0.1 -0.8 0.3
v 0 -0.8 0.3
v 0.1 -0.8 0.3
v 0.3 -0.8 0.3
v 0.4 -0.8 0.3
v 0.3 -0.8 0.2
v 0.4 -0.8 0.2
v -0.4 -0.8 0.1
v -0.2 -0.8 0.1
v -0.1 -0.8 0.1
v 0.1 -0.8 0.1
v 0.3 -0.8 0.1
v 0.4 -0.8 0.1
v -0.1 -0.8 -0.1
v 0.1 -0.8 -0.1
v 0.3 -0.8 -0.1
v 0.4 -0.8 -0.1
v -0.4 -0.8 -0.2
v -0.2 -0.8 -0.2
v -0.4 -0.8 -0.3
v -0.3 -0.8 -0.3
v -0.1 -0.8 -0.3
v 0 -0.8 -0.3
v 0.3 -0.8 -0.3
v 0.4 -0.8 -0.3
v -0.3 -0.8 -0.4
v -0.1 -0.8 -0.4
v 0 -0.8 -0.4
v 0.3 -0.8 -0.4
v -0.2 0.4 0.2
v -0.1 0.4 0.2
v 0.1 0.4 0.2
v 0.2 0.4 0.2
v -0.2 0.4 0.1
v -0.1 0.4 0.1
v 0.1 0.4 0.1
v 0.2 0.4 0.1
v -0.2 0.4 -0.1
v -0.1 0.4 -0.1
v 0.1 0.4 -0.1
v 0.2 0.4 -0.1
v -0.2 0.4 -0.2
v -0.1 0.4 -0.2
v 0.1 0.4 -0.2
v 0.2 0.4 -0.2
v -0.7 0.5 0.2
v -0.2 0.5 0.2
v 0.2 0.5 0.2
v 0.3 0.5 0.2
v 0.4 0.5 0.2
v 0.7 0.5 0.2
v 0.3 0.5 0.1
v 0.4 0.5 0.1
v -0.6 0.5 -0.1
v -0.4 0.5 -0.1
v 0.5 0.5 -0.1
v 0.6 0.5 -0.1
v -0.7 0.5 -0.2
v -0.6 0.5 -0.2
v -0.4 0.5 -0.2
v -0.2 0.5 -0.2
v 0.2 0.5 -0.2
v 0.5 0.5 -0.2
v 0.6 0.5 -0.2
v 0.7 0.5 -0.2
v -0.3 -0.7 0.4
v -0.2 -0.7 0.4
v -0.1 -0.7 0.4
v 0 -0.7 0.4
v 0.1 -0.7 0.4
v 0.3 -0.7 0.4
v -0.4 -0.7 0.3
v -0.3 -0.7 0.3
v -0.2 -0.7 0.3
v -0.1 -0.7 0.3
v 0 -0.7 0.3
v 0.1 -0.7 0.3
v 0.3 -0.7 0.3
v 0.4 -0.7 0.3
v -0.1 -0.7 0.2
v 0.1 -0.7 0.2
v 0.3 -0.7 0.2
v 0.4 -0.7 0.2
v -0.4 -0.7 0.1
v -0.2 -0.7 0.1
v -0.1 -0.7 0.1
v 0.1 -0.7 0.1
v 0.2 -0.7 0.1
v 0.3 -0.7 0.1
v 0.4 -0.7 0.1
v -0.2 -0.7 -0.1
v -0.1 -0.7 -0.1
v 0.1 -0.7 -0.1
v 0.2 -0.7 -0.1
v 0.3 -0.7 -0.1
v 0.4 -0.7 -0.1
v -0.4 -0.7 -0.2
v -0.2 -0.7 -0.2
v -0.1 -0.7 -0.2
v 0.1 -0.7 -0.2
v -0.4 -0.7 -0.3
v -0.3 -0.7 -0.3
v -0.1 -0.7 -0.3
v 0 -0.7 -0.3
v 0.3 -0.7 -0.3
v 0.4 -0.7 -0.3
v -0.3 -0.7 -0.4
v -0.1 -0.7 -0.4
v 0 -0.7 -0.4
v 0.3 -0.7 -0.4
v -0.7 0.7 0.2
v -0.3 0.7 0.2
v -0.2 0.7 0.2
v 0.2 0.7 0.2
v 0.3 0.7 0.2
v 0.7 0.7 0.2
v -0.6 0.7 0.1
v -0.4 0.7 0.1
v -0.1 0.7 0.1
v 0.1 0.7 0.1
v 0.4 0.7 0.1
v 0.6 0.7 0.1
v -0.6 0.7 -0.1
v -0.4 0.7 -0.1
v -0.1 0.7 -0.1
v 0.1 0.7 -0.1
v 0.4 0.7 -0.1
v 0.6 0.7 -0.1
v -0.7 0.7 -0.2
v -0.3 0.7 -0.2
v -0.2 0.7 -0.2
v 0.2 0.7 -0.2
v 0.3 0.7 -0.2
v 0.7 0.7 -0.2
v 0.4 1.3 0.1
v 0.5 1.3 0.1
v 0.6 1.3 0.1
v 0.4 1.3 0
v 0.5 1.3 0
v 0.6 1.3 0
v 0.4 1.3 -0.1
v 0.5 1.3 -0.1
v 0.6 1.3 -0.1
v -0.6 1.5 0.1
v -0.5 1.5 0.1
v -0.4 1.5 0.1
v -0.5 1.5 0
v -0.4 1.5 0
v -0.6 1.5 -0.1
v -0.4 1.5 -0.1
v -0.1 1.7 0.1
v 0.1 1.7 0.1
v -0.1 1.7 0
v 0 1.7 0
v -0.1 1.7 -0.1
v 0 1.7 -0.1
v 0.1 1.7 -0.1

# faces
f 3/5/1 2/5/1 1/5/1
f 4/5/1 2/5/1 3/5/1
f 5/3/1 4/3/1 3/3/1
f 6/3/1 4/3/1 5/3/1
f 9/4/1 8/4/1 7/4/1
f 10/4/1 8/4/1 9/4/1
f 11/2/1 10/2/1 9/2/1
f 12/2/1 10/2/1 11/2/1
f 17/5/1 14/5/1 13/5/1
f 18/3/1 15/3/1 14/3/1
f 18/5/1 14/5/1 17/5/1
f 19/5/1 16/5/1 15/5/1
f 19/3/1 15/3/1 18/3/1
f 20/5/1 16/5/1 19/5/1
f 25/5/1 22/5/1 21/5/1
f 26/5/1 22/5/1 25/5/1
f 27/5/1 24/5/1 23/5/1
f 28/5/1 24/5/1 27/5/1
f 31/5/1 30/5/1 29/5/1
f 32/5/1 30/5/1 31/5/1
f 33/3/1 32/3/1 31/3/1
f 34/3/1 32/3/1 33/3/1
f 35/3/1 33/3/1 31/3/1
f 36/5/1 34/5/1 33/5/1
f 36/3/1 33/3/1 35/3/1
f 37/5/1 36/5/1 35/5/1
f 38/5/1 34/5/1 36/5/1
f 38/5/1 36/5/1 37/5/1
f 39/3/1 38/3/1 37/3/1
f 40/5/1 34/5/1 38/5/1
f 40/3/1 38/3/1 39/3/1
f 42/5/1 40/5/1 39/5/1
f 43/5/1 34/5/1 40/5/1
f 43/5/1 40/5/1 42/5/1
f 45/5/1 43/5/1 42/5/1
f 45/5/1 44/5/1 43/5/1
f 45/5/1 42/5/1 41/5/1
f 46/5/1 44/5/1 45/5/1
f 51/5/1 48/5/1 47/5/1
f 52/5/1 48/5/1 51/5/1
f 53/5/1 50/5/1 49/5/1
f 54/5/1 50/5/1 53/5/1
f 55/3/1 54/3/1 53/3/1
f 56/3/1 54/3/1 55/3/1
f 57/3/1 52/3/1 51/3/1
f 58/3/1 52/3/1 57/3/1
f 59/5/1 58/5/1 57/5/1
f 60/5/1 56/5/1 55/5/1
f 61/5/1 56/5/1 60/5/1
f 62/5/1 59/5/1 57/5/1
f 63/5/1 59/5/1 62/5/1
f 64/3/1 61/3/1 60/3/1
f 65/3/1 61/3/1 64/3/1
f 66/3/1 63/3/1 62/3/1
f 67/3/1 63/3/1 66/3/1
f 68/5/1 67/5/1 66/5/1
f 69/5/1 67/5/1 68/5/1
f 70/5/1 65/5/1 64/5/1
f 71/5/1 65/5/1 70/5/1
f 74/4/1 73/4/1 72/4/1
f 75/4/1 73/4/1 74/4/1
f 76/2/1 75/2/1 74/2/1
f 77/2/1 75/2/1 76/2/1
f 78/1/1 77/1/1 76/1/1
f 79/2/1 75/2/1 77/2/1
f 79/1/1 77/1/1 78/1/1
f 80/2/1 75/2/1 79/2/1
f 83/4/1 82/4/1 81/4/1
f 84/4/1 82/4/1 83/4/1
f 85/2/1 84/2/1 83/2/1
f 86/2/1 84/2/1 85/2/1
f 87/2/1 85/2/1 83/2/1
f 88/1/1 86/1/1 85/1/1
f 88/2/1 85/2/1 87/2/1
f 89/1/1 86/1/1 88/1/1
f 90/4/2 91/4/2 92/4/2
f 92/4/2 91/4/2 93/4/2
f 93/4/2 91/4/2 94/4/2
f 92/2/2 93/2/2 95/2/2
f 93/1/2 94/1/2 96/1/2
f 95/2/2 93/2/2 96/2/2
f 96/1/2 94/1/2 97/1/2
f 95/1/2 96/1/2 98/1/2
f 96/2/2 97/2/2 99/2/2
f 98/1/2 96/1/2 99/1/2
f 99/2/2 97/2/2 100/2/2
f 101/5/2 102/5/2 105/5/2
f 103/5/2 104/5/2 106/5/2
f 101/5/2 105/5/2 107/5/2
f 106/5/2 104/5/2 108/5/2
f 108/5/2 104/5/2 109/5/2
f 109/5/2 104/5/2 110/5/2
f 101/5/2 107/5/2 111/5/2
f 111/5/2 107/5/2 112/5/2
f 110/5/2 104/5/2 113/5/2
f 113/5/2 104/5/2 114/5/2
f 115/4/2 116/4/2 117/4/2
f 117/4/2 116/4/2 118/4/2
f 117/2/2 118/2/2 119/2/2
f 119/2/2 118/2/2 120/2/2
f 119/1/2 120/1/2 121/1/2
f 121/1/2 120/1/2 122/1/2
f 123/5/2 124/5/2 125/5/2
f 125/5/2 124/5/2 126/5/2
f 125/3/2 126/3/2 127/3/2
f 127/3/2 126/3/2 128/3/2
f 127/5/2 128/5/2 129/5/2
f 129/5/2 128/5/2 130/5/2
f 127/5/2 129/5/2 131/5/2
f 129/3/2 130/3/2 131/3/2
f 131/3/2 130/3/2 132/3/2
f 127/5/2 131/5/2 134/5/2
f 131/5/2 132/5/2 134/5/2
f 134/5/2 132/5/2 135/5/2
f 134/5/2 135/5/2 137/5/2
f 135/5/2 136/5/2 137/5/2
f 133/5/2 134/5/2 137/5/2
f 137/5/2 136/5/2 138/5/2
f 139/5/2 140/5/2 143/5/2
f 143/5/2 140/5/2 144/5/2
f 141/5/2 142/5/2 145/5/2
f 145/5/2 142/5/2 146/5/2
f 147/5/2 148/5/2 152/5/2
f 148/3/2 149/3/2 153/3/2
f 152/5/2 148/5/2 153/5/2
f 149/5/2 150/5/2 154/5/2
f 153/3/2 149/3/2 154/3/2
f 150/3/2 151/3/2 155/3/2
f 154/5/2 150/5/2 155/5/2
f 155/3/2 151/3/2 156/3/2
f 157/4/2 158/4/2 159/4/2
f 159/4/2 158/4/2 160/4/2
f 159/2/2 160/2/2 161/2/2
f 161/2/2 160/2/2 162/2/2
f 161/1/2 162/1/2 163/1/2
f 162/2/2 160/2/2 164/2/2
f 163/1/2 162/1/2 164/1/2
f 164/2/2 160/2/2 165/2/2
f 166/5/2 167/5/2 168/5/2
f 168/5/2 167/5/2 169/5/2
f 168/3/2 169/3/2 170/3/2
f 170/3/2 169/3/2 171/3/2
f 174/5/3 173/5/3 172/5/3
f 175/5/3 173/5/3 174/5/3
f 176/3/3 175/3/3 174/3/3
f 177/3/3 175/3/3 176/3/3
f 178/5/3 177/5/3 176/5/3
f 179/5/3 177/5/3 178/5/3
f 180/3/3 179/3/3 178/3/3
f 181/3/3 179/3/3 180/3/3
f 182/5/3 181/5/3 180/5/3
f 183/5/3 181/5/3 182/5/3
f 186/5/3 185/5/3 184/5/3
f 187/5/3 185/5/3 186/5/3
f 190/5/3 189/5/3 188/5/3
f 191/5/3 189/5/3 190/5/3
f 195/5/3 193/5/3 192/5/3
f 195/3/3 194/3/3 193/3/3
f 196/3/3 194/3/3 195/3/3
f 198/5/3 195/5/3 192/5/3
f 198/5/3 196/5/3 195/5/3
f 199/5/3 196/5/3 198/5/3
f 205/5/3 198/5/3 197/5/3
f 206/3/3 199/3/3 198/3/3
f 206/5/3 198/5/3 205/5/3
f 207/5/3 201/5/3 200/5/3
f 207/3/3 202/3/3 201/3/3
f 208/5/3 203/5/3 202/5/3
f 208/3/3 202/3/3 207/3/3
f 209/3/3 204/3/3 203/3/3
f 209/5/3 203/5/3 208/5/3
f 210/5/3 205/5/3 204/5/3
f 210/3/3 204/3/3 209/3/3
f 211/3/3 206/3/3 205/3/3
f 211/5/3 205/5/3 210/5/3
f 212/3/3 199/3/3 206/3/3
f 212/3/3 206/3/3 211/3/3
f 213/5/3 208/5/3 207/5/3
f 213/5/3 209/5/3 208/5/3
f 213/5/3 212/5/3 211/5/3
f 213/5/3 211/5/3 210/5/3
f 213/5/3 207/5/3 200/5/3
f 213/5/3 210/5/3 209/5/3
f 214/5/3 212/5/3 213/5/3
f 215/5/3 212/5/3 214/5/3
f 216/5/3 212/5/3 215/5/3
f 217/3/3 199/3/3 212/3/3
f 217/5/3 212/5/3 216/5/3
f 218/3/3 199/3/3 217/3/3
f 219/5/3 217/5/3 216/5/3
f 219/5/3 218/5/3 217/5/3
f 220/5/3 218/5/3 219/5/3
f 221/3/3 220/3/3 219/3/3
f 222/3/3 220/3/3 221/3/3
f 223/5/3 222/5/3 221/5/3
f 224/3/3 220/3/3 222/3/3
f 224/5/3 222/5/3 223/5/3
f 225/3/3 220/3/3 224/3/3
f 229/2/3 228/2/3 227/2/3
f 230/2/3 228/2/3 229/2/3
f 231/4/3 227/4/3 226/4/3
f 232/2/3 229/2/3 227/2/3
f 232/4/3 227/4/3 231/4/3
f 233/1/3 230/1/3 229/1/3
f 233/2/3 229/2/3 232/2/3
f 234/1/3 230/1/3 233/1/3
f 241/5/3 236/5/3 235/5/3
f 242/3/3 237/3/3 236/3/3
f 242/5/3 236/5/3 241/5/3
f 243/5/3 238/5/3 237/5/3
f 243/3/3 237/3/3 242/3/3
f 244/3/3 239/3/3 238/3/3
f 244/5/3 238/5/3 243/5/3
f 245/5/3 240/5/3 239/5/3
f 245/3/3 239/3/3 244/3/3
f 246/5/3 240/5/3 245/5/3
f 247/5/3 240/5/3 246/5/3
f 256/4/3 249/4/3 248/4/3
f 257/2/3 250/2/3 249/2/3
f 257/4/3 249/4/3 256/4/3
f 258/1/3 251/1/3 250/1/3
f 258/2/3 250/2/3 257/2/3
f 259/1/3 251/1/3 258/1/3
f 260/5/3 253/5/3 252/5/3
f 261/3/3 254/3/3 253/3/3
f 261/5/3 253/5/3 260/5/3
f 262/5/3 255/5/3 254/5/3
f 262/3/3 254/3/3 261/3/3
f 263/5/3 255/5/3 262/5/3
f 267/2/3 266/2/3 265/2/3
f 268/2/3 266/2/3 267/2/3
f 269/4/3 265/4/3 264/4/3
f 270/2/3 267/2/3 265/2/3
f 270/4/3 265/4/3 269/4/3
f 271/1/3 268/1/3 267/1/3
f 271/2/3 267/2/3 270/2/3
f 272/1/3 268/1/3 271/1/3
f 273/4/4 274/4/4 276/4/4
f 274/2/4 275/2/4 276/2/4
f 276/2/4 275/2/4 277/2/4
f 273/4/4 276/4/4 278/4/4
f 276/1/4 277/1/4 279/1/4
f 278/4/4 276/4/4 279/4/4
f 277/2/4 275/2/4 280/2/4
f 279/1/4 277/1/4 280/1/4
f 280/2/4 275/2/4 281/2/4
f 282/5/4 283/5/4 286/5/4
f 283/3/4 284/3/4 287/3/4
f 286/5/4 283/5/4 287/5/4
f 284/5/4 285/5/4 288/5/4
f 287/3/4 284/3/4 288/3/4
f 288/5/4 285/5/4 289/5/4
f 289/5/4 285/5/4 290/5/4
f 290/5/4 285/5/4 291/5/4
f 293/2/4 294/2/4 295/2/4
f 295/2/4 294/2/4 296/2/4
f 292/4/4 293/4/4 303/4/4
f 293/2/4 295/2/4 304/2/4
f 303/4/4 293/4/4 304/4/4
f 295/1/4 296/1/4 305/1/4
f 304/2/4 295/2/4 305/2/4
f 305/1/4 296/1/4 306/1/4
f 297/5/4 298/5/4 307/5/4
f 298/3/4 299/3/4 308/3/4
f 307/5/4 298/5/4 308/5/4
f 299/5/4 300/5/4 309/5/4
f 308/3/4 299/3/4 309/3/4
f 300/3/4 301/3/4 310/3/4
f 309/5/4 300/5/4 310/5/4
f 301/5/4 302/5/4 311/5/4
f 310/3/4 301/3/4 311/3/4
f 311/5/4 302/5/4 312/5/4
f 314/2/4 315/2/4 317/2/4
f 315/1/4 316/1/4 317/1/4
f 317/1/4 316/1/4 318/1/4
f 313/4/4 314/4/4 319/4/4
f 314/2/4 317/2/4 320/2/4
f 319/4/4 314/4/4 320/4/4
f 317/2/4 318/2/4 320/2/4
f 320/2/4 318/2/4 321/2/4
f 322/5/4 323/5/4 325/5/4
f 323/3/4 324/3/4 326/3/4
f 325/5/4 323/5/4 326/5/4
f 325/3/4 326/3/4 327/3/4
f 326/3/4 324/3/4 328/3/4
f 327/3/4 326/3/4 328/3/4
f 327/5/4 328/5/4 329/5/4
f 328/3/4 324/3/4 329/3/4
f 329/3/4 324/3/4 330/3/4
f 327/5/4 329/5/4 332/5/4
f 329/5/4 330/5/4 332/5/4
f 332/5/4 330/5/4 333/5/4
f 331/5/4 332/5/4 339/5/4
f 332/3/4 333/3/4 340/3/4
f 339/5/4 332/5/4 340/5/4
f 334/5/4 335/5/4 341/5/4
f 335/3/4 336/3/4 341/3/4
f 336/5/4 337/5/4 342/5/4
f 341/3/4 336/3/4 342/3/4
f 337/3/4 338/3/4 343/3/4
f 342/5/4 337/5/4 343/5/4
f 338/5/4 339/5/4 344/5/4
f 343/3/4 338/3/4 344/3/4
f 341/5/4 342/5/4 345/5/4
f 342/5/4 343/5/4 345/5/4
f 343/5/4 344/5/4 345/5/4
f 334/5/4 341/5/4 345/5/4
f 344/5/4 339/5/4 346/5/4
f 345/5/4 344/5/4 346/5/4
f 339/3/4 340/3/4 346/3/4
f 340/3/4 333/3/4 347/3/4
f 346/3/4 340/3/4 347/3/4
f 346/5/4 347/5/4 348/5/4
f 348/5/4 347/5/4 349/5/4
f 347/3/4 333/3/4 350/3/4
f 349/5/4 347/5/4 350/5/4
f 350/3/4 333/3/4 351/3/4
f 349/5/4 350/5/4 352/5/4
f 350/5/4 351/5/4 352/5/4
f 352/5/4 351/5/4 353/5/4
f 349/5/4 352/5/4 354/5/4
f 352/3/4 353/3/4 355/3/4
f 354/5/4 352/5/4 355/5/4
f 354/3/4 355/3/4 356/3/4
f 355/3/4 353/3/4 357/3/4
f 356/3/4 355/3/4 357/3/4
f 356/5/4 357/5/4 358/5/4
f 357/3/4 353/3/4 359/3/4
f 358/5/4 357/5/4 359/5/4
f 359/3/4 353/3/4 360/3/4
f 361/5/4 362/5/4 363/5/4
f 363/5/4 362/5/4 364/5/4
f 365/3/4 366/3/4 367/3/4
f 367/3/4 366/3/4 368/3/4
f 369/5/4 370/5/4 371/5/4
f 371/5/4 370/5/4 372/5/4
f 371/3/4 372/3/4 373/3/4
f 373/3/4 372/3/4 374/3/4
f 373/5/4 374/5/4 375/5/4
f 375/5/4 374/5/4 376/5/4
f 384/5/5 378/5/5 377/5/5
f 385/3/5 379/3/5 378/3/5
f 385/5/5 378/5/5 384/5/5
f 386/5/5 380/5/5 379/5/5
f 386/3/5 379/3/5 385/3/5
f 387/3/5 381/3/5 380/3/5
f 387/5/5 380/5/5 386/5/5
f 388/5/5 382/5/5 381/5/5
f 388/3/5 381/3/5 387/3/5
f 389/5/5 382/5/5 388/5/5
f 391/5/5 387/5/5 386/5/5
f 391/5/5 390/5/5 389/5/5
f 391/5/5 389/5/5 388/5/5
f 391/5/5 388/5/5 387/5/5
f 391/5/5 384/5/5 383/5/5
f 391/5/5 386/5/5 385/5/5
f 391/5/5 385/5/5 384/5/5
f 392/5/5 390/5/5 391/5/5
f 393/5/5 391/5/5 383/5/5
f 394/5/5 391/5/5 393/5/5
f 395/5/5 391/5/5 394/5/5
f 396/5/5 391/5/5 395/5/5
f 397/3/5 392/3/5 391/3/5
f 397/5/5 391/5/5 396/5/5
f 398/3/5 392/3/5 397/3/5
f 399/6/5 396/6/5 395/6/5
f 399/5/5 395/5/5 394/5/5
f 400/5/5 398/5/5 397/5/5
f 400/6/5 396/6/5 399/6/5
f 400/5/5 397/5/5 396/5/5
f 401/5/5 398/5/5 400/5/5
f 402/5/5 398/5/5 401/5/5
f 403/3/5 394/3/5 393/3/5
f 404/5/5 399/5/5 394/5/5
f 404/3/5 394/3/5 403/3/5
f 404/5/5 400/5/5 399/5/5
f 404/5/5 401/5/5 400/5/5
f 405/5/5 404/5/5 403/5/5
f 406/5/5 404/5/5 405/5/5
f 407/5/5 401/5/5 404/5/5
f 407/5/5 404/5/5 406/5/5
f 408/5/5 401/5/5 407/5/5
f 409/3/5 402/3/5 401/3/5
f 409/5/5 401/5/5 408/5/5
f 410/3/5 402/3/5 409/3/5
f 411/5/5 407/5/5 406/5/5
f 412/3/5 408/3/5 407/3/5
f 412/5/5 407/5/5 411/5/5
f 413/5/5 409/5/5 408/5/5
f 413/3/5 408/3/5 412/3/5
f 414/5/5 409/5/5 413/5/5
f 419/5/5 416/5/5 415/5/5
f 420/5/5 416/5/5 419/5/5
f 421/5/5 418/5/5 417/5/5
f 422/5/5 418/5/5 421/5/5
f 427/5/5 424/5/5 423/5/5
f 428/5/5 424/5/5 427/5/5
f 429/5/5 426/5/5 425/5/5
f 430/5/5 426/5/5 429/5/5
f 437/5/5 434/5/5 433/5/5
f 437/3/5 435/3/5 434/3/5
f 438/5/5 436/5/5 435/5/5
f 438/3/5 435/3/5 437/3/5
f 439/5/5 432/5/5 431/5/5
f 440/5/5 432/5/5 439/5/5
f 441/5/5 436/5/5 438/5/5
f 441/5/5 438/5/5 437/5/5
f 442/5/5 436/5/5 441/5/5
f 443/5/5 439/5/5 431/5/5
f 444/3/5 440/3/5 439/3/5
f 444/5/5 439/5/5 443/5/5
f 445/5/5 432/5/5 440/5/5
f 445/3/5 440/3/5 444/3/5
f 446/5/5 432/5/5 445/5/5
f 447/5/5 437/5/5 433/5/5
f 447/5/5 441/5/5 437/5/5
f 448/3/5 442/3/5 441/3/5
f 448/5/5 441/5/5 447/5/5
f 449/5/5 436/5/5 442/5/5
f 449/3/5 442/3/5 448/3/5
f 450/5/5 436/5/5 449/5/5
f 451/5/6 452/5/6 458/5/6
f 452/3/6 453/3/6 459/3/6
f 458/5/6 452/5/6 459/5/6
f 453/5/6 454/5/6 460/5/6
f 459/3/6 453/3/6 460/3/6
f 454/3/6 455/3/6 461/3/6
f 460/5/6 454/5/6 461/5/6
f 455/5/6 456/5/6 462/5/6
f 461/3/6 455/3/6 462/3/6
f 462/5/6 456/5/6 463/5/6
f 460/5/6 461/5/6 465/5/6
f 463/5/6 464/5/6 465/5/6
f 462/5/6 463/5/6 465/5/6
f 461/5/6 462/5/6 465/5/6
f 457/5/6 458/5/6 465/5/6
f 459/5/6 460/5/6 465/5/6
f 458/5/6 459/5/6 465/5/6
f 465/5/6 464/5/6 466/5/6
f 466/5/6 464/5/6 467/5/6
f 467/5/6 464/5/6 468/5/6
f 457/5/6 465/5/6 469/5/6
f 469/5/6 465/5/6 470/5/6
f 470/5/6 465/5/6 471/5/6
f 466/5/6 467/5/6 472/5/6
f 472/5/6 467/5/6 473/5/6
f 467/3/6 468/3/6 474/3/6
f 473/5/6 467/5/6 474/5/6
f 474/3/6 468/3/6 475/3/6
f 469/3/6 470/3/6 476/3/6
f 474/5/6 475/5/6 479/5/6
f 473/5/6 474/5/6 479/5/6
f 479/5/6 475/5/6 480/5/6
f 480/5/6 475/5/6 481/5/6
f 469/3/6 476/3/6 482/3/6
f 476/5/6 477/5/6 483/5/6
f 482/3/6 476/3/6 483/3/6
f 483/5/6 477/5/6 484/5/6
f 478/5/6 479/5/6 485/5/6
f 479/5/6 480/5/6 485/5/6
f 483/5/6 484/5/6 486/5/6
f 484/5/6 485/5/6 486/5/6
f 482/5/6 483/5/6 486/5/6
f 486/5/6 485/5/6 487/5/6
f 487/5/6 485/5/6 488/5/6
f 488/5/6 485/5/6 489/5/6
f 485/5/6 480/5/6 490/5/6
f 489/5/6 485/5/6 490/5/6
f 480/3/6 481/3/6 490/3/6
f 490/3/6 481/3/6 491/3/6
f 487/5/6 488/5/6 492/5/6
f 488/3/6 489/3/6 493/3/6
f 492/5/6 488/5/6 493/5/6
f 489/5/6 490/5/6 494/5/6
f 493/3/6 489/3/6 494/3/6
f 494/5/6 490/5/6 495/5/6
f 496/3/6 497/3/6 502/3/6
f 502/3/6 497/3/6 503/3/6
f 498/3/6 499/3/6 504/3/6
f 504/3/6 499/3/6 505/3/6
f 500/3/6 501/3/6 506/3/6
f 506/3/6 501/3/6 507/3/6
f 496/3/6 502/3/6 508/3/6
f 503/3/6 497/3/6 509/3/6
f 498/3/6 504/3/6 510/3/6
f 505/3/6 499/3/6 511/3/6
f 500/3/6 506/3/6 512/3/6
f 507/3/6 501/3/6 513/3/6
f 496/3/6 508/3/6 514/3/6
f 508/3/6 509/3/6 514/3/6
f 497/5/6 498/5/6 515/5/6
f 514/3/6 509/3/6 515/3/6
f 509/3/6 497/3/6 515/3/6
f 498/3/6 510/3/6 516/3/6
f 515/5/6 498/5/6 516/5/6
f 510/3/6 511/3/6 516/3/6
f 499/5/6 500/5/6 517/5/6
f 516/3/6 511/3/6 517/3/6
f 511/3/6 499/3/6 517/3/6
f 512/3/6 513/3/6 518/3/6
f 517/5/6 500/5/6 518/5/6
f 500/3/6 512/3/6 518/3/6
f 513/3/6 501/3/6 519/3/6
f 518/3/6 513/3/6 519/3/6
f 520/2/6 521/2/6 523/2/6
f 521/1/6 522/1/6 524/1/6
f 523/2/6 521/2/6 524/2/6
f 524/1/6 522/1/6 525/1/6
f 523/1/6 524/1/6 526/1/6
f 524/2/6 525/2/6 527/2/6
f 526/1/6 524/1/6 527/1/6
f 527/2/6 525/2/6 528/2/6
f 529/2/6 530/2/6 532/2/6
f 530/1/6 531/1/6 532/1/6
f 532/1/6 531/1/6 533/1/6
f 529/2/6 532/2/6 534/2/6
f 532/2/6 533/2/6 534/2/6
f 534/2/6 533/2/6 535/2/6
f 536/1/6 537/1/6 538/1/6
f 538/1/6 537/1/6 539/1/6
f 538/2/6 539/2/6 540/2/6
f 539/1/6 537/1/6 541/1/6
f 540/2/6 539/2/6 541/2/6
f 541/1/6 537/1/6 542/1/6
