# MagicaVoxel @ Ephtracy

# group
o 

# material
mtllib coin.mtl
usemtl palette

# normals
vn -1 0 0
vn 1 0 0
vn 0 0 1
vn 0 0 -1
vn 0 -1 0
vn 0 1 0

# texcoords
vt 0.880859 0.5
vt 0.912109 0.5
vt 0.943359 0.5
vt 0.974609 0.5

# verts
v -0.2 -0.8 0.8
v -0.2 -0.8 -0.8
v -0.2 -0.7 1
v -0.2 -0.7 0.8
v -0.2 -0.7 0.7
v -0.2 -0.7 -0.7
v -0.2 -0.7 -0.8
v -0.2 -0.7 -1
v -0.2 -0.6 1.2
v -0.2 -0.6 1
v -0.2 -0.6 0.9
v -0.2 -0.6 0.8
v -0.2 -0.6 0.7
v -0.2 -0.6 -0.7
v -0.2 -0.6 -0.8
v -0.2 -0.6 -0.9
v -0.2 -0.6 -1
v -0.2 -0.6 -1.2
v -0.2 -0.5 1.3
v -0.2 -0.5 1.2
v -0.2 -0.5 1.1
v -0.2 -0.5 1
v -0.2 -0.5 0.9
v -0.2 -0.5 -0.9
v -0.2 -0.5 -1
v -0.2 -0.5 -1.1
v -0.2 -0.5 -1.2
v -0.2 -0.5 -1.3
v -0.2 -0.4 1.2
v -0.2 -0.4 1.1
v -0.2 -0.4 1
v -0.2 -0.4 -1
v -0.2 -0.4 -1.1
v -0.2 -0.4 -1.2
v -0.2 -0.3 1.4
v -0.2 -0.3 1.3
v -0.2 -0.3 1.2
v -0.2 -0.3 1.1
v -0.2 -0.3 -1.1
v -0.2 -0.3 -1.2
v -0.2 -0.3 -1.3
v -0.2 -0.3 -1.4
v -0.2 -0.2 1.3
v -0.2 -0.2 1.2
v -0.2 -0.2 -1.2
v -0.2 -0.2 -1.3
v -0.2 -0.2 -1.4
v -0.2 -0.1 1.5
v -0.2 -0.1 1.4
v -0.2 -0.1 1.3
v -0.2 -0.1 -1.3
v -0.2 -0.1 -1.4
v -0.2 -0.1 -1.5
v -0.2 0 1.5
v -0.2 0 1.4
v -0.2 0 0.3
v -0.2 0 -0.3
v -0.2 0 -1.4
v -0.2 0 -1.5
v -0.2 0.1 1.6
v -0.2 0.1 1.5
v -0.2 0.1 1.4
v -0.2 0.1 0.2
v -0.2 0.1 -0.2
v -0.2 0.1 -1.4
v -0.2 0.1 -1.5
v -0.2 0.1 -1.6
v -0.2 1.5 1.6
v -0.2 1.5 1.5
v -0.2 1.5 1.4
v -0.2 1.5 0.2
v -0.2 1.5 -0.2
v -0.2 1.5 -1.4
v -0.2 1.5 -1.5
v -0.2 1.5 -1.6
v -0.2 1.6 1.5
v -0.2 1.6 1.4
v -0.2 1.6 0.3
v -0.2 1.6 -0.3
v -0.2 1.6 -1.4
v -0.2 1.6 -1.5
v -0.2 1.7 1.5
v -0.2 1.7 1.4
v -0.2 1.7 1.3
v -0.2 1.7 -1.3
v -0.2 1.7 -1.4
v -0.2 1.7 -1.5
v -0.2 1.8 1.3
v -0.2 1.8 1.2
v -0.2 1.8 -1.2
v -0.2 1.8 -1.3
v -0.2 1.9 1.4
v -0.2 1.9 1.3
v -0.2 1.9 1.2
v -0.2 1.9 1.1
v -0.2 1.9 -1.1
v -0.2 1.9 -1.2
v -0.2 1.9 -1.3
v -0.2 1.9 -1.4
v -0.2 2 1.2
v -0.2 2 1.1
v -0.2 2 1
v -0.2 2 -1
v -0.2 2 -1.1
v -0.2 2 -1.2
v -0.2 2.1 1.3
v -0.2 2.1 1.2
v -0.2 2.1 1.1
v -0.2 2.1 1
v -0.2 2.1 0.9
v -0.2 2.1 -0.9
v -0.2 2.1 -1
v -0.2 2.1 -1.1
v -0.2 2.1 -1.2
v -0.2 2.1 -1.3
v -0.2 2.2 1.2
v -0.2 2.2 1
v -0.2 2.2 0.9
v -0.2 2.2 0.8
v -0.2 2.2 0.7
v -0.2 2.2 -0.7
v -0.2 2.2 -0.8
v -0.2 2.2 -0.9
v -0.2 2.2 -1
v -0.2 2.2 -1.2
v -0.2 2.3 1
v -0.2 2.3 0.8
v -0.2 2.3 0.7
v -0.2 2.3 -0.7
v -0.2 2.3 -0.8
v -0.2 2.3 -1
v -0.2 2.4 0.8
v -0.2 2.4 -0.8
v -0.0999999 -0.7 0.7
v -0.0999999 -0.7 -0.7
v -0.0999999 -0.6 0.9
v -0.0999999 -0.6 0.8
v -0.0999999 -0.6 0.7
v -0.0999999 -0.6 -0.7
v -0.0999999 -0.6 -0.8
v -0.0999999 -0.6 -0.9
v -0.0999999 -0.5 1
v -0.0999999 -0.5 0.9
v -0.0999999 -0.5 0.7
v -0.0999999 -0.5 -0.7
v -0.0999999 -0.5 -0.9
v -0.0999999 -0.5 -1
v -0.0999999 -0.4 1.1
v -0.0999999 -0.4 1
v -0.0999999 -0.4 0.9
v -0.0999999 -0.4 -0.9
v -0.0999999 -0.4 -1
v -0.0999999 -0.4 -1.1
v -0.0999999 -0.3 1.2
v -0.0999999 -0.3 1.1
v -0.0999999 -0.3 1
v -0.0999999 -0.3 -1
v -0.0999999 -0.3 -1.1
v -0.0999999 -0.3 -1.2
v -0.0999999 -0.2 1.3
v -0.0999999 -0.2 1.2
v -0.0999999 -0.2 1.1
v -0.0999999 -0.2 -1.1
v -0.0999999 -0.2 -1.2
v -0.0999999 -0.2 -1.3
v -0.0999999 -0.1 1.4
v -0.0999999 -0.1 1.3
v -0.0999999 -0.1 1.2
v -0.0999999 -0.1 0.4
v -0.0999999 -0.1 -0.4
v -0.0999999 -0.1 -1.2
v -0.0999999 -0.1 -1.3
v -0.0999999 -0.1 -1.4
v -0.0999999 0 1.4
v -0.0999999 0 0.3
v -0.0999999 0 -0.3
v -0.0999999 0 -1.4
v -0.0999999 0.1 1.5
v -0.0999999 0.1 1.4
v -0.0999999 0.1 1.3
v -0.0999999 0.1 -1.3
v -0.0999999 0.1 -1.4
v -0.0999999 0.1 -1.5
v -0.0999999 1.5 1.5
v -0.0999999 1.5 1.4
v -0.0999999 1.5 1.3
v -0.0999999 1.5 -1.3
v -0.0999999 1.5 -1.4
v -0.0999999 1.5 -1.5
v -0.0999999 1.6 1.4
v -0.0999999 1.6 0.3
v -0.0999999 1.6 -0.3
v -0.0999999 1.6 -1.4
v -0.0999999 1.7 1.4
v -0.0999999 1.7 1.3
v -0.0999999 1.7 1.2
v -0.0999999 1.7 0.4
v -0.0999999 1.7 -0.4
v -0.0999999 1.7 -1.2
v -0.0999999 1.7 -1.3
v -0.0999999 1.7 -1.4
v -0.0999999 1.8 1.3
v -0.0999999 1.8 1.2
v -0.0999999 1.8 1.1
v -0.0999999 1.8 -1.1
v -0.0999999 1.8 -1.2
v -0.0999999 1.8 -1.3
v -0.0999999 1.9 1.2
v -0.0999999 1.9 1.1
v -0.0999999 1.9 1
v -0.0999999 1.9 -1
v -0.0999999 1.9 -1.1
v -0.0999999 1.9 -1.2
v -0.0999999 2 1.1
v -0.0999999 2 1
v -0.0999999 2 0.9
v -0.0999999 2 -0.9
v -0.0999999 2 -1
v -0.0999999 2 -1.1
v -0.0999999 2.1 1
v -0.0999999 2.1 0.9
v -0.0999999 2.1 0.7
v -0.0999999 2.1 -0.7
v -0.0999999 2.1 -0.9
v -0.0999999 2.1 -1
v -0.0999999 2.2 0.9
v -0.0999999 2.2 0.8
v -0.0999999 2.2 0.7
v -0.0999999 2.2 -0.7
v -0.0999999 2.2 -0.8
v -0.0999999 2.2 -0.9
v -0.0999999 2.3 0.7
v -0.0999999 2.3 -0.7
v 5.96046e-08 -0.7 0.7
v 5.96046e-08 -0.7 -0.7
v 5.96046e-08 -0.6 0.9
v 5.96046e-08 -0.6 0.8
v 5.96046e-08 -0.6 0.7
v 5.96046e-08 -0.6 -0.7
v 5.96046e-08 -0.6 -0.8
v 5.96046e-08 -0.6 -0.9
v 5.96046e-08 -0.5 1
v 5.96046e-08 -0.5 0.9
v 5.96046e-08 -0.5 0.7
v 5.96046e-08 -0.5 -0.7
v 5.96046e-08 -0.5 -0.9
v 5.96046e-08 -0.5 -1
v 5.96046e-08 -0.4 1.1
v 5.96046e-08 -0.4 1
v 5.96046e-08 -0.4 0.9
v 5.96046e-08 -0.4 -0.9
v 5.96046e-08 -0.4 -1
v 5.96046e-08 -0.4 -1.1
v 5.96046e-08 -0.3 1.2
v 5.96046e-08 -0.3 1.1
v 5.96046e-08 -0.3 1
v 5.96046e-08 -0.3 -1
v 5.96046e-08 -0.3 -1.1
v 5.96046e-08 -0.3 -1.2
v 5.96046e-08 -0.2 1.3
v 5.96046e-08 -0.2 1.2
v 5.96046e-08 -0.2 1.1
v 5.96046e-08 -0.2 -1.1
v 5.96046e-08 -0.2 -1.2
v 5.96046e-08 -0.2 -1.3
v 5.96046e-08 -0.1 1.4
v 5.96046e-08 -0.1 1.3
v 5.96046e-08 -0.1 1.2
v 5.96046e-08 -0.1 0.4
v 5.96046e-08 -0.1 -0.4
v 5.96046e-08 -0.1 -1.2
v 5.96046e-08 -0.1 -1.3
v 5.96046e-08 -0.1 -1.4
v 5.96046e-08 0 1.4
v 5.96046e-08 0 0.3
v 5.96046e-08 0 -0.3
v 5.96046e-08 0 -1.4
v 5.96046e-08 0.1 1.5
v 5.96046e-08 0.1 1.4
v 5.96046e-08 0.1 1.3
v 5.96046e-08 0.1 -1.3
v 5.96046e-08 0.1 -1.4
v 5.96046e-08 0.1 -1.5
v 5.96046e-08 1.5 1.5
v 5.96046e-08 1.5 1.4
v 5.96046e-08 1.5 1.3
v 5.96046e-08 1.5 -1.3
v 5.96046e-08 1.5 -1.4
v 5.96046e-08 1.5 -1.5
v 5.96046e-08 1.6 0.3
v 5.96046e-08 1.6 -0.3
v 5.96046e-08 1.6 -1.4
v 5.96046e-08 1.7 1.4
v 5.96046e-08 1.7 1.3
v 5.96046e-08 1.7 1.2
v 5.96046e-08 1.7 0.4
v 5.96046e-08 1.7 -0.4
v 5.96046e-08 1.7 -1.2
v 5.96046e-08 1.7 -1.3
v 5.96046e-08 1.7 -1.4
v 5.96046e-08 1.8 1.3
v 5.96046e-08 1.8 1.2
v 5.96046e-08 1.8 1.1
v 5.96046e-08 1.8 -1.1
v 5.96046e-08 1.8 -1.2
v 5.96046e-08 1.8 -1.3
v 5.96046e-08 1.9 1.2
v 5.96046e-08 1.9 1.1
v 5.96046e-08 1.9 1
v 5.96046e-08 1.9 -1
v 5.96046e-08 1.9 -1.1
v 5.96046e-08 1.9 -1.2
v 5.96046e-08 2 1.1
v 5.96046e-08 2 1
v 5.96046e-08 2 0.9
v 5.96046e-08 2 -0.9
v 5.96046e-08 2 -1
v 5.96046e-08 2 -1.1
v 5.96046e-08 2.1 1
v 5.96046e-08 2.1 0.9
v 5.96046e-08 2.1 0.7
v 5.96046e-08 2.1 -0.7
v 5.96046e-08 2.1 -0.9
v 5.96046e-08 2.1 -1
v 5.96046e-08 2.2 0.9
v 5.96046e-08 2.2 0.8
v 5.96046e-08 2.2 0.7
v 5.96046e-08 2.2 -0.7
v 5.96046e-08 2.2 -0.8
v 5.96046e-08 2.2 -0.9
v 5.96046e-08 2.3 0.7
v 5.96046e-08 2.3 -0.7
v 0.1 -0.8 0.8
v 0.1 -0.8 -0.8
v 0.1 -0.7 1
v 0.1 -0.7 0.8
v 0.1 -0.7 0.7
v 0.1 -0.7 -0.7
v 0.1 -0.7 -0.8
v 0.1 -0.7 -1
v 0.1 -0.6 1.2
v 0.1 -0.6 1
v 0.1 -0.6 0.9
v 0.1 -0.6 0.8
v 0.1 -0.6 0.7
v 0.1 -0.6 -0.7
v 0.1 -0.6 -0.8
v 0.1 -0.6 -0.9
v 0.1 -0.6 -1
v 0.1 -0.6 -1.2
v 0.1 -0.5 1.3
v 0.1 -0.5 1.2
v 0.1 -0.5 1.1
v 0.1 -0.5 1
v 0.1 -0.5 0.9
v 0.1 -0.5 -0.9
v 0.1 -0.5 -1
v 0.1 -0.5 -1.1
v 0.1 -0.5 -1.2
v 0.1 -0.5 -1.3
v 0.1 -0.4 1.2
v 0.1 -0.4 1.1
v 0.1 -0.4 1
v 0.1 -0.4 -1
v 0.1 -0.4 -1.1
v 0.1 -0.4 -1.2
v 0.1 -0.3 1.4
v 0.1 -0.3 1.3
v 0.1 -0.3 1.2
v 0.1 -0.3 1.1
v 0.1 -0.3 -1.1
v 0.1 -0.3 -1.2
v 0.1 -0.3 -1.3
v 0.1 -0.3 -1.4
v 0.1 -0.2 1.4
v 0.1 -0.2 1.3
v 0.1 -0.2 1.2
v 0.1 -0.2 -1.2
v 0.1 -0.2 -1.3
v 0.1 -0.2 -1.4
v 0.1 -0.1 1.5
v 0.1 -0.1 1.4
v 0.1 -0.1 1.3
v 0.1 -0.1 -1.3
v 0.1 -0.1 -1.4
v 0.1 -0.1 -1.5
v 0.1 0 1.5
v 0.1 0 1.4
v 0.1 0 0.3
v 0.1 0 -0.3
v 0.1 0 -1.4
v 0.1 0 -1.5
v 0.1 0.1 1.6
v 0.1 0.1 1.5
v 0.1 0.1 1.4
v 0.1 0.1 0.2
v 0.1 0.1 -0.2
v 0.1 0.1 -1.4
v 0.1 0.1 -1.5
v 0.1 0.1 -1.6
v 0.1 1.5 1.6
v 0.1 1.5 1.5
v 0.1 1.5 1.4
v 0.1 1.5 0.2
v 0.1 1.5 -0.2
v 0.1 1.5 -1.4
v 0.1 1.5 -1.5
v 0.1 1.5 -1.6
v 0.1 1.6 0.3
v 0.1 1.6 -0.3
v 0.1 1.6 -1.4
v 0.1 1.6 -1.5
v 0.1 1.7 1.5
v 0.1 1.7 1.4
v 0.1 1.7 1.3
v 0.1 1.7 -1.3
v 0.1 1.7 -1.4
v 0.1 1.7 -1.5
v 0.1 1.8 1.4
v 0.1 1.8 1.3
v 0.1 1.8 1.2
v 0.1 1.8 -1.2
v 0.1 1.8 -1.3
v 0.1 1.9 1.4
v 0.1 1.9 1.3
v 0.1 1.9 1.2
v 0.1 1.9 1.1
v 0.1 1.9 -1.1
v 0.1 1.9 -1.2
v 0.1 1.9 -1.3
v 0.1 1.9 -1.4
v 0.1 2 1.2
v 0.1 2 1.1
v 0.1 2 1
v 0.1 2 -1
v 0.1 2 -1.1
v 0.1 2 -1.2
v 0.1 2.1 1.3
v 0.1 2.1 1.2
v 0.1 2.1 1.1
v 0.1 2.1 1
v 0.1 2.1 0.9
v 0.1 2.1 -0.9
v 0.1 2.1 -1
v 0.1 2.1 -1.1
v 0.1 2.1 -1.2
v 0.1 2.1 -1.3
v 0.1 2.2 1.2
v 0.1 2.2 1
v 0.1 2.2 0.9
v 0.1 2.2 0.8
v 0.1 2.2 0.7
v 0.1 2.2 -0.7
v 0.1 2.2 -0.8
v 0.1 2.2 -0.9
v 0.1 2.2 -1
v 0.1 2.2 -1.2
v 0.1 2.3 1
v 0.1 2.3 0.8
v 0.1 2.3 0.7
v 0.1 2.3 -0.7
v 0.1 2.3 -0.8
v 0.1 2.3 -1
v 0.1 2.4 0.8
v 0.1 2.4 -0.8
v -0.2 0.1 1.6
v -0.2 1.5 1.6
v -0.0999999 0.1 1.6
v -0.0999999 1.5 1.6
v 5.96046e-08 0.1 1.6
v 5.96046e-08 1.5 1.6
v 0.1 0.1 1.6
v 0.1 1.5 1.6
v -0.2 -0.1 1.5
v -0.2 0 1.5
v -0.2 0.1 1.5
v -0.2 1.5 1.5
v -0.2 1.6 1.5
v -0.2 1.7 1.5
v -0.0999999 -0.1 1.5
v -0.0999999 0 1.5
v -0.0999999 0.1 1.5
v -0.0999999 1.5 1.5
v -0.0999999 1.6 1.5
v -0.0999999 1.7 1.5
v 5.96046e-08 -0.1 1.5
v 5.96046e-08 0 1.5
v 5.96046e-08 0.1 1.5
v 5.96046e-08 1.5 1.5
v 5.96046e-08 1.7 1.5
v 0.1 -0.1 1.5
v 0.1 0 1.5
v 0.1 0.1 1.5
v 0.1 1.5 1.5
v 0.1 1.7 1.5
v -0.2 -0.3 1.4
v -0.2 -0.1 1.4
v -0.2 1.7 1.4
v -0.2 1.9 1.4
v -0.0999999 -0.3 1.4
v -0.0999999 -0.1 1.4
v -0.0999999 1.7 1.4
v -0.0999999 1.9 1.4
v 5.96046e-08 -0.3 1.4
v 5.96046e-08 -0.2 1.4
v 5.96046e-08 -0.1 1.4
v 5.96046e-08 1.7 1.4
v 5.96046e-08 1.8 1.4
v 5.96046e-08 1.9 1.4
v 0.1 -0.3 1.4
v 0.1 -0.2 1.4
v 0.1 -0.1 1.4
v 0.1 1.7 1.4
v 0.1 1.8 1.4
v 0.1 1.9 1.4
v -0.2 -0.5 1.3
v -0.2 -0.3 1.3
v -0.2 1.9 1.3
v -0.2 2.1 1.3
v -0.0999999 -0.5 1.3
v -0.0999999 -0.3 1.3
v -0.0999999 1.9 1.3
v -0.0999999 2.1 1.3
v 5.96046e-08 -0.5 1.3
v 5.96046e-08 -0.3 1.3
v 5.96046e-08 1.9 1.3
v 5.96046e-08 2.1 1.3
v 0.1 -0.5 1.3
v 0.1 -0.3 1.3
v 0.1 1.9 1.3
v 0.1 2.1 1.3
v -0.2 -0.6 1.2
v -0.2 -0.5 1.2
v -0.2 2.1 1.2
v -0.2 2.2 1.2
v -0.0999999 -0.6 1.2
v -0.0999999 -0.5 1.2
v -0.0999999 2.1 1.2
v -0.0999999 2.2 1.2
v 5.96046e-08 -0.6 1.2
v 5.96046e-08 -0.5 1.2
v 5.96046e-08 2.1 1.2
v 5.96046e-08 2.2 1.2
v 0.1 -0.6 1.2
v 0.1 -0.5 1.2
v 0.1 2.1 1.2
v 0.1 2.2 1.2
v -0.2 -0.7 1
v -0.2 -0.6 1
v -0.2 2.2 1
v -0.2 2.3 1
v -0.0999999 -0.7 1
v -0.0999999 -0.6 1
v -0.0999999 2.2 1
v -0.0999999 2.3 1
v 5.96046e-08 -0.7 1
v 5.96046e-08 -0.6 1
v 5.96046e-08 2.2 1
v 5.96046e-08 2.3 1
v 0.1 -0.7 1
v 0.1 -0.6 1
v 0.1 2.2 1
v 0.1 2.3 1
v -0.2 -0.8 0.8
v -0.2 -0.7 0.8
v -0.2 2.3 0.8
v -0.2 2.4 0.8
v -0.0999999 -0.8 0.8
v -0.0999999 -0.7 0.8
v -0.0999999 2.3 0.8
v -0.0999999 2.4 0.8
v 5.96046e-08 -0.8 0.8
v 5.96046e-08 -0.7 0.8
v 5.96046e-08 2.3 0.8
v 5.96046e-08 2.4 0.8
v 0.1 -0.8 0.8
v 0.1 -0.7 0.8
v 0.1 2.3 0.8
v 0.1 2.4 0.8
v -0.2 0 0.3
v -0.2 1.6 0.3
v -0.0999999 0 0.3
v -0.0999999 1.6 0.3
v 5.96046e-08 0 0.3
v 5.96046e-08 1.6 0.3
v 0.1 0 0.3
v 0.1 1.6 0.3
v -0.2 0.1 -0.2
v -0.2 1.5 -0.2
v -0.0999999 0.1 -0.2
v -0.0999999 1.5 -0.2
v 5.96046e-08 0.1 -0.2
v 5.96046e-08 1.5 -0.2
v 0.1 0.1 -0.2
v 0.1 1.5 -0.2
v -0.2 -0.7 -0.7
v -0.2 -0.6 -0.7
v -0.2 2.2 -0.7
v -0.2 2.3 -0.7
v -0.0999999 -0.7 -0.7
v -0.0999999 -0.6 -0.7
v -0.0999999 2.2 -0.7
v -0.0999999 2.3 -0.7
v 5.96046e-08 -0.7 -0.7
v 5.96046e-08 -0.6 -0.7
v 5.96046e-08 2.2 -0.7
v 5.96046e-08 2.3 -0.7
v 0.1 -0.7 -0.7
v 0.1 -0.6 -0.7
v 0.1 2.2 -0.7
v 0.1 2.3 -0.7
v -0.2 -0.6 -0.9
v -0.2 -0.5 -0.9
v -0.2 2.1 -0.9
v -0.2 2.2 -0.9
v -0.0999999 -0.6 -0.9
v -0.0999999 -0.5 -0.9
v -0.0999999 2.1 -0.9
v -0.0999999 2.2 -0.9
v 5.96046e-08 -0.6 -0.9
v 5.96046e-08 -0.5 -0.9
v 5.96046e-08 2.1 -0.9
v 5.96046e-08 2.2 -0.9
v 0.1 -0.6 -0.9
v 0.1 -0.5 -0.9
v 0.1 2.1 -0.9
v 0.1 2.2 -0.9
v -0.2 -0.5 -1
v -0.2 -0.4 -1
v -0.2 2 -1
v -0.2 2.1 -1
v -0.0999999 -0.5 -1
v -0.0999999 -0.4 -1
v -0.0999999 2 -1
v -0.0999999 2.1 -1
v 5.96046e-08 -0.5 -1
v 5.96046e-08 -0.4 -1
v 5.96046e-08 2 -1
v 5.96046e-08 2.1 -1
v 0.1 -0.5 -1
v 0.1 -0.4 -1
v 0.1 2 -1
v 0.1 2.1 -1
v -0.2 -0.4 -1.1
v -0.2 -0.3 -1.1
v -0.2 1.9 -1.1
v -0.2 2 -1.1
v -0.0999999 -0.4 -1.1
v -0.0999999 -0.3 -1.1
v -0.0999999 1.9 -1.1
v -0.0999999 2 -1.1
v 5.96046e-08 -0.4 -1.1
v 5.96046e-08 -0.3 -1.1
v 5.96046e-08 1.9 -1.1
v 5.96046e-08 2 -1.1
v 0.1 -0.4 -1.1
v 0.1 -0.3 -1.1
v 0.1 1.9 -1.1
v 0.1 2 -1.1
v -0.2 -0.3 -1.2
v -0.2 -0.2 -1.2
v -0.2 1.8 -1.2
v -0.2 1.9 -1.2
v -0.0999999 -0.3 -1.2
v -0.0999999 -0.2 -1.2
v -0.0999999 1.8 -1.2
v -0.0999999 1.9 -1.2
v 5.96046e-08 -0.3 -1.2
v 5.96046e-08 -0.2 -1.2
v 5.96046e-08 1.8 -1.2
v 5.96046e-08 1.9 -1.2
v 0.1 -0.3 -1.2
v 0.1 -0.2 -1.2
v 0.1 1.8 -1.2
v 0.1 1.9 -1.2
v -0.2 -0.2 -1.3
v -0.2 -0.1 -1.3
v -0.2 1.7 -1.3
v -0.2 1.8 -1.3
v -0.0999999 -0.2 -1.3
v -0.0999999 -0.1 -1.3
v -0.0999999 1.7 -1.3
v -0.0999999 1.8 -1.3
v 5.96046e-08 -0.2 -1.3
v 5.96046e-08 -0.1 -1.3
v 5.96046e-08 1.7 -1.3
v 5.96046e-08 1.8 -1.3
v 0.1 -0.2 -1.3
v 0.1 -0.1 -1.3
v 0.1 1.7 -1.3
v 0.1 1.8 -1.3
v -0.2 -0.1 -1.4
v -0.2 0 -1.4
v -0.2 0.1 -1.4
v -0.2 1.5 -1.4
v -0.2 1.6 -1.4
v -0.2 1.7 -1.4
v -0.0999999 -0.1 -1.4
v -0.0999999 0 -1.4
v -0.0999999 0.1 -1.4
v -0.0999999 1.5 -1.4
v -0.0999999 1.6 -1.4
v -0.0999999 1.7 -1.4
v 5.96046e-08 -0.1 -1.4
v 5.96046e-08 0 -1.4
v 5.96046e-08 0.1 -1.4
v 5.96046e-08 1.5 -1.4
v 5.96046e-08 1.6 -1.4
v 5.96046e-08 1.7 -1.4
v 0.1 -0.1 -1.4
v 0.1 0 -1.4
v 0.1 0.1 -1.4
v 0.1 1.5 -1.4
v 0.1 1.6 -1.4
v 0.1 1.7 -1.4
v -0.2 0.1 -1.5
v -0.2 1.5 -1.5
v -0.0999999 0.1 -1.5
v -0.0999999 1.5 -1.5
v 5.96046e-08 0.1 -1.5
v 5.96046e-08 1.5 -1.5
v 0.1 0.1 -1.5
v 0.1 1.5 -1.5
v -0.2 0.1 1.5
v -0.2 1.5 1.5
v -0.0999999 0.1 1.5
v -0.0999999 1.5 1.5
v 5.96046e-08 0.1 1.5
v 5.96046e-08 1.5 1.5
v 0.1 0.1 1.5
v 0.1 1.5 1.5
v -0.2 -0.1 1.4
v -0.2 0 1.4
v -0.2 0.1 1.4
v -0.2 1.5 1.4
v -0.2 1.6 1.4
v -0.2 1.7 1.4
v -0.0999999 -0.1 1.4
v -0.0999999 0 1.4
v -0.0999999 0.1 1.4
v -0.0999999 1.5 1.4
v -0.0999999 1.6 1.4
v -0.0999999 1.7 1.4
v 5.96046e-08 -0.1 1.4
v 5.96046e-08 0 1.4
v 5.96046e-08 0.1 1.4
v 5.96046e-08 1.5 1.4
v 5.96046e-08 1.7 1.4
v 0.1 -0.1 1.4
v 0.1 0 1.4
v 0.1 0.1 1.4
v 0.1 1.5 1.4
v 0.1 1.7 1.4
v -0.2 -0.2 1.3
v -0.2 -0.1 1.3
v -0.2 1.7 1.3
v -0.2 1.8 1.3
v -0.0999999 -0.2 1.3
v -0.0999999 -0.1 1.3
v -0.0999999 1.7 1.3
v -0.0999999 1.8 1.3
v 5.96046e-08 -0.2 1.3
v 5.96046e-08 -0.1 1.3
v 5.96046e-08 1.7 1.3
v 5.96046e-08 1.8 1.3
v 0.1 -0.2 1.3
v 0.1 -0.1 1.3
v 0.1 1.7 1.3
v 0.1 1.8 1.3
v -0.2 -0.3 1.2
v -0.2 -0.2 1.2
v -0.2 1.8 1.2
v -0.2 1.9 1.2
v -0.0999999 -0.3 1.2
v -0.0999999 -0.2 1.2
v -0.0999999 1.8 1.2
v -0.0999999 1.9 1.2
v 5.96046e-08 -0.3 1.2
v 5.96046e-08 -0.2 1.2
v 5.96046e-08 1.8 1.2
v 5.96046e-08 1.9 1.2
v 0.1 -0.3 1.2
v 0.1 -0.2 1.2
v 0.1 1.8 1.2
v 0.1 1.9 1.2
v -0.2 -0.4 1.1
v -0.2 -0.3 1.1
v -0.2 1.9 1.1
v -0.2 2 1.1
v -0.0999999 -0.4 1.1
v -0.0999999 -0.3 1.1
v -0.0999999 1.9 1.1
v -0.0999999 2 1.1
v 5.96046e-08 -0.4 1.1
v 5.96046e-08 -0.3 1.1
v 5.96046e-08 1.9 1.1
v 5.96046e-08 2 1.1
v 0.1 -0.4 1.1
v 0.1 -0.3 1.1
v 0.1 1.9 1.1
v 0.1 2 1.1
v -0.2 -0.5 1
v -0.2 -0.4 1
v -0.2 2 1
v -0.2 2.1 1
v -0.0999999 -0.5 1
v -0.0999999 -0.4 1
v -0.0999999 2 1
v -0.0999999 2.1 1
v 5.96046e-08 -0.5 1
v 5.96046e-08 -0.4 1
v 5.96046e-08 2 1
v 5.96046e-08 2.1 1
v 0.1 -0.5 1
v 0.1 -0.4 1
v 0.1 2 1
v 0.1 2.1 1
v -0.2 -0.6 0.9
v -0.2 -0.5 0.9
v -0.2 2.1 0.9
v -0.2 2.2 0.9
v -0.0999999 -0.6 0.9
v -0.0999999 -0.5 0.9
v -0.0999999 2.1 0.9
v -0.0999999 2.2 0.9
v 5.96046e-08 -0.6 0.9
v 5.96046e-08 -0.5 0.9
v 5.96046e-08 2.1 0.9
v 5.96046e-08 2.2 0.9
v 0.1 -0.6 0.9
v 0.1 -0.5 0.9
v 0.1 2.1 0.9
v 0.1 2.2 0.9
v -0.2 -0.7 0.7
v -0.2 -0.6 0.7
v -0.2 2.2 0.7
v -0.2 2.3 0.7
v -0.0999999 -0.7 0.7
v -0.0999999 -0.6 0.7
v -0.0999999 2.2 0.7
v -0.0999999 2.3 0.7
v 5.96046e-08 -0.7 0.7
v 5.96046e-08 -0.6 0.7
v 5.96046e-08 2.2 0.7
v 5.96046e-08 2.3 0.7
v 0.1 -0.7 0.7
v 0.1 -0.6 0.7
v 0.1 2.2 0.7
v 0.1 2.3 0.7
v -0.2 0.1 0.2
v -0.2 1.5 0.2
v -0.0999999 0.1 0.2
v -0.0999999 1.5 0.2
v 5.96046e-08 0.1 0.2
v 5.96046e-08 1.5 0.2
v 0.1 0.1 0.2
v 0.1 1.5 0.2
v -0.2 0 -0.3
v -0.2 1.6 -0.3
v -0.0999999 0 -0.3
v -0.0999999 1.6 -0.3
v 5.96046e-08 0 -0.3
v 5.96046e-08 1.6 -0.3
v 0.1 0 -0.3
v 0.1 1.6 -0.3
v -0.2 -0.8 -0.8
v -0.2 -0.7 -0.8
v -0.2 2.3 -0.8
v -0.2 2.4 -0.8
v -0.0999999 -0.8 -0.8
v -0.0999999 -0.7 -0.8
v -0.0999999 2.3 -0.8
v -0.0999999 2.4 -0.8
v 5.96046e-08 -0.8 -0.8
v 5.96046e-08 -0.7 -0.8
v 5.96046e-08 2.3 -0.8
v 5.96046e-08 2.4 -0.8
v 0.1 -0.8 -0.8
v 0.1 -0.7 -0.8
v 0.1 2.3 -0.8
v 0.1 2.4 -0.8
v -0.2 -0.7 -1
v -0.2 -0.6 -1
v -0.2 2.2 -1
v -0.2 2.3 -1
v -0.0999999 -0.7 -1
v -0.0999999 -0.6 -1
v -0.0999999 2.2 -1
v -0.0999999 2.3 -1
v 5.96046e-08 -0.7 -1
v 5.96046e-08 -0.6 -1
v 5.96046e-08 2.2 -1
v 5.96046e-08 2.3 -1
v 0.1 -0.7 -1
v 0.1 -0.6 -1
v 0.1 2.2 -1
v 0.1 2.3 -1
v -0.2 -0.6 -1.2
v -0.2 -0.5 -1.2
v -0.2 2.1 -1.2
v -0.2 2.2 -1.2
v -0.0999999 -0.6 -1.2
v -0.0999999 -0.5 -1.2
v -0.0999999 2.1 -1.2
v -0.0999999 2.2 -1.2
v 5.96046e-08 -0.6 -1.2
v 5.96046e-08 -0.5 -1.2
v 5.96046e-08 2.1 -1.2
v 5.96046e-08 2.2 -1.2
v 0.1 -0.6 -1.2
v 0.1 -0.5 -1.2
v 0.1 2.1 -1.2
v 0.1 2.2 -1.2
v -0.2 -0.5 -1.3
v -0.2 -0.3 -1.3
v -0.2 1.9 -1.3
v -0.2 2.1 -1.3
v -0.0999999 -0.5 -1.3
v -0.0999999 -0.3 -1.3
v -0.0999999 1.9 -1.3
v -0.0999999 2.1 -1.3
v 5.96046e-08 -0.5 -1.3
v 5.96046e-08 -0.3 -1.3
v 5.96046e-08 1.9 -1.3
v 5.96046e-08 2.1 -1.3
v 0.1 -0.5 -1.3
v 0.1 -0.3 -1.3
v 0.1 1.9 -1.3
v 0.1 2.1 -1.3
v -0.2 -0.3 -1.4
v -0.2 -0.2 -1.4
v -0.2 -0.1 -1.4
v -0.2 1.7 -1.4
v -0.2 1.9 -1.4
v -0.0999999 -0.3 -1.4
v -0.0999999 -0.2 -1.4
v -0.0999999 -0.1 -1.4
v -0.0999999 1.7 -1.4
v -0.0999999 1.9 -1.4
v 5.96046e-08 -0.3 -1.4
v 5.96046e-08 -0.2 -1.4
v 5.96046e-08 -0.1 -1.4
v 5.96046e-08 1.7 -1.4
v 5.96046e-08 1.9 -1.4
v 0.1 -0.3 -1.4
v 0.1 -0.2 -1.4
v 0.1 -0.1 -1.4
v 0.1 1.7 -1.4
v 0.1 1.9 -1.4
v -0.2 -0.1 -1.5
v -0.2 0 -1.5
v -0.2 0.1 -1.5
v -0.2 1.5 -1.5
v -0.2 1.6 -1.5
v -0.2 1.7 -1.5
v -0.0999999 -0.1 -1.5
v -0.0999999 0 -1.5
v -0.0999999 0.1 -1.5
v -0.0999999 1.5 -1.5
v -0.0999999 1.6 -1.5
v -0.0999999 1.7 -1.5
v 5.96046e-08 -0.1 -1.5
v 5.96046e-08 0 -1.5
v 5.96046e-08 0.1 -1.5
v 5.96046e-08 1.5 -1.5
v 5.96046e-08 1.6 -1.5
v 5.96046e-08 1.7 -1.5
v 0.1 -0.1 -1.5
v 0.1 0 -1.5
v 0.1 0.1 -1.5
v 0.1 1.5 -1.5
v 0.1 1.6 -1.5
v 0.1 1.7 -1.5
v -0.2 0.1 -1.6
v -0.2 1.5 -1.6
v -0.0999999 0.1 -1.6
v -0.0999999 1.5 -1.6
v 5.96046e-08 0.1 -1.6
v 5.96046e-08 1.5 -1.6
v 0.1 0.1 -1.6
v 0.1 1.5 -1.6
v -0.2 -0.8 0.8
v -0.0999999 -0.8 0.8
v 5.96046e-08 -0.8 0.8
v 0.1 -0.8 0.8
v -0.2 -0.8 -0.8
v -0.0999999 -0.8 -0.8
v 5.96046e-08 -0.8 -0.8
v 0.1 -0.8 -0.8
v -0.2 -0.7 1
v -0.0999999 -0.7 1
v 5.96046e-08 -0.7 1
v 0.1 -0.7 1
v -0.2 -0.7 0.8
v -0.0999999 -0.7 0.8
v 5.96046e-08 -0.7 0.8
v 0.1 -0.7 0.8
v -0.2 -0.7 -0.8
v -0.0999999 -0.7 -0.8
v 5.96046e-08 -0.7 -0.8
v 0.1 -0.7 -0.8
v -0.2 -0.7 -1
v -0.0999999 -0.7 -1
v 5.96046e-08 -0.7 -1
v 0.1 -0.7 -1
v -0.2 -0.6 1.2
v -0.0999999 -0.6 1.2
v 5.96046e-08 -0.6 1.2
v 0.1 -0.6 1.2
v -0.2 -0.6 1
v -0.0999999 -0.6 1
v 5.96046e-08 -0.6 1
v 0.1 -0.6 1
v -0.2 -0.6 -1
v -0.0999999 -0.6 -1
v 5.96046e-08 -0.6 -1
v 0.1 -0.6 -1
v -0.2 -0.6 -1.2
v -0.0999999 -0.6 -1.2
v 5.96046e-08 -0.6 -1.2
v 0.1 -0.6 -1.2
v -0.2 -0.5 1.3
v -0.0999999 -0.5 1.3
v 5.96046e-08 -0.5 1.3
v 0.1 -0.5 1.3
v -0.2 -0.5 1.2
v -0.0999999 -0.5 1.2
v 5.96046e-08 -0.5 1.2
v 0.1 -0.5 1.2
v -0.2 -0.5 -1.2
v -0.0999999 -0.5 -1.2
v 5.96046e-08 -0.5 -1.2
v 0.1 -0.5 -1.2
v -0.2 -0.5 -1.3
v -0.0999999 -0.5 -1.3
v 5.96046e-08 -0.5 -1.3
v 0.1 -0.5 -1.3
v -0.2 -0.3 1.4
v -0.0999999 -0.3 1.4
v 5.96046e-08 -0.3 1.4
v 0.1 -0.3 1.4
v -0.2 -0.3 1.3
v -0.0999999 -0.3 1.3
v 5.96046e-08 -0.3 1.3
v 0.1 -0.3 1.3
v -0.2 -0.3 -1.3
v -0.0999999 -0.3 -1.3
v 5.96046e-08 -0.3 -1.3
v 0.1 -0.3 -1.3
v -0.2 -0.3 -1.4
v -0.0999999 -0.3 -1.4
v 5.96046e-08 -0.3 -1.4
v 0.1 -0.3 -1.4
v -0.2 -0.1 1.5
v -0.0999999 -0.1 1.5
v 5.96046e-08 -0.1 1.5
v 0.1 -0.1 1.5
v -0.2 -0.1 1.4
v -0.0999999 -0.1 1.4
v 5.96046e-08 -0.1 1.4
v 0.1 -0.1 1.4
v -0.2 -0.1 -1.4
v -0.0999999 -0.1 -1.4
v 5.96046e-08 -0.1 -1.4
v 0.1 -0.1 -1.4
v -0.2 -0.1 -1.5
v -0.0999999 -0.1 -1.5
v 5.96046e-08 -0.1 -1.5
v 0.1 -0.1 -1.5
v -0.2 0 0.3
v -0.0999999 0 0.3
v 5.96046e-08 0 0.3
v 0.1 0 0.3
v -0.2 0 -0.3
v -0.0999999 0 -0.3
v 5.96046e-08 0 -0.3
v 0.1 0 -0.3
v -0.2 0.1 1.6
v -0.0999999 0.1 1.6
v 5.96046e-08 0.1 1.6
v 0.1 0.1 1.6
v -0.2 0.1 1.5
v -0.0999999 0.1 1.5
v 5.96046e-08 0.1 1.5
v 0.1 0.1 1.5
v -0.2 0.1 -1.5
v -0.0999999 0.1 -1.5
v 5.96046e-08 0.1 -1.5
v 0.1 0.1 -1.5
v -0.2 0.1 -1.6
v -0.0999999 0.1 -1.6
v 5.96046e-08 0.1 -1.6
v 0.1 0.1 -1.6
v -0.2 1.5 1.5
v -0.0999999 1.5 1.5
v 5.96046e-08 1.5 1.5
v 0.1 1.5 1.5
v -0.2 1.5 1.4
v -0.0999999 1.5 1.4
v 5.96046e-08 1.5 1.4
v 0.1 1.5 1.4
v -0.2 1.5 0.2
v -0.0999999 1.5 0.2
v 5.96046e-08 1.5 0.2
v 0.1 1.5 0.2
v -0.2 1.5 -0.2
v -0.0999999 1.5 -0.2
v 5.96046e-08 1.5 -0.2
v 0.1 1.5 -0.2
v -0.2 1.5 -1.4
v -0.0999999 1.5 -1.4
v 5.96046e-08 1.5 -1.4
v 0.1 1.5 -1.4
v -0.2 1.5 -1.5
v -0.0999999 1.5 -1.5
v 5.96046e-08 1.5 -1.5
v 0.1 1.5 -1.5
v -0.2 1.7 1.4
v -0.0999999 1.7 1.4
v 5.96046e-08 1.7 1.4
v 0.1 1.7 1.4
v -0.2 1.7 1.3
v -0.0999999 1.7 1.3
v 5.96046e-08 1.7 1.3
v 0.1 1.7 1.3
v -0.2 1.7 -1.3
v -0.0999999 1.7 -1.3
v 5.96046e-08 1.7 -1.3
v 0.1 1.7 -1.3
v -0.2 1.7 -1.4
v -0.0999999 1.7 -1.4
v 5.96046e-08 1.7 -1.4
v 0.1 1.7 -1.4
v -0.2 1.8 1.3
v -0.0999999 1.8 1.3
v 5.96046e-08 1.8 1.3
v 0.1 1.8 1.3
v -0.2 1.8 1.2
v -0.0999999 1.8 1.2
v 5.96046e-08 1.8 1.2
v 0.1 1.8 1.2
v -0.2 1.8 -1.2
v -0.0999999 1.8 -1.2
v 5.96046e-08 1.8 -1.2
v 0.1 1.8 -1.2
v -0.2 1.8 -1.3
v -0.0999999 1.8 -1.3
v 5.96046e-08 1.8 -1.3
v 0.1 1.8 -1.3
v -0.2 1.9 1.2
v -0.0999999 1.9 1.2
v 5.96046e-08 1.9 1.2
v 0.1 1.9 1.2
v -0.2 1.9 1.1
v -0.0999999 1.9 1.1
v 5.96046e-08 1.9 1.1
v 0.1 1.9 1.1
v -0.2 1.9 -1.1
v -0.0999999 1.9 -1.1
v 5.96046e-08 1.9 -1.1
v 0.1 1.9 -1.1
v -0.2 1.9 -1.2
v -0.0999999 1.9 -1.2
v 5.96046e-08 1.9 -1.2
v 0.1 1.9 -1.2
v -0.2 2 1.1
v -0.0999999 2 1.1
v 5.96046e-08 2 1.1
v 0.1 2 1.1
v -0.2 2 1
v -0.0999999 2 1
v 5.96046e-08 2 1
v 0.1 2 1
v -0.2 2 -1
v -0.0999999 2 -1
v 5.96046e-08 2 -1
v 0.1 2 -1
v -0.2 2 -1.1
v -0.0999999 2 -1.1
v 5.96046e-08 2 -1.1
v 0.1 2 -1.1
v -0.2 2.1 1
v -0.0999999 2.1 1
v 5.96046e-08 2.1 1
v 0.1 2.1 1
v -0.2 2.1 0.9
v -0.0999999 2.1 0.9
v 5.96046e-08 2.1 0.9
v 0.1 2.1 0.9
v -0.2 2.1 -0.9
v -0.0999999 2.1 -0.9
v 5.96046e-08 2.1 -0.9
v 0.1 2.1 -0.9
v -0.2 2.1 -1
v -0.0999999 2.1 -1
v 5.96046e-08 2.1 -1
v 0.1 2.1 -1
v -0.2 2.2 0.9
v -0.0999999 2.2 0.9
v 5.96046e-08 2.2 0.9
v 0.1 2.2 0.9
v -0.2 2.2 0.8
v -0.0999999 2.2 0.8
v 5.96046e-08 2.2 0.8
v 0.1 2.2 0.8
v -0.2 2.2 0.7
v -0.0999999 2.2 0.7
v 5.96046e-08 2.2 0.7
v 0.1 2.2 0.7
v -0.2 2.2 -0.7
v -0.0999999 2.2 -0.7
v 5.96046e-08 2.2 -0.7
v 0.1 2.2 -0.7
v -0.2 2.2 -0.8
v -0.0999999 2.2 -0.8
v 5.96046e-08 2.2 -0.8
v 0.1 2.2 -0.8
v -0.2 2.2 -0.9
v -0.0999999 2.2 -0.9
v 5.96046e-08 2.2 -0.9
v 0.1 2.2 -0.9
v -0.2 2.3 0.7
v -0.0999999 2.3 0.7
v 5.96046e-08 2.3 0.7
v 0.1 2.3 0.7
v -0.2 2.3 -0.7
v -0.0999999 2.3 -0.7
v 5.96046e-08 2.3 -0.7
v 0.1 2.3 -0.7
v -0.2 -0.7 0.7
v -0.0999999 -0.7 0.7
v 5.96046e-08 -0.7 0.7
v 0.1 -0.7 0.7
v -0.2 -0.7 -0.7
v -0.0999999 -0.7 -0.7
v 5.96046e-08 -0.7 -0.7
v 0.1 -0.7 -0.7
v -0.2 -0.6 0.9
v -0.0999999 -0.6 0.9
v 5.96046e-08 -0.6 0.9
v 0.1 -0.6 0.9
v -0.2 -0.6 0.8
v -0.0999999 -0.6 0.8
v 5.96046e-08 -0.6 0.8
v 0.1 -0.6 0.8
v -0.2 -0.6 0.7
v -0.0999999 -0.6 0.7
v 5.96046e-08 -0.6 0.7
v 0.1 -0.6 0.7
v -0.2 -0.6 -0.7
v -0.0999999 -0.6 -0.7
v 5.96046e-08 -0.6 -0.7
v 0.1 -0.6 -0.7
v -0.2 -0.6 -0.8
v -0.0999999 -0.6 -0.8
v 5.96046e-08 -0.6 -0.8
v 0.1 -0.6 -0.8
v -0.2 -0.6 -0.9
v -0.0999999 -0.6 -0.9
v 5.96046e-08 -0.6 -0.9
v 0.1 -0.6 -0.9
v -0.2 -0.5 1
v -0.0999999 -0.5 1
v 5.96046e-08 -0.5 1
v 0.1 -0.5 1
v -0.2 -0.5 0.9
v -0.0999999 -0.5 0.9
v 5.96046e-08 -0.5 0.9
v 0.1 -0.5 0.9
v -0.2 -0.5 -0.9
v -0.0999999 -0.5 -0.9
v 5.96046e-08 -0.5 -0.9
v 0.1 -0.5 -0.9
v -0.2 -0.5 -1
v -0.0999999 -0.5 -1
v 5.96046e-08 -0.5 -1
v 0.1 -0.5 -1
v -0.2 -0.4 1.1
v -0.0999999 -0.4 1.1
v 5.96046e-08 -0.4 1.1
v 0.1 -0.4 1.1
v -0.2 -0.4 1
v -0.0999999 -0.4 1
v 5.96046e-08 -0.4 1
v 0.1 -0.4 1
v -0.2 -0.4 -1
v -0.0999999 -0.4 -1
v 5.96046e-08 -0.4 -1
v 0.1 -0.4 -1
v -0.2 -0.4 -1.1
v -0.0999999 -0.4 -1.1
v 5.96046e-08 -0.4 -1.1
v 0.1 -0.4 -1.1
v -0.2 -0.3 1.2
v -0.0999999 -0.3 1.2
v 5.96046e-08 -0.3 1.2
v 0.1 -0.3 1.2
v -0.2 -0.3 1.1
v -0.0999999 -0.3 1.1
v 5.96046e-08 -0.3 1.1
v 0.1 -0.3 1.1
v -0.2 -0.3 -1.1
v -0.0999999 -0.3 -1.1
v 5.96046e-08 -0.3 -1.1
v 0.1 -0.3 -1.1
v -0.2 -0.3 -1.2
v -0.0999999 -0.3 -1.2
v 5.96046e-08 -0.3 -1.2
v 0.1 -0.3 -1.2
v -0.2 -0.2 1.3
v -0.0999999 -0.2 1.3
v 5.96046e-08 -0.2 1.3
v 0.1 -0.2 1.3
v -0.2 -0.2 1.2
v -0.0999999 -0.2 1.2
v 5.96046e-08 -0.2 1.2
v 0.1 -0.2 1.2
v -0.2 -0.2 -1.2
v -0.0999999 -0.2 -1.2
v 5.96046e-08 -0.2 -1.2
v 0.1 -0.2 -1.2
v -0.2 -0.2 -1.3
v -0.0999999 -0.2 -1.3
v 5.96046e-08 -0.2 -1.3
v 0.1 -0.2 -1.3
v -0.2 -0.1 1.4
v -0.0999999 -0.1 1.4
v 5.96046e-08 -0.1 1.4
v 0.1 -0.1 1.4
v -0.2 -0.1 1.3
v -0.0999999 -0.1 1.3
v 5.96046e-08 -0.1 1.3
v 0.1 -0.1 1.3
v -0.2 -0.1 -1.3
v -0.0999999 -0.1 -1.3
v 5.96046e-08 -0.1 -1.3
v 0.1 -0.1 -1.3
v -0.2 -0.1 -1.4
v -0.0999999 -0.1 -1.4
v 5.96046e-08 -0.1 -1.4
v 0.1 -0.1 -1.4
v -0.2 0.1 1.5
v -0.0999999 0.1 1.5
v 5.96046e-08 0.1 1.5
v 0.1 0.1 1.5
v -0.2 0.1 1.4
v -0.0999999 0.1 1.4
v 5.96046e-08 0.1 1.4
v 0.1 0.1 1.4
v -0.2 0.1 0.2
v -0.0999999 0.1 0.2
v 5.96046e-08 0.1 0.2
v 0.1 0.1 0.2
v -0.2 0.1 -0.2
v -0.0999999 0.1 -0.2
v 5.96046e-08 0.1 -0.2
v 0.1 0.1 -0.2
v -0.2 0.1 -1.4
v -0.0999999 0.1 -1.4
v 5.96046e-08 0.1 -1.4
v 0.1 0.1 -1.4
v -0.2 0.1 -1.5
v -0.0999999 0.1 -1.5
v 5.96046e-08 0.1 -1.5
v 0.1 0.1 -1.5
v -0.2 1.5 1.6
v -0.0999999 1.5 1.6
v 5.96046e-08 1.5 1.6
v 0.1 1.5 1.6
v -0.2 1.5 1.5
v -0.0999999 1.5 1.5
v 5.96046e-08 1.5 1.5
v 0.1 1.5 1.5
v -0.2 1.5 -1.5
v -0.0999999 1.5 -1.5
v 5.96046e-08 1.5 -1.5
v 0.1 1.5 -1.5
v -0.2 1.5 -1.6
v -0.0999999 1.5 -1.6
v 5.96046e-08 1.5 -1.6
v 0.1 1.5 -1.6
v -0.2 1.6 0.3
v -0.0999999 1.6 0.3
v 5.96046e-08 1.6 0.3
v 0.1 1.6 0.3
v -0.2 1.6 -0.3
v -0.0999999 1.6 -0.3
v 5.96046e-08 1.6 -0.3
v 0.1 1.6 -0.3
v -0.2 1.7 1.5
v -0.0999999 1.7 1.5
v 5.96046e-08 1.7 1.5
v 0.1 1.7 1.5
v -0.2 1.7 1.4
v -0.0999999 1.7 1.4
v 5.96046e-08 1.7 1.4
v 0.1 1.7 1.4
v -0.2 1.7 -1.4
v -0.0999999 1.7 -1.4
v 5.96046e-08 1.7 -1.4
v 0.1 1.7 -1.4
v -0.2 1.7 -1.5
v -0.0999999 1.7 -1.5
v 5.96046e-08 1.7 -1.5
v 0.1 1.7 -1.5
v -0.2 1.9 1.4
v -0.0999999 1.9 1.4
v 5.96046e-08 1.9 1.4
v 0.1 1.9 1.4
v -0.2 1.9 1.3
v -0.0999999 1.9 1.3
v 5.96046e-08 1.9 1.3
v 0.1 1.9 1.3
v -0.2 1.9 -1.3
v -0.0999999 1.9 -1.3
v 5.96046e-08 1.9 -1.3
v 0.1 1.9 -1.3
v -0.2 1.9 -1.4
v -0.0999999 1.9 -1.4
v 5.96046e-08 1.9 -1.4
v 0.1 1.9 -1.4
v -0.2 2.1 1.3
v -0.0999999 2.1 1.3
v 5.96046e-08 2.1 1.3
v 0.1 2.1 1.3
v -0.2 2.1 1.2
v -0.0999999 2.1 1.2
v 5.96046e-08 2.1 1.2
v 0.1 2.1 1.2
v -0.2 2.1 -1.2
v -0.0999999 2.1 -1.2
v 5.96046e-08 2.1 -1.2
v 0.1 2.1 -1.2
v -0.2 2.1 -1.3
v -0.0999999 2.1 -1.3
v 5.96046e-08 2.1 -1.3
v 0.1 2.1 -1.3
v -0.2 2.2 1.2
v -0.0999999 2.2 1.2
v 5.96046e-08 2.2 1.2
v 0.1 2.2 1.2
v -0.2 2.2 1
v -0.0999999 2.2 1
v 5.96046e-08 2.2 1
v 0.1 2.2 1
v -0.2 2.2 -1
v -0.0999999 2.2 -1
v 5.96046e-08 2.2 -1
v 0.1 2.2 -1
v -0.2 2.2 -1.2
v -0.0999999 2.2 -1.2
v 5.96046e-08 2.2 -1.2
v 0.1 2.2 -1.2
v -0.2 2.3 1
v -0.0999999 2.3 1
v 5.96046e-08 2.3 1
v 0.1 2.3 1
v -0.2 2.3 0.8
v -0.0999999 2.3 0.8
v 5.96046e-08 2.3 0.8
v 0.1 2.3 0.8
v -0.2 2.3 -0.8
v -0.0999999 2.3 -0.8
v 5.96046e-08 2.3 -0.8
v 0.1 2.3 -0.8
v -0.2 2.3 -1
v -0.0999999 2.3 -1
v 5.96046e-08 2.3 -1
v 0.1 2.3 -1
v -0.2 2.4 0.8
v -0.0999999 2.4 0.8
v 5.96046e-08 2.4 0.8
v 0.1 2.4 0.8
v -0.0999999 2.4 0.7
v 5.96046e-08 2.4 0.7
v -0.0999999 2.4 0.5
v 5.96046e-08 2.4 0.5
v -0.2 2.4 -0.8
v -0.0999999 2.4 -0.8
v 5.96046e-08 2.4 -0.8
v 0.1 2.4 -0.8

# faces
f 4/2/1 2/2/1 1/2/1
f 5/2/1 2/2/1 4/2/1
f 6/2/1 2/2/1 5/2/1
f 7/2/1 2/2/1 6/2/1
f 10/2/1 4/2/1 3/2/1
f 11/2/1 4/2/1 10/2/1
f 12/1/1 5/1/1 4/1/1
f 12/2/1 4/2/1 11/2/1
f 13/1/1 5/1/1 12/1/1
f 14/1/1 7/1/1 6/1/1
f 15/2/1 8/2/1 7/2/1
f 15/1/1 7/1/1 14/1/1
f 16/2/1 8/2/1 15/2/1
f 17/2/1 8/2/1 16/2/1
f 20/2/1 10/2/1 9/2/1
f 21/2/1 10/2/1 20/2/1
f 22/1/1 11/1/1 10/1/1
f 22/2/1 10/2/1 21/2/1
f 23/1/1 11/1/1 22/1/1
f 24/1/1 17/1/1 16/1/1
f 25/2/1 18/2/1 17/2/1
f 25/1/1 17/1/1 24/1/1
f 26/2/1 18/2/1 25/2/1
f 27/2/1 18/2/1 26/2/1
f 29/2/1 21/2/1 20/2/1
f 29/2/1 20/2/1 19/2/1
f 30/1/1 22/1/1 21/1/1
f 30/2/1 21/2/1 29/2/1
f 31/1/1 22/1/1 30/1/1
f 32/1/1 26/1/1 25/1/1
f 33/2/1 28/2/1 27/2/1
f 33/1/1 26/1/1 32/1/1
f 33/2/1 27/2/1 26/2/1
f 34/2/1 28/2/1 33/2/1
f 36/2/1 29/2/1 19/2/1
f 37/1/1 30/1/1 29/1/1
f 37/2/1 29/2/1 36/2/1
f 38/1/1 30/1/1 37/1/1
f 39/1/1 34/1/1 33/1/1
f 40/2/1 28/2/1 34/2/1
f 40/1/1 34/1/1 39/1/1
f 41/2/1 28/2/1 40/2/1
f 43/2/1 36/2/1 35/2/1
f 43/1/1 37/1/1 36/1/1
f 44/1/1 37/1/1 43/1/1
f 45/1/1 41/1/1 40/1/1
f 46/2/1 42/2/1 41/2/1
f 46/1/1 41/1/1 45/1/1
f 47/2/1 42/2/1 46/2/1
f 49/2/1 43/2/1 35/2/1
f 50/2/1 43/2/1 49/2/1
f 51/1/1 47/1/1 46/1/1
f 52/1/1 47/1/1 51/1/1
f 54/2/1 49/2/1 48/2/1
f 55/2/1 49/2/1 54/2/1
f 58/2/1 53/2/1 52/2/1
f 59/2/1 53/2/1 58/2/1
f 61/1/1 55/1/1 54/1/1
f 62/1/1 55/1/1 61/1/1
f 63/2/1 57/2/1 56/2/1
f 64/2/1 57/2/1 63/2/1
f 65/1/1 59/1/1 58/1/1
f 66/1/1 59/1/1 65/1/1
f 68/2/1 61/2/1 60/2/1
f 69/2/1 61/2/1 68/2/1
f 71/2/1 63/2/1 56/2/1
f 72/2/1 57/2/1 64/2/1
f 74/2/1 67/2/1 66/2/1
f 75/2/1 67/2/1 74/2/1
f 76/1/1 70/1/1 69/1/1
f 77/1/1 70/1/1 76/1/1
f 78/2/1 72/2/1 71/2/1
f 78/2/1 71/2/1 56/2/1
f 79/2/1 57/2/1 72/2/1
f 79/2/1 72/2/1 78/2/1
f 80/1/1 74/1/1 73/1/1
f 81/1/1 74/1/1 80/1/1
f 82/2/1 77/2/1 76/2/1
f 83/2/1 77/2/1 82/2/1
f 86/2/1 81/2/1 80/2/1
f 87/2/1 81/2/1 86/2/1
f 88/2/1 84/2/1 83/2/1
f 91/2/1 86/2/1 85/2/1
f 92/2/1 88/2/1 83/2/1
f 93/1/1 89/1/1 88/1/1
f 93/2/1 88/2/1 92/2/1
f 94/1/1 89/1/1 93/1/1
f 97/1/1 91/1/1 90/1/1
f 98/2/1 86/2/1 91/2/1
f 98/1/1 91/1/1 97/1/1
f 99/2/1 86/2/1 98/2/1
f 100/1/1 95/1/1 94/1/1
f 100/2/1 94/2/1 93/2/1
f 101/1/1 95/1/1 100/1/1
f 104/1/1 97/1/1 96/1/1
f 105/2/1 98/2/1 97/2/1
f 105/1/1 97/1/1 104/1/1
f 106/2/1 100/2/1 93/2/1
f 106/2/1 101/2/1 100/2/1
f 107/2/1 101/2/1 106/2/1
f 108/1/1 102/1/1 101/1/1
f 108/2/1 101/2/1 107/2/1
f 109/1/1 102/1/1 108/1/1
f 112/1/1 104/1/1 103/1/1
f 113/2/1 105/2/1 104/2/1
f 113/1/1 104/1/1 112/1/1
f 114/2/1 98/2/1 105/2/1
f 114/2/1 105/2/1 113/2/1
f 115/2/1 98/2/1 114/2/1
f 116/2/1 108/2/1 107/2/1
f 116/2/1 109/2/1 108/2/1
f 117/1/1 110/1/1 109/1/1
f 117/2/1 109/2/1 116/2/1
f 118/1/1 110/1/1 117/1/1
f 123/1/1 112/1/1 111/1/1
f 124/2/1 113/2/1 112/2/1
f 124/2/1 114/2/1 113/2/1
f 124/1/1 112/1/1 123/1/1
f 125/2/1 114/2/1 124/2/1
f 126/2/1 118/2/1 117/2/1
f 126/2/1 119/2/1 118/2/1
f 127/1/1 120/1/1 119/1/1
f 127/2/1 119/2/1 126/2/1
f 128/1/1 120/1/1 127/1/1
f 129/1/1 122/1/1 121/1/1
f 130/2/1 123/2/1 122/2/1
f 130/2/1 124/2/1 123/2/1
f 130/1/1 122/1/1 129/1/1
f 131/2/1 124/2/1 130/2/1
f 132/2/1 129/2/1 128/2/1
f 132/2/1 128/2/1 127/2/1
f 132/2/1 130/2/1 129/2/1
f 133/2/1 130/2/1 132/2/1
f 138/1/1 135/1/1 134/1/1
f 139/1/1 135/1/1 138/1/1
f 143/1/1 137/1/1 136/1/1
f 143/1/1 138/1/1 137/1/1
f 144/3/1 139/3/1 138/3/1
f 144/1/1 138/1/1 143/1/1
f 145/1/1 141/1/1 140/1/1
f 145/3/1 139/3/1 144/3/1
f 145/1/1 140/1/1 139/1/1
f 146/1/1 141/1/1 145/1/1
f 149/1/1 143/1/1 142/1/1
f 150/3/1 144/3/1 143/3/1
f 150/3/1 145/3/1 144/3/1
f 150/1/1 143/1/1 149/1/1
f 150/3/1 146/3/1 145/3/1
f 151/1/1 147/1/1 146/1/1
f 151/3/1 146/3/1 150/3/1
f 152/1/1 147/1/1 151/1/1
f 155/1/1 149/1/1 148/1/1
f 156/3/1 150/3/1 149/3/1
f 156/3/1 151/3/1 150/3/1
f 156/1/1 149/1/1 155/1/1
f 156/3/1 152/3/1 151/3/1
f 157/1/1 153/1/1 152/1/1
f 157/3/1 152/3/1 156/3/1
f 158/1/1 153/1/1 157/1/1
f 161/1/1 155/1/1 154/1/1
f 162/3/1 156/3/1 155/3/1
f 162/3/1 157/3/1 156/3/1
f 162/1/1 155/1/1 161/1/1
f 162/3/1 158/3/1 157/3/1
f 163/1/1 159/1/1 158/1/1
f 163/3/1 158/3/1 162/3/1
f 164/1/1 159/1/1 163/1/1
f 167/1/1 161/1/1 160/1/1
f 168/3/1 162/3/1 161/3/1
f 168/3/1 163/3/1 162/3/1
f 168/1/1 161/1/1 167/1/1
f 168/3/1 164/3/1 163/3/1
f 169/3/1 164/3/1 168/3/1
f 170/3/1 164/3/1 169/3/1
f 171/1/1 165/1/1 164/1/1
f 171/3/1 164/3/1 170/3/1
f 172/1/1 165/1/1 171/1/1
f 174/1/1 167/1/1 166/1/1
f 175/1/1 170/1/1 169/1/1
f 176/1/1 170/1/1 175/1/1
f 177/1/1 173/1/1 172/1/1
f 179/1/1 167/1/1 174/1/1
f 180/3/1 168/3/1 167/3/1
f 180/3/1 169/3/1 168/3/1
f 180/1/1 167/1/1 179/1/1
f 181/1/1 177/1/1 172/1/1
f 181/3/1 171/3/1 170/3/1
f 181/3/1 172/3/1 171/3/1
f 182/1/1 177/1/1 181/1/1
f 184/1/1 179/1/1 178/1/1
f 185/3/1 180/3/1 179/3/1
f 185/1/1 179/1/1 184/1/1
f 186/3/1 169/3/1 180/3/1
f 186/3/1 180/3/1 185/3/1
f 187/3/1 182/3/1 181/3/1
f 187/3/1 181/3/1 170/3/1
f 188/1/1 183/1/1 182/1/1
f 188/3/1 182/3/1 187/3/1
f 189/1/1 183/1/1 188/1/1
f 190/1/1 186/1/1 185/1/1
f 191/1/1 175/1/1 169/1/1
f 192/1/1 170/1/1 176/1/1
f 193/1/1 188/1/1 187/1/1
f 194/1/1 186/1/1 190/1/1
f 195/3/1 169/3/1 186/3/1
f 195/1/1 186/1/1 194/1/1
f 196/3/1 169/3/1 195/3/1
f 197/1/1 191/1/1 169/1/1
f 197/3/1 169/3/1 196/3/1
f 197/1/1 192/1/1 191/1/1
f 198/3/1 187/3/1 170/3/1
f 198/1/1 192/1/1 197/1/1
f 198/1/1 170/1/1 192/1/1
f 199/3/1 187/3/1 198/3/1
f 200/1/1 193/1/1 187/1/1
f 200/3/1 187/3/1 199/3/1
f 201/1/1 193/1/1 200/1/1
f 202/1/1 196/1/1 195/1/1
f 203/3/1 197/3/1 196/3/1
f 203/1/1 196/1/1 202/1/1
f 203/3/1 199/3/1 198/3/1
f 203/3/1 198/3/1 197/3/1
f 204/3/1 199/3/1 203/3/1
f 205/3/1 199/3/1 204/3/1
f 206/1/1 200/1/1 199/1/1
f 206/3/1 199/3/1 205/3/1
f 207/1/1 200/1/1 206/1/1
f 208/1/1 204/1/1 203/1/1
f 209/3/1 205/3/1 204/3/1
f 209/1/1 204/1/1 208/1/1
f 210/3/1 205/3/1 209/3/1
f 211/3/1 205/3/1 210/3/1
f 212/1/1 206/1/1 205/1/1
f 212/3/1 205/3/1 211/3/1
f 213/1/1 206/1/1 212/1/1
f 214/1/1 210/1/1 209/1/1
f 215/3/1 211/3/1 210/3/1
f 215/1/1 210/1/1 214/1/1
f 216/3/1 211/3/1 215/3/1
f 217/3/1 211/3/1 216/3/1
f 218/1/1 212/1/1 211/1/1
f 218/3/1 211/3/1 217/3/1
f 219/1/1 212/1/1 218/1/1
f 220/1/1 216/1/1 215/1/1
f 221/3/1 217/3/1 216/3/1
f 221/1/1 216/1/1 220/1/1
f 222/3/1 217/3/1 221/3/1
f 223/3/1 217/3/1 222/3/1
f 224/1/1 218/1/1 217/1/1
f 224/3/1 217/3/1 223/3/1
f 225/1/1 218/1/1 224/1/1
f 226/1/1 222/1/1 221/1/1
f 227/1/1 222/1/1 226/1/1
f 228/3/1 223/3/1 222/3/1
f 228/1/1 222/1/1 227/1/1
f 229/1/1 224/1/1 223/1/1
f 229/3/1 223/3/1 228/3/1
f 230/1/1 224/1/1 229/1/1
f 231/1/1 224/1/1 230/1/1
f 232/1/1 229/1/1 228/1/1
f 233/1/1 229/1/1 232/1/1
f 234/1/2 235/1/2 238/1/2
f 238/1/2 235/1/2 239/1/2
f 236/1/2 237/1/2 243/1/2
f 237/1/2 238/1/2 243/1/2
f 238/3/2 239/3/2 244/3/2
f 243/1/2 238/1/2 244/1/2
f 240/1/2 241/1/2 245/1/2
f 244/3/2 239/3/2 245/3/2
f 239/1/2 240/1/2 245/1/2
f 245/1/2 241/1/2 246/1/2
f 242/1/2 243/1/2 249/1/2
f 243/3/2 244/3/2 250/3/2
f 244/3/2 245/3/2 250/3/2
f 249/1/2 243/1/2 250/1/2
f 245/3/2 246/3/2 250/3/2
f 246/1/2 247/1/2 251/1/2
f 250/3/2 246/3/2 251/3/2
f 251/1/2 247/1/2 252/1/2
f 248/1/2 249/1/2 255/1/2
f 249/3/2 250/3/2 256/3/2
f 250/3/2 251/3/2 256/3/2
f 255/1/2 249/1/2 256/1/2
f 251/3/2 252/3/2 256/3/2
f 252/1/2 253/1/2 257/1/2
f 256/3/2 252/3/2 257/3/2
f 257/1/2 253/1/2 258/1/2
f 254/1/2 255/1/2 261/1/2
f 255/3/2 256/3/2 262/3/2
f 256/3/2 257/3/2 262/3/2
f 261/1/2 255/1/2 262/1/2
f 257/3/2 258/3/2 262/3/2
f 258/1/2 259/1/2 263/1/2
f 262/3/2 258/3/2 263/3/2
f 263/1/2 259/1/2 264/1/2
f 260/1/2 261/1/2 267/1/2
f 261/3/2 262/3/2 268/3/2
f 262/3/2 263/3/2 268/3/2
f 267/1/2 261/1/2 268/1/2
f 263/3/2 264/3/2 268/3/2
f 268/3/2 264/3/2 269/3/2
f 269/3/2 264/3/2 270/3/2
f 264/1/2 265/1/2 271/1/2
f 270/3/2 264/3/2 271/3/2
f 271/1/2 265/1/2 272/1/2
f 266/1/2 267/1/2 274/1/2
f 269/1/2 270/1/2 275/1/2
f 275/1/2 270/1/2 276/1/2
f 272/1/2 273/1/2 277/1/2
f 274/1/2 267/1/2 279/1/2
f 267/3/2 268/3/2 280/3/2
f 268/3/2 269/3/2 280/3/2
f 279/1/2 267/1/2 280/1/2
f 272/1/2 277/1/2 281/1/2
f 270/3/2 271/3/2 281/3/2
f 271/3/2 272/3/2 281/3/2
f 281/1/2 277/1/2 282/1/2
f 278/1/2 279/1/2 284/1/2
f 279/3/2 280/3/2 285/3/2
f 284/1/2 279/1/2 285/1/2
f 280/3/2 269/3/2 286/3/2
f 285/3/2 280/3/2 286/3/2
f 281/3/2 282/3/2 287/3/2
f 270/3/2 281/3/2 287/3/2
f 282/1/2 283/1/2 288/1/2
f 287/3/2 282/3/2 288/3/2
f 288/1/2 283/1/2 289/1/2
f 269/1/2 275/1/2 290/1/2
f 276/1/2 270/1/2 291/1/2
f 287/1/2 288/1/2 292/1/2
f 285/1/2 286/1/2 293/1/2
f 286/3/2 269/3/2 294/3/2
f 293/1/2 286/1/2 294/1/2
f 294/3/2 269/3/2 295/3/2
f 269/1/2 290/1/2 296/1/2
f 295/3/2 269/3/2 296/3/2
f 290/1/2 291/1/2 296/1/2
f 270/3/2 287/3/2 297/3/2
f 296/1/2 291/1/2 297/1/2
f 291/1/2 270/1/2 297/1/2
f 297/3/2 287/3/2 298/3/2
f 287/1/2 292/1/2 299/1/2
f 298/3/2 287/3/2 299/3/2
f 299/1/2 292/1/2 300/1/2
f 294/1/2 295/1/2 301/1/2
f 295/3/2 296/3/2 302/3/2
f 301/1/2 295/1/2 302/1/2
f 297/3/2 298/3/2 302/3/2
f 296/3/2 297/3/2 302/3/2
f 302/3/2 298/3/2 303/3/2
f 303/3/2 298/3/2 304/3/2
f 298/1/2 299/1/2 305/1/2
f 304/3/2 298/3/2 305/3/2
f 305/1/2 299/1/2 306/1/2
f 302/1/2 303/1/2 307/1/2
f 303/3/2 304/3/2 308/3/2
f 307/1/2 303/1/2 308/1/2
f 308/3/2 304/3/2 309/3/2
f 309/3/2 304/3/2 310/3/2
f 304/1/2 305/1/2 311/1/2
f 310/3/2 304/3/2 311/3/2
f 311/1/2 305/1/2 312/1/2
f 308/1/2 309/1/2 313/1/2
f 309/3/2 310/3/2 314/3/2
f 313/1/2 309/1/2 314/1/2
f 314/3/2 310/3/2 315/3/2
f 315/3/2 310/3/2 316/3/2
f 310/1/2 311/1/2 317/1/2
f 316/3/2 310/3/2 317/3/2
f 317/1/2 311/1/2 318/1/2
f 314/1/2 315/1/2 319/1/2
f 315/3/2 316/3/2 320/3/2
f 319/1/2 315/1/2 320/1/2
f 320/3/2 316/3/2 321/3/2
f 321/3/2 316/3/2 322/3/2
f 316/1/2 317/1/2 323/1/2
f 322/3/2 316/3/2 323/3/2
f 323/1/2 317/1/2 324/1/2
f 320/1/2 321/1/2 325/1/2
f 325/1/2 321/1/2 326/1/2
f 321/3/2 322/3/2 327/3/2
f 326/1/2 321/1/2 327/1/2
f 322/1/2 323/1/2 328/1/2
f 327/3/2 322/3/2 328/3/2
f 328/1/2 323/1/2 329/1/2
f 329/1/2 323/1/2 330/1/2
f 327/1/2 328/1/2 331/1/2
f 331/1/2 328/1/2 332/1/2
f 333/2/2 334/2/2 336/2/2
f 336/2/2 334/2/2 337/2/2
f 337/2/2 334/2/2 338/2/2
f 338/2/2 334/2/2 339/2/2
f 335/2/2 336/2/2 342/2/2
f 342/2/2 336/2/2 343/2/2
f 336/1/2 337/1/2 344/1/2
f 343/2/2 336/2/2 344/2/2
f 344/1/2 337/1/2 345/1/2
f 338/1/2 339/1/2 346/1/2
f 339/2/2 340/2/2 347/2/2
f 346/1/2 339/1/2 347/1/2
f 347/2/2 340/2/2 348/2/2
f 348/2/2 340/2/2 349/2/2
f 341/2/2 342/2/2 352/2/2
f 352/2/2 342/2/2 353/2/2
f 342/1/2 343/1/2 354/1/2
f 353/2/2 342/2/2 354/2/2
f 354/1/2 343/1/2 355/1/2
f 348/1/2 349/1/2 356/1/2
f 349/2/2 350/2/2 357/2/2
f 356/1/2 349/1/2 357/1/2
f 357/2/2 350/2/2 358/2/2
f 358/2/2 350/2/2 359/2/2
f 352/2/2 353/2/2 361/2/2
f 351/2/2 352/2/2 361/2/2
f 353/1/2 354/1/2 362/1/2
f 361/2/2 353/2/2 362/2/2
f 362/1/2 354/1/2 363/1/2
f 357/1/2 358/1/2 364/1/2
f 359/2/2 360/2/2 365/2/2
f 364/1/2 358/1/2 365/1/2
f 358/2/2 359/2/2 365/2/2
f 365/2/2 360/2/2 366/2/2
f 351/2/2 361/2/2 368/2/2
f 361/1/2 362/1/2 369/1/2
f 368/2/2 361/2/2 369/2/2
f 369/1/2 362/1/2 370/1/2
f 365/1/2 366/1/2 371/1/2
f 366/2/2 360/2/2 372/2/2
f 371/1/2 366/1/2 372/1/2
f 372/2/2 360/2/2 373/2/2
f 367/2/2 368/2/2 375/2/2
f 368/1/2 369/1/2 376/1/2
f 375/2/2 368/2/2 376/2/2
f 376/1/2 369/1/2 377/1/2
f 372/1/2 373/1/2 378/1/2
f 373/2/2 374/2/2 379/2/2
f 378/1/2 373/1/2 379/1/2
f 379/2/2 374/2/2 380/2/2
f 375/1/2 376/1/2 382/1/2
f 382/1/2 376/1/2 383/1/2
f 379/1/2 380/1/2 384/1/2
f 384/1/2 380/1/2 385/1/2
f 381/2/2 382/2/2 387/2/2
f 387/2/2 382/2/2 388/2/2
f 385/2/2 386/2/2 391/2/2
f 391/2/2 386/2/2 392/2/2
f 387/1/2 388/1/2 394/1/2
f 394/1/2 388/1/2 395/1/2
f 389/2/2 390/2/2 396/2/2
f 396/2/2 390/2/2 397/2/2
f 391/1/2 392/1/2 398/1/2
f 398/1/2 392/1/2 399/1/2
f 393/2/2 394/2/2 401/2/2
f 401/2/2 394/2/2 402/2/2
f 389/2/2 396/2/2 404/2/2
f 397/2/2 390/2/2 405/2/2
f 399/2/2 400/2/2 407/2/2
f 407/2/2 400/2/2 408/2/2
f 404/2/2 405/2/2 409/2/2
f 389/2/2 404/2/2 409/2/2
f 405/2/2 390/2/2 410/2/2
f 409/2/2 405/2/2 410/2/2
f 406/1/2 407/1/2 411/1/2
f 411/1/2 407/1/2 412/1/2
f 402/2/2 403/2/2 413/2/2
f 413/2/2 403/2/2 414/2/2
f 411/2/2 412/2/2 417/2/2
f 417/2/2 412/2/2 418/2/2
f 414/1/2 415/1/2 419/1/2
f 419/1/2 415/1/2 420/1/2
f 416/2/2 417/2/2 423/2/2
f 419/2/2 420/2/2 424/2/2
f 420/1/2 421/1/2 425/1/2
f 424/2/2 420/2/2 425/2/2
f 425/1/2 421/1/2 426/1/2
f 422/1/2 423/1/2 429/1/2
f 423/2/2 417/2/2 430/2/2
f 429/1/2 423/1/2 430/1/2
f 430/2/2 417/2/2 431/2/2
f 426/1/2 427/1/2 432/1/2
f 425/2/2 426/2/2 432/2/2
f 432/1/2 427/1/2 433/1/2
f 428/1/2 429/1/2 436/1/2
f 429/2/2 430/2/2 437/2/2
f 436/1/2 429/1/2 437/1/2
f 425/2/2 432/2/2 438/2/2
f 432/2/2 433/2/2 438/2/2
f 438/2/2 433/2/2 439/2/2
f 433/1/2 434/1/2 440/1/2
f 439/2/2 433/2/2 440/2/2
f 440/1/2 434/1/2 441/1/2
f 435/1/2 436/1/2 444/1/2
f 436/2/2 437/2/2 445/2/2
f 444/1/2 436/1/2 445/1/2
f 437/2/2 430/2/2 446/2/2
f 445/2/2 437/2/2 446/2/2
f 446/2/2 430/2/2 447/2/2
f 439/2/2 440/2/2 448/2/2
f 440/2/2 441/2/2 448/2/2
f 441/1/2 442/1/2 449/1/2
f 448/2/2 441/2/2 449/2/2
f 449/1/2 442/1/2 450/1/2
f 443/1/2 444/1/2 455/1/2
f 444/2/2 445/2/2 456/2/2
f 445/2/2 446/2/2 456/2/2
f 455/1/2 444/1/2 456/1/2
f 456/2/2 446/2/2 457/2/2
f 449/2/2 450/2/2 458/2/2
f 450/2/2 451/2/2 458/2/2
f 451/1/2 452/1/2 459/1/2
f 458/2/2 451/2/2 459/2/2
f 459/1/2 452/1/2 460/1/2
f 453/1/2 454/1/2 461/1/2
f 454/2/2 455/2/2 462/2/2
f 455/2/2 456/2/2 462/2/2
f 461/1/2 454/1/2 462/1/2
f 462/2/2 456/2/2 463/2/2
f 460/2/2 461/2/2 464/2/2
f 459/2/2 460/2/2 464/2/2
f 461/2/2 462/2/2 464/2/2
f 464/2/2 462/2/2 465/2/2
f 468/2/3 467/2/3 466/2/3
f 469/2/3 467/2/3 468/2/3
f 470/4/3 469/4/3 468/4/3
f 471/4/3 469/4/3 470/4/3
f 472/2/3 471/2/3 470/2/3
f 473/2/3 471/2/3 472/2/3
f 480/2/3 475/2/3 474/2/3
f 481/1/3 476/1/3 475/1/3
f 481/2/3 475/2/3 480/2/3
f 482/1/3 476/1/3 481/1/3
f 483/1/3 478/1/3 477/1/3
f 484/2/3 479/2/3 478/2/3
f 484/1/3 478/1/3 483/1/3
f 485/2/3 479/2/3 484/2/3
f 486/4/3 482/4/3 481/4/3
f 486/4/3 481/4/3 480/4/3
f 487/4/3 482/4/3 486/4/3
f 488/4/3 482/4/3 487/4/3
f 489/4/3 485/4/3 484/4/3
f 489/4/3 484/4/3 483/4/3
f 490/4/3 485/4/3 489/4/3
f 491/2/3 487/2/3 486/2/3
f 492/1/3 488/1/3 487/1/3
f 492/2/3 487/2/3 491/2/3
f 493/1/3 488/1/3 492/1/3
f 494/2/3 490/2/3 489/2/3
f 495/2/3 490/2/3 494/2/3
f 500/2/3 497/2/3 496/2/3
f 501/2/3 497/2/3 500/2/3
f 502/2/3 499/2/3 498/2/3
f 503/2/3 499/2/3 502/2/3
f 504/4/3 501/4/3 500/4/3
f 505/4/3 501/4/3 504/4/3
f 506/4/3 501/4/3 505/4/3
f 507/4/3 503/4/3 502/4/3
f 508/4/3 503/4/3 507/4/3
f 509/4/3 503/4/3 508/4/3
f 510/2/3 505/2/3 504/2/3
f 511/1/3 506/1/3 505/1/3
f 511/2/3 505/2/3 510/2/3
f 512/1/3 506/1/3 511/1/3
f 513/1/3 508/1/3 507/1/3
f 514/2/3 509/2/3 508/2/3
f 514/1/3 508/1/3 513/1/3
f 515/2/3 509/2/3 514/2/3
f 520/2/3 517/2/3 516/2/3
f 521/2/3 517/2/3 520/2/3
f 522/2/3 519/2/3 518/2/3
f 523/2/3 519/2/3 522/2/3
f 524/4/3 521/4/3 520/4/3
f 525/4/3 521/4/3 524/4/3
f 526/4/3 523/4/3 522/4/3
f 527/4/3 523/4/3 526/4/3
f 528/2/3 525/2/3 524/2/3
f 529/2/3 525/2/3 528/2/3
f 530/2/3 527/2/3 526/2/3
f 531/2/3 527/2/3 530/2/3
f 536/2/3 533/2/3 532/2/3
f 537/2/3 533/2/3 536/2/3
f 538/2/3 535/2/3 534/2/3
f 539/2/3 535/2/3 538/2/3
f 540/4/3 537/4/3 536/4/3
f 541/4/3 537/4/3 540/4/3
f 542/4/3 539/4/3 538/4/3
f 543/4/3 539/4/3 542/4/3
f 544/2/3 541/2/3 540/2/3
f 545/2/3 541/2/3 544/2/3
f 546/2/3 543/2/3 542/2/3
f 547/2/3 543/2/3 546/2/3
f 552/2/3 549/2/3 548/2/3
f 553/2/3 549/2/3 552/2/3
f 554/2/3 551/2/3 550/2/3
f 555/2/3 551/2/3 554/2/3
f 556/4/3 553/4/3 552/4/3
f 557/4/3 553/4/3 556/4/3
f 558/4/3 555/4/3 554/4/3
f 559/4/3 555/4/3 558/4/3
f 560/2/3 557/2/3 556/2/3
f 561/2/3 557/2/3 560/2/3
f 562/2/3 559/2/3 558/2/3
f 563/2/3 559/2/3 562/2/3
f 568/2/3 565/2/3 564/2/3
f 569/2/3 565/2/3 568/2/3
f 570/2/3 567/2/3 566/2/3
f 571/2/3 567/2/3 570/2/3
f 572/4/3 569/4/3 568/4/3
f 573/4/3 569/4/3 572/4/3
f 574/4/3 571/4/3 570/4/3
f 575/4/3 571/4/3 574/4/3
f 576/2/3 573/2/3 572/2/3
f 577/2/3 573/2/3 576/2/3
f 578/2/3 575/2/3 574/2/3
f 579/2/3 575/2/3 578/2/3
f 582/2/3 581/2/3 580/2/3
f 583/2/3 581/2/3 582/2/3
f 586/2/3 585/2/3 584/2/3
f 587/2/3 585/2/3 586/2/3
f 590/2/3 589/2/3 588/2/3
f 591/2/3 589/2/3 590/2/3
f 592/1/3 591/1/3 590/1/3
f 593/1/3 591/1/3 592/1/3
f 594/2/3 593/2/3 592/2/3
f 595/2/3 593/2/3 594/2/3
f 600/1/3 597/1/3 596/1/3
f 601/1/3 597/1/3 600/1/3
f 602/1/3 599/1/3 598/1/3
f 603/1/3 599/1/3 602/1/3
f 608/1/3 605/1/3 604/1/3
f 609/1/3 605/1/3 608/1/3
f 610/1/3 607/1/3 606/1/3
f 611/1/3 607/1/3 610/1/3
f 616/1/3 613/1/3 612/1/3
f 617/1/3 613/1/3 616/1/3
f 618/1/3 615/1/3 614/1/3
f 619/1/3 615/1/3 618/1/3
f 624/1/3 621/1/3 620/1/3
f 625/1/3 621/1/3 624/1/3
f 626/1/3 623/1/3 622/1/3
f 627/1/3 623/1/3 626/1/3
f 632/1/3 629/1/3 628/1/3
f 633/1/3 629/1/3 632/1/3
f 634/1/3 631/1/3 630/1/3
f 635/1/3 631/1/3 634/1/3
f 640/1/3 637/1/3 636/1/3
f 641/1/3 637/1/3 640/1/3
f 642/1/3 639/1/3 638/1/3
f 643/1/3 639/1/3 642/1/3
f 648/1/3 645/1/3 644/1/3
f 649/1/3 645/1/3 648/1/3
f 650/1/3 647/1/3 646/1/3
f 651/1/3 647/1/3 650/1/3
f 656/1/3 653/1/3 652/1/3
f 657/1/3 653/1/3 656/1/3
f 658/1/3 655/1/3 654/1/3
f 659/1/3 655/1/3 658/1/3
f 664/1/3 661/1/3 660/1/3
f 665/1/3 661/1/3 664/1/3
f 666/1/3 663/1/3 662/1/3
f 667/1/3 663/1/3 666/1/3
f 672/1/3 669/1/3 668/1/3
f 673/1/3 669/1/3 672/1/3
f 674/1/3 671/1/3 670/1/3
f 675/1/3 671/1/3 674/1/3
f 680/1/3 677/1/3 676/1/3
f 681/1/3 677/1/3 680/1/3
f 682/2/3 679/2/3 678/2/3
f 683/2/3 679/2/3 682/2/3
f 688/1/3 685/1/3 684/1/3
f 689/1/3 685/1/3 688/1/3
f 690/2/3 687/2/3 686/2/3
f 691/2/3 687/2/3 690/2/3
f 698/2/3 693/2/3 692/2/3
f 699/1/3 694/1/3 693/1/3
f 699/2/3 693/2/3 698/2/3
f 700/1/3 694/1/3 699/1/3
f 701/1/3 696/1/3 695/1/3
f 702/2/3 697/2/3 696/2/3
f 702/1/3 696/1/3 701/1/3
f 703/2/3 697/2/3 702/2/3
f 710/2/3 705/2/3 704/2/3
f 711/1/3 706/1/3 705/1/3
f 711/2/3 705/2/3 710/2/3
f 712/1/3 706/1/3 711/1/3
f 713/1/3 708/1/3 707/1/3
f 714/2/3 709/2/3 708/2/3
f 714/1/3 708/1/3 713/1/3
f 715/2/3 709/2/3 714/2/3
f 718/2/3 717/2/3 716/2/3
f 719/2/3 717/2/3 718/2/3
f 722/2/3 721/2/3 720/2/3
f 723/2/3 721/2/3 722/2/3
f 724/2/4 725/2/4 726/2/4
f 726/2/4 725/2/4 727/2/4
f 728/2/4 729/2/4 730/2/4
f 730/2/4 729/2/4 731/2/4
f 732/2/4 733/2/4 738/2/4
f 733/1/4 734/1/4 739/1/4
f 738/2/4 733/2/4 739/2/4
f 739/1/4 734/1/4 740/1/4
f 735/1/4 736/1/4 741/1/4
f 736/2/4 737/2/4 742/2/4
f 741/1/4 736/1/4 742/1/4
f 742/2/4 737/2/4 743/2/4
f 744/2/4 745/2/4 749/2/4
f 745/1/4 746/1/4 750/1/4
f 749/2/4 745/2/4 750/2/4
f 750/1/4 746/1/4 751/1/4
f 747/2/4 748/2/4 752/2/4
f 752/2/4 748/2/4 753/2/4
f 754/2/4 755/2/4 758/2/4
f 758/2/4 755/2/4 759/2/4
f 756/2/4 757/2/4 760/2/4
f 760/2/4 757/2/4 761/2/4
f 762/1/4 763/1/4 766/1/4
f 766/1/4 763/1/4 767/1/4
f 764/1/4 765/1/4 768/1/4
f 768/1/4 765/1/4 769/1/4
f 770/1/4 771/1/4 774/1/4
f 774/1/4 771/1/4 775/1/4
f 772/1/4 773/1/4 776/1/4
f 776/1/4 773/1/4 777/1/4
f 778/1/4 779/1/4 782/1/4
f 782/1/4 779/1/4 783/1/4
f 780/1/4 781/1/4 784/1/4
f 784/1/4 781/1/4 785/1/4
f 786/1/4 787/1/4 790/1/4
f 790/1/4 787/1/4 791/1/4
f 788/1/4 789/1/4 792/1/4
f 792/1/4 789/1/4 793/1/4
f 794/1/4 795/1/4 798/1/4
f 798/1/4 795/1/4 799/1/4
f 796/1/4 797/1/4 800/1/4
f 800/1/4 797/1/4 801/1/4
f 802/1/4 803/1/4 806/1/4
f 806/1/4 803/1/4 807/1/4
f 804/1/4 805/1/4 808/1/4
f 808/1/4 805/1/4 809/1/4
f 810/1/4 811/1/4 814/1/4
f 814/1/4 811/1/4 815/1/4
f 812/1/4 813/1/4 816/1/4
f 816/1/4 813/1/4 817/1/4
f 818/1/4 819/1/4 822/1/4
f 822/1/4 819/1/4 823/1/4
f 820/1/4 821/1/4 824/1/4
f 824/1/4 821/1/4 825/1/4
f 826/1/4 827/1/4 830/1/4
f 830/1/4 827/1/4 831/1/4
f 828/1/4 829/1/4 832/1/4
f 832/1/4 829/1/4 833/1/4
f 834/1/4 835/1/4 838/1/4
f 838/1/4 835/1/4 839/1/4
f 836/1/4 837/1/4 840/1/4
f 840/1/4 837/1/4 841/1/4
f 842/1/4 843/1/4 846/1/4
f 846/1/4 843/1/4 847/1/4
f 844/1/4 845/1/4 848/1/4
f 848/1/4 845/1/4 849/1/4
f 850/2/4 851/2/4 852/2/4
f 852/2/4 851/2/4 853/2/4
f 852/1/4 853/1/4 854/1/4
f 854/1/4 853/1/4 855/1/4
f 854/2/4 855/2/4 856/2/4
f 856/2/4 855/2/4 857/2/4
f 858/2/4 859/2/4 860/2/4
f 860/2/4 859/2/4 861/2/4
f 862/2/4 863/2/4 864/2/4
f 864/2/4 863/2/4 865/2/4
f 866/2/4 867/2/4 870/2/4
f 870/2/4 867/2/4 871/2/4
f 868/2/4 869/2/4 872/2/4
f 872/2/4 869/2/4 873/2/4
f 870/4/4 871/4/4 874/4/4
f 874/4/4 871/4/4 875/4/4
f 872/4/4 873/4/4 876/4/4
f 876/4/4 873/4/4 877/4/4
f 874/2/4 875/2/4 878/2/4
f 878/2/4 875/2/4 879/2/4
f 876/2/4 877/2/4 880/2/4
f 880/2/4 877/2/4 881/2/4
f 882/2/4 883/2/4 886/2/4
f 886/2/4 883/2/4 887/2/4
f 884/2/4 885/2/4 888/2/4
f 888/2/4 885/2/4 889/2/4
f 886/4/4 887/4/4 890/4/4
f 890/4/4 887/4/4 891/4/4
f 888/4/4 889/4/4 892/4/4
f 892/4/4 889/4/4 893/4/4
f 890/2/4 891/2/4 894/2/4
f 894/2/4 891/2/4 895/2/4
f 892/2/4 893/2/4 896/2/4
f 896/2/4 893/2/4 897/2/4
f 898/2/4 899/2/4 902/2/4
f 902/2/4 899/2/4 903/2/4
f 900/2/4 901/2/4 904/2/4
f 904/2/4 901/2/4 905/2/4
f 902/4/4 903/4/4 906/4/4
f 906/4/4 903/4/4 907/4/4
f 904/4/4 905/4/4 908/4/4
f 908/4/4 905/4/4 909/4/4
f 906/2/4 907/2/4 910/2/4
f 910/2/4 907/2/4 911/2/4
f 908/2/4 909/2/4 912/2/4
f 912/2/4 909/2/4 913/2/4
f 914/2/4 915/2/4 918/2/4
f 918/2/4 915/2/4 919/2/4
f 916/2/4 917/2/4 920/2/4
f 920/2/4 917/2/4 921/2/4
f 918/4/4 919/4/4 922/4/4
f 922/4/4 919/4/4 923/4/4
f 920/4/4 921/4/4 924/4/4
f 924/4/4 921/4/4 925/4/4
f 922/2/4 923/2/4 926/2/4
f 926/2/4 923/2/4 927/2/4
f 924/2/4 925/2/4 928/2/4
f 928/2/4 925/2/4 929/2/4
f 930/2/4 931/2/4 935/2/4
f 931/1/4 932/1/4 936/1/4
f 935/2/4 931/2/4 936/2/4
f 936/1/4 932/1/4 937/1/4
f 933/2/4 934/2/4 938/2/4
f 938/2/4 934/2/4 939/2/4
f 936/4/4 937/4/4 940/4/4
f 935/4/4 936/4/4 940/4/4
f 940/4/4 937/4/4 941/4/4
f 941/4/4 937/4/4 942/4/4
f 938/4/4 939/4/4 943/4/4
f 943/4/4 939/4/4 944/4/4
f 940/2/4 941/2/4 945/2/4
f 941/1/4 942/1/4 946/1/4
f 945/2/4 941/2/4 946/2/4
f 946/1/4 942/1/4 947/1/4
f 943/2/4 944/2/4 948/2/4
f 948/2/4 944/2/4 949/2/4
f 950/2/4 951/2/4 956/2/4
f 951/1/4 952/1/4 957/1/4
f 956/2/4 951/2/4 957/2/4
f 957/1/4 952/1/4 958/1/4
f 953/1/4 954/1/4 959/1/4
f 954/2/4 955/2/4 960/2/4
f 959/1/4 954/1/4 960/1/4
f 960/2/4 955/2/4 961/2/4
f 957/4/4 958/4/4 962/4/4
f 956/4/4 957/4/4 962/4/4
f 962/4/4 958/4/4 963/4/4
f 963/4/4 958/4/4 964/4/4
f 960/4/4 961/4/4 965/4/4
f 959/4/4 960/4/4 965/4/4
f 965/4/4 961/4/4 966/4/4
f 966/4/4 961/4/4 967/4/4
f 962/2/4 963/2/4 968/2/4
f 963/1/4 964/1/4 969/1/4
f 968/2/4 963/2/4 969/2/4
f 969/1/4 964/1/4 970/1/4
f 965/1/4 966/1/4 971/1/4
f 966/2/4 967/2/4 972/2/4
f 971/1/4 966/1/4 972/1/4
f 972/2/4 967/2/4 973/2/4
f 974/2/4 975/2/4 976/2/4
f 976/2/4 975/2/4 977/2/4
f 976/4/4 977/4/4 978/4/4
f 978/4/4 977/4/4 979/4/4
f 978/2/4 979/2/4 980/2/4
f 980/2/4 979/2/4 981/2/4
f 986/2/5 983/2/5 982/2/5
f 987/4/5 984/4/5 983/4/5
f 987/2/5 983/2/5 986/2/5
f 988/2/5 985/2/5 984/2/5
f 988/4/5 984/4/5 987/4/5
f 989/2/5 985/2/5 988/2/5
f 994/2/5 991/2/5 990/2/5
f 995/4/5 992/4/5 991/4/5
f 995/2/5 991/2/5 994/2/5
f 996/2/5 993/2/5 992/2/5
f 996/4/5 992/4/5 995/4/5
f 997/2/5 993/2/5 996/2/5
f 1002/2/5 999/2/5 998/2/5
f 1003/4/5 1000/4/5 999/4/5
f 1003/2/5 999/2/5 1002/2/5
f 1004/2/5 1001/2/5 1000/2/5
f 1004/4/5 1000/4/5 1003/4/5
f 1005/2/5 1001/2/5 1004/2/5
f 1010/2/5 1007/2/5 1006/2/5
f 1011/4/5 1008/4/5 1007/4/5
f 1011/2/5 1007/2/5 1010/2/5
f 1012/2/5 1009/2/5 1008/2/5
f 1012/4/5 1008/4/5 1011/4/5
f 1013/2/5 1009/2/5 1012/2/5
f 1018/2/5 1015/2/5 1014/2/5
f 1019/4/5 1016/4/5 1015/4/5
f 1019/2/5 1015/2/5 1018/2/5
f 1020/2/5 1017/2/5 1016/2/5
f 1020/4/5 1016/4/5 1019/4/5
f 1021/2/5 1017/2/5 1020/2/5
f 1026/2/5 1023/2/5 1022/2/5
f 1027/4/5 1024/4/5 1023/4/5
f 1027/2/5 1023/2/5 1026/2/5
f 1028/2/5 1025/2/5 1024/2/5
f 1028/4/5 1024/4/5 1027/4/5
f 1029/2/5 1025/2/5 1028/2/5
f 1034/2/5 1031/2/5 1030/2/5
f 1035/4/5 1032/4/5 1031/4/5
f 1035/2/5 1031/2/5 1034/2/5
f 1036/2/5 1033/2/5 1032/2/5
f 1036/4/5 1032/4/5 1035/4/5
f 1037/2/5 1033/2/5 1036/2/5
f 1042/2/5 1039/2/5 1038/2/5
f 1043/4/5 1040/4/5 1039/4/5
f 1043/2/5 1039/2/5 1042/2/5
f 1044/2/5 1041/2/5 1040/2/5
f 1044/4/5 1040/4/5 1043/4/5
f 1045/2/5 1041/2/5 1044/2/5
f 1050/2/5 1047/2/5 1046/2/5
f 1051/4/5 1048/4/5 1047/4/5
f 1051/2/5 1047/2/5 1050/2/5
f 1052/2/5 1049/2/5 1048/2/5
f 1052/4/5 1048/4/5 1051/4/5
f 1053/2/5 1049/2/5 1052/2/5
f 1058/2/5 1055/2/5 1054/2/5
f 1059/4/5 1056/4/5 1055/4/5
f 1059/2/5 1055/2/5 1058/2/5
f 1060/2/5 1057/2/5 1056/2/5
f 1060/4/5 1056/4/5 1059/4/5
f 1061/2/5 1057/2/5 1060/2/5
f 1066/2/5 1063/2/5 1062/2/5
f 1067/4/5 1064/4/5 1063/4/5
f 1067/2/5 1063/2/5 1066/2/5
f 1068/2/5 1065/2/5 1064/2/5
f 1068/4/5 1064/4/5 1067/4/5
f 1069/2/5 1065/2/5 1068/2/5
f 1074/2/5 1071/2/5 1070/2/5
f 1075/2/5 1071/2/5 1074/2/5
f 1076/2/5 1073/2/5 1072/2/5
f 1077/2/5 1073/2/5 1076/2/5
f 1082/2/5 1079/2/5 1078/2/5
f 1083/4/5 1080/4/5 1079/4/5
f 1083/2/5 1079/2/5 1082/2/5
f 1084/2/5 1081/2/5 1080/2/5
f 1084/4/5 1080/4/5 1083/4/5
f 1085/2/5 1081/2/5 1084/2/5
f 1090/2/5 1087/2/5 1086/2/5
f 1091/4/5 1088/4/5 1087/4/5
f 1091/2/5 1087/2/5 1090/2/5
f 1092/2/5 1089/2/5 1088/2/5
f 1092/4/5 1088/4/5 1091/4/5
f 1093/2/5 1089/2/5 1092/2/5
f 1098/1/5 1095/1/5 1094/1/5
f 1099/1/5 1095/1/5 1098/1/5
f 1100/2/5 1097/2/5 1096/2/5
f 1101/2/5 1097/2/5 1100/2/5
f 1106/2/5 1103/2/5 1102/2/5
f 1107/1/5 1104/1/5 1103/1/5
f 1107/2/5 1103/2/5 1106/2/5
f 1108/2/5 1105/2/5 1104/2/5
f 1108/1/5 1104/1/5 1107/1/5
f 1109/2/5 1105/2/5 1108/2/5
f 1114/1/5 1111/1/5 1110/1/5
f 1115/1/5 1111/1/5 1114/1/5
f 1116/1/5 1113/1/5 1112/1/5
f 1117/1/5 1113/1/5 1116/1/5
f 1122/2/5 1119/2/5 1118/2/5
f 1123/2/5 1119/2/5 1122/2/5
f 1124/1/5 1121/1/5 1120/1/5
f 1125/1/5 1121/1/5 1124/1/5
f 1130/2/5 1127/2/5 1126/2/5
f 1131/2/5 1127/2/5 1130/2/5
f 1132/2/5 1129/2/5 1128/2/5
f 1133/2/5 1129/2/5 1132/2/5
f 1138/1/5 1135/1/5 1134/1/5
f 1139/1/5 1135/1/5 1138/1/5
f 1140/1/5 1137/1/5 1136/1/5
f 1141/1/5 1137/1/5 1140/1/5
f 1146/1/5 1143/1/5 1142/1/5
f 1147/1/5 1143/1/5 1146/1/5
f 1148/1/5 1145/1/5 1144/1/5
f 1149/1/5 1145/1/5 1148/1/5
f 1154/1/5 1151/1/5 1150/1/5
f 1155/1/5 1151/1/5 1154/1/5
f 1156/1/5 1153/1/5 1152/1/5
f 1157/1/5 1153/1/5 1156/1/5
f 1162/1/5 1159/1/5 1158/1/5
f 1163/1/5 1159/1/5 1162/1/5
f 1164/1/5 1161/1/5 1160/1/5
f 1165/1/5 1161/1/5 1164/1/5
f 1170/1/5 1167/1/5 1166/1/5
f 1171/1/5 1167/1/5 1170/1/5
f 1172/1/5 1169/1/5 1168/1/5
f 1173/1/5 1169/1/5 1172/1/5
f 1178/1/5 1175/1/5 1174/1/5
f 1179/1/5 1175/1/5 1178/1/5
f 1180/1/5 1177/1/5 1176/1/5
f 1181/1/5 1177/1/5 1180/1/5
f 1186/1/5 1183/1/5 1182/1/5
f 1187/1/5 1183/1/5 1186/1/5
f 1188/1/5 1185/1/5 1184/1/5
f 1189/1/5 1185/1/5 1188/1/5
f 1194/1/5 1191/1/5 1190/1/5
f 1195/1/5 1191/1/5 1194/1/5
f 1196/1/5 1193/1/5 1192/1/5
f 1197/1/5 1193/1/5 1196/1/5
f 1202/2/5 1199/2/5 1198/2/5
f 1203/2/5 1199/2/5 1202/2/5
f 1204/2/5 1201/2/5 1200/2/5
f 1205/2/5 1201/2/5 1204/2/5
f 1206/1/5 1203/1/5 1202/1/5
f 1207/1/5 1203/1/5 1206/1/5
f 1208/1/5 1205/1/5 1204/1/5
f 1209/1/5 1205/1/5 1208/1/5
f 1214/1/5 1211/1/5 1210/1/5
f 1215/1/5 1211/1/5 1214/1/5
f 1216/1/5 1213/1/5 1212/1/5
f 1217/1/5 1213/1/5 1216/1/5
f 1218/2/5 1215/2/5 1214/2/5
f 1219/2/5 1215/2/5 1218/2/5
f 1220/2/5 1217/2/5 1216/2/5
f 1221/2/5 1217/2/5 1220/2/5
f 1226/2/5 1223/2/5 1222/2/5
f 1227/2/5 1223/2/5 1226/2/5
f 1228/2/5 1225/2/5 1224/2/5
f 1229/2/5 1225/2/5 1228/2/5
f 1230/2/6 1231/2/6 1234/2/6
f 1234/2/6 1231/2/6 1235/2/6
f 1232/2/6 1233/2/6 1236/2/6
f 1236/2/6 1233/2/6 1237/2/6
f 1238/2/6 1239/2/6 1242/2/6
f 1242/2/6 1239/2/6 1243/2/6
f 1240/2/6 1241/2/6 1244/2/6
f 1244/2/6 1241/2/6 1245/2/6
f 1242/1/6 1243/1/6 1246/1/6
f 1246/1/6 1243/1/6 1247/1/6
f 1244/1/6 1245/1/6 1248/1/6
f 1248/1/6 1245/1/6 1249/1/6
f 1250/1/6 1251/1/6 1254/1/6
f 1254/1/6 1251/1/6 1255/1/6
f 1252/1/6 1253/1/6 1256/1/6
f 1256/1/6 1253/1/6 1257/1/6
f 1254/2/6 1255/2/6 1258/2/6
f 1258/2/6 1255/2/6 1259/2/6
f 1256/2/6 1257/2/6 1260/2/6
f 1260/2/6 1257/2/6 1261/2/6
f 1262/1/6 1263/1/6 1266/1/6
f 1266/1/6 1263/1/6 1267/1/6
f 1264/1/6 1265/1/6 1268/1/6
f 1268/1/6 1265/1/6 1269/1/6
f 1270/1/6 1271/1/6 1274/1/6
f 1274/1/6 1271/1/6 1275/1/6
f 1272/1/6 1273/1/6 1276/1/6
f 1276/1/6 1273/1/6 1277/1/6
f 1278/1/6 1279/1/6 1282/1/6
f 1282/1/6 1279/1/6 1283/1/6
f 1280/1/6 1281/1/6 1284/1/6
f 1284/1/6 1281/1/6 1285/1/6
f 1286/1/6 1287/1/6 1290/1/6
f 1290/1/6 1287/1/6 1291/1/6
f 1288/1/6 1289/1/6 1292/1/6
f 1292/1/6 1289/1/6 1293/1/6
f 1294/1/6 1295/1/6 1298/1/6
f 1298/1/6 1295/1/6 1299/1/6
f 1296/1/6 1297/1/6 1300/1/6
f 1300/1/6 1297/1/6 1301/1/6
f 1302/1/6 1303/1/6 1306/1/6
f 1306/1/6 1303/1/6 1307/1/6
f 1304/1/6 1305/1/6 1308/1/6
f 1308/1/6 1305/1/6 1309/1/6
f 1310/1/6 1311/1/6 1314/1/6
f 1314/1/6 1311/1/6 1315/1/6
f 1312/1/6 1313/1/6 1316/1/6
f 1316/1/6 1313/1/6 1317/1/6
f 1318/1/6 1319/1/6 1322/1/6
f 1322/1/6 1319/1/6 1323/1/6
f 1320/1/6 1321/1/6 1324/1/6
f 1324/1/6 1321/1/6 1325/1/6
f 1326/2/6 1327/2/6 1330/2/6
f 1330/2/6 1327/2/6 1331/2/6
f 1328/1/6 1329/1/6 1332/1/6
f 1332/1/6 1329/1/6 1333/1/6
f 1334/1/6 1335/1/6 1338/1/6
f 1338/1/6 1335/1/6 1339/1/6
f 1336/1/6 1337/1/6 1340/1/6
f 1340/1/6 1337/1/6 1341/1/6
f 1342/1/6 1343/1/6 1346/1/6
f 1346/1/6 1343/1/6 1347/1/6
f 1344/1/6 1345/1/6 1348/1/6
f 1348/1/6 1345/1/6 1349/1/6
f 1350/2/6 1351/2/6 1354/2/6
f 1351/1/6 1352/1/6 1355/1/6
f 1354/2/6 1351/2/6 1355/2/6
f 1352/2/6 1353/2/6 1356/2/6
f 1355/1/6 1352/1/6 1356/1/6
f 1356/2/6 1353/2/6 1357/2/6
f 1358/1/6 1359/1/6 1362/1/6
f 1362/1/6 1359/1/6 1363/1/6
f 1360/1/6 1361/1/6 1364/1/6
f 1364/1/6 1361/1/6 1365/1/6
f 1366/2/6 1367/2/6 1370/2/6
f 1367/4/6 1368/4/6 1371/4/6
f 1370/2/6 1367/2/6 1371/2/6
f 1368/2/6 1369/2/6 1372/2/6
f 1371/4/6 1368/4/6 1372/4/6
f 1372/2/6 1369/2/6 1373/2/6
f 1374/2/6 1375/2/6 1378/2/6
f 1375/4/6 1376/4/6 1379/4/6
f 1378/2/6 1375/2/6 1379/2/6
f 1376/2/6 1377/2/6 1380/2/6
f 1379/4/6 1376/4/6 1380/4/6
f 1380/2/6 1377/2/6 1381/2/6
f 1382/2/6 1383/2/6 1386/2/6
f 1386/2/6 1383/2/6 1387/2/6
f 1384/2/6 1385/2/6 1388/2/6
f 1388/2/6 1385/2/6 1389/2/6
f 1390/2/6 1391/2/6 1394/2/6
f 1391/4/6 1392/4/6 1395/4/6
f 1394/2/6 1391/2/6 1395/2/6
f 1392/2/6 1393/2/6 1396/2/6
f 1395/4/6 1392/4/6 1396/4/6
f 1396/2/6 1393/2/6 1397/2/6
f 1398/2/6 1399/2/6 1402/2/6
f 1399/4/6 1400/4/6 1403/4/6
f 1402/2/6 1399/2/6 1403/2/6
f 1400/2/6 1401/2/6 1404/2/6
f 1403/4/6 1400/4/6 1404/4/6
f 1404/2/6 1401/2/6 1405/2/6
f 1406/2/6 1407/2/6 1410/2/6
f 1407/4/6 1408/4/6 1411/4/6
f 1410/2/6 1407/2/6 1411/2/6
f 1408/2/6 1409/2/6 1412/2/6
f 1411/4/6 1408/4/6 1412/4/6
f 1412/2/6 1409/2/6 1413/2/6
f 1414/2/6 1415/2/6 1418/2/6
f 1415/4/6 1416/4/6 1419/4/6
f 1418/2/6 1415/2/6 1419/2/6
f 1416/2/6 1417/2/6 1420/2/6
f 1419/4/6 1416/4/6 1420/4/6
f 1420/2/6 1417/2/6 1421/2/6
f 1422/2/6 1423/2/6 1426/2/6
f 1423/4/6 1424/4/6 1427/4/6
f 1426/2/6 1423/2/6 1427/2/6
f 1424/2/6 1425/2/6 1428/2/6
f 1427/4/6 1424/4/6 1428/4/6
f 1428/2/6 1425/2/6 1429/2/6
f 1430/2/6 1431/2/6 1434/2/6
f 1431/4/6 1432/4/6 1435/4/6
f 1434/2/6 1431/2/6 1435/2/6
f 1432/2/6 1433/2/6 1436/2/6
f 1435/4/6 1432/4/6 1436/4/6
f 1436/2/6 1433/2/6 1437/2/6
f 1438/2/6 1439/2/6 1442/2/6
f 1439/4/6 1440/4/6 1443/4/6
f 1442/2/6 1439/2/6 1443/2/6
f 1440/2/6 1441/2/6 1444/2/6
f 1443/4/6 1440/4/6 1444/4/6
f 1444/2/6 1441/2/6 1445/2/6
f 1446/2/6 1447/2/6 1450/2/6
f 1447/4/6 1448/4/6 1451/4/6
f 1450/2/6 1447/2/6 1451/2/6
f 1448/2/6 1449/2/6 1452/2/6
f 1451/4/6 1448/4/6 1452/4/6
f 1452/2/6 1449/2/6 1453/2/6
f 1454/2/6 1455/2/6 1458/2/6
f 1455/4/6 1456/4/6 1459/4/6
f 1458/2/6 1455/2/6 1459/2/6
f 1456/2/6 1457/2/6 1460/2/6
f 1459/4/6 1456/4/6 1460/4/6
f 1460/2/6 1457/2/6 1461/2/6
f 1462/2/6 1463/2/6 1466/2/6
f 1463/4/6 1464/4/6 1467/4/6
f 1466/2/6 1463/2/6 1467/2/6
f 1464/2/6 1465/2/6 1468/2/6
f 1467/4/6 1464/4/6 1468/4/6
f 1468/2/6 1465/2/6 1469/2/6
f 1470/2/6 1471/2/6 1474/2/6
f 1471/4/6 1472/4/6 1474/4/6
f 1472/2/6 1473/2/6 1475/2/6
f 1474/4/6 1472/4/6 1475/4/6
f 1470/2/6 1474/2/6 1476/2/6
f 1474/2/6 1475/2/6 1476/2/6
f 1475/2/6 1473/2/6 1477/2/6
f 1476/2/6 1475/2/6 1477/2/6
f 1470/2/6 1476/2/6 1478/2/6
f 1476/4/6 1477/4/6 1479/4/6
f 1478/2/6 1476/2/6 1479/2/6
f 1477/2/6 1473/2/6 1480/2/6
f 1479/4/6 1477/4/6 1480/4/6
f 1480/2/6 1473/2/6 1481/2/6
