# MagicaVoxel @ Ephtracy

# group
o 

# material
mtllib sword16.mtl
usemtl palette

# normals
vn -1 0 0
vn 1 0 0
vn 0 0 1
vn 0 0 -1
vn 0 -1 0
vn 0 1 0

# texcoords
vt 0.931641 0.5
vt 0.947266 0.5
vt 0.951172 0.5
vt 0.958984 0.5
vt 0.978516 0.5
vt 0.982422 0.5
vt 0.990234 0.5

# verts
v -0.7 0.2 0.2
v -0.7 0.2 -2.98023e-08
v -0.7 0.5 0.2
v -0.7 0.5 -2.98023e-08
v -0.5 0.1 0.2
v -0.5 0.1 -2.98023e-08
v -0.5 0.2 0.2
v -0.5 0.2 -2.98023e-08
v -0.4 0 0.2
v -0.4 0 -2.98023e-08
v -0.4 0.1 0.2
v -0.4 0.1 -2.98023e-08
v -0.3 -0.1 0.2
v -0.3 -0.1 -2.98023e-08
v -0.3 0 0.2
v -0.3 0 -2.98023e-08
v -0.2 -0.7 0.2
v -0.2 -0.7 -2.98023e-08
v -0.2 -0.5 0.2
v -0.2 -0.5 -2.98023e-08
v -0.2 0.3 0.2
v -0.2 0.3 -2.98023e-08
v -0.2 2.3 0.2
v -0.2 2.3 -2.98023e-08
v -0.1 -0.8 0.2
v -0.1 -0.8 -2.98023e-08
v -0.1 -0.7 0.3
v -0.1 -0.7 0.2
v -0.1 -0.7 -2.98023e-08
v -0.1 -0.7 -0.1
v -0.1 -0.6 0.3
v -0.1 -0.6 0.2
v -0.1 -0.6 -2.98023e-08
v -0.1 -0.6 -0.1
v -0.1 -0.5 0.3
v -0.1 -0.5 0.2
v -0.1 -0.5 -2.98023e-08
v -0.1 -0.5 -0.1
v -0.1 -0.4 0.2
v -0.1 -0.4 -2.98023e-08
v -0.1 -0.3 0.2
v -0.1 -0.3 -2.98023e-08
v -0.1 -0.2 0.2
v -0.1 -0.2 -2.98023e-08
v -0.1 -0.1 0.2
v -0.1 -0.1 -2.98023e-08
v -0.1 2.3 0.2
v -0.1 2.3 -2.98023e-08
v -0.1 2.4 0.2
v -0.1 2.4 -2.98023e-08
v 0.3 0.3 0.2
v 0.3 0.3 -2.98023e-08
v 0.3 0.4 0.2
v 0.3 0.4 -2.98023e-08
v 0.6 0.4 0.2
v 0.6 0.4 -2.98023e-08
v 0.6 0.5 0.2
v 0.6 0.5 -2.98023e-08
v -0.6 0.4 0.2
v -0.6 0.4 -2.98023e-08
v -0.6 0.5 0.2
v -0.6 0.5 -2.98023e-08
v -0.3 0.3 0.2
v -0.3 0.3 -2.98023e-08
v -0.3 0.4 0.2
v -0.3 0.4 -2.98023e-08
v 0.1 -0.8 0.2
v 0.1 -0.8 -2.98023e-08
v 0.1 -0.7 0.3
v 0.1 -0.7 0.2
v 0.1 -0.7 -2.98023e-08
v 0.1 -0.7 -0.1
v 0.1 -0.6 0.3
v 0.1 -0.6 0.2
v 0.1 -0.6 -2.98023e-08
v 0.1 -0.6 -0.1
v 0.1 -0.5 0.3
v 0.1 -0.5 0.2
v 0.1 -0.5 -2.98023e-08
v 0.1 -0.5 -0.1
v 0.1 -0.4 0.2
v 0.1 -0.4 -2.98023e-08
v 0.1 -0.3 0.2
v 0.1 -0.3 -2.98023e-08
v 0.1 -0.2 0.2
v 0.1 -0.2 -2.98023e-08
v 0.1 -0.1 0.2
v 0.1 -0.1 -2.98023e-08
v 0.1 2.3 0.2
v 0.1 2.3 -2.98023e-08
v 0.1 2.4 0.2
v 0.1 2.4 -2.98023e-08
v 0.2 -0.7 0.2
v 0.2 -0.7 -2.98023e-08
v 0.2 -0.5 0.2
v 0.2 -0.5 -2.98023e-08
v 0.2 0.3 0.2
v 0.2 0.3 -2.98023e-08
v 0.2 2.3 0.2
v 0.2 2.3 -2.98023e-08
v 0.3 -0.1 0.2
v 0.3 -0.1 -2.98023e-08
v 0.3 0 0.2
v 0.3 0 -2.98023e-08
v 0.4 0 0.2
v 0.4 0 -2.98023e-08
v 0.4 0.1 0.2
v 0.4 0.1 -2.98023e-08
v 0.5 0.1 0.2
v 0.5 0.1 -2.98023e-08
v 0.5 0.2 0.2
v 0.5 0.2 -2.98023e-08
v 0.7 0.2 0.2
v 0.7 0.2 -2.98023e-08
v 0.7 0.5 0.2
v 0.7 0.5 -2.98023e-08
v -0.1 -0.7 0.3
v -0.1 -0.6 0.3
v -0.1 -0.5 0.3
v 0 -0.7 0.3
v 0 -0.6 0.3
v 0 -0.5 0.3
v 0.1 -0.7 0.3
v 0.1 -0.6 0.3
v 0.1 -0.5 0.3
v -0.7 0.2 0.2
v -0.7 0.5 0.2
v -0.6 0.4 0.2
v -0.6 0.5 0.2
v -0.5 0.1 0.2
v -0.5 0.2 0.2
v -0.5 0.3 0.2
v -0.4 0 0.2
v -0.4 0.1 0.2
v -0.4 0.2 0.2
v -0.3 -0.1 0.2
v -0.3 0 0.2
v -0.3 0.1 0.2
v -0.3 0.2 0.2
v -0.3 0.3 0.2
v -0.3 0.4 0.2
v -0.2 -0.7 0.2
v -0.2 -0.5 0.2
v -0.2 0 0.2
v -0.2 0.2 0.2
v -0.2 0.3 0.2
v -0.2 2.3 0.2
v -0.1 -0.8 0.2
v -0.1 -0.7 0.2
v -0.1 -0.6 0.2
v -0.1 -0.5 0.2
v -0.1 -0.4 0.2
v -0.1 -0.3 0.2
v -0.1 -0.2 0.2
v -0.1 -0.1 0.2
v -0.1 0.2 0.2
v -0.1 2.3 0.2
v -0.1 2.4 0.2
v 0 -0.7 0.2
v 0 -0.5 0.2
v 0.1 -0.8 0.2
v 0.1 -0.7 0.2
v 0.1 -0.6 0.2
v 0.1 -0.5 0.2
v 0.1 -0.4 0.2
v 0.1 -0.3 0.2
v 0.1 -0.2 0.2
v 0.1 -0.1 0.2
v 0.1 0.2 0.2
v 0.1 2.3 0.2
v 0.1 2.4 0.2
v 0.2 -0.7 0.2
v 0.2 -0.5 0.2
v 0.2 0 0.2
v 0.2 0.2 0.2
v 0.2 0.3 0.2
v 0.2 2.3 0.2
v 0.3 -0.1 0.2
v 0.3 0 0.2
v 0.3 0.1 0.2
v 0.3 0.2 0.2
v 0.3 0.3 0.2
v 0.3 0.4 0.2
v 0.4 0 0.2
v 0.4 0.1 0.2
v 0.4 0.2 0.2
v 0.5 0.1 0.2
v 0.5 0.2 0.2
v 0.5 0.3 0.2
v 0.6 0.4 0.2
v 0.6 0.5 0.2
v 0.7 0.2 0.2
v 0.7 0.5 0.2
v -0.7 0.2 -2.98023e-08
v -0.7 0.5 -2.98023e-08
v -0.6 0.4 -2.98023e-08
v -0.6 0.5 -2.98023e-08
v -0.5 0.1 -2.98023e-08
v -0.5 0.2 -2.98023e-08
v -0.5 0.3 -2.98023e-08
v -0.4 0 -2.98023e-08
v -0.4 0.1 -2.98023e-08
v -0.4 0.2 -2.98023e-08
v -0.3 -0.1 -2.98023e-08
v -0.3 0 -2.98023e-08
v -0.3 0.1 -2.98023e-08
v -0.3 0.2 -2.98023e-08
v -0.3 0.3 -2.98023e-08
v -0.3 0.4 -2.98023e-08
v -0.2 -0.7 -2.98023e-08
v -0.2 -0.5 -2.98023e-08
v -0.2 0 -2.98023e-08
v -0.2 0.2 -2.98023e-08
v -0.2 0.3 -2.98023e-08
v -0.2 2.3 -2.98023e-08
v -0.1 -0.8 -2.98023e-08
v -0.1 -0.7 -2.98023e-08
v -0.1 -0.6 -2.98023e-08
v -0.1 -0.5 -2.98023e-08
v -0.1 -0.4 -2.98023e-08
v -0.1 -0.3 -2.98023e-08
v -0.1 -0.2 -2.98023e-08
v -0.1 -0.1 -2.98023e-08
v -0.1 0.2 -2.98023e-08
v -0.1 2.3 -2.98023e-08
v -0.1 2.4 -2.98023e-08
v 0 -0.7 -2.98023e-08
v 0 -0.5 -2.98023e-08
v 0.1 -0.8 -2.98023e-08
v 0.1 -0.7 -2.98023e-08
v 0.1 -0.6 -2.98023e-08
v 0.1 -0.5 -2.98023e-08
v 0.1 -0.4 -2.98023e-08
v 0.1 -0.3 -2.98023e-08
v 0.1 -0.2 -2.98023e-08
v 0.1 -0.1 -2.98023e-08
v 0.1 0.2 -2.98023e-08
v 0.1 2.3 -2.98023e-08
v 0.1 2.4 -2.98023e-08
v 0.2 -0.7 -2.98023e-08
v 0.2 -0.5 -2.98023e-08
v 0.2 0 -2.98023e-08
v 0.2 0.2 -2.98023e-08
v 0.2 0.3 -2.98023e-08
v 0.2 2.3 -2.98023e-08
v 0.3 -0.1 -2.98023e-08
v 0.3 0 -2.98023e-08
v 0.3 0.1 -2.98023e-08
v 0.3 0.2 -2.98023e-08
v 0.3 0.3 -2.98023e-08
v 0.3 0.4 -2.98023e-08
v 0.4 0 -2.98023e-08
v 0.4 0.1 -2.98023e-08
v 0.4 0.2 -2.98023e-08
v 0.5 0.1 -2.98023e-08
v 0.5 0.2 -2.98023e-08
v 0.5 0.3 -2.98023e-08
v 0.6 0.4 -2.98023e-08
v 0.6 0.5 -2.98023e-08
v 0.7 0.2 -2.98023e-08
v 0.7 0.5 -2.98023e-08
v -0.1 -0.7 -0.1
v -0.1 -0.6 -0.1
v -0.1 -0.5 -0.1
v 0 -0.7 -0.1
v 0 -0.6 -0.1
v 0 -0.5 -0.1
v 0.1 -0.7 -0.1
v 0.1 -0.6 -0.1
v 0.1 -0.5 -0.1
v -0.1 -0.8 0.2
v 0.1 -0.8 0.2
v -0.1 -0.8 -2.98023e-08
v 0.1 -0.8 -2.98023e-08
v -0.1 -0.7 0.3
v 0 -0.7 0.3
v 0.1 -0.7 0.3
v -0.2 -0.7 0.2
v -0.1 -0.7 0.2
v 0 -0.7 0.2
v 0.1 -0.7 0.2
v 0.2 -0.7 0.2
v -0.2 -0.7 -2.98023e-08
v -0.1 -0.7 -2.98023e-08
v 0 -0.7 -2.98023e-08
v 0.1 -0.7 -2.98023e-08
v 0.2 -0.7 -2.98023e-08
v -0.1 -0.7 -0.1
v 0 -0.7 -0.1
v 0.1 -0.7 -0.1
v -0.3 -0.1 0.2
v -0.1 -0.1 0.2
v 0.1 -0.1 0.2
v 0.3 -0.1 0.2
v -0.3 -0.1 -2.98023e-08
v -0.1 -0.1 -2.98023e-08
v 0.1 -0.1 -2.98023e-08
v 0.3 -0.1 -2.98023e-08
v -0.4 0 0.2
v -0.3 0 0.2
v 0.3 0 0.2
v 0.4 0 0.2
v -0.4 0 -2.98023e-08
v -0.3 0 -2.98023e-08
v 0.3 0 -2.98023e-08
v 0.4 0 -2.98023e-08
v -0.5 0.1 0.2
v -0.4 0.1 0.2
v 0.4 0.1 0.2
v 0.5 0.1 0.2
v -0.5 0.1 -2.98023e-08
v -0.4 0.1 -2.98023e-08
v 0.4 0.1 -2.98023e-08
v 0.5 0.1 -2.98023e-08
v -0.7 0.2 0.2
v -0.5 0.2 0.2
v 0.5 0.2 0.2
v 0.7 0.2 0.2
v -0.7 0.2 -2.98023e-08
v -0.5 0.2 -2.98023e-08
v 0.5 0.2 -2.98023e-08
v 0.7 0.2 -2.98023e-08
v -0.1 -0.5 0.3
v 0 -0.5 0.3
v 0.1 -0.5 0.3
v -0.2 -0.5 0.2
v -0.1 -0.5 0.2
v 0 -0.5 0.2
v 0.1 -0.5 0.2
v 0.2 -0.5 0.2
v -0.2 -0.5 -2.98023e-08
v -0.1 -0.5 -2.98023e-08
v 0 -0.5 -2.98023e-08
v 0.1 -0.5 -2.98023e-08
v 0.2 -0.5 -2.98023e-08
v -0.1 -0.5 -0.1
v 0 -0.5 -0.1
v 0.1 -0.5 -0.1
v -0.3 0.3 0.2
v -0.2 0.3 0.2
v 0.2 0.3 0.2
v 0.3 0.3 0.2
v -0.3 0.3 -2.98023e-08
v -0.2 0.3 -2.98023e-08
v 0.2 0.3 -2.98023e-08
v 0.3 0.3 -2.98023e-08
v -0.6 0.4 0.2
v -0.3 0.4 0.2
v 0.3 0.4 0.2
v 0.6 0.4 0.2
v -0.6 0.4 -2.98023e-08
v -0.3 0.4 -2.98023e-08
v 0.3 0.4 -2.98023e-08
v 0.6 0.4 -2.98023e-08
v -0.7 0.5 0.2
v -0.6 0.5 0.2
v 0.6 0.5 0.2
v 0.7 0.5 0.2
v -0.7 0.5 -2.98023e-08
v -0.6 0.5 -2.98023e-08
v 0.6 0.5 -2.98023e-08
v 0.7 0.5 -2.98023e-08
v -0.2 2.3 0.2
v -0.1 2.3 0.2
v 0.1 2.3 0.2
v 0.2 2.3 0.2
v -0.2 2.3 -2.98023e-08
v -0.1 2.3 -2.98023e-08
v 0.1 2.3 -2.98023e-08
v 0.2 2.3 -2.98023e-08
v -0.1 2.4 0.2
v 0.1 2.4 0.2
v -0.1 2.4 -2.98023e-08
v 0.1 2.4 -2.98023e-08

# faces
f 3/4/1 2/4/1 1/4/1
f 4/4/1 2/4/1 3/4/1
f 7/4/1 6/4/1 5/4/1
f 8/4/1 6/4/1 7/4/1
f 11/4/1 10/4/1 9/4/1
f 12/4/1 10/4/1 11/4/1
f 15/4/1 14/4/1 13/4/1
f 16/4/1 14/4/1 15/4/1
f 19/4/1 18/4/1 17/4/1
f 20/4/1 18/4/1 19/4/1
f 23/3/1 22/3/1 21/3/1
f 24/3/1 22/3/1 23/3/1
f 28/4/1 26/4/1 25/4/1
f 29/4/1 26/4/1 28/4/1
f 31/2/1 28/2/1 27/2/1
f 32/2/1 28/2/1 31/2/1
f 33/5/1 30/5/1 29/5/1
f 34/5/1 30/5/1 33/5/1
f 35/5/1 32/5/1 31/5/1
f 36/5/1 32/5/1 35/5/1
f 37/2/1 34/2/1 33/2/1
f 38/2/1 34/2/1 37/2/1
f 39/4/1 37/4/1 36/4/1
f 40/4/1 37/4/1 39/4/1
f 41/2/1 40/2/1 39/2/1
f 42/2/1 40/2/1 41/2/1
f 43/1/1 42/1/1 41/1/1
f 44/1/1 42/1/1 43/1/1
f 45/2/1 44/2/1 43/2/1
f 46/2/1 44/2/1 45/2/1
f 49/6/1 48/6/1 47/6/1
f 50/6/1 48/6/1 49/6/1
f 53/4/1 52/4/1 51/4/1
f 54/4/1 52/4/1 53/4/1
f 57/4/1 56/4/1 55/4/1
f 58/4/1 56/4/1 57/4/1
f 59/4/2 60/4/2 61/4/2
f 61/4/2 60/4/2 62/4/2
f 63/4/2 64/4/2 65/4/2
f 65/4/2 64/4/2 66/4/2
f 67/4/2 68/4/2 70/4/2
f 70/4/2 68/4/2 71/4/2
f 69/5/2 70/5/2 73/5/2
f 73/5/2 70/5/2 74/5/2
f 71/2/2 72/2/2 75/2/2
f 75/2/2 72/2/2 76/2/2
f 73/2/2 74/2/2 77/2/2
f 77/2/2 74/2/2 78/2/2
f 75/5/2 76/5/2 79/5/2
f 79/5/2 76/5/2 80/5/2
f 78/4/2 79/4/2 81/4/2
f 81/4/2 79/4/2 82/4/2
f 81/2/2 82/2/2 83/2/2
f 83/2/2 82/2/2 84/2/2
f 83/1/2 84/1/2 85/1/2
f 85/1/2 84/1/2 86/1/2
f 85/2/2 86/2/2 87/2/2
f 87/2/2 86/2/2 88/2/2
f 89/6/2 90/6/2 91/6/2
f 91/6/2 90/6/2 92/6/2
f 93/4/2 94/4/2 95/4/2
f 95/4/2 94/4/2 96/4/2
f 97/3/2 98/3/2 99/3/2
f 99/3/2 98/3/2 100/3/2
f 101/4/2 102/4/2 103/4/2
f 103/4/2 102/4/2 104/4/2
f 105/4/2 106/4/2 107/4/2
f 107/4/2 106/4/2 108/4/2
f 109/4/2 110/4/2 111/4/2
f 111/4/2 110/4/2 112/4/2
f 113/4/2 114/4/2 115/4/2
f 115/4/2 114/4/2 116/4/2
f 120/2/3 118/2/3 117/2/3
f 121/5/3 119/5/3 118/5/3
f 121/2/3 118/2/3 120/2/3
f 122/5/3 119/5/3 121/5/3
f 123/5/3 121/5/3 120/5/3
f 124/2/3 122/2/3 121/2/3
f 124/5/3 121/5/3 123/5/3
f 125/2/3 122/2/3 124/2/3
f 128/4/3 127/4/3 126/4/3
f 129/4/3 127/4/3 128/4/3
f 131/4/3 128/4/3 126/4/3
f 132/4/3 128/4/3 131/4/3
f 134/4/3 131/4/3 130/4/3
f 135/7/3 132/7/3 131/7/3
f 135/4/3 131/4/3 134/4/3
f 137/4/3 134/4/3 133/4/3
f 138/7/3 135/7/3 134/7/3
f 138/4/3 134/4/3 137/4/3
f 139/7/3 132/7/3 135/7/3
f 139/7/3 135/7/3 138/7/3
f 140/4/3 128/4/3 132/4/3
f 140/7/3 132/7/3 139/7/3
f 141/4/3 128/4/3 140/4/3
f 144/7/3 139/7/3 138/7/3
f 144/7/3 138/7/3 137/7/3
f 144/4/3 137/4/3 136/4/3
f 145/4/3 140/4/3 139/4/3
f 145/7/3 139/7/3 144/7/3
f 146/4/3 140/4/3 145/4/3
f 149/4/3 143/4/3 142/4/3
f 150/4/3 143/4/3 149/4/3
f 151/4/3 143/4/3 150/4/3
f 155/4/3 144/4/3 136/4/3
f 156/3/3 146/3/3 145/3/3
f 156/3/3 147/3/3 146/3/3
f 156/6/3 145/6/3 144/6/3
f 157/3/3 147/3/3 156/3/3
f 159/4/3 149/4/3 148/4/3
f 160/4/3 152/4/3 151/4/3
f 161/4/3 159/4/3 148/4/3
f 162/4/3 159/4/3 161/4/3
f 164/4/3 152/4/3 160/4/3
f 165/2/3 153/2/3 152/2/3
f 165/4/3 152/4/3 164/4/3
f 166/1/3 154/1/3 153/1/3
f 166/2/3 153/2/3 165/2/3
f 167/2/3 155/2/3 154/2/3
f 167/1/3 154/1/3 166/1/3
f 168/4/3 144/4/3 155/4/3
f 168/2/3 155/2/3 167/2/3
f 169/6/3 158/6/3 157/6/3
f 169/6/3 157/6/3 156/6/3
f 169/6/3 156/6/3 144/6/3
f 170/6/3 158/6/3 169/6/3
f 171/6/3 158/6/3 170/6/3
f 172/4/3 163/4/3 162/4/3
f 172/4/3 164/4/3 163/4/3
f 173/4/3 164/4/3 172/4/3
f 174/6/3 169/6/3 144/6/3
f 174/4/3 144/4/3 168/4/3
f 175/3/3 170/3/3 169/3/3
f 175/6/3 169/6/3 174/6/3
f 176/3/3 170/3/3 175/3/3
f 177/3/3 170/3/3 176/3/3
f 178/4/3 174/4/3 168/4/3
f 179/7/3 175/7/3 174/7/3
f 179/4/3 174/4/3 178/4/3
f 180/7/3 175/7/3 179/7/3
f 181/4/3 176/4/3 175/4/3
f 181/7/3 175/7/3 180/7/3
f 182/4/3 176/4/3 181/4/3
f 184/4/3 180/4/3 179/4/3
f 185/7/3 182/7/3 181/7/3
f 185/4/3 180/4/3 184/4/3
f 185/7/3 181/7/3 180/7/3
f 186/7/3 182/7/3 185/7/3
f 187/4/3 186/4/3 185/4/3
f 188/7/3 182/7/3 186/7/3
f 188/4/3 186/4/3 187/4/3
f 189/4/3 183/4/3 182/4/3
f 189/7/3 182/7/3 188/7/3
f 190/4/3 183/4/3 189/4/3
f 190/4/3 189/4/3 188/4/3
f 192/4/3 190/4/3 188/4/3
f 192/4/3 191/4/3 190/4/3
f 193/4/3 191/4/3 192/4/3
f 194/4/4 195/4/4 196/4/4
f 196/4/4 195/4/4 197/4/4
f 194/4/4 196/4/4 199/4/4
f 199/4/4 196/4/4 200/4/4
f 198/4/4 199/4/4 202/4/4
f 199/7/4 200/7/4 203/7/4
f 202/4/4 199/4/4 203/4/4
f 201/4/4 202/4/4 205/4/4
f 202/7/4 203/7/4 206/7/4
f 205/4/4 202/4/4 206/4/4
f 203/7/4 200/7/4 207/7/4
f 206/7/4 203/7/4 207/7/4
f 200/4/4 196/4/4 208/4/4
f 207/7/4 200/7/4 208/7/4
f 208/4/4 196/4/4 209/4/4
f 206/7/4 207/7/4 212/7/4
f 205/7/4 206/7/4 212/7/4
f 204/4/4 205/4/4 212/4/4
f 207/4/4 208/4/4 213/4/4
f 212/7/4 207/7/4 213/7/4
f 213/4/4 208/4/4 214/4/4
f 210/4/4 211/4/4 217/4/4
f 217/4/4 211/4/4 218/4/4
f 218/4/4 211/4/4 219/4/4
f 204/4/4 212/4/4 223/4/4
f 213/3/4 214/3/4 224/3/4
f 214/3/4 215/3/4 224/3/4
f 212/6/4 213/6/4 224/6/4
f 224/3/4 215/3/4 225/3/4
f 216/4/4 217/4/4 227/4/4
f 219/4/4 220/4/4 228/4/4
f 216/4/4 227/4/4 229/4/4
f 229/4/4 227/4/4 230/4/4
f 228/4/4 220/4/4 232/4/4
f 220/2/4 221/2/4 233/2/4
f 232/4/4 220/4/4 233/4/4
f 221/1/4 222/1/4 234/1/4
f 233/2/4 221/2/4 234/2/4
f 222/2/4 223/2/4 235/2/4
f 234/1/4 222/1/4 235/1/4
f 223/4/4 212/4/4 236/4/4
f 235/2/4 223/2/4 236/2/4
f 225/6/4 226/6/4 237/6/4
f 224/6/4 225/6/4 237/6/4
f 212/6/4 224/6/4 237/6/4
f 237/6/4 226/6/4 238/6/4
f 238/6/4 226/6/4 239/6/4
f 230/4/4 231/4/4 240/4/4
f 231/4/4 232/4/4 240/4/4
f 240/4/4 232/4/4 241/4/4
f 212/6/4 237/6/4 242/6/4
f 236/4/4 212/4/4 242/4/4
f 237/3/4 238/3/4 243/3/4
f 242/6/4 237/6/4 243/6/4
f 243/3/4 238/3/4 244/3/4
f 244/3/4 238/3/4 245/3/4
f 236/4/4 242/4/4 246/4/4
f 242/7/4 243/7/4 247/7/4
f 246/4/4 242/4/4 247/4/4
f 247/7/4 243/7/4 248/7/4
f 243/4/4 244/4/4 249/4/4
f 248/7/4 243/7/4 249/7/4
f 249/4/4 244/4/4 250/4/4
f 247/4/4 248/4/4 252/4/4
f 249/7/4 250/7/4 253/7/4
f 252/4/4 248/4/4 253/4/4
f 248/7/4 249/7/4 253/7/4
f 253/7/4 250/7/4 254/7/4
f 253/4/4 254/4/4 255/4/4
f 254/7/4 250/7/4 256/7/4
f 255/4/4 254/4/4 256/4/4
f 250/4/4 251/4/4 257/4/4
f 256/7/4 250/7/4 257/7/4
f 257/4/4 251/4/4 258/4/4
f 256/4/4 257/4/4 258/4/4
f 256/4/4 258/4/4 260/4/4
f 258/4/4 259/4/4 260/4/4
f 260/4/4 259/4/4 261/4/4
f 262/5/4 263/5/4 265/5/4
f 263/2/4 264/2/4 266/2/4
f 265/5/4 263/5/4 266/5/4
f 266/2/4 264/2/4 267/2/4
f 265/2/4 266/2/4 268/2/4
f 266/5/4 267/5/4 269/5/4
f 268/2/4 266/2/4 269/2/4
f 269/5/4 267/5/4 270/5/4
f 273/4/5 272/4/5 271/4/5
f 274/4/5 272/4/5 273/4/5
f 279/2/5 276/2/5 275/2/5
f 280/5/5 277/5/5 276/5/5
f 280/2/5 276/2/5 279/2/5
f 281/5/5 277/5/5 280/5/5
f 283/4/5 279/4/5 278/4/5
f 284/4/5 279/4/5 283/4/5
f 286/4/5 282/4/5 281/4/5
f 287/4/5 282/4/5 286/4/5
f 288/5/5 285/5/5 284/5/5
f 289/2/5 286/2/5 285/2/5
f 289/5/5 285/5/5 288/5/5
f 290/2/5 286/2/5 289/2/5
f 295/4/5 292/4/5 291/4/5
f 296/4/5 292/4/5 295/4/5
f 297/4/5 294/4/5 293/4/5
f 298/4/5 294/4/5 297/4/5
f 303/4/5 300/4/5 299/4/5
f 304/4/5 300/4/5 303/4/5
f 305/4/5 302/4/5 301/4/5
f 306/4/5 302/4/5 305/4/5
f 311/4/5 308/4/5 307/4/5
f 312/4/5 308/4/5 311/4/5
f 313/4/5 310/4/5 309/4/5
f 314/4/5 310/4/5 313/4/5
f 319/4/5 316/4/5 315/4/5
f 320/4/5 316/4/5 319/4/5
f 321/4/5 318/4/5 317/4/5
f 322/4/5 318/4/5 321/4/5
f 323/5/6 324/5/6 327/5/6
f 324/2/6 325/2/6 328/2/6
f 327/5/6 324/5/6 328/5/6
f 328/2/6 325/2/6 329/2/6
f 326/4/6 327/4/6 331/4/6
f 331/4/6 327/4/6 332/4/6
f 329/4/6 330/4/6 334/4/6
f 334/4/6 330/4/6 335/4/6
f 332/2/6 333/2/6 336/2/6
f 333/5/6 334/5/6 337/5/6
f 336/2/6 333/2/6 337/2/6
f 337/5/6 334/5/6 338/5/6
f 339/4/6 340/4/6 343/4/6
f 343/4/6 340/4/6 344/4/6
f 341/4/6 342/4/6 345/4/6
f 345/4/6 342/4/6 346/4/6
f 347/4/6 348/4/6 351/4/6
f 351/4/6 348/4/6 352/4/6
f 349/4/6 350/4/6 353/4/6
f 353/4/6 350/4/6 354/4/6
f 355/4/6 356/4/6 359/4/6
f 359/4/6 356/4/6 360/4/6
f 357/4/6 358/4/6 361/4/6
f 361/4/6 358/4/6 362/4/6
f 363/3/6 364/3/6 367/3/6
f 367/3/6 364/3/6 368/3/6
f 365/3/6 366/3/6 369/3/6
f 369/3/6 366/3/6 370/3/6
f 371/6/6 372/6/6 373/6/6
f 373/6/6 372/6/6 374/6/6
