# MagicaVoxel @ Ephtracy

# group
o 

# material
mtllib bat.mtl
usemtl palette

# normals
vn -1 0 0
vn 1 0 0
vn 0 0 1
vn 0 0 -1
vn 0 -1 0
vn 0 1 0

# texcoords
vt 0.220703 0.5
vt 0.353516 0.5
vt 0.361328 0.5
vt 0.365234 0.5
vt 0.369141 0.5
vt 0.373047 0.5
vt 0.533203 0.5
vt 0.537109 0.5
vt 0.958984 0.5
vt 0.962891 0.5
vt 0.990234 0.5
vt 0.994141 0.5

# verts
v -1.4 1.8 0
v -1.4 1.8 -0.8
v -1.4 2 0
v -1.4 2 -0.8
v -1.2 1.8 0.2
v -1.2 1.8 0
v -1.2 2 0.2
v -1.2 2 0
v -1 1.8 0.4
v -1 1.8 0.2
v -1 2 0.4
v -1 2 0.2
v -0.8 1.6 1.2
v -0.8 1.6 1
v -0.8 1.6 0.8
v -0.8 1.6 0.6
v -0.8 1.8 1.2
v -0.8 1.8 1
v -0.8 1.8 0.9
v -0.8 1.8 0.8
v -0.8 1.8 0.6
v -0.8 1.9 0.9
v -0.8 1.9 0.8
v -0.7 1.8 1.1
v -0.7 1.8 1
v -0.7 1.8 0.9
v -0.7 1.9 1.1
v -0.7 1.9 0.9
v -0.6 1.6 1.6
v -0.6 1.6 1.4
v -0.6 1.6 1.2
v -0.6 1.8 1.6
v -0.6 1.8 1.4
v -0.6 1.8 1.2
v -0.6 1.8 1.1
v -0.6 1.8 -0.4
v -0.6 1.8 -0.5
v -0.6 1.8 -0.6
v -0.6 1.9 1.2
v -0.6 1.9 1.1
v -0.6 1.9 -0.4
v -0.6 2 -0.4
v -0.6 2 -0.5
v -0.6 2 -0.6
v -0.5 1.8 1.3
v -0.5 1.8 1.2
v -0.5 1.9 1.3
v -0.5 1.9 1.2
v -0.4 1.4 0.8
v -0.4 1.4 0.6
v -0.4 1.4 0.4
v -0.4 1.4 0.2
v -0.4 1.5 0.6
v -0.4 1.5 0.4
v -0.4 1.6 0.8
v -0.4 1.6 0.7
v -0.4 1.6 0.6
v -0.4 1.6 0.4
v -0.4 1.8 0.8
v -0.4 1.8 0.7
v -0.4 1.8 0.6
v -0.4 1.8 0.3
v -0.4 1.8 0.2
v -0.4 1.8 -0.6
v -0.4 1.8 -0.8
v -0.4 1.9 0.8
v -0.4 1.9 0.7
v -0.4 1.9 0.3
v -0.4 1.9 0.2
v -0.4 2 0.8
v -0.4 2 0.2
v -0.4 2 -0.6
v -0.4 2 -0.8
v -0.2 1.6 0.2
v -0.2 1.6 0.1
v -0.2 1.6 -0.8
v -0.2 1.7 0.2
v -0.2 1.7 0.1
v -0.2 1.8 0.2
v -0.2 1.8 0.1
v -0.2 1.8 -0.8
v -0.2 1.8 -1.1
v -0.2 1.8 -1.2
v -0.2 1.9 -0.8
v -0.2 2 0.2
v -0.2 2 -0.4
v -0.2 2 -0.5
v -0.2 2 -0.8
v -0.2 2 -1.1
v -0.2 2 -1.2
v -0.2 2.1 0.2
v -0.2 2.1 -0.8
v -0.2 2.2 0.2
v -0.2 2.2 -0.8
v 0 1.6 0.6
v 0 1.6 0.4
v 0 1.8 0.6
v 0 1.8 0.4
v 0.2 1.8 -0.8
v 0.2 1.8 -1.1
v 0.2 1.8 -1.2
v 0.2 2 -0.8
v 0.2 2 -1.1
v 0.2 2 -1.2
v 0.4 1.6 1.6
v 0.4 1.6 0.8
v 0.4 1.8 1.6
v 0.4 1.8 0.8
v 0.6 1.8 1.3
v 0.6 1.8 1
v 0.6 1.8 0.8
v 0.6 1.9 1.3
v 0.6 1.9 1
v 0.6 1.9 0.8
v 1 1.8 0.4
v 1 1.8 0.2
v 1 1.9 0.3
v 1 1.9 0.2
v 1 2 0.4
v 1 2 0.3
v 1 2 0.2
v 1.2 1.8 -0.4
v 1.2 1.8 -0.5
v 1.2 1.8 -0.6
v 1.2 2 -0.4
v 1.2 2 -0.5
v 1.2 2 -0.6
v 1.4 1.8 -0.6
v 1.4 1.8 -0.8
v 1.4 1.9 -0.6
v 1.4 2 -0.6
v 1.4 2 -0.8
v -1.2 1.8 -0.6
v -1.2 1.8 -0.8
v -1.2 1.9 -0.6
v -1.2 2 -0.6
v -1.2 2 -0.8
v -1 1.8 -0.4
v -1 1.8 -0.5
v -1 1.8 -0.6
v -1 2 -0.4
v -1 2 -0.5
v -1 2 -0.6
v -0.8 1.8 0.4
v -0.8 1.8 0.2
v -0.8 1.9 0.3
v -0.8 1.9 0.2
v -0.8 2 0.4
v -0.8 2 0.3
v -0.8 2 0.2
v -0.4 1.8 1.3
v -0.4 1.8 1
v -0.4 1.8 0.8
v -0.4 1.9 1.3
v -0.4 1.9 1
v -0.4 1.9 0.8
v -0.2 1.6 1.6
v -0.2 1.6 0.8
v -0.2 1.6 0.6
v -0.2 1.6 0.4
v -0.2 1.8 1.6
v -0.2 1.8 0.8
v -0.2 1.8 0.6
v -0.2 1.8 0.4
v 0 1.8 -0.8
v 0 1.8 -1.1
v 0 1.8 -1.2
v 0 2 -0.8
v 0 2 -1.1
v 0 2 -1.2
v 0.4 1.6 0.2
v 0.4 1.6 0.1
v 0.4 1.6 -0.8
v 0.4 1.7 0.2
v 0.4 1.7 0.1
v 0.4 1.8 0.2
v 0.4 1.8 -0.8
v 0.4 1.8 -1.1
v 0.4 1.8 -1.2
v 0.4 1.9 -0.8
v 0.4 2 0.2
v 0.4 2 -0.2
v 0.4 2 -0.3
v 0.4 2 -0.8
v 0.4 2 -1.1
v 0.4 2 -1.2
v 0.4 2.1 0.2
v 0.4 2.1 -0.8
v 0.4 2.2 0.2
v 0.4 2.2 -0.8
v 0.6 1.4 0.8
v 0.6 1.4 0.6
v 0.6 1.4 0.4
v 0.6 1.4 0.2
v 0.6 1.5 0.6
v 0.6 1.5 0.4
v 0.6 1.6 0.8
v 0.6 1.6 0.7
v 0.6 1.6 0.6
v 0.6 1.6 0.4
v 0.6 1.8 0.8
v 0.6 1.8 0.7
v 0.6 1.8 0.6
v 0.6 1.8 0.3
v 0.6 1.8 0.2
v 0.6 1.8 -0.6
v 0.6 1.8 -0.8
v 0.6 1.9 0.8
v 0.6 1.9 0.7
v 0.6 1.9 0.3
v 0.6 1.9 0.2
v 0.6 2 0.8
v 0.6 2 0.2
v 0.6 2 -0.6
v 0.6 2 -0.8
v 0.7 1.8 1.3
v 0.7 1.8 1.2
v 0.7 1.9 1.3
v 0.7 1.9 1.2
v 0.8 1.6 1.6
v 0.8 1.6 1.4
v 0.8 1.6 1.2
v 0.8 1.8 1.6
v 0.8 1.8 1.4
v 0.8 1.8 1.2
v 0.8 1.8 1.1
v 0.8 1.8 -0.4
v 0.8 1.8 -0.5
v 0.8 1.8 -0.6
v 0.8 1.9 1.2
v 0.8 1.9 1.1
v 0.8 1.9 -0.4
v 0.8 2 -0.4
v 0.8 2 -0.5
v 0.8 2 -0.6
v 0.9 1.8 1.1
v 0.9 1.8 1
v 0.9 1.8 0.9
v 0.9 1.9 1.1
v 0.9 1.9 0.9
v 1 1.6 1.2
v 1 1.6 1
v 1 1.6 0.8
v 1 1.6 0.6
v 1 1.8 1.2
v 1 1.8 1
v 1 1.8 0.9
v 1 1.8 0.8
v 1 1.8 0.6
v 1 1.9 0.9
v 1 1.9 0.8
v 1.2 1.8 0.4
v 1.2 1.8 0.2
v 1.2 2 0.4
v 1.2 2 0.2
v 1.4 1.8 0.2
v 1.4 1.8 0
v 1.4 2 0.2
v 1.4 2 0
v 1.6 1.8 0
v 1.6 1.8 -0.8
v 1.6 2 0
v 1.6 2 -0.8
v -0.6 1.6 1.6
v -0.6 1.8 1.6
v -0.2 1.6 1.6
v -0.2 1.8 1.6
v 0.4 1.6 1.6
v 0.4 1.8 1.6
v 0.8 1.6 1.6
v 0.8 1.8 1.6
v -0.5 1.8 1.3
v -0.5 1.9 1.3
v -0.4 1.8 1.3
v -0.4 1.9 1.3
v 0.6 1.8 1.3
v 0.6 1.9 1.3
v 0.7 1.8 1.3
v 0.7 1.9 1.3
v -0.8 1.6 1.2
v -0.8 1.8 1.2
v -0.6 1.6 1.2
v -0.6 1.8 1.2
v -0.6 1.9 1.2
v -0.5 1.8 1.2
v -0.5 1.9 1.2
v 0.7 1.8 1.2
v 0.7 1.9 1.2
v 0.8 1.6 1.2
v 0.8 1.8 1.2
v 0.8 1.9 1.2
v 1 1.6 1.2
v 1 1.8 1.2
v -0.7 1.8 1.1
v -0.7 1.9 1.1
v -0.6 1.8 1.1
v -0.6 1.9 1.1
v 0.8 1.8 1.1
v 0.8 1.9 1.1
v 0.9 1.8 1.1
v 0.9 1.9 1.1
v -0.8 1.8 0.9
v -0.8 1.9 0.9
v -0.7 1.8 0.9
v -0.7 1.9 0.9
v 0.9 1.8 0.9
v 0.9 1.9 0.9
v 1 1.8 0.9
v 1 1.9 0.9
v -0.4 1.4 0.8
v -0.4 1.6 0.8
v -0.4 1.8 0.8
v -0.4 1.9 0.8
v -0.4 2 0.8
v -0.3 1.6 0.8
v -0.2 1.6 0.8
v -0.2 1.8 0.8
v -0.2 1.9 0.8
v 0.4 1.6 0.8
v 0.4 1.8 0.8
v 0.4 1.9 0.8
v 0.5 1.6 0.8
v 0.6 1.4 0.8
v 0.6 1.6 0.8
v 0.6 1.8 0.8
v 0.6 1.9 0.8
v 0.6 2 0.8
v -1 1.8 0.4
v -1 2 0.4
v -0.8 1.8 0.4
v -0.8 2 0.4
v -0.2 1.6 0.4
v -0.2 1.8 0.4
v 0 1.6 0.4
v 0 1.8 0.4
v 1 1.8 0.4
v 1 2 0.4
v 1.2 1.8 0.4
v 1.2 2 0.4
v -1.2 1.8 0.2
v -1.2 2 0.2
v -1 1.8 0.2
v -1 2 0.2
v -0.8 1.8 0.2
v -0.8 1.9 0.2
v -0.8 2 0.2
v -0.7 1.8 0.2
v -0.7 1.9 0.2
v -0.5 1.8 0.2
v -0.5 1.9 0.2
v -0.4 1.8 0.2
v -0.4 1.9 0.2
v -0.4 2 0.2
v -0.2 2 0.2
v -0.2 2.1 0.2
v -0.2 2.2 0.2
v -0.1 2 0.2
v 0 2 0.2
v 0.1 2 0.2
v 0.3 2 0.2
v 0.4 2 0.2
v 0.4 2.1 0.2
v 0.4 2.2 0.2
v 0.6 1.8 0.2
v 0.6 1.9 0.2
v 0.6 2 0.2
v 0.7 1.8 0.2
v 0.7 1.9 0.2
v 1 1.8 0.2
v 1 1.9 0.2
v 1 2 0.2
v 1.2 1.8 0.2
v 1.2 2 0.2
v 1.4 1.8 0.2
v 1.4 2 0.2
v -1.4 1.8 0
v -1.4 2 0
v -1.2 1.8 0
v -1.2 2 0
v 1.4 1.8 0
v 1.4 2 0
v 1.6 1.8 0
v 1.6 2 0
v -0.8 1.8 0.8
v -0.8 1.9 0.8
v -0.6 1.8 0.8
v -0.6 1.9 0.8
v -0.5 1.8 0.8
v -0.4 1.8 0.8
v -0.4 1.9 0.8
v 0.6 1.8 0.8
v 0.6 1.9 0.8
v 0.7 1.8 0.8
v 0.8 1.8 0.8
v 0.8 1.9 0.8
v 1 1.8 0.8
v 1 1.9 0.8
v -0.8 1.6 0.6
v -0.8 1.8 0.6
v -0.4 1.6 0.6
v -0.4 1.8 0.6
v -0.2 1.6 0.6
v -0.2 1.8 0.6
v 0 1.6 0.6
v 0 1.8 0.6
v 0.6 1.6 0.6
v 0.6 1.8 0.6
v 1 1.6 0.6
v 1 1.8 0.6
v -0.4 1.4 0.2
v -0.4 1.8 0.2
v -0.2 1.6 0.2
v -0.2 1.7 0.2
v -0.2 1.8 0.2
v 0.4 1.6 0.2
v 0.4 1.7 0.2
v 0.4 1.8 0.2
v 0.5 1.8 0.2
v 0.6 1.4 0.2
v 0.6 1.8 0.2
v -1 1.8 -0.4
v -1 2 -0.4
v -0.7 1.9 -0.4
v -0.7 2 -0.4
v -0.6 1.8 -0.4
v -0.6 1.9 -0.4
v -0.6 2 -0.4
v 0.8 1.8 -0.4
v 0.8 1.9 -0.4
v 0.8 2 -0.4
v 0.9 1.9 -0.4
v 0.9 2 -0.4
v 1.2 1.8 -0.4
v 1.2 2 -0.4
v -1.2 1.8 -0.6
v -1.2 1.9 -0.6
v -1.2 2 -0.6
v -1.1 1.8 -0.6
v -1.1 1.9 -0.6
v -1 1.8 -0.6
v -1 2 -0.6
v -0.6 1.8 -0.6
v -0.6 2 -0.6
v -0.5 1.8 -0.6
v -0.5 2 -0.6
v -0.4 1.8 -0.6
v -0.4 2 -0.6
v 0.6 1.8 -0.6
v 0.6 2 -0.6
v 0.7 1.8 -0.6
v 0.7 2 -0.6
v 0.8 1.8 -0.6
v 0.8 2 -0.6
v 1.2 1.8 -0.6
v 1.2 2 -0.6
v 1.3 1.8 -0.6
v 1.3 1.9 -0.6
v 1.4 1.8 -0.6
v 1.4 1.9 -0.6
v 1.4 2 -0.6
v -1.4 1.8 -0.8
v -1.4 2 -0.8
v -1.2 1.8 -0.8
v -1.2 2 -0.8
v -0.4 1.8 -0.8
v -0.4 2 -0.8
v -0.3 1.8 -0.8
v -0.3 1.9 -0.8
v -0.2 1.6 -0.8
v -0.2 1.8 -0.8
v -0.2 1.9 -0.8
v -0.2 2 -0.8
v -0.2 2.1 -0.8
v -0.2 2.2 -0.8
v -0.1 2 -0.8
v -0.1 2.1 -0.8
v 0 1.8 -0.8
v 0 2 -0.8
v 0.2 1.8 -0.8
v 0.2 2 -0.8
v 0.3 2 -0.8
v 0.3 2.1 -0.8
v 0.4 1.6 -0.8
v 0.4 1.8 -0.8
v 0.4 1.9 -0.8
v 0.4 2 -0.8
v 0.4 2.1 -0.8
v 0.4 2.2 -0.8
v 0.5 1.8 -0.8
v 0.5 1.9 -0.8
v 0.6 1.8 -0.8
v 0.6 2 -0.8
v 1.4 1.8 -0.8
v 1.4 2 -0.8
v 1.6 1.8 -0.8
v 1.6 2 -0.8
v -0.2 1.8 -1.2
v -0.2 2 -1.2
v 0 1.8 -1.2
v 0 2 -1.2
v 0.2 1.8 -1.2
v 0.2 2 -1.2
v 0.4 1.8 -1.2
v 0.4 2 -1.2
v -0.4 1.4 0.8
v 0.6 1.4 0.8
v -0.4 1.4 0.6
v -0.2 1.4 0.6
v 0 1.4 0.6
v 0.2 1.4 0.6
v 0.4 1.4 0.6
v 0.6 1.4 0.6
v -0.4 1.4 0.4
v -0.2 1.4 0.4
v 0 1.4 0.4
v 0.2 1.4 0.4
v 0.4 1.4 0.4
v 0.6 1.4 0.4
v -0.4 1.4 0.2
v 0.6 1.4 0.2
v -0.6 1.6 1.6
v -0.2 1.6 1.6
v 0.4 1.6 1.6
v 0.8 1.6 1.6
v -0.5 1.6 1.5
v -0.4 1.6 1.5
v 0.6 1.6 1.5
v 0.7 1.6 1.5
v -0.6 1.6 1.4
v -0.5 1.6 1.4
v -0.4 1.6 1.4
v 0.6 1.6 1.4
v 0.7 1.6 1.4
v 0.8 1.6 1.4
v -0.4 1.6 1.3
v -0.3 1.6 1.3
v 0.5 1.6 1.3
v 0.6 1.6 1.3
v -0.8 1.6 1.2
v -0.6 1.6 1.2
v -0.4 1.6 1.2
v 0.6 1.6 1.2
v 0.8 1.6 1.2
v 1 1.6 1.2
v -0.8 1.6 1
v -0.6 1.6 1
v 0.8 1.6 1
v 1 1.6 1
v -0.8 1.6 0.8
v -0.7 1.6 0.8
v -0.4 1.6 0.8
v -0.3 1.6 0.8
v -0.2 1.6 0.8
v 0.4 1.6 0.8
v 0.5 1.6 0.8
v 0.6 1.6 0.8
v 0.9 1.6 0.8
v 1 1.6 0.8
v -0.7 1.6 0.7
v -0.4 1.6 0.7
v 0.6 1.6 0.7
v 0.9 1.6 0.7
v -0.8 1.6 0.6
v -0.4 1.6 0.6
v 0.6 1.6 0.6
v 1 1.6 0.6
v -0.2 1.6 0.2
v 0.4 1.6 0.2
v -0.2 1.6 0.1
v 0.4 1.6 0.1
v -0.1 1.6 -0.2
v 0 1.6 -0.2
v 0.2 1.6 -0.2
v 0.3 1.6 -0.2
v -0.1 1.6 -0.3
v 0 1.6 -0.3
v 0.2 1.6 -0.3
v 0.3 1.6 -0.3
v -0.1 1.6 -0.5
v 0 1.6 -0.5
v 0.2 1.6 -0.5
v 0.3 1.6 -0.5
v -0.1 1.6 -0.6
v 0 1.6 -0.6
v 0.2 1.6 -0.6
v 0.3 1.6 -0.6
v -0.2 1.6 -0.8
v 0.4 1.6 -0.8
v -0.2 1.8 0.6
v 0 1.8 0.6
v -1 1.8 0.4
v -0.8 1.8 0.4
v -0.2 1.8 0.4
v 0 1.8 0.4
v 1 1.8 0.4
v 1.2 1.8 0.4
v -1.2 1.8 0.2
v -1 1.8 0.2
v -0.8 1.8 0.2
v -0.7 1.8 0.2
v -0.5 1.8 0.2
v -0.4 1.8 0.2
v -0.2 1.8 0.2
v 0.4 1.8 0.2
v 0.5 1.8 0.2
v 0.6 1.8 0.2
v 0.7 1.8 0.2
v 1 1.8 0.2
v 1.2 1.8 0.2
v 1.4 1.8 0.2
v -1.1 1.8 0.1
v -1 1.8 0.1
v -0.8 1.8 0.1
v -0.7 1.8 0.1
v -0.6 1.8 0.1
v -0.5 1.8 0.1
v -0.4 1.8 0.1
v -0.3 1.8 0.1
v -0.2 1.8 0.1
v 0.6 1.8 0.1
v 0.7 1.8 0.1
v 0.9 1.8 0.1
v 1 1.8 0.1
v 1.2 1.8 0.1
v 1.3 1.8 0.1
v -1.4 1.8 0
v -1.2 1.8 0
v -1.1 1.8 0
v -1 1.8 0
v -0.8 1.8 0
v -0.7 1.8 0
v -0.6 1.8 0
v -0.5 1.8 0
v 0.8 1.8 0
v 0.9 1.8 0
v 1 1.8 0
v 1.2 1.8 0
v 1.3 1.8 0
v 1.4 1.8 0
v 1.6 1.8 0
v -1.2 1.8 -0.1
v -1 1.8 -0.1
v -0.8 1.8 -0.1
v -0.6 1.8 -0.1
v 0.8 1.8 -0.1
v 1 1.8 -0.1
v 1.2 1.8 -0.1
v 1.4 1.8 -0.1
v -1 1.8 -0.2
v -0.6 1.8 -0.2
v 0.8 1.8 -0.2
v 1.2 1.8 -0.2
v -0.5 1.8 -0.3
v -0.3 1.8 -0.3
v -1.2 1.8 -0.4
v -1 1.8 -0.4
v -0.6 1.8 -0.4
v -0.4 1.8 -0.4
v -0.3 1.8 -0.4
v 0.6 1.8 -0.4
v 0.8 1.8 -0.4
v 1.2 1.8 -0.4
v 1.4 1.8 -0.4
v -1.1 1.8 -0.5
v -1 1.8 -0.5
v -0.6 1.8 -0.5
v -0.5 1.8 -0.5
v 0.7 1.8 -0.5
v 0.8 1.8 -0.5
v 1.2 1.8 -0.5
v 1.3 1.8 -0.5
v -1.2 1.8 -0.6
v -1.1 1.8 -0.6
v -1 1.8 -0.6
v -0.6 1.8 -0.6
v -0.5 1.8 -0.6
v -0.4 1.8 -0.6
v 0.6 1.8 -0.6
v 0.7 1.8 -0.6
v 0.8 1.8 -0.6
v 1.2 1.8 -0.6
v 1.3 1.8 -0.6
v 1.4 1.8 -0.6
v -1.4 1.8 -0.8
v -1.2 1.8 -0.8
v -0.4 1.8 -0.8
v -0.3 1.8 -0.8
v -0.2 1.8 -0.8
v 0 1.8 -0.8
v 0.2 1.8 -0.8
v 0.4 1.8 -0.8
v 0.5 1.8 -0.8
v 0.6 1.8 -0.8
v 1.4 1.8 -0.8
v 1.6 1.8 -0.8
v -0.2 1.8 -1.1
v 0 1.8 -1.1
v 0.2 1.8 -1.1
v 0.4 1.8 -1.1
v -0.2 1.8 -1.2
v 0 1.8 -1.2
v 0.2 1.8 -1.2
v 0.4 1.8 -1.2
v -0.2 1.6 0.6
v 0 1.6 0.6
v -0.2 1.6 0.4
v 0 1.6 0.4
v -0.6 1.8 1.6
v -0.2 1.8 1.6
v 0.4 1.8 1.6
v 0.8 1.8 1.6
v -0.6 1.8 1.4
v -0.4 1.8 1.4
v 0.6 1.8 1.4
v 0.8 1.8 1.4
v -0.5 1.8 1.3
v -0.4 1.8 1.3
v 0.6 1.8 1.3
v 0.7 1.8 1.3
v -0.8 1.8 1.2
v -0.6 1.8 1.2
v -0.5 1.8 1.2
v 0.7 1.8 1.2
v 0.8 1.8 1.2
v 1 1.8 1.2
v -0.7 1.8 1.1
v -0.6 1.8 1.1
v 0.8 1.8 1.1
v 0.9 1.8 1.1
v -0.8 1.8 1
v -0.7 1.8 1
v -0.4 1.8 1
v 0.6 1.8 1
v 0.9 1.8 1
v 1 1.8 1
v -0.8 1.8 0.9
v -0.7 1.8 0.9
v 0.9 1.8 0.9
v 1 1.8 0.9
v -0.8 1.8 0.8
v -0.6 1.8 0.8
v -0.5 1.8 0.8
v -0.4 1.8 0.8
v -0.2 1.8 0.8
v 0.4 1.8 0.8
v 0.6 1.8 0.8
v 0.7 1.8 0.8
v 0.8 1.8 0.8
v 1 1.8 0.8
v -0.5 1.8 0.7
v -0.4 1.8 0.7
v 0.6 1.8 0.7
v 0.7 1.8 0.7
v -0.8 1.8 0.6
v -0.4 1.8 0.6
v 0.6 1.8 0.6
v 1 1.8 0.6
v -0.5 1.9 1.3
v -0.4 1.9 1.3
v 0.6 1.9 1.3
v 0.7 1.9 1.3
v -0.6 1.9 1.2
v -0.5 1.9 1.2
v 0.7 1.9 1.2
v 0.8 1.9 1.2
v -0.7 1.9 1.1
v -0.6 1.9 1.1
v 0.8 1.9 1.1
v 0.9 1.9 1.1
v -0.5 1.9 1
v -0.4 1.9 1
v 0.6 1.9 1
v 0.7 1.9 1
v -0.8 1.9 0.9
v -0.7 1.9 0.9
v -0.6 1.9 0.9
v -0.5 1.9 0.9
v 0.7 1.9 0.9
v 0.8 1.9 0.9
v 0.9 1.9 0.9
v 1 1.9 0.9
v -0.8 1.9 0.8
v -0.6 1.9 0.8
v -0.4 1.9 0.8
v 0.6 1.9 0.8
v 0.8 1.9 0.8
v 1 1.9 0.8
v -0.4 2 0.8
v 0.6 2 0.8
v -1 2 0.4
v -0.8 2 0.4
v 1 2 0.4
v 1.2 2 0.4
v -0.9 2 0.3
v -0.8 2 0.3
v -0.1 2 0.3
v 0 2 0.3
v 0.1 2 0.3
v 0.3 2 0.3
v 1 2 0.3
v 1.1 2 0.3
v -1.2 2 0.2
v -1 2 0.2
v -0.9 2 0.2
v -0.8 2 0.2
v -0.4 2 0.2
v -0.2 2 0.2
v -0.1 2 0.2
v 0 2 0.2
v 0.1 2 0.2
v 0.3 2 0.2
v 0.4 2 0.2
v 0.6 2 0.2
v 1 2 0.2
v 1.1 2 0.2
v 1.2 2 0.2
v 1.4 2 0.2
v -1.1 2 0.1
v -1 2 0.1
v -0.8 2 0.1
v -0.6 2 0.1
v 0.8 2 0.1
v 1 2 0.1
v 1.2 2 0.1
v 1.3 2 0.1
v -1.4 2 0
v -1.2 2 0
v -1.1 2 0
v -1 2 0
v -0.9 2 0
v -0.8 2 0
v -0.7 2 0
v -0.6 2 0
v -0.5 2 0
v 0.7 2 0
v 0.8 2 0
v 0.9 2 0
v 1 2 0
v 1.1 2 0
v 1.2 2 0
v 1.3 2 0
v 1.4 2 0
v 1.6 2 0
v -1.3 2 -0.1
v -1.2 2 -0.1
v 1.4 2 -0.1
v 1.5 2 -0.1
v -1 2 -0.2
v -0.8 2 -0.2
v -0.7 2 -0.2
v -0.6 2 -0.2
v 0.4 2 -0.2
v 0.5 2 -0.2
v 0.8 2 -0.2
v 0.9 2 -0.2
v 1 2 -0.2
v 1.2 2 -0.2
v -0.5 2 -0.3
v -0.4 2 -0.3
v 0.4 2 -0.3
v 0.5 2 -0.3
v 0.6 2 -0.3
v 0.7 2 -0.3
v -1.2 2 -0.4
v -1.1 2 -0.4
v -1 2 -0.4
v -0.7 2 -0.4
v -0.6 2 -0.4
v -0.4 2 -0.4
v -0.3 2 -0.4
v -0.2 2 -0.4
v 0.6 2 -0.4
v 0.8 2 -0.4
v 0.9 2 -0.4
v 1.2 2 -0.4
v 1.3 2 -0.4
v 1.4 2 -0.4
v -1.1 2 -0.5
v -1 2 -0.5
v -0.6 2 -0.5
v -0.5 2 -0.5
v -0.3 2 -0.5
v -0.2 2 -0.5
v 0.7 2 -0.5
v 0.8 2 -0.5
v 1.2 2 -0.5
v 1.3 2 -0.5
v -1.3 2 -0.6
v -1.2 2 -0.6
v -1 2 -0.6
v -0.6 2 -0.6
v -0.5 2 -0.6
v -0.4 2 -0.6
v 0.6 2 -0.6
v 0.7 2 -0.6
v 0.8 2 -0.6
v 1.2 2 -0.6
v 1.4 2 -0.6
v 1.5 2 -0.6
v -1.4 2 -0.8
v -1.2 2 -0.8
v -0.4 2 -0.8
v -0.2 2 -0.8
v -0.1 2 -0.8
v 0 2 -0.8
v 0.2 2 -0.8
v 0.3 2 -0.8
v 0.4 2 -0.8
v 0.6 2 -0.8
v 1.4 2 -0.8
v 1.6 2 -0.8
v -0.2 2 -1.1
v 0 2 -1.1
v 0.2 2 -1.1
v 0.4 2 -1.1
v -0.2 2 -1.2
v 0 2 -1.2
v 0.2 2 -1.2
v 0.4 2 -1.2
v -0.2 2.2 0.2
v 0.4 2.2 0.2
v -0.2 2.2 -0.8
v 0.4 2.2 -0.8

# faces
f 3/5/1 2/5/1 1/5/1
f 4/5/1 2/5/1 3/5/1
f 7/5/1 6/5/1 5/5/1
f 8/5/1 6/5/1 7/5/1
f 11/5/1 10/5/1 9/5/1
f 12/5/1 10/5/1 11/5/1
f 17/4/1 14/4/1 13/4/1
f 18/3/1 15/3/1 14/3/1
f 18/4/1 14/4/1 17/4/1
f 19/3/1 15/3/1 18/3/1
f 20/5/1 16/5/1 15/5/1
f 20/3/1 15/3/1 19/3/1
f 21/5/1 16/5/1 20/5/1
f 22/8/1 20/8/1 19/8/1
f 23/8/1 20/8/1 22/8/1
f 27/8/1 25/8/1 24/8/1
f 27/8/1 26/8/1 25/8/1
f 28/8/1 26/8/1 27/8/1
f 32/5/1 30/5/1 29/5/1
f 33/4/1 31/4/1 30/4/1
f 33/5/1 30/5/1 32/5/1
f 34/4/1 31/4/1 33/4/1
f 39/8/1 35/8/1 34/8/1
f 40/8/1 35/8/1 39/8/1
f 41/8/1 37/8/1 36/8/1
f 42/8/1 37/8/1 41/8/1
f 43/7/1 38/7/1 37/7/1
f 43/8/1 37/8/1 42/8/1
f 44/7/1 38/7/1 43/7/1
f 47/8/1 46/8/1 45/8/1
f 48/8/1 46/8/1 47/8/1
f 53/5/1 50/5/1 49/5/1
f 53/12/1 51/12/1 50/12/1
f 54/5/1 52/5/1 51/5/1
f 54/12/1 51/12/1 53/12/1
f 55/5/1 53/5/1 49/5/1
f 56/5/1 53/5/1 55/5/1
f 57/9/1 54/9/1 53/9/1
f 57/5/1 53/5/1 56/5/1
f 58/5/1 52/5/1 54/5/1
f 58/9/1 54/9/1 57/9/1
f 61/5/1 58/5/1 57/5/1
f 62/5/1 52/5/1 58/5/1
f 62/5/1 58/5/1 61/5/1
f 63/5/1 52/5/1 62/5/1
f 66/6/1 60/6/1 59/6/1
f 67/5/1 61/5/1 60/5/1
f 67/6/1 60/6/1 66/6/1
f 67/5/1 62/5/1 61/5/1
f 68/6/1 63/6/1 62/6/1
f 68/5/1 62/5/1 67/5/1
f 69/6/1 63/6/1 68/6/1
f 70/5/1 67/5/1 66/5/1
f 70/5/1 68/5/1 67/5/1
f 70/5/1 69/5/1 68/5/1
f 71/5/1 69/5/1 70/5/1
f 72/5/1 65/5/1 64/5/1
f 73/5/1 65/5/1 72/5/1
f 77/6/1 75/6/1 74/6/1
f 78/5/1 76/5/1 75/5/1
f 78/6/1 75/6/1 77/6/1
f 79/5/1 78/5/1 77/5/1
f 80/5/1 76/5/1 78/5/1
f 80/5/1 78/5/1 79/5/1
f 81/5/1 76/5/1 80/5/1
f 84/11/1 82/11/1 81/11/1
f 88/11/1 82/11/1 84/11/1
f 89/12/1 83/12/1 82/12/1
f 89/11/1 82/11/1 88/11/1
f 90/12/1 83/12/1 89/12/1
f 91/6/1 88/6/1 87/6/1
f 91/6/1 87/6/1 86/6/1
f 91/6/1 86/6/1 85/6/1
f 92/6/1 88/6/1 91/6/1
f 93/5/1 92/5/1 91/5/1
f 94/5/1 92/5/1 93/5/1
f 97/5/1 96/5/1 95/5/1
f 98/5/1 96/5/1 97/5/1
f 102/11/1 100/11/1 99/11/1
f 103/12/1 101/12/1 100/12/1
f 103/11/1 100/11/1 102/11/1
f 104/12/1 101/12/1 103/12/1
f 107/5/1 106/5/1 105/5/1
f 108/5/1 106/5/1 107/5/1
f 112/8/1 110/8/1 109/8/1
f 113/7/1 111/7/1 110/7/1
f 113/8/1 110/8/1 112/8/1
f 114/7/1 111/7/1 113/7/1
f 117/5/1 116/5/1 115/5/1
f 118/5/1 116/5/1 117/5/1
f 119/5/1 117/5/1 115/5/1
f 120/6/1 118/6/1 117/6/1
f 120/5/1 117/5/1 119/5/1
f 121/6/1 118/6/1 120/6/1
f 125/8/1 123/8/1 122/8/1
f 126/7/1 124/7/1 123/7/1
f 126/8/1 123/8/1 125/8/1
f 127/7/1 124/7/1 126/7/1
f 130/5/1 129/5/1 128/5/1
f 131/5/1 129/5/1 130/5/1
f 132/5/1 129/5/1 131/5/1
f 133/5/2 134/5/2 135/5/2
f 135/5/2 134/5/2 136/5/2
f 136/5/2 134/5/2 137/5/2
f 138/8/2 139/8/2 141/8/2
f 139/7/2 140/7/2 142/7/2
f 141/8/2 139/8/2 142/8/2
f 142/7/2 140/7/2 143/7/2
f 144/5/2 145/5/2 146/5/2
f 146/5/2 145/5/2 147/5/2
f 144/5/2 146/5/2 148/5/2
f 146/6/2 147/6/2 149/6/2
f 148/5/2 146/5/2 149/5/2
f 149/6/2 147/6/2 150/6/2
f 151/8/2 152/8/2 154/8/2
f 152/7/2 153/7/2 155/7/2
f 154/8/2 152/8/2 155/8/2
f 155/7/2 153/7/2 156/7/2
f 157/5/2 158/5/2 161/5/2
f 161/5/2 158/5/2 162/5/2
f 159/5/2 160/5/2 163/5/2
f 163/5/2 160/5/2 164/5/2
f 165/11/2 166/11/2 168/11/2
f 166/12/2 167/12/2 169/12/2
f 168/11/2 166/11/2 169/11/2
f 169/12/2 167/12/2 170/12/2
f 171/6/2 172/6/2 174/6/2
f 172/5/2 173/5/2 175/5/2
f 174/6/2 172/6/2 175/6/2
f 174/5/2 175/5/2 176/5/2
f 175/5/2 173/5/2 177/5/2
f 176/5/2 175/5/2 177/5/2
f 177/11/2 178/11/2 180/11/2
f 180/11/2 178/11/2 184/11/2
f 178/12/2 179/12/2 185/12/2
f 184/11/2 178/11/2 185/11/2
f 185/12/2 179/12/2 186/12/2
f 183/6/2 184/6/2 187/6/2
f 182/6/2 183/6/2 187/6/2
f 181/6/2 182/6/2 187/6/2
f 187/6/2 184/6/2 188/6/2
f 187/5/2 188/5/2 189/5/2
f 189/5/2 188/5/2 190/5/2
f 191/5/2 192/5/2 195/5/2
f 192/12/2 193/12/2 195/12/2
f 193/5/2 194/5/2 196/5/2
f 195/12/2 193/12/2 196/12/2
f 191/5/2 195/5/2 197/5/2
f 197/5/2 195/5/2 198/5/2
f 195/9/2 196/9/2 199/9/2
f 198/5/2 195/5/2 199/5/2
f 196/5/2 194/5/2 200/5/2
f 199/9/2 196/9/2 200/9/2
f 199/5/2 200/5/2 203/5/2
f 200/5/2 194/5/2 204/5/2
f 203/5/2 200/5/2 204/5/2
f 204/5/2 194/5/2 205/5/2
f 201/6/2 202/6/2 208/6/2
f 202/5/2 203/5/2 209/5/2
f 208/6/2 202/6/2 209/6/2
f 203/5/2 204/5/2 209/5/2
f 204/6/2 205/6/2 210/6/2
f 209/5/2 204/5/2 210/5/2
f 210/6/2 205/6/2 211/6/2
f 208/5/2 209/5/2 212/5/2
f 209/5/2 210/5/2 212/5/2
f 210/5/2 211/5/2 212/5/2
f 212/5/2 211/5/2 213/5/2
f 206/5/2 207/5/2 214/5/2
f 214/5/2 207/5/2 215/5/2
f 216/8/2 217/8/2 218/8/2
f 218/8/2 217/8/2 219/8/2
f 220/5/2 221/5/2 223/5/2
f 221/4/2 222/4/2 224/4/2
f 223/5/2 221/5/2 224/5/2
f 224/4/2 222/4/2 225/4/2
f 225/8/2 226/8/2 230/8/2
f 230/8/2 226/8/2 231/8/2
f 227/8/2 228/8/2 232/8/2
f 232/8/2 228/8/2 233/8/2
f 228/7/2 229/7/2 234/7/2
f 233/8/2 228/8/2 234/8/2
f 234/7/2 229/7/2 235/7/2
f 236/8/2 237/8/2 239/8/2
f 237/8/2 238/8/2 239/8/2
f 239/8/2 238/8/2 240/8/2
f 241/4/2 242/4/2 245/4/2
f 242/3/2 243/3/2 246/3/2
f 245/4/2 242/4/2 246/4/2
f 246/3/2 243/3/2 247/3/2
f 243/5/2 244/5/2 248/5/2
f 247/3/2 243/3/2 248/3/2
f 248/5/2 244/5/2 249/5/2
f 247/8/2 248/8/2 250/8/2
f 250/8/2 248/8/2 251/8/2
f 252/5/2 253/5/2 254/5/2
f 254/5/2 253/5/2 255/5/2
f 256/5/2 257/5/2 258/5/2
f 258/5/2 257/5/2 259/5/2
f 260/5/2 261/5/2 262/5/2
f 262/5/2 261/5/2 263/5/2
f 266/5/3 265/5/3 264/5/3
f 267/5/3 265/5/3 266/5/3
f 270/5/3 269/5/3 268/5/3
f 271/5/3 269/5/3 270/5/3
f 274/8/3 273/8/3 272/8/3
f 275/8/3 273/8/3 274/8/3
f 278/8/3 277/8/3 276/8/3
f 279/8/3 277/8/3 278/8/3
f 282/4/3 281/4/3 280/4/3
f 283/4/3 281/4/3 282/4/3
f 285/8/3 284/8/3 283/8/3
f 286/8/3 284/8/3 285/8/3
f 290/8/3 288/8/3 287/8/3
f 291/8/3 288/8/3 290/8/3
f 292/4/3 290/4/3 289/4/3
f 293/4/3 290/4/3 292/4/3
f 296/8/3 295/8/3 294/8/3
f 297/8/3 295/8/3 296/8/3
f 300/8/3 299/8/3 298/8/3
f 301/8/3 299/8/3 300/8/3
f 304/8/3 303/8/3 302/8/3
f 305/8/3 303/8/3 304/8/3
f 308/8/3 307/8/3 306/8/3
f 309/8/3 307/8/3 308/8/3
f 315/5/3 311/5/3 310/5/3
f 316/5/3 315/5/3 310/5/3
f 317/6/3 313/6/3 312/6/3
f 318/5/3 314/5/3 313/5/3
f 318/6/3 313/6/3 317/6/3
f 319/5/3 317/5/3 316/5/3
f 319/5/3 316/5/3 310/5/3
f 319/5/3 318/5/3 317/5/3
f 320/5/3 318/5/3 319/5/3
f 321/5/3 314/5/3 318/5/3
f 321/5/3 318/5/3 320/5/3
f 322/5/3 319/5/3 310/5/3
f 323/5/3 322/5/3 310/5/3
f 324/5/3 322/5/3 323/5/3
f 325/6/3 321/6/3 320/6/3
f 326/5/3 314/5/3 321/5/3
f 326/6/3 321/6/3 325/6/3
f 327/5/3 314/5/3 326/5/3
f 330/5/3 329/5/3 328/5/3
f 331/5/3 329/5/3 330/5/3
f 334/5/3 333/5/3 332/5/3
f 335/5/3 333/5/3 334/5/3
f 338/5/3 337/5/3 336/5/3
f 339/5/3 337/5/3 338/5/3
f 342/5/3 341/5/3 340/5/3
f 343/5/3 341/5/3 342/5/3
f 347/6/3 345/6/3 344/6/3
f 348/5/3 346/5/3 345/5/3
f 348/6/3 345/6/3 347/6/3
f 349/5/3 348/5/3 347/5/3
f 350/5/3 346/5/3 348/5/3
f 350/5/3 348/5/3 349/5/3
f 351/6/3 350/6/3 349/6/3
f 352/5/3 346/5/3 350/5/3
f 352/6/3 350/6/3 351/6/3
f 353/5/3 346/5/3 352/5/3
f 357/6/3 355/6/3 354/6/3
f 358/6/3 355/6/3 357/6/3
f 359/6/3 355/6/3 358/6/3
f 360/6/3 355/6/3 359/6/3
f 361/6/3 355/6/3 360/6/3
f 362/5/3 356/5/3 355/5/3
f 362/6/3 355/6/3 361/6/3
f 363/5/3 356/5/3 362/5/3
f 367/6/3 365/6/3 364/6/3
f 368/5/3 366/5/3 365/5/3
f 368/6/3 365/6/3 367/6/3
f 369/5/3 368/5/3 367/5/3
f 370/5/3 366/5/3 368/5/3
f 370/5/3 368/5/3 369/5/3
f 371/5/3 366/5/3 370/5/3
f 374/5/3 373/5/3 372/5/3
f 375/5/3 373/5/3 374/5/3
f 378/5/3 377/5/3 376/5/3
f 379/5/3 377/5/3 378/5/3
f 382/5/3 381/5/3 380/5/3
f 383/5/3 381/5/3 382/5/3
f 384/8/4 385/8/4 386/8/4
f 386/8/4 385/8/4 387/8/4
f 386/7/4 387/7/4 388/7/4
f 388/7/4 387/7/4 389/7/4
f 389/7/4 387/7/4 390/7/4
f 391/7/4 392/7/4 393/7/4
f 393/7/4 392/7/4 394/7/4
f 394/7/4 392/7/4 395/7/4
f 394/8/4 395/8/4 396/8/4
f 396/8/4 395/8/4 397/8/4
f 398/5/4 399/5/4 400/5/4
f 400/5/4 399/5/4 401/5/4
f 402/5/4 403/5/4 404/5/4
f 404/5/4 403/5/4 405/5/4
f 406/5/4 407/5/4 408/5/4
f 408/5/4 407/5/4 409/5/4
f 410/5/4 411/5/4 412/5/4
f 412/5/4 411/5/4 413/5/4
f 413/5/4 411/5/4 414/5/4
f 410/5/4 412/5/4 415/5/4
f 415/5/4 416/5/4 418/5/4
f 416/5/4 417/5/4 418/5/4
f 410/5/4 415/5/4 419/5/4
f 415/5/4 418/5/4 419/5/4
f 419/5/4 418/5/4 420/5/4
f 421/8/4 422/8/4 423/8/4
f 423/8/4 422/8/4 424/8/4
f 421/8/4 423/8/4 425/8/4
f 423/7/4 424/7/4 426/7/4
f 425/8/4 423/8/4 426/8/4
f 426/7/4 424/7/4 427/7/4
f 428/8/4 429/8/4 431/8/4
f 429/7/4 430/7/4 431/7/4
f 431/7/4 430/7/4 432/7/4
f 428/8/4 431/8/4 433/8/4
f 431/8/4 432/8/4 433/8/4
f 433/8/4 432/8/4 434/8/4
f 435/8/4 436/8/4 438/8/4
f 436/7/4 437/7/4 439/7/4
f 438/8/4 436/8/4 439/8/4
f 438/7/4 439/7/4 440/7/4
f 439/7/4 437/7/4 441/7/4
f 440/7/4 439/7/4 441/7/4
f 442/7/4 443/7/4 444/7/4
f 444/7/4 443/7/4 445/7/4
f 444/8/4 445/8/4 446/8/4
f 446/8/4 445/8/4 447/8/4
f 448/8/4 449/8/4 450/8/4
f 450/8/4 449/8/4 451/8/4
f 450/7/4 451/7/4 452/7/4
f 452/7/4 451/7/4 453/7/4
f 454/7/4 455/7/4 456/7/4
f 456/7/4 455/7/4 457/7/4
f 456/8/4 457/8/4 458/8/4
f 457/7/4 455/7/4 459/7/4
f 458/8/4 457/8/4 459/8/4
f 459/7/4 455/7/4 460/7/4
f 461/5/4 462/5/4 463/5/4
f 463/5/4 462/5/4 464/5/4
f 465/5/4 466/5/4 467/5/4
f 467/5/4 466/5/4 468/5/4
f 467/6/4 468/6/4 470/6/4
f 468/5/4 466/5/4 471/5/4
f 470/6/4 468/6/4 471/6/4
f 471/5/4 466/5/4 472/5/4
f 472/6/4 473/6/4 475/6/4
f 473/5/4 474/5/4 476/5/4
f 475/6/4 473/6/4 476/6/4
f 469/5/4 470/5/4 477/5/4
f 475/5/4 476/5/4 478/5/4
f 469/5/4 477/5/4 479/5/4
f 477/5/4 478/5/4 479/5/4
f 478/5/4 476/5/4 480/5/4
f 479/5/4 478/5/4 480/5/4
f 480/5/4 476/5/4 481/5/4
f 476/5/4 474/5/4 482/5/4
f 481/5/4 476/5/4 482/5/4
f 469/5/4 479/5/4 483/5/4
f 483/5/4 479/5/4 484/5/4
f 481/6/4 482/6/4 486/6/4
f 482/5/4 474/5/4 487/5/4
f 486/6/4 482/6/4 487/6/4
f 487/5/4 474/5/4 488/5/4
f 484/6/4 485/6/4 489/6/4
f 485/5/4 486/5/4 490/5/4
f 489/6/4 485/6/4 490/6/4
f 489/5/4 490/5/4 491/5/4
f 490/5/4 486/5/4 492/5/4
f 491/5/4 490/5/4 492/5/4
f 493/5/4 494/5/4 495/5/4
f 495/5/4 494/5/4 496/5/4
f 497/12/4 498/12/4 499/12/4
f 499/12/4 498/12/4 500/12/4
f 501/12/4 502/12/4 503/12/4
f 503/12/4 502/12/4 504/12/4
f 507/5/5 506/5/5 505/5/5
f 508/5/5 506/5/5 507/5/5
f 509/5/5 506/5/5 508/5/5
f 510/5/5 506/5/5 509/5/5
f 511/5/5 506/5/5 510/5/5
f 512/5/5 506/5/5 511/5/5
f 513/12/5 508/12/5 507/12/5
f 514/3/5 509/3/5 508/3/5
f 514/12/5 508/12/5 513/12/5
f 515/1/5 510/1/5 509/1/5
f 515/3/5 509/3/5 514/3/5
f 516/3/5 511/3/5 510/3/5
f 516/1/5 510/1/5 515/1/5
f 517/12/5 512/12/5 511/12/5
f 517/3/5 511/3/5 516/3/5
f 518/12/5 512/12/5 517/12/5
f 519/5/5 514/5/5 513/5/5
f 519/5/5 515/5/5 514/5/5
f 519/5/5 518/5/5 517/5/5
f 519/5/5 517/5/5 516/5/5
f 519/5/5 516/5/5 515/5/5
f 520/5/5 518/5/5 519/5/5
f 525/5/5 522/5/5 521/5/5
f 526/5/5 522/5/5 525/5/5
f 527/5/5 524/5/5 523/5/5
f 528/5/5 524/5/5 527/5/5
f 529/5/5 525/5/5 521/5/5
f 530/6/5 526/6/5 525/6/5
f 530/5/5 525/5/5 529/5/5
f 531/5/5 522/5/5 526/5/5
f 531/6/5 526/6/5 530/6/5
f 532/5/5 527/5/5 523/5/5
f 532/6/5 528/6/5 527/6/5
f 533/5/5 524/5/5 528/5/5
f 533/6/5 528/6/5 532/6/5
f 534/5/5 524/5/5 533/5/5
f 535/4/5 530/4/5 529/4/5
f 535/5/5 522/5/5 531/5/5
f 535/4/5 531/4/5 530/4/5
f 536/5/5 522/5/5 535/5/5
f 537/5/5 532/5/5 523/5/5
f 538/4/5 534/4/5 533/4/5
f 538/5/5 532/5/5 537/5/5
f 538/4/5 533/4/5 532/4/5
f 540/4/5 535/4/5 529/4/5
f 541/6/5 536/6/5 535/6/5
f 541/4/5 535/4/5 540/4/5
f 542/4/5 534/4/5 538/4/5
f 542/6/5 538/6/5 537/6/5
f 543/4/5 534/4/5 542/4/5
f 545/4/5 540/4/5 539/4/5
f 546/3/5 541/3/5 540/3/5
f 546/4/5 540/4/5 545/4/5
f 547/3/5 543/3/5 542/3/5
f 547/4/5 544/4/5 543/4/5
f 548/4/5 544/4/5 547/4/5
f 549/3/5 546/3/5 545/3/5
f 550/3/5 546/3/5 549/3/5
f 551/3/5 541/3/5 546/3/5
f 551/3/5 546/3/5 550/3/5
f 551/6/5 536/6/5 541/6/5
f 552/5/5 522/5/5 536/5/5
f 552/6/5 536/6/5 551/6/5
f 553/5/5 522/5/5 552/5/5
f 554/5/5 537/5/5 523/5/5
f 555/6/5 542/6/5 537/6/5
f 555/5/5 537/5/5 554/5/5
f 556/3/5 547/3/5 542/3/5
f 556/6/5 542/6/5 555/6/5
f 556/3/5 548/3/5 547/3/5
f 557/3/5 548/3/5 556/3/5
f 558/3/5 548/3/5 557/3/5
f 559/5/5 550/5/5 549/5/5
f 559/6/5 551/6/5 550/6/5
f 560/6/5 551/6/5 559/6/5
f 561/6/5 557/6/5 556/6/5
f 562/5/5 558/5/5 557/5/5
f 562/6/5 557/6/5 561/6/5
f 563/5/5 560/5/5 559/5/5
f 563/5/5 559/5/5 549/5/5
f 564/5/5 560/5/5 563/5/5
f 565/5/5 562/5/5 561/5/5
f 566/5/5 558/5/5 562/5/5
f 566/5/5 562/5/5 565/5/5
f 569/6/5 568/6/5 567/6/5
f 570/6/5 568/6/5 569/6/5
f 571/5/5 570/5/5 569/5/5
f 572/5/5 570/5/5 571/5/5
f 573/5/5 570/5/5 572/5/5
f 574/5/5 570/5/5 573/5/5
f 575/5/5 571/5/5 569/5/5
f 575/6/5 572/6/5 571/6/5
f 576/8/5 573/8/5 572/8/5
f 576/6/5 572/6/5 575/6/5
f 577/6/5 574/6/5 573/6/5
f 577/8/5 573/8/5 576/8/5
f 578/5/5 570/5/5 574/5/5
f 578/6/5 574/6/5 577/6/5
f 579/8/5 576/8/5 575/8/5
f 579/5/5 575/5/5 569/5/5
f 580/7/5 577/7/5 576/7/5
f 580/8/5 576/8/5 579/8/5
f 581/8/5 578/8/5 577/8/5
f 581/7/5 577/7/5 580/7/5
f 582/5/5 570/5/5 578/5/5
f 582/8/5 578/8/5 581/8/5
f 583/5/5 579/5/5 569/5/5
f 583/6/5 580/6/5 579/6/5
f 584/8/5 581/8/5 580/8/5
f 584/6/5 580/6/5 583/6/5
f 585/6/5 582/6/5 581/6/5
f 585/8/5 581/8/5 584/8/5
f 586/5/5 570/5/5 582/5/5
f 586/6/5 582/6/5 585/6/5
f 587/5/5 585/5/5 584/5/5
f 587/5/5 583/5/5 569/5/5
f 587/5/5 586/5/5 585/5/5
f 587/5/5 584/5/5 583/5/5
f 588/5/5 570/5/5 586/5/5
f 588/5/5 586/5/5 587/5/5
f 593/5/5 590/5/5 589/5/5
f 594/5/5 590/5/5 593/5/5
f 598/5/5 592/5/5 591/5/5
f 599/5/5 592/5/5 598/5/5
f 608/5/5 596/5/5 595/5/5
f 609/5/5 596/5/5 608/5/5
f 611/5/5 598/5/5 597/5/5
f 612/2/5 599/2/5 598/2/5
f 612/5/5 598/5/5 611/5/5
f 613/6/5 600/6/5 599/6/5
f 613/2/5 599/2/5 612/2/5
f 614/5/5 601/5/5 600/5/5
f 614/6/5 600/6/5 613/6/5
f 615/5/5 601/5/5 614/5/5
f 616/6/5 602/6/5 601/6/5
f 616/5/5 601/5/5 615/5/5
f 617/5/5 603/5/5 602/5/5
f 617/6/5 602/6/5 616/6/5
f 618/5/5 603/5/5 617/5/5
f 619/5/5 603/5/5 618/5/5
f 620/6/5 607/6/5 606/6/5
f 620/5/5 606/5/5 605/5/5
f 621/5/5 608/5/5 607/5/5
f 621/6/5 607/6/5 620/6/5
f 622/5/5 608/5/5 621/5/5
f 623/2/5 609/2/5 608/2/5
f 623/5/5 608/5/5 622/5/5
f 624/5/5 610/5/5 609/5/5
f 624/2/5 609/2/5 623/2/5
f 625/5/5 610/5/5 624/5/5
f 627/5/5 611/5/5 597/5/5
f 628/2/5 612/2/5 611/2/5
f 628/2/5 613/2/5 612/2/5
f 628/5/5 611/5/5 627/5/5
f 628/2/5 614/2/5 613/2/5
f 629/2/5 614/2/5 628/2/5
f 630/2/5 614/2/5 629/2/5
f 631/6/5 615/6/5 614/6/5
f 631/2/5 614/2/5 630/2/5
f 632/5/5 616/5/5 615/5/5
f 632/6/5 615/6/5 631/6/5
f 632/5/5 618/5/5 617/5/5
f 632/5/5 617/5/5 616/5/5
f 633/5/5 618/5/5 632/5/5
f 634/5/5 622/5/5 621/5/5
f 634/5/5 621/5/5 620/5/5
f 635/2/5 623/2/5 622/2/5
f 635/5/5 622/5/5 634/5/5
f 635/2/5 625/2/5 624/2/5
f 635/2/5 624/2/5 623/2/5
f 636/2/5 625/2/5 635/2/5
f 637/2/5 625/2/5 636/2/5
f 638/5/5 610/5/5 625/5/5
f 638/2/5 625/2/5 637/2/5
f 639/5/5 610/5/5 638/5/5
f 641/5/5 627/5/5 626/5/5
f 641/2/5 629/2/5 628/2/5
f 641/2/5 628/2/5 627/2/5
f 642/4/5 630/4/5 629/4/5
f 642/2/5 629/2/5 641/2/5
f 643/2/5 631/2/5 630/2/5
f 643/4/5 630/4/5 642/4/5
f 643/2/5 632/2/5 631/2/5
f 644/6/5 633/6/5 632/6/5
f 644/2/5 632/2/5 643/2/5
f 645/5/5 634/5/5 620/5/5
f 645/2/5 636/2/5 635/2/5
f 645/2/5 635/2/5 634/2/5
f 646/4/5 637/4/5 636/4/5
f 646/2/5 636/2/5 645/2/5
f 647/2/5 639/2/5 638/2/5
f 647/4/5 637/4/5 646/4/5
f 647/2/5 638/2/5 637/2/5
f 648/5/5 640/5/5 639/5/5
f 648/2/5 639/2/5 647/2/5
f 649/4/5 642/4/5 641/4/5
f 649/4/5 644/4/5 643/4/5
f 649/4/5 643/4/5 642/4/5
f 650/6/5 633/6/5 644/6/5
f 650/4/5 644/4/5 649/4/5
f 651/5/5 645/5/5 620/5/5
f 651/4/5 647/4/5 646/4/5
f 651/4/5 646/4/5 645/4/5
f 651/4/5 648/4/5 647/4/5
f 652/4/5 648/4/5 651/4/5
f 653/6/5 633/6/5 650/6/5
f 653/5/5 618/5/5 633/5/5
f 654/6/5 619/6/5 618/6/5
f 654/5/5 618/5/5 653/5/5
f 655/4/5 649/4/5 641/4/5
f 655/5/5 641/5/5 626/5/5
f 656/8/5 650/8/5 649/8/5
f 656/4/5 649/4/5 655/4/5
f 657/6/5 653/6/5 650/6/5
f 657/8/5 650/8/5 656/8/5
f 657/6/5 654/6/5 653/6/5
f 658/6/5 654/6/5 657/6/5
f 659/6/5 619/6/5 654/6/5
f 659/6/5 654/6/5 658/6/5
f 660/5/5 651/5/5 620/5/5
f 660/5/5 620/5/5 605/5/5
f 661/8/5 652/8/5 651/8/5
f 661/5/5 651/5/5 660/5/5
f 662/4/5 648/4/5 652/4/5
f 662/8/5 652/8/5 661/8/5
f 663/5/5 640/5/5 648/5/5
f 663/4/5 648/4/5 662/4/5
f 664/8/5 656/8/5 655/8/5
f 665/8/5 656/8/5 664/8/5
f 666/8/5 658/8/5 657/8/5
f 667/8/5 658/8/5 666/8/5
f 668/8/5 661/8/5 660/8/5
f 669/8/5 661/8/5 668/8/5
f 670/8/5 663/8/5 662/8/5
f 671/8/5 663/8/5 670/8/5
f 672/5/5 655/5/5 626/5/5
f 672/8/5 664/8/5 655/8/5
f 673/7/5 665/7/5 664/7/5
f 673/8/5 664/8/5 672/8/5
f 674/7/5 665/7/5 673/7/5
f 675/7/5 667/7/5 666/7/5
f 676/8/5 658/8/5 667/8/5
f 676/7/5 667/7/5 675/7/5
f 677/5/5 659/5/5 658/5/5
f 677/8/5 658/8/5 676/8/5
f 678/5/5 660/5/5 605/5/5
f 678/8/5 668/8/5 660/8/5
f 679/7/5 669/7/5 668/7/5
f 679/8/5 668/8/5 678/8/5
f 680/7/5 669/7/5 679/7/5
f 681/7/5 671/7/5 670/7/5
f 682/8/5 663/8/5 671/8/5
f 682/7/5 671/7/5 681/7/5
f 683/5/5 640/5/5 663/5/5
f 683/8/5 663/8/5 682/8/5
f 684/5/5 672/5/5 626/5/5
f 685/5/5 672/5/5 684/5/5
f 686/5/5 659/5/5 677/5/5
f 687/6/5 619/6/5 659/6/5
f 687/5/5 659/5/5 686/5/5
f 688/6/5 619/6/5 687/6/5
f 691/6/5 605/6/5 604/6/5
f 692/5/5 678/5/5 605/5/5
f 692/6/5 605/6/5 691/6/5
f 693/5/5 678/5/5 692/5/5
f 694/5/5 640/5/5 683/5/5
f 695/5/5 640/5/5 694/5/5
f 696/11/5 689/11/5 688/11/5
f 697/11/5 689/11/5 696/11/5
f 698/11/5 691/11/5 690/11/5
f 699/11/5 691/11/5 698/11/5
f 700/12/5 697/12/5 696/12/5
f 701/12/5 697/12/5 700/12/5
f 702/12/5 699/12/5 698/12/5
f 703/12/5 699/12/5 702/12/5
f 704/1/6 705/1/6 706/1/6
f 706/1/6 705/1/6 707/1/6
f 708/5/6 709/5/6 712/5/6
f 712/5/6 709/5/6 713/5/6
f 710/5/6 711/5/6 714/5/6
f 714/5/6 711/5/6 715/5/6
f 712/4/6 713/4/6 716/4/6
f 713/5/6 709/5/6 717/5/6
f 716/4/6 713/4/6 717/4/6
f 710/5/6 714/5/6 718/5/6
f 714/4/6 715/4/6 718/4/6
f 718/4/6 715/4/6 719/4/6
f 712/4/6 716/4/6 721/4/6
f 721/4/6 716/4/6 722/4/6
f 719/4/6 715/4/6 723/4/6
f 723/4/6 715/4/6 724/4/6
f 720/4/6 721/4/6 726/4/6
f 726/4/6 721/4/6 727/4/6
f 724/4/6 725/4/6 728/4/6
f 728/4/6 725/4/6 729/4/6
f 720/4/6 726/4/6 730/4/6
f 730/4/6 726/4/6 731/4/6
f 717/5/6 709/5/6 732/5/6
f 710/5/6 718/5/6 733/5/6
f 729/4/6 725/4/6 734/4/6
f 734/4/6 725/4/6 735/4/6
f 730/3/6 731/3/6 736/3/6
f 736/3/6 731/3/6 737/3/6
f 734/3/6 735/3/6 738/3/6
f 738/3/6 735/3/6 739/3/6
f 732/5/6 709/5/6 743/5/6
f 743/5/6 709/5/6 744/5/6
f 710/5/6 733/5/6 745/5/6
f 745/5/6 733/5/6 746/5/6
f 741/5/6 742/5/6 750/5/6
f 740/5/6 741/5/6 750/5/6
f 742/6/6 743/6/6 750/6/6
f 750/6/6 743/6/6 751/6/6
f 746/6/6 747/6/6 752/6/6
f 748/5/6 749/5/6 753/5/6
f 752/6/6 747/6/6 753/6/6
f 747/5/6 748/5/6 753/5/6
f 740/5/6 750/5/6 754/5/6
f 750/5/6 751/5/6 754/5/6
f 754/5/6 751/5/6 755/5/6
f 752/5/6 753/5/6 756/5/6
f 753/5/6 749/5/6 757/5/6
f 756/5/6 753/5/6 757/5/6
f 758/8/6 759/8/6 763/8/6
f 760/8/6 761/8/6 764/8/6
f 762/8/6 763/8/6 767/8/6
f 764/8/6 765/8/6 768/8/6
f 766/8/6 767/8/6 770/8/6
f 763/8/6 759/8/6 770/8/6
f 767/8/6 763/8/6 770/8/6
f 770/8/6 759/8/6 771/8/6
f 768/8/6 769/8/6 772/8/6
f 764/8/6 768/8/6 772/8/6
f 760/8/6 764/8/6 772/8/6
f 772/8/6 769/8/6 773/8/6
f 766/8/6 770/8/6 775/8/6
f 775/8/6 770/8/6 776/8/6
f 770/7/6 771/7/6 777/7/6
f 776/8/6 770/8/6 777/8/6
f 773/8/6 769/8/6 778/8/6
f 772/7/6 773/7/6 778/7/6
f 778/8/6 769/8/6 779/8/6
f 779/8/6 769/8/6 780/8/6
f 775/8/6 776/8/6 782/8/6
f 774/8/6 775/8/6 782/8/6
f 776/7/6 777/7/6 783/7/6
f 782/8/6 776/8/6 783/8/6
f 777/7/6 771/7/6 784/7/6
f 783/7/6 777/7/6 784/7/6
f 772/7/6 778/7/6 785/7/6
f 778/7/6 779/7/6 785/7/6
f 780/8/6 781/8/6 786/8/6
f 785/7/6 779/7/6 786/7/6
f 779/8/6 780/8/6 786/8/6
f 786/8/6 781/8/6 787/8/6
f 790/5/6 791/5/6 794/5/6
f 794/5/6 791/5/6 795/5/6
f 788/5/6 789/5/6 796/5/6
f 796/5/6 789/5/6 797/5/6
f 797/5/6 789/5/6 798/5/6
f 798/5/6 789/5/6 799/5/6
f 792/5/6 793/5/6 800/5/6
f 800/5/6 793/5/6 801/5/6
f 790/5/6 794/5/6 803/5/6
f 794/6/6 795/6/6 804/6/6
f 803/5/6 794/5/6 804/5/6
f 804/6/6 795/6/6 805/6/6
f 788/5/6 796/5/6 806/5/6
f 806/5/6 796/5/6 807/5/6
f 796/6/6 797/6/6 808/6/6
f 807/5/6 796/5/6 808/5/6
f 797/5/6 798/5/6 809/5/6
f 808/6/6 797/6/6 809/6/6
f 798/6/6 799/6/6 810/6/6
f 809/5/6 798/5/6 810/5/6
f 799/5/6 789/5/6 811/5/6
f 810/6/6 799/6/6 811/6/6
f 811/5/6 789/5/6 812/5/6
f 812/5/6 789/5/6 813/5/6
f 800/6/6 801/6/6 814/6/6
f 801/5/6 793/5/6 815/5/6
f 814/6/6 801/6/6 815/6/6
f 815/5/6 793/5/6 816/5/6
f 802/5/6 803/5/6 818/5/6
f 803/7/6 804/7/6 819/7/6
f 818/5/6 803/5/6 819/5/6
f 804/4/6 805/4/6 820/4/6
f 806/5/6 807/5/6 820/5/6
f 805/5/6 806/5/6 820/5/6
f 820/5/6 807/5/6 821/5/6
f 813/5/6 814/5/6 822/5/6
f 812/5/6 813/5/6 822/5/6
f 814/4/6 815/4/6 823/4/6
f 822/5/6 814/5/6 823/5/6
f 816/5/6 817/5/6 824/5/6
f 815/7/6 816/7/6 824/7/6
f 824/5/6 817/5/6 825/5/6
f 802/5/6 818/5/6 827/5/6
f 818/6/6 819/6/6 828/6/6
f 827/5/6 818/5/6 828/5/6
f 819/7/6 804/7/6 829/7/6
f 828/6/6 819/6/6 829/6/6
f 804/4/6 820/4/6 830/4/6
f 829/7/6 804/7/6 830/7/6
f 820/6/6 821/6/6 831/6/6
f 830/4/6 820/4/6 831/4/6
f 831/6/6 821/6/6 832/6/6
f 821/5/6 807/5/6 833/5/6
f 832/6/6 821/6/6 833/6/6
f 833/5/6 807/5/6 834/5/6
f 812/5/6 822/5/6 835/5/6
f 822/6/6 823/6/6 836/6/6
f 835/5/6 822/5/6 836/5/6
f 836/6/6 823/6/6 837/6/6
f 823/4/6 815/4/6 838/4/6
f 837/6/6 823/6/6 838/6/6
f 815/7/6 824/7/6 839/7/6
f 838/4/6 815/4/6 839/4/6
f 824/6/6 825/6/6 840/6/6
f 839/7/6 824/7/6 840/7/6
f 825/5/6 817/5/6 841/5/6
f 840/6/6 825/6/6 841/6/6
f 841/5/6 817/5/6 842/5/6
f 826/5/6 827/5/6 844/5/6
f 827/4/6 828/4/6 845/4/6
f 844/5/6 827/5/6 845/5/6
f 842/5/6 843/5/6 846/5/6
f 841/4/6 842/4/6 846/4/6
f 846/5/6 843/5/6 847/5/6
f 829/4/6 830/4/6 848/4/6
f 828/7/6 829/7/6 848/7/6
f 830/4/6 831/4/6 848/4/6
f 831/7/6 832/7/6 849/7/6
f 848/4/6 831/4/6 849/4/6
f 832/4/6 833/4/6 850/4/6
f 849/7/6 832/7/6 850/7/6
f 833/6/6 834/6/6 851/6/6
f 850/4/6 833/4/6 851/4/6
f 812/5/6 835/5/6 852/5/6
f 852/5/6 835/5/6 853/5/6
f 836/4/6 837/4/6 854/4/6
f 835/6/6 836/6/6 854/6/6
f 837/7/6 838/7/6 855/7/6
f 854/4/6 837/4/6 855/4/6
f 839/4/6 840/4/6 856/4/6
f 855/7/6 838/7/6 856/7/6
f 838/4/6 839/4/6 856/4/6
f 840/7/6 841/7/6 857/7/6
f 856/4/6 840/4/6 857/4/6
f 851/6/6 834/6/6 858/6/6
f 834/5/6 807/5/6 858/5/6
f 858/5/6 807/5/6 859/5/6
f 852/6/6 853/6/6 860/6/6
f 853/5/6 835/5/6 861/5/6
f 860/6/6 853/6/6 861/6/6
f 861/5/6 835/5/6 862/5/6
f 835/6/6 854/6/6 863/6/6
f 862/5/6 835/5/6 863/5/6
f 845/4/6 828/4/6 864/4/6
f 844/6/6 845/6/6 864/6/6
f 828/7/6 848/7/6 865/7/6
f 864/4/6 828/4/6 865/4/6
f 848/8/6 849/8/6 866/8/6
f 865/7/6 848/7/6 866/7/6
f 849/8/6 850/8/6 866/8/6
f 850/7/6 851/7/6 867/7/6
f 866/8/6 850/8/6 867/8/6
f 851/6/6 858/6/6 868/6/6
f 867/7/6 851/7/6 868/7/6
f 858/6/6 859/6/6 868/6/6
f 859/5/6 807/5/6 869/5/6
f 868/6/6 859/6/6 869/6/6
f 869/5/6 807/5/6 870/5/6
f 870/5/6 807/5/6 871/5/6
f 861/5/6 862/5/6 872/5/6
f 860/5/6 861/5/6 872/5/6
f 862/6/6 863/6/6 872/6/6
f 863/6/6 854/6/6 873/6/6
f 872/6/6 863/6/6 873/6/6
f 854/7/6 855/7/6 873/7/6
f 856/8/6 857/8/6 874/8/6
f 873/7/6 855/7/6 874/7/6
f 855/8/6 856/8/6 874/8/6
f 857/7/6 841/7/6 875/7/6
f 874/8/6 857/8/6 875/8/6
f 841/4/6 846/4/6 876/4/6
f 875/7/6 841/7/6 876/7/6
f 846/6/6 847/6/6 877/6/6
f 876/4/6 846/4/6 877/4/6
f 864/7/6 865/7/6 878/7/6
f 865/8/6 866/8/6 878/8/6
f 878/8/6 866/8/6 879/8/6
f 868/8/6 869/8/6 880/8/6
f 880/8/6 869/8/6 881/8/6
f 870/6/6 871/6/6 882/6/6
f 869/5/6 870/5/6 882/5/6
f 882/6/6 871/6/6 883/6/6
f 872/8/6 873/8/6 884/8/6
f 884/8/6 873/8/6 885/8/6
f 875/8/6 876/8/6 886/8/6
f 876/7/6 877/7/6 887/7/6
f 886/8/6 876/8/6 887/8/6
f 844/6/6 864/6/6 888/6/6
f 826/5/6 844/5/6 888/5/6
f 878/7/6 879/7/6 889/7/6
f 888/6/6 864/6/6 889/6/6
f 864/7/6 878/7/6 889/7/6
f 889/7/6 879/7/6 890/7/6
f 880/7/6 881/7/6 891/7/6
f 881/8/6 869/8/6 892/8/6
f 891/7/6 881/7/6 892/7/6
f 882/5/6 883/5/6 893/5/6
f 892/8/6 869/8/6 893/8/6
f 869/5/6 882/5/6 893/5/6
f 860/5/6 872/5/6 894/5/6
f 872/8/6 884/8/6 894/8/6
f 884/7/6 885/7/6 895/7/6
f 894/8/6 884/8/6 895/8/6
f 895/7/6 885/7/6 896/7/6
f 886/7/6 887/7/6 897/7/6
f 877/6/6 847/6/6 898/6/6
f 897/7/6 887/7/6 898/7/6
f 887/7/6 877/7/6 898/7/6
f 847/5/6 843/5/6 899/5/6
f 898/6/6 847/6/6 899/6/6
f 888/5/6 889/5/6 900/5/6
f 826/5/6 888/5/6 900/5/6
f 900/5/6 889/5/6 901/5/6
f 893/5/6 883/5/6 902/5/6
f 902/5/6 883/5/6 903/5/6
f 860/5/6 894/5/6 908/5/6
f 908/5/6 894/5/6 909/5/6
f 898/5/6 899/5/6 910/5/6
f 899/5/6 843/5/6 911/5/6
f 910/5/6 899/5/6 911/5/6
f 903/11/6 904/11/6 912/11/6
f 904/11/6 905/11/6 912/11/6
f 912/11/6 905/11/6 913/11/6
f 907/11/6 908/11/6 914/11/6
f 906/11/6 907/11/6 914/11/6
f 914/11/6 908/11/6 915/11/6
f 912/12/6 913/12/6 916/12/6
f 916/12/6 913/12/6 917/12/6
f 914/12/6 915/12/6 918/12/6
f 918/12/6 915/12/6 919/12/6
f 920/5/6 921/5/6 922/5/6
f 922/5/6 921/5/6 923/5/6
