# MagicaVoxel @ Ephtracy

# group
o 

# material
mtllib bat32.mtl
usemtl palette

# normals
vn -1 0 0
vn 1 0 0
vn 0 0 1
vn 0 0 -1
vn 0 -1 0
vn 0 1 0

# texcoords
vt 0.220703 0.5
vt 0.353516 0.5
vt 0.361328 0.5
vt 0.365234 0.5
vt 0.369141 0.5
vt 0.373047 0.5
vt 0.533203 0.5
vt 0.537109 0.5
vt 0.958984 0.5
vt 0.962891 0.5
vt 0.990234 0.5
vt 0.994141 0.5

# verts
v -1.4 1.8 0
v -1.4 1.8 -0.8
v -1.4 2 0
v -1.4 2 -0.8
v -1.2 1.8 0.2
v -1.2 1.8 0
v -1.2 1.9 0
v -1.2 2 0.2
v -1.2 2 0
v -1 1.8 0.4
v -1 1.8 0.2
v -1 2 0.4
v -1 2 0.2
v -0.8 1.6 1.2
v -0.8 1.6 1
v -0.8 1.6 0.8
v -0.8 1.6 0.6
v -0.8 1.8 1.2
v -0.8 1.8 1
v -0.8 1.8 0.9
v -0.8 1.8 0.8
v -0.8 1.8 0.6
v -0.8 1.9 0.9
v -0.8 1.9 0.8
v -0.7 1.8 1.1
v -0.7 1.8 1
v -0.7 1.8 0.9
v -0.7 1.9 1.1
v -0.7 1.9 0.9
v -0.6 1.6 1.6
v -0.6 1.6 1.4
v -0.6 1.6 1.2
v -0.6 1.8 1.6
v -0.6 1.8 1.4
v -0.6 1.8 1.2
v -0.6 1.8 1.1
v -0.6 1.8 -0.4
v -0.6 1.8 -0.5
v -0.6 1.8 -0.6
v -0.6 1.9 1.2
v -0.6 1.9 1.1
v -0.6 1.9 -0.4
v -0.6 2 -0.4
v -0.6 2 -0.5
v -0.6 2 -0.6
v -0.5 1.8 1.3
v -0.5 1.8 1.2
v -0.5 1.9 1.3
v -0.5 1.9 1.2
v -0.4 1.4 0.8
v -0.4 1.4 0.6
v -0.4 1.4 0.4
v -0.4 1.4 0.2
v -0.4 1.5 0.6
v -0.4 1.5 0.4
v -0.4 1.6 0.8
v -0.4 1.6 0.7
v -0.4 1.6 0.6
v -0.4 1.6 0.4
v -0.4 1.8 0.8
v -0.4 1.8 0.7
v -0.4 1.8 0.6
v -0.4 1.8 0.3
v -0.4 1.8 0.2
v -0.4 1.8 -0.6
v -0.4 1.8 -0.8
v -0.4 1.9 0.8
v -0.4 1.9 0.7
v -0.4 1.9 0.3
v -0.4 1.9 0.2
v -0.4 2 0.8
v -0.4 2 0.2
v -0.4 2 -0.6
v -0.4 2 -0.8
v -0.2 1.6 0.2
v -0.2 1.6 0.1
v -0.2 1.6 -0.8
v -0.2 1.7 0.2
v -0.2 1.7 0.1
v -0.2 1.8 0.2
v -0.2 1.8 0.1
v -0.2 1.8 -0.8
v -0.2 1.8 -1.1
v -0.2 1.8 -1.2
v -0.2 1.9 -0.8
v -0.2 2 0.2
v -0.2 2 -0.4
v -0.2 2 -0.5
v -0.2 2 -0.8
v -0.2 2 -1.1
v -0.2 2 -1.2
v -0.2 2.1 0.2
v -0.2 2.1 -0.8
v -0.2 2.2 0.2
v -0.2 2.2 -0.8
v 0 1.6 0.6
v 0 1.6 0.4
v 0 1.8 0.6
v 0 1.8 0.4
v 0.2 1.8 -0.8
v 0.2 1.8 -1.1
v 0.2 1.8 -1.2
v 0.2 2 -0.8
v 0.2 2 -1.1
v 0.2 2 -1.2
v 0.4 1.6 1.6
v 0.4 1.6 0.8
v 0.4 1.8 1.6
v 0.4 1.8 0.8
v 0.6 1.8 1.3
v 0.6 1.8 1
v 0.6 1.8 0.8
v 0.6 1.9 1.3
v 0.6 1.9 1
v 0.6 1.9 0.8
v 1 1.8 0.4
v 1 1.8 0.2
v 1 1.9 0.3
v 1 1.9 0.2
v 1 2 0.4
v 1 2 0.3
v 1 2 0.2
v 1.2 1.8 -0.4
v 1.2 1.8 -0.5
v 1.2 1.8 -0.6
v 1.2 2 -0.4
v 1.2 2 -0.5
v 1.2 2 -0.6
v 1.4 1.8 -0.6
v 1.4 1.8 -0.8
v 1.4 1.9 -0.6
v 1.4 2 -0.6
v 1.4 2 -0.8
v -1.2 1.8 -0.6
v -1.2 1.8 -0.8
v -1.2 1.9 -0.6
v -1.2 2 -0.6
v -1.2 2 -0.8
v -1 1.8 -0.4
v -1 1.8 -0.5
v -1 1.8 -0.6
v -1 2 -0.4
v -1 2 -0.5
v -1 2 -0.6
v -0.8 1.8 0.4
v -0.8 1.8 0.2
v -0.8 1.9 0.3
v -0.8 1.9 0.2
v -0.8 2 0.4
v -0.8 2 0.3
v -0.8 2 0.2
v -0.4 1.8 1.3
v -0.4 1.8 1
v -0.4 1.8 0.8
v -0.4 1.9 1.3
v -0.4 1.9 1
v -0.4 1.9 0.8
v -0.2 1.6 1.6
v -0.2 1.6 0.8
v -0.2 1.6 0.6
v -0.2 1.6 0.4
v -0.2 1.8 1.6
v -0.2 1.8 0.8
v -0.2 1.8 0.6
v -0.2 1.8 0.4
v 0 1.8 -0.8
v 0 1.8 -1.1
v 0 1.8 -1.2
v 0 2 -0.8
v 0 2 -1.1
v 0 2 -1.2
v 0.4 1.6 0.2
v 0.4 1.6 0.1
v 0.4 1.6 -0.8
v 0.4 1.7 0.2
v 0.4 1.7 0.1
v 0.4 1.8 0.2
v 0.4 1.8 -0.8
v 0.4 1.8 -1.1
v 0.4 1.8 -1.2
v 0.4 1.9 -0.8
v 0.4 2 0.2
v 0.4 2 -0.2
v 0.4 2 -0.3
v 0.4 2 -0.8
v 0.4 2 -1.1
v 0.4 2 -1.2
v 0.4 2.1 0.2
v 0.4 2.1 -0.8
v 0.4 2.2 0.2
v 0.4 2.2 -0.8
v 0.6 1.4 0.8
v 0.6 1.4 0.6
v 0.6 1.4 0.4
v 0.6 1.4 0.2
v 0.6 1.5 0.6
v 0.6 1.5 0.4
v 0.6 1.6 0.8
v 0.6 1.6 0.7
v 0.6 1.6 0.6
v 0.6 1.6 0.4
v 0.6 1.8 0.8
v 0.6 1.8 0.7
v 0.6 1.8 0.6
v 0.6 1.8 0.3
v 0.6 1.8 0.2
v 0.6 1.8 -0.6
v 0.6 1.8 -0.8
v 0.6 1.9 0.8
v 0.6 1.9 0.7
v 0.6 1.9 0.3
v 0.6 1.9 0.2
v 0.6 2 0.8
v 0.6 2 0.2
v 0.6 2 -0.6
v 0.6 2 -0.8
v 0.7 1.8 1.3
v 0.7 1.8 1.2
v 0.7 1.9 1.3
v 0.7 1.9 1.2
v 0.8 1.6 1.6
v 0.8 1.6 1.4
v 0.8 1.6 1.2
v 0.8 1.8 1.6
v 0.8 1.8 1.4
v 0.8 1.8 1.2
v 0.8 1.8 1.1
v 0.8 1.8 -0.4
v 0.8 1.8 -0.5
v 0.8 1.8 -0.6
v 0.8 1.9 1.2
v 0.8 1.9 1.1
v 0.8 1.9 -0.4
v 0.8 2 -0.4
v 0.8 2 -0.5
v 0.8 2 -0.6
v 0.9 1.8 1.1
v 0.9 1.8 1
v 0.9 1.8 0.9
v 0.9 1.9 1.1
v 0.9 1.9 0.9
v 1 1.6 1.2
v 1 1.6 1
v 1 1.6 0.8
v 1 1.6 0.6
v 1 1.8 1.2
v 1 1.8 1
v 1 1.8 0.9
v 1 1.8 0.8
v 1 1.8 0.6
v 1 1.9 0.9
v 1 1.9 0.8
v 1.2 1.8 0.4
v 1.2 1.8 0.2
v 1.2 2 0.4
v 1.2 2 0.2
v 1.4 1.8 0.2
v 1.4 1.8 0
v 1.4 2 0.2
v 1.4 2 0
v 1.6 1.8 0
v 1.6 1.8 -0.8
v 1.6 2 0
v 1.6 2 -0.8
v -0.6 1.6 1.6
v -0.6 1.8 1.6
v -0.2 1.6 1.6
v -0.2 1.8 1.6
v 0.4 1.6 1.6
v 0.4 1.8 1.6
v 0.8 1.6 1.6
v 0.8 1.8 1.6
v -0.5 1.8 1.3
v -0.5 1.9 1.3
v -0.4 1.8 1.3
v -0.4 1.9 1.3
v 0.6 1.8 1.3
v 0.6 1.9 1.3
v 0.7 1.8 1.3
v 0.7 1.9 1.3
v -0.8 1.6 1.2
v -0.8 1.8 1.2
v -0.6 1.6 1.2
v -0.6 1.8 1.2
v -0.6 1.9 1.2
v -0.5 1.8 1.2
v -0.5 1.9 1.2
v 0.7 1.8 1.2
v 0.7 1.9 1.2
v 0.8 1.6 1.2
v 0.8 1.8 1.2
v 0.8 1.9 1.2
v 1 1.6 1.2
v 1 1.8 1.2
v -0.7 1.8 1.1
v -0.7 1.9 1.1
v -0.6 1.8 1.1
v -0.6 1.9 1.1
v 0.8 1.8 1.1
v 0.8 1.9 1.1
v 0.9 1.8 1.1
v 0.9 1.9 1.1
v -0.8 1.8 0.9
v -0.8 1.9 0.9
v -0.7 1.8 0.9
v -0.7 1.9 0.9
v 0.9 1.8 0.9
v 0.9 1.9 0.9
v 1 1.8 0.9
v 1 1.9 0.9
v -0.4 1.4 0.8
v -0.4 1.6 0.8
v -0.4 1.8 0.8
v -0.4 1.9 0.8
v -0.4 2 0.8
v -0.3 1.6 0.8
v -0.2 1.6 0.8
v -0.2 1.8 0.8
v -0.2 1.9 0.8
v 0.4 1.6 0.8
v 0.4 1.8 0.8
v 0.4 1.9 0.8
v 0.5 1.6 0.8
v 0.6 1.4 0.8
v 0.6 1.6 0.8
v 0.6 1.8 0.8
v 0.6 1.9 0.8
v 0.6 2 0.8
v -1 1.8 0.4
v -1 2 0.4
v -0.8 1.8 0.4
v -0.8 2 0.4
v -0.2 1.6 0.4
v -0.2 1.8 0.4
v 0 1.6 0.4
v 0 1.8 0.4
v 1 1.8 0.4
v 1 2 0.4
v 1.2 1.8 0.4
v 1.2 2 0.4
v -1.2 1.8 0.2
v -1.2 2 0.2
v -1 1.8 0.2
v -1 2 0.2
v -0.8 1.8 0.2
v -0.8 1.9 0.2
v -0.8 2 0.2
v -0.7 1.8 0.2
v -0.7 1.9 0.2
v -0.5 1.8 0.2
v -0.5 1.9 0.2
v -0.4 1.8 0.2
v -0.4 1.9 0.2
v -0.4 2 0.2
v -0.2 2 0.2
v -0.2 2.1 0.2
v -0.2 2.2 0.2
v -0.1 2 0.2
v 0 2 0.2
v 0.1 2 0.2
v 0.3 2 0.2
v 0.4 2 0.2
v 0.4 2.1 0.2
v 0.4 2.2 0.2
v 0.6 1.8 0.2
v 0.6 1.9 0.2
v 0.6 2 0.2
v 0.7 1.8 0.2
v 0.7 1.9 0.2
v 1 1.8 0.2
v 1 1.9 0.2
v 1 2 0.2
v 1.2 1.8 0.2
v 1.2 2 0.2
v 1.4 1.8 0.2
v 1.4 2 0.2
v -1.4 1.8 0
v -1.4 2 0
v -1.3 1.9 0
v -1.3 2 0
v -1.2 1.8 0
v -1.2 1.9 0
v -1.2 2 0
v 1.4 1.8 0
v 1.4 2 0
v 1.6 1.8 0
v 1.6 2 0
v -0.8 1.8 0.8
v -0.8 1.9 0.8
v -0.6 1.8 0.8
v -0.6 1.9 0.8
v -0.5 1.8 0.8
v -0.4 1.8 0.8
v -0.4 1.9 0.8
v 0.6 1.8 0.8
v 0.6 1.9 0.8
v 0.7 1.8 0.8
v 0.8 1.8 0.8
v 0.8 1.9 0.8
v 1 1.8 0.8
v 1 1.9 0.8
v -0.8 1.6 0.6
v -0.8 1.8 0.6
v -0.4 1.6 0.6
v -0.4 1.8 0.6
v -0.2 1.6 0.6
v -0.2 1.8 0.6
v 0 1.6 0.6
v 0 1.8 0.6
v 0.6 1.6 0.6
v 0.6 1.8 0.6
v 1 1.6 0.6
v 1 1.8 0.6
v -0.4 1.4 0.2
v -0.4 1.8 0.2
v -0.2 1.6 0.2
v -0.2 1.7 0.2
v -0.2 1.8 0.2
v 0.4 1.6 0.2
v 0.4 1.7 0.2
v 0.4 1.8 0.2
v 0.5 1.8 0.2
v 0.6 1.4 0.2
v 0.6 1.8 0.2
v -1 1.8 -0.4
v -1 2 -0.4
v -0.7 1.9 -0.4
v -0.7 2 -0.4
v -0.6 1.8 -0.4
v -0.6 1.9 -0.4
v -0.6 2 -0.4
v 0.8 1.8 -0.4
v 0.8 1.9 -0.4
v 0.8 2 -0.4
v 0.9 1.9 -0.4
v 0.9 2 -0.4
v 1.2 1.8 -0.4
v 1.2 2 -0.4
v -1.2 1.8 -0.6
v -1.2 1.9 -0.6
v -1.2 2 -0.6
v -1.1 1.8 -0.6
v -1.1 1.9 -0.6
v -1 1.8 -0.6
v -1 2 -0.6
v -0.6 1.8 -0.6
v -0.6 2 -0.6
v -0.5 1.8 -0.6
v -0.5 2 -0.6
v -0.4 1.8 -0.6
v -0.4 2 -0.6
v 0.6 1.8 -0.6
v 0.6 2 -0.6
v 0.7 1.8 -0.6
v 0.7 2 -0.6
v 0.8 1.8 -0.6
v 0.8 2 -0.6
v 1.2 1.8 -0.6
v 1.2 2 -0.6
v 1.3 1.8 -0.6
v 1.3 1.9 -0.6
v 1.4 1.8 -0.6
v 1.4 1.9 -0.6
v 1.4 2 -0.6
v -1.4 1.8 -0.8
v -1.4 2 -0.8
v -1.2 1.8 -0.8
v -1.2 2 -0.8
v -0.4 1.8 -0.8
v -0.4 2 -0.8
v -0.3 1.8 -0.8
v -0.3 1.9 -0.8
v -0.2 1.6 -0.8
v -0.2 1.8 -0.8
v -0.2 1.9 -0.8
v -0.2 2 -0.8
v -0.2 2.1 -0.8
v -0.2 2.2 -0.8
v -0.1 2 -0.8
v -0.1 2.1 -0.8
v 0 1.8 -0.8
v 0 2 -0.8
v 0.2 1.8 -0.8
v 0.2 2 -0.8
v 0.3 2 -0.8
v 0.3 2.1 -0.8
v 0.4 1.6 -0.8
v 0.4 1.8 -0.8
v 0.4 1.9 -0.8
v 0.4 2 -0.8
v 0.4 2.1 -0.8
v 0.4 2.2 -0.8
v 0.5 1.8 -0.8
v 0.5 1.9 -0.8
v 0.6 1.8 -0.8
v 0.6 2 -0.8
v 1.4 1.8 -0.8
v 1.4 2 -0.8
v 1.6 1.8 -0.8
v 1.6 2 -0.8
v -0.2 1.8 -1.2
v -0.2 2 -1.2
v 0 1.8 -1.2
v 0 2 -1.2
v 0.2 1.8 -1.2
v 0.2 2 -1.2
v 0.4 1.8 -1.2
v 0.4 2 -1.2
v -0.4 1.4 0.8
v 0.6 1.4 0.8
v -0.4 1.4 0.6
v -0.2 1.4 0.6
v 0 1.4 0.6
v 0.2 1.4 0.6
v 0.4 1.4 0.6
v 0.6 1.4 0.6
v -0.4 1.4 0.4
v -0.2 1.4 0.4
v 0 1.4 0.4
v 0.2 1.4 0.4
v 0.4 1.4 0.4
v 0.6 1.4 0.4
v -0.4 1.4 0.2
v 0.6 1.4 0.2
v -0.6 1.6 1.6
v -0.2 1.6 1.6
v 0.4 1.6 1.6
v 0.8 1.6 1.6
v -0.5 1.6 1.5
v -0.4 1.6 1.5
v 0.6 1.6 1.5
v 0.7 1.6 1.5
v -0.6 1.6 1.4
v -0.5 1.6 1.4
v -0.4 1.6 1.4
v 0.6 1.6 1.4
v 0.7 1.6 1.4
v 0.8 1.6 1.4
v -0.4 1.6 1.3
v -0.3 1.6 1.3
v 0.5 1.6 1.3
v 0.6 1.6 1.3
v -0.8 1.6 1.2
v -0.6 1.6 1.2
v -0.4 1.6 1.2
v 0.6 1.6 1.2
v 0.8 1.6 1.2
v 1 1.6 1.2
v -0.8 1.6 1
v -0.6 1.6 1
v 0.8 1.6 1
v 1 1.6 1
v -0.8 1.6 0.8
v -0.7 1.6 0.8
v -0.4 1.6 0.8
v -0.3 1.6 0.8
v -0.2 1.6 0.8
v 0.4 1.6 0.8
v 0.5 1.6 0.8
v 0.6 1.6 0.8
v 0.9 1.6 0.8
v 1 1.6 0.8
v -0.7 1.6 0.7
v -0.4 1.6 0.7
v 0.6 1.6 0.7
v 0.9 1.6 0.7
v -0.8 1.6 0.6
v -0.4 1.6 0.6
v 0.6 1.6 0.6
v 1 1.6 0.6
v -0.2 1.6 0.2
v 0.4 1.6 0.2
v -0.2 1.6 0.1
v 0.4 1.6 0.1
v -0.1 1.6 -0.2
v 0 1.6 -0.2
v 0.2 1.6 -0.2
v 0.3 1.6 -0.2
v -0.1 1.6 -0.3
v 0 1.6 -0.3
v 0.2 1.6 -0.3
v 0.3 1.6 -0.3
v -0.1 1.6 -0.5
v 0 1.6 -0.5
v 0.2 1.6 -0.5
v 0.3 1.6 -0.5
v -0.1 1.6 -0.6
v 0 1.6 -0.6
v 0.2 1.6 -0.6
v 0.3 1.6 -0.6
v -0.2 1.6 -0.8
v 0.4 1.6 -0.8
v -0.2 1.8 0.6
v 0 1.8 0.6
v -1 1.8 0.4
v -0.8 1.8 0.4
v -0.2 1.8 0.4
v 0 1.8 0.4
v 1 1.8 0.4
v 1.2 1.8 0.4
v -1.2 1.8 0.2
v -1 1.8 0.2
v -0.8 1.8 0.2
v -0.7 1.8 0.2
v -0.5 1.8 0.2
v -0.4 1.8 0.2
v -0.2 1.8 0.2
v 0.4 1.8 0.2
v 0.5 1.8 0.2
v 0.6 1.8 0.2
v 0.7 1.8 0.2
v 1 1.8 0.2
v 1.2 1.8 0.2
v 1.4 1.8 0.2
v -1.1 1.8 0.1
v -1 1.8 0.1
v -0.8 1.8 0.1
v -0.7 1.8 0.1
v -0.6 1.8 0.1
v -0.5 1.8 0.1
v -0.4 1.8 0.1
v -0.3 1.8 0.1
v -0.2 1.8 0.1
v 0.6 1.8 0.1
v 0.7 1.8 0.1
v 0.9 1.8 0.1
v 1 1.8 0.1
v 1.2 1.8 0.1
v 1.3 1.8 0.1
v -1.4 1.8 0
v -1.2 1.8 0
v -1.1 1.8 0
v -1 1.8 0
v -0.8 1.8 0
v -0.7 1.8 0
v -0.6 1.8 0
v -0.5 1.8 0
v 0.8 1.8 0
v 0.9 1.8 0
v 1 1.8 0
v 1.2 1.8 0
v 1.3 1.8 0
v 1.4 1.8 0
v 1.6 1.8 0
v -1.2 1.8 -0.1
v -1 1.8 -0.1
v -0.8 1.8 -0.1
v -0.6 1.8 -0.1
v 0.8 1.8 -0.1
v 1 1.8 -0.1
v 1.2 1.8 -0.1
v 1.4 1.8 -0.1
v -1 1.8 -0.2
v -0.6 1.8 -0.2
v 0.8 1.8 -0.2
v 1.2 1.8 -0.2
v -0.5 1.8 -0.3
v -0.3 1.8 -0.3
v -1.2 1.8 -0.4
v -1 1.8 -0.4
v -0.6 1.8 -0.4
v -0.4 1.8 -0.4
v -0.3 1.8 -0.4
v 0.6 1.8 -0.4
v 0.8 1.8 -0.4
v 1.2 1.8 -0.4
v 1.4 1.8 -0.4
v -1.1 1.8 -0.5
v -1 1.8 -0.5
v -0.6 1.8 -0.5
v -0.5 1.8 -0.5
v 0.7 1.8 -0.5
v 0.8 1.8 -0.5
v 1.2 1.8 -0.5
v 1.3 1.8 -0.5
v -1.2 1.8 -0.6
v -1.1 1.8 -0.6
v -1 1.8 -0.6
v -0.6 1.8 -0.6
v -0.5 1.8 -0.6
v -0.4 1.8 -0.6
v 0.6 1.8 -0.6
v 0.7 1.8 -0.6
v 0.8 1.8 -0.6
v 1.2 1.8 -0.6
v 1.3 1.8 -0.6
v 1.4 1.8 -0.6
v -1.4 1.8 -0.8
v -1.2 1.8 -0.8
v -0.4 1.8 -0.8
v -0.3 1.8 -0.8
v -0.2 1.8 -0.8
v 0 1.8 -0.8
v 0.2 1.8 -0.8
v 0.4 1.8 -0.8
v 0.5 1.8 -0.8
v 0.6 1.8 -0.8
v 1.4 1.8 -0.8
v 1.6 1.8 -0.8
v -0.2 1.8 -1.1
v 0 1.8 -1.1
v 0.2 1.8 -1.1
v 0.4 1.8 -1.1
v -0.2 1.8 -1.2
v 0 1.8 -1.2
v 0.2 1.8 -1.2
v 0.4 1.8 -1.2
v -0.2 1.6 0.6
v 0 1.6 0.6
v -0.2 1.6 0.4
v 0 1.6 0.4
v -0.6 1.8 1.6
v -0.2 1.8 1.6
v 0.4 1.8 1.6
v 0.8 1.8 1.6
v -0.6 1.8 1.4
v -0.4 1.8 1.4
v 0.6 1.8 1.4
v 0.8 1.8 1.4
v -0.5 1.8 1.3
v -0.4 1.8 1.3
v 0.6 1.8 1.3
v 0.7 1.8 1.3
v -0.8 1.8 1.2
v -0.6 1.8 1.2
v -0.5 1.8 1.2
v 0.7 1.8 1.2
v 0.8 1.8 1.2
v 1 1.8 1.2
v -0.7 1.8 1.1
v -0.6 1.8 1.1
v 0.8 1.8 1.1
v 0.9 1.8 1.1
v -0.8 1.8 1
v -0.7 1.8 1
v -0.4 1.8 1
v 0.6 1.8 1
v 0.9 1.8 1
v 1 1.8 1
v -0.8 1.8 0.9
v -0.7 1.8 0.9
v 0.9 1.8 0.9
v 1 1.8 0.9
v -0.8 1.8 0.8
v -0.6 1.8 0.8
v -0.5 1.8 0.8
v -0.4 1.8 0.8
v -0.2 1.8 0.8
v 0.4 1.8 0.8
v 0.6 1.8 0.8
v 0.7 1.8 0.8
v 0.8 1.8 0.8
v 1 1.8 0.8
v -0.5 1.8 0.7
v -0.4 1.8 0.7
v 0.6 1.8 0.7
v 0.7 1.8 0.7
v -0.8 1.8 0.6
v -0.4 1.8 0.6
v 0.6 1.8 0.6
v 1 1.8 0.6
v -0.5 1.9 1.3
v -0.4 1.9 1.3
v 0.6 1.9 1.3
v 0.7 1.9 1.3
v -0.6 1.9 1.2
v -0.5 1.9 1.2
v 0.7 1.9 1.2
v 0.8 1.9 1.2
v -0.7 1.9 1.1
v -0.6 1.9 1.1
v 0.8 1.9 1.1
v 0.9 1.9 1.1
v -0.5 1.9 1
v -0.4 1.9 1
v 0.6 1.9 1
v 0.7 1.9 1
v -0.8 1.9 0.9
v -0.7 1.9 0.9
v -0.6 1.9 0.9
v -0.5 1.9 0.9
v 0.7 1.9 0.9
v 0.8 1.9 0.9
v 0.9 1.9 0.9
v 1 1.9 0.9
v -0.8 1.9 0.8
v -0.6 1.9 0.8
v -0.4 1.9 0.8
v 0.6 1.9 0.8
v 0.8 1.9 0.8
v 1 1.9 0.8
v -0.4 2 0.8
v 0.6 2 0.8
v -1 2 0.4
v -0.8 2 0.4
v 1 2 0.4
v 1.2 2 0.4
v -0.9 2 0.3
v -0.8 2 0.3
v -0.1 2 0.3
v 0 2 0.3
v 0.1 2 0.3
v 0.3 2 0.3
v 1 2 0.3
v 1.1 2 0.3
v -1.2 2 0.2
v -1 2 0.2
v -0.9 2 0.2
v -0.8 2 0.2
v -0.4 2 0.2
v -0.2 2 0.2
v -0.1 2 0.2
v 0 2 0.2
v 0.1 2 0.2
v 0.3 2 0.2
v 0.4 2 0.2
v 0.6 2 0.2
v 1 2 0.2
v 1.1 2 0.2
v 1.2 2 0.2
v 1.4 2 0.2
v -1.1 2 0.1
v -1 2 0.1
v -0.8 2 0.1
v -0.6 2 0.1
v 0.8 2 0.1
v 1 2 0.1
v 1.2 2 0.1
v 1.3 2 0.1
v -1.4 2 0
v -1.3 2 0
v -1.2 2 0
v -1.1 2 0
v -1 2 0
v -0.9 2 0
v -0.8 2 0
v -0.7 2 0
v -0.6 2 0
v -0.5 2 0
v 0.7 2 0
v 0.8 2 0
v 0.9 2 0
v 1 2 0
v 1.1 2 0
v 1.2 2 0
v 1.3 2 0
v 1.4 2 0
v 1.6 2 0
v 1.4 2 -0.1
v 1.5 2 -0.1
v -1 2 -0.2
v -0.8 2 -0.2
v -0.7 2 -0.2
v -0.6 2 -0.2
v 0.4 2 -0.2
v 0.5 2 -0.2
v 0.8 2 -0.2
v 0.9 2 -0.2
v 1 2 -0.2
v 1.2 2 -0.2
v -0.5 2 -0.3
v -0.4 2 -0.3
v 0.4 2 -0.3
v 0.5 2 -0.3
v 0.6 2 -0.3
v 0.7 2 -0.3
v -1.2 2 -0.4
v -1.1 2 -0.4
v -1 2 -0.4
v -0.7 2 -0.4
v -0.6 2 -0.4
v -0.4 2 -0.4
v -0.3 2 -0.4
v -0.2 2 -0.4
v 0.6 2 -0.4
v 0.8 2 -0.4
v 0.9 2 -0.4
v 1.2 2 -0.4
v 1.3 2 -0.4
v 1.4 2 -0.4
v -1.1 2 -0.5
v -1 2 -0.5
v -0.6 2 -0.5
v -0.5 2 -0.5
v -0.3 2 -0.5
v -0.2 2 -0.5
v 0.7 2 -0.5
v 0.8 2 -0.5
v 1.2 2 -0.5
v 1.3 2 -0.5
v -1.3 2 -0.6
v -1.2 2 -0.6
v -1 2 -0.6
v -0.6 2 -0.6
v -0.5 2 -0.6
v -0.4 2 -0.6
v 0.6 2 -0.6
v 0.7 2 -0.6
v 0.8 2 -0.6
v 1.2 2 -0.6
v 1.4 2 -0.6
v 1.5 2 -0.6
v -1.4 2 -0.8
v -1.2 2 -0.8
v -0.4 2 -0.8
v -0.2 2 -0.8
v -0.1 2 -0.8
v 0 2 -0.8
v 0.2 2 -0.8
v 0.3 2 -0.8
v 0.4 2 -0.8
v 0.6 2 -0.8
v 1.4 2 -0.8
v 1.6 2 -0.8
v -0.2 2 -1.1
v 0 2 -1.1
v 0.2 2 -1.1
v 0.4 2 -1.1
v -0.2 2 -1.2
v 0 2 -1.2
v 0.2 2 -1.2
v 0.4 2 -1.2
v -0.2 2.2 0.2
v 0.4 2.2 0.2
v -0.2 2.2 -0.8
v 0.4 2.2 -0.8

# faces
f 3/5/1 2/5/1 1/5/1
f 4/5/1 2/5/1 3/5/1
f 7/5/1 6/5/1 5/5/1
f 8/5/1 7/5/1 5/5/1
f 9/5/1 7/5/1 8/5/1
f 12/5/1 11/5/1 10/5/1
f 13/5/1 11/5/1 12/5/1
f 18/4/1 15/4/1 14/4/1
f 19/3/1 16/3/1 15/3/1
f 19/4/1 15/4/1 18/4/1
f 20/3/1 16/3/1 19/3/1
f 21/5/1 17/5/1 16/5/1
f 21/3/1 16/3/1 20/3/1
f 22/5/1 17/5/1 21/5/1
f 23/8/1 21/8/1 20/8/1
f 24/8/1 21/8/1 23/8/1
f 28/8/1 26/8/1 25/8/1
f 28/8/1 27/8/1 26/8/1
f 29/8/1 27/8/1 28/8/1
f 33/5/1 31/5/1 30/5/1
f 34/4/1 32/4/1 31/4/1
f 34/5/1 31/5/1 33/5/1
f 35/4/1 32/4/1 34/4/1
f 40/8/1 36/8/1 35/8/1
f 41/8/1 36/8/1 40/8/1
f 42/8/1 38/8/1 37/8/1
f 43/8/1 38/8/1 42/8/1
f 44/7/1 39/7/1 38/7/1
f 44/8/1 38/8/1 43/8/1
f 45/7/1 39/7/1 44/7/1
f 48/8/1 47/8/1 46/8/1
f 49/8/1 47/8/1 48/8/1
f 54/5/1 51/5/1 50/5/1
f 54/12/1 52/12/1 51/12/1
f 55/5/1 53/5/1 52/5/1
f 55/12/1 52/12/1 54/12/1
f 56/5/1 54/5/1 50/5/1
f 57/5/1 54/5/1 56/5/1
f 58/9/1 55/9/1 54/9/1
f 58/5/1 54/5/1 57/5/1
f 59/5/1 53/5/1 55/5/1
f 59/9/1 55/9/1 58/9/1
f 62/5/1 59/5/1 58/5/1
f 63/5/1 53/5/1 59/5/1
f 63/5/1 59/5/1 62/5/1
f 64/5/1 53/5/1 63/5/1
f 67/6/1 61/6/1 60/6/1
f 68/5/1 62/5/1 61/5/1
f 68/6/1 61/6/1 67/6/1
f 68/5/1 63/5/1 62/5/1
f 69/6/1 64/6/1 63/6/1
f 69/5/1 63/5/1 68/5/1
f 70/6/1 64/6/1 69/6/1
f 71/5/1 68/5/1 67/5/1
f 71/5/1 69/5/1 68/5/1
f 71/5/1 70/5/1 69/5/1
f 72/5/1 70/5/1 71/5/1
f 73/5/1 66/5/1 65/5/1
f 74/5/1 66/5/1 73/5/1
f 78/6/1 76/6/1 75/6/1
f 79/5/1 77/5/1 76/5/1
f 79/6/1 76/6/1 78/6/1
f 80/5/1 79/5/1 78/5/1
f 81/5/1 77/5/1 79/5/1
f 81/5/1 79/5/1 80/5/1
f 82/5/1 77/5/1 81/5/1
f 85/11/1 83/11/1 82/11/1
f 89/11/1 83/11/1 85/11/1
f 90/12/1 84/12/1 83/12/1
f 90/11/1 83/11/1 89/11/1
f 91/12/1 84/12/1 90/12/1
f 92/6/1 89/6/1 88/6/1
f 92/6/1 88/6/1 87/6/1
f 92/6/1 87/6/1 86/6/1
f 93/6/1 89/6/1 92/6/1
f 94/5/1 93/5/1 92/5/1
f 95/5/1 93/5/1 94/5/1
f 98/5/1 97/5/1 96/5/1
f 99/5/1 97/5/1 98/5/1
f 103/11/1 101/11/1 100/11/1
f 104/12/1 102/12/1 101/12/1
f 104/11/1 101/11/1 103/11/1
f 105/12/1 102/12/1 104/12/1
f 108/5/1 107/5/1 106/5/1
f 109/5/1 107/5/1 108/5/1
f 113/8/1 111/8/1 110/8/1
f 114/7/1 112/7/1 111/7/1
f 114/8/1 111/8/1 113/8/1
f 115/7/1 112/7/1 114/7/1
f 118/5/1 117/5/1 116/5/1
f 119/5/1 117/5/1 118/5/1
f 120/5/1 118/5/1 116/5/1
f 121/6/1 119/6/1 118/6/1
f 121/5/1 118/5/1 120/5/1
f 122/6/1 119/6/1 121/6/1
f 126/8/1 124/8/1 123/8/1
f 127/7/1 125/7/1 124/7/1
f 127/8/1 124/8/1 126/8/1
f 128/7/1 125/7/1 127/7/1
f 131/5/1 130/5/1 129/5/1
f 132/5/1 130/5/1 131/5/1
f 133/5/1 130/5/1 132/5/1
f 134/5/2 135/5/2 136/5/2
f 136/5/2 135/5/2 137/5/2
f 137/5/2 135/5/2 138/5/2
f 139/8/2 140/8/2 142/8/2
f 140/7/2 141/7/2 143/7/2
f 142/8/2 140/8/2 143/8/2
f 143/7/2 141/7/2 144/7/2
f 145/5/2 146/5/2 147/5/2
f 147/5/2 146/5/2 148/5/2
f 145/5/2 147/5/2 149/5/2
f 147/6/2 148/6/2 150/6/2
f 149/5/2 147/5/2 150/5/2
f 150/6/2 148/6/2 151/6/2
f 152/8/2 153/8/2 155/8/2
f 153/7/2 154/7/2 156/7/2
f 155/8/2 153/8/2 156/8/2
f 156/7/2 154/7/2 157/7/2
f 158/5/2 159/5/2 162/5/2
f 162/5/2 159/5/2 163/5/2
f 160/5/2 161/5/2 164/5/2
f 164/5/2 161/5/2 165/5/2
f 166/11/2 167/11/2 169/11/2
f 167/12/2 168/12/2 170/12/2
f 169/11/2 167/11/2 170/11/2
f 170/12/2 168/12/2 171/12/2
f 172/6/2 173/6/2 175/6/2
f 173/5/2 174/5/2 176/5/2
f 175/6/2 173/6/2 176/6/2
f 175/5/2 176/5/2 177/5/2
f 176/5/2 174/5/2 178/5/2
f 177/5/2 176/5/2 178/5/2
f 178/11/2 179/11/2 181/11/2
f 181/11/2 179/11/2 185/11/2
f 179/12/2 180/12/2 186/12/2
f 185/11/2 179/11/2 186/11/2
f 186/12/2 180/12/2 187/12/2
f 184/6/2 185/6/2 188/6/2
f 183/6/2 184/6/2 188/6/2
f 182/6/2 183/6/2 188/6/2
f 188/6/2 185/6/2 189/6/2
f 188/5/2 189/5/2 190/5/2
f 190/5/2 189/5/2 191/5/2
f 192/5/2 193/5/2 196/5/2
f 193/12/2 194/12/2 196/12/2
f 194/5/2 195/5/2 197/5/2
f 196/12/2 194/12/2 197/12/2
f 192/5/2 196/5/2 198/5/2
f 198/5/2 196/5/2 199/5/2
f 196/9/2 197/9/2 200/9/2
f 199/5/2 196/5/2 200/5/2
f 197/5/2 195/5/2 201/5/2
f 200/9/2 197/9/2 201/9/2
f 200/5/2 201/5/2 204/5/2
f 201/5/2 195/5/2 205/5/2
f 204/5/2 201/5/2 205/5/2
f 205/5/2 195/5/2 206/5/2
f 202/6/2 203/6/2 209/6/2
f 203/5/2 204/5/2 210/5/2
f 209/6/2 203/6/2 210/6/2
f 204/5/2 205/5/2 210/5/2
f 205/6/2 206/6/2 211/6/2
f 210/5/2 205/5/2 211/5/2
f 211/6/2 206/6/2 212/6/2
f 209/5/2 210/5/2 213/5/2
f 210/5/2 211/5/2 213/5/2
f 211/5/2 212/5/2 213/5/2
f 213/5/2 212/5/2 214/5/2
f 207/5/2 208/5/2 215/5/2
f 215/5/2 208/5/2 216/5/2
f 217/8/2 218/8/2 219/8/2
f 219/8/2 218/8/2 220/8/2
f 221/5/2 222/5/2 224/5/2
f 222/4/2 223/4/2 225/4/2
f 224/5/2 222/5/2 225/5/2
f 225/4/2 223/4/2 226/4/2
f 226/8/2 227/8/2 231/8/2
f 231/8/2 227/8/2 232/8/2
f 228/8/2 229/8/2 233/8/2
f 233/8/2 229/8/2 234/8/2
f 229/7/2 230/7/2 235/7/2
f 234/8/2 229/8/2 235/8/2
f 235/7/2 230/7/2 236/7/2
f 237/8/2 238/8/2 240/8/2
f 238/8/2 239/8/2 240/8/2
f 240/8/2 239/8/2 241/8/2
f 242/4/2 243/4/2 246/4/2
f 243/3/2 244/3/2 247/3/2
f 246/4/2 243/4/2 247/4/2
f 247/3/2 244/3/2 248/3/2
f 244/5/2 245/5/2 249/5/2
f 248/3/2 244/3/2 249/3/2
f 249/5/2 245/5/2 250/5/2
f 248/8/2 249/8/2 251/8/2
f 251/8/2 249/8/2 252/8/2
f 253/5/2 254/5/2 255/5/2
f 255/5/2 254/5/2 256/5/2
f 257/5/2 258/5/2 259/5/2
f 259/5/2 258/5/2 260/5/2
f 261/5/2 262/5/2 263/5/2
f 263/5/2 262/5/2 264/5/2
f 267/5/3 266/5/3 265/5/3
f 268/5/3 266/5/3 267/5/3
f 271/5/3 270/5/3 269/5/3
f 272/5/3 270/5/3 271/5/3
f 275/8/3 274/8/3 273/8/3
f 276/8/3 274/8/3 275/8/3
f 279/8/3 278/8/3 277/8/3
f 280/8/3 278/8/3 279/8/3
f 283/4/3 282/4/3 281/4/3
f 284/4/3 282/4/3 283/4/3
f 286/8/3 285/8/3 284/8/3
f 287/8/3 285/8/3 286/8/3
f 291/8/3 289/8/3 288/8/3
f 292/8/3 289/8/3 291/8/3
f 293/4/3 291/4/3 290/4/3
f 294/4/3 291/4/3 293/4/3
f 297/8/3 296/8/3 295/8/3
f 298/8/3 296/8/3 297/8/3
f 301/8/3 300/8/3 299/8/3
f 302/8/3 300/8/3 301/8/3
f 305/8/3 304/8/3 303/8/3
f 306/8/3 304/8/3 305/8/3
f 309/8/3 308/8/3 307/8/3
f 310/8/3 308/8/3 309/8/3
f 316/5/3 312/5/3 311/5/3
f 317/5/3 316/5/3 311/5/3
f 318/6/3 314/6/3 313/6/3
f 319/5/3 315/5/3 314/5/3
f 319/6/3 314/6/3 318/6/3
f 320/5/3 318/5/3 317/5/3
f 320/5/3 317/5/3 311/5/3
f 320/5/3 319/5/3 318/5/3
f 321/5/3 319/5/3 320/5/3
f 322/5/3 315/5/3 319/5/3
f 322/5/3 319/5/3 321/5/3
f 323/5/3 320/5/3 311/5/3
f 324/5/3 323/5/3 311/5/3
f 325/5/3 323/5/3 324/5/3
f 326/6/3 322/6/3 321/6/3
f 327/5/3 315/5/3 322/5/3
f 327/6/3 322/6/3 326/6/3
f 328/5/3 315/5/3 327/5/3
f 331/5/3 330/5/3 329/5/3
f 332/5/3 330/5/3 331/5/3
f 335/5/3 334/5/3 333/5/3
f 336/5/3 334/5/3 335/5/3
f 339/5/3 338/5/3 337/5/3
f 340/5/3 338/5/3 339/5/3
f 343/5/3 342/5/3 341/5/3
f 344/5/3 342/5/3 343/5/3
f 348/6/3 346/6/3 345/6/3
f 349/5/3 347/5/3 346/5/3
f 349/6/3 346/6/3 348/6/3
f 350/5/3 349/5/3 348/5/3
f 351/5/3 347/5/3 349/5/3
f 351/5/3 349/5/3 350/5/3
f 352/6/3 351/6/3 350/6/3
f 353/5/3 347/5/3 351/5/3
f 353/6/3 351/6/3 352/6/3
f 354/5/3 347/5/3 353/5/3
f 358/6/3 356/6/3 355/6/3
f 359/6/3 356/6/3 358/6/3
f 360/6/3 356/6/3 359/6/3
f 361/6/3 356/6/3 360/6/3
f 362/6/3 356/6/3 361/6/3
f 363/5/3 357/5/3 356/5/3
f 363/6/3 356/6/3 362/6/3
f 364/5/3 357/5/3 363/5/3
f 368/6/3 366/6/3 365/6/3
f 369/5/3 367/5/3 366/5/3
f 369/6/3 366/6/3 368/6/3
f 370/5/3 369/5/3 368/5/3
f 371/5/3 367/5/3 369/5/3
f 371/5/3 369/5/3 370/5/3
f 372/5/3 367/5/3 371/5/3
f 375/5/3 374/5/3 373/5/3
f 376/5/3 374/5/3 375/5/3
f 379/5/3 378/5/3 377/5/3
f 380/5/3 378/5/3 379/5/3
f 381/5/3 379/5/3 377/5/3
f 382/6/3 380/6/3 379/6/3
f 382/5/3 379/5/3 381/5/3
f 383/6/3 380/6/3 382/6/3
f 386/5/3 385/5/3 384/5/3
f 387/5/3 385/5/3 386/5/3
f 388/8/4 389/8/4 390/8/4
f 390/8/4 389/8/4 391/8/4
f 390/7/4 391/7/4 392/7/4
f 392/7/4 391/7/4 393/7/4
f 393/7/4 391/7/4 394/7/4
f 395/7/4 396/7/4 397/7/4
f 397/7/4 396/7/4 398/7/4
f 398/7/4 396/7/4 399/7/4
f 398/8/4 399/8/4 400/8/4
f 400/8/4 399/8/4 401/8/4
f 402/5/4 403/5/4 404/5/4
f 404/5/4 403/5/4 405/5/4
f 406/5/4 407/5/4 408/5/4
f 408/5/4 407/5/4 409/5/4
f 410/5/4 411/5/4 412/5/4
f 412/5/4 411/5/4 413/5/4
f 414/5/4 415/5/4 416/5/4
f 416/5/4 415/5/4 417/5/4
f 417/5/4 415/5/4 418/5/4
f 414/5/4 416/5/4 419/5/4
f 419/5/4 420/5/4 422/5/4
f 420/5/4 421/5/4 422/5/4
f 414/5/4 419/5/4 423/5/4
f 419/5/4 422/5/4 423/5/4
f 423/5/4 422/5/4 424/5/4
f 425/8/4 426/8/4 427/8/4
f 427/8/4 426/8/4 428/8/4
f 425/8/4 427/8/4 429/8/4
f 427/7/4 428/7/4 430/7/4
f 429/8/4 427/8/4 430/8/4
f 430/7/4 428/7/4 431/7/4
f 432/8/4 433/8/4 435/8/4
f 433/7/4 434/7/4 435/7/4
f 435/7/4 434/7/4 436/7/4
f 432/8/4 435/8/4 437/8/4
f 435/8/4 436/8/4 437/8/4
f 437/8/4 436/8/4 438/8/4
f 439/8/4 440/8/4 442/8/4
f 440/7/4 441/7/4 443/7/4
f 442/8/4 440/8/4 443/8/4
f 442/7/4 443/7/4 444/7/4
f 443/7/4 441/7/4 445/7/4
f 444/7/4 443/7/4 445/7/4
f 446/7/4 447/7/4 448/7/4
f 448/7/4 447/7/4 449/7/4
f 448/8/4 449/8/4 450/8/4
f 450/8/4 449/8/4 451/8/4
f 452/8/4 453/8/4 454/8/4
f 454/8/4 453/8/4 455/8/4
f 454/7/4 455/7/4 456/7/4
f 456/7/4 455/7/4 457/7/4
f 458/7/4 459/7/4 460/7/4
f 460/7/4 459/7/4 461/7/4
f 460/8/4 461/8/4 462/8/4
f 461/7/4 459/7/4 463/7/4
f 462/8/4 461/8/4 463/8/4
f 463/7/4 459/7/4 464/7/4
f 465/5/4 466/5/4 467/5/4
f 467/5/4 466/5/4 468/5/4
f 469/5/4 470/5/4 471/5/4
f 471/5/4 470/5/4 472/5/4
f 471/6/4 472/6/4 474/6/4
f 472/5/4 470/5/4 475/5/4
f 474/6/4 472/6/4 475/6/4
f 475/5/4 470/5/4 476/5/4
f 476/6/4 477/6/4 479/6/4
f 477/5/4 478/5/4 480/5/4
f 479/6/4 477/6/4 480/6/4
f 473/5/4 474/5/4 481/5/4
f 479/5/4 480/5/4 482/5/4
f 473/5/4 481/5/4 483/5/4
f 481/5/4 482/5/4 483/5/4
f 482/5/4 480/5/4 484/5/4
f 483/5/4 482/5/4 484/5/4
f 484/5/4 480/5/4 485/5/4
f 480/5/4 478/5/4 486/5/4
f 485/5/4 480/5/4 486/5/4
f 473/5/4 483/5/4 487/5/4
f 487/5/4 483/5/4 488/5/4
f 485/6/4 486/6/4 490/6/4
f 486/5/4 478/5/4 491/5/4
f 490/6/4 486/6/4 491/6/4
f 491/5/4 478/5/4 492/5/4
f 488/6/4 489/6/4 493/6/4
f 489/5/4 490/5/4 494/5/4
f 493/6/4 489/6/4 494/6/4
f 493/5/4 494/5/4 495/5/4
f 494/5/4 490/5/4 496/5/4
f 495/5/4 494/5/4 496/5/4
f 497/5/4 498/5/4 499/5/4
f 499/5/4 498/5/4 500/5/4
f 501/12/4 502/12/4 503/12/4
f 503/12/4 502/12/4 504/12/4
f 505/12/4 506/12/4 507/12/4
f 507/12/4 506/12/4 508/12/4
f 511/5/5 510/5/5 509/5/5
f 512/5/5 510/5/5 511/5/5
f 513/5/5 510/5/5 512/5/5
f 514/5/5 510/5/5 513/5/5
f 515/5/5 510/5/5 514/5/5
f 516/5/5 510/5/5 515/5/5
f 517/12/5 512/12/5 511/12/5
f 518/3/5 513/3/5 512/3/5
f 518/12/5 512/12/5 517/12/5
f 519/1/5 514/1/5 513/1/5
f 519/3/5 513/3/5 518/3/5
f 520/3/5 515/3/5 514/3/5
f 520/1/5 514/1/5 519/1/5
f 521/12/5 516/12/5 515/12/5
f 521/3/5 515/3/5 520/3/5
f 522/12/5 516/12/5 521/12/5
f 523/5/5 518/5/5 517/5/5
f 523/5/5 519/5/5 518/5/5
f 523/5/5 522/5/5 521/5/5
f 523/5/5 521/5/5 520/5/5
f 523/5/5 520/5/5 519/5/5
f 524/5/5 522/5/5 523/5/5
f 529/5/5 526/5/5 525/5/5
f 530/5/5 526/5/5 529/5/5
f 531/5/5 528/5/5 527/5/5
f 532/5/5 528/5/5 531/5/5
f 533/5/5 529/5/5 525/5/5
f 534/6/5 530/6/5 529/6/5
f 534/5/5 529/5/5 533/5/5
f 535/5/5 526/5/5 530/5/5
f 535/6/5 530/6/5 534/6/5
f 536/5/5 531/5/5 527/5/5
f 536/6/5 532/6/5 531/6/5
f 537/5/5 528/5/5 532/5/5
f 537/6/5 532/6/5 536/6/5
f 538/5/5 528/5/5 537/5/5
f 539/4/5 534/4/5 533/4/5
f 539/5/5 526/5/5 535/5/5
f 539/4/5 535/4/5 534/4/5
f 540/5/5 526/5/5 539/5/5
f 541/5/5 536/5/5 527/5/5
f 542/4/5 538/4/5 537/4/5
f 542/5/5 536/5/5 541/5/5
f 542/4/5 537/4/5 536/4/5
f 544/4/5 539/4/5 533/4/5
f 545/6/5 540/6/5 539/6/5
f 545/4/5 539/4/5 544/4/5
f 546/4/5 538/4/5 542/4/5
f 546/6/5 542/6/5 541/6/5
f 547/4/5 538/4/5 546/4/5
f 549/4/5 544/4/5 543/4/5
f 550/3/5 545/3/5 544/3/5
f 550/4/5 544/4/5 549/4/5
f 551/3/5 547/3/5 546/3/5
f 551/4/5 548/4/5 547/4/5
f 552/4/5 548/4/5 551/4/5
f 553/3/5 550/3/5 549/3/5
f 554/3/5 550/3/5 553/3/5
f 555/3/5 545/3/5 550/3/5
f 555/3/5 550/3/5 554/3/5
f 555/6/5 540/6/5 545/6/5
f 556/5/5 526/5/5 540/5/5
f 556/6/5 540/6/5 555/6/5
f 557/5/5 526/5/5 556/5/5
f 558/5/5 541/5/5 527/5/5
f 559/6/5 546/6/5 541/6/5
f 559/5/5 541/5/5 558/5/5
f 560/3/5 551/3/5 546/3/5
f 560/6/5 546/6/5 559/6/5
f 560/3/5 552/3/5 551/3/5
f 561/3/5 552/3/5 560/3/5
f 562/3/5 552/3/5 561/3/5
f 563/5/5 554/5/5 553/5/5
f 563/6/5 555/6/5 554/6/5
f 564/6/5 555/6/5 563/6/5
f 565/6/5 561/6/5 560/6/5
f 566/5/5 562/5/5 561/5/5
f 566/6/5 561/6/5 565/6/5
f 567/5/5 564/5/5 563/5/5
f 567/5/5 563/5/5 553/5/5
f 568/5/5 564/5/5 567/5/5
f 569/5/5 566/5/5 565/5/5
f 570/5/5 562/5/5 566/5/5
f 570/5/5 566/5/5 569/5/5
f 573/6/5 572/6/5 571/6/5
f 574/6/5 572/6/5 573/6/5
f 575/5/5 574/5/5 573/5/5
f 576/5/5 574/5/5 575/5/5
f 577/5/5 574/5/5 576/5/5
f 578/5/5 574/5/5 577/5/5
f 579/5/5 575/5/5 573/5/5
f 579/6/5 576/6/5 575/6/5
f 580/8/5 577/8/5 576/8/5
f 580/6/5 576/6/5 579/6/5
f 581/6/5 578/6/5 577/6/5
f 581/8/5 577/8/5 580/8/5
f 582/5/5 574/5/5 578/5/5
f 582/6/5 578/6/5 581/6/5
f 583/8/5 580/8/5 579/8/5
f 583/5/5 579/5/5 573/5/5
f 584/7/5 581/7/5 580/7/5
f 584/8/5 580/8/5 583/8/5
f 585/8/5 582/8/5 581/8/5
f 585/7/5 581/7/5 584/7/5
f 586/5/5 574/5/5 582/5/5
f 586/8/5 582/8/5 585/8/5
f 587/5/5 583/5/5 573/5/5
f 587/6/5 584/6/5 583/6/5
f 588/8/5 585/8/5 584/8/5
f 588/6/5 584/6/5 587/6/5
f 589/6/5 586/6/5 585/6/5
f 589/8/5 585/8/5 588/8/5
f 590/5/5 574/5/5 586/5/5
f 590/6/5 586/6/5 589/6/5
f 591/5/5 589/5/5 588/5/5
f 591/5/5 587/5/5 573/5/5
f 591/5/5 590/5/5 589/5/5
f 591/5/5 588/5/5 587/5/5
f 592/5/5 574/5/5 590/5/5
f 592/5/5 590/5/5 591/5/5
f 597/5/5 594/5/5 593/5/5
f 598/5/5 594/5/5 597/5/5
f 602/5/5 596/5/5 595/5/5
f 603/5/5 596/5/5 602/5/5
f 612/5/5 600/5/5 599/5/5
f 613/5/5 600/5/5 612/5/5
f 615/5/5 602/5/5 601/5/5
f 616/2/5 603/2/5 602/2/5
f 616/5/5 602/5/5 615/5/5
f 617/6/5 604/6/5 603/6/5
f 617/2/5 603/2/5 616/2/5
f 618/5/5 605/5/5 604/5/5
f 618/6/5 604/6/5 617/6/5
f 619/5/5 605/5/5 618/5/5
f 620/6/5 606/6/5 605/6/5
f 620/5/5 605/5/5 619/5/5
f 621/5/5 607/5/5 606/5/5
f 621/6/5 606/6/5 620/6/5
f 622/5/5 607/5/5 621/5/5
f 623/5/5 607/5/5 622/5/5
f 624/6/5 611/6/5 610/6/5
f 624/5/5 610/5/5 609/5/5
f 625/5/5 612/5/5 611/5/5
f 625/6/5 611/6/5 624/6/5
f 626/5/5 612/5/5 625/5/5
f 627/2/5 613/2/5 612/2/5
f 627/5/5 612/5/5 626/5/5
f 628/5/5 614/5/5 613/5/5
f 628/2/5 613/2/5 627/2/5
f 629/5/5 614/5/5 628/5/5
f 631/5/5 615/5/5 601/5/5
f 632/2/5 616/2/5 615/2/5
f 632/2/5 617/2/5 616/2/5
f 632/5/5 615/5/5 631/5/5
f 632/2/5 618/2/5 617/2/5
f 633/2/5 618/2/5 632/2/5
f 634/2/5 618/2/5 633/2/5
f 635/6/5 619/6/5 618/6/5
f 635/2/5 618/2/5 634/2/5
f 636/5/5 620/5/5 619/5/5
f 636/6/5 619/6/5 635/6/5
f 636/5/5 622/5/5 621/5/5
f 636/5/5 621/5/5 620/5/5
f 637/5/5 622/5/5 636/5/5
f 638/5/5 626/5/5 625/5/5
f 638/5/5 625/5/5 624/5/5
f 639/2/5 627/2/5 626/2/5
f 639/5/5 626/5/5 638/5/5
f 639/2/5 629/2/5 628/2/5
f 639/2/5 628/2/5 627/2/5
f 640/2/5 629/2/5 639/2/5
f 641/2/5 629/2/5 640/2/5
f 642/5/5 614/5/5 629/5/5
f 642/2/5 629/2/5 641/2/5
f 643/5/5 614/5/5 642/5/5
f 645/5/5 631/5/5 630/5/5
f 645/2/5 633/2/5 632/2/5
f 645/2/5 632/2/5 631/2/5
f 646/4/5 634/4/5 633/4/5
f 646/2/5 633/2/5 645/2/5
f 647/2/5 635/2/5 634/2/5
f 647/4/5 634/4/5 646/4/5
f 647/2/5 636/2/5 635/2/5
f 648/6/5 637/6/5 636/6/5
f 648/2/5 636/2/5 647/2/5
f 649/5/5 638/5/5 624/5/5
f 649/2/5 640/2/5 639/2/5
f 649/2/5 639/2/5 638/2/5
f 650/4/5 641/4/5 640/4/5
f 650/2/5 640/2/5 649/2/5
f 651/2/5 643/2/5 642/2/5
f 651/4/5 641/4/5 650/4/5
f 651/2/5 642/2/5 641/2/5
f 652/5/5 644/5/5 643/5/5
f 652/2/5 643/2/5 651/2/5
f 653/4/5 646/4/5 645/4/5
f 653/4/5 648/4/5 647/4/5
f 653/4/5 647/4/5 646/4/5
f 654/6/5 637/6/5 648/6/5
f 654/4/5 648/4/5 653/4/5
f 655/5/5 649/5/5 624/5/5
f 655/4/5 651/4/5 650/4/5
f 655/4/5 650/4/5 649/4/5
f 655/4/5 652/4/5 651/4/5
f 656/4/5 652/4/5 655/4/5
f 657/6/5 637/6/5 654/6/5
f 657/5/5 622/5/5 637/5/5
f 658/6/5 623/6/5 622/6/5
f 658/5/5 622/5/5 657/5/5
f 659/4/5 653/4/5 645/4/5
f 659/5/5 645/5/5 630/5/5
f 660/8/5 654/8/5 653/8/5
f 660/4/5 653/4/5 659/4/5
f 661/6/5 657/6/5 654/6/5
f 661/8/5 654/8/5 660/8/5
f 661/6/5 658/6/5 657/6/5
f 662/6/5 658/6/5 661/6/5
f 663/6/5 623/6/5 658/6/5
f 663/6/5 658/6/5 662/6/5
f 664/5/5 655/5/5 624/5/5
f 664/5/5 624/5/5 609/5/5
f 665/8/5 656/8/5 655/8/5
f 665/5/5 655/5/5 664/5/5
f 666/4/5 652/4/5 656/4/5
f 666/8/5 656/8/5 665/8/5
f 667/5/5 644/5/5 652/5/5
f 667/4/5 652/4/5 666/4/5
f 668/8/5 660/8/5 659/8/5
f 669/8/5 660/8/5 668/8/5
f 670/8/5 662/8/5 661/8/5
f 671/8/5 662/8/5 670/8/5
f 672/8/5 665/8/5 664/8/5
f 673/8/5 665/8/5 672/8/5
f 674/8/5 667/8/5 666/8/5
f 675/8/5 667/8/5 674/8/5
f 676/5/5 659/5/5 630/5/5
f 676/8/5 668/8/5 659/8/5
f 677/7/5 669/7/5 668/7/5
f 677/8/5 668/8/5 676/8/5
f 678/7/5 669/7/5 677/7/5
f 679/7/5 671/7/5 670/7/5
f 680/8/5 662/8/5 671/8/5
f 680/7/5 671/7/5 679/7/5
f 681/5/5 663/5/5 662/5/5
f 681/8/5 662/8/5 680/8/5
f 682/5/5 664/5/5 609/5/5
f 682/8/5 672/8/5 664/8/5
f 683/7/5 673/7/5 672/7/5
f 683/8/5 672/8/5 682/8/5
f 684/7/5 673/7/5 683/7/5
f 685/7/5 675/7/5 674/7/5
f 686/8/5 667/8/5 675/8/5
f 686/7/5 675/7/5 685/7/5
f 687/5/5 644/5/5 667/5/5
f 687/8/5 667/8/5 686/8/5
f 688/5/5 676/5/5 630/5/5
f 689/5/5 676/5/5 688/5/5
f 690/5/5 663/5/5 681/5/5
f 691/6/5 623/6/5 663/6/5
f 691/5/5 663/5/5 690/5/5
f 692/6/5 623/6/5 691/6/5
f 695/6/5 609/6/5 608/6/5
f 696/5/5 682/5/5 609/5/5
f 696/6/5 609/6/5 695/6/5
f 697/5/5 682/5/5 696/5/5
f 698/5/5 644/5/5 687/5/5
f 699/5/5 644/5/5 698/5/5
f 700/11/5 693/11/5 692/11/5
f 701/11/5 693/11/5 700/11/5
f 702/11/5 695/11/5 694/11/5
f 703/11/5 695/11/5 702/11/5
f 704/12/5 701/12/5 700/12/5
f 705/12/5 701/12/5 704/12/5
f 706/12/5 703/12/5 702/12/5
f 707/12/5 703/12/5 706/12/5
f 708/1/6 709/1/6 710/1/6
f 710/1/6 709/1/6 711/1/6
f 712/5/6 713/5/6 716/5/6
f 716/5/6 713/5/6 717/5/6
f 714/5/6 715/5/6 718/5/6
f 718/5/6 715/5/6 719/5/6
f 716/4/6 717/4/6 720/4/6
f 717/5/6 713/5/6 721/5/6
f 720/4/6 717/4/6 721/4/6
f 714/5/6 718/5/6 722/5/6
f 718/4/6 719/4/6 722/4/6
f 722/4/6 719/4/6 723/4/6
f 716/4/6 720/4/6 725/4/6
f 725/4/6 720/4/6 726/4/6
f 723/4/6 719/4/6 727/4/6
f 727/4/6 719/4/6 728/4/6
f 724/4/6 725/4/6 730/4/6
f 730/4/6 725/4/6 731/4/6
f 728/4/6 729/4/6 732/4/6
f 732/4/6 729/4/6 733/4/6
f 724/4/6 730/4/6 734/4/6
f 734/4/6 730/4/6 735/4/6
f 721/5/6 713/5/6 736/5/6
f 714/5/6 722/5/6 737/5/6
f 733/4/6 729/4/6 738/4/6
f 738/4/6 729/4/6 739/4/6
f 734/3/6 735/3/6 740/3/6
f 740/3/6 735/3/6 741/3/6
f 738/3/6 739/3/6 742/3/6
f 742/3/6 739/3/6 743/3/6
f 736/5/6 713/5/6 747/5/6
f 747/5/6 713/5/6 748/5/6
f 714/5/6 737/5/6 749/5/6
f 749/5/6 737/5/6 750/5/6
f 745/5/6 746/5/6 754/5/6
f 744/5/6 745/5/6 754/5/6
f 746/6/6 747/6/6 754/6/6
f 754/6/6 747/6/6 755/6/6
f 750/6/6 751/6/6 756/6/6
f 752/5/6 753/5/6 757/5/6
f 756/6/6 751/6/6 757/6/6
f 751/5/6 752/5/6 757/5/6
f 744/5/6 754/5/6 758/5/6
f 754/5/6 755/5/6 758/5/6
f 758/5/6 755/5/6 759/5/6
f 756/5/6 757/5/6 760/5/6
f 757/5/6 753/5/6 761/5/6
f 760/5/6 757/5/6 761/5/6
f 762/8/6 763/8/6 767/8/6
f 764/8/6 765/8/6 768/8/6
f 766/8/6 767/8/6 771/8/6
f 768/8/6 769/8/6 772/8/6
f 770/8/6 771/8/6 774/8/6
f 767/8/6 763/8/6 774/8/6
f 771/8/6 767/8/6 774/8/6
f 774/8/6 763/8/6 775/8/6
f 772/8/6 773/8/6 776/8/6
f 768/8/6 772/8/6 776/8/6
f 764/8/6 768/8/6 776/8/6
f 776/8/6 773/8/6 777/8/6
f 770/8/6 774/8/6 779/8/6
f 779/8/6 774/8/6 780/8/6
f 774/7/6 775/7/6 781/7/6
f 780/8/6 774/8/6 781/8/6
f 777/8/6 773/8/6 782/8/6
f 776/7/6 777/7/6 782/7/6
f 782/8/6 773/8/6 783/8/6
f 783/8/6 773/8/6 784/8/6
f 779/8/6 780/8/6 786/8/6
f 778/8/6 779/8/6 786/8/6
f 780/7/6 781/7/6 787/7/6
f 786/8/6 780/8/6 787/8/6
f 781/7/6 775/7/6 788/7/6
f 787/7/6 781/7/6 788/7/6
f 776/7/6 782/7/6 789/7/6
f 782/7/6 783/7/6 789/7/6
f 784/8/6 785/8/6 790/8/6
f 789/7/6 783/7/6 790/7/6
f 783/8/6 784/8/6 790/8/6
f 790/8/6 785/8/6 791/8/6
f 794/5/6 795/5/6 798/5/6
f 798/5/6 795/5/6 799/5/6
f 792/5/6 793/5/6 800/5/6
f 800/5/6 793/5/6 801/5/6
f 801/5/6 793/5/6 802/5/6
f 802/5/6 793/5/6 803/5/6
f 796/5/6 797/5/6 804/5/6
f 804/5/6 797/5/6 805/5/6
f 794/5/6 798/5/6 807/5/6
f 798/6/6 799/6/6 808/6/6
f 807/5/6 798/5/6 808/5/6
f 808/6/6 799/6/6 809/6/6
f 792/5/6 800/5/6 810/5/6
f 810/5/6 800/5/6 811/5/6
f 800/6/6 801/6/6 812/6/6
f 811/5/6 800/5/6 812/5/6
f 801/5/6 802/5/6 813/5/6
f 812/6/6 801/6/6 813/6/6
f 802/6/6 803/6/6 814/6/6
f 813/5/6 802/5/6 814/5/6
f 803/5/6 793/5/6 815/5/6
f 814/6/6 803/6/6 815/6/6
f 815/5/6 793/5/6 816/5/6
f 816/5/6 793/5/6 817/5/6
f 804/6/6 805/6/6 818/6/6
f 805/5/6 797/5/6 819/5/6
f 818/6/6 805/6/6 819/6/6
f 819/5/6 797/5/6 820/5/6
f 806/5/6 807/5/6 822/5/6
f 807/7/6 808/7/6 823/7/6
f 822/5/6 807/5/6 823/5/6
f 808/4/6 809/4/6 824/4/6
f 810/5/6 811/5/6 824/5/6
f 809/5/6 810/5/6 824/5/6
f 824/5/6 811/5/6 825/5/6
f 817/5/6 818/5/6 826/5/6
f 816/5/6 817/5/6 826/5/6
f 818/4/6 819/4/6 827/4/6
f 826/5/6 818/5/6 827/5/6
f 820/5/6 821/5/6 828/5/6
f 819/7/6 820/7/6 828/7/6
f 828/5/6 821/5/6 829/5/6
f 806/5/6 822/5/6 832/5/6
f 822/6/6 823/6/6 833/6/6
f 832/5/6 822/5/6 833/5/6
f 823/7/6 808/7/6 834/7/6
f 833/6/6 823/6/6 834/6/6
f 808/4/6 824/4/6 835/4/6
f 834/7/6 808/7/6 835/7/6
f 824/6/6 825/6/6 836/6/6
f 835/4/6 824/4/6 836/4/6
f 836/6/6 825/6/6 837/6/6
f 825/5/6 811/5/6 838/5/6
f 837/6/6 825/6/6 838/6/6
f 838/5/6 811/5/6 839/5/6
f 816/5/6 826/5/6 840/5/6
f 826/6/6 827/6/6 841/6/6
f 840/5/6 826/5/6 841/5/6
f 841/6/6 827/6/6 842/6/6
f 827/4/6 819/4/6 843/4/6
f 842/6/6 827/6/6 843/6/6
f 819/7/6 828/7/6 844/7/6
f 843/4/6 819/4/6 844/4/6
f 828/6/6 829/6/6 845/6/6
f 844/7/6 828/7/6 845/7/6
f 829/5/6 821/5/6 846/5/6
f 845/6/6 829/6/6 846/6/6
f 846/5/6 821/5/6 847/5/6
f 846/4/6 847/4/6 849/4/6
f 847/5/6 848/5/6 849/5/6
f 849/5/6 848/5/6 850/5/6
f 834/4/6 835/4/6 851/4/6
f 833/7/6 834/7/6 851/7/6
f 835/4/6 836/4/6 851/4/6
f 836/7/6 837/7/6 852/7/6
f 851/4/6 836/4/6 852/4/6
f 837/4/6 838/4/6 853/4/6
f 852/7/6 837/7/6 853/7/6
f 838/6/6 839/6/6 854/6/6
f 853/4/6 838/4/6 854/4/6
f 816/5/6 840/5/6 855/5/6
f 855/5/6 840/5/6 856/5/6
f 841/4/6 842/4/6 857/4/6
f 840/6/6 841/6/6 857/6/6
f 842/7/6 843/7/6 858/7/6
f 857/4/6 842/4/6 858/4/6
f 843/4/6 844/4/6 859/4/6
f 858/7/6 843/7/6 859/7/6
f 844/4/6 845/4/6 859/4/6
f 845/7/6 846/7/6 860/7/6
f 859/4/6 845/4/6 860/4/6
f 854/6/6 839/6/6 861/6/6
f 839/5/6 811/5/6 861/5/6
f 861/5/6 811/5/6 862/5/6
f 855/6/6 856/6/6 863/6/6
f 856/5/6 840/5/6 864/5/6
f 863/6/6 856/6/6 864/6/6
f 864/5/6 840/5/6 865/5/6
f 840/6/6 857/6/6 866/6/6
f 865/5/6 840/5/6 866/5/6
f 832/4/6 833/4/6 867/4/6
f 831/6/6 832/6/6 867/6/6
f 833/7/6 851/7/6 868/7/6
f 867/4/6 833/4/6 868/4/6
f 851/8/6 852/8/6 869/8/6
f 868/7/6 851/7/6 869/7/6
f 852/8/6 853/8/6 869/8/6
f 853/7/6 854/7/6 870/7/6
f 869/8/6 853/8/6 870/8/6
f 854/6/6 861/6/6 871/6/6
f 870/7/6 854/7/6 871/7/6
f 861/6/6 862/6/6 871/6/6
f 862/5/6 811/5/6 872/5/6
f 871/6/6 862/6/6 872/6/6
f 872/5/6 811/5/6 873/5/6
f 873/5/6 811/5/6 874/5/6
f 865/6/6 866/6/6 875/6/6
f 864/5/6 865/5/6 875/5/6
f 863/5/6 864/5/6 875/5/6
f 866/6/6 857/6/6 876/6/6
f 875/6/6 866/6/6 876/6/6
f 857/7/6 858/7/6 876/7/6
f 859/8/6 860/8/6 877/8/6
f 876/7/6 858/7/6 877/7/6
f 858/8/6 859/8/6 877/8/6
f 860/7/6 846/7/6 878/7/6
f 877/8/6 860/8/6 878/8/6
f 846/4/6 849/4/6 879/4/6
f 878/7/6 846/7/6 879/7/6
f 849/6/6 850/6/6 880/6/6
f 879/4/6 849/4/6 880/4/6
f 868/8/6 869/8/6 881/8/6
f 867/7/6 868/7/6 881/7/6
f 881/8/6 869/8/6 882/8/6
f 871/8/6 872/8/6 883/8/6
f 883/8/6 872/8/6 884/8/6
f 873/6/6 874/6/6 885/6/6
f 872/5/6 873/5/6 885/5/6
f 885/6/6 874/6/6 886/6/6
f 875/8/6 876/8/6 887/8/6
f 887/8/6 876/8/6 888/8/6
f 878/8/6 879/8/6 889/8/6
f 879/7/6 880/7/6 890/7/6
f 889/8/6 879/8/6 890/8/6
f 831/6/6 867/6/6 891/6/6
f 830/5/6 831/5/6 891/5/6
f 881/7/6 882/7/6 892/7/6
f 891/6/6 867/6/6 892/6/6
f 867/7/6 881/7/6 892/7/6
f 892/7/6 882/7/6 893/7/6
f 883/7/6 884/7/6 894/7/6
f 884/8/6 872/8/6 895/8/6
f 894/7/6 884/7/6 895/7/6
f 885/5/6 886/5/6 896/5/6
f 895/8/6 872/8/6 896/8/6
f 872/5/6 885/5/6 896/5/6
f 863/5/6 875/5/6 897/5/6
f 875/8/6 887/8/6 897/8/6
f 887/7/6 888/7/6 898/7/6
f 897/8/6 887/8/6 898/8/6
f 898/7/6 888/7/6 899/7/6
f 889/7/6 890/7/6 900/7/6
f 880/6/6 850/6/6 901/6/6
f 900/7/6 890/7/6 901/7/6
f 890/7/6 880/7/6 901/7/6
f 850/5/6 848/5/6 902/5/6
f 901/6/6 850/6/6 902/6/6
f 891/5/6 892/5/6 903/5/6
f 830/5/6 891/5/6 903/5/6
f 903/5/6 892/5/6 904/5/6
f 896/5/6 886/5/6 905/5/6
f 905/5/6 886/5/6 906/5/6
f 863/5/6 897/5/6 911/5/6
f 911/5/6 897/5/6 912/5/6
f 901/5/6 902/5/6 913/5/6
f 902/5/6 848/5/6 914/5/6
f 913/5/6 902/5/6 914/5/6
f 906/11/6 907/11/6 915/11/6
f 907/11/6 908/11/6 915/11/6
f 915/11/6 908/11/6 916/11/6
f 910/11/6 911/11/6 917/11/6
f 909/11/6 910/11/6 917/11/6
f 917/11/6 911/11/6 918/11/6
f 915/12/6 916/12/6 919/12/6
f 919/12/6 916/12/6 920/12/6
f 917/12/6 918/12/6 921/12/6
f 921/12/6 918/12/6 922/12/6
f 923/5/6 924/5/6 925/5/6
f 925/5/6 924/5/6 926/5/6
