# MagicaVoxel @ Ephtracy

# group
o 

# material
mtllib SlimePuddle4.mtl
usemtl palette

# normals
vn -1 0 0
vn 1 0 0
vn 0 0 1
vn 0 0 -1
vn 0 -1 0
vn 0 1 0

# texcoords
vt 0.888672 0.5
vt 0.892578 0.5
vt 0.896484 0.5

# verts
v -1.4 -0.8 0.1
v -1.4 -0.8 -2.98023e-08
v -1.4 -0.8 -0.4
v -1.4 -0.8 -1
v -1.4 -0.7 0.1
v -1.4 -0.7 -2.98023e-08
v -1.4 -0.7 -0.4
v -1.4 -0.7 -0.5
v -1.4 -0.7 -0.6
v -1.4 -0.7 -0.7
v -1.4 -0.7 -0.9
v -1.4 -0.7 -1
v -1.4 -0.6 0.1
v -1.4 -0.6 -2.98023e-08
v -1.4 -0.6 -0.4
v -1.4 -0.6 -0.5
v -1.4 -0.6 -0.6
v -1.4 -0.6 -0.7
v -1.4 -0.6 -0.9
v -1.4 -0.6 -1
v -1.3 -0.8 0.3
v -1.3 -0.8 0.1
v -1.3 -0.8 -2.98023e-08
v -1.3 -0.8 -0.4
v -1.3 -0.8 -1
v -1.3 -0.8 -1.2
v -1.3 -0.7 0.3
v -1.3 -0.7 0.2
v -1.3 -0.7 0.1
v -1.3 -0.7 -2.98023e-08
v -1.3 -0.7 -0.2
v -1.3 -0.7 -0.3
v -1.3 -0.7 -0.4
v -1.3 -0.7 -0.8
v -1.3 -0.7 -0.9
v -1.3 -0.7 -1
v -1.3 -0.7 -1.2
v -1.3 -0.6 0.2
v -1.3 -0.6 0.1
v -1.3 -0.6 -2.98023e-08
v -1.3 -0.6 -0.2
v -1.3 -0.6 -0.3
v -1.3 -0.6 -0.4
v -1.3 -0.6 -0.8
v -1.3 -0.6 -0.9
v -1.2 -0.7 -0.2
v -1.2 -0.7 -0.3
v -1.2 -0.7 -0.5
v -1.2 -0.7 -0.6
v -1.2 -0.7 -0.7
v -1.2 -0.7 -0.8
v -1.2 -0.7 -1
v -1.2 -0.7 -1.2
v -1.2 -0.6 -0.2
v -1.2 -0.6 -0.3
v -1.2 -0.6 -0.5
v -1.2 -0.6 -0.6
v -1.2 -0.6 -0.7
v -1.2 -0.6 -0.8
v -1.2 -0.6 -1
v -1.2 -0.6 -1.2
v -1.1 -0.8 -1.2
v -1.1 -0.8 -1.3
v -1.1 -0.7 -1.2
v -1.1 -0.7 -1.3
v -0.9 -0.7 -0.7
v -0.9 -0.7 -0.8
v -0.9 -0.6 -2.98023e-08
v -0.9 -0.6 -0.3
v -0.9 -0.6 -0.7
v -0.9 -0.6 -0.8
v -0.9 -0.5 -2.98023e-08
v -0.9 -0.5 -0.3
v -0.8 -0.8 -1.3
v -0.8 -0.8 -1.4
v -0.8 -0.7 -1.3
v -0.8 -0.7 -1.4
v -0.8 -0.6 -0.3
v -0.8 -0.6 -0.9
v -0.8 -0.6 -1.1
v -0.8 -0.5 -0.3
v -0.8 -0.5 -0.9
v -0.8 -0.5 -1.1
v -0.7 -0.7 -0.1
v -0.7 -0.7 -0.2
v -0.7 -0.5 -0.1
v -0.7 -0.5 -0.2
v -0.4 -0.8 -1.3
v -0.4 -0.8 -1.4
v -0.4 -0.7 -1.3
v -0.4 -0.7 -1.4
v -1.2 -0.8 0.3
v -1.2 -0.8 0.2
v -1.2 -0.7 0.3
v -1.2 -0.7 0.2
v -1.1 -0.8 0.2
v -1.1 -0.8 0.1
v -1.1 -0.7 0.2
v -1.1 -0.7 0.1
v -1.1 -0.6 0.2
v -1.1 -0.6 0.1
v -1 -0.7 -0.7
v -1 -0.7 -0.8
v -1 -0.6 -0.7
v -1 -0.6 -0.8
v -0.9 -0.8 0.1
v -0.9 -0.8 -2.98023e-08
v -0.9 -0.7 0.1
v -0.9 -0.7 -2.98023e-08
v -0.9 -0.6 0.1
v -0.9 -0.6 -2.98023e-08
v -0.8 -0.8 -2.98023e-08
v -0.8 -0.8 -0.1
v -0.8 -0.7 -2.98023e-08
v -0.8 -0.7 -0.1
v -0.8 -0.7 -0.2
v -0.8 -0.5 -2.98023e-08
v -0.8 -0.5 -0.2
v -0.6 -0.8 -0.1
v -0.6 -0.8 -0.2
v -0.6 -0.8 -1.3
v -0.6 -0.8 -1.4
v -0.6 -0.7 -0.1
v -0.6 -0.7 -0.2
v -0.6 -0.7 -1.3
v -0.6 -0.7 -1.4
v -0.6 -0.5 -0.1
v -0.6 -0.5 -0.2
v -0.5 -0.8 -0.2
v -0.5 -0.8 -0.3
v -0.5 -0.7 -0.2
v -0.5 -0.7 -0.3
v -0.5 -0.6 -0.3
v -0.5 -0.6 -0.4
v -0.5 -0.5 -0.2
v -0.5 -0.5 -0.4
v -0.4 -0.8 -0.3
v -0.4 -0.8 -0.4
v -0.4 -0.7 -0.3
v -0.4 -0.7 -0.4
v -0.3 -0.8 -0.4
v -0.3 -0.8 -1.2
v -0.3 -0.7 -0.3
v -0.3 -0.7 -0.4
v -0.3 -0.7 -1.1
v -0.3 -0.7 -1.2
v -0.3 -0.6 -0.3
v -0.3 -0.6 -0.4
v -0.2 -0.8 -1.2
v -0.2 -0.8 -1.4
v -0.2 -0.7 -0.4
v -0.2 -0.7 -1.1
v -0.2 -0.7 -1.2
v -0.2 -0.7 -1.4
v -0.2 -0.6 -1.1
v -0.2 -0.6 -1.2
v -0.2 -0.5 -0.4
v -0.2 -0.5 -1.1
v -1.3 -0.8 0.3
v -1.3 -0.7 0.3
v -1.2 -0.8 0.3
v -1.2 -0.7 0.3
v -1.3 -0.7 0.2
v -1.3 -0.6 0.2
v -1.2 -0.8 0.2
v -1.2 -0.7 0.2
v -1.1 -0.8 0.2
v -1.1 -0.7 0.2
v -1.1 -0.6 0.2
v -1.4 -0.8 0.1
v -1.4 -0.7 0.1
v -1.4 -0.6 0.1
v -1.3 -0.8 0.1
v -1.3 -0.7 0.1
v -1.3 -0.6 0.1
v -1.1 -0.8 0.1
v -1.1 -0.7 0.1
v -1.1 -0.6 0.1
v -0.9 -0.8 0.1
v -0.9 -0.7 0.1
v -0.9 -0.6 0.1
v -0.9 -0.8 -2.98023e-08
v -0.9 -0.7 -2.98023e-08
v -0.9 -0.6 -2.98023e-08
v -0.9 -0.5 -2.98023e-08
v -0.8 -0.8 -2.98023e-08
v -0.8 -0.7 -2.98023e-08
v -0.8 -0.5 -2.98023e-08
v -0.8 -0.8 -0.1
v -0.8 -0.7 -0.1
v -0.7 -0.7 -0.1
v -0.7 -0.5 -0.1
v -0.6 -0.8 -0.1
v -0.6 -0.7 -0.1
v -0.6 -0.5 -0.1
v -0.8 -0.7 -0.2
v -0.8 -0.5 -0.2
v -0.7 -0.7 -0.2
v -0.7 -0.5 -0.2
v -0.6 -0.8 -0.2
v -0.6 -0.7 -0.2
v -0.6 -0.5 -0.2
v -0.5 -0.8 -0.2
v -0.5 -0.7 -0.2
v -0.5 -0.5 -0.2
v -1.3 -0.7 -0.3
v -1.3 -0.6 -0.3
v -1.2 -0.7 -0.3
v -1.2 -0.6 -0.3
v -0.5 -0.8 -0.3
v -0.5 -0.7 -0.3
v -0.5 -0.6 -0.3
v -0.4 -0.8 -0.3
v -0.4 -0.7 -0.3
v -0.3 -0.7 -0.3
v -0.3 -0.6 -0.3
v -1.4 -0.8 -0.4
v -1.4 -0.7 -0.4
v -1.4 -0.6 -0.4
v -1.3 -0.8 -0.4
v -1.3 -0.7 -0.4
v -1.3 -0.6 -0.4
v -0.5 -0.6 -0.4
v -0.5 -0.5 -0.4
v -0.4 -0.8 -0.4
v -0.4 -0.7 -0.4
v -0.3 -0.8 -0.4
v -0.3 -0.7 -0.4
v -0.3 -0.6 -0.4
v -0.2 -0.7 -0.4
v -0.2 -0.5 -0.4
v -1.4 -0.7 -0.6
v -1.4 -0.6 -0.6
v -1.3 -0.7 -0.6
v -1.3 -0.6 -0.6
v -1.2 -0.7 -0.6
v -1.2 -0.6 -0.6
v -1.3 -0.7 -0.8
v -1.3 -0.6 -0.8
v -1.2 -0.7 -0.8
v -1.2 -0.6 -0.8
v -1 -0.7 -0.8
v -1 -0.6 -0.8
v -0.9 -0.7 -0.8
v -0.9 -0.6 -0.8
v -1.4 -0.7 -0.9
v -1.4 -0.6 -0.9
v -1.3 -0.7 -0.9
v -1.3 -0.6 -0.9
v -0.3 -0.8 -1.2
v -0.3 -0.7 -1.2
v -0.2 -0.8 -1.2
v -0.2 -0.7 -1.2
v -1.4 -0.8 -2.98023e-08
v -1.4 -0.7 -2.98023e-08
v -1.4 -0.6 -2.98023e-08
v -1.3 -0.8 -2.98023e-08
v -1.3 -0.7 -2.98023e-08
v -1.3 -0.6 -2.98023e-08
v -1.3 -0.7 -0.2
v -1.3 -0.6 -0.2
v -1.2 -0.7 -0.2
v -1.2 -0.6 -0.2
v -0.9 -0.6 -0.3
v -0.9 -0.5 -0.3
v -0.8 -0.6 -0.3
v -0.8 -0.5 -0.3
v -1.4 -0.7 -0.5
v -1.4 -0.6 -0.5
v -1.3 -0.7 -0.5
v -1.3 -0.6 -0.5
v -1.2 -0.7 -0.5
v -1.2 -0.6 -0.5
v -1.4 -0.7 -0.7
v -1.4 -0.6 -0.7
v -1.3 -0.7 -0.7
v -1.3 -0.6 -0.7
v -1.2 -0.7 -0.7
v -1.2 -0.6 -0.7
v -1 -0.7 -0.7
v -1 -0.6 -0.7
v -0.9 -0.7 -0.7
v -0.9 -0.6 -0.7
v -1.4 -0.8 -1
v -1.4 -0.7 -1
v -1.4 -0.6 -1
v -1.3 -0.8 -1
v -1.3 -0.7 -1
v -1.3 -0.6 -1
v -1.2 -0.7 -1
v -1.2 -0.6 -1
v -0.8 -0.6 -1.1
v -0.8 -0.5 -1.1
v -0.7 -0.6 -1.1
v -0.7 -0.5 -1.1
v -0.4 -0.6 -1.1
v -0.4 -0.5 -1.1
v -0.2 -0.6 -1.1
v -0.2 -0.5 -1.1
v -1.3 -0.8 -1.2
v -1.3 -0.7 -1.2
v -1.2 -0.7 -1.2
v -1.2 -0.6 -1.2
v -1.1 -0.8 -1.2
v -1.1 -0.7 -1.2
v -1.1 -0.6 -1.2
v -0.7 -0.7 -1.2
v -0.7 -0.6 -1.2
v -0.4 -0.7 -1.2
v -0.4 -0.6 -1.2
v -0.2 -0.7 -1.2
v -0.2 -0.6 -1.2
v -1.1 -0.8 -1.3
v -1.1 -0.7 -1.3
v -0.8 -0.8 -1.3
v -0.8 -0.7 -1.3
v -0.6 -0.8 -1.3
v -0.6 -0.7 -1.3
v -0.4 -0.8 -1.3
v -0.4 -0.7 -1.3
v -0.8 -0.8 -1.4
v -0.8 -0.7 -1.4
v -0.6 -0.8 -1.4
v -0.6 -0.7 -1.4
v -0.4 -0.8 -1.4
v -0.4 -0.7 -1.4
v -0.2 -0.8 -1.4
v -0.2 -0.7 -1.4
v -1.3 -0.8 0.3
v -1.2 -0.8 0.3
v -1.2 -0.8 0.2
v -1.1 -0.8 0.2
v -1.4 -0.8 0.1
v -1.3 -0.8 0.1
v -1.1 -0.8 0.1
v -0.9 -0.8 0.1
v -1.4 -0.8 -2.98023e-08
v -1.3 -0.8 -2.98023e-08
v -0.9 -0.8 -2.98023e-08
v -0.8 -0.8 -2.98023e-08
v -0.8 -0.8 -0.1
v -0.6 -0.8 -0.1
v -0.6 -0.8 -0.2
v -0.5 -0.8 -0.2
v -0.5 -0.8 -0.3
v -0.4 -0.8 -0.3
v -1.4 -0.8 -0.4
v -1.3 -0.8 -0.4
v -0.4 -0.8 -0.4
v -0.3 -0.8 -0.4
v -1.4 -0.8 -1
v -1.3 -0.8 -1
v -1.3 -0.8 -1.2
v -1.1 -0.8 -1.2
v -0.3 -0.8 -1.2
v -0.2 -0.8 -1.2
v -1.1 -0.8 -1.3
v -0.8 -0.8 -1.3
v -0.6 -0.8 -1.3
v -0.4 -0.8 -1.3
v -0.8 -0.8 -1.4
v -0.6 -0.8 -1.4
v -0.4 -0.8 -1.4
v -0.2 -0.8 -1.4
v -0.4 -0.7 -0.3
v -0.3 -0.7 -0.3
v -0.4 -0.7 -0.4
v -0.3 -0.7 -0.4
v -0.2 -0.7 -0.4
v -0.3 -0.7 -1.1
v -0.2 -0.7 -1.1
v -0.3 -0.7 -1.2
v -0.2 -0.7 -1.2
v -1.3 -0.7 0.3
v -1.2 -0.7 0.3
v -1.3 -0.7 0.2
v -1.2 -0.7 0.2
v -0.8 -0.7 -0.1
v -0.7 -0.7 -0.1
v -1.3 -0.7 -0.2
v -1.2 -0.7 -0.2
v -0.8 -0.7 -0.2
v -0.7 -0.7 -0.2
v -1.3 -0.7 -0.3
v -1.2 -0.7 -0.3
v -1.4 -0.7 -0.5
v -1.3 -0.7 -0.5
v -1.2 -0.7 -0.5
v -1.4 -0.7 -0.6
v -1.3 -0.7 -0.6
v -1.2 -0.7 -0.6
v -1.4 -0.7 -0.7
v -1.3 -0.7 -0.7
v -1.2 -0.7 -0.7
v -1 -0.7 -0.7
v -0.9 -0.7 -0.7
v -1.3 -0.7 -0.8
v -1.2 -0.7 -0.8
v -1 -0.7 -0.8
v -0.9 -0.7 -0.8
v -1.4 -0.7 -0.9
v -1.3 -0.7 -0.9
v -1.3 -0.7 -1
v -1.2 -0.7 -1
v -1.3 -0.7 -1.2
v -1.2 -0.7 -1.2
v -1.1 -0.7 -1.2
v -0.7 -0.7 -1.2
v -0.4 -0.7 -1.2
v -0.2 -0.7 -1.2
v -1.1 -0.7 -1.3
v -0.8 -0.7 -1.3
v -0.6 -0.7 -1.3
v -0.4 -0.7 -1.3
v -0.8 -0.7 -1.4
v -0.6 -0.7 -1.4
v -0.4 -0.7 -1.4
v -0.2 -0.7 -1.4
v -1.3 -0.6 0.2
v -1.1 -0.6 0.2
v -1.4 -0.6 0.1
v -1.3 -0.6 0.1
v -1.1 -0.6 0.1
v -0.9 -0.6 0.1
v -1.4 -0.6 -2.98023e-08
v -1.3 -0.6 -2.98023e-08
v -0.9 -0.6 -2.98023e-08
v -1.3 -0.6 -0.2
v -1.2 -0.6 -0.2
v -1.3 -0.6 -0.3
v -1.2 -0.6 -0.3
v -0.9 -0.6 -0.3
v -0.8 -0.6 -0.3
v -0.5 -0.6 -0.3
v -0.3 -0.6 -0.3
v -1.4 -0.6 -0.4
v -1.3 -0.6 -0.4
v -0.5 -0.6 -0.4
v -0.3 -0.6 -0.4
v -1.4 -0.6 -0.5
v -1.3 -0.6 -0.5
v -1.2 -0.6 -0.5
v -1.4 -0.6 -0.6
v -1.3 -0.6 -0.6
v -1.2 -0.6 -0.6
v -1.4 -0.6 -0.7
v -1.3 -0.6 -0.7
v -1.2 -0.6 -0.7
v -1 -0.6 -0.7
v -0.9 -0.6 -0.7
v -1.3 -0.6 -0.8
v -1.2 -0.6 -0.8
v -1 -0.6 -0.8
v -0.9 -0.6 -0.8
v -1.4 -0.6 -0.9
v -1.3 -0.6 -0.9
v -1 -0.6 -0.9
v -0.8 -0.6 -0.9
v -1.4 -0.6 -1
v -1.3 -0.6 -1
v -1.2 -0.6 -1
v -1.1 -0.6 -1
v -1.1 -0.6 -1.1
v -1 -0.6 -1.1
v -0.8 -0.6 -1.1
v -0.7 -0.6 -1.1
v -0.4 -0.6 -1.1
v -0.2 -0.6 -1.1
v -1.2 -0.6 -1.2
v -1.1 -0.6 -1.2
v -0.7 -0.6 -1.2
v -0.4 -0.6 -1.2
v -0.2 -0.6 -1.2
v -0.9 -0.5 -2.98023e-08
v -0.8 -0.5 -2.98023e-08
v -0.7 -0.5 -0.1
v -0.6 -0.5 -0.1
v -0.8 -0.5 -0.2
v -0.7 -0.5 -0.2
v -0.6 -0.5 -0.2
v -0.5 -0.5 -0.2
v -0.9 -0.5 -0.3
v -0.8 -0.5 -0.3
v -0.5 -0.5 -0.4
v -0.2 -0.5 -0.4
v -0.8 -0.5 -0.9
v -0.4 -0.5 -0.9
v -0.7 -0.5 -1
v -0.4 -0.5 -1
v -0.8 -0.5 -1.1
v -0.7 -0.5 -1.1
v -0.4 -0.5 -1.1
v -0.2 -0.5 -1.1

# faces
f 5/3/1 2/3/1 1/3/1
f 6/3/1 2/3/1 5/3/1
f 7/3/1 4/3/1 3/3/1
f 8/3/1 4/3/1 7/3/1
f 9/3/1 4/3/1 8/3/1
f 10/3/1 4/3/1 9/3/1
f 11/3/1 4/3/1 10/3/1
f 12/3/1 4/3/1 11/3/1
f 13/2/1 6/2/1 5/2/1
f 14/2/1 6/2/1 13/2/1
f 15/2/1 8/2/1 7/2/1
f 16/2/1 8/2/1 15/2/1
f 17/2/1 10/2/1 9/2/1
f 18/2/1 10/2/1 17/2/1
f 19/2/1 12/2/1 11/2/1
f 20/2/1 12/2/1 19/2/1
f 27/3/1 22/3/1 21/3/1
f 28/3/1 22/3/1 27/3/1
f 29/3/1 22/3/1 28/3/1
f 30/3/1 24/3/1 23/3/1
f 31/3/1 24/3/1 30/3/1
f 32/3/1 24/3/1 31/3/1
f 33/3/1 24/3/1 32/3/1
f 36/3/1 26/3/1 25/3/1
f 37/3/1 26/3/1 36/3/1
f 38/1/1 29/1/1 28/1/1
f 39/1/1 29/1/1 38/1/1
f 40/1/1 31/1/1 30/1/1
f 41/1/1 31/1/1 40/1/1
f 42/1/1 33/1/1 32/1/1
f 43/1/1 33/1/1 42/1/1
f 44/1/1 35/1/1 34/1/1
f 45/1/1 35/1/1 44/1/1
f 54/1/1 47/1/1 46/1/1
f 55/1/1 47/1/1 54/1/1
f 56/1/1 49/1/1 48/1/1
f 57/1/1 49/1/1 56/1/1
f 58/1/1 51/1/1 50/1/1
f 59/1/1 51/1/1 58/1/1
f 60/3/1 53/3/1 52/3/1
f 61/3/1 53/3/1 60/3/1
f 64/3/1 63/3/1 62/3/1
f 65/3/1 63/3/1 64/3/1
f 70/1/1 67/1/1 66/1/1
f 71/1/1 67/1/1 70/1/1
f 72/1/1 69/1/1 68/1/1
f 73/1/1 69/1/1 72/1/1
f 76/3/1 75/3/1 74/3/1
f 77/3/1 75/3/1 76/3/1
f 81/1/1 79/1/1 78/1/1
f 82/2/1 80/2/1 79/2/1
f 82/1/1 79/1/1 81/1/1
f 83/2/1 80/2/1 82/2/1
f 86/1/1 85/1/1 84/1/1
f 87/1/1 85/1/1 86/1/1
f 90/3/1 89/3/1 88/3/1
f 91/3/1 89/3/1 90/3/1
f 92/3/2 93/3/2 94/3/2
f 94/3/2 93/3/2 95/3/2
f 96/3/2 97/3/2 98/3/2
f 98/3/2 97/3/2 99/3/2
f 98/1/2 99/1/2 100/1/2
f 100/1/2 99/1/2 101/1/2
f 102/1/2 103/1/2 104/1/2
f 104/1/2 103/1/2 105/1/2
f 106/3/2 107/3/2 108/3/2
f 108/3/2 107/3/2 109/3/2
f 108/1/2 109/1/2 110/1/2
f 110/1/2 109/1/2 111/1/2
f 112/3/2 113/3/2 114/3/2
f 114/3/2 113/3/2 115/3/2
f 114/1/2 115/1/2 117/1/2
f 115/1/2 116/1/2 117/1/2
f 117/1/2 116/1/2 118/1/2
f 119/3/2 120/3/2 123/3/2
f 123/3/2 120/3/2 124/3/2
f 121/3/2 122/3/2 125/3/2
f 125/3/2 122/3/2 126/3/2
f 123/1/2 124/1/2 127/1/2
f 127/1/2 124/1/2 128/1/2
f 129/3/2 130/3/2 131/3/2
f 131/3/2 130/3/2 132/3/2
f 131/1/2 132/1/2 133/1/2
f 131/1/2 133/1/2 135/1/2
f 133/1/2 134/1/2 135/1/2
f 135/1/2 134/1/2 136/1/2
f 137/3/2 138/3/2 139/3/2
f 139/3/2 138/3/2 140/3/2
f 141/3/2 142/3/2 144/3/2
f 144/3/2 142/3/2 145/3/2
f 145/3/2 142/3/2 146/3/2
f 143/1/2 144/1/2 147/1/2
f 147/1/2 144/1/2 148/1/2
f 149/3/2 150/3/2 153/3/2
f 153/3/2 150/3/2 154/3/2
f 151/1/2 152/1/2 155/1/2
f 152/2/2 153/2/2 155/2/2
f 155/2/2 153/2/2 156/2/2
f 151/1/2 155/1/2 157/1/2
f 157/1/2 155/1/2 158/1/2
f 161/3/3 160/3/3 159/3/3
f 162/3/3 160/3/3 161/3/3
f 166/1/3 164/1/3 163/1/3
f 167/3/3 166/3/3 165/3/3
f 168/1/3 164/1/3 166/1/3
f 168/3/3 166/3/3 167/3/3
f 169/1/3 164/1/3 168/1/3
f 173/3/3 171/3/3 170/3/3
f 174/2/3 172/2/3 171/2/3
f 174/3/3 171/3/3 173/3/3
f 175/2/3 172/2/3 174/2/3
f 179/3/3 177/3/3 176/3/3
f 180/1/3 178/1/3 177/1/3
f 180/3/3 177/3/3 179/3/3
f 181/1/3 178/1/3 180/1/3
f 186/3/3 183/3/3 182/3/3
f 187/1/3 185/1/3 184/1/3
f 187/3/3 183/3/3 186/3/3
f 187/1/3 184/1/3 183/1/3
f 188/1/3 185/1/3 187/1/3
f 191/3/3 190/3/3 189/3/3
f 193/3/3 191/3/3 189/3/3
f 194/1/3 192/1/3 191/1/3
f 194/3/3 191/3/3 193/3/3
f 195/1/3 192/1/3 194/1/3
f 198/1/3 197/1/3 196/1/3
f 199/1/3 197/1/3 198/1/3
f 203/3/3 201/3/3 200/3/3
f 204/1/3 202/1/3 201/1/3
f 204/3/3 201/3/3 203/3/3
f 205/1/3 202/1/3 204/1/3
f 208/1/3 207/1/3 206/1/3
f 209/1/3 207/1/3 208/1/3
f 213/3/3 211/3/3 210/3/3
f 214/1/3 212/1/3 211/1/3
f 214/3/3 211/3/3 213/3/3
f 215/1/3 212/1/3 214/1/3
f 216/1/3 212/1/3 215/1/3
f 220/3/3 218/3/3 217/3/3
f 221/2/3 219/2/3 218/2/3
f 221/3/3 218/3/3 220/3/3
f 222/2/3 219/2/3 221/2/3
f 227/3/3 226/3/3 225/3/3
f 228/3/3 226/3/3 227/3/3
f 229/1/3 224/1/3 223/1/3
f 230/1/3 229/1/3 228/1/3
f 231/1/3 224/1/3 229/1/3
f 231/1/3 229/1/3 230/1/3
f 234/2/3 233/2/3 232/2/3
f 235/2/3 233/2/3 234/2/3
f 236/1/3 235/1/3 234/1/3
f 237/1/3 235/1/3 236/1/3
f 240/1/3 239/1/3 238/1/3
f 241/1/3 239/1/3 240/1/3
f 244/1/3 243/1/3 242/1/3
f 245/1/3 243/1/3 244/1/3
f 248/2/3 247/2/3 246/2/3
f 249/2/3 247/2/3 248/2/3
f 252/3/3 251/3/3 250/3/3
f 253/3/3 251/3/3 252/3/3
f 254/3/4 255/3/4 257/3/4
f 255/2/4 256/2/4 258/2/4
f 257/3/4 255/3/4 258/3/4
f 258/2/4 256/2/4 259/2/4
f 260/1/4 261/1/4 262/1/4
f 262/1/4 261/1/4 263/1/4
f 264/1/4 265/1/4 266/1/4
f 266/1/4 265/1/4 267/1/4
f 268/2/4 269/2/4 270/2/4
f 270/2/4 269/2/4 271/2/4
f 270/1/4 271/1/4 272/1/4
f 272/1/4 271/1/4 273/1/4
f 274/2/4 275/2/4 276/2/4
f 276/2/4 275/2/4 277/2/4
f 276/1/4 277/1/4 278/1/4
f 278/1/4 277/1/4 279/1/4
f 280/1/4 281/1/4 282/1/4
f 282/1/4 281/1/4 283/1/4
f 284/3/4 285/3/4 287/3/4
f 285/2/4 286/2/4 288/2/4
f 287/3/4 285/3/4 288/3/4
f 288/2/4 286/2/4 289/2/4
f 288/1/4 289/1/4 290/1/4
f 290/1/4 289/1/4 291/1/4
f 292/2/4 293/2/4 294/2/4
f 294/2/4 293/2/4 295/2/4
f 294/3/4 295/3/4 296/3/4
f 296/3/4 295/3/4 297/3/4
f 296/1/4 297/1/4 298/1/4
f 298/1/4 297/1/4 299/1/4
f 300/3/4 301/3/4 302/3/4
f 300/3/4 302/3/4 304/3/4
f 302/3/4 303/3/4 304/3/4
f 304/3/4 303/3/4 305/3/4
f 305/3/4 303/3/4 306/3/4
f 305/2/4 306/2/4 307/2/4
f 307/2/4 306/2/4 308/2/4
f 307/3/4 308/3/4 309/3/4
f 309/3/4 308/3/4 310/3/4
f 309/2/4 310/2/4 311/2/4
f 311/2/4 310/2/4 312/2/4
f 313/3/4 314/3/4 315/3/4
f 315/3/4 314/3/4 316/3/4
f 317/3/4 318/3/4 319/3/4
f 319/3/4 318/3/4 320/3/4
f 321/3/4 322/3/4 323/3/4
f 323/3/4 322/3/4 324/3/4
f 325/3/4 326/3/4 327/3/4
f 327/3/4 326/3/4 328/3/4
f 331/3/5 330/3/5 329/3/5
f 334/3/5 331/3/5 329/3/5
f 334/3/5 332/3/5 331/3/5
f 335/3/5 332/3/5 334/3/5
f 337/3/5 334/3/5 333/3/5
f 337/3/5 336/3/5 335/3/5
f 337/3/5 335/3/5 334/3/5
f 338/3/5 336/3/5 337/3/5
f 339/3/5 336/3/5 338/3/5
f 341/3/5 340/3/5 339/3/5
f 341/3/5 339/3/5 338/3/5
f 343/3/5 342/3/5 341/3/5
f 345/3/5 344/3/5 343/3/5
f 348/3/5 341/3/5 338/3/5
f 348/3/5 346/3/5 345/3/5
f 348/3/5 345/3/5 343/3/5
f 348/3/5 343/3/5 341/3/5
f 349/3/5 346/3/5 348/3/5
f 351/3/5 348/3/5 347/3/5
f 351/3/5 350/3/5 349/3/5
f 351/3/5 349/3/5 348/3/5
f 352/3/5 350/3/5 351/3/5
f 353/3/5 350/3/5 352/3/5
f 354/3/5 350/3/5 353/3/5
f 355/3/5 350/3/5 354/3/5
f 357/3/5 356/3/5 355/3/5
f 357/3/5 355/3/5 354/3/5
f 358/3/5 356/3/5 357/3/5
f 359/3/5 356/3/5 358/3/5
f 360/3/5 356/3/5 359/3/5
f 361/3/5 359/3/5 358/3/5
f 362/3/5 359/3/5 361/3/5
f 363/3/5 356/3/5 360/3/5
f 364/3/5 356/3/5 363/3/5
f 367/1/5 366/1/5 365/1/5
f 368/1/5 366/1/5 367/1/5
f 370/1/5 369/1/5 368/1/5
f 371/1/5 369/1/5 370/1/5
f 372/2/5 371/2/5 370/2/5
f 373/2/5 371/2/5 372/2/5
f 374/3/6 375/3/6 376/3/6
f 376/3/6 375/3/6 377/3/6
f 378/3/6 379/3/6 382/3/6
f 382/3/6 379/3/6 383/3/6
f 380/3/6 381/3/6 384/3/6
f 384/3/6 381/3/6 385/3/6
f 386/3/6 387/3/6 389/3/6
f 387/3/6 388/3/6 389/3/6
f 389/3/6 388/3/6 390/3/6
f 390/3/6 388/3/6 391/3/6
f 393/3/6 394/3/6 397/3/6
f 392/3/6 393/3/6 397/3/6
f 397/3/6 394/3/6 398/3/6
f 395/3/6 396/3/6 399/3/6
f 399/3/6 396/3/6 400/3/6
f 392/3/6 397/3/6 401/3/6
f 401/3/6 397/3/6 402/3/6
f 403/3/6 404/3/6 405/3/6
f 405/3/6 404/3/6 406/3/6
f 407/3/6 408/3/6 411/3/6
f 409/3/6 410/3/6 411/3/6
f 408/3/6 409/3/6 411/3/6
f 411/3/6 410/3/6 412/3/6
f 412/3/6 410/3/6 413/3/6
f 413/3/6 410/3/6 414/3/6
f 412/3/6 413/3/6 415/3/6
f 415/3/6 413/3/6 416/3/6
f 414/3/6 410/3/6 417/3/6
f 417/3/6 410/3/6 418/3/6
f 419/1/6 420/1/6 422/1/6
f 422/1/6 420/1/6 423/1/6
f 421/2/6 422/2/6 425/2/6
f 423/1/6 424/1/6 426/1/6
f 425/2/6 422/2/6 426/2/6
f 422/1/6 423/1/6 426/1/6
f 426/1/6 424/1/6 427/1/6
f 426/1/6 427/1/6 428/1/6
f 428/1/6 427/1/6 429/1/6
f 429/1/6 427/1/6 431/1/6
f 431/1/6 427/1/6 432/1/6
f 431/1/6 432/1/6 437/1/6
f 430/1/6 431/1/6 437/1/6
f 432/1/6 433/1/6 437/1/6
f 434/1/6 435/1/6 438/1/6
f 438/1/6 435/1/6 439/1/6
f 436/2/6 437/2/6 440/2/6
f 437/1/6 433/1/6 441/1/6
f 440/2/6 437/2/6 441/2/6
f 441/1/6 433/1/6 442/1/6
f 442/1/6 433/1/6 445/1/6
f 443/2/6 444/2/6 446/2/6
f 444/1/6 445/1/6 447/1/6
f 446/2/6 444/2/6 447/2/6
f 445/1/6 433/1/6 448/1/6
f 447/1/6 445/1/6 448/1/6
f 448/1/6 433/1/6 449/1/6
f 449/1/6 433/1/6 450/1/6
f 448/1/6 449/1/6 452/1/6
f 452/1/6 449/1/6 453/1/6
f 450/1/6 433/1/6 454/1/6
f 452/1/6 453/1/6 456/1/6
f 453/1/6 454/1/6 456/1/6
f 451/1/6 452/1/6 456/1/6
f 456/1/6 454/1/6 457/1/6
f 454/1/6 433/1/6 458/1/6
f 457/1/6 454/1/6 458/1/6
f 455/2/6 456/2/6 459/2/6
f 456/1/6 457/1/6 460/1/6
f 459/2/6 456/2/6 460/2/6
f 460/1/6 457/1/6 461/1/6
f 461/1/6 457/1/6 462/1/6
f 462/1/6 457/1/6 463/1/6
f 461/3/6 462/3/6 463/3/6
f 457/2/6 458/2/6 464/2/6
f 463/1/6 457/1/6 464/1/6
f 464/2/6 458/2/6 465/2/6
f 461/3/6 463/3/6 469/3/6
f 464/2/6 465/2/6 470/2/6
f 469/3/6 463/3/6 470/3/6
f 463/2/6 464/2/6 470/2/6
f 465/2/6 466/2/6 470/2/6
f 466/3/6 467/3/6 471/3/6
f 470/2/6 466/2/6 471/2/6
f 467/2/6 468/2/6 472/2/6
f 471/3/6 467/3/6 472/3/6
f 472/2/6 468/2/6 473/2/6
f 474/1/6 475/1/6 478/1/6
f 476/1/6 477/1/6 479/1/6
f 479/1/6 477/1/6 480/1/6
f 474/1/6 478/1/6 482/1/6
f 480/1/6 481/1/6 482/1/6
f 479/1/6 480/1/6 482/1/6
f 478/1/6 479/1/6 482/1/6
f 482/1/6 481/1/6 483/1/6
f 483/1/6 481/1/6 484/1/6
f 483/1/6 484/1/6 486/1/6
f 484/1/6 485/1/6 486/1/6
f 486/1/6 485/1/6 487/1/6
f 486/2/6 487/2/6 488/2/6
f 487/1/6 485/1/6 489/1/6
f 488/2/6 487/2/6 489/2/6
f 486/2/6 488/2/6 490/2/6
f 488/3/6 489/3/6 491/3/6
f 490/2/6 488/2/6 491/2/6
f 489/1/6 485/1/6 492/1/6
f 491/3/6 489/3/6 492/3/6
f 492/1/6 485/1/6 493/1/6
