# MagicaVoxel @ Ephtracy

# group
o 

# material
mtllib SlimePuddle2.mtl
usemtl palette

# normals
vn -1 0 0
vn 1 0 0
vn 0 0 1
vn 0 0 -1
vn 0 -1 0
vn 0 1 0

# texcoords
vt 0.888672 0.5
vt 0.892578 0.5
vt 0.896484 0.5

# verts
v -0.2 -0.8 1.3
v -0.2 -0.8 0
v -0.2 -0.7 1.3
v -0.2 -0.7 1.2
v -0.2 -0.7 1.1
v -0.2 -0.7 0
v -0.2 -0.6 1.2
v -0.2 -0.6 1.1
v -0.2 -0.6 0.9
v -0.2 -0.5 0.9
v -0.2 -0.5 0
v -0.0999999 -0.8 1.4
v -0.0999999 -0.8 1.3
v -0.0999999 -0.7 1.4
v -0.0999999 -0.7 1.3
v 0.1 -0.8 1.4
v 0.1 -0.8 1.3
v 0.1 -0.7 1.4
v 0.1 -0.7 1.3
v 0.3 -0.7 1.2
v 0.3 -0.7 1.1
v 0.3 -0.6 1.2
v 0.3 -0.6 1.1
v 0.3 -0.6 0.8
v 0.3 -0.6 0.4
v 0.3 -0.5 0.8
v 0.3 -0.5 0.4
v 0.4 -0.7 0.1
v 0.4 -0.7 0
v 0.4 -0.5 0.1
v 0.4 -0.5 0
v 0.7 -0.7 1.2
v 0.7 -0.7 1.1
v 0.7 -0.6 1.2
v 0.7 -0.6 1.1
v 0.9 -0.7 0.9
v 0.9 -0.7 0.8
v 0.9 -0.6 0.9
v 0.9 -0.6 0.8
v 1.2 -0.8 0.6
v 1.2 -0.8 0.5
v 1.2 -0.8 0.2
v 1.2 -0.8 0
v 1.2 -0.7 0.6
v 1.2 -0.7 0.5
v 1.2 -0.7 0.2
v 1.2 -0.7 0
v 5.96046e-08 -0.8 1.4
v 5.96046e-08 -0.8 1.3
v 5.96046e-08 -0.7 1.4
v 5.96046e-08 -0.7 1.3
v 5.96046e-08 -0.6 0.8
v 5.96046e-08 -0.6 0.4
v 5.96046e-08 -0.5 0.8
v 5.96046e-08 -0.5 0.4
v 0.1 -0.8 0.1
v 0.1 -0.8 0
v 0.1 -0.7 0.1
v 0.1 -0.7 0
v 0.1 -0.5 0.1
v 0.1 -0.5 0
v 0.2 -0.8 0.2
v 0.2 -0.8 0.1
v 0.2 -0.7 1.2
v 0.2 -0.7 1.1
v 0.2 -0.7 0.2
v 0.2 -0.7 0.1
v 0.2 -0.6 1.2
v 0.2 -0.6 1.1
v 0.3 -0.8 1.4
v 0.3 -0.8 1.3
v 0.3 -0.7 1.4
v 0.3 -0.7 1.3
v 0.6 -0.7 1.2
v 0.6 -0.7 1.1
v 0.6 -0.6 1.2
v 0.6 -0.6 1.1
v 0.6 -0.6 0.9
v 0.6 -0.6 0.8
v 0.6 -0.6 0.6
v 0.6 -0.6 0.3
v 0.6 -0.6 0
v 0.6 -0.5 0.9
v 0.6 -0.5 0.8
v 0.6 -0.5 0.6
v 0.6 -0.5 0.3
v 0.6 -0.5 0
v 0.7 -0.6 0.6
v 0.7 -0.6 0.3
v 0.7 -0.5 0.6
v 0.7 -0.5 0.3
v 0.8 -0.7 0.9
v 0.8 -0.7 0.8
v 0.8 -0.6 0.9
v 0.8 -0.6 0.8
v 0.9 -0.8 1.3
v 0.9 -0.8 1.1
v 0.9 -0.7 1.3
v 0.9 -0.7 1.2
v 0.9 -0.7 1.1
v 0.9 -0.7 0.9
v 0.9 -0.6 1.2
v 0.9 -0.6 0.9
v 1 -0.7 0.8
v 1 -0.7 0.7
v 1 -0.6 0.8
v 1 -0.6 0.7
v 1.1 -0.8 1.1
v 1.1 -0.8 0.9
v 1.1 -0.8 0.6
v 1.1 -0.8 0.5
v 1.1 -0.7 1.1
v 1.1 -0.7 0.9
v 1.1 -0.7 0.8
v 1.1 -0.7 0.7
v 1.1 -0.7 0.6
v 1.1 -0.7 0.5
v 1.1 -0.7 0.4
v 1.1 -0.6 0.9
v 1.1 -0.6 0.8
v 1.1 -0.6 0.7
v 1.1 -0.6 0.6
v 1.1 -0.6 0.5
v 1.1 -0.6 0.4
v 1.2 -0.8 0.9
v 1.2 -0.8 0.8
v 1.2 -0.8 0.7
v 1.2 -0.8 0.6
v 1.2 -0.8 0.3
v 1.2 -0.8 0.2
v 1.2 -0.7 0.9
v 1.2 -0.7 0.8
v 1.2 -0.7 0.7
v 1.2 -0.7 0.6
v 1.2 -0.7 0.4
v 1.2 -0.7 0.3
v 1.2 -0.7 0.2
v 1.2 -0.7 0
v 1.2 -0.6 0.4
v 1.2 -0.6 0
v 1.3 -0.8 0.8
v 1.3 -0.8 0.7
v 1.3 -0.8 0.6
v 1.3 -0.8 0.3
v 1.3 -0.8 0.2
v 1.3 -0.8 0
v 1.3 -0.7 0.8
v 1.3 -0.7 0.7
v 1.3 -0.7 0.6
v 1.3 -0.7 0.3
v 1.3 -0.7 0.2
v 1.3 -0.7 0
v -0.0999999 -0.8 1.4
v -0.0999999 -0.7 1.4
v 5.96046e-08 -0.8 1.4
v 5.96046e-08 -0.7 1.4
v 0.1 -0.8 1.4
v 0.1 -0.7 1.4
v 0.3 -0.8 1.4
v 0.3 -0.7 1.4
v -0.2 -0.8 1.3
v -0.2 -0.7 1.3
v -0.0999999 -0.8 1.3
v -0.0999999 -0.7 1.3
v 5.96046e-08 -0.8 1.3
v 5.96046e-08 -0.7 1.3
v 0.1 -0.8 1.3
v 0.1 -0.7 1.3
v 0.3 -0.8 1.3
v 0.3 -0.7 1.3
v 0.9 -0.8 1.3
v 0.9 -0.7 1.3
v -0.2 -0.7 1.2
v -0.2 -0.6 1.2
v 0.2 -0.7 1.2
v 0.2 -0.6 1.2
v 0.3 -0.7 1.2
v 0.3 -0.6 1.2
v 0.5 -0.7 1.2
v 0.5 -0.6 1.2
v 0.6 -0.7 1.2
v 0.6 -0.6 1.2
v 0.7 -0.7 1.2
v 0.7 -0.6 1.2
v 0.9 -0.7 1.2
v 0.9 -0.6 1.2
v 0.2 -0.7 1.1
v 0.2 -0.6 1.1
v 0.3 -0.7 1.1
v 0.3 -0.6 1.1
v 0.6 -0.7 1.1
v 0.6 -0.6 1.1
v 0.7 -0.7 1.1
v 0.7 -0.6 1.1
v 0.9 -0.8 1.1
v 0.9 -0.7 1.1
v 1.1 -0.8 1.1
v 1.1 -0.7 1.1
v -0.2 -0.6 0.9
v -0.2 -0.5 0.9
v -0.0999999 -0.6 0.9
v 0.5 -0.6 0.9
v 0.5 -0.5 0.9
v 0.6 -0.6 0.9
v 0.6 -0.5 0.9
v 0.9 -0.7 0.9
v 0.9 -0.6 0.9
v 1.1 -0.8 0.9
v 1.1 -0.7 0.9
v 1.1 -0.6 0.9
v 1.2 -0.8 0.9
v 1.2 -0.7 0.9
v 0.8 -0.7 0.8
v 0.8 -0.6 0.8
v 0.9 -0.7 0.8
v 0.9 -0.6 0.8
v 1.2 -0.8 0.8
v 1.2 -0.7 0.8
v 1.3 -0.8 0.8
v 1.3 -0.7 0.8
v 1 -0.7 0.7
v 1 -0.6 0.7
v 1.1 -0.7 0.7
v 1.1 -0.6 0.7
v 0.6 -0.6 0.6
v 0.6 -0.5 0.6
v 0.7 -0.6 0.6
v 0.7 -0.5 0.6
v 1.2 -0.8 0.6
v 1.2 -0.7 0.6
v 1.3 -0.8 0.6
v 1.3 -0.7 0.6
v 1.1 -0.8 0.5
v 1.1 -0.7 0.5
v 1.2 -0.8 0.5
v 1.2 -0.7 0.5
v 5.96046e-08 -0.6 0.4
v 5.96046e-08 -0.5 0.4
v 0.3 -0.6 0.4
v 0.3 -0.5 0.4
v 1.1 -0.7 0.4
v 1.1 -0.6 0.4
v 1.2 -0.7 0.4
v 1.2 -0.6 0.4
v 1.2 -0.8 0.2
v 1.2 -0.7 0.2
v 1.3 -0.8 0.2
v 1.3 -0.7 0.2
v 0.8 -0.7 0.9
v 0.8 -0.6 0.9
v 0.9 -0.7 0.9
v 0.9 -0.6 0.9
v 5.96046e-08 -0.6 0.8
v 5.96046e-08 -0.5 0.8
v 0.3 -0.6 0.8
v 0.3 -0.5 0.8
v 1 -0.7 0.8
v 1 -0.6 0.8
v 1.1 -0.7 0.8
v 1.1 -0.6 0.8
v 1.2 -0.8 0.7
v 1.2 -0.7 0.7
v 1.3 -0.8 0.7
v 1.3 -0.7 0.7
v 1.1 -0.8 0.6
v 1.1 -0.7 0.6
v 1.2 -0.8 0.6
v 1.2 -0.7 0.6
v 0.6 -0.6 0.3
v 0.6 -0.5 0.3
v 0.7 -0.6 0.3
v 0.7 -0.5 0.3
v 1.2 -0.8 0.3
v 1.2 -0.7 0.3
v 1.3 -0.8 0.3
v 1.3 -0.7 0.3
v 0.2 -0.8 0.2
v 0.2 -0.7 0.2
v 1.1 -0.7 0.2
v 1.2 -0.8 0.2
v 1.2 -0.7 0.2
v 0.1 -0.8 0.1
v 0.1 -0.7 0.1
v 0.1 -0.5 0.1
v 0.2 -0.8 0.1
v 0.2 -0.7 0.1
v 0.4 -0.7 0.1
v 0.4 -0.5 0.1
v -0.2 -0.8 0
v -0.2 -0.7 0
v -0.2 -0.5 0
v 0.1 -0.8 0
v 0.1 -0.7 0
v 0.1 -0.5 0
v 0.4 -0.7 0
v 0.4 -0.5 0
v 0.6 -0.6 0
v 0.6 -0.5 0
v 1.1 -0.7 0
v 1.1 -0.6 0
v 1.2 -0.8 0
v 1.2 -0.7 0
v 1.2 -0.6 0
v 1.3 -0.8 0
v 1.3 -0.7 0
v -0.0999999 -0.8 1.4
v 5.96046e-08 -0.8 1.4
v 0.1 -0.8 1.4
v 0.3 -0.8 1.4
v -0.2 -0.8 1.3
v -0.0999999 -0.8 1.3
v 5.96046e-08 -0.8 1.3
v 0.1 -0.8 1.3
v 0.3 -0.8 1.3
v 0.9 -0.8 1.3
v 0.9 -0.8 1.1
v 1.1 -0.8 1.1
v 1.1 -0.8 0.9
v 1.2 -0.8 0.9
v 1.2 -0.8 0.8
v 1.3 -0.8 0.8
v 1.2 -0.8 0.7
v 1.3 -0.8 0.7
v 1.1 -0.8 0.6
v 1.2 -0.8 0.6
v 1.3 -0.8 0.6
v 1.1 -0.8 0.5
v 1.2 -0.8 0.5
v 1.2 -0.8 0.3
v 1.3 -0.8 0.3
v 0.2 -0.8 0.2
v 1.2 -0.8 0.2
v 1.3 -0.8 0.2
v 0.1 -0.8 0.1
v 0.2 -0.8 0.1
v -0.2 -0.8 0
v 0.1 -0.8 0
v 1.2 -0.8 0
v 1.3 -0.8 0
v 0.2 -0.7 0.2
v 1.1 -0.7 0.2
v 1.2 -0.7 0.2
v 0.2 -0.7 0.1
v 0.4 -0.7 0.1
v 0.4 -0.7 0
v 1.1 -0.7 0
v 1.2 -0.7 0
v -0.0999999 -0.7 1.4
v 5.96046e-08 -0.7 1.4
v 0.1 -0.7 1.4
v 0.3 -0.7 1.4
v -0.2 -0.7 1.3
v -0.0999999 -0.7 1.3
v 5.96046e-08 -0.7 1.3
v 0.1 -0.7 1.3
v 0.3 -0.7 1.3
v 0.9 -0.7 1.3
v -0.2 -0.7 1.2
v 0.2 -0.7 1.2
v 0.3 -0.7 1.2
v 0.5 -0.7 1.2
v 0.6 -0.7 1.2
v 0.7 -0.7 1.2
v 0.9 -0.7 1.2
v 0.2 -0.7 1.1
v 0.3 -0.7 1.1
v 0.6 -0.7 1.1
v 0.7 -0.7 1.1
v 0.9 -0.7 1.1
v 1.1 -0.7 1.1
v 0.8 -0.7 0.9
v 0.9 -0.7 0.9
v 1.1 -0.7 0.9
v 1.2 -0.7 0.9
v 0.8 -0.7 0.8
v 0.9 -0.7 0.8
v 1 -0.7 0.8
v 1.1 -0.7 0.8
v 1.2 -0.7 0.8
v 1.3 -0.7 0.8
v 1 -0.7 0.7
v 1.1 -0.7 0.7
v 1.2 -0.7 0.7
v 1.3 -0.7 0.7
v 1.1 -0.7 0.6
v 1.2 -0.7 0.6
v 1.3 -0.7 0.6
v 1.1 -0.7 0.5
v 1.2 -0.7 0.5
v 1.1 -0.7 0.4
v 1.2 -0.7 0.4
v 1.2 -0.7 0.3
v 1.3 -0.7 0.3
v 1.2 -0.7 0.2
v 1.3 -0.7 0.2
v 1.2 -0.7 0
v 1.3 -0.7 0
v -0.2 -0.6 1.2
v 0.2 -0.6 1.2
v 0.3 -0.6 1.2
v 0.5 -0.6 1.2
v 0.6 -0.6 1.2
v 0.7 -0.6 1.2
v 0.9 -0.6 1.2
v -0.2 -0.6 1.1
v -0.0999999 -0.6 1.1
v 0.2 -0.6 1.1
v 0.3 -0.6 1.1
v 0.5 -0.6 1.1
v 0.6 -0.6 1.1
v 0.7 -0.6 1.1
v 0.8 -0.6 1.1
v 0.2 -0.6 1
v 0.5 -0.6 1
v -0.2 -0.6 0.9
v -0.0999999 -0.6 0.9
v 0.5 -0.6 0.9
v 0.6 -0.6 0.9
v 0.8 -0.6 0.9
v 0.9 -0.6 0.9
v 1.1 -0.6 0.9
v 5.96046e-08 -0.6 0.8
v 0.3 -0.6 0.8
v 0.6 -0.6 0.8
v 0.8 -0.6 0.8
v 0.9 -0.6 0.8
v 1 -0.6 0.8
v 1.1 -0.6 0.8
v 1 -0.6 0.7
v 1.1 -0.6 0.7
v 0.6 -0.6 0.6
v 0.7 -0.6 0.6
v 0.8 -0.6 0.6
v 1.1 -0.6 0.6
v 0.9 -0.6 0.5
v 1.1 -0.6 0.5
v 5.96046e-08 -0.6 0.4
v 0.3 -0.6 0.4
v 1.1 -0.6 0.4
v 1.2 -0.6 0.4
v 0.6 -0.6 0.3
v 0.7 -0.6 0.3
v 0.9 -0.6 0.3
v 1.1 -0.6 0.3
v 0.6 -0.6 0
v 1.1 -0.6 0
v 1.2 -0.6 0
v -0.2 -0.5 0.9
v 0.5 -0.5 0.9
v 0.6 -0.5 0.9
v 5.96046e-08 -0.5 0.8
v 0.3 -0.5 0.8
v 0.5 -0.5 0.8
v 0.6 -0.5 0.8
v 0.6 -0.5 0.6
v 0.7 -0.5 0.6
v 5.96046e-08 -0.5 0.4
v 0.3 -0.5 0.4
v 0.6 -0.5 0.3
v 0.7 -0.5 0.3
v 0.1 -0.5 0.1
v 0.4 -0.5 0.1
v -0.2 -0.5 0
v 0.1 -0.5 0
v 0.4 -0.5 0
v 0.6 -0.5 0

# faces
f 3/3/1 2/3/1 1/3/1
f 4/3/1 2/3/1 3/3/1
f 5/3/1 2/3/1 4/3/1
f 6/3/1 2/3/1 5/3/1
f 7/2/1 5/2/1 4/2/1
f 8/1/1 6/1/1 5/1/1
f 8/2/1 5/2/1 7/2/1
f 9/1/1 6/1/1 8/1/1
f 10/1/1 6/1/1 9/1/1
f 11/1/1 6/1/1 10/1/1
f 14/3/1 13/3/1 12/3/1
f 15/3/1 13/3/1 14/3/1
f 18/3/1 17/3/1 16/3/1
f 19/3/1 17/3/1 18/3/1
f 22/3/1 21/3/1 20/3/1
f 23/3/1 21/3/1 22/3/1
f 26/1/1 25/1/1 24/1/1
f 27/1/1 25/1/1 26/1/1
f 30/1/1 29/1/1 28/1/1
f 31/1/1 29/1/1 30/1/1
f 34/2/1 33/2/1 32/2/1
f 35/2/1 33/2/1 34/2/1
f 38/2/1 37/2/1 36/2/1
f 39/2/1 37/2/1 38/2/1
f 44/3/1 41/3/1 40/3/1
f 45/3/1 41/3/1 44/3/1
f 46/3/1 43/3/1 42/3/1
f 47/3/1 43/3/1 46/3/1
f 48/3/2 49/3/2 50/3/2
f 50/3/2 49/3/2 51/3/2
f 52/1/2 53/1/2 54/1/2
f 54/1/2 53/1/2 55/1/2
f 56/3/2 57/3/2 58/3/2
f 58/3/2 57/3/2 59/3/2
f 58/1/2 59/1/2 60/1/2
f 60/1/2 59/1/2 61/1/2
f 62/3/2 63/3/2 66/3/2
f 66/3/2 63/3/2 67/3/2
f 64/2/2 65/2/2 68/2/2
f 68/2/2 65/2/2 69/2/2
f 70/3/2 71/3/2 72/3/2
f 72/3/2 71/3/2 73/3/2
f 74/2/2 75/2/2 76/2/2
f 76/2/2 75/2/2 77/2/2
f 78/2/2 79/2/2 83/2/2
f 79/1/2 80/1/2 84/1/2
f 83/2/2 79/2/2 84/2/2
f 84/1/2 80/1/2 85/1/2
f 81/1/2 82/1/2 86/1/2
f 86/1/2 82/1/2 87/1/2
f 88/1/2 89/1/2 90/1/2
f 90/1/2 89/1/2 91/1/2
f 92/1/2 93/1/2 94/1/2
f 94/1/2 93/1/2 95/1/2
f 96/3/2 97/3/2 98/3/2
f 98/3/2 97/3/2 99/3/2
f 99/3/2 97/3/2 100/3/2
f 100/2/2 101/2/2 102/2/2
f 99/2/2 100/2/2 102/2/2
f 102/2/2 101/2/2 103/2/2
f 104/2/2 105/2/2 106/2/2
f 106/2/2 105/2/2 107/2/2
f 108/3/2 109/3/2 112/3/2
f 112/3/2 109/3/2 113/3/2
f 110/3/2 111/3/2 116/3/2
f 116/3/2 111/3/2 117/3/2
f 113/2/2 114/2/2 119/2/2
f 119/2/2 114/2/2 120/2/2
f 115/2/2 116/2/2 121/2/2
f 116/1/2 117/1/2 122/1/2
f 121/2/2 116/2/2 122/2/2
f 117/2/2 118/2/2 123/2/2
f 122/1/2 117/1/2 123/1/2
f 123/2/2 118/2/2 124/2/2
f 125/3/2 126/3/2 131/3/2
f 131/3/2 126/3/2 132/3/2
f 127/3/2 128/3/2 133/3/2
f 133/3/2 128/3/2 134/3/2
f 129/3/2 130/3/2 136/3/2
f 136/3/2 130/3/2 137/3/2
f 137/2/2 138/2/2 139/2/2
f 136/2/2 137/2/2 139/2/2
f 135/2/2 136/2/2 139/2/2
f 139/2/2 138/2/2 140/2/2
f 141/3/2 142/3/2 147/3/2
f 147/3/2 142/3/2 148/3/2
f 143/3/2 144/3/2 149/3/2
f 149/3/2 144/3/2 150/3/2
f 145/3/2 146/3/2 151/3/2
f 151/3/2 146/3/2 152/3/2
f 155/3/3 154/3/3 153/3/3
f 156/3/3 154/3/3 155/3/3
f 159/3/3 158/3/3 157/3/3
f 160/3/3 158/3/3 159/3/3
f 163/3/3 162/3/3 161/3/3
f 164/3/3 162/3/3 163/3/3
f 167/3/3 166/3/3 165/3/3
f 168/3/3 166/3/3 167/3/3
f 171/3/3 170/3/3 169/3/3
f 172/3/3 170/3/3 171/3/3
f 175/2/3 174/2/3 173/2/3
f 176/2/3 174/2/3 175/2/3
f 179/3/3 178/3/3 177/3/3
f 180/3/3 178/3/3 179/3/3
f 181/2/3 180/2/3 179/2/3
f 182/2/3 180/2/3 181/2/3
f 185/2/3 184/2/3 183/2/3
f 186/2/3 184/2/3 185/2/3
f 189/3/3 188/3/3 187/3/3
f 190/3/3 188/3/3 189/3/3
f 193/1/3 192/1/3 191/1/3
f 194/1/3 192/1/3 193/1/3
f 197/3/3 196/3/3 195/3/3
f 198/3/3 196/3/3 197/3/3
f 201/1/3 200/1/3 199/1/3
f 202/1/3 200/1/3 201/1/3
f 203/1/3 200/1/3 202/1/3
f 204/2/3 203/2/3 202/2/3
f 205/2/3 203/2/3 204/2/3
f 209/2/3 207/2/3 206/2/3
f 210/2/3 207/2/3 209/2/3
f 211/3/3 209/3/3 208/3/3
f 212/3/3 209/3/3 211/3/3
f 215/2/3 214/2/3 213/2/3
f 216/2/3 214/2/3 215/2/3
f 219/3/3 218/3/3 217/3/3
f 220/3/3 218/3/3 219/3/3
f 223/2/3 222/2/3 221/2/3
f 224/2/3 222/2/3 223/2/3
f 227/1/3 226/1/3 225/1/3
f 228/1/3 226/1/3 227/1/3
f 231/3/3 230/3/3 229/3/3
f 232/3/3 230/3/3 231/3/3
f 235/3/3 234/3/3 233/3/3
f 236/3/3 234/3/3 235/3/3
f 239/1/3 238/1/3 237/1/3
f 240/1/3 238/1/3 239/1/3
f 243/2/3 242/2/3 241/2/3
f 244/2/3 242/2/3 243/2/3
f 247/3/3 246/3/3 245/3/3
f 248/3/3 246/3/3 247/3/3
f 249/2/4 250/2/4 251/2/4
f 251/2/4 250/2/4 252/2/4
f 253/1/4 254/1/4 255/1/4
f 255/1/4 254/1/4 256/1/4
f 257/2/4 258/2/4 259/2/4
f 259/2/4 258/2/4 260/2/4
f 261/3/4 262/3/4 263/3/4
f 263/3/4 262/3/4 264/3/4
f 265/3/4 266/3/4 267/3/4
f 267/3/4 266/3/4 268/3/4
f 269/1/4 270/1/4 271/1/4
f 271/1/4 270/1/4 272/1/4
f 273/3/4 274/3/4 275/3/4
f 275/3/4 274/3/4 276/3/4
f 277/3/4 278/3/4 279/3/4
f 277/3/4 279/3/4 280/3/4
f 280/3/4 279/3/4 281/3/4
f 282/3/4 283/3/4 285/3/4
f 283/1/4 284/1/4 286/1/4
f 285/3/4 283/3/4 286/3/4
f 286/1/4 284/1/4 287/1/4
f 287/1/4 284/1/4 288/1/4
f 289/3/4 290/3/4 292/3/4
f 290/1/4 291/1/4 293/1/4
f 292/3/4 290/3/4 293/3/4
f 293/1/4 291/1/4 294/1/4
f 295/1/4 296/1/4 297/1/4
f 297/1/4 296/1/4 298/1/4
f 295/1/4 297/1/4 299/1/4
f 299/1/4 297/1/4 300/1/4
f 299/2/4 300/2/4 302/2/4
f 302/2/4 300/2/4 303/2/4
f 301/3/4 302/3/4 304/3/4
f 304/3/4 302/3/4 305/3/4
f 311/3/5 307/3/5 306/3/5
f 312/3/5 307/3/5 311/3/5
f 313/3/5 309/3/5 308/3/5
f 314/3/5 309/3/5 313/3/5
f 316/3/5 312/3/5 311/3/5
f 316/3/5 315/3/5 314/3/5
f 316/3/5 314/3/5 313/3/5
f 316/3/5 313/3/5 312/3/5
f 316/3/5 311/3/5 310/3/5
f 318/3/5 317/3/5 316/3/5
f 320/3/5 319/3/5 318/3/5
f 322/3/5 320/3/5 318/3/5
f 322/3/5 321/3/5 320/3/5
f 323/3/5 321/3/5 322/3/5
f 324/3/5 318/3/5 316/3/5
f 324/3/5 322/3/5 318/3/5
f 325/3/5 322/3/5 324/3/5
f 327/3/5 324/3/5 316/3/5
f 328/3/5 326/3/5 325/3/5
f 329/3/5 326/3/5 328/3/5
f 329/3/5 328/3/5 327/3/5
f 330/3/5 326/3/5 329/3/5
f 331/3/5 316/3/5 310/3/5
f 331/3/5 327/3/5 316/3/5
f 331/3/5 329/3/5 327/3/5
f 332/3/5 329/3/5 331/3/5
f 334/3/5 331/3/5 310/3/5
f 335/3/5 331/3/5 334/3/5
f 336/3/5 334/3/5 310/3/5
f 337/3/5 334/3/5 336/3/5
f 338/3/5 333/3/5 332/3/5
f 339/3/5 333/3/5 338/3/5
f 343/1/5 341/1/5 340/1/5
f 344/1/5 341/1/5 343/1/5
f 345/1/5 341/1/5 344/1/5
f 346/2/5 342/2/5 341/2/5
f 346/1/5 341/1/5 345/1/5
f 347/2/5 342/2/5 346/2/5
f 348/3/6 349/3/6 353/3/6
f 353/3/6 349/3/6 354/3/6
f 350/3/6 351/3/6 355/3/6
f 355/3/6 351/3/6 356/3/6
f 353/3/6 354/3/6 358/3/6
f 356/3/6 357/3/6 358/3/6
f 355/3/6 356/3/6 358/3/6
f 354/3/6 355/3/6 358/3/6
f 352/3/6 353/3/6 358/3/6
f 358/3/6 357/3/6 359/3/6
f 359/3/6 357/3/6 360/3/6
f 360/3/6 357/3/6 361/3/6
f 361/3/6 357/3/6 362/3/6
f 362/3/6 357/3/6 363/3/6
f 363/3/6 357/3/6 364/3/6
f 359/3/6 360/3/6 365/3/6
f 365/3/6 360/3/6 366/3/6
f 362/3/6 363/3/6 367/3/6
f 367/3/6 363/3/6 368/3/6
f 369/3/6 370/3/6 372/3/6
f 372/3/6 370/3/6 373/3/6
f 371/3/6 372/3/6 375/3/6
f 375/3/6 372/3/6 376/3/6
f 373/3/6 374/3/6 378/3/6
f 378/3/6 374/3/6 379/3/6
f 379/3/6 380/3/6 381/3/6
f 378/3/6 379/3/6 381/3/6
f 377/3/6 378/3/6 381/3/6
f 381/3/6 380/3/6 382/3/6
f 382/3/6 380/3/6 383/3/6
f 383/3/6 380/3/6 384/3/6
f 382/3/6 383/3/6 385/3/6
f 385/3/6 383/3/6 386/3/6
f 386/3/6 387/3/6 389/3/6
f 388/3/6 389/3/6 390/3/6
f 389/3/6 387/3/6 391/3/6
f 390/3/6 389/3/6 391/3/6
f 391/3/6 387/3/6 392/3/6
f 392/3/6 387/3/6 393/3/6
f 394/3/6 395/3/6 396/3/6
f 396/3/6 395/3/6 397/3/6
f 398/2/6 399/2/6 405/2/6
f 405/2/6 399/2/6 406/2/6
f 406/2/6 399/2/6 407/2/6
f 400/3/6 401/3/6 408/3/6
f 401/2/6 402/2/6 409/2/6
f 408/3/6 401/3/6 409/3/6
f 409/2/6 402/2/6 410/2/6
f 403/2/6 404/2/6 411/2/6
f 411/2/6 404/2/6 412/2/6
f 406/2/6 407/2/6 413/2/6
f 407/3/6 408/3/6 413/3/6
f 408/3/6 409/3/6 413/3/6
f 409/1/6 410/1/6 414/1/6
f 413/3/6 409/3/6 414/3/6
f 411/1/6 412/1/6 414/1/6
f 410/1/6 411/1/6 414/1/6
f 405/1/6 406/1/6 415/1/6
f 406/2/6 413/2/6 416/2/6
f 415/1/6 406/1/6 416/1/6
f 413/2/6 414/2/6 416/2/6
f 414/1/6 412/1/6 417/1/6
f 416/2/6 414/2/6 417/2/6
f 417/1/6 412/1/6 418/1/6
f 412/2/6 404/2/6 419/2/6
f 418/1/6 412/1/6 419/1/6
f 419/2/6 404/2/6 420/2/6
f 418/1/6 419/1/6 424/1/6
f 424/1/6 419/1/6 425/1/6
f 420/2/6 421/2/6 426/2/6
f 426/2/6 421/2/6 427/2/6
f 427/2/6 421/2/6 428/2/6
f 425/2/6 426/2/6 429/2/6
f 426/2/6 427/2/6 429/2/6
f 424/1/6 425/1/6 431/1/6
f 431/1/6 425/1/6 432/1/6
f 429/2/6 430/2/6 433/2/6
f 432/1/6 425/1/6 433/1/6
f 425/2/6 429/2/6 433/2/6
f 433/2/6 430/2/6 434/2/6
f 432/1/6 433/1/6 435/1/6
f 433/1/6 434/1/6 435/1/6
f 435/1/6 434/1/6 436/1/6
f 422/1/6 423/1/6 437/1/6
f 437/1/6 423/1/6 438/1/6
f 435/2/6 436/2/6 439/2/6
f 432/1/6 435/1/6 442/1/6
f 435/2/6 439/2/6 443/2/6
f 439/2/6 440/2/6 443/2/6
f 442/1/6 435/1/6 443/1/6
f 443/2/6 440/2/6 444/2/6
f 441/1/6 442/1/6 445/1/6
f 442/1/6 443/1/6 445/1/6
f 443/1/6 444/1/6 445/1/6
f 444/2/6 440/2/6 446/2/6
f 445/1/6 444/1/6 446/1/6
f 446/2/6 440/2/6 447/2/6
f 448/1/6 449/1/6 451/1/6
f 451/1/6 449/1/6 452/1/6
f 449/2/6 450/2/6 453/2/6
f 452/1/6 449/1/6 453/1/6
f 453/2/6 450/2/6 454/2/6
f 452/1/6 453/1/6 455/1/6
f 453/1/6 454/1/6 455/1/6
f 448/1/6 451/1/6 457/1/6
f 452/1/6 455/1/6 458/1/6
f 455/1/6 456/1/6 458/1/6
f 458/1/6 456/1/6 459/1/6
f 457/1/6 458/1/6 459/1/6
f 459/1/6 456/1/6 460/1/6
f 457/1/6 459/1/6 461/1/6
f 461/1/6 459/1/6 462/1/6
f 448/1/6 457/1/6 463/1/6
f 457/1/6 461/1/6 463/1/6
f 463/1/6 461/1/6 464/1/6
f 462/1/6 459/1/6 465/1/6
f 465/1/6 459/1/6 466/1/6
