# MagicaVoxel @ Ephtracy

# group
o 

# material
mtllib SlimePuddle1.mtl
usemtl palette

# normals
vn -1 0 0
vn 1 0 0
vn 0 0 1
vn 0 0 -1
vn 0 -1 0
vn 0 1 0

# texcoords
vt 0.888672 0.5
vt 0.892578 0.5
vt 0.896484 0.5

# verts
v -0.2 -0.6 4.47035e-08
v -0.2 -0.6 -0.1
v -0.2 -0.5 4.47035e-08
v -0.2 -0.5 -0.1
v -0.0999999 -0.8 4.47035e-08
v -0.0999999 -0.8 -1.3
v -0.0999999 -0.7 4.47035e-08
v -0.0999999 -0.7 -0.9
v -0.0999999 -0.7 -1.2
v -0.0999999 -0.7 -1.3
v -0.0999999 -0.6 4.47035e-08
v -0.0999999 -0.6 -0.1
v -0.0999999 -0.6 -1.1
v -0.0999999 -0.6 -1.2
v -0.0999999 -0.5 -0.1
v -0.0999999 -0.5 -0.9
v -0.0999999 -0.5 -1.1
v 5.96046e-08 -0.8 0.1
v 5.96046e-08 -0.8 4.47035e-08
v 5.96046e-08 -0.7 0.1
v 5.96046e-08 -0.7 4.47035e-08
v 5.96046e-08 -0.6 0.1
v 5.96046e-08 -0.6 4.47035e-08
v 0.2 -0.8 -1.3
v 0.2 -0.8 -1.4
v 0.2 -0.7 -1.3
v 0.2 -0.7 -1.4
v 0.4 -0.6 4.47035e-08
v 0.4 -0.6 -0.4
v 0.4 -0.5 4.47035e-08
v 0.4 -0.5 -0.4
v 0.7 -0.7 -1.1
v 0.7 -0.7 -1.2
v 0.7 -0.6 -1.1
v 0.7 -0.6 -1.2
v 0.8 -0.7 -0.7
v 0.8 -0.7 -0.8
v 0.8 -0.6 -0.7
v 0.8 -0.6 -0.8
v 1 -0.8 -1.2
v 1 -0.8 -1.3
v 1 -0.7 -1.2
v 1 -0.7 -1.3
v 0.1 -0.6 4.47035e-08
v 0.1 -0.6 -0.4
v 0.1 -0.5 4.47035e-08
v 0.1 -0.5 -0.4
v 0.2 -0.7 0.1
v 0.2 -0.7 4.47035e-08
v 0.2 -0.6 0.1
v 0.2 -0.6 4.47035e-08
v 0.3 -0.8 -1.3
v 0.3 -0.8 -1.4
v 0.3 -0.7 -1.3
v 0.3 -0.7 -1.4
v 0.4 -0.6 -0.7
v 0.4 -0.6 -0.9
v 0.4 -0.6 -1.1
v 0.4 -0.5 -0.7
v 0.4 -0.5 -0.9
v 0.4 -0.5 -1.1
v 0.5 -0.8 0.1
v 0.5 -0.8 4.47035e-08
v 0.5 -0.7 0.1
v 0.5 -0.7 4.47035e-08
v 0.5 -0.6 -0.2
v 0.5 -0.6 -0.7
v 0.5 -0.5 -0.2
v 0.5 -0.5 -0.7
v 0.6 -0.7 -1.1
v 0.6 -0.7 -1.2
v 0.6 -0.6 4.47035e-08
v 0.6 -0.6 -0.2
v 0.6 -0.6 -1.1
v 0.6 -0.6 -1.2
v 0.6 -0.5 4.47035e-08
v 0.6 -0.5 -0.2
v 0.7 -0.7 -0.7
v 0.7 -0.7 -0.8
v 0.7 -0.6 -0.7
v 0.7 -0.6 -0.8
v 0.9 -0.8 -1.2
v 0.9 -0.8 -1.3
v 0.9 -0.7 -1.2
v 0.9 -0.7 -1.3
v 1 -0.7 -0.9
v 1 -0.7 -1.2
v 1 -0.6 -0.9
v 1 -0.6 -1.2
v 1.1 -0.8 -1.2
v 1.1 -0.8 -1.3
v 1.1 -0.7 -0.3
v 1.1 -0.7 -0.7
v 1.1 -0.7 -0.9
v 1.1 -0.7 -1.2
v 1.1 -0.7 -1.3
v 1.1 -0.6 -0.3
v 1.1 -0.6 -0.7
v 1.1 -0.6 -0.9
v 1.2 -0.8 -0.3
v 1.2 -0.8 -0.4
v 1.2 -0.8 -0.8
v 1.2 -0.8 -1
v 1.2 -0.7 4.47035e-08
v 1.2 -0.7 -0.3
v 1.2 -0.7 -0.4
v 1.2 -0.7 -0.8
v 1.2 -0.7 -1
v 1.2 -0.6 4.47035e-08
v 1.2 -0.6 -0.3
v 1.3 -0.8 -0.1
v 1.3 -0.8 -0.2
v 1.3 -0.8 -0.4
v 1.3 -0.8 -0.8
v 1.3 -0.8 -1
v 1.3 -0.8 -1.2
v 1.3 -0.7 -0.1
v 1.3 -0.7 -0.2
v 1.3 -0.7 -0.4
v 1.3 -0.7 -0.8
v 1.3 -0.7 -1
v 1.3 -0.7 -1.2
v 1.4 -0.8 4.47035e-08
v 1.4 -0.8 -0.1
v 1.4 -0.8 -0.2
v 1.4 -0.8 -0.3
v 1.4 -0.7 4.47035e-08
v 1.4 -0.7 -0.1
v 1.4 -0.7 -0.2
v 1.4 -0.7 -0.3
v 5.96046e-08 -0.8 0.1
v 5.96046e-08 -0.7 0.1
v 5.96046e-08 -0.6 0.1
v 0.2 -0.7 0.1
v 0.2 -0.6 0.1
v 0.5 -0.8 0.1
v 0.5 -0.7 0.1
v -0.2 -0.6 4.47035e-08
v -0.2 -0.5 4.47035e-08
v -0.0999999 -0.8 4.47035e-08
v -0.0999999 -0.7 4.47035e-08
v -0.0999999 -0.6 4.47035e-08
v 5.96046e-08 -0.8 4.47035e-08
v 5.96046e-08 -0.7 4.47035e-08
v 5.96046e-08 -0.6 4.47035e-08
v 0.1 -0.6 4.47035e-08
v 0.1 -0.5 4.47035e-08
v 0.2 -0.7 4.47035e-08
v 0.2 -0.6 4.47035e-08
v 0.4 -0.6 4.47035e-08
v 0.4 -0.5 4.47035e-08
v 0.5 -0.8 4.47035e-08
v 0.5 -0.7 4.47035e-08
v 0.6 -0.6 4.47035e-08
v 0.6 -0.5 4.47035e-08
v 1.1 -0.7 4.47035e-08
v 1.1 -0.6 4.47035e-08
v 1.2 -0.7 4.47035e-08
v 1.2 -0.6 4.47035e-08
v 1.4 -0.8 4.47035e-08
v 1.4 -0.7 4.47035e-08
v 1.3 -0.8 -0.2
v 1.3 -0.7 -0.2
v 1.4 -0.8 -0.2
v 1.4 -0.7 -0.2
v 0.1 -0.6 -0.4
v 0.1 -0.5 -0.4
v 0.4 -0.6 -0.4
v 0.4 -0.5 -0.4
v 1.2 -0.8 -0.4
v 1.2 -0.7 -0.4
v 1.3 -0.8 -0.4
v 1.3 -0.7 -0.4
v 0.7 -0.7 -0.8
v 0.7 -0.6 -0.8
v 0.8 -0.7 -0.8
v 0.8 -0.6 -0.8
v 1.2 -0.8 -1
v 1.2 -0.7 -1
v 1.3 -0.8 -1
v 1.3 -0.7 -1
v -0.2 -0.6 -0.1
v -0.2 -0.5 -0.1
v -0.0999999 -0.6 -0.1
v -0.0999999 -0.5 -0.1
v 1.3 -0.8 -0.1
v 1.3 -0.7 -0.1
v 1.4 -0.8 -0.1
v 1.4 -0.7 -0.1
v 0.5 -0.6 -0.2
v 0.5 -0.5 -0.2
v 0.6 -0.6 -0.2
v 0.6 -0.5 -0.2
v 1.1 -0.7 -0.3
v 1.1 -0.6 -0.3
v 1.2 -0.8 -0.3
v 1.2 -0.7 -0.3
v 1.2 -0.6 -0.3
v 1.4 -0.8 -0.3
v 1.4 -0.7 -0.3
v 0.4 -0.6 -0.7
v 0.4 -0.5 -0.7
v 0.5 -0.6 -0.7
v 0.5 -0.5 -0.7
v 0.7 -0.7 -0.7
v 0.7 -0.6 -0.7
v 0.8 -0.7 -0.7
v 0.8 -0.6 -0.7
v 1.2 -0.8 -0.8
v 1.2 -0.7 -0.8
v 1.3 -0.8 -0.8
v 1.3 -0.7 -0.8
v 1 -0.7 -0.9
v 1 -0.6 -0.9
v 1.1 -0.7 -0.9
v 1.1 -0.6 -0.9
v -0.0999999 -0.6 -1.1
v -0.0999999 -0.5 -1.1
v 0.4 -0.6 -1.1
v 0.4 -0.5 -1.1
v 0.6 -0.7 -1.1
v 0.6 -0.6 -1.1
v 0.7 -0.7 -1.1
v 0.7 -0.6 -1.1
v -0.0999999 -0.7 -1.2
v -0.0999999 -0.6 -1.2
v 0.6 -0.7 -1.2
v 0.6 -0.6 -1.2
v 0.7 -0.7 -1.2
v 0.7 -0.6 -1.2
v 0.9 -0.8 -1.2
v 0.9 -0.7 -1.2
v 1 -0.8 -1.2
v 1 -0.7 -1.2
v 1 -0.6 -1.2
v 1.1 -0.8 -1.2
v 1.1 -0.7 -1.2
v 1.3 -0.8 -1.2
v 1.3 -0.7 -1.2
v -0.0999999 -0.8 -1.3
v -0.0999999 -0.7 -1.3
v 0.2 -0.8 -1.3
v 0.2 -0.7 -1.3
v 0.3 -0.8 -1.3
v 0.3 -0.7 -1.3
v 0.9 -0.8 -1.3
v 0.9 -0.7 -1.3
v 1 -0.8 -1.3
v 1 -0.7 -1.3
v 1.1 -0.8 -1.3
v 1.1 -0.7 -1.3
v 0.2 -0.8 -1.4
v 0.2 -0.7 -1.4
v 0.3 -0.8 -1.4
v 0.3 -0.7 -1.4
v 5.96046e-08 -0.8 0.1
v 0.5 -0.8 0.1
v -0.0999999 -0.8 4.47035e-08
v 5.96046e-08 -0.8 4.47035e-08
v 0.5 -0.8 4.47035e-08
v 1.4 -0.8 4.47035e-08
v 1.3 -0.8 -0.1
v 1.4 -0.8 -0.1
v 1.3 -0.8 -0.2
v 1.4 -0.8 -0.2
v 1.2 -0.8 -0.3
v 1.4 -0.8 -0.3
v 1.2 -0.8 -0.4
v 1.3 -0.8 -0.4
v 1.2 -0.8 -0.8
v 1.3 -0.8 -0.8
v 1.2 -0.8 -1
v 1.3 -0.8 -1
v 0.9 -0.8 -1.2
v 1 -0.8 -1.2
v 1.1 -0.8 -1.2
v 1.3 -0.8 -1.2
v -0.0999999 -0.8 -1.3
v 0.2 -0.8 -1.3
v 0.3 -0.8 -1.3
v 0.9 -0.8 -1.3
v 1 -0.8 -1.3
v 1.1 -0.8 -1.3
v 0.2 -0.8 -1.4
v 0.3 -0.8 -1.4
v -0.2 -0.6 4.47035e-08
v -0.0999999 -0.6 4.47035e-08
v -0.2 -0.6 -0.1
v -0.0999999 -0.6 -0.1
v 0.2 -0.7 0.1
v 0.5 -0.7 0.1
v 0.2 -0.7 4.47035e-08
v 0.5 -0.7 4.47035e-08
v 1.2 -0.7 4.47035e-08
v 1.4 -0.7 4.47035e-08
v 1.3 -0.7 -0.1
v 1.4 -0.7 -0.1
v 1.3 -0.7 -0.2
v 1.4 -0.7 -0.2
v 1.1 -0.7 -0.3
v 1.2 -0.7 -0.3
v 1.4 -0.7 -0.3
v 1.2 -0.7 -0.4
v 1.3 -0.7 -0.4
v 0.7 -0.7 -0.7
v 0.8 -0.7 -0.7
v 1.1 -0.7 -0.7
v 0.7 -0.7 -0.8
v 0.8 -0.7 -0.8
v 1.2 -0.7 -0.8
v 1.3 -0.7 -0.8
v 1 -0.7 -0.9
v 1.1 -0.7 -0.9
v 1.2 -0.7 -1
v 1.3 -0.7 -1
v 0.6 -0.7 -1.1
v 0.7 -0.7 -1.1
v -0.0999999 -0.7 -1.2
v 0.6 -0.7 -1.2
v 0.7 -0.7 -1.2
v 0.9 -0.7 -1.2
v 1 -0.7 -1.2
v 1.1 -0.7 -1.2
v 1.3 -0.7 -1.2
v -0.0999999 -0.7 -1.3
v 0.2 -0.7 -1.3
v 0.3 -0.7 -1.3
v 0.9 -0.7 -1.3
v 1 -0.7 -1.3
v 1.1 -0.7 -1.3
v 0.2 -0.7 -1.4
v 0.3 -0.7 -1.4
v 5.96046e-08 -0.6 0.1
v 0.2 -0.6 0.1
v 5.96046e-08 -0.6 4.47035e-08
v 0.1 -0.6 4.47035e-08
v 0.2 -0.6 4.47035e-08
v 0.4 -0.6 4.47035e-08
v 0.6 -0.6 4.47035e-08
v 1.1 -0.6 4.47035e-08
v 1.2 -0.6 4.47035e-08
v 0.5 -0.6 -0.2
v 0.6 -0.6 -0.2
v 0.9 -0.6 -0.3
v 1.1 -0.6 -0.3
v 1.2 -0.6 -0.3
v 0.1 -0.6 -0.4
v 0.4 -0.6 -0.4
v 0.8 -0.6 -0.6
v 0.9 -0.6 -0.6
v 0.4 -0.6 -0.7
v 0.5 -0.6 -0.7
v 0.7 -0.6 -0.7
v 0.8 -0.6 -0.7
v 0.9 -0.6 -0.7
v 1.1 -0.6 -0.7
v 0.7 -0.6 -0.8
v 0.8 -0.6 -0.8
v 0.4 -0.6 -0.9
v 0.5 -0.6 -0.9
v 1 -0.6 -0.9
v 1.1 -0.6 -0.9
v -0.0999999 -0.6 -1.1
v 0.4 -0.6 -1.1
v 0.5 -0.6 -1.1
v 0.6 -0.6 -1.1
v 0.7 -0.6 -1.1
v 0.8 -0.6 -1.1
v -0.0999999 -0.6 -1.2
v 0.6 -0.6 -1.2
v 0.7 -0.6 -1.2
v 1 -0.6 -1.2
v -0.2 -0.5 4.47035e-08
v 0.1 -0.5 4.47035e-08
v 0.4 -0.5 4.47035e-08
v 0.6 -0.5 4.47035e-08
v -0.2 -0.5 -0.1
v -0.0999999 -0.5 -0.1
v 0.5 -0.5 -0.2
v 0.6 -0.5 -0.2
v 0.1 -0.5 -0.4
v 0.4 -0.5 -0.4
v 0.4 -0.5 -0.7
v 0.5 -0.5 -0.7
v -0.0999999 -0.5 -0.9
v 0.4 -0.5 -0.9
v -0.0999999 -0.5 -1.1
v 0.4 -0.5 -1.1

# faces
f 3/1/1 2/1/1 1/1/1
f 4/1/1 2/1/1 3/1/1
f 7/3/1 6/3/1 5/3/1
f 8/3/1 6/3/1 7/3/1
f 9/3/1 6/3/1 8/3/1
f 10/3/1 6/3/1 9/3/1
f 11/1/1 8/1/1 7/1/1
f 12/1/1 8/1/1 11/1/1
f 13/2/1 9/2/1 8/2/1
f 14/2/1 9/2/1 13/2/1
f 15/1/1 8/1/1 12/1/1
f 16/2/1 13/2/1 8/2/1
f 16/1/1 8/1/1 15/1/1
f 17/2/1 13/2/1 16/2/1
f 20/3/1 19/3/1 18/3/1
f 21/3/1 19/3/1 20/3/1
f 22/1/1 21/1/1 20/1/1
f 23/1/1 21/1/1 22/1/1
f 26/3/1 25/3/1 24/3/1
f 27/3/1 25/3/1 26/3/1
f 30/1/1 29/1/1 28/1/1
f 31/1/1 29/1/1 30/1/1
f 34/2/1 33/2/1 32/2/1
f 35/2/1 33/2/1 34/2/1
f 38/2/1 37/2/1 36/2/1
f 39/2/1 37/2/1 38/2/1
f 42/3/1 41/3/1 40/3/1
f 43/3/1 41/3/1 42/3/1
f 44/1/2 45/1/2 46/1/2
f 46/1/2 45/1/2 47/1/2
f 48/1/2 49/1/2 50/1/2
f 50/1/2 49/1/2 51/1/2
f 52/3/2 53/3/2 54/3/2
f 54/3/2 53/3/2 55/3/2
f 56/1/2 57/1/2 59/1/2
f 57/2/2 58/2/2 60/2/2
f 59/1/2 57/1/2 60/1/2
f 60/2/2 58/2/2 61/2/2
f 62/3/2 63/3/2 64/3/2
f 64/3/2 63/3/2 65/3/2
f 66/1/2 67/1/2 68/1/2
f 68/1/2 67/1/2 69/1/2
f 70/2/2 71/2/2 74/2/2
f 74/2/2 71/2/2 75/2/2
f 72/1/2 73/1/2 76/1/2
f 76/1/2 73/1/2 77/1/2
f 78/1/2 79/1/2 80/1/2
f 80/1/2 79/1/2 81/1/2
f 82/3/2 83/3/2 84/3/2
f 84/3/2 83/3/2 85/3/2
f 86/2/2 87/2/2 88/2/2
f 88/2/2 87/2/2 89/2/2
f 90/3/2 91/3/2 95/3/2
f 95/3/2 91/3/2 96/3/2
f 92/3/2 93/3/2 97/3/2
f 93/2/2 94/2/2 98/2/2
f 97/3/2 93/3/2 98/3/2
f 98/2/2 94/2/2 99/2/2
f 100/3/2 101/3/2 105/3/2
f 105/3/2 101/3/2 106/3/2
f 102/3/2 103/3/2 107/3/2
f 107/3/2 103/3/2 108/3/2
f 104/2/2 105/2/2 109/2/2
f 109/2/2 105/2/2 110/2/2
f 111/3/2 112/3/2 117/3/2
f 117/3/2 112/3/2 118/3/2
f 113/3/2 114/3/2 119/3/2
f 119/3/2 114/3/2 120/3/2
f 115/3/2 116/3/2 121/3/2
f 121/3/2 116/3/2 122/3/2
f 123/3/2 124/3/2 127/3/2
f 127/3/2 124/3/2 128/3/2
f 125/3/2 126/3/2 129/3/2
f 129/3/2 126/3/2 130/3/2
f 134/3/3 132/3/3 131/3/3
f 134/1/3 133/1/3 132/1/3
f 135/1/3 133/1/3 134/1/3
f 136/3/3 134/3/3 131/3/3
f 137/3/3 134/3/3 136/3/3
f 142/1/3 139/1/3 138/1/3
f 143/3/3 141/3/3 140/3/3
f 144/1/3 142/1/3 141/1/3
f 144/3/3 141/3/3 143/3/3
f 145/1/3 139/1/3 142/1/3
f 145/1/3 142/1/3 144/1/3
f 146/1/3 139/1/3 145/1/3
f 147/1/3 139/1/3 146/1/3
f 150/1/3 149/1/3 148/1/3
f 153/1/3 150/1/3 148/1/3
f 153/1/3 151/1/3 150/1/3
f 154/1/3 151/1/3 153/1/3
f 155/1/3 151/1/3 154/1/3
f 156/3/3 153/3/3 152/3/3
f 156/1/3 154/1/3 153/1/3
f 157/1/3 154/1/3 156/1/3
f 158/3/3 156/3/3 152/3/3
f 158/2/3 157/2/3 156/2/3
f 159/2/3 157/2/3 158/2/3
f 160/3/3 158/3/3 152/3/3
f 161/3/3 158/3/3 160/3/3
f 164/3/3 163/3/3 162/3/3
f 165/3/3 163/3/3 164/3/3
f 168/1/3 167/1/3 166/1/3
f 169/1/3 167/1/3 168/1/3
f 172/3/3 171/3/3 170/3/3
f 173/3/3 171/3/3 172/3/3
f 176/1/3 175/1/3 174/1/3
f 177/1/3 175/1/3 176/1/3
f 180/3/3 179/3/3 178/3/3
f 181/3/3 179/3/3 180/3/3
f 182/1/4 183/1/4 184/1/4
f 184/1/4 183/1/4 185/1/4
f 186/3/4 187/3/4 188/3/4
f 188/3/4 187/3/4 189/3/4
f 190/1/4 191/1/4 192/1/4
f 192/1/4 191/1/4 193/1/4
f 194/2/4 195/2/4 197/2/4
f 197/2/4 195/2/4 198/2/4
f 196/3/4 197/3/4 199/3/4
f 199/3/4 197/3/4 200/3/4
f 201/1/4 202/1/4 203/1/4
f 203/1/4 202/1/4 204/1/4
f 205/1/4 206/1/4 207/1/4
f 207/1/4 206/1/4 208/1/4
f 209/3/4 210/3/4 211/3/4
f 211/3/4 210/3/4 212/3/4
f 213/2/4 214/2/4 215/2/4
f 215/2/4 214/2/4 216/2/4
f 217/2/4 218/2/4 219/2/4
f 219/2/4 218/2/4 220/2/4
f 221/1/4 222/1/4 223/1/4
f 223/1/4 222/1/4 224/1/4
f 225/2/4 226/2/4 227/2/4
f 227/2/4 226/2/4 228/2/4
f 229/2/4 230/2/4 232/2/4
f 231/3/4 232/3/4 233/3/4
f 232/2/4 230/2/4 234/2/4
f 233/3/4 232/3/4 234/3/4
f 234/2/4 230/2/4 235/2/4
f 236/3/4 237/3/4 238/3/4
f 238/3/4 237/3/4 239/3/4
f 240/3/4 241/3/4 242/3/4
f 242/3/4 241/3/4 243/3/4
f 244/3/4 245/3/4 246/3/4
f 246/3/4 245/3/4 247/3/4
f 248/3/4 249/3/4 250/3/4
f 250/3/4 249/3/4 251/3/4
f 252/3/4 253/3/4 254/3/4
f 254/3/4 253/3/4 255/3/4
f 259/3/5 257/3/5 256/3/5
f 260/3/5 257/3/5 259/3/5
f 262/3/5 259/3/5 258/3/5
f 262/3/5 261/3/5 260/3/5
f 262/3/5 260/3/5 259/3/5
f 263/3/5 261/3/5 262/3/5
f 264/3/5 262/3/5 258/3/5
f 266/3/5 264/3/5 258/3/5
f 266/3/5 265/3/5 264/3/5
f 267/3/5 265/3/5 266/3/5
f 268/3/5 266/3/5 258/3/5
f 270/3/5 268/3/5 258/3/5
f 270/3/5 269/3/5 268/3/5
f 271/3/5 269/3/5 270/3/5
f 272/3/5 270/3/5 258/3/5
f 274/3/5 272/3/5 258/3/5
f 274/3/5 273/3/5 272/3/5
f 275/3/5 273/3/5 274/3/5
f 276/3/5 273/3/5 275/3/5
f 277/3/5 273/3/5 276/3/5
f 278/3/5 274/3/5 258/3/5
f 279/3/5 274/3/5 278/3/5
f 280/3/5 274/3/5 279/3/5
f 281/3/5 274/3/5 280/3/5
f 282/3/5 276/3/5 275/3/5
f 283/3/5 276/3/5 282/3/5
f 284/3/5 280/3/5 279/3/5
f 285/3/5 280/3/5 284/3/5
f 288/1/5 287/1/5 286/1/5
f 289/1/5 287/1/5 288/1/5
f 290/3/6 291/3/6 292/3/6
f 292/3/6 291/3/6 293/3/6
f 294/3/6 295/3/6 296/3/6
f 296/3/6 295/3/6 297/3/6
f 294/3/6 296/3/6 298/3/6
f 294/3/6 298/3/6 301/3/6
f 298/3/6 299/3/6 301/3/6
f 301/3/6 299/3/6 302/3/6
f 300/3/6 301/3/6 303/3/6
f 300/3/6 303/3/6 307/3/6
f 303/3/6 304/3/6 307/3/6
f 305/3/6 306/3/6 308/3/6
f 308/3/6 306/3/6 309/3/6
f 307/3/6 304/3/6 310/3/6
f 310/3/6 304/3/6 311/3/6
f 307/3/6 310/3/6 313/3/6
f 313/3/6 310/3/6 314/3/6
f 312/3/6 313/3/6 314/3/6
f 316/3/6 317/3/6 319/3/6
f 319/3/6 317/3/6 320/3/6
f 312/3/6 314/3/6 322/3/6
f 314/3/6 315/3/6 322/3/6
f 322/3/6 315/3/6 323/3/6
f 323/3/6 315/3/6 324/3/6
f 320/3/6 321/3/6 325/3/6
f 319/3/6 320/3/6 325/3/6
f 318/3/6 319/3/6 325/3/6
f 325/3/6 321/3/6 326/3/6
f 326/3/6 321/3/6 327/3/6
f 327/3/6 321/3/6 328/3/6
f 322/3/6 323/3/6 329/3/6
f 329/3/6 323/3/6 330/3/6
f 326/3/6 327/3/6 331/3/6
f 331/3/6 327/3/6 332/3/6
f 333/1/6 334/1/6 335/1/6
f 335/1/6 334/1/6 336/1/6
f 336/1/6 334/1/6 337/1/6
f 339/1/6 340/1/6 343/1/6
f 343/1/6 340/1/6 344/1/6
f 342/1/6 343/1/6 344/1/6
f 340/2/6 341/2/6 345/2/6
f 344/1/6 340/1/6 345/1/6
f 345/2/6 341/2/6 346/2/6
f 336/1/6 337/1/6 347/1/6
f 337/1/6 338/1/6 347/1/6
f 347/1/6 338/1/6 348/1/6
f 342/1/6 344/1/6 349/1/6
f 344/3/6 345/3/6 350/3/6
f 349/1/6 344/1/6 350/1/6
f 342/1/6 349/1/6 352/1/6
f 352/1/6 349/1/6 353/1/6
f 349/2/6 350/2/6 354/2/6
f 353/1/6 349/1/6 354/1/6
f 350/3/6 345/3/6 355/3/6
f 354/2/6 350/2/6 355/2/6
f 355/3/6 345/3/6 356/3/6
f 352/1/6 353/1/6 357/1/6
f 351/1/6 352/1/6 357/1/6
f 355/2/6 356/2/6 358/2/6
f 354/2/6 355/2/6 358/2/6
f 351/1/6 357/1/6 359/1/6
f 357/1/6 358/1/6 359/1/6
f 359/1/6 358/1/6 360/1/6
f 358/2/6 356/2/6 361/2/6
f 361/2/6 356/2/6 362/2/6
f 359/2/6 360/2/6 364/2/6
f 360/1/6 358/1/6 365/1/6
f 364/2/6 360/2/6 365/2/6
f 365/1/6 358/1/6 366/1/6
f 366/1/6 358/1/6 367/1/6
f 358/2/6 361/2/6 368/2/6
f 367/1/6 358/1/6 368/1/6
f 363/2/6 364/2/6 369/2/6
f 364/2/6 365/2/6 369/2/6
f 365/2/6 366/2/6 369/2/6
f 369/2/6 366/2/6 370/2/6
f 367/2/6 368/2/6 371/2/6
f 368/2/6 361/2/6 372/2/6
f 371/2/6 368/2/6 372/2/6
f 373/1/6 374/1/6 377/1/6
f 377/1/6 374/1/6 378/1/6
f 375/1/6 376/1/6 379/1/6
f 379/1/6 376/1/6 380/1/6
f 378/1/6 374/1/6 381/1/6
f 375/1/6 379/1/6 382/1/6
f 382/1/6 379/1/6 383/1/6
f 381/1/6 382/1/6 383/1/6
f 383/1/6 379/1/6 384/1/6
f 378/1/6 381/1/6 385/1/6
f 381/1/6 383/1/6 385/1/6
f 385/1/6 383/1/6 386/1/6
f 385/2/6 386/2/6 387/2/6
f 387/2/6 386/2/6 388/2/6
