# MagicaVoxel @ Ephtracy

# group
o 

# material
mtllib SlimePuddle3.mtl
usemtl palette

# normals
vn -1 0 0
vn 1 0 0
vn 0 0 1
vn 0 0 -1
vn 0 -1 0
vn 0 1 0

# texcoords
vt 0.888672 0.5
vt 0.892578 0.5
vt 0.896484 0.5

# verts
v -1.4 -0.8 1.1
v -1.4 -0.8 0.4
v -1.4 -0.7 1.1
v -1.4 -0.7 1
v -1.4 -0.7 0.9
v -1.4 -0.7 0.5
v -1.4 -0.6 1
v -1.4 -0.6 0.9
v -1.4 -0.6 0.5
v -1.4 -0.6 0.4
v -1.3 -0.8 0.4
v -1.3 -0.8 0.3
v -1.3 -0.7 0.9
v -1.3 -0.7 0.7
v -1.3 -0.7 0.4
v -1.3 -0.7 0.3
v -1.3 -0.6 0.9
v -1.3 -0.6 0.7
v -1.2 -0.8 0.3
v -1.2 -0.8 0.2
v -1.2 -0.7 1.2
v -1.2 -0.7 1.1
v -1.2 -0.7 1
v -1.2 -0.7 0.7
v -1.2 -0.7 0.3
v -1.2 -0.7 0.2
v -1.2 -0.6 1.2
v -1.2 -0.6 1
v -1.2 -0.6 0.7
v -1.2 -0.6 0.2
v -1.1 -0.8 1.4
v -1.1 -0.8 1.1
v -1.1 -0.8 0.2
v -1.1 -0.8 0.1
v -1.1 -0.7 1.4
v -1.1 -0.7 1.2
v -1.1 -0.7 1.1
v -1.1 -0.7 0.2
v -1.1 -0.7 0.1
v -1.1 -0.6 0.2
v -1.1 -0.6 0.1
v -0.9 -0.8 0.1
v -0.9 -0.8 0
v -0.9 -0.7 0.1
v -0.9 -0.7 0
v -0.9 -0.6 0.8
v -0.9 -0.6 0.1
v -0.9 -0.5 0.8
v -0.9 -0.5 0
v -0.8 -0.8 1.4
v -0.8 -0.8 1.3
v -0.8 -0.8 0
v -0.8 -0.8 -0.1
v -0.8 -0.7 1.4
v -0.8 -0.7 1.3
v -0.8 -0.7 0
v -0.8 -0.7 -0.1
v -0.8 -0.6 0
v -0.8 -0.6 -0.1
v -0.7 -0.6 0.8
v -0.7 -0.6 0.5
v -0.7 -0.6 0
v -0.7 -0.6 -0.1
v -0.7 -0.5 0.8
v -0.7 -0.5 0.5
v -0.7 -0.5 0
v -0.7 -0.5 -0.1
v -0.6 -0.8 1.4
v -0.6 -0.8 1.2
v -0.6 -0.8 -0.1
v -0.6 -0.8 -0.2
v -0.6 -0.7 1.4
v -0.6 -0.7 1.2
v -0.6 -0.7 -0.1
v -0.6 -0.7 -0.2
v -0.6 -0.6 1.1
v -0.6 -0.6 1
v -0.6 -0.5 1.1
v -0.6 -0.5 1
v -0.6 -0.5 -0.1
v -0.6 -0.5 -0.2
v -0.5 -0.8 -0.2
v -0.5 -0.8 -0.3
v -0.5 -0.7 -0.2
v -0.5 -0.7 -0.3
v -0.5 -0.6 -0.2
v -0.5 -0.6 -0.3
v -0.4 -0.8 1.4
v -0.4 -0.8 1.3
v -0.4 -0.7 1.4
v -0.4 -0.7 1.3
v -0.3 -0.7 -0.3
v -0.3 -0.7 -0.4
v -0.3 -0.6 0.9
v -0.3 -0.6 0.7
v -0.3 -0.6 -0.3
v -0.3 -0.6 -0.4
v -0.3 -0.5 0.9
v -0.3 -0.5 0.7
v -0.2 -0.6 0.5
v -0.2 -0.6 0.3
v -0.2 -0.5 0.5
v -0.2 -0.5 0.3
v -1.3 -0.7 0.5
v -1.3 -0.7 0.4
v -1.3 -0.6 0.5
v -1.3 -0.6 0.4
v -1 -0.8 1.4
v -1 -0.8 1.3
v -1 -0.7 1.4
v -1 -0.7 1.3
v -0.8 -0.6 0.8
v -0.8 -0.6 0.5
v -0.8 -0.5 0.8
v -0.8 -0.5 0.5
v -0.7 -0.8 1.4
v -0.7 -0.8 1.2
v -0.7 -0.7 1.4
v -0.7 -0.7 1.2
v -0.5 -0.8 1.4
v -0.5 -0.8 1.3
v -0.5 -0.7 1.4
v -0.5 -0.7 1.3
v -0.5 -0.6 1.1
v -0.5 -0.6 1
v -0.5 -0.6 0.8
v -0.5 -0.6 0.7
v -0.5 -0.6 0.5
v -0.5 -0.6 0.3
v -0.5 -0.5 1.1
v -0.5 -0.5 1
v -0.5 -0.5 0.8
v -0.5 -0.5 0.7
v -0.5 -0.5 0.5
v -0.5 -0.5 0.3
v -0.3 -0.8 1.4
v -0.3 -0.8 -0.3
v -0.3 -0.7 1.4
v -0.3 -0.7 1.2
v -0.3 -0.7 1.1
v -0.3 -0.7 0.8
v -0.3 -0.7 -0.3
v -0.3 -0.6 1.2
v -0.3 -0.6 1.1
v -0.3 -0.6 0.9
v -0.3 -0.6 0.8
v -0.2 -0.7 -0.1
v -0.2 -0.7 -0.4
v -0.2 -0.6 -0.2
v -0.2 -0.6 -0.4
v -0.2 -0.5 -0.1
v -0.2 -0.5 -0.2
v -0.1 -0.7 0.8
v -0.1 -0.7 -0.1
v -0.1 -0.6 0.9
v -0.1 -0.6 0.8
v -0.1 -0.5 0.9
v -0.1 -0.5 -0.1
v -1.1 -0.8 1.4
v -1.1 -0.7 1.4
v -1 -0.8 1.4
v -1 -0.7 1.4
v -0.8 -0.8 1.4
v -0.8 -0.7 1.4
v -0.7 -0.8 1.4
v -0.7 -0.7 1.4
v -0.6 -0.8 1.4
v -0.6 -0.7 1.4
v -0.5 -0.8 1.4
v -0.5 -0.7 1.4
v -0.4 -0.8 1.4
v -0.4 -0.7 1.4
v -0.3 -0.8 1.4
v -0.3 -0.7 1.4
v -1 -0.8 1.3
v -1 -0.7 1.3
v -0.8 -0.8 1.3
v -0.8 -0.7 1.3
v -0.5 -0.8 1.3
v -0.5 -0.7 1.3
v -0.4 -0.8 1.3
v -0.4 -0.7 1.3
v -1.2 -0.7 1.2
v -1.2 -0.6 1.2
v -1.1 -0.7 1.2
v -1.1 -0.6 1.2
v -0.7 -0.8 1.2
v -0.7 -0.7 1.2
v -0.6 -0.8 1.2
v -0.6 -0.7 1.2
v -0.3 -0.7 1.2
v -0.3 -0.6 1.2
v -1.4 -0.8 1.1
v -1.4 -0.7 1.1
v -1.2 -0.7 1.1
v -1.1 -0.8 1.1
v -1.1 -0.7 1.1
v -0.6 -0.6 1.1
v -0.6 -0.5 1.1
v -0.5 -0.6 1.1
v -0.5 -0.5 1.1
v -1.4 -0.7 1
v -1.4 -0.6 1
v -1.3 -0.7 1
v -1.3 -0.6 1
v -1.2 -0.7 1
v -1.2 -0.6 1
v -0.3 -0.6 0.9
v -0.3 -0.5 0.9
v -0.1 -0.6 0.9
v -0.1 -0.5 0.9
v -0.9 -0.6 0.8
v -0.9 -0.5 0.8
v -0.8 -0.6 0.8
v -0.8 -0.5 0.8
v -0.7 -0.6 0.8
v -0.7 -0.5 0.8
v -0.5 -0.6 0.8
v -0.5 -0.5 0.8
v -0.3 -0.7 0.8
v -0.3 -0.6 0.8
v -0.1 -0.7 0.8
v -0.1 -0.6 0.8
v -0.5 -0.6 0.7
v -0.5 -0.5 0.7
v -0.3 -0.6 0.7
v -0.3 -0.5 0.7
v -1.4 -0.7 0.5
v -1.4 -0.6 0.5
v -1.3 -0.7 0.5
v -1.3 -0.6 0.5
v -0.8 -0.6 0.5
v -0.8 -0.5 0.5
v -0.7 -0.6 0.5
v -0.7 -0.5 0.5
v -0.5 -0.6 0.3
v -0.5 -0.5 0.3
v -0.2 -0.6 0.3
v -0.2 -0.5 0.3
v -0.6 -0.6 1
v -0.6 -0.5 1
v -0.5 -0.6 1
v -0.5 -0.5 1
v -1.4 -0.7 0.9
v -1.4 -0.6 0.9
v -1.3 -0.7 0.9
v -1.3 -0.6 0.9
v -1.3 -0.7 0.7
v -1.3 -0.6 0.7
v -1.2 -0.7 0.7
v -1.2 -0.6 0.7
v -0.5 -0.6 0.5
v -0.5 -0.5 0.5
v -0.2 -0.6 0.5
v -0.2 -0.5 0.5
v -1.4 -0.8 0.4
v -1.4 -0.6 0.4
v -1.3 -0.8 0.4
v -1.3 -0.7 0.4
v -1.3 -0.6 0.4
v -1.3 -0.8 0.3
v -1.3 -0.7 0.3
v -1.2 -0.8 0.3
v -1.2 -0.7 0.3
v -1.2 -0.8 0.2
v -1.2 -0.7 0.2
v -1.2 -0.6 0.2
v -1.1 -0.8 0.2
v -1.1 -0.7 0.2
v -1.1 -0.6 0.2
v -1.1 -0.8 0.1
v -1.1 -0.7 0.1
v -1.1 -0.6 0.1
v -0.9 -0.8 0.1
v -0.9 -0.7 0.1
v -0.9 -0.6 0.1
v -0.9 -0.8 0
v -0.9 -0.7 0
v -0.9 -0.5 0
v -0.8 -0.8 0
v -0.8 -0.7 0
v -0.8 -0.6 0
v -0.7 -0.6 0
v -0.7 -0.5 0
v -0.8 -0.8 -0.1
v -0.8 -0.7 -0.1
v -0.8 -0.6 -0.1
v -0.7 -0.6 -0.1
v -0.7 -0.5 -0.1
v -0.6 -0.8 -0.1
v -0.6 -0.7 -0.1
v -0.6 -0.5 -0.1
v -0.2 -0.7 -0.1
v -0.2 -0.5 -0.1
v -0.1 -0.7 -0.1
v -0.1 -0.5 -0.1
v -0.6 -0.8 -0.2
v -0.6 -0.7 -0.2
v -0.6 -0.5 -0.2
v -0.5 -0.8 -0.2
v -0.5 -0.7 -0.2
v -0.5 -0.6 -0.2
v -0.2 -0.6 -0.2
v -0.2 -0.5 -0.2
v -0.5 -0.8 -0.3
v -0.5 -0.7 -0.3
v -0.5 -0.6 -0.3
v -0.3 -0.8 -0.3
v -0.3 -0.7 -0.3
v -0.3 -0.6 -0.3
v -0.3 -0.7 -0.4
v -0.3 -0.6 -0.4
v -0.2 -0.7 -0.4
v -0.2 -0.6 -0.4
v -1.1 -0.8 1.4
v -1 -0.8 1.4
v -0.8 -0.8 1.4
v -0.7 -0.8 1.4
v -0.6 -0.8 1.4
v -0.5 -0.8 1.4
v -0.4 -0.8 1.4
v -0.3 -0.8 1.4
v -1 -0.8 1.3
v -0.8 -0.8 1.3
v -0.5 -0.8 1.3
v -0.4 -0.8 1.3
v -0.7 -0.8 1.2
v -0.6 -0.8 1.2
v -1.4 -0.8 1.1
v -1.1 -0.8 1.1
v -1.4 -0.8 0.4
v -1.3 -0.8 0.4
v -1.3 -0.8 0.3
v -1.2 -0.8 0.3
v -1.2 -0.8 0.2
v -1.1 -0.8 0.2
v -1.1 -0.8 0.1
v -0.9 -0.8 0.1
v -0.9 -0.8 0
v -0.8 -0.8 0
v -0.8 -0.8 -0.1
v -0.6 -0.8 -0.1
v -0.6 -0.8 -0.2
v -0.5 -0.8 -0.2
v -0.5 -0.8 -0.3
v -0.3 -0.8 -0.3
v -1.2 -0.7 1.2
v -1.1 -0.7 1.2
v -1.2 -0.7 1.1
v -1.1 -0.7 1.1
v -0.3 -0.7 0.8
v -0.1 -0.7 0.8
v -0.2 -0.7 -0.1
v -0.1 -0.7 -0.1
v -0.3 -0.7 -0.3
v -0.3 -0.7 -0.4
v -0.2 -0.7 -0.4
v -0.3 -0.6 0.9
v -0.1 -0.6 0.9
v -0.3 -0.6 0.8
v -0.1 -0.6 0.8
v -1.1 -0.7 1.4
v -1 -0.7 1.4
v -0.8 -0.7 1.4
v -0.7 -0.7 1.4
v -0.6 -0.7 1.4
v -0.5 -0.7 1.4
v -0.4 -0.7 1.4
v -0.3 -0.7 1.4
v -1 -0.7 1.3
v -0.8 -0.7 1.3
v -0.5 -0.7 1.3
v -0.4 -0.7 1.3
v -1.1 -0.7 1.2
v -0.7 -0.7 1.2
v -0.6 -0.7 1.2
v -0.3 -0.7 1.2
v -1.4 -0.7 1.1
v -1.2 -0.7 1.1
v -1.4 -0.7 1
v -1.3 -0.7 1
v -1.2 -0.7 1
v -1.4 -0.7 0.9
v -1.3 -0.7 0.9
v -1.3 -0.7 0.7
v -1.2 -0.7 0.7
v -1.4 -0.7 0.5
v -1.3 -0.7 0.5
v -1.3 -0.7 0.4
v -1.3 -0.7 0.3
v -1.2 -0.7 0.3
v -1.2 -0.6 1.2
v -1.1 -0.6 1.2
v -0.3 -0.6 1.2
v -1.1 -0.6 1.1
v -1 -0.6 1.1
v -0.6 -0.6 1.1
v -0.5 -0.6 1.1
v -0.4 -0.6 1.1
v -0.3 -0.6 1.1
v -1.4 -0.6 1
v -1.3 -0.6 1
v -1.2 -0.6 1
v -1.1 -0.6 1
v -0.6 -0.6 1
v -0.5 -0.6 1
v -1.4 -0.6 0.9
v -1.3 -0.6 0.9
v -1 -0.6 0.9
v -0.4 -0.6 0.9
v -0.3 -0.6 0.9
v -0.9 -0.6 0.8
v -0.8 -0.6 0.8
v -0.7 -0.6 0.8
v -0.5 -0.6 0.8
v -1.3 -0.6 0.7
v -1.2 -0.6 0.7
v -0.5 -0.6 0.7
v -0.3 -0.6 0.7
v -1.4 -0.6 0.5
v -1.3 -0.6 0.5
v -0.8 -0.6 0.5
v -0.7 -0.6 0.5
v -0.5 -0.6 0.5
v -0.2 -0.6 0.5
v -1.4 -0.6 0.4
v -1.3 -0.6 0.4
v -0.5 -0.6 0.3
v -0.2 -0.6 0.3
v -1.2 -0.6 0.2
v -1.1 -0.6 0.2
v -1.1 -0.6 0.1
v -0.9 -0.6 0.1
v -0.8 -0.6 0
v -0.7 -0.6 0
v -0.8 -0.6 -0.1
v -0.7 -0.6 -0.1
v -0.5 -0.6 -0.2
v -0.2 -0.6 -0.2
v -0.5 -0.6 -0.3
v -0.3 -0.6 -0.3
v -0.3 -0.6 -0.4
v -0.2 -0.6 -0.4
v -0.6 -0.5 1.1
v -0.5 -0.5 1.1
v -0.6 -0.5 1
v -0.5 -0.5 1
v -0.3 -0.5 0.9
v -0.1 -0.5 0.9
v -0.9 -0.5 0.8
v -0.8 -0.5 0.8
v -0.7 -0.5 0.8
v -0.5 -0.5 0.8
v -0.5 -0.5 0.7
v -0.3 -0.5 0.7
v -0.8 -0.5 0.5
v -0.7 -0.5 0.5
v -0.5 -0.5 0.5
v -0.2 -0.5 0.5
v -0.5 -0.5 0.3
v -0.2 -0.5 0.3
v -0.9 -0.5 0
v -0.7 -0.5 0
v -0.7 -0.5 -0.1
v -0.6 -0.5 -0.1
v -0.2 -0.5 -0.1
v -0.1 -0.5 -0.1
v -0.6 -0.5 -0.2
v -0.2 -0.5 -0.2

# faces
f 3/3/1 2/3/1 1/3/1
f 4/3/1 2/3/1 3/3/1
f 5/3/1 2/3/1 4/3/1
f 6/3/1 2/3/1 5/3/1
f 7/2/1 5/2/1 4/2/1
f 8/2/1 5/2/1 7/2/1
f 9/3/1 2/3/1 6/3/1
f 10/3/1 2/3/1 9/3/1
f 15/3/1 12/3/1 11/3/1
f 16/3/1 12/3/1 15/3/1
f 17/1/1 14/1/1 13/1/1
f 18/1/1 14/1/1 17/1/1
f 25/3/1 20/3/1 19/3/1
f 26/3/1 20/3/1 25/3/1
f 27/3/1 23/3/1 22/3/1
f 27/3/1 22/3/1 21/3/1
f 28/3/1 23/3/1 27/3/1
f 29/1/1 26/1/1 25/1/1
f 29/1/1 25/1/1 24/1/1
f 30/1/1 26/1/1 29/1/1
f 35/3/1 32/3/1 31/3/1
f 36/3/1 32/3/1 35/3/1
f 37/3/1 32/3/1 36/3/1
f 38/3/1 34/3/1 33/3/1
f 39/3/1 34/3/1 38/3/1
f 40/1/1 39/1/1 38/1/1
f 41/1/1 39/1/1 40/1/1
f 44/3/1 43/3/1 42/3/1
f 45/3/1 43/3/1 44/3/1
f 47/1/1 45/1/1 44/1/1
f 48/1/1 47/1/1 46/1/1
f 49/1/1 45/1/1 47/1/1
f 49/1/1 47/1/1 48/1/1
f 54/3/1 51/3/1 50/3/1
f 55/3/1 51/3/1 54/3/1
f 56/3/1 53/3/1 52/3/1
f 57/3/1 53/3/1 56/3/1
f 58/1/1 57/1/1 56/1/1
f 59/1/1 57/1/1 58/1/1
f 64/1/1 61/1/1 60/1/1
f 65/1/1 61/1/1 64/1/1
f 66/1/1 63/1/1 62/1/1
f 67/1/1 63/1/1 66/1/1
f 72/3/1 69/3/1 68/3/1
f 73/3/1 69/3/1 72/3/1
f 74/3/1 71/3/1 70/3/1
f 75/3/1 71/3/1 74/3/1
f 78/3/1 77/3/1 76/3/1
f 79/3/1 77/3/1 78/3/1
f 80/1/1 75/1/1 74/1/1
f 81/1/1 75/1/1 80/1/1
f 84/3/1 83/3/1 82/3/1
f 85/3/1 83/3/1 84/3/1
f 86/1/1 85/1/1 84/1/1
f 87/1/1 85/1/1 86/1/1
f 90/3/1 89/3/1 88/3/1
f 91/3/1 89/3/1 90/3/1
f 96/1/1 93/1/1 92/1/1
f 97/1/1 93/1/1 96/1/1
f 98/1/1 95/1/1 94/1/1
f 99/1/1 95/1/1 98/1/1
f 102/1/1 101/1/1 100/1/1
f 103/1/1 101/1/1 102/1/1
f 104/3/2 105/3/2 106/3/2
f 106/3/2 105/3/2 107/3/2
f 108/3/2 109/3/2 110/3/2
f 110/3/2 109/3/2 111/3/2
f 112/1/2 113/1/2 114/1/2
f 114/1/2 113/1/2 115/1/2
f 116/3/2 117/3/2 118/3/2
f 118/3/2 117/3/2 119/3/2
f 120/3/2 121/3/2 122/3/2
f 122/3/2 121/3/2 123/3/2
f 124/3/2 125/3/2 130/3/2
f 130/3/2 125/3/2 131/3/2
f 126/1/2 127/1/2 132/1/2
f 132/1/2 127/1/2 133/1/2
f 128/1/2 129/1/2 134/1/2
f 134/1/2 129/1/2 135/1/2
f 136/3/2 137/3/2 138/3/2
f 138/3/2 137/3/2 139/3/2
f 139/3/2 137/3/2 140/3/2
f 140/3/2 137/3/2 141/3/2
f 141/3/2 137/3/2 142/3/2
f 139/2/2 140/2/2 143/2/2
f 140/1/2 141/1/2 144/1/2
f 143/2/2 140/2/2 144/2/2
f 144/1/2 141/1/2 145/1/2
f 145/1/2 141/1/2 146/1/2
f 147/1/2 148/1/2 149/1/2
f 149/1/2 148/1/2 150/1/2
f 147/1/2 149/1/2 151/1/2
f 151/1/2 149/1/2 152/1/2
f 153/1/2 154/1/2 156/1/2
f 155/1/2 156/1/2 157/1/2
f 156/1/2 154/1/2 158/1/2
f 157/1/2 156/1/2 158/1/2
f 161/3/3 160/3/3 159/3/3
f 162/3/3 160/3/3 161/3/3
f 165/3/3 164/3/3 163/3/3
f 166/3/3 164/3/3 165/3/3
f 169/3/3 168/3/3 167/3/3
f 170/3/3 168/3/3 169/3/3
f 173/3/3 172/3/3 171/3/3
f 174/3/3 172/3/3 173/3/3
f 177/3/3 176/3/3 175/3/3
f 178/3/3 176/3/3 177/3/3
f 181/3/3 180/3/3 179/3/3
f 182/3/3 180/3/3 181/3/3
f 185/3/3 184/3/3 183/3/3
f 186/3/3 184/3/3 185/3/3
f 188/2/3 186/2/3 185/2/3
f 189/3/3 188/3/3 187/3/3
f 190/2/3 186/2/3 188/2/3
f 190/3/3 188/3/3 189/3/3
f 191/2/3 186/2/3 190/2/3
f 192/2/3 186/2/3 191/2/3
f 195/3/3 194/3/3 193/3/3
f 196/3/3 195/3/3 193/3/3
f 197/3/3 195/3/3 196/3/3
f 200/3/3 199/3/3 198/3/3
f 201/3/3 199/3/3 200/3/3
f 204/2/3 203/2/3 202/2/3
f 205/2/3 203/2/3 204/2/3
f 206/1/3 205/1/3 204/1/3
f 207/1/3 205/1/3 206/1/3
f 210/1/3 209/1/3 208/1/3
f 211/1/3 209/1/3 210/1/3
f 214/1/3 213/1/3 212/1/3
f 215/1/3 213/1/3 214/1/3
f 218/1/3 217/1/3 216/1/3
f 219/1/3 217/1/3 218/1/3
f 222/1/3 221/1/3 220/1/3
f 223/1/3 221/1/3 222/1/3
f 226/1/3 225/1/3 224/1/3
f 227/1/3 225/1/3 226/1/3
f 230/3/3 229/3/3 228/3/3
f 231/3/3 229/3/3 230/3/3
f 234/1/3 233/1/3 232/1/3
f 235/1/3 233/1/3 234/1/3
f 238/1/3 237/1/3 236/1/3
f 239/1/3 237/1/3 238/1/3
f 240/3/4 241/3/4 242/3/4
f 242/3/4 241/3/4 243/3/4
f 244/2/4 245/2/4 246/2/4
f 246/2/4 245/2/4 247/2/4
f 248/1/4 249/1/4 250/1/4
f 250/1/4 249/1/4 251/1/4
f 252/1/4 253/1/4 254/1/4
f 254/1/4 253/1/4 255/1/4
f 256/3/4 257/3/4 258/3/4
f 258/3/4 257/3/4 259/3/4
f 259/3/4 257/3/4 260/3/4
f 261/3/4 262/3/4 263/3/4
f 263/3/4 262/3/4 264/3/4
f 265/3/4 266/3/4 268/3/4
f 266/1/4 267/1/4 269/1/4
f 268/3/4 266/3/4 269/3/4
f 269/1/4 267/1/4 270/1/4
f 271/3/4 272/3/4 274/3/4
f 272/1/4 273/1/4 275/1/4
f 274/3/4 272/3/4 275/3/4
f 275/1/4 273/1/4 276/1/4
f 277/3/4 278/3/4 280/3/4
f 278/1/4 279/1/4 281/1/4
f 280/3/4 278/3/4 281/3/4
f 281/1/4 279/1/4 282/1/4
f 282/1/4 279/1/4 283/1/4
f 283/1/4 279/1/4 284/1/4
f 286/1/4 287/1/4 288/1/4
f 285/3/4 286/3/4 290/3/4
f 288/1/4 289/1/4 291/1/4
f 290/3/4 286/3/4 291/3/4
f 286/1/4 288/1/4 291/1/4
f 291/1/4 289/1/4 292/1/4
f 293/1/4 294/1/4 295/1/4
f 295/1/4 294/1/4 296/1/4
f 297/3/4 298/3/4 300/3/4
f 298/1/4 299/1/4 301/1/4
f 300/3/4 298/3/4 301/3/4
f 301/1/4 299/1/4 302/1/4
f 302/1/4 299/1/4 303/1/4
f 303/1/4 299/1/4 304/1/4
f 305/3/4 306/3/4 308/3/4
f 306/1/4 307/1/4 309/1/4
f 308/3/4 306/3/4 309/3/4
f 309/1/4 307/1/4 310/1/4
f 311/1/4 312/1/4 313/1/4
f 313/1/4 312/1/4 314/1/4
f 323/3/5 316/3/5 315/3/5
f 324/3/5 318/3/5 317/3/5
f 325/3/5 320/3/5 319/3/5
f 326/3/5 322/3/5 321/3/5
f 327/3/5 324/3/5 323/3/5
f 327/3/5 318/3/5 324/3/5
f 328/3/5 325/3/5 319/3/5
f 328/3/5 326/3/5 325/3/5
f 330/3/5 327/3/5 323/3/5
f 330/3/5 328/3/5 327/3/5
f 330/3/5 323/3/5 315/3/5
f 331/3/5 330/3/5 329/3/5
f 332/3/5 330/3/5 331/3/5
f 333/3/5 330/3/5 332/3/5
f 334/3/5 330/3/5 333/3/5
f 335/3/5 330/3/5 334/3/5
f 336/3/5 328/3/5 330/3/5
f 336/3/5 330/3/5 335/3/5
f 337/3/5 328/3/5 336/3/5
f 338/3/5 328/3/5 337/3/5
f 339/3/5 328/3/5 338/3/5
f 340/3/5 328/3/5 339/3/5
f 341/3/5 328/3/5 340/3/5
f 342/3/5 326/3/5 328/3/5
f 342/3/5 328/3/5 341/3/5
f 343/3/5 326/3/5 342/3/5
f 344/3/5 326/3/5 343/3/5
f 345/3/5 326/3/5 344/3/5
f 346/3/5 322/3/5 326/3/5
f 346/3/5 326/3/5 345/3/5
f 349/3/5 348/3/5 347/3/5
f 350/3/5 348/3/5 349/3/5
f 353/1/5 352/1/5 351/1/5
f 354/1/5 352/1/5 353/1/5
f 355/1/5 353/1/5 351/1/5
f 356/1/5 353/1/5 355/1/5
f 357/1/5 353/1/5 356/1/5
f 360/1/5 359/1/5 358/1/5
f 361/1/5 359/1/5 360/1/5
f 362/3/6 363/3/6 370/3/6
f 364/3/6 365/3/6 371/3/6
f 366/3/6 367/3/6 372/3/6
f 368/3/6 369/3/6 373/3/6
f 362/3/6 370/3/6 374/3/6
f 370/3/6 371/3/6 374/3/6
f 371/3/6 365/3/6 375/3/6
f 374/3/6 371/3/6 375/3/6
f 366/3/6 372/3/6 376/3/6
f 372/3/6 373/3/6 376/3/6
f 373/3/6 369/3/6 377/3/6
f 376/3/6 373/3/6 377/3/6
f 378/3/6 379/3/6 380/3/6
f 380/3/6 379/3/6 381/3/6
f 381/3/6 379/3/6 382/3/6
f 383/3/6 384/3/6 385/3/6
f 383/3/6 385/3/6 387/3/6
f 385/3/6 386/3/6 387/3/6
f 387/3/6 386/3/6 388/3/6
f 388/3/6 386/3/6 389/3/6
f 389/3/6 386/3/6 390/3/6
f 390/3/6 386/3/6 391/3/6
f 392/3/6 393/3/6 395/3/6
f 393/2/6 394/2/6 395/2/6
f 395/2/6 394/2/6 396/2/6
f 396/2/6 394/2/6 397/2/6
f 397/2/6 394/2/6 398/2/6
f 398/2/6 394/2/6 399/2/6
f 399/2/6 394/2/6 400/2/6
f 392/3/6 395/3/6 403/3/6
f 395/1/6 396/1/6 404/1/6
f 403/3/6 395/3/6 404/3/6
f 396/2/6 397/2/6 405/2/6
f 398/2/6 399/2/6 406/2/6
f 401/2/6 402/2/6 407/2/6
f 402/1/6 403/1/6 408/1/6
f 407/2/6 402/2/6 408/2/6
f 403/1/6 404/1/6 408/1/6
f 405/2/6 406/2/6 409/2/6
f 408/1/6 404/1/6 409/1/6
f 404/1/6 396/1/6 409/1/6
f 396/2/6 405/2/6 409/2/6
f 406/2/6 399/2/6 410/2/6
f 409/2/6 406/2/6 410/2/6
f 399/1/6 400/1/6 410/1/6
f 410/1/6 400/1/6 411/1/6
f 408/1/6 409/1/6 412/1/6
f 410/1/6 411/1/6 412/1/6
f 409/1/6 410/1/6 412/1/6
f 412/1/6 411/1/6 413/1/6
f 413/1/6 411/1/6 414/1/6
f 414/1/6 411/1/6 415/1/6
f 408/1/6 412/1/6 416/1/6
f 416/1/6 412/1/6 417/1/6
f 415/1/6 411/1/6 418/1/6
f 418/1/6 411/1/6 419/1/6
f 413/1/6 414/1/6 422/1/6
f 422/1/6 414/1/6 423/1/6
f 420/3/6 421/3/6 426/3/6
f 426/3/6 421/3/6 427/3/6
f 424/1/6 425/1/6 428/1/6
f 428/1/6 425/1/6 429/1/6
f 417/1/6 412/1/6 430/1/6
f 430/1/6 412/1/6 431/1/6
f 431/1/6 412/1/6 432/1/6
f 432/1/6 412/1/6 433/1/6
f 434/1/6 435/1/6 436/1/6
f 436/1/6 435/1/6 437/1/6
f 438/1/6 439/1/6 440/1/6
f 440/1/6 439/1/6 441/1/6
f 441/1/6 439/1/6 442/1/6
f 442/1/6 439/1/6 443/1/6
f 444/3/6 445/3/6 446/3/6
f 446/3/6 445/3/6 447/3/6
f 452/1/6 453/1/6 454/1/6
f 448/1/6 449/1/6 455/1/6
f 450/1/6 451/1/6 456/1/6
f 452/1/6 454/1/6 457/1/6
f 454/1/6 455/1/6 457/1/6
f 457/1/6 455/1/6 458/1/6
f 455/1/6 449/1/6 459/1/6
f 458/1/6 455/1/6 459/1/6
f 457/1/6 458/1/6 460/1/6
f 456/1/6 457/1/6 460/1/6
f 459/1/6 449/1/6 461/1/6
f 450/1/6 456/1/6 462/1/6
f 460/1/6 461/1/6 462/1/6
f 456/1/6 460/1/6 462/1/6
f 462/1/6 461/1/6 463/1/6
f 463/1/6 461/1/6 464/1/6
f 464/1/6 461/1/6 465/1/6
f 461/1/6 449/1/6 466/1/6
f 465/1/6 461/1/6 466/1/6
f 466/1/6 449/1/6 467/1/6
f 465/1/6 466/1/6 468/1/6
f 468/1/6 466/1/6 469/1/6
