# MagicaVoxel @ Ephtracy

# group
o 

# material
mtllib Splash1.mtl
usemtl palette

# normals
vn -1 0 0
vn 1 0 0
vn 0 0 1
vn 0 0 -1
vn 0 -1 0
vn 0 1 0

# texcoords
vt 0.888672 0.5
vt 0.896484 0.5

# verts
v -1.4 -0.5 0.7
v -1.4 -0.5 0.5
v -1.4 -0.4 0.7
v -1.4 -0.4 0.5
v -1.4 -0.4 0.4
v -1.4 -0.3 0.5
v -1.4 -0.3 0.4
v -1.3 -0.5 0.4
v -1.3 -0.5 0.3
v -1.3 -0.4 0.4
v -1.3 -0.4 0.3
v -1.3 -0.4 0.2
v -1.3 -0.4 0
v -1.3 -0.3 0.2
v -1.3 -0.3 0
v -1.1 -0.5 1.4
v -1.1 -0.5 1.3
v -1.1 -0.4 1.4
v -1.1 -0.4 1.3
v -0.9 -0.5 1.3
v -0.9 -0.5 1.2
v -0.9 -0.4 1.3
v -0.9 -0.4 1.2
v -0.8 -0.5 1.4
v -0.8 -0.5 1.3
v -0.8 -0.5 0.8
v -0.8 -0.5 0.7
v -0.8 -0.5 0.6
v -0.8 -0.5 0.5
v -0.8 -0.4 1.4
v -0.8 -0.4 1.3
v -0.8 -0.4 0.8
v -0.8 -0.4 0.7
v -0.8 -0.4 0.6
v -0.8 -0.4 0.5
v -0.8 -0.3 0.8
v -0.8 -0.3 0.7
v -0.8 -0.3 0.6
v -0.8 -0.3 0.5
v -0.6 -0.5 1.4
v -0.6 -0.5 1.3
v -0.6 -0.4 1.4
v -0.6 -0.4 1.3
v -0.5 -0.5 0.8
v -0.5 -0.5 0.7
v -0.5 -0.4 0.8
v -0.5 -0.4 0.7
v -0.4 -0.5 1.4
v -0.4 -0.5 1.3
v -0.4 -0.4 1.4
v -0.4 -0.4 1.3
v -0.3 -0.5 0.5
v -0.3 -0.5 0.3
v -0.3 -0.4 0.5
v -0.3 -0.4 0.4
v -0.3 -0.4 0.3
v -0.3 -0.3 0.5
v -0.3 -0.3 0.4
v -1.3 -0.5 0.7
v -1.3 -0.5 0.5
v -1.3 -0.4 0.7
v -1.3 -0.4 0.5
v -1.3 -0.4 0.4
v -1.3 -0.3 0.5
v -1.3 -0.3 0.4
v -1.2 -0.5 0.4
v -1.2 -0.5 0.3
v -1.2 -0.4 0.4
v -1.2 -0.4 0.3
v -1.2 -0.4 0.2
v -1.2 -0.4 0
v -1.2 -0.3 0.2
v -1.2 -0.3 0
v -1 -0.5 1.4
v -1 -0.5 1.3
v -1 -0.4 1.4
v -1 -0.4 1.3
v -0.8 -0.5 1.3
v -0.8 -0.5 1.2
v -0.8 -0.4 1.3
v -0.8 -0.4 1.2
v -0.7 -0.5 1.4
v -0.7 -0.5 1.3
v -0.7 -0.5 0.8
v -0.7 -0.5 0.7
v -0.7 -0.5 0.6
v -0.7 -0.5 0.5
v -0.7 -0.4 1.4
v -0.7 -0.4 1.3
v -0.7 -0.4 0.8
v -0.7 -0.4 0.7
v -0.7 -0.4 0.6
v -0.7 -0.4 0.5
v -0.7 -0.3 0.8
v -0.7 -0.3 0.7
v -0.7 -0.3 0.6
v -0.7 -0.3 0.5
v -0.5 -0.5 1.4
v -0.5 -0.5 1.3
v -0.5 -0.4 1.4
v -0.5 -0.4 1.3
v -0.4 -0.5 0.8
v -0.4 -0.5 0.7
v -0.4 -0.4 0.8
v -0.4 -0.4 0.7
v -0.2 -0.5 1.4
v -0.2 -0.5 1.3
v -0.2 -0.5 0.5
v -0.2 -0.5 0.3
v -0.2 -0.4 1.4
v -0.2 -0.4 1.3
v -0.2 -0.4 0.5
v -0.2 -0.4 0.4
v -0.2 -0.4 0.3
v -0.2 -0.3 0.5
v -0.2 -0.3 0.4
v -1.1 -0.5 1.4
v -1.1 -0.4 1.4
v -1 -0.5 1.4
v -1 -0.4 1.4
v -0.8 -0.5 1.4
v -0.8 -0.4 1.4
v -0.7 -0.5 1.4
v -0.7 -0.4 1.4
v -0.6 -0.5 1.4
v -0.6 -0.4 1.4
v -0.5 -0.5 1.4
v -0.5 -0.4 1.4
v -0.4 -0.5 1.4
v -0.4 -0.4 1.4
v -0.2 -0.5 1.4
v -0.2 -0.4 1.4
v -0.9 -0.5 1.3
v -0.9 -0.4 1.3
v -0.8 -0.5 1.3
v -0.8 -0.4 1.3
v -0.8 -0.5 0.8
v -0.8 -0.4 0.8
v -0.8 -0.3 0.8
v -0.7 -0.5 0.8
v -0.7 -0.4 0.8
v -0.7 -0.3 0.8
v -0.5 -0.5 0.8
v -0.5 -0.4 0.8
v -0.4 -0.5 0.8
v -0.4 -0.4 0.8
v -1.4 -0.5 0.7
v -1.4 -0.4 0.7
v -1.3 -0.5 0.7
v -1.3 -0.4 0.7
v -0.8 -0.5 0.6
v -0.8 -0.4 0.6
v -0.8 -0.3 0.6
v -0.7 -0.5 0.6
v -0.7 -0.4 0.6
v -0.7 -0.3 0.6
v -1.4 -0.4 0.5
v -1.4 -0.3 0.5
v -1.3 -0.4 0.5
v -1.3 -0.3 0.5
v -0.3 -0.5 0.5
v -0.3 -0.4 0.5
v -0.3 -0.3 0.5
v -0.2 -0.5 0.5
v -0.2 -0.4 0.5
v -0.2 -0.3 0.5
v -1.3 -0.5 0.4
v -1.3 -0.4 0.4
v -1.2 -0.5 0.4
v -1.2 -0.4 0.4
v -1.3 -0.4 0.2
v -1.3 -0.3 0.2
v -1.2 -0.4 0.2
v -1.2 -0.3 0.2
v -1.1 -0.5 1.3
v -1.1 -0.4 1.3
v -1 -0.5 1.3
v -1 -0.4 1.3
v -0.8 -0.5 1.3
v -0.8 -0.4 1.3
v -0.7 -0.5 1.3
v -0.7 -0.4 1.3
v -0.6 -0.5 1.3
v -0.6 -0.4 1.3
v -0.5 -0.5 1.3
v -0.5 -0.4 1.3
v -0.4 -0.5 1.3
v -0.4 -0.4 1.3
v -0.2 -0.5 1.3
v -0.2 -0.4 1.3
v -0.9 -0.5 1.2
v -0.9 -0.4 1.2
v -0.8 -0.5 1.2
v -0.8 -0.4 1.2
v -0.8 -0.5 0.7
v -0.8 -0.4 0.7
v -0.8 -0.3 0.7
v -0.7 -0.5 0.7
v -0.7 -0.4 0.7
v -0.7 -0.3 0.7
v -0.5 -0.5 0.7
v -0.5 -0.4 0.7
v -0.4 -0.5 0.7
v -0.4 -0.4 0.7
v -1.4 -0.5 0.5
v -1.4 -0.4 0.5
v -1.3 -0.5 0.5
v -1.3 -0.4 0.5
v -0.8 -0.5 0.5
v -0.8 -0.4 0.5
v -0.8 -0.3 0.5
v -0.7 -0.5 0.5
v -0.7 -0.4 0.5
v -0.7 -0.3 0.5
v -1.4 -0.4 0.4
v -1.4 -0.3 0.4
v -1.3 -0.4 0.4
v -1.3 -0.3 0.4
v -0.3 -0.4 0.4
v -0.3 -0.3 0.4
v -0.2 -0.4 0.4
v -0.2 -0.3 0.4
v -1.3 -0.5 0.3
v -1.3 -0.4 0.3
v -1.2 -0.5 0.3
v -1.2 -0.4 0.3
v -0.3 -0.5 0.3
v -0.3 -0.4 0.3
v -0.2 -0.5 0.3
v -0.2 -0.4 0.3
v -1.3 -0.4 0
v -1.3 -0.3 0
v -1.2 -0.4 0
v -1.2 -0.3 0
v -1.1 -0.5 1.4
v -1 -0.5 1.4
v -0.8 -0.5 1.4
v -0.7 -0.5 1.4
v -0.6 -0.5 1.4
v -0.5 -0.5 1.4
v -0.4 -0.5 1.4
v -0.2 -0.5 1.4
v -1.1 -0.5 1.3
v -1 -0.5 1.3
v -0.9 -0.5 1.3
v -0.8 -0.5 1.3
v -0.7 -0.5 1.3
v -0.6 -0.5 1.3
v -0.5 -0.5 1.3
v -0.4 -0.5 1.3
v -0.2 -0.5 1.3
v -0.9 -0.5 1.2
v -0.8 -0.5 1.2
v -0.8 -0.5 0.8
v -0.7 -0.5 0.8
v -0.5 -0.5 0.8
v -0.4 -0.5 0.8
v -1.4 -0.5 0.7
v -1.3 -0.5 0.7
v -0.8 -0.5 0.7
v -0.7 -0.5 0.7
v -0.5 -0.5 0.7
v -0.4 -0.5 0.7
v -0.8 -0.5 0.6
v -0.7 -0.5 0.6
v -1.4 -0.5 0.5
v -1.3 -0.5 0.5
v -0.8 -0.5 0.5
v -0.7 -0.5 0.5
v -0.3 -0.5 0.5
v -0.2 -0.5 0.5
v -1.3 -0.5 0.4
v -1.2 -0.5 0.4
v -1.3 -0.5 0.3
v -1.2 -0.5 0.3
v -0.3 -0.5 0.3
v -0.2 -0.5 0.3
v -1.4 -0.4 0.5
v -1.3 -0.4 0.5
v -1.4 -0.4 0.4
v -1.3 -0.4 0.4
v -1.3 -0.4 0.2
v -1.2 -0.4 0.2
v -1.3 -0.4 0
v -1.2 -0.4 0
v -1.1 -0.4 1.4
v -1 -0.4 1.4
v -0.8 -0.4 1.4
v -0.7 -0.4 1.4
v -0.6 -0.4 1.4
v -0.5 -0.4 1.4
v -0.4 -0.4 1.4
v -0.2 -0.4 1.4
v -1.1 -0.4 1.3
v -1 -0.4 1.3
v -0.9 -0.4 1.3
v -0.8 -0.4 1.3
v -0.7 -0.4 1.3
v -0.6 -0.4 1.3
v -0.5 -0.4 1.3
v -0.4 -0.4 1.3
v -0.2 -0.4 1.3
v -0.9 -0.4 1.2
v -0.8 -0.4 1.2
v -0.5 -0.4 0.8
v -0.4 -0.4 0.8
v -1.4 -0.4 0.7
v -1.3 -0.4 0.7
v -0.5 -0.4 0.7
v -0.4 -0.4 0.7
v -1.4 -0.4 0.5
v -1.3 -0.4 0.5
v -1.3 -0.4 0.4
v -1.2 -0.4 0.4
v -0.3 -0.4 0.4
v -0.2 -0.4 0.4
v -1.3 -0.4 0.3
v -1.2 -0.4 0.3
v -0.3 -0.4 0.3
v -0.2 -0.4 0.3
v -0.8 -0.3 0.8
v -0.7 -0.3 0.8
v -0.8 -0.3 0.7
v -0.7 -0.3 0.7
v -0.8 -0.3 0.6
v -0.7 -0.3 0.6
v -1.4 -0.3 0.5
v -1.3 -0.3 0.5
v -0.8 -0.3 0.5
v -0.7 -0.3 0.5
v -0.3 -0.3 0.5
v -0.2 -0.3 0.5
v -1.4 -0.3 0.4
v -1.3 -0.3 0.4
v -0.3 -0.3 0.4
v -0.2 -0.3 0.4
v -1.3 -0.3 0.2
v -1.2 -0.3 0.2
v -1.3 -0.3 0
v -1.2 -0.3 0

# faces
f 3/2/1 2/2/1 1/2/1
f 4/2/1 2/2/1 3/2/1
f 6/2/1 5/2/1 4/2/1
f 7/2/1 5/2/1 6/2/1
f 10/2/1 9/2/1 8/2/1
f 11/2/1 9/2/1 10/2/1
f 14/1/1 13/1/1 12/1/1
f 15/1/1 13/1/1 14/1/1
f 18/2/1 17/2/1 16/2/1
f 19/2/1 17/2/1 18/2/1
f 22/2/1 21/2/1 20/2/1
f 23/2/1 21/2/1 22/2/1
f 30/2/1 25/2/1 24/2/1
f 31/2/1 25/2/1 30/2/1
f 32/2/1 27/2/1 26/2/1
f 33/2/1 27/2/1 32/2/1
f 34/2/1 29/2/1 28/2/1
f 35/2/1 29/2/1 34/2/1
f 36/1/1 33/1/1 32/1/1
f 37/1/1 33/1/1 36/1/1
f 38/1/1 35/1/1 34/1/1
f 39/1/1 35/1/1 38/1/1
f 42/2/1 41/2/1 40/2/1
f 43/2/1 41/2/1 42/2/1
f 46/2/1 45/2/1 44/2/1
f 47/2/1 45/2/1 46/2/1
f 50/2/1 49/2/1 48/2/1
f 51/2/1 49/2/1 50/2/1
f 54/2/1 53/2/1 52/2/1
f 55/2/1 53/2/1 54/2/1
f 56/2/1 53/2/1 55/2/1
f 57/1/1 55/1/1 54/1/1
f 58/1/1 55/1/1 57/1/1
f 59/2/2 60/2/2 61/2/2
f 61/2/2 60/2/2 62/2/2
f 62/2/2 63/2/2 64/2/2
f 64/2/2 63/2/2 65/2/2
f 66/2/2 67/2/2 68/2/2
f 68/2/2 67/2/2 69/2/2
f 70/1/2 71/1/2 72/1/2
f 72/1/2 71/1/2 73/1/2
f 74/2/2 75/2/2 76/2/2
f 76/2/2 75/2/2 77/2/2
f 78/2/2 79/2/2 80/2/2
f 80/2/2 79/2/2 81/2/2
f 82/2/2 83/2/2 88/2/2
f 88/2/2 83/2/2 89/2/2
f 84/2/2 85/2/2 90/2/2
f 90/2/2 85/2/2 91/2/2
f 86/2/2 87/2/2 92/2/2
f 92/2/2 87/2/2 93/2/2
f 90/1/2 91/1/2 94/1/2
f 94/1/2 91/1/2 95/1/2
f 92/1/2 93/1/2 96/1/2
f 96/1/2 93/1/2 97/1/2
f 98/2/2 99/2/2 100/2/2
f 100/2/2 99/2/2 101/2/2
f 102/2/2 103/2/2 104/2/2
f 104/2/2 103/2/2 105/2/2
f 106/2/2 107/2/2 110/2/2
f 110/2/2 107/2/2 111/2/2
f 108/2/2 109/2/2 112/2/2
f 112/2/2 109/2/2 113/2/2
f 113/2/2 109/2/2 114/2/2
f 112/1/2 113/1/2 115/1/2
f 115/1/2 113/1/2 116/1/2
f 119/2/3 118/2/3 117/2/3
f 120/2/3 118/2/3 119/2/3
f 123/2/3 122/2/3 121/2/3
f 124/2/3 122/2/3 123/2/3
f 127/2/3 126/2/3 125/2/3
f 128/2/3 126/2/3 127/2/3
f 131/2/3 130/2/3 129/2/3
f 132/2/3 130/2/3 131/2/3
f 135/2/3 134/2/3 133/2/3
f 136/2/3 134/2/3 135/2/3
f 140/2/3 138/2/3 137/2/3
f 141/1/3 139/1/3 138/1/3
f 141/2/3 138/2/3 140/2/3
f 142/1/3 139/1/3 141/1/3
f 145/2/3 144/2/3 143/2/3
f 146/2/3 144/2/3 145/2/3
f 149/2/3 148/2/3 147/2/3
f 150/2/3 148/2/3 149/2/3
f 154/2/3 152/2/3 151/2/3
f 155/1/3 153/1/3 152/1/3
f 155/2/3 152/2/3 154/2/3
f 156/1/3 153/1/3 155/1/3
f 159/2/3 158/2/3 157/2/3
f 160/2/3 158/2/3 159/2/3
f 164/2/3 162/2/3 161/2/3
f 165/1/3 163/1/3 162/1/3
f 165/2/3 162/2/3 164/2/3
f 166/1/3 163/1/3 165/1/3
f 169/2/3 168/2/3 167/2/3
f 170/2/3 168/2/3 169/2/3
f 173/1/3 172/1/3 171/1/3
f 174/1/3 172/1/3 173/1/3
f 175/2/4 176/2/4 177/2/4
f 177/2/4 176/2/4 178/2/4
f 179/2/4 180/2/4 181/2/4
f 181/2/4 180/2/4 182/2/4
f 183/2/4 184/2/4 185/2/4
f 185/2/4 184/2/4 186/2/4
f 187/2/4 188/2/4 189/2/4
f 189/2/4 188/2/4 190/2/4
f 191/2/4 192/2/4 193/2/4
f 193/2/4 192/2/4 194/2/4
f 195/2/4 196/2/4 198/2/4
f 196/1/4 197/1/4 199/1/4
f 198/2/4 196/2/4 199/2/4
f 199/1/4 197/1/4 200/1/4
f 201/2/4 202/2/4 203/2/4
f 203/2/4 202/2/4 204/2/4
f 205/2/4 206/2/4 207/2/4
f 207/2/4 206/2/4 208/2/4
f 209/2/4 210/2/4 212/2/4
f 210/1/4 211/1/4 213/1/4
f 212/2/4 210/2/4 213/2/4
f 213/1/4 211/1/4 214/1/4
f 215/2/4 216/2/4 217/2/4
f 217/2/4 216/2/4 218/2/4
f 219/1/4 220/1/4 221/1/4
f 221/1/4 220/1/4 222/1/4
f 223/2/4 224/2/4 225/2/4
f 225/2/4 224/2/4 226/2/4
f 227/2/4 228/2/4 229/2/4
f 229/2/4 228/2/4 230/2/4
f 231/1/4 232/1/4 233/1/4
f 233/1/4 232/1/4 234/1/4
f 243/2/5 236/2/5 235/2/5
f 244/2/5 236/2/5 243/2/5
f 246/2/5 238/2/5 237/2/5
f 247/2/5 238/2/5 246/2/5
f 248/2/5 240/2/5 239/2/5
f 249/2/5 240/2/5 248/2/5
f 250/2/5 242/2/5 241/2/5
f 251/2/5 242/2/5 250/2/5
f 252/2/5 246/2/5 245/2/5
f 253/2/5 246/2/5 252/2/5
f 260/2/5 255/2/5 254/2/5
f 261/2/5 255/2/5 260/2/5
f 262/2/5 257/2/5 256/2/5
f 263/2/5 257/2/5 262/2/5
f 266/2/5 259/2/5 258/2/5
f 267/2/5 259/2/5 266/2/5
f 268/2/5 265/2/5 264/2/5
f 269/2/5 265/2/5 268/2/5
f 274/2/5 273/2/5 272/2/5
f 275/2/5 273/2/5 274/2/5
f 276/2/5 271/2/5 270/2/5
f 277/2/5 271/2/5 276/2/5
f 280/2/5 279/2/5 278/2/5
f 281/2/5 279/2/5 280/2/5
f 284/1/5 283/1/5 282/1/5
f 285/1/5 283/1/5 284/1/5
f 286/2/6 287/2/6 294/2/6
f 294/2/6 287/2/6 295/2/6
f 288/2/6 289/2/6 297/2/6
f 297/2/6 289/2/6 298/2/6
f 290/2/6 291/2/6 299/2/6
f 299/2/6 291/2/6 300/2/6
f 292/2/6 293/2/6 301/2/6
f 301/2/6 293/2/6 302/2/6
f 296/2/6 297/2/6 303/2/6
f 303/2/6 297/2/6 304/2/6
f 305/2/6 306/2/6 309/2/6
f 309/2/6 306/2/6 310/2/6
f 307/2/6 308/2/6 311/2/6
f 311/2/6 308/2/6 312/2/6
f 313/2/6 314/2/6 317/2/6
f 317/2/6 314/2/6 318/2/6
f 315/2/6 316/2/6 319/2/6
f 319/2/6 316/2/6 320/2/6
f 321/1/6 322/1/6 323/1/6
f 323/1/6 322/1/6 324/1/6
f 325/1/6 326/1/6 329/1/6
f 329/1/6 326/1/6 330/1/6
f 327/2/6 328/2/6 333/2/6
f 333/2/6 328/2/6 334/2/6
f 331/1/6 332/1/6 335/1/6
f 335/1/6 332/1/6 336/1/6
f 337/1/6 338/1/6 339/1/6
f 339/1/6 338/1/6 340/1/6
