# MagicaVoxel @ Ephtracy

# group
o 

# material
mtllib Splash3.mtl
usemtl palette

# normals
vn -1 0 0
vn 1 0 0
vn 0 0 1
vn 0 0 -1
vn 0 -1 0
vn 0 1 0

# texcoords
vt 0.888672 0.5
vt 0.892578 0.5
vt 0.896484 0.5

# verts
v -1.3 -0.4 2.23517e-08
v -1.3 -0.4 -0.1
v -1.3 -0.3 2.23517e-08
v -1.3 -0.3 -0.1
v -1.2 -0.4 -1
v -1.2 -0.4 -1.2
v -1.2 -0.3 -1
v -1.2 -0.3 -1.2
v -1 -0.5 -0.1
v -1 -0.5 -0.2
v -1 -0.4 -0.1
v -1 -0.4 -0.2
v -0.9 -0.5 -0.2
v -0.9 -0.5 -0.3
v -0.9 -0.5 -0.4
v -0.9 -0.5 -0.6
v -0.9 -0.5 -0.7
v -0.9 -0.4 -0.2
v -0.9 -0.4 -0.3
v -0.9 -0.4 -0.4
v -0.9 -0.4 -0.6
v -0.9 -0.4 -0.7
v -0.9 -0.3 -0.3
v -0.9 -0.3 -0.4
v -0.8 -0.5 2.23517e-08
v -0.8 -0.5 -0.2
v -0.8 -0.4 2.23517e-08
v -0.8 -0.4 -0.1
v -0.8 -0.4 -0.2
v -0.8 -0.3 -0.1
v -0.8 -0.3 -0.2
v -0.7 -0.3 -0.9
v -0.7 -0.3 -1
v -0.7 -0.2 -0.9
v -0.7 -0.2 -1
v -0.5 -0.5 -0.9
v -0.5 -0.5 -1
v -0.5 -0.5 -1.1
v -0.5 -0.5 -1.2
v -0.5 -0.4 -0.8
v -0.5 -0.4 -0.9
v -0.5 -0.4 -1
v -0.5 -0.3 -0.8
v -0.5 -0.3 -0.9
v -0.5 -0.3 -1
v -0.5 -0.3 -1.1
v -0.5 -0.3 -1.2
v -0.5 -0.2 -0.9
v -0.5 -0.2 -1
v -0.5 -0.2 -1.1
v -0.2 -0.5 -1.1
v -0.2 -0.5 -1.2
v -0.2 -0.4 -1
v -0.2 -0.4 -1.1
v -0.2 -0.4 -1.2
v -0.2 -0.3 -1
v -0.2 -0.3 -1.1
v -1.2 -0.4 2.23517e-08
v -1.2 -0.4 -0.1
v -1.2 -0.3 2.23517e-08
v -1.2 -0.3 -0.1
v -1.1 -0.4 -1
v -1.1 -0.4 -1.2
v -1.1 -0.3 -1
v -1.1 -0.3 -1.2
v -0.9 -0.5 -0.1
v -0.9 -0.5 -0.2
v -0.9 -0.4 -0.1
v -0.9 -0.4 -0.2
v -0.8 -0.5 -0.2
v -0.8 -0.5 -0.3
v -0.8 -0.4 -0.2
v -0.8 -0.4 -0.3
v -0.8 -0.4 -0.4
v -0.8 -0.3 -0.3
v -0.8 -0.3 -0.4
v -0.7 -0.5 2.23517e-08
v -0.7 -0.5 -0.2
v -0.7 -0.5 -0.3
v -0.7 -0.5 -0.4
v -0.7 -0.5 -0.6
v -0.7 -0.5 -0.7
v -0.7 -0.4 2.23517e-08
v -0.7 -0.4 -0.1
v -0.7 -0.4 -0.2
v -0.7 -0.4 -0.3
v -0.7 -0.4 -0.4
v -0.7 -0.4 -0.6
v -0.7 -0.4 -0.7
v -0.7 -0.3 -0.1
v -0.7 -0.3 -0.2
v -0.6 -0.3 -0.9
v -0.6 -0.3 -1
v -0.6 -0.2 -0.9
v -0.6 -0.2 -1
v -0.4 -0.4 -0.8
v -0.4 -0.4 -0.9
v -0.4 -0.4 -1.1
v -0.4 -0.4 -1.2
v -0.4 -0.3 -0.8
v -0.4 -0.3 -0.9
v -0.4 -0.3 -1
v -0.4 -0.3 -1.1
v -0.4 -0.3 -1.2
v -0.4 -0.2 -0.9
v -0.4 -0.2 -1
v -0.4 -0.2 -1.1
v -0.3 -0.5 -0.9
v -0.3 -0.5 -1
v -0.3 -0.5 -1.1
v -0.3 -0.5 -1.2
v -0.3 -0.4 -0.9
v -0.3 -0.4 -1
v -0.3 -0.4 -1.1
v -0.3 -0.4 -1.2
v -0.0999999 -0.5 -1.1
v -0.0999999 -0.5 -1.2
v -0.0999999 -0.4 -1
v -0.0999999 -0.4 -1.1
v -0.0999999 -0.4 -1.2
v -0.0999999 -0.3 -1
v -0.0999999 -0.3 -1.1
v -1.3 -0.4 2.23517e-08
v -1.3 -0.3 2.23517e-08
v -1.2 -0.4 2.23517e-08
v -1.2 -0.3 2.23517e-08
v -0.8 -0.5 2.23517e-08
v -0.8 -0.4 2.23517e-08
v -0.7 -0.5 2.23517e-08
v -0.7 -0.4 2.23517e-08
v -1 -0.5 -0.1
v -1 -0.4 -0.1
v -0.9 -0.5 -0.1
v -0.9 -0.4 -0.1
v -0.8 -0.4 -0.1
v -0.8 -0.3 -0.1
v -0.7 -0.4 -0.1
v -0.7 -0.3 -0.1
v -0.9 -0.5 -0.2
v -0.9 -0.4 -0.2
v -0.8 -0.5 -0.2
v -0.8 -0.4 -0.2
v -0.9 -0.4 -0.3
v -0.9 -0.3 -0.3
v -0.8 -0.5 -0.3
v -0.8 -0.4 -0.3
v -0.8 -0.3 -0.3
v -0.7 -0.5 -0.3
v -0.7 -0.4 -0.3
v -0.9 -0.5 -0.6
v -0.9 -0.4 -0.6
v -0.8 -0.5 -0.6
v -0.8 -0.4 -0.6
v -0.7 -0.5 -0.6
v -0.7 -0.4 -0.6
v -0.5 -0.4 -0.8
v -0.5 -0.3 -0.8
v -0.4 -0.4 -0.8
v -0.4 -0.3 -0.8
v -0.7 -0.3 -0.9
v -0.7 -0.2 -0.9
v -0.6 -0.3 -0.9
v -0.6 -0.2 -0.9
v -0.5 -0.5 -0.9
v -0.5 -0.4 -0.9
v -0.5 -0.3 -0.9
v -0.5 -0.2 -0.9
v -0.4 -0.5 -0.9
v -0.4 -0.4 -0.9
v -0.4 -0.3 -0.9
v -0.4 -0.2 -0.9
v -0.3 -0.5 -0.9
v -0.3 -0.4 -0.9
v -1.2 -0.4 -1
v -1.2 -0.3 -1
v -1.1 -0.4 -1
v -1.1 -0.3 -1
v -0.2 -0.4 -1
v -0.2 -0.3 -1
v -0.0999999 -0.4 -1
v -0.0999999 -0.3 -1
v -0.5 -0.5 -1.1
v -0.5 -0.3 -1.1
v -0.4 -0.4 -1.1
v -0.4 -0.3 -1.1
v -0.3 -0.5 -1.1
v -0.3 -0.4 -1.1
v -0.2 -0.5 -1.1
v -0.2 -0.4 -1.1
v -0.0999999 -0.5 -1.1
v -0.0999999 -0.4 -1.1
v -1.3 -0.4 -0.1
v -1.3 -0.3 -0.1
v -1.2 -0.4 -0.1
v -1.2 -0.3 -0.1
v -1 -0.5 -0.2
v -1 -0.4 -0.2
v -0.9 -0.5 -0.2
v -0.9 -0.4 -0.2
v -0.8 -0.5 -0.2
v -0.8 -0.4 -0.2
v -0.8 -0.3 -0.2
v -0.7 -0.5 -0.2
v -0.7 -0.4 -0.2
v -0.7 -0.3 -0.2
v -0.9 -0.5 -0.4
v -0.9 -0.4 -0.4
v -0.9 -0.3 -0.4
v -0.8 -0.5 -0.4
v -0.8 -0.4 -0.4
v -0.8 -0.3 -0.4
v -0.7 -0.5 -0.4
v -0.7 -0.4 -0.4
v -0.9 -0.5 -0.7
v -0.9 -0.4 -0.7
v -0.8 -0.5 -0.7
v -0.8 -0.4 -0.7
v -0.7 -0.5 -0.7
v -0.7 -0.4 -0.7
v -0.5 -0.4 -0.9
v -0.5 -0.3 -0.9
v -0.4 -0.4 -0.9
v -0.4 -0.3 -0.9
v -0.7 -0.3 -1
v -0.7 -0.2 -1
v -0.6 -0.3 -1
v -0.6 -0.2 -1
v -0.5 -0.5 -1
v -0.5 -0.4 -1
v -0.4 -0.5 -1
v -0.4 -0.4 -1
v -0.3 -0.5 -1
v -0.3 -0.4 -1
v -0.5 -0.3 -1.1
v -0.5 -0.2 -1.1
v -0.4 -0.3 -1.1
v -0.4 -0.2 -1.1
v -0.2 -0.4 -1.1
v -0.2 -0.3 -1.1
v -0.0999999 -0.4 -1.1
v -0.0999999 -0.3 -1.1
v -1.2 -0.4 -1.2
v -1.2 -0.3 -1.2
v -1.1 -0.4 -1.2
v -1.1 -0.3 -1.2
v -0.5 -0.5 -1.2
v -0.5 -0.3 -1.2
v -0.4 -0.4 -1.2
v -0.4 -0.3 -1.2
v -0.3 -0.5 -1.2
v -0.3 -0.4 -1.2
v -0.2 -0.5 -1.2
v -0.2 -0.4 -1.2
v -0.0999999 -0.5 -1.2
v -0.0999999 -0.4 -1.2
v -0.8 -0.5 2.23517e-08
v -0.7 -0.5 2.23517e-08
v -1 -0.5 -0.1
v -0.9 -0.5 -0.1
v -1 -0.5 -0.2
v -0.9 -0.5 -0.2
v -0.8 -0.5 -0.2
v -0.7 -0.5 -0.2
v -0.9 -0.5 -0.3
v -0.8 -0.5 -0.3
v -0.7 -0.5 -0.3
v -0.9 -0.5 -0.4
v -0.8 -0.5 -0.4
v -0.7 -0.5 -0.4
v -0.9 -0.5 -0.6
v -0.8 -0.5 -0.6
v -0.7 -0.5 -0.6
v -0.9 -0.5 -0.7
v -0.8 -0.5 -0.7
v -0.7 -0.5 -0.7
v -0.5 -0.5 -0.9
v -0.4 -0.5 -0.9
v -0.3 -0.5 -0.9
v -0.5 -0.5 -1
v -0.4 -0.5 -1
v -0.3 -0.5 -1
v -0.5 -0.5 -1.1
v -0.3 -0.5 -1.1
v -0.2 -0.5 -1.1
v -0.0999999 -0.5 -1.1
v -0.5 -0.5 -1.2
v -0.3 -0.5 -1.2
v -0.2 -0.5 -1.2
v -0.0999999 -0.5 -1.2
v -1.3 -0.4 2.23517e-08
v -1.2 -0.4 2.23517e-08
v -1.3 -0.4 -0.1
v -1.2 -0.4 -0.1
v -0.5 -0.4 -0.8
v -0.4 -0.4 -0.8
v -0.5 -0.4 -0.9
v -0.4 -0.4 -0.9
v -1.2 -0.4 -1
v -1.1 -0.4 -1
v -0.2 -0.4 -1
v -0.0999999 -0.4 -1
v -0.2 -0.4 -1.1
v -0.0999999 -0.4 -1.1
v -1.2 -0.4 -1.2
v -1.1 -0.4 -1.2
v -0.7 -0.3 -0.9
v -0.6 -0.3 -0.9
v -0.5 -0.3 -0.9
v -0.4 -0.3 -0.9
v -0.7 -0.3 -1
v -0.6 -0.3 -1
v -0.5 -0.3 -1
v -0.4 -0.3 -1
v -0.5 -0.3 -1.1
v -0.4 -0.3 -1.1
v -0.8 -0.4 2.23517e-08
v -0.7 -0.4 2.23517e-08
v -1 -0.4 -0.1
v -0.9 -0.4 -0.1
v -0.8 -0.4 -0.1
v -0.7 -0.4 -0.1
v -1 -0.4 -0.2
v -0.9 -0.4 -0.2
v -0.8 -0.4 -0.2
v -0.9 -0.4 -0.3
v -0.8 -0.4 -0.3
v -0.7 -0.4 -0.3
v -0.8 -0.4 -0.4
v -0.7 -0.4 -0.4
v -0.9 -0.4 -0.6
v -0.8 -0.4 -0.6
v -0.7 -0.4 -0.6
v -0.9 -0.4 -0.7
v -0.8 -0.4 -0.7
v -0.7 -0.4 -0.7
v -0.5 -0.4 -0.9
v -0.4 -0.4 -0.9
v -0.3 -0.4 -0.9
v -0.5 -0.4 -1
v -0.4 -0.4 -1
v -0.3 -0.4 -1
v -0.4 -0.4 -1.1
v -0.3 -0.4 -1.1
v -0.2 -0.4 -1.1
v -0.0999999 -0.4 -1.1
v -0.4 -0.4 -1.2
v -0.3 -0.4 -1.2
v -0.2 -0.4 -1.2
v -0.0999999 -0.4 -1.2
v -1.3 -0.3 2.23517e-08
v -1.2 -0.3 2.23517e-08
v -1.3 -0.3 -0.1
v -1.2 -0.3 -0.1
v -0.8 -0.3 -0.1
v -0.7 -0.3 -0.1
v -0.8 -0.3 -0.2
v -0.7 -0.3 -0.2
v -0.9 -0.3 -0.3
v -0.8 -0.3 -0.3
v -0.9 -0.3 -0.4
v -0.8 -0.3 -0.4
v -0.5 -0.3 -0.8
v -0.4 -0.3 -0.8
v -0.5 -0.3 -0.9
v -0.4 -0.3 -0.9
v -1.2 -0.3 -1
v -1.1 -0.3 -1
v -0.2 -0.3 -1
v -0.0999999 -0.3 -1
v -0.5 -0.3 -1.1
v -0.4 -0.3 -1.1
v -0.2 -0.3 -1.1
v -0.0999999 -0.3 -1.1
v -1.2 -0.3 -1.2
v -1.1 -0.3 -1.2
v -0.5 -0.3 -1.2
v -0.4 -0.3 -1.2
v -0.7 -0.2 -0.9
v -0.6 -0.2 -0.9
v -0.5 -0.2 -0.9
v -0.4 -0.2 -0.9
v -0.7 -0.2 -1
v -0.6 -0.2 -1
v -0.5 -0.2 -1
v -0.4 -0.2 -1
v -0.5 -0.2 -1.1
v -0.4 -0.2 -1.1

# faces
f 3/1/1 2/1/1 1/1/1
f 4/1/1 2/1/1 3/1/1
f 7/3/1 6/3/1 5/3/1
f 8/3/1 6/3/1 7/3/1
f 11/3/1 10/3/1 9/3/1
f 12/3/1 10/3/1 11/3/1
f 18/1/1 14/1/1 13/1/1
f 19/3/1 15/3/1 14/3/1
f 19/1/1 14/1/1 18/1/1
f 20/3/1 15/3/1 19/3/1
f 21/3/1 17/3/1 16/3/1
f 22/3/1 17/3/1 21/3/1
f 23/1/1 20/1/1 19/1/1
f 24/1/1 20/1/1 23/1/1
f 27/3/1 26/3/1 25/3/1
f 28/3/1 26/3/1 27/3/1
f 29/3/1 26/3/1 28/3/1
f 30/1/1 29/1/1 28/1/1
f 31/1/1 29/1/1 30/1/1
f 34/2/1 33/2/1 32/2/1
f 35/2/1 33/2/1 34/2/1
f 41/3/1 37/3/1 36/3/1
f 42/3/1 37/3/1 41/3/1
f 43/1/1 41/1/1 40/1/1
f 44/1/1 41/1/1 43/1/1
f 46/3/1 39/3/1 38/3/1
f 47/3/1 39/3/1 46/3/1
f 48/2/1 45/2/1 44/2/1
f 49/3/1 46/3/1 45/3/1
f 49/2/1 45/2/1 48/2/1
f 50/3/1 46/3/1 49/3/1
f 54/1/1 52/1/1 51/1/1
f 55/1/1 52/1/1 54/1/1
f 56/1/1 54/1/1 53/1/1
f 57/1/1 54/1/1 56/1/1
f 58/1/2 59/1/2 60/1/2
f 60/1/2 59/1/2 61/1/2
f 62/3/2 63/3/2 64/3/2
f 64/3/2 63/3/2 65/3/2
f 66/3/2 67/3/2 68/3/2
f 68/3/2 67/3/2 69/3/2
f 70/1/2 71/1/2 72/1/2
f 72/1/2 71/1/2 73/1/2
f 73/1/2 74/1/2 75/1/2
f 75/1/2 74/1/2 76/1/2
f 77/3/2 78/3/2 83/3/2
f 83/3/2 78/3/2 84/3/2
f 84/3/2 78/3/2 85/3/2
f 79/1/2 80/1/2 86/1/2
f 86/1/2 80/1/2 87/1/2
f 81/1/2 82/1/2 88/1/2
f 88/1/2 82/1/2 89/1/2
f 84/1/2 85/1/2 90/1/2
f 90/1/2 85/1/2 91/1/2
f 92/2/2 93/2/2 94/2/2
f 94/2/2 93/2/2 95/2/2
f 96/1/2 97/1/2 100/1/2
f 100/1/2 97/1/2 101/1/2
f 98/3/2 99/3/2 103/3/2
f 103/3/2 99/3/2 104/3/2
f 101/2/2 102/2/2 105/2/2
f 102/3/2 103/3/2 106/3/2
f 105/2/2 102/2/2 106/2/2
f 106/3/2 103/3/2 107/3/2
f 108/1/2 109/1/2 112/1/2
f 112/1/2 109/1/2 113/1/2
f 110/3/2 111/3/2 114/3/2
f 114/3/2 111/3/2 115/3/2
f 116/1/2 117/1/2 119/1/2
f 119/1/2 117/1/2 120/1/2
f 118/1/2 119/1/2 121/1/2
f 121/1/2 119/1/2 122/1/2
f 125/1/3 124/1/3 123/1/3
f 126/1/3 124/1/3 125/1/3
f 129/3/3 128/3/3 127/3/3
f 130/3/3 128/3/3 129/3/3
f 133/3/3 132/3/3 131/3/3
f 134/3/3 132/3/3 133/3/3
f 137/1/3 136/1/3 135/1/3
f 138/1/3 136/1/3 137/1/3
f 141/1/3 140/1/3 139/1/3
f 142/1/3 140/1/3 141/1/3
f 146/1/3 144/1/3 143/1/3
f 147/1/3 144/1/3 146/1/3
f 148/1/3 146/1/3 145/1/3
f 149/1/3 146/1/3 148/1/3
f 152/3/3 151/3/3 150/3/3
f 153/3/3 151/3/3 152/3/3
f 154/1/3 153/1/3 152/1/3
f 155/1/3 153/1/3 154/1/3
f 158/1/3 157/1/3 156/1/3
f 159/1/3 157/1/3 158/1/3
f 162/2/3 161/2/3 160/2/3
f 163/2/3 161/2/3 162/2/3
f 168/3/3 165/3/3 164/3/3
f 169/3/3 165/3/3 168/3/3
f 170/2/3 167/2/3 166/2/3
f 171/2/3 167/2/3 170/2/3
f 172/1/3 169/1/3 168/1/3
f 173/1/3 169/1/3 172/1/3
f 176/3/3 175/3/3 174/3/3
f 177/3/3 175/3/3 176/3/3
f 180/1/3 179/1/3 178/1/3
f 181/1/3 179/1/3 180/1/3
f 184/3/3 183/3/3 182/3/3
f 185/3/3 183/3/3 184/3/3
f 186/3/3 184/3/3 182/3/3
f 187/3/3 184/3/3 186/3/3
f 190/1/3 189/1/3 188/1/3
f 191/1/3 189/1/3 190/1/3
f 192/1/4 193/1/4 194/1/4
f 194/1/4 193/1/4 195/1/4
f 196/3/4 197/3/4 198/3/4
f 198/3/4 197/3/4 199/3/4
f 200/3/4 201/3/4 203/3/4
f 201/1/4 202/1/4 204/1/4
f 203/3/4 201/3/4 204/3/4
f 204/1/4 202/1/4 205/1/4
f 206/3/4 207/3/4 209/3/4
f 207/1/4 208/1/4 210/1/4
f 209/3/4 207/3/4 210/3/4
f 210/1/4 208/1/4 211/1/4
f 209/1/4 210/1/4 212/1/4
f 212/1/4 210/1/4 213/1/4
f 214/3/4 215/3/4 216/3/4
f 216/3/4 215/3/4 217/3/4
f 216/1/4 217/1/4 218/1/4
f 218/1/4 217/1/4 219/1/4
f 220/1/4 221/1/4 222/1/4
f 222/1/4 221/1/4 223/1/4
f 224/2/4 225/2/4 226/2/4
f 226/2/4 225/2/4 227/2/4
f 228/3/4 229/3/4 230/3/4
f 230/3/4 229/3/4 231/3/4
f 230/1/4 231/1/4 232/1/4
f 232/1/4 231/1/4 233/1/4
f 234/3/4 235/3/4 236/3/4
f 236/3/4 235/3/4 237/3/4
f 238/1/4 239/1/4 240/1/4
f 240/1/4 239/1/4 241/1/4
f 242/3/4 243/3/4 244/3/4
f 244/3/4 243/3/4 245/3/4
f 246/3/4 247/3/4 248/3/4
f 248/3/4 247/3/4 249/3/4
f 246/3/4 248/3/4 250/3/4
f 250/3/4 248/3/4 251/3/4
f 252/1/4 253/1/4 254/1/4
f 254/1/4 253/1/4 255/1/4
f 260/3/5 259/3/5 258/3/5
f 261/3/5 259/3/5 260/3/5
f 262/3/5 257/3/5 256/3/5
f 263/3/5 257/3/5 262/3/5
f 264/1/5 262/1/5 261/1/5
f 265/1/5 262/1/5 264/1/5
f 267/3/5 265/3/5 264/3/5
f 268/1/5 266/1/5 265/1/5
f 268/3/5 265/3/5 267/3/5
f 269/1/5 266/1/5 268/1/5
f 273/3/5 271/3/5 270/3/5
f 274/1/5 272/1/5 271/1/5
f 274/3/5 271/3/5 273/3/5
f 275/1/5 272/1/5 274/1/5
f 279/3/5 277/3/5 276/3/5
f 280/1/5 278/1/5 277/1/5
f 280/3/5 277/3/5 279/3/5
f 281/1/5 278/1/5 280/1/5
f 286/3/5 283/3/5 282/3/5
f 287/3/5 283/3/5 286/3/5
f 288/1/5 285/1/5 284/1/5
f 289/1/5 285/1/5 288/1/5
f 292/1/5 291/1/5 290/1/5
f 293/1/5 291/1/5 292/1/5
f 296/1/5 295/1/5 294/1/5
f 297/1/5 295/1/5 296/1/5
f 302/1/5 301/1/5 300/1/5
f 303/1/5 301/1/5 302/1/5
f 304/3/5 299/3/5 298/3/5
f 305/3/5 299/3/5 304/3/5
f 310/2/5 307/2/5 306/2/5
f 311/2/5 307/2/5 310/2/5
f 312/2/5 309/2/5 308/2/5
f 313/2/5 309/2/5 312/2/5
f 314/3/5 313/3/5 312/3/5
f 315/3/5 313/3/5 314/3/5
f 316/3/6 317/3/6 320/3/6
f 320/3/6 317/3/6 321/3/6
f 318/3/6 319/3/6 322/3/6
f 322/3/6 319/3/6 323/3/6
f 323/1/6 324/1/6 325/1/6
f 325/1/6 324/1/6 326/1/6
f 326/1/6 327/1/6 328/1/6
f 328/1/6 327/1/6 329/1/6
f 330/3/6 331/3/6 333/3/6
f 331/1/6 332/1/6 334/1/6
f 333/3/6 331/3/6 334/3/6
f 334/1/6 332/1/6 335/1/6
f 336/3/6 337/3/6 339/3/6
f 337/1/6 338/1/6 340/1/6
f 339/3/6 337/3/6 340/3/6
f 340/1/6 338/1/6 341/1/6
f 342/3/6 343/3/6 346/3/6
f 346/3/6 343/3/6 347/3/6
f 344/1/6 345/1/6 348/1/6
f 348/1/6 345/1/6 349/1/6
f 350/1/6 351/1/6 352/1/6
f 352/1/6 351/1/6 353/1/6
f 354/1/6 355/1/6 356/1/6
f 356/1/6 355/1/6 357/1/6
f 358/1/6 359/1/6 360/1/6
f 360/1/6 359/1/6 361/1/6
f 362/1/6 363/1/6 364/1/6
f 364/1/6 363/1/6 365/1/6
f 368/1/6 369/1/6 372/1/6
f 372/1/6 369/1/6 373/1/6
f 366/3/6 367/3/6 374/3/6
f 374/3/6 367/3/6 375/3/6
f 370/3/6 371/3/6 376/3/6
f 376/3/6 371/3/6 377/3/6
f 378/2/6 379/2/6 382/2/6
f 382/2/6 379/2/6 383/2/6
f 380/2/6 381/2/6 384/2/6
f 384/2/6 381/2/6 385/2/6
f 384/3/6 385/3/6 386/3/6
f 386/3/6 385/3/6 387/3/6
