# MagicaVoxel @ Ephtracy

# group
o 

# material
mtllib Splash2.mtl
usemtl palette

# normals
vn -1 0 0
vn 1 0 0
vn 0 0 1
vn 0 0 -1
vn 0 -1 0
vn 0 1 0

# texcoords
vt 0.888672 0.5
vt 0.892578 0.5
vt 0.896484 0.5

# verts
v -0.1 -0.5 1.4
v -0.1 -0.5 1.3
v -0.1 -0.4 1.4
v -0.1 -0.4 1.3
v -4.47035e-08 -0.4 0.5
v -4.47035e-08 -0.4 0.4
v -4.47035e-08 -0.3 0.5
v -4.47035e-08 -0.3 0.4
v 0.1 -0.5 1.4
v 0.1 -0.5 1.2
v 0.1 -0.4 1.4
v 0.1 -0.4 1.2
v 0.3 -0.4 1.2
v 0.3 -0.4 1.1
v 0.3 -0.3 1.2
v 0.3 -0.3 1.1
v 0.5 -0.5 1.3
v 0.5 -0.5 1.2
v 0.5 -0.4 1.3
v 0.5 -0.4 1.2
v 0.5 -0.4 0.9
v 0.5 -0.4 0.8
v 0.5 -0.3 0.9
v 0.5 -0.3 0.8
v 0.5 -0.2 0.9
v 0.5 -0.2 0.8
v 0.8 -0.5 1.3
v 0.8 -0.5 1.2
v 0.8 -0.4 1.3
v 0.8 -0.4 1.2
v 0.9 -0.5 0.9
v 0.9 -0.5 0.6
v 0.9 -0.5 0.4
v 0.9 -0.5 0.3
v 0.9 -0.4 0.9
v 0.9 -0.4 0.6
v 0.9 -0.4 0.4
v 0.9 -0.4 0.3
v 0.9 -0.3 0.4
v 0.9 -0.3 0.3
v 1.2 -0.5 0.8
v 1.2 -0.5 0.7
v 1.2 -0.4 0.8
v 1.2 -0.4 0.7
v -4.47035e-08 -0.5 1.4
v -4.47035e-08 -0.5 1.3
v -4.47035e-08 -0.4 1.4
v -4.47035e-08 -0.4 1.3
v 0.1 -0.4 0.5
v 0.1 -0.4 0.4
v 0.1 -0.3 0.5
v 0.1 -0.3 0.4
v 0.2 -0.5 1.4
v 0.2 -0.5 1.2
v 0.2 -0.4 1.4
v 0.2 -0.4 1.2
v 0.4 -0.4 1.2
v 0.4 -0.4 1.1
v 0.4 -0.3 1.2
v 0.4 -0.3 1.1
v 0.6 -0.4 0.9
v 0.6 -0.4 0.8
v 0.6 -0.3 0.9
v 0.6 -0.3 0.8
v 0.6 -0.2 0.9
v 0.6 -0.2 0.8
v 0.7 -0.5 1.3
v 0.7 -0.5 1.2
v 0.7 -0.4 1.3
v 0.7 -0.4 1.2
v 0.9 -0.5 1.3
v 0.9 -0.5 1.2
v 0.9 -0.4 1.3
v 0.9 -0.4 1.2
v 1 -0.5 0.9
v 1 -0.5 0.6
v 1 -0.5 0.4
v 1 -0.5 0.3
v 1 -0.4 0.9
v 1 -0.4 0.6
v 1 -0.4 0.4
v 1 -0.4 0.3
v 1 -0.3 0.4
v 1 -0.3 0.3
v 1.3 -0.5 0.8
v 1.3 -0.5 0.7
v 1.3 -0.4 0.8
v 1.3 -0.4 0.7
v -0.1 -0.5 1.4
v -0.1 -0.4 1.4
v -4.47035e-08 -0.5 1.4
v -4.47035e-08 -0.4 1.4
v 0.1 -0.5 1.4
v 0.1 -0.4 1.4
v 0.2 -0.5 1.4
v 0.2 -0.4 1.4
v 0.5 -0.5 1.3
v 0.5 -0.4 1.3
v 0.7 -0.5 1.3
v 0.7 -0.4 1.3
v 0.8 -0.5 1.3
v 0.8 -0.4 1.3
v 0.9 -0.5 1.3
v 0.9 -0.4 1.3
v 0.3 -0.4 1.2
v 0.3 -0.3 1.2
v 0.4 -0.4 1.2
v 0.4 -0.3 1.2
v 0.5 -0.4 0.9
v 0.5 -0.3 0.9
v 0.5 -0.2 0.9
v 0.6 -0.4 0.9
v 0.6 -0.3 0.9
v 0.6 -0.2 0.9
v 0.9 -0.5 0.9
v 0.9 -0.4 0.9
v 1 -0.5 0.9
v 1 -0.4 0.9
v 1.2 -0.5 0.8
v 1.2 -0.4 0.8
v 1.3 -0.5 0.8
v 1.3 -0.4 0.8
v -4.47035e-08 -0.4 0.5
v -4.47035e-08 -0.3 0.5
v 0.1 -0.4 0.5
v 0.1 -0.3 0.5
v 0.9 -0.5 0.4
v 0.9 -0.4 0.4
v 0.9 -0.3 0.4
v 1 -0.5 0.4
v 1 -0.4 0.4
v 1 -0.3 0.4
v -0.1 -0.5 1.3
v -0.1 -0.4 1.3
v -4.47035e-08 -0.5 1.3
v -4.47035e-08 -0.4 1.3
v 0.1 -0.5 1.2
v 0.1 -0.4 1.2
v 0.2 -0.5 1.2
v 0.2 -0.4 1.2
v 0.5 -0.5 1.2
v 0.5 -0.4 1.2
v 0.7 -0.5 1.2
v 0.7 -0.4 1.2
v 0.8 -0.5 1.2
v 0.8 -0.4 1.2
v 0.9 -0.5 1.2
v 0.9 -0.4 1.2
v 0.3 -0.4 1.1
v 0.3 -0.3 1.1
v 0.4 -0.4 1.1
v 0.4 -0.3 1.1
v 0.5 -0.4 0.8
v 0.5 -0.3 0.8
v 0.5 -0.2 0.8
v 0.6 -0.4 0.8
v 0.6 -0.3 0.8
v 0.6 -0.2 0.8
v 1.2 -0.5 0.7
v 1.2 -0.4 0.7
v 1.3 -0.5 0.7
v 1.3 -0.4 0.7
v 0.9 -0.5 0.6
v 0.9 -0.4 0.6
v 1 -0.5 0.6
v 1 -0.4 0.6
v -4.47035e-08 -0.4 0.4
v -4.47035e-08 -0.3 0.4
v 0.1 -0.4 0.4
v 0.1 -0.3 0.4
v 0.9 -0.5 0.3
v 0.9 -0.4 0.3
v 0.9 -0.3 0.3
v 1 -0.5 0.3
v 1 -0.4 0.3
v 1 -0.3 0.3
v -0.1 -0.5 1.4
v -4.47035e-08 -0.5 1.4
v 0.1 -0.5 1.4
v 0.2 -0.5 1.4
v -0.1 -0.5 1.3
v -4.47035e-08 -0.5 1.3
v 0.5 -0.5 1.3
v 0.7 -0.5 1.3
v 0.8 -0.5 1.3
v 0.9 -0.5 1.3
v 0.1 -0.5 1.2
v 0.2 -0.5 1.2
v 0.5 -0.5 1.2
v 0.7 -0.5 1.2
v 0.8 -0.5 1.2
v 0.9 -0.5 1.2
v 0.9 -0.5 0.9
v 1 -0.5 0.9
v 1.2 -0.5 0.8
v 1.3 -0.5 0.8
v 1.2 -0.5 0.7
v 1.3 -0.5 0.7
v 0.9 -0.5 0.6
v 1 -0.5 0.6
v 0.9 -0.5 0.4
v 1 -0.5 0.4
v 0.9 -0.5 0.3
v 1 -0.5 0.3
v 0.3 -0.4 1.2
v 0.4 -0.4 1.2
v 0.3 -0.4 1.1
v 0.4 -0.4 1.1
v 0.5 -0.4 0.9
v 0.6 -0.4 0.9
v 0.5 -0.4 0.8
v 0.6 -0.4 0.8
v -4.47035e-08 -0.4 0.5
v 0.1 -0.4 0.5
v -4.47035e-08 -0.4 0.4
v 0.1 -0.4 0.4
v -0.1 -0.4 1.4
v -4.47035e-08 -0.4 1.4
v 0.1 -0.4 1.4
v 0.2 -0.4 1.4
v -0.1 -0.4 1.3
v -4.47035e-08 -0.4 1.3
v 0.5 -0.4 1.3
v 0.7 -0.4 1.3
v 0.8 -0.4 1.3
v 0.9 -0.4 1.3
v 0.1 -0.4 1.2
v 0.2 -0.4 1.2
v 0.5 -0.4 1.2
v 0.7 -0.4 1.2
v 0.8 -0.4 1.2
v 0.9 -0.4 1.2
v 0.9 -0.4 0.9
v 1 -0.4 0.9
v 1.2 -0.4 0.8
v 1.3 -0.4 0.8
v 1.2 -0.4 0.7
v 1.3 -0.4 0.7
v 0.9 -0.4 0.6
v 1 -0.4 0.6
v 0.3 -0.3 1.2
v 0.4 -0.3 1.2
v 0.3 -0.3 1.1
v 0.4 -0.3 1.1
v -4.47035e-08 -0.3 0.5
v 0.1 -0.3 0.5
v -4.47035e-08 -0.3 0.4
v 0.1 -0.3 0.4
v 0.9 -0.3 0.4
v 1 -0.3 0.4
v 0.9 -0.3 0.3
v 1 -0.3 0.3
v 0.5 -0.2 0.9
v 0.6 -0.2 0.9
v 0.5 -0.2 0.8
v 0.6 -0.2 0.8

# faces
f 3/3/1 2/3/1 1/3/1
f 4/3/1 2/3/1 3/3/1
f 7/1/1 6/1/1 5/1/1
f 8/1/1 6/1/1 7/1/1
f 11/3/1 10/3/1 9/3/1
f 12/3/1 10/3/1 11/3/1
f 15/3/1 14/3/1 13/3/1
f 16/3/1 14/3/1 15/3/1
f 19/3/1 18/3/1 17/3/1
f 20/3/1 18/3/1 19/3/1
f 23/1/1 22/1/1 21/1/1
f 24/1/1 22/1/1 23/1/1
f 25/2/1 24/2/1 23/2/1
f 26/2/1 24/2/1 25/2/1
f 29/3/1 28/3/1 27/3/1
f 30/3/1 28/3/1 29/3/1
f 35/3/1 32/3/1 31/3/1
f 36/3/1 32/3/1 35/3/1
f 37/3/1 34/3/1 33/3/1
f 38/3/1 34/3/1 37/3/1
f 39/2/1 38/2/1 37/2/1
f 40/2/1 38/2/1 39/2/1
f 43/3/1 42/3/1 41/3/1
f 44/3/1 42/3/1 43/3/1
f 45/3/2 46/3/2 47/3/2
f 47/3/2 46/3/2 48/3/2
f 49/1/2 50/1/2 51/1/2
f 51/1/2 50/1/2 52/1/2
f 53/3/2 54/3/2 55/3/2
f 55/3/2 54/3/2 56/3/2
f 57/3/2 58/3/2 59/3/2
f 59/3/2 58/3/2 60/3/2
f 61/1/2 62/1/2 63/1/2
f 63/1/2 62/1/2 64/1/2
f 63/2/2 64/2/2 65/2/2
f 65/2/2 64/2/2 66/2/2
f 67/3/2 68/3/2 69/3/2
f 69/3/2 68/3/2 70/3/2
f 71/3/2 72/3/2 73/3/2
f 73/3/2 72/3/2 74/3/2
f 75/3/2 76/3/2 79/3/2
f 79/3/2 76/3/2 80/3/2
f 77/3/2 78/3/2 81/3/2
f 81/3/2 78/3/2 82/3/2
f 81/2/2 82/2/2 83/2/2
f 83/2/2 82/2/2 84/2/2
f 85/3/2 86/3/2 87/3/2
f 87/3/2 86/3/2 88/3/2
f 91/3/3 90/3/3 89/3/3
f 92/3/3 90/3/3 91/3/3
f 95/3/3 94/3/3 93/3/3
f 96/3/3 94/3/3 95/3/3
f 99/3/3 98/3/3 97/3/3
f 100/3/3 98/3/3 99/3/3
f 103/3/3 102/3/3 101/3/3
f 104/3/3 102/3/3 103/3/3
f 107/3/3 106/3/3 105/3/3
f 108/3/3 106/3/3 107/3/3
f 112/1/3 110/1/3 109/1/3
f 113/2/3 111/2/3 110/2/3
f 113/1/3 110/1/3 112/1/3
f 114/2/3 111/2/3 113/2/3
f 117/3/3 116/3/3 115/3/3
f 118/3/3 116/3/3 117/3/3
f 121/3/3 120/3/3 119/3/3
f 122/3/3 120/3/3 121/3/3
f 125/1/3 124/1/3 123/1/3
f 126/1/3 124/1/3 125/1/3
f 130/3/3 128/3/3 127/3/3
f 131/2/3 129/2/3 128/2/3
f 131/3/3 128/3/3 130/3/3
f 132/2/3 129/2/3 131/2/3
f 133/3/4 134/3/4 135/3/4
f 135/3/4 134/3/4 136/3/4
f 137/3/4 138/3/4 139/3/4
f 139/3/4 138/3/4 140/3/4
f 141/3/4 142/3/4 143/3/4
f 143/3/4 142/3/4 144/3/4
f 145/3/4 146/3/4 147/3/4
f 147/3/4 146/3/4 148/3/4
f 149/3/4 150/3/4 151/3/4
f 151/3/4 150/3/4 152/3/4
f 153/1/4 154/1/4 156/1/4
f 154/2/4 155/2/4 157/2/4
f 156/1/4 154/1/4 157/1/4
f 157/2/4 155/2/4 158/2/4
f 159/3/4 160/3/4 161/3/4
f 161/3/4 160/3/4 162/3/4
f 163/3/4 164/3/4 165/3/4
f 165/3/4 164/3/4 166/3/4
f 167/1/4 168/1/4 169/1/4
f 169/1/4 168/1/4 170/1/4
f 171/3/4 172/3/4 174/3/4
f 172/2/4 173/2/4 175/2/4
f 174/3/4 172/3/4 175/3/4
f 175/2/4 173/2/4 176/2/4
f 181/3/5 178/3/5 177/3/5
f 182/3/5 178/3/5 181/3/5
f 187/3/5 180/3/5 179/3/5
f 188/3/5 180/3/5 187/3/5
f 189/3/5 184/3/5 183/3/5
f 190/3/5 184/3/5 189/3/5
f 191/3/5 186/3/5 185/3/5
f 192/3/5 186/3/5 191/3/5
f 197/3/5 196/3/5 195/3/5
f 198/3/5 196/3/5 197/3/5
f 199/3/5 194/3/5 193/3/5
f 200/3/5 194/3/5 199/3/5
f 203/3/5 202/3/5 201/3/5
f 204/3/5 202/3/5 203/3/5
f 207/3/5 206/3/5 205/3/5
f 208/3/5 206/3/5 207/3/5
f 211/1/5 210/1/5 209/1/5
f 212/1/5 210/1/5 211/1/5
f 215/1/5 214/1/5 213/1/5
f 216/1/5 214/1/5 215/1/5
f 217/3/6 218/3/6 221/3/6
f 221/3/6 218/3/6 222/3/6
f 219/3/6 220/3/6 227/3/6
f 227/3/6 220/3/6 228/3/6
f 223/3/6 224/3/6 229/3/6
f 229/3/6 224/3/6 230/3/6
f 225/3/6 226/3/6 231/3/6
f 231/3/6 226/3/6 232/3/6
f 235/3/6 236/3/6 237/3/6
f 237/3/6 236/3/6 238/3/6
f 233/3/6 234/3/6 239/3/6
f 239/3/6 234/3/6 240/3/6
f 241/3/6 242/3/6 243/3/6
f 243/3/6 242/3/6 244/3/6
f 245/1/6 246/1/6 247/1/6
f 247/1/6 246/1/6 248/1/6
f 249/2/6 250/2/6 251/2/6
f 251/2/6 250/2/6 252/2/6
f 253/2/6 254/2/6 255/2/6
f 255/2/6 254/2/6 256/2/6
