# MagicaVoxel @ Ephtracy

# group
o 

# material
mtllib body.mtl
usemtl palette

# normals
vn -1 0 0
vn 1 0 0
vn 0 0 1
vn 0 0 -1
vn 0 -1 0
vn 0 1 0

# texcoords
vt 0.369141 0.5
vt 0.373047 0.5
vt 0.533203 0.5
vt 0.537109 0.5

# verts
v -0.2 1.6 0.2
v -0.2 1.6 0.0999999
v -0.2 1.6 -0.8
v -0.2 1.7 0.2
v -0.2 1.7 0.0999999
v -0.2 2 0.2
v -0.2 2 -0.8
v -0.2 2.1 0.2
v -0.2 2.1 -0.8
v -0.2 2.2 0.2
v -0.2 2.2 -0.8
v 0.4 1.6 0.2
v 0.4 1.6 0.0999999
v 0.4 1.6 -0.8
v 0.4 1.7 0.2
v 0.4 1.7 0.0999999
v 0.4 2 0.2
v 0.4 2 -0.8
v 0.4 2.1 0.2
v 0.4 2.1 -0.8
v 0.4 2.2 0.2
v 0.4 2.2 -0.8
v -0.2 1.6 0.2
v -0.2 1.7 0.2
v -0.2 2 0.2
v -0.2 2.1 0.2
v -0.2 2.2 0.2
v 0.4 1.6 0.2
v 0.4 1.7 0.2
v 0.4 2 0.2
v 0.4 2.1 0.2
v 0.4 2.2 0.2
v -0.2 1.6 -0.8
v -0.2 2 -0.8
v -0.2 2.1 -0.8
v -0.2 2.2 -0.8
v -0.0999999 2 -0.8
v -0.0999999 2.1 -0.8
v 0.3 2 -0.8
v 0.3 2.1 -0.8
v 0.4 1.6 -0.8
v 0.4 2 -0.8
v 0.4 2.1 -0.8
v 0.4 2.2 -0.8
v -0.2 1.6 0.2
v 0.4 1.6 0.2
v -0.2 1.6 0.0999999
v 0.4 1.6 0.0999999
v -0.0999999 1.6 -0.2
v 5.96046e-08 1.6 -0.2
v 0.2 1.6 -0.2
v 0.3 1.6 -0.2
v -0.0999999 1.6 -0.3
v 5.96046e-08 1.6 -0.3
v 0.2 1.6 -0.3
v 0.3 1.6 -0.3
v -0.0999999 1.6 -0.5
v 5.96046e-08 1.6 -0.5
v 0.2 1.6 -0.5
v 0.3 1.6 -0.5
v -0.0999999 1.6 -0.6
v 5.96046e-08 1.6 -0.6
v 0.2 1.6 -0.6
v 0.3 1.6 -0.6
v -0.2 1.6 -0.8
v 0.4 1.6 -0.8
v -0.2 2.2 0.2
v 0.4 2.2 0.2
v -0.2 2.2 -0.8
v 0.4 2.2 -0.8

# faces
f 4/2/1 2/2/1 1/2/1
f 5/1/1 3/1/1 2/1/1
f 5/2/1 2/2/1 4/2/1
f 6/1/1 5/1/1 4/1/1
f 7/1/1 3/1/1 5/1/1
f 7/1/1 5/1/1 6/1/1
f 8/2/1 7/2/1 6/2/1
f 9/2/1 7/2/1 8/2/1
f 10/1/1 9/1/1 8/1/1
f 11/1/1 9/1/1 10/1/1
f 12/2/2 13/2/2 15/2/2
f 13/1/2 14/1/2 16/1/2
f 15/2/2 13/2/2 16/2/2
f 15/1/2 16/1/2 17/1/2
f 16/1/2 14/1/2 18/1/2
f 17/1/2 16/1/2 18/1/2
f 17/2/2 18/2/2 19/2/2
f 19/2/2 18/2/2 20/2/2
f 19/1/2 20/1/2 21/1/2
f 21/1/2 20/1/2 22/1/2
f 28/2/3 24/2/3 23/2/3
f 29/1/3 25/1/3 24/1/3
f 29/2/3 24/2/3 28/2/3
f 30/2/3 26/2/3 25/2/3
f 30/1/3 25/1/3 29/1/3
f 31/1/3 27/1/3 26/1/3
f 31/2/3 26/2/3 30/2/3
f 32/1/3 27/1/3 31/1/3
f 33/1/4 34/1/4 37/1/4
f 34/2/4 35/2/4 37/2/4
f 35/1/4 36/1/4 38/1/4
f 37/2/4 35/2/4 38/2/4
f 33/1/4 37/1/4 39/1/4
f 37/1/4 38/1/4 39/1/4
f 38/1/4 36/1/4 40/1/4
f 39/1/4 38/1/4 40/1/4
f 33/1/4 39/1/4 41/1/4
f 39/2/4 40/2/4 42/2/4
f 41/1/4 39/1/4 42/1/4
f 40/1/4 36/1/4 43/1/4
f 42/2/4 40/2/4 43/2/4
f 43/1/4 36/1/4 44/1/4
f 47/2/5 46/2/5 45/2/5
f 48/2/5 46/2/5 47/2/5
f 49/1/5 48/1/5 47/1/5
f 50/1/5 48/1/5 49/1/5
f 51/1/5 48/1/5 50/1/5
f 52/1/5 48/1/5 51/1/5
f 53/1/5 49/1/5 47/1/5
f 53/2/5 50/2/5 49/2/5
f 54/4/5 51/4/5 50/4/5
f 54/2/5 50/2/5 53/2/5
f 55/2/5 52/2/5 51/2/5
f 55/4/5 51/4/5 54/4/5
f 56/1/5 48/1/5 52/1/5
f 56/2/5 52/2/5 55/2/5
f 57/4/5 54/4/5 53/4/5
f 57/1/5 53/1/5 47/1/5
f 58/3/5 55/3/5 54/3/5
f 58/4/5 54/4/5 57/4/5
f 59/4/5 56/4/5 55/4/5
f 59/3/5 55/3/5 58/3/5
f 60/1/5 48/1/5 56/1/5
f 60/4/5 56/4/5 59/4/5
f 61/1/5 57/1/5 47/1/5
f 61/2/5 58/2/5 57/2/5
f 62/4/5 59/4/5 58/4/5
f 62/2/5 58/2/5 61/2/5
f 63/2/5 60/2/5 59/2/5
f 63/4/5 59/4/5 62/4/5
f 64/1/5 48/1/5 60/1/5
f 64/2/5 60/2/5 63/2/5
f 65/1/5 63/1/5 62/1/5
f 65/1/5 61/1/5 47/1/5
f 65/1/5 64/1/5 63/1/5
f 65/1/5 62/1/5 61/1/5
f 66/1/5 48/1/5 64/1/5
f 66/1/5 64/1/5 65/1/5
f 67/1/6 68/1/6 69/1/6
f 69/1/6 68/1/6 70/1/6
