# MagicaVoxel @ Ephtracy

# group
o 

# material
mtllib head.mtl
usemtl palette

# normals
vn -1 0 0
vn 1 0 0
vn 0 0 1
vn 0 0 -1
vn 0 -1 0
vn 0 1 0

# texcoords
vt 0.220703 0.5
vt 0.361328 0.5
vt 0.365234 0.5
vt 0.369141 0.5
vt 0.373047 0.5
vt 0.533203 0.5
vt 0.537109 0.5
vt 0.958984 0.5
vt 0.962891 0.5
vt 0.994141 0.5

# verts
v -0.8 1.6 1.2
v -0.8 1.6 1
v -0.8 1.6 0.8
v -0.8 1.6 0.6
v -0.8 1.8 1.2
v -0.8 1.8 1
v -0.8 1.8 0.9
v -0.8 1.8 0.8
v -0.8 1.8 0.6
v -0.8 1.9 0.9
v -0.8 1.9 0.8
v -0.7 1.8 1.1
v -0.7 1.8 1
v -0.7 1.8 0.9
v -0.7 1.9 1.1
v -0.7 1.9 0.9
v -0.6 1.6 1.6
v -0.6 1.6 1.4
v -0.6 1.6 1.2
v -0.6 1.8 1.6
v -0.6 1.8 1.4
v -0.6 1.8 1.2
v -0.6 1.8 1.1
v -0.6 1.9 1.2
v -0.6 1.9 1.1
v -0.5 1.8 1.3
v -0.5 1.8 1.2
v -0.5 1.9 1.3
v -0.5 1.9 1.2
v -0.4 1.4 0.8
v -0.4 1.4 0.6
v -0.4 1.4 0.4
v -0.4 1.4 0.2
v -0.4 1.5 0.6
v -0.4 1.5 0.4
v -0.4 1.6 0.8
v -0.4 1.6 0.7
v -0.4 1.6 0.6
v -0.4 1.6 0.4
v -0.4 1.8 0.8
v -0.4 1.8 0.7
v -0.4 1.8 0.6
v -0.4 1.8 0.3
v -0.4 1.8 0.2
v -0.4 1.9 0.8
v -0.4 1.9 0.7
v -0.4 1.9 0.3
v -0.4 1.9 0.2
v -0.4 2 0.8
v -0.4 2 0.2
v 0 1.6 0.6
v 0 1.6 0.4
v 0 1.8 0.6
v 0 1.8 0.4
v 0.4 1.6 1.6
v 0.4 1.6 0.8
v 0.4 1.8 1.6
v 0.4 1.8 0.8
v 0.6 1.8 1.3
v 0.6 1.8 1
v 0.6 1.8 0.8
v 0.6 1.9 1.3
v 0.6 1.9 1
v 0.6 1.9 0.8
v -0.4 1.8 1.3
v -0.4 1.8 1
v -0.4 1.8 0.8
v -0.4 1.9 1.3
v -0.4 1.9 1
v -0.4 1.9 0.8
v -0.2 1.6 1.6
v -0.2 1.6 0.8
v -0.2 1.6 0.6
v -0.2 1.6 0.4
v -0.2 1.8 1.6
v -0.2 1.8 0.8
v -0.2 1.8 0.6
v -0.2 1.8 0.4
v 0.6 1.4 0.8
v 0.6 1.4 0.6
v 0.6 1.4 0.4
v 0.6 1.4 0.2
v 0.6 1.5 0.6
v 0.6 1.5 0.4
v 0.6 1.6 0.8
v 0.6 1.6 0.7
v 0.6 1.6 0.6
v 0.6 1.6 0.4
v 0.6 1.8 0.8
v 0.6 1.8 0.7
v 0.6 1.8 0.6
v 0.6 1.8 0.3
v 0.6 1.8 0.2
v 0.6 1.9 0.8
v 0.6 1.9 0.7
v 0.6 1.9 0.3
v 0.6 1.9 0.2
v 0.6 2 0.8
v 0.6 2 0.2
v 0.7 1.8 1.3
v 0.7 1.8 1.2
v 0.7 1.9 1.3
v 0.7 1.9 1.2
v 0.8 1.6 1.6
v 0.8 1.6 1.4
v 0.8 1.6 1.2
v 0.8 1.8 1.6
v 0.8 1.8 1.4
v 0.8 1.8 1.2
v 0.8 1.8 1.1
v 0.8 1.9 1.2
v 0.8 1.9 1.1
v 0.9 1.8 1.1
v 0.9 1.8 1
v 0.9 1.8 0.9
v 0.9 1.9 1.1
v 0.9 1.9 0.9
v 1 1.6 1.2
v 1 1.6 1
v 1 1.6 0.8
v 1 1.6 0.6
v 1 1.8 1.2
v 1 1.8 1
v 1 1.8 0.9
v 1 1.8 0.8
v 1 1.8 0.6
v 1 1.9 0.9
v 1 1.9 0.8
v -0.6 1.6 1.6
v -0.6 1.8 1.6
v -0.2 1.6 1.6
v -0.2 1.8 1.6
v 0.4 1.6 1.6
v 0.4 1.8 1.6
v 0.8 1.6 1.6
v 0.8 1.8 1.6
v -0.5 1.8 1.3
v -0.5 1.9 1.3
v -0.4 1.8 1.3
v -0.4 1.9 1.3
v 0.6 1.8 1.3
v 0.6 1.9 1.3
v 0.7 1.8 1.3
v 0.7 1.9 1.3
v -0.8 1.6 1.2
v -0.8 1.8 1.2
v -0.6 1.6 1.2
v -0.6 1.8 1.2
v -0.6 1.9 1.2
v -0.5 1.8 1.2
v -0.5 1.9 1.2
v 0.7 1.8 1.2
v 0.7 1.9 1.2
v 0.8 1.6 1.2
v 0.8 1.8 1.2
v 0.8 1.9 1.2
v 1 1.6 1.2
v 1 1.8 1.2
v -0.7 1.8 1.1
v -0.7 1.9 1.1
v -0.6 1.8 1.1
v -0.6 1.9 1.1
v 0.8 1.8 1.1
v 0.8 1.9 1.1
v 0.9 1.8 1.1
v 0.9 1.9 1.1
v -0.8 1.8 0.9
v -0.8 1.9 0.9
v -0.7 1.8 0.9
v -0.7 1.9 0.9
v 0.9 1.8 0.9
v 0.9 1.9 0.9
v 1 1.8 0.9
v 1 1.9 0.9
v -0.4 1.4 0.8
v -0.4 1.6 0.8
v -0.4 1.8 0.8
v -0.4 1.9 0.8
v -0.4 2 0.8
v -0.3 1.6 0.8
v -0.2 1.6 0.8
v -0.2 1.8 0.8
v -0.2 1.9 0.8
v 0.4 1.6 0.8
v 0.4 1.8 0.8
v 0.4 1.9 0.8
v 0.5 1.6 0.8
v 0.6 1.4 0.8
v 0.6 1.6 0.8
v 0.6 1.8 0.8
v 0.6 1.9 0.8
v 0.6 2 0.8
v -0.2 1.6 0.4
v -0.2 1.8 0.4
v 0 1.6 0.4
v 0 1.8 0.4
v -0.8 1.8 0.8
v -0.8 1.9 0.8
v -0.6 1.8 0.8
v -0.6 1.9 0.8
v -0.5 1.8 0.8
v -0.4 1.8 0.8
v -0.4 1.9 0.8
v 0.6 1.8 0.8
v 0.6 1.9 0.8
v 0.7 1.8 0.8
v 0.8 1.8 0.8
v 0.8 1.9 0.8
v 1 1.8 0.8
v 1 1.9 0.8
v -0.8 1.6 0.6
v -0.8 1.8 0.6
v -0.4 1.6 0.6
v -0.4 1.8 0.6
v -0.2 1.6 0.6
v -0.2 1.8 0.6
v 0 1.6 0.6
v 0 1.8 0.6
v 0.6 1.6 0.6
v 0.6 1.8 0.6
v 1 1.6 0.6
v 1 1.8 0.6
v -0.4 1.4 0.2
v -0.4 1.8 0.2
v -0.4 1.9 0.2
v -0.4 2 0.2
v -0.3 1.8 0.2
v -0.3 1.9 0.2
v -0.1 1.9 0.2
v -0.1 2 0.2
v 0 1.9 0.2
v 0 2 0.2
v 0.1 1.9 0.2
v 0.1 2 0.2
v 0.3 1.9 0.2
v 0.3 2 0.2
v 0.5 1.8 0.2
v 0.5 1.9 0.2
v 0.6 1.4 0.2
v 0.6 1.8 0.2
v 0.6 1.9 0.2
v 0.6 2 0.2
v -0.4 1.4 0.8
v 0.6 1.4 0.8
v -0.4 1.4 0.6
v -0.2 1.4 0.6
v 0 1.4 0.6
v 0.2 1.4 0.6
v 0.4 1.4 0.6
v 0.6 1.4 0.6
v -0.4 1.4 0.4
v -0.2 1.4 0.4
v 0 1.4 0.4
v 0.2 1.4 0.4
v 0.4 1.4 0.4
v 0.6 1.4 0.4
v -0.4 1.4 0.2
v 0.6 1.4 0.2
v -0.6 1.6 1.6
v -0.2 1.6 1.6
v 0.4 1.6 1.6
v 0.8 1.6 1.6
v -0.5 1.6 1.5
v -0.4 1.6 1.5
v 0.6 1.6 1.5
v 0.7 1.6 1.5
v -0.6 1.6 1.4
v -0.5 1.6 1.4
v -0.4 1.6 1.4
v 0.6 1.6 1.4
v 0.7 1.6 1.4
v 0.8 1.6 1.4
v -0.4 1.6 1.3
v -0.3 1.6 1.3
v 0.5 1.6 1.3
v 0.6 1.6 1.3
v -0.8 1.6 1.2
v -0.6 1.6 1.2
v -0.4 1.6 1.2
v 0.6 1.6 1.2
v 0.8 1.6 1.2
v 1 1.6 1.2
v -0.8 1.6 1
v -0.6 1.6 1
v 0.8 1.6 1
v 1 1.6 1
v -0.8 1.6 0.8
v -0.7 1.6 0.8
v -0.4 1.6 0.8
v -0.3 1.6 0.8
v -0.2 1.6 0.8
v 0.4 1.6 0.8
v 0.5 1.6 0.8
v 0.6 1.6 0.8
v 0.9 1.6 0.8
v 1 1.6 0.8
v -0.7 1.6 0.7
v -0.4 1.6 0.7
v 0.6 1.6 0.7
v 0.9 1.6 0.7
v -0.8 1.6 0.6
v -0.4 1.6 0.6
v 0.6 1.6 0.6
v 1 1.6 0.6
v -0.2 1.8 0.6
v 0 1.8 0.6
v -0.2 1.8 0.4
v 0 1.8 0.4
v -0.2 1.6 0.6
v 0 1.6 0.6
v -0.2 1.6 0.4
v 0 1.6 0.4
v -0.6 1.8 1.6
v -0.2 1.8 1.6
v 0.4 1.8 1.6
v 0.8 1.8 1.6
v -0.6 1.8 1.4
v -0.4 1.8 1.4
v 0.6 1.8 1.4
v 0.8 1.8 1.4
v -0.5 1.8 1.3
v -0.4 1.8 1.3
v 0.6 1.8 1.3
v 0.7 1.8 1.3
v -0.8 1.8 1.2
v -0.6 1.8 1.2
v -0.5 1.8 1.2
v 0.7 1.8 1.2
v 0.8 1.8 1.2
v 1 1.8 1.2
v -0.7 1.8 1.1
v -0.6 1.8 1.1
v 0.8 1.8 1.1
v 0.9 1.8 1.1
v -0.8 1.8 1
v -0.7 1.8 1
v -0.4 1.8 1
v 0.6 1.8 1
v 0.9 1.8 1
v 1 1.8 1
v -0.8 1.8 0.9
v -0.7 1.8 0.9
v 0.9 1.8 0.9
v 1 1.8 0.9
v -0.8 1.8 0.8
v -0.6 1.8 0.8
v -0.5 1.8 0.8
v -0.4 1.8 0.8
v -0.2 1.8 0.8
v 0.4 1.8 0.8
v 0.6 1.8 0.8
v 0.7 1.8 0.8
v 0.8 1.8 0.8
v 1 1.8 0.8
v -0.5 1.8 0.7
v -0.4 1.8 0.7
v 0.6 1.8 0.7
v 0.7 1.8 0.7
v -0.8 1.8 0.6
v -0.4 1.8 0.6
v 0.6 1.8 0.6
v 1 1.8 0.6
v -0.5 1.9 1.3
v -0.4 1.9 1.3
v 0.6 1.9 1.3
v 0.7 1.9 1.3
v -0.6 1.9 1.2
v -0.5 1.9 1.2
v 0.7 1.9 1.2
v 0.8 1.9 1.2
v -0.7 1.9 1.1
v -0.6 1.9 1.1
v 0.8 1.9 1.1
v 0.9 1.9 1.1
v -0.5 1.9 1
v -0.4 1.9 1
v 0.6 1.9 1
v 0.7 1.9 1
v -0.8 1.9 0.9
v -0.7 1.9 0.9
v -0.6 1.9 0.9
v -0.5 1.9 0.9
v 0.7 1.9 0.9
v 0.8 1.9 0.9
v 0.9 1.9 0.9
v 1 1.9 0.9
v -0.8 1.9 0.8
v -0.6 1.9 0.8
v -0.4 1.9 0.8
v 0.6 1.9 0.8
v 0.8 1.9 0.8
v 1 1.9 0.8
v -0.4 2 0.8
v 0.6 2 0.8
v -0.1 2 0.3
v 0 2 0.3
v 0.1 2 0.3
v 0.3 2 0.3
v -0.4 2 0.2
v -0.1 2 0.2
v 0 2 0.2
v 0.1 2 0.2
v 0.3 2 0.2
v 0.6 2 0.2

# faces
f 5/3/1 2/3/1 1/3/1
f 6/2/1 3/2/1 2/2/1
f 6/3/1 2/3/1 5/3/1
f 7/2/1 3/2/1 6/2/1
f 8/4/1 4/4/1 3/4/1
f 8/2/1 3/2/1 7/2/1
f 9/4/1 4/4/1 8/4/1
f 10/7/1 8/7/1 7/7/1
f 11/7/1 8/7/1 10/7/1
f 15/7/1 13/7/1 12/7/1
f 15/7/1 14/7/1 13/7/1
f 16/7/1 14/7/1 15/7/1
f 20/4/1 18/4/1 17/4/1
f 21/3/1 19/3/1 18/3/1
f 21/4/1 18/4/1 20/4/1
f 22/3/1 19/3/1 21/3/1
f 24/7/1 23/7/1 22/7/1
f 25/7/1 23/7/1 24/7/1
f 28/7/1 27/7/1 26/7/1
f 29/7/1 27/7/1 28/7/1
f 34/4/1 31/4/1 30/4/1
f 34/10/1 32/10/1 31/10/1
f 35/4/1 33/4/1 32/4/1
f 35/10/1 32/10/1 34/10/1
f 36/4/1 34/4/1 30/4/1
f 37/4/1 34/4/1 36/4/1
f 38/8/1 35/8/1 34/8/1
f 38/4/1 34/4/1 37/4/1
f 39/4/1 33/4/1 35/4/1
f 39/8/1 35/8/1 38/8/1
f 42/4/1 39/4/1 38/4/1
f 43/4/1 33/4/1 39/4/1
f 43/4/1 39/4/1 42/4/1
f 44/4/1 33/4/1 43/4/1
f 45/5/1 41/5/1 40/5/1
f 46/4/1 42/4/1 41/4/1
f 46/5/1 41/5/1 45/5/1
f 46/4/1 43/4/1 42/4/1
f 47/5/1 44/5/1 43/5/1
f 47/4/1 43/4/1 46/4/1
f 48/5/1 44/5/1 47/5/1
f 49/4/1 46/4/1 45/4/1
f 49/4/1 47/4/1 46/4/1
f 49/4/1 48/4/1 47/4/1
f 50/4/1 48/4/1 49/4/1
f 53/4/1 52/4/1 51/4/1
f 54/4/1 52/4/1 53/4/1
f 57/4/1 56/4/1 55/4/1
f 58/4/1 56/4/1 57/4/1
f 62/7/1 60/7/1 59/7/1
f 63/6/1 61/6/1 60/6/1
f 63/7/1 60/7/1 62/7/1
f 64/6/1 61/6/1 63/6/1
f 65/7/2 66/7/2 68/7/2
f 66/6/2 67/6/2 69/6/2
f 68/7/2 66/7/2 69/7/2
f 69/6/2 67/6/2 70/6/2
f 71/4/2 72/4/2 75/4/2
f 75/4/2 72/4/2 76/4/2
f 73/4/2 74/4/2 77/4/2
f 77/4/2 74/4/2 78/4/2
f 79/4/2 80/4/2 83/4/2
f 80/10/2 81/10/2 83/10/2
f 81/4/2 82/4/2 84/4/2
f 83/10/2 81/10/2 84/10/2
f 79/4/2 83/4/2 85/4/2
f 85/4/2 83/4/2 86/4/2
f 83/8/2 84/8/2 87/8/2
f 86/4/2 83/4/2 87/4/2
f 84/4/2 82/4/2 88/4/2
f 87/8/2 84/8/2 88/8/2
f 87/4/2 88/4/2 91/4/2
f 88/4/2 82/4/2 92/4/2
f 91/4/2 88/4/2 92/4/2
f 92/4/2 82/4/2 93/4/2
f 89/5/2 90/5/2 94/5/2
f 90/4/2 91/4/2 95/4/2
f 94/5/2 90/5/2 95/5/2
f 91/4/2 92/4/2 95/4/2
f 92/5/2 93/5/2 96/5/2
f 95/4/2 92/4/2 96/4/2
f 96/5/2 93/5/2 97/5/2
f 94/4/2 95/4/2 98/4/2
f 95/4/2 96/4/2 98/4/2
f 96/4/2 97/4/2 98/4/2
f 98/4/2 97/4/2 99/4/2
f 100/7/2 101/7/2 102/7/2
f 102/7/2 101/7/2 103/7/2
f 104/4/2 105/4/2 107/4/2
f 105/3/2 106/3/2 108/3/2
f 107/4/2 105/4/2 108/4/2
f 108/3/2 106/3/2 109/3/2
f 109/7/2 110/7/2 111/7/2
f 111/7/2 110/7/2 112/7/2
f 113/7/2 114/7/2 116/7/2
f 114/7/2 115/7/2 116/7/2
f 116/7/2 115/7/2 117/7/2
f 118/3/2 119/3/2 122/3/2
f 119/2/2 120/2/2 123/2/2
f 122/3/2 119/3/2 123/3/2
f 123/2/2 120/2/2 124/2/2
f 120/4/2 121/4/2 125/4/2
f 124/2/2 120/2/2 125/2/2
f 125/4/2 121/4/2 126/4/2
f 124/7/2 125/7/2 127/7/2
f 127/7/2 125/7/2 128/7/2
f 131/4/3 130/4/3 129/4/3
f 132/4/3 130/4/3 131/4/3
f 135/4/3 134/4/3 133/4/3
f 136/4/3 134/4/3 135/4/3
f 139/7/3 138/7/3 137/7/3
f 140/7/3 138/7/3 139/7/3
f 143/7/3 142/7/3 141/7/3
f 144/7/3 142/7/3 143/7/3
f 147/3/3 146/3/3 145/3/3
f 148/3/3 146/3/3 147/3/3
f 150/7/3 149/7/3 148/7/3
f 151/7/3 149/7/3 150/7/3
f 155/7/3 153/7/3 152/7/3
f 156/7/3 153/7/3 155/7/3
f 157/3/3 155/3/3 154/3/3
f 158/3/3 155/3/3 157/3/3
f 161/7/3 160/7/3 159/7/3
f 162/7/3 160/7/3 161/7/3
f 165/7/3 164/7/3 163/7/3
f 166/7/3 164/7/3 165/7/3
f 169/7/3 168/7/3 167/7/3
f 170/7/3 168/7/3 169/7/3
f 173/7/3 172/7/3 171/7/3
f 174/7/3 172/7/3 173/7/3
f 180/4/3 176/4/3 175/4/3
f 181/4/3 180/4/3 175/4/3
f 182/5/3 178/5/3 177/5/3
f 183/4/3 179/4/3 178/4/3
f 183/5/3 178/5/3 182/5/3
f 184/4/3 182/4/3 181/4/3
f 184/4/3 181/4/3 175/4/3
f 184/4/3 183/4/3 182/4/3
f 185/4/3 183/4/3 184/4/3
f 186/4/3 179/4/3 183/4/3
f 186/4/3 183/4/3 185/4/3
f 187/4/3 184/4/3 175/4/3
f 188/4/3 187/4/3 175/4/3
f 189/4/3 187/4/3 188/4/3
f 190/5/3 186/5/3 185/5/3
f 191/4/3 179/4/3 186/4/3
f 191/5/3 186/5/3 190/5/3
f 192/4/3 179/4/3 191/4/3
f 195/4/3 194/4/3 193/4/3
f 196/4/3 194/4/3 195/4/3
f 197/7/4 198/7/4 199/7/4
f 199/7/4 198/7/4 200/7/4
f 199/6/4 200/6/4 201/6/4
f 201/6/4 200/6/4 202/6/4
f 202/6/4 200/6/4 203/6/4
f 204/6/4 205/6/4 206/6/4
f 206/6/4 205/6/4 207/6/4
f 207/6/4 205/6/4 208/6/4
f 207/7/4 208/7/4 209/7/4
f 209/7/4 208/7/4 210/7/4
f 211/4/4 212/4/4 213/4/4
f 213/4/4 212/4/4 214/4/4
f 215/4/4 216/4/4 217/4/4
f 217/4/4 216/4/4 218/4/4
f 219/4/4 220/4/4 221/4/4
f 221/4/4 220/4/4 222/4/4
f 223/4/4 224/4/4 227/4/4
f 224/5/4 225/5/4 227/5/4
f 225/4/4 226/4/4 228/4/4
f 227/5/4 225/5/4 228/5/4
f 227/4/4 228/4/4 229/4/4
f 228/4/4 226/4/4 229/4/4
f 229/4/4 226/4/4 230/4/4
f 227/4/4 229/4/4 231/4/4
f 229/5/4 230/5/4 231/5/4
f 231/5/4 230/5/4 232/5/4
f 227/4/4 231/4/4 233/4/4
f 231/4/4 232/4/4 233/4/4
f 233/4/4 232/4/4 234/4/4
f 227/4/4 233/4/4 235/4/4
f 233/5/4 234/5/4 235/5/4
f 235/5/4 234/5/4 236/5/4
f 223/4/4 227/4/4 237/4/4
f 227/4/4 235/4/4 237/4/4
f 235/4/4 236/4/4 237/4/4
f 237/4/4 236/4/4 238/4/4
f 223/4/4 237/4/4 239/4/4
f 237/5/4 238/5/4 240/5/4
f 239/4/4 237/4/4 240/4/4
f 238/4/4 236/4/4 241/4/4
f 240/5/4 238/5/4 241/5/4
f 241/4/4 236/4/4 242/4/4
f 245/4/5 244/4/5 243/4/5
f 246/4/5 244/4/5 245/4/5
f 247/4/5 244/4/5 246/4/5
f 248/4/5 244/4/5 247/4/5
f 249/4/5 244/4/5 248/4/5
f 250/4/5 244/4/5 249/4/5
f 251/10/5 246/10/5 245/10/5
f 252/2/5 247/2/5 246/2/5
f 252/10/5 246/10/5 251/10/5
f 253/1/5 248/1/5 247/1/5
f 253/2/5 247/2/5 252/2/5
f 254/2/5 249/2/5 248/2/5
f 254/1/5 248/1/5 253/1/5
f 255/10/5 250/10/5 249/10/5
f 255/2/5 249/2/5 254/2/5
f 256/10/5 250/10/5 255/10/5
f 257/4/5 252/4/5 251/4/5
f 257/4/5 253/4/5 252/4/5
f 257/4/5 256/4/5 255/4/5
f 257/4/5 255/4/5 254/4/5
f 257/4/5 254/4/5 253/4/5
f 258/4/5 256/4/5 257/4/5
f 263/4/5 260/4/5 259/4/5
f 264/4/5 260/4/5 263/4/5
f 265/4/5 262/4/5 261/4/5
f 266/4/5 262/4/5 265/4/5
f 267/4/5 263/4/5 259/4/5
f 268/5/5 264/5/5 263/5/5
f 268/4/5 263/4/5 267/4/5
f 269/4/5 260/4/5 264/4/5
f 269/5/5 264/5/5 268/5/5
f 270/4/5 265/4/5 261/4/5
f 270/5/5 266/5/5 265/5/5
f 271/4/5 262/4/5 266/4/5
f 271/5/5 266/5/5 270/5/5
f 272/4/5 262/4/5 271/4/5
f 273/3/5 268/3/5 267/3/5
f 273/4/5 260/4/5 269/4/5
f 273/3/5 269/3/5 268/3/5
f 274/4/5 260/4/5 273/4/5
f 275/4/5 270/4/5 261/4/5
f 276/3/5 272/3/5 271/3/5
f 276/4/5 270/4/5 275/4/5
f 276/3/5 271/3/5 270/3/5
f 278/3/5 273/3/5 267/3/5
f 279/5/5 274/5/5 273/5/5
f 279/3/5 273/3/5 278/3/5
f 280/3/5 272/3/5 276/3/5
f 280/5/5 276/5/5 275/5/5
f 281/3/5 272/3/5 280/3/5
f 283/3/5 278/3/5 277/3/5
f 284/2/5 279/2/5 278/2/5
f 284/3/5 278/3/5 283/3/5
f 285/2/5 281/2/5 280/2/5
f 285/3/5 282/3/5 281/3/5
f 286/3/5 282/3/5 285/3/5
f 287/2/5 284/2/5 283/2/5
f 288/2/5 284/2/5 287/2/5
f 289/2/5 279/2/5 284/2/5
f 289/2/5 284/2/5 288/2/5
f 289/5/5 274/5/5 279/5/5
f 290/4/5 260/4/5 274/4/5
f 290/5/5 274/5/5 289/5/5
f 291/4/5 260/4/5 290/4/5
f 292/4/5 275/4/5 261/4/5
f 293/5/5 280/5/5 275/5/5
f 293/4/5 275/4/5 292/4/5
f 294/2/5 285/2/5 280/2/5
f 294/5/5 280/5/5 293/5/5
f 294/2/5 286/2/5 285/2/5
f 295/2/5 286/2/5 294/2/5
f 296/2/5 286/2/5 295/2/5
f 297/4/5 288/4/5 287/4/5
f 297/5/5 289/5/5 288/5/5
f 298/5/5 289/5/5 297/5/5
f 299/5/5 295/5/5 294/5/5
f 300/4/5 296/4/5 295/4/5
f 300/5/5 295/5/5 299/5/5
f 301/4/5 298/4/5 297/4/5
f 301/4/5 297/4/5 287/4/5
f 302/4/5 298/4/5 301/4/5
f 303/4/5 300/4/5 299/4/5
f 304/4/5 296/4/5 300/4/5
f 304/4/5 300/4/5 303/4/5
f 307/4/5 306/4/5 305/4/5
f 308/4/5 306/4/5 307/4/5
f 309/1/6 310/1/6 311/1/6
f 311/1/6 310/1/6 312/1/6
f 313/4/6 314/4/6 317/4/6
f 317/4/6 314/4/6 318/4/6
f 315/4/6 316/4/6 319/4/6
f 319/4/6 316/4/6 320/4/6
f 317/3/6 318/3/6 321/3/6
f 318/4/6 314/4/6 322/4/6
f 321/3/6 318/3/6 322/3/6
f 315/4/6 319/4/6 323/4/6
f 319/3/6 320/3/6 323/3/6
f 323/3/6 320/3/6 324/3/6
f 317/3/6 321/3/6 326/3/6
f 326/3/6 321/3/6 327/3/6
f 324/3/6 320/3/6 328/3/6
f 328/3/6 320/3/6 329/3/6
f 325/3/6 326/3/6 331/3/6
f 331/3/6 326/3/6 332/3/6
f 329/3/6 330/3/6 333/3/6
f 333/3/6 330/3/6 334/3/6
f 325/3/6 331/3/6 335/3/6
f 335/3/6 331/3/6 336/3/6
f 322/4/6 314/4/6 337/4/6
f 315/4/6 323/4/6 338/4/6
f 334/3/6 330/3/6 339/3/6
f 339/3/6 330/3/6 340/3/6
f 335/2/6 336/2/6 341/2/6
f 341/2/6 336/2/6 342/2/6
f 339/2/6 340/2/6 343/2/6
f 343/2/6 340/2/6 344/2/6
f 337/4/6 314/4/6 348/4/6
f 348/4/6 314/4/6 349/4/6
f 315/4/6 338/4/6 350/4/6
f 350/4/6 338/4/6 351/4/6
f 346/4/6 347/4/6 355/4/6
f 345/4/6 346/4/6 355/4/6
f 347/5/6 348/5/6 355/5/6
f 355/5/6 348/5/6 356/5/6
f 351/5/6 352/5/6 357/5/6
f 353/4/6 354/4/6 358/4/6
f 357/5/6 352/5/6 358/5/6
f 352/4/6 353/4/6 358/4/6
f 345/4/6 355/4/6 359/4/6
f 355/4/6 356/4/6 359/4/6
f 359/4/6 356/4/6 360/4/6
f 357/4/6 358/4/6 361/4/6
f 358/4/6 354/4/6 362/4/6
f 361/4/6 358/4/6 362/4/6
f 363/7/6 364/7/6 368/7/6
f 365/7/6 366/7/6 369/7/6
f 367/7/6 368/7/6 372/7/6
f 369/7/6 370/7/6 373/7/6
f 371/7/6 372/7/6 375/7/6
f 368/7/6 364/7/6 375/7/6
f 372/7/6 368/7/6 375/7/6
f 375/7/6 364/7/6 376/7/6
f 373/7/6 374/7/6 377/7/6
f 369/7/6 373/7/6 377/7/6
f 365/7/6 369/7/6 377/7/6
f 377/7/6 374/7/6 378/7/6
f 371/7/6 375/7/6 380/7/6
f 380/7/6 375/7/6 381/7/6
f 375/6/6 376/6/6 382/6/6
f 381/7/6 375/7/6 382/7/6
f 378/7/6 374/7/6 383/7/6
f 377/6/6 378/6/6 383/6/6
f 383/7/6 374/7/6 384/7/6
f 384/7/6 374/7/6 385/7/6
f 380/7/6 381/7/6 387/7/6
f 379/7/6 380/7/6 387/7/6
f 381/6/6 382/6/6 388/6/6
f 387/7/6 381/7/6 388/7/6
f 382/6/6 376/6/6 389/6/6
f 388/6/6 382/6/6 389/6/6
f 377/6/6 383/6/6 390/6/6
f 383/6/6 384/6/6 390/6/6
f 385/7/6 386/7/6 391/7/6
f 390/6/6 384/6/6 391/6/6
f 384/7/6 385/7/6 391/7/6
f 391/7/6 386/7/6 392/7/6
f 393/4/6 394/4/6 395/4/6
f 395/4/6 394/4/6 396/4/6
f 396/4/6 394/4/6 397/4/6
f 397/4/6 394/4/6 398/4/6
f 393/4/6 395/4/6 399/4/6
f 395/5/6 396/5/6 400/5/6
f 399/4/6 395/4/6 400/4/6
f 396/4/6 397/4/6 401/4/6
f 400/5/6 396/5/6 401/5/6
f 397/5/6 398/5/6 402/5/6
f 401/4/6 397/4/6 402/4/6
f 398/4/6 394/4/6 403/4/6
f 402/5/6 398/5/6 403/5/6
f 403/4/6 394/4/6 404/4/6
