# MagicaVoxel @ Ephtracy

# group
o 

# material
mtllib left_wing.mtl
usemtl palette

# normals
vn -1 0 0
vn 1 0 0
vn 0 0 1
vn 0 0 -1
vn 0 -1 0
vn 0 1 0

# texcoords
vt 0.353516 0.5
vt 0.365234 0.5
vt 0.369141 0.5
vt 0.373047 0.5
vt 0.533203 0.5
vt 0.537109 0.5

# verts
v 0.4 1.8 0.2
v 0.4 1.8 -0.8
v 0.4 1.9 0.2
v 0.4 1.9 -0.2
v 0.4 1.9 -0.3
v 0.4 1.9 -0.8
v 0.4 2 0.2
v 0.4 2 -0.2
v 0.4 2 -0.3
v 0.4 2 -0.8
v 1 1.8 0.4
v 1 1.8 0.2
v 1 1.9 0.3
v 1 1.9 0.2
v 1 2 0.4
v 1 2 0.3
v 1 2 0.2
v 1.2 1.8 -0.4
v 1.2 1.8 -0.5
v 1.2 1.8 -0.6
v 1.2 2 -0.4
v 1.2 2 -0.5
v 1.2 2 -0.6
v 1.4 1.8 -0.6
v 1.4 1.8 -0.8
v 1.4 1.9 -0.6
v 1.4 2 -0.6
v 1.4 2 -0.8
v 0.6 1.8 -0.6
v 0.6 1.8 -0.8
v 0.6 2 -0.6
v 0.6 2 -0.8
v 0.8 1.8 -0.4
v 0.8 1.8 -0.5
v 0.8 1.8 -0.6
v 0.8 1.9 -0.4
v 0.8 2 -0.4
v 0.8 2 -0.5
v 0.8 2 -0.6
v 1.2 1.8 0.4
v 1.2 1.8 0.2
v 1.2 2 0.4
v 1.2 2 0.2
v 1.4 1.8 0.2
v 1.4 1.8 0
v 1.4 2 0.2
v 1.4 2 0
v 1.6 1.8 0
v 1.6 1.8 -0.8
v 1.6 2 0
v 1.6 2 -0.8
v 1 1.8 0.4
v 1 2 0.4
v 1.2 1.8 0.4
v 1.2 2 0.4
v 0.4 1.8 0.2
v 0.4 1.9 0.2
v 0.4 2 0.2
v 0.5 1.8 0.2
v 0.5 1.9 0.2
v 0.6 1.8 0.2
v 0.6 1.9 0.2
v 0.7 1.8 0.2
v 0.7 1.9 0.2
v 1 1.8 0.2
v 1 1.9 0.2
v 1 2 0.2
v 1.2 1.8 0.2
v 1.2 2 0.2
v 1.4 1.8 0.2
v 1.4 2 0.2
v 1.4 1.8 0
v 1.4 2 0
v 1.6 1.8 0
v 1.6 2 0
v 0.8 1.8 -0.4
v 0.8 1.9 -0.4
v 0.8 2 -0.4
v 0.9 1.9 -0.4
v 0.9 2 -0.4
v 1.2 1.8 -0.4
v 1.2 2 -0.4
v 0.6 1.8 -0.6
v 0.6 2 -0.6
v 0.7 1.8 -0.6
v 0.7 2 -0.6
v 0.8 1.8 -0.6
v 0.8 2 -0.6
v 1.2 1.8 -0.6
v 1.2 2 -0.6
v 1.3 1.8 -0.6
v 1.3 1.9 -0.6
v 1.4 1.8 -0.6
v 1.4 1.9 -0.6
v 1.4 2 -0.6
v 0.4 1.8 -0.8
v 0.4 1.9 -0.8
v 0.4 2 -0.8
v 0.5 1.8 -0.8
v 0.5 1.9 -0.8
v 0.6 1.8 -0.8
v 0.6 2 -0.8
v 1.4 1.8 -0.8
v 1.4 2 -0.8
v 1.6 1.8 -0.8
v 1.6 2 -0.8
v 1 1.8 0.4
v 1.2 1.8 0.4
v 0.4 1.8 0.2
v 0.5 1.8 0.2
v 0.6 1.8 0.2
v 0.7 1.8 0.2
v 1 1.8 0.2
v 1.2 1.8 0.2
v 1.4 1.8 0.2
v 0.6 1.8 0.1
v 0.7 1.8 0.1
v 0.9 1.8 0.1
v 1 1.8 0.1
v 1.2 1.8 0.1
v 1.3 1.8 0.1
v 0.8 1.8 0
v 0.9 1.8 0
v 1 1.8 0
v 1.2 1.8 0
v 1.3 1.8 0
v 1.4 1.8 0
v 1.6 1.8 0
v 0.8 1.8 -0.1
v 1 1.8 -0.1
v 1.2 1.8 -0.1
v 1.4 1.8 -0.1
v 0.8 1.8 -0.2
v 1.2 1.8 -0.2
v 0.6 1.8 -0.4
v 0.8 1.8 -0.4
v 1.2 1.8 -0.4
v 1.4 1.8 -0.4
v 0.7 1.8 -0.5
v 0.8 1.8 -0.5
v 1.2 1.8 -0.5
v 1.3 1.8 -0.5
v 0.6 1.8 -0.6
v 0.7 1.8 -0.6
v 0.8 1.8 -0.6
v 1.2 1.8 -0.6
v 1.3 1.8 -0.6
v 1.4 1.8 -0.6
v 0.4 1.8 -0.8
v 0.5 1.8 -0.8
v 0.6 1.8 -0.8
v 1.4 1.8 -0.8
v 1.6 1.8 -0.8
v 1 2 0.4
v 1.2 2 0.4
v 1 2 0.3
v 1.1 2 0.3
v 0.4 2 0.2
v 1 2 0.2
v 1.1 2 0.2
v 1.2 2 0.2
v 1.4 2 0.2
v 0.8 2 0.1
v 1 2 0.1
v 1.2 2 0.1
v 1.3 2 0.1
v 0.7 2 0
v 0.8 2 0
v 0.9 2 0
v 1 2 0
v 1.1 2 0
v 1.2 2 0
v 1.3 2 0
v 1.4 2 0
v 1.6 2 0
v 1.4 2 -0.1
v 1.5 2 -0.1
v 0.4 2 -0.2
v 0.5 2 -0.2
v 0.8 2 -0.2
v 0.9 2 -0.2
v 1 2 -0.2
v 1.2 2 -0.2
v 0.4 2 -0.3
v 0.5 2 -0.3
v 0.6 2 -0.3
v 0.7 2 -0.3
v 0.6 2 -0.4
v 0.8 2 -0.4
v 0.9 2 -0.4
v 1.2 2 -0.4
v 1.3 2 -0.4
v 1.4 2 -0.4
v 0.7 2 -0.5
v 0.8 2 -0.5
v 1.2 2 -0.5
v 1.3 2 -0.5
v 0.6 2 -0.6
v 0.7 2 -0.6
v 0.8 2 -0.6
v 1.2 2 -0.6
v 1.4 2 -0.6
v 1.5 2 -0.6
v 0.4 2 -0.8
v 0.6 2 -0.8
v 1.4 2 -0.8
v 1.6 2 -0.8

# faces
f 3/4/1 2/4/1 1/4/1
f 4/4/1 2/4/1 3/4/1
f 5/4/1 2/4/1 4/4/1
f 6/4/1 2/4/1 5/4/1
f 7/3/1 4/3/1 3/3/1
f 8/4/1 5/4/1 4/4/1
f 8/3/1 4/3/1 7/3/1
f 9/3/1 6/3/1 5/3/1
f 9/4/1 5/4/1 8/4/1
f 10/3/1 6/3/1 9/3/1
f 13/3/1 12/3/1 11/3/1
f 14/3/1 12/3/1 13/3/1
f 15/3/1 13/3/1 11/3/1
f 16/4/1 14/4/1 13/4/1
f 16/3/1 13/3/1 15/3/1
f 17/4/1 14/4/1 16/4/1
f 21/6/1 19/6/1 18/6/1
f 22/5/1 20/5/1 19/5/1
f 22/6/1 19/6/1 21/6/1
f 23/5/1 20/5/1 22/5/1
f 26/3/1 25/3/1 24/3/1
f 27/3/1 25/3/1 26/3/1
f 28/3/1 25/3/1 27/3/1
f 29/3/2 30/3/2 31/3/2
f 31/3/2 30/3/2 32/3/2
f 33/6/2 34/6/2 36/6/2
f 36/6/2 34/6/2 37/6/2
f 34/5/2 35/5/2 38/5/2
f 37/6/2 34/6/2 38/6/2
f 38/5/2 35/5/2 39/5/2
f 40/3/2 41/3/2 42/3/2
f 42/3/2 41/3/2 43/3/2
f 44/3/2 45/3/2 46/3/2
f 46/3/2 45/3/2 47/3/2
f 48/3/2 49/3/2 50/3/2
f 50/3/2 49/3/2 51/3/2
f 54/3/3 53/3/3 52/3/3
f 55/3/3 53/3/3 54/3/3
f 59/4/3 57/4/3 56/4/3
f 60/3/3 58/3/3 57/3/3
f 60/4/3 57/4/3 59/4/3
f 61/3/3 60/3/3 59/3/3
f 62/3/3 58/3/3 60/3/3
f 62/3/3 60/3/3 61/3/3
f 63/4/3 62/4/3 61/4/3
f 64/3/3 58/3/3 62/3/3
f 64/4/3 62/4/3 63/4/3
f 65/3/3 64/3/3 63/3/3
f 66/3/3 58/3/3 64/3/3
f 66/3/3 64/3/3 65/3/3
f 67/3/3 58/3/3 66/3/3
f 70/3/3 69/3/3 68/3/3
f 71/3/3 69/3/3 70/3/3
f 74/3/3 73/3/3 72/3/3
f 75/3/3 73/3/3 74/3/3
f 76/6/4 77/6/4 79/6/4
f 77/5/4 78/5/4 79/5/4
f 79/5/4 78/5/4 80/5/4
f 76/6/4 79/6/4 81/6/4
f 79/6/4 80/6/4 81/6/4
f 81/6/4 80/6/4 82/6/4
f 83/6/4 84/6/4 85/6/4
f 85/6/4 84/6/4 86/6/4
f 85/5/4 86/5/4 87/5/4
f 87/5/4 86/5/4 88/5/4
f 89/5/4 90/5/4 91/5/4
f 91/5/4 90/5/4 92/5/4
f 91/6/4 92/6/4 93/6/4
f 92/5/4 90/5/4 94/5/4
f 93/6/4 92/6/4 94/6/4
f 94/5/4 90/5/4 95/5/4
f 96/4/4 97/4/4 99/4/4
f 97/3/4 98/3/4 100/3/4
f 99/4/4 97/4/4 100/4/4
f 99/3/4 100/3/4 101/3/4
f 100/3/4 98/3/4 102/3/4
f 101/3/4 100/3/4 102/3/4
f 103/3/4 104/3/4 105/3/4
f 105/3/4 104/3/4 106/3/4
f 113/3/5 108/3/5 107/3/5
f 114/3/5 108/3/5 113/3/5
f 116/4/5 112/4/5 111/4/5
f 116/3/5 111/3/5 110/3/5
f 117/3/5 113/3/5 112/3/5
f 117/4/5 112/4/5 116/4/5
f 118/3/5 113/3/5 117/3/5
f 119/1/5 114/1/5 113/1/5
f 119/3/5 113/3/5 118/3/5
f 120/3/5 115/3/5 114/3/5
f 120/1/5 114/1/5 119/1/5
f 121/3/5 115/3/5 120/3/5
f 122/3/5 118/3/5 117/3/5
f 122/3/5 117/3/5 116/3/5
f 123/1/5 119/1/5 118/1/5
f 123/3/5 118/3/5 122/3/5
f 123/1/5 121/1/5 120/1/5
f 123/1/5 120/1/5 119/1/5
f 124/1/5 121/1/5 123/1/5
f 125/1/5 121/1/5 124/1/5
f 126/3/5 115/3/5 121/3/5
f 126/1/5 121/1/5 125/1/5
f 127/3/5 115/3/5 126/3/5
f 129/3/5 122/3/5 116/3/5
f 129/1/5 123/1/5 122/1/5
f 129/1/5 124/1/5 123/1/5
f 130/2/5 125/2/5 124/2/5
f 130/1/5 124/1/5 129/1/5
f 131/1/5 127/1/5 126/1/5
f 131/2/5 125/2/5 130/2/5
f 131/1/5 126/1/5 125/1/5
f 132/3/5 128/3/5 127/3/5
f 132/1/5 127/1/5 131/1/5
f 133/2/5 131/2/5 130/2/5
f 133/3/5 129/3/5 116/3/5
f 133/2/5 132/2/5 131/2/5
f 133/2/5 130/2/5 129/2/5
f 134/2/5 132/2/5 133/2/5
f 135/3/5 116/3/5 110/3/5
f 135/3/5 133/3/5 116/3/5
f 136/6/5 134/6/5 133/6/5
f 136/3/5 133/3/5 135/3/5
f 137/2/5 132/2/5 134/2/5
f 137/6/5 134/6/5 136/6/5
f 138/3/5 128/3/5 132/3/5
f 138/2/5 132/2/5 137/2/5
f 139/6/5 136/6/5 135/6/5
f 140/6/5 136/6/5 139/6/5
f 141/6/5 138/6/5 137/6/5
f 142/6/5 138/6/5 141/6/5
f 143/3/5 135/3/5 110/3/5
f 143/6/5 139/6/5 135/6/5
f 144/5/5 140/5/5 139/5/5
f 144/6/5 139/6/5 143/6/5
f 145/5/5 140/5/5 144/5/5
f 146/5/5 142/5/5 141/5/5
f 147/6/5 138/6/5 142/6/5
f 147/5/5 142/5/5 146/5/5
f 148/3/5 128/3/5 138/3/5
f 148/6/5 138/6/5 147/6/5
f 149/4/5 110/4/5 109/4/5
f 150/3/5 143/3/5 110/3/5
f 150/4/5 110/4/5 149/4/5
f 151/3/5 143/3/5 150/3/5
f 152/3/5 128/3/5 148/3/5
f 153/3/5 128/3/5 152/3/5
f 154/3/6 155/3/6 156/3/6
f 156/3/6 155/3/6 157/3/6
f 156/4/6 157/4/6 159/4/6
f 157/3/6 155/3/6 160/3/6
f 159/4/6 157/4/6 160/4/6
f 160/3/6 155/3/6 161/3/6
f 158/3/6 159/3/6 163/3/6
f 159/2/6 160/2/6 164/2/6
f 163/3/6 159/3/6 164/3/6
f 161/3/6 162/3/6 165/3/6
f 160/5/6 161/5/6 165/5/6
f 165/3/6 162/3/6 166/3/6
f 158/3/6 163/3/6 167/3/6
f 163/4/6 164/4/6 168/4/6
f 167/3/6 163/3/6 168/3/6
f 168/4/6 164/4/6 169/4/6
f 164/2/6 160/2/6 170/2/6
f 169/4/6 164/4/6 170/4/6
f 160/5/6 165/5/6 171/5/6
f 170/2/6 160/2/6 171/2/6
f 165/4/6 166/4/6 172/4/6
f 171/5/6 165/5/6 172/5/6
f 166/3/6 162/3/6 173/3/6
f 172/4/6 166/4/6 173/4/6
f 173/3/6 162/3/6 174/3/6
f 173/2/6 174/2/6 176/2/6
f 174/3/6 175/3/6 176/3/6
f 176/3/6 175/3/6 177/3/6
f 158/3/6 167/3/6 178/3/6
f 178/3/6 167/3/6 179/3/6
f 168/2/6 169/2/6 180/2/6
f 167/4/6 168/4/6 180/4/6
f 169/5/6 170/5/6 181/5/6
f 180/2/6 169/2/6 181/2/6
f 171/2/6 172/2/6 182/2/6
f 181/5/6 170/5/6 182/5/6
f 170/2/6 171/2/6 182/2/6
f 172/5/6 173/5/6 183/5/6
f 182/2/6 172/2/6 183/2/6
f 178/4/6 179/4/6 184/4/6
f 179/3/6 167/3/6 185/3/6
f 184/4/6 179/4/6 185/4/6
f 185/3/6 167/3/6 186/3/6
f 167/4/6 180/4/6 187/4/6
f 186/3/6 167/3/6 187/3/6
f 185/3/6 186/3/6 188/3/6
f 184/3/6 185/3/6 188/3/6
f 186/4/6 187/4/6 188/4/6
f 180/5/6 181/5/6 189/5/6
f 188/4/6 187/4/6 189/4/6
f 187/4/6 180/4/6 189/4/6
f 182/6/6 183/6/6 190/6/6
f 189/5/6 181/5/6 190/5/6
f 181/6/6 182/6/6 190/6/6
f 183/5/6 173/5/6 191/5/6
f 190/6/6 183/6/6 191/6/6
f 173/2/6 176/2/6 192/2/6
f 191/5/6 173/5/6 192/5/6
f 176/4/6 177/4/6 193/4/6
f 192/2/6 176/2/6 193/2/6
f 188/6/6 189/6/6 194/6/6
f 194/6/6 189/6/6 195/6/6
f 191/6/6 192/6/6 196/6/6
f 192/5/6 193/5/6 197/5/6
f 196/6/6 192/6/6 197/6/6
f 184/3/6 188/3/6 198/3/6
f 188/6/6 194/6/6 198/6/6
f 194/5/6 195/5/6 199/5/6
f 198/6/6 194/6/6 199/6/6
f 199/5/6 195/5/6 200/5/6
f 196/5/6 197/5/6 201/5/6
f 197/5/6 193/5/6 202/5/6
f 201/5/6 197/5/6 202/5/6
f 193/4/6 177/4/6 202/4/6
f 177/3/6 175/3/6 203/3/6
f 202/4/6 177/4/6 203/4/6
f 184/3/6 198/3/6 204/3/6
f 204/3/6 198/3/6 205/3/6
f 202/3/6 203/3/6 206/3/6
f 203/3/6 175/3/6 207/3/6
f 206/3/6 203/3/6 207/3/6
