# MagicaVoxel @ Ephtracy

# group
o 

# material
mtllib right_wing.mtl
usemtl palette

# normals
vn -1 0 0
vn 1 0 0
vn 0 0 1
vn 0 0 -1
vn 0 -1 0
vn 0 1 0

# texcoords
vt 0.353516 0.5
vt 0.365234 0.5
vt 0.369141 0.5
vt 0.373047 0.5
vt 0.533203 0.5
vt 0.537109 0.5

# verts
v -1.4 1.8 0
v -1.4 1.8 -0.8
v -1.4 2 0
v -1.4 2 -0.8
v -1.2 1.8 0.2
v -1.2 1.8 0
v -1.2 2 0.2
v -1.2 2 0
v -1 1.8 0.4
v -1 1.8 0.2
v -1 2 0.4
v -1 2 0.2
v -0.6 1.8 -0.4
v -0.6 1.8 -0.5
v -0.6 1.8 -0.6
v -0.6 1.9 -0.4
v -0.6 2 -0.4
v -0.6 2 -0.5
v -0.6 2 -0.6
v -0.4 1.8 -0.6
v -0.4 1.8 -0.8
v -0.4 2 -0.6
v -0.4 2 -0.8
v -1.2 1.8 -0.6
v -1.2 1.8 -0.8
v -1.2 1.9 -0.6
v -1.2 2 -0.6
v -1.2 2 -0.8
v -1 1.8 -0.4
v -1 1.8 -0.5
v -1 1.8 -0.6
v -1 2 -0.4
v -1 2 -0.5
v -1 2 -0.6
v -0.8 1.8 0.4
v -0.8 1.8 0.2
v -0.8 1.9 0.3
v -0.8 1.9 0.2
v -0.8 2 0.4
v -0.8 2 0.3
v -0.8 2 0.2
v -0.2 1.8 0.2
v -0.2 1.8 0.1
v -0.2 1.8 -0.8
v -0.2 1.9 0.1
v -0.2 1.9 -0.4
v -0.2 1.9 -0.5
v -0.2 1.9 -0.8
v -0.2 2 0.2
v -0.2 2 -0.4
v -0.2 2 -0.5
v -0.2 2 -0.8
v -1 1.8 0.4
v -1 2 0.4
v -0.8 1.8 0.4
v -0.8 2 0.4
v -1.2 1.8 0.2
v -1.2 2 0.2
v -1 1.8 0.2
v -1 2 0.2
v -0.8 1.8 0.2
v -0.8 1.9 0.2
v -0.8 2 0.2
v -0.7 1.8 0.2
v -0.7 1.9 0.2
v -0.5 1.8 0.2
v -0.5 1.9 0.2
v -0.4 1.8 0.2
v -0.4 1.9 0.2
v -0.2 1.8 0.2
v -0.2 2 0.2
v -1.4 1.8 0
v -1.4 2 0
v -1.2 1.8 0
v -1.2 2 0
v -1 1.8 -0.4
v -1 2 -0.4
v -0.7 1.9 -0.4
v -0.7 2 -0.4
v -0.6 1.8 -0.4
v -0.6 1.9 -0.4
v -0.6 2 -0.4
v -1.2 1.8 -0.6
v -1.2 1.9 -0.6
v -1.2 2 -0.6
v -1.1 1.8 -0.6
v -1.1 1.9 -0.6
v -1 1.8 -0.6
v -1 2 -0.6
v -0.6 1.8 -0.6
v -0.6 2 -0.6
v -0.5 1.8 -0.6
v -0.5 2 -0.6
v -0.4 1.8 -0.6
v -0.4 2 -0.6
v -1.4 1.8 -0.8
v -1.4 2 -0.8
v -1.2 1.8 -0.8
v -1.2 2 -0.8
v -0.4 1.8 -0.8
v -0.4 2 -0.8
v -0.3 1.8 -0.8
v -0.3 1.9 -0.8
v -0.2 1.8 -0.8
v -0.2 1.9 -0.8
v -0.2 2 -0.8
v -1 1.8 0.4
v -0.8 1.8 0.4
v -1.2 1.8 0.2
v -1 1.8 0.2
v -0.8 1.8 0.2
v -0.7 1.8 0.2
v -0.5 1.8 0.2
v -0.4 1.8 0.2
v -0.2 1.8 0.2
v -1.1 1.8 0.1
v -1 1.8 0.1
v -0.8 1.8 0.1
v -0.7 1.8 0.1
v -0.6 1.8 0.1
v -0.5 1.8 0.1
v -0.4 1.8 0.1
v -0.3 1.8 0.1
v -0.2 1.8 0.1
v -1.4 1.8 0
v -1.2 1.8 0
v -1.1 1.8 0
v -1 1.8 0
v -0.8 1.8 0
v -0.7 1.8 0
v -0.6 1.8 0
v -0.5 1.8 0
v -1.2 1.8 -0.1
v -1 1.8 -0.1
v -0.8 1.8 -0.1
v -0.6 1.8 -0.1
v -1 1.8 -0.2
v -0.6 1.8 -0.2
v -0.5 1.8 -0.3
v -0.3 1.8 -0.3
v -1.2 1.8 -0.4
v -1 1.8 -0.4
v -0.6 1.8 -0.4
v -0.4 1.8 -0.4
v -0.3 1.8 -0.4
v -1.1 1.8 -0.5
v -1 1.8 -0.5
v -0.6 1.8 -0.5
v -0.5 1.8 -0.5
v -1.2 1.8 -0.6
v -1.1 1.8 -0.6
v -1 1.8 -0.6
v -0.6 1.8 -0.6
v -0.5 1.8 -0.6
v -0.4 1.8 -0.6
v -1.4 1.8 -0.8
v -1.2 1.8 -0.8
v -0.4 1.8 -0.8
v -0.3 1.8 -0.8
v -0.2 1.8 -0.8
v -1 2 0.4
v -0.8 2 0.4
v -0.9 2 0.3
v -0.8 2 0.3
v -1.2 2 0.2
v -1 2 0.2
v -0.9 2 0.2
v -0.8 2 0.2
v -0.2 2 0.2
v -1.1 2 0.1
v -1 2 0.1
v -0.8 2 0.1
v -0.6 2 0.1
v -1.4 2 0
v -1.2 2 0
v -1.1 2 0
v -1 2 0
v -0.9 2 0
v -0.8 2 0
v -0.7 2 0
v -0.6 2 0
v -0.5 2 0
v -1.3 2 -0.1
v -1.2 2 -0.1
v -1 2 -0.2
v -0.8 2 -0.2
v -0.7 2 -0.2
v -0.6 2 -0.2
v -0.5 2 -0.3
v -0.4 2 -0.3
v -1.2 2 -0.4
v -1.1 2 -0.4
v -1 2 -0.4
v -0.7 2 -0.4
v -0.6 2 -0.4
v -0.4 2 -0.4
v -0.3 2 -0.4
v -0.2 2 -0.4
v -1.1 2 -0.5
v -1 2 -0.5
v -0.6 2 -0.5
v -0.5 2 -0.5
v -0.3 2 -0.5
v -0.2 2 -0.5
v -1.3 2 -0.6
v -1.2 2 -0.6
v -1 2 -0.6
v -0.6 2 -0.6
v -0.5 2 -0.6
v -0.4 2 -0.6
v -1.4 2 -0.8
v -1.2 2 -0.8
v -0.4 2 -0.8
v -0.2 2 -0.8

# faces
f 3/3/1 2/3/1 1/3/1
f 4/3/1 2/3/1 3/3/1
f 7/3/1 6/3/1 5/3/1
f 8/3/1 6/3/1 7/3/1
f 11/3/1 10/3/1 9/3/1
f 12/3/1 10/3/1 11/3/1
f 16/6/1 14/6/1 13/6/1
f 17/6/1 14/6/1 16/6/1
f 18/5/1 15/5/1 14/5/1
f 18/6/1 14/6/1 17/6/1
f 19/5/1 15/5/1 18/5/1
f 22/3/1 21/3/1 20/3/1
f 23/3/1 21/3/1 22/3/1
f 24/3/2 25/3/2 26/3/2
f 26/3/2 25/3/2 27/3/2
f 27/3/2 25/3/2 28/3/2
f 29/6/2 30/6/2 32/6/2
f 30/5/2 31/5/2 33/5/2
f 32/6/2 30/6/2 33/6/2
f 33/5/2 31/5/2 34/5/2
f 35/3/2 36/3/2 37/3/2
f 37/3/2 36/3/2 38/3/2
f 35/3/2 37/3/2 39/3/2
f 37/4/2 38/4/2 40/4/2
f 39/3/2 37/3/2 40/3/2
f 40/4/2 38/4/2 41/4/2
f 42/3/2 43/3/2 45/3/2
f 43/4/2 44/4/2 45/4/2
f 45/4/2 44/4/2 46/4/2
f 46/4/2 44/4/2 47/4/2
f 47/4/2 44/4/2 48/4/2
f 42/3/2 45/3/2 49/3/2
f 45/3/2 46/3/2 49/3/2
f 46/4/2 47/4/2 50/4/2
f 49/3/2 46/3/2 50/3/2
f 47/3/2 48/3/2 51/3/2
f 50/4/2 47/4/2 51/4/2
f 51/3/2 48/3/2 52/3/2
f 55/3/3 54/3/3 53/3/3
f 56/3/3 54/3/3 55/3/3
f 59/3/3 58/3/3 57/3/3
f 60/3/3 58/3/3 59/3/3
f 64/4/3 62/4/3 61/4/3
f 65/3/3 63/3/3 62/3/3
f 65/4/3 62/4/3 64/4/3
f 66/3/3 65/3/3 64/3/3
f 67/3/3 63/3/3 65/3/3
f 67/3/3 65/3/3 66/3/3
f 68/4/3 67/4/3 66/4/3
f 69/3/3 63/3/3 67/3/3
f 69/4/3 67/4/3 68/4/3
f 70/3/3 69/3/3 68/3/3
f 71/3/3 63/3/3 69/3/3
f 71/3/3 69/3/3 70/3/3
f 74/3/3 73/3/3 72/3/3
f 75/3/3 73/3/3 74/3/3
f 76/6/4 77/6/4 78/6/4
f 78/6/4 77/6/4 79/6/4
f 76/6/4 78/6/4 80/6/4
f 78/5/4 79/5/4 81/5/4
f 80/6/4 78/6/4 81/6/4
f 81/5/4 79/5/4 82/5/4
f 83/6/4 84/6/4 86/6/4
f 84/5/4 85/5/4 87/5/4
f 86/6/4 84/6/4 87/6/4
f 86/5/4 87/5/4 88/5/4
f 87/5/4 85/5/4 89/5/4
f 88/5/4 87/5/4 89/5/4
f 90/5/4 91/5/4 92/5/4
f 92/5/4 91/5/4 93/5/4
f 92/6/4 93/6/4 94/6/4
f 94/6/4 93/6/4 95/6/4
f 96/3/4 97/3/4 98/3/4
f 98/3/4 97/3/4 99/3/4
f 100/3/4 101/3/4 102/3/4
f 102/3/4 101/3/4 103/3/4
f 102/4/4 103/4/4 104/4/4
f 103/3/4 101/3/4 105/3/4
f 104/4/4 103/4/4 105/4/4
f 105/3/4 101/3/4 106/3/4
f 110/3/5 108/3/5 107/3/5
f 111/3/5 108/3/5 110/3/5
f 116/3/5 110/3/5 109/3/5
f 117/1/5 111/1/5 110/1/5
f 117/3/5 110/3/5 116/3/5
f 118/4/5 112/4/5 111/4/5
f 118/1/5 111/1/5 117/1/5
f 119/3/5 113/3/5 112/3/5
f 119/4/5 112/4/5 118/4/5
f 120/3/5 113/3/5 119/3/5
f 121/4/5 114/4/5 113/4/5
f 121/3/5 113/3/5 120/3/5
f 122/3/5 115/3/5 114/3/5
f 122/4/5 114/4/5 121/4/5
f 123/3/5 115/3/5 122/3/5
f 124/3/5 115/3/5 123/3/5
f 126/3/5 116/3/5 109/3/5
f 127/1/5 117/1/5 116/1/5
f 127/1/5 118/1/5 117/1/5
f 127/3/5 116/3/5 126/3/5
f 127/1/5 119/1/5 118/1/5
f 128/1/5 119/1/5 127/1/5
f 129/1/5 119/1/5 128/1/5
f 130/4/5 120/4/5 119/4/5
f 130/1/5 119/1/5 129/1/5
f 131/3/5 121/3/5 120/3/5
f 131/4/5 120/4/5 130/4/5
f 131/3/5 122/3/5 121/3/5
f 131/3/5 123/3/5 122/3/5
f 132/3/5 123/3/5 131/3/5
f 133/3/5 126/3/5 125/3/5
f 133/1/5 128/1/5 127/1/5
f 133/1/5 127/1/5 126/1/5
f 134/2/5 129/2/5 128/2/5
f 134/1/5 128/1/5 133/1/5
f 135/1/5 130/1/5 129/1/5
f 135/2/5 129/2/5 134/2/5
f 135/1/5 131/1/5 130/1/5
f 136/4/5 132/4/5 131/4/5
f 136/1/5 131/1/5 135/1/5
f 137/2/5 134/2/5 133/2/5
f 137/2/5 135/2/5 134/2/5
f 137/2/5 136/2/5 135/2/5
f 138/4/5 132/4/5 136/4/5
f 138/2/5 136/2/5 137/2/5
f 139/3/5 123/3/5 132/3/5
f 139/4/5 132/4/5 138/4/5
f 140/4/5 124/4/5 123/4/5
f 140/3/5 123/3/5 139/3/5
f 141/2/5 137/2/5 133/2/5
f 141/3/5 133/3/5 125/3/5
f 142/6/5 138/6/5 137/6/5
f 142/2/5 137/2/5 141/2/5
f 143/4/5 140/4/5 139/4/5
f 143/6/5 138/6/5 142/6/5
f 143/4/5 139/4/5 138/4/5
f 144/4/5 140/4/5 143/4/5
f 145/4/5 124/4/5 140/4/5
f 145/4/5 140/4/5 144/4/5
f 146/6/5 142/6/5 141/6/5
f 147/6/5 142/6/5 146/6/5
f 148/6/5 144/6/5 143/6/5
f 149/6/5 144/6/5 148/6/5
f 150/3/5 141/3/5 125/3/5
f 150/6/5 146/6/5 141/6/5
f 151/5/5 147/5/5 146/5/5
f 151/6/5 146/6/5 150/6/5
f 152/5/5 147/5/5 151/5/5
f 153/5/5 149/5/5 148/5/5
f 154/6/5 144/6/5 149/6/5
f 154/5/5 149/5/5 153/5/5
f 155/3/5 145/3/5 144/3/5
f 155/6/5 144/6/5 154/6/5
f 156/3/5 150/3/5 125/3/5
f 157/3/5 150/3/5 156/3/5
f 158/3/5 145/3/5 155/3/5
f 159/4/5 124/4/5 145/4/5
f 159/3/5 145/3/5 158/3/5
f 160/4/5 124/4/5 159/4/5
f 161/3/6 162/3/6 163/3/6
f 163/3/6 162/3/6 164/3/6
f 161/3/6 163/3/6 166/3/6
f 163/4/6 164/4/6 167/4/6
f 166/3/6 163/3/6 167/3/6
f 167/4/6 164/4/6 168/4/6
f 165/3/6 166/3/6 170/3/6
f 166/5/6 167/5/6 171/5/6
f 170/3/6 166/3/6 171/3/6
f 167/2/6 168/2/6 172/2/6
f 168/3/6 169/3/6 172/3/6
f 172/3/6 169/3/6 173/3/6
f 165/3/6 170/3/6 175/3/6
f 170/4/6 171/4/6 176/4/6
f 175/3/6 170/3/6 176/3/6
f 171/5/6 167/5/6 177/5/6
f 176/4/6 171/4/6 177/4/6
f 167/2/6 172/2/6 178/2/6
f 177/5/6 167/5/6 178/5/6
f 172/4/6 173/4/6 179/4/6
f 178/2/6 172/2/6 179/2/6
f 179/4/6 173/4/6 180/4/6
f 173/3/6 169/3/6 181/3/6
f 180/4/6 173/4/6 181/4/6
f 181/3/6 169/3/6 182/3/6
f 174/3/6 175/3/6 183/3/6
f 175/2/6 176/2/6 184/2/6
f 183/3/6 175/3/6 184/3/6
f 176/5/6 177/5/6 185/5/6
f 177/2/6 178/2/6 185/2/6
f 178/2/6 179/2/6 185/2/6
f 179/5/6 180/5/6 186/5/6
f 185/2/6 179/2/6 186/2/6
f 180/2/6 181/2/6 187/2/6
f 186/5/6 180/5/6 187/5/6
f 181/4/6 182/4/6 188/4/6
f 187/2/6 181/2/6 188/2/6
f 182/3/6 169/3/6 189/3/6
f 188/4/6 182/4/6 189/4/6
f 189/3/6 169/3/6 190/3/6
f 184/2/6 176/2/6 191/2/6
f 183/4/6 184/4/6 191/4/6
f 176/5/6 185/5/6 192/5/6
f 191/2/6 176/2/6 192/2/6
f 186/6/6 187/6/6 193/6/6
f 192/5/6 185/5/6 193/5/6
f 185/6/6 186/6/6 193/6/6
f 187/5/6 188/5/6 194/5/6
f 193/6/6 187/6/6 194/6/6
f 189/4/6 190/4/6 195/4/6
f 194/5/6 188/5/6 195/5/6
f 188/4/6 189/4/6 195/4/6
f 190/3/6 169/3/6 196/3/6
f 195/4/6 190/4/6 196/4/6
f 196/3/6 169/3/6 197/3/6
f 197/3/6 169/3/6 198/3/6
f 192/6/6 193/6/6 199/6/6
f 191/5/6 192/5/6 199/5/6
f 199/6/6 193/6/6 200/6/6
f 195/6/6 196/6/6 201/6/6
f 201/6/6 196/6/6 202/6/6
f 197/4/6 198/4/6 203/4/6
f 196/3/6 197/3/6 203/3/6
f 203/4/6 198/4/6 204/4/6
f 174/3/6 183/3/6 205/3/6
f 183/4/6 191/4/6 205/4/6
f 199/5/6 200/5/6 206/5/6
f 205/4/6 191/4/6 206/4/6
f 191/5/6 199/5/6 206/5/6
f 206/5/6 200/5/6 207/5/6
f 201/5/6 202/5/6 208/5/6
f 202/6/6 196/6/6 209/6/6
f 208/5/6 202/5/6 209/5/6
f 203/3/6 204/3/6 210/3/6
f 209/6/6 196/6/6 210/6/6
f 196/3/6 203/3/6 210/3/6
f 174/3/6 205/3/6 211/3/6
f 205/3/6 206/3/6 211/3/6
f 211/3/6 206/3/6 212/3/6
f 210/3/6 204/3/6 213/3/6
f 213/3/6 204/3/6 214/3/6
