# MagicaVoxel @ Ephtracy

# group
o 

# material
mtllib door.mtl
usemtl palette

# normals
vn -1 0 0
vn 1 0 0
vn 0 0 1
vn 0 0 -1
vn 0 -1 0
vn 0 1 0

# texcoords
vt 0.970703 0.5
vt 0.974609 0.5
vt 0.978516 0.5

# verts
v -1.6 0 1.4
v -1.6 0 1
v -1.6 5.4 1.4
v -1.6 5.4 1
v -1.5 0 1.5
v -1.5 0 1.4
v -1.5 4.8 1.5
v -1.5 4.8 1.4
v -1.4 0 1.6
v -1.4 0 1.5
v -1.4 0 1
v -1.4 0 0.9
v -1.4 4.7 1.6
v -1.4 4.7 1.5
v -1.4 4.7 1
v -1.4 4.7 0.9
v -1.4 5.4 1.4
v -1.4 5.4 1
v -1.4 5.6 1.4
v -1.4 5.6 1
v -1.1 4.9 1.6
v -1.1 4.9 1.4
v -1.1 5.3 1.6
v -1.1 5.3 1.4
v -1 5.6 1.4
v -1 5.6 1
v -1 5.8 1.4
v -1 5.8 1
v 0.4 5.4 1.4
v 0.4 5.4 1
v 0.4 5.6 1.4
v 0.4 5.6 1
v 0.5 5 1.6
v 0.5 5 1.4
v 0.5 5.4 1.6
v 0.5 5.4 1.4
v 0.6 5.6 1.4
v 0.6 5.6 1
v 0.6 5.8 1.4
v 0.6 5.8 1
v 1.3 0 1.6
v 1.3 0 0.9
v 1.3 4.6 1.6
v 1.3 4.6 0.9
v -1.3 0 1.6
v -1.3 0 0.9
v -1.3 4.6 1.6
v -1.3 4.6 0.9
v -0.4 4.9 1.6
v -0.4 4.9 1.4
v -0.4 5.3 1.6
v -0.4 5.3 1.4
v -0.4 5.6 1.4
v -0.4 5.6 1
v -0.4 5.8 1.4
v -0.4 5.8 1
v -0.2 5.4 1.4
v -0.2 5.4 1
v -0.2 5.6 1.4
v -0.2 5.6 1
v 1.3 5 1.6
v 1.3 5 1.4
v 1.3 5.4 1.6
v 1.3 5.4 1.4
v 1.4 0 1.6
v 1.4 0 1.5
v 1.4 0 1
v 1.4 0 0.9
v 1.4 4.7 1.6
v 1.4 4.7 1.5
v 1.4 4.7 1
v 1.4 4.7 0.9
v 1.4 5.6 1.4
v 1.4 5.6 1
v 1.4 5.8 1.4
v 1.4 5.8 1
v 1.5 0 1.5
v 1.5 0 1.4
v 1.5 4.8 1.5
v 1.5 4.8 1.4
v 1.6 0 1.4
v 1.6 0 1
v 1.6 5.6 1.4
v 1.6 5.6 1
v -1.4 0 1.6
v -1.4 4.7 1.6
v -1.3 0 1.6
v -1.3 4.6 1.6
v -1.1 4.9 1.6
v -1.1 5.3 1.6
v -0.4 4.9 1.6
v -0.4 5.3 1.6
v 0.5 5 1.6
v 0.5 5.4 1.6
v 1.3 0 1.6
v 1.3 4.6 1.6
v 1.3 5 1.6
v 1.3 5.4 1.6
v 1.4 0 1.6
v 1.4 4.7 1.6
v -1.5 0 1.5
v -1.5 4.8 1.5
v -1.4 0 1.5
v -1.4 4.7 1.5
v 1.4 0 1.5
v 1.4 4.7 1.5
v 1.5 0 1.5
v 1.5 4.8 1.5
v -1.6 0 1.4
v -1.6 5.4 1.4
v -1.5 0 1.4
v -1.5 4.8 1.4
v -1.4 5.4 1.4
v -1.4 5.6 1.4
v -1.1 4.9 1.4
v -1.1 5.3 1.4
v -1 5.6 1.4
v -1 5.8 1.4
v -0.4 4.9 1.4
v -0.4 5.3 1.4
v -0.4 5.6 1.4
v -0.4 5.8 1.4
v -0.2 5.4 1.4
v -0.2 5.6 1.4
v 0.4 5.4 1.4
v 0.4 5.6 1.4
v 0.5 5 1.4
v 0.5 5.4 1.4
v 0.6 5.6 1.4
v 0.6 5.8 1.4
v 1.3 5 1.4
v 1.3 5.4 1.4
v 1.4 5.6 1.4
v 1.4 5.8 1.4
v 1.5 0 1.4
v 1.5 4.8 1.4
v 1.6 0 1.4
v 1.6 5.6 1.4
v -1.6 0 1
v -1.6 5.4 1
v -1.5 0 1
v -1.5 4.8 1
v -1.4 0 1
v -1.4 4.7 1
v -1.4 5.4 1
v -1.4 5.6 1
v -1 5.6 1
v -1 5.8 1
v -0.4 5.6 1
v -0.4 5.8 1
v -0.2 5.4 1
v -0.2 5.6 1
v 0.4 5.4 1
v 0.4 5.6 1
v 0.6 5.6 1
v 0.6 5.8 1
v 1.4 0 1
v 1.4 4.7 1
v 1.4 5.6 1
v 1.4 5.8 1
v 1.5 0 1
v 1.5 4.8 1
v 1.6 0 1
v 1.6 5.6 1
v -1.4 0 0.9
v -1.4 4.7 0.9
v -1.3 0 0.9
v -1.3 4.6 0.9
v 1.3 0 0.9
v 1.3 4.6 0.9
v 1.4 0 0.9
v 1.4 4.7 0.9
v -1.4 0 1.6
v -1.3 0 1.6
v 1.3 0 1.6
v 1.4 0 1.6
v -1.5 0 1.5
v -1.4 0 1.5
v 1.4 0 1.5
v 1.5 0 1.5
v -1.6 0 1.4
v -1.5 0 1.4
v -1.4 0 1.4
v 1.4 0 1.4
v 1.5 0 1.4
v 1.6 0 1.4
v -1.5 0 1.1
v -1.4 0 1.1
v 1.4 0 1.1
v 1.5 0 1.1
v -1.6 0 1
v -1.5 0 1
v -1.4 0 1
v 1.4 0 1
v 1.5 0 1
v 1.6 0 1
v -1.4 0 0.9
v -1.3 0 0.9
v 1.3 0 0.9
v 1.4 0 0.9
v -1.3 4.6 1.6
v 1.3 4.6 1.6
v -1.3 4.6 0.9
v 1.3 4.6 0.9
v -1.1 4.9 1.6
v -0.4 4.9 1.6
v -1.1 4.9 1.4
v -0.4 4.9 1.4
v 0.5 5 1.6
v 1.3 5 1.6
v 0.5 5 1.4
v 1.3 5 1.4
v -1.4 4.7 1.6
v 1.4 4.7 1.6
v -1.4 4.7 1.5
v 1.4 4.7 1.5
v -1.4 4.7 1
v 1.4 4.7 1
v -1.4 4.7 0.9
v 1.4 4.7 0.9
v -1.5 4.8 1.5
v 1.5 4.8 1.5
v -1.5 4.8 1.4
v 1.5 4.8 1.4
v -1.1 5.3 1.6
v -0.4 5.3 1.6
v -1.1 5.3 1.4
v -0.4 5.3 1.4
v 0.5 5.4 1.6
v 1.3 5.4 1.6
v -1.6 5.4 1.4
v -1.4 5.4 1.4
v -0.2 5.4 1.4
v 0.4 5.4 1.4
v 0.5 5.4 1.4
v 1.3 5.4 1.4
v -1.6 5.4 1
v -1.4 5.4 1
v -0.2 5.4 1
v 0.4 5.4 1
v -1.4 5.6 1.4
v -1 5.6 1.4
v -0.4 5.6 1.4
v -0.2 5.6 1.4
v 0.4 5.6 1.4
v 0.6 5.6 1.4
v 1.4 5.6 1.4
v 1.6 5.6 1.4
v -1.4 5.6 1
v -1 5.6 1
v -0.4 5.6 1
v -0.2 5.6 1
v 0.4 5.6 1
v 0.6 5.6 1
v 1.4 5.6 1
v 1.6 5.6 1
v -1 5.8 1.4
v -0.4 5.8 1.4
v 0.6 5.8 1.4
v 1.4 5.8 1.4
v -1 5.8 1
v -0.4 5.8 1
v 0.6 5.8 1
v 1.4 5.8 1

# faces
f 3/1/1 2/1/1 1/1/1
f 4/1/1 2/1/1 3/1/1
f 7/3/1 6/3/1 5/3/1
f 8/3/1 6/3/1 7/3/1
f 13/3/1 10/3/1 9/3/1
f 14/3/1 10/3/1 13/3/1
f 15/3/1 12/3/1 11/3/1
f 16/3/1 12/3/1 15/3/1
f 19/1/1 18/1/1 17/1/1
f 20/1/1 18/1/1 19/1/1
f 23/2/1 22/2/1 21/2/1
f 24/2/1 22/2/1 23/2/1
f 27/1/1 26/1/1 25/1/1
f 28/1/1 26/1/1 27/1/1
f 31/1/1 30/1/1 29/1/1
f 32/1/1 30/1/1 31/1/1
f 35/2/1 34/2/1 33/2/1
f 36/2/1 34/2/1 35/2/1
f 39/1/1 38/1/1 37/1/1
f 40/1/1 38/1/1 39/1/1
f 43/3/1 42/3/1 41/3/1
f 44/3/1 42/3/1 43/3/1
f 45/3/2 46/3/2 47/3/2
f 47/3/2 46/3/2 48/3/2
f 49/2/2 50/2/2 51/2/2
f 51/2/2 50/2/2 52/2/2
f 53/1/2 54/1/2 55/1/2
f 55/1/2 54/1/2 56/1/2
f 57/1/2 58/1/2 59/1/2
f 59/1/2 58/1/2 60/1/2
f 61/2/2 62/2/2 63/2/2
f 63/2/2 62/2/2 64/2/2
f 65/3/2 66/3/2 69/3/2
f 69/3/2 66/3/2 70/3/2
f 67/3/2 68/3/2 71/3/2
f 71/3/2 68/3/2 72/3/2
f 73/1/2 74/1/2 75/1/2
f 75/1/2 74/1/2 76/1/2
f 77/3/2 78/3/2 79/3/2
f 79/3/2 78/3/2 80/3/2
f 81/1/2 82/1/2 83/1/2
f 83/1/2 82/1/2 84/1/2
f 87/3/3 86/3/3 85/3/3
f 88/3/3 86/3/3 87/3/3
f 91/2/3 90/2/3 89/2/3
f 92/2/3 90/2/3 91/2/3
f 96/3/3 86/3/3 88/3/3
f 97/2/3 94/2/3 93/2/3
f 98/2/3 94/2/3 97/2/3
f 99/3/3 96/3/3 95/3/3
f 100/3/3 86/3/3 96/3/3
f 100/3/3 96/3/3 99/3/3
f 103/3/3 102/3/3 101/3/3
f 104/3/3 102/3/3 103/3/3
f 106/3/3 102/3/3 104/3/3
f 107/3/3 106/3/3 105/3/3
f 108/3/3 102/3/3 106/3/3
f 108/3/3 106/3/3 107/3/3
f 111/1/3 110/1/3 109/1/3
f 112/1/3 110/1/3 111/1/3
f 113/1/3 110/1/3 112/1/3
f 115/1/3 113/1/3 112/1/3
f 115/1/3 114/1/3 113/1/3
f 116/1/3 114/1/3 115/1/3
f 117/1/3 114/1/3 116/1/3
f 119/1/3 115/1/3 112/1/3
f 120/1/3 118/1/3 117/1/3
f 120/1/3 117/1/3 116/1/3
f 121/1/3 118/1/3 120/1/3
f 122/1/3 118/1/3 121/1/3
f 123/1/3 120/1/3 119/1/3
f 123/1/3 121/1/3 120/1/3
f 124/1/3 121/1/3 123/1/3
f 125/1/3 123/1/3 119/1/3
f 127/1/3 125/1/3 119/1/3
f 127/1/3 126/1/3 125/1/3
f 128/1/3 126/1/3 127/1/3
f 129/1/3 126/1/3 128/1/3
f 131/1/3 127/1/3 119/1/3
f 132/1/3 129/1/3 128/1/3
f 132/1/3 130/1/3 129/1/3
f 133/1/3 130/1/3 132/1/3
f 133/1/3 132/1/3 131/1/3
f 134/1/3 130/1/3 133/1/3
f 136/1/3 119/1/3 112/1/3
f 136/1/3 131/1/3 119/1/3
f 136/1/3 133/1/3 131/1/3
f 137/1/3 136/1/3 135/1/3
f 138/1/3 133/1/3 136/1/3
f 138/1/3 136/1/3 137/1/3
f 139/1/4 140/1/4 141/1/4
f 141/1/4 140/1/4 142/1/4
f 141/3/4 142/3/4 143/3/4
f 143/3/4 142/3/4 144/3/4
f 142/1/4 140/1/4 145/1/4
f 145/1/4 146/1/4 147/1/4
f 145/1/4 147/1/4 149/1/4
f 147/1/4 148/1/4 149/1/4
f 149/1/4 148/1/4 150/1/4
f 142/1/4 145/1/4 151/1/4
f 145/1/4 149/1/4 151/1/4
f 151/1/4 149/1/4 152/1/4
f 142/1/4 151/1/4 153/1/4
f 153/1/4 154/1/4 155/1/4
f 144/3/4 142/3/4 158/3/4
f 155/1/4 156/1/4 159/1/4
f 153/1/4 155/1/4 159/1/4
f 159/1/4 156/1/4 160/1/4
f 157/3/4 158/3/4 161/3/4
f 158/3/4 142/3/4 162/3/4
f 161/3/4 158/3/4 162/3/4
f 142/1/4 153/1/4 162/1/4
f 153/1/4 159/1/4 162/1/4
f 161/1/4 162/1/4 163/1/4
f 162/1/4 159/1/4 164/1/4
f 163/1/4 162/1/4 164/1/4
f 165/3/4 166/3/4 167/3/4
f 167/3/4 166/3/4 168/3/4
f 168/3/4 166/3/4 170/3/4
f 169/3/4 170/3/4 171/3/4
f 170/3/4 166/3/4 172/3/4
f 171/3/4 170/3/4 172/3/4
f 178/3/5 174/3/5 173/3/5
f 179/3/5 176/3/5 175/3/5
f 182/3/5 178/3/5 177/3/5
f 183/3/5 174/3/5 178/3/5
f 183/3/5 178/3/5 182/3/5
f 184/3/5 180/3/5 179/3/5
f 184/3/5 179/3/5 175/3/5
f 185/3/5 180/3/5 184/3/5
f 187/1/5 182/1/5 181/1/5
f 187/1/5 183/1/5 182/1/5
f 188/3/5 174/3/5 183/3/5
f 188/1/5 183/1/5 187/1/5
f 189/1/5 186/1/5 185/1/5
f 189/1/5 185/1/5 184/1/5
f 189/3/5 184/3/5 175/3/5
f 190/1/5 186/1/5 189/1/5
f 191/1/5 187/1/5 181/1/5
f 192/3/5 188/3/5 187/3/5
f 192/1/5 187/1/5 191/1/5
f 193/3/5 174/3/5 188/3/5
f 193/3/5 188/3/5 192/3/5
f 194/3/5 189/3/5 175/3/5
f 194/3/5 190/3/5 189/3/5
f 195/1/5 186/1/5 190/1/5
f 195/3/5 190/3/5 194/3/5
f 196/1/5 186/1/5 195/1/5
f 197/3/5 174/3/5 193/3/5
f 198/3/5 174/3/5 197/3/5
f 199/3/5 194/3/5 175/3/5
f 200/3/5 194/3/5 199/3/5
f 203/3/5 202/3/5 201/3/5
f 204/3/5 202/3/5 203/3/5
f 207/2/5 206/2/5 205/2/5
f 208/2/5 206/2/5 207/2/5
f 211/2/5 210/2/5 209/2/5
f 212/2/5 210/2/5 211/2/5
f 213/3/6 214/3/6 215/3/6
f 215/3/6 214/3/6 216/3/6
f 217/3/6 218/3/6 219/3/6
f 219/3/6 218/3/6 220/3/6
f 221/3/6 222/3/6 223/3/6
f 223/3/6 222/3/6 224/3/6
f 225/2/6 226/2/6 227/2/6
f 227/2/6 226/2/6 228/2/6
f 229/2/6 230/2/6 235/2/6
f 235/2/6 230/2/6 236/2/6
f 231/1/6 232/1/6 237/1/6
f 237/1/6 232/1/6 238/1/6
f 233/1/6 234/1/6 239/1/6
f 239/1/6 234/1/6 240/1/6
f 241/1/6 242/1/6 249/1/6
f 249/1/6 242/1/6 250/1/6
f 243/1/6 244/1/6 251/1/6
f 251/1/6 244/1/6 252/1/6
f 245/1/6 246/1/6 253/1/6
f 253/1/6 246/1/6 254/1/6
f 247/1/6 248/1/6 255/1/6
f 255/1/6 248/1/6 256/1/6
f 257/1/6 258/1/6 261/1/6
f 261/1/6 258/1/6 262/1/6
f 259/1/6 260/1/6 263/1/6
f 263/1/6 260/1/6 264/1/6
