# MagicaVoxel @ Ephtracy

# group
o 

# material
mtllib Body.mtl
usemtl palette

# normals
vn -1 0 0
vn 1 0 0
vn 0 0 1
vn 0 0 -1
vn 0 -1 0
vn 0 1 0

# texcoords
vt 0.888672 0.5
vt 0.892578 0.5
vt 0.896484 0.5

# verts
v -1.3 -0.4 1
v -1.3 -0.4 -1
v -1.3 -0.3 1
v -1.3 -0.3 -1
v -1.2 -0.3 1
v -1.2 -0.3 0.8
v -1.2 -0.3 0.4
v -1.2 -0.3 0.1
v -1.2 -0.3 0
v -1.2 -0.3 -0.1
v -1.2 -0.3 -0.3
v -1.2 -0.3 -0.4
v -1.2 -0.3 -0.5
v -1.2 -0.3 -0.7
v -1.2 -0.3 -1
v -1.2 -0.2 0.8
v -1.2 -0.2 0.7
v -1.2 -0.2 0.2
v -1.2 -0.2 0.1
v -1.2 -0.2 0
v -1.2 -0.2 -0.1
v -1.2 -0.2 -0.3
v -1.2 -0.2 -0.4
v -1.2 -0.2 -0.5
v -1.2 -0.2 -0.6
v -1.2 -0.2 -0.7
v -1.2 -0.2 -0.9
v -1.2 -0.2 -1
v -1.2 -0.1 1
v -1.2 -0.1 0.8
v -1.2 -0.1 0.7
v -1.2 -0.1 0.4
v -1.2 -0.1 0.3
v -1.2 -0.1 0.2
v -1.2 -0.1 0.1
v -1.2 -0.1 0
v -1.2 -0.1 -0.3
v -1.2 -0.1 -0.4
v -1.2 -0.1 -0.6
v -1.2 -0.1 -0.7
v -1.2 -0.1 -0.8
v -1.2 -0.1 -0.9
v -1.2 -0.1 -1
v -1.2 0 0.8
v -1.2 0 0.7
v -1.2 0 0.5
v -1.2 0 0.4
v -1.2 0 0.2
v -1.2 0 0.1
v -1.2 0 -0.4
v -1.2 0 -0.5
v -1.2 0 -0.7
v -1.2 0 -0.8
v -1.2 0.1 0.7
v -1.2 0.1 0.5
v -1.2 0.1 0.3
v -1.2 0.1 -0.3
v -1.2 0.1 -0.5
v -1.2 0.1 -0.7
v -1.1 -0.4 1.1
v -1.1 -0.4 1
v -1.1 -0.4 -1
v -1.1 -0.4 -1.1
v -1.1 -0.3 1.1
v -1.1 -0.3 1
v -1.1 -0.3 -1
v -1.1 -0.3 -1.1
v -1.1 -0.1 0.9
v -1.1 -0.1 0.8
v -1.1 -0.1 -0.8
v -1.1 -0.1 -0.9
v -1.1 0 0.9
v -1.1 0 0.8
v -1.1 0 0.7
v -1.1 0 -0.7
v -1.1 0 -0.8
v -1.1 0 -0.9
v -1.1 0.1 0.7
v -1.1 0.1 0.5
v -1.1 0.1 0.3
v -1.1 0.1 -0.3
v -1.1 0.1 -0.5
v -1.1 0.1 -0.7
v -1.1 0.2 0.8
v -1.1 0.2 -0.8
v -1 -0.1 1
v -1 -0.1 0.9
v -1 -0.1 -0.9
v -1 -0.1 -1
v -1 0 1
v -1 0 0.9
v -1 0 0.8
v -1 0 -0.8
v -1 0 -0.9
v -1 0 -1
v -1 0.1 0.9
v -1 0.1 0.8
v -1 0.1 -0.8
v -1 0.1 -0.9
v -1 0.2 0.6
v -1 0.2 0.2
v -1 0.2 0
v -1 0.2 -0.2
v -1 0.2 -0.3
v -1 0.2 -0.6
v -1 0.3 0.5
v -1 0.3 0.4
v -1 0.3 0.2
v -1 0.3 0.1
v -1 0.3 -0.2
v -1 0.3 -0.3
v -1 0.3 -0.4
v -1 0.3 -0.5
v -1 0.4 0.6
v -1 0.4 0.5
v -1 0.4 0.4
v -1 0.4 0.1
v -1 0.4 0
v -1 0.4 -0.2
v -1 0.4 -0.3
v -1 0.4 -0.4
v -1 0.4 -0.5
v -1 0.4 -0.6
v -1 0.5 0.8
v -1 0.5 0.7
v -1 0.5 0.6
v -1 0.5 0.5
v -1 0.5 0.3
v -1 0.5 0.2
v -1 0.5 -0.5
v -1 0.5 -0.6
v -1 0.5 -0.7
v -1 0.5 -0.8
v -1 0.6 0.7
v -1 0.6 0.6
v -1 0.6 0.5
v -1 0.6 0.4
v -1 0.6 0.3
v -1 0.6 0.2
v -1 0.6 -0.2
v -1 0.6 -0.3
v -1 0.6 -0.6
v -1 0.6 -0.7
v -1 0.7 0.8
v -1 0.7 0.5
v -1 0.7 0.4
v -1 0.7 -0.8
v -0.9 0 1
v -0.9 0 0.9
v -0.9 0 -0.9
v -0.9 0 -1
v -0.9 0.1 1
v -0.9 0.1 0.9
v -0.9 0.1 0.8
v -0.9 0.1 -0.8
v -0.9 0.1 -0.9
v -0.9 0.1 -1
v -0.9 0.2 0.9
v -0.9 0.2 0.8
v -0.9 0.2 0.7
v -0.9 0.2 0.6
v -0.9 0.2 -0.6
v -0.9 0.2 -0.7
v -0.9 0.2 -0.8
v -0.9 0.2 -0.9
v -0.9 0.3 0.7
v -0.9 0.3 0.6
v -0.9 0.3 -0.6
v -0.9 0.3 -0.7
v -0.9 0.4 0.7
v -0.9 0.4 0.6
v -0.9 0.4 -0.6
v -0.9 0.4 -0.7
v -0.9 0.5 0.7
v -0.9 0.5 0.6
v -0.9 0.5 -0.6
v -0.9 0.5 -0.7
v -0.8 0.2 0.8
v -0.8 0.2 0.7
v -0.8 0.2 -0.7
v -0.8 0.2 -0.8
v -0.8 0.3 0.7
v -0.8 0.3 0.6
v -0.8 0.3 -0.6
v -0.8 0.3 -0.7
v -0.8 0.4 0.7
v -0.8 0.4 0.6
v -0.8 0.4 -0.6
v -0.8 0.4 -0.7
v -0.8 0.5 0.8
v -0.8 0.5 0.7
v -0.8 0.5 -0.7
v -0.8 0.5 -0.8
v 0.5 0.2 0.8
v 0.5 0.2 0.7
v 0.5 0.2 -0.7
v 0.5 0.2 -0.8
v 0.5 0.4 0.8
v 0.5 0.4 0.7
v 0.5 0.4 -0.7
v 0.5 0.4 -0.8
v 0.5 0.5 0.8
v 0.5 0.5 0.7
v 0.5 0.5 -0.7
v 0.5 0.5 -0.8
v 0.6 0.3 0.7
v 0.6 0.3 0.6
v 0.6 0.3 -0.6
v 0.6 0.3 -0.7
v 0.6 0.4 0.7
v 0.6 0.4 0.6
v 0.6 0.4 -0.6
v 0.6 0.4 -0.7
v 0.7 0 1
v 0.7 0 0.9
v 0.7 0 -0.9
v 0.7 0 -1
v 0.7 0.1 1
v 0.7 0.1 0.9
v 0.7 0.1 0.8
v 0.7 0.1 -0.8
v 0.7 0.1 -0.9
v 0.7 0.1 -1
v 0.7 0.2 0.9
v 0.7 0.2 0.8
v 0.7 0.2 0.7
v 0.7 0.2 0.5
v 0.7 0.2 -0.5
v 0.7 0.2 -0.7
v 0.7 0.2 -0.8
v 0.7 0.2 -0.9
v 0.7 0.3 0.7
v 0.7 0.3 0.6
v 0.7 0.3 -0.6
v 0.7 0.3 -0.7
v 0.7 0.4 0.7
v 0.7 0.4 0.6
v 0.7 0.4 -0.6
v 0.7 0.4 -0.7
v 0.7 0.5 0.8
v 0.7 0.5 0.7
v 0.7 0.5 0.5
v 0.7 0.5 -0.5
v 0.7 0.5 -0.7
v 0.7 0.5 -0.8
v 0.7 0.7 0.8
v 0.7 0.7 0.7
v 0.7 0.7 -0.7
v 0.7 0.7 -0.8
v 0.8 -0.1 1
v 0.8 -0.1 0.9
v 0.8 -0.1 -0.9
v 0.8 -0.1 -1
v 0.8 0 1
v 0.8 0 0.9
v 0.8 0 0.8
v 0.8 0 -0.8
v 0.8 0 -0.9
v 0.8 0 -1
v 0.8 0.1 0.9
v 0.8 0.1 0.8
v 0.8 0.1 0.7
v 0.8 0.1 -0.7
v 0.8 0.1 -0.8
v 0.8 0.1 -0.9
v 0.8 0.2 0.8
v 0.8 0.2 0.7
v 0.8 0.2 0.5
v 0.8 0.2 0.2
v 0.8 0.2 0.1
v 0.8 0.2 -0.1
v 0.8 0.2 -0.2
v 0.8 0.2 -0.5
v 0.8 0.2 -0.7
v 0.8 0.2 -0.8
v 0.8 0.3 0.3
v 0.8 0.3 0.2
v 0.8 0.3 0.1
v 0.8 0.3 0
v 0.8 0.3 -0.1
v 0.8 0.3 -0.2
v 0.8 0.3 -0.3
v 0.8 0.4 0.3
v 0.8 0.4 0.2
v 0.8 0.4 0.1
v 0.8 0.4 0
v 0.8 0.4 -0.2
v 0.8 0.4 -0.3
v 0.8 0.5 0.7
v 0.8 0.5 0.5
v 0.8 0.5 0.1
v 0.8 0.5 0
v 0.8 0.5 -0.5
v 0.8 0.5 -0.7
v 0.8 0.6 0
v 0.8 0.6 -0.1
v 0.8 0.7 0.7
v 0.8 0.7 -0.7
v 0.9 -0.4 1.1
v 0.9 -0.4 1
v 0.9 -0.4 -1
v 0.9 -0.4 -1.1
v 0.9 -0.3 1.1
v 0.9 -0.3 1
v 0.9 -0.3 -1
v 0.9 -0.3 -1.1
v 0.9 -0.1 0.9
v 0.9 -0.1 0.8
v 0.9 -0.1 -0.8
v 0.9 -0.1 -0.9
v 0.9 0 0.9
v 0.9 0 0.8
v 0.9 0 0.6
v 0.9 0 -0.6
v 0.9 0 -0.8
v 0.9 0 -0.9
v 0.9 0.1 0.8
v 0.9 0.1 0.7
v 0.9 0.1 0.6
v 0.9 0.1 -0.6
v 0.9 0.1 -0.7
v 0.9 0.1 -0.8
v 0.9 0.2 0.7
v 0.9 0.2 -0.7
v 1 -0.4 1
v 1 -0.4 0.9
v 1 -0.4 -0.9
v 1 -0.4 -1
v 1 -0.3 0.9
v 1 -0.3 0.8
v 1 -0.3 0.6
v 1 -0.3 0.5
v 1 -0.3 0.3
v 1 -0.3 0.1
v 1 -0.3 -0.1
v 1 -0.3 -0.3
v 1 -0.3 -0.7
v 1 -0.3 -0.8
v 1 -0.3 -0.9
v 1 -0.3 -1
v 1 -0.2 1
v 1 -0.2 0.8
v 1 -0.2 0.6
v 1 -0.2 0.5
v 1 -0.2 0.4
v 1 -0.2 0.3
v 1 -0.2 0.1
v 1 -0.2 -0.1
v 1 -0.2 -0.2
v 1 -0.2 -0.3
v 1 -0.2 -0.4
v 1 -0.2 -0.5
v 1 -0.2 -0.7
v 1 -0.1 1
v 1 -0.1 0.8
v 1 -0.1 0.5
v 1 -0.1 0.4
v 1 -0.1 0.3
v 1 -0.1 0.2
v 1 -0.1 0.1
v 1 -0.1 -0.3
v 1 -0.1 -0.4
v 1 -0.1 -0.5
v 1 -0.1 -0.7
v 1 -0.1 -0.8
v 1 -0.1 -1
v 1 0 0.8
v 1 0 0.6
v 1 0 0.3
v 1 0 0.2
v 1 0 -0.2
v 1 0 -0.3
v 1 0 -0.6
v 1 0 -0.8
v 1 0.1 0.6
v 1 0.1 -0.6
v 1.1 -0.4 0.9
v 1.1 -0.4 0.8
v 1.1 -0.4 0.5
v 1.1 -0.4 0.3
v 1.1 -0.4 0.1
v 1.1 -0.4 -0.1
v 1.1 -0.4 -0.3
v 1.1 -0.4 -0.7
v 1.1 -0.4 -0.8
v 1.1 -0.4 -0.9
v 1.1 -0.3 0.9
v 1.1 -0.3 0.8
v 1.1 -0.3 0.5
v 1.1 -0.3 0.3
v 1.1 -0.3 0.1
v 1.1 -0.3 -0.1
v 1.1 -0.3 -0.3
v 1.1 -0.3 -0.7
v 1.1 -0.3 -0.8
v 1.1 -0.3 -0.9
v -1.1 -0.4 1.1
v -1.1 -0.3 1.1
v -1 -0.4 1.1
v -1 -0.3 1.1
v -0.7 -0.4 1.1
v -0.7 -0.3 1.1
v -0.4 -0.4 1.1
v -0.4 -0.3 1.1
v -0.0999999 -0.4 1.1
v -0.0999999 -0.3 1.1
v 0.2 -0.4 1.1
v 0.2 -0.3 1.1
v 0.5 -0.4 1.1
v 0.5 -0.3 1.1
v 0.9 -0.4 1.1
v 0.9 -0.3 1.1
v -1.3 -0.4 1
v -1.3 -0.3 1
v -1.2 -0.3 1
v -1.2 -0.1 1
v -1.1 -0.4 1
v -1.1 -0.3 1
v -1 -0.3 1
v -1 -0.2 1
v -1 -0.1 1
v -1 0 1
v -0.9 0 1
v -0.9 0.1 1
v -0.7 -0.3 1
v -0.7 -0.2 1
v -0.7 -0.1 1
v -0.6 -0.2 1
v -0.6 -0.1 1
v -0.5 -0.2 1
v -0.5 -0.1 1
v -0.4 -0.3 1
v -0.4 -0.2 1
v -0.4 -0.1 1
v -0.2 -0.2 1
v -0.2 -0.1 1
v -0.0999999 -0.3 1
v -0.0999999 -0.1 1
v 0 -0.3 1
v 0 -0.1 1
v 0.2 -0.3 1
v 0.2 -0.1 1
v 0.2 0 1
v 0.4 -0.1 1
v 0.4 0 1
v 0.4 0.1 1
v 0.5 -0.3 1
v 0.5 -0.2 1
v 0.5 -0.1 1
v 0.5 0 1
v 0.5 0.1 1
v 0.6 -0.2 1
v 0.6 0 1
v 0.7 0 1
v 0.7 0.1 1
v 0.8 -0.1 1
v 0.8 0 1
v 0.9 -0.4 1
v 0.9 -0.3 1
v 1 -0.4 1
v 1 -0.2 1
v 1 -0.1 1
v -1.1 -0.1 0.9
v -1.1 0 0.9
v -1 -0.1 0.9
v -1 0 0.9
v -1 0.1 0.9
v -0.9 0 0.9
v -0.9 0.1 0.9
v -0.9 0.2 0.9
v 0.4 0.1 0.9
v 0.5 0.1 0.9
v 0.7 0 0.9
v 0.7 0.1 0.9
v 0.7 0.2 0.9
v 0.8 -0.1 0.9
v 0.8 0 0.9
v 0.8 0.1 0.9
v 0.9 -0.1 0.9
v 0.9 0 0.9
v 1 -0.4 0.9
v 1 -0.3 0.9
v 1.1 -0.4 0.9
v 1.1 -0.3 0.9
v -1.2 -0.1 0.8
v -1.2 0 0.8
v -1.1 -0.1 0.8
v -1.1 0 0.8
v -1.1 0.2 0.8
v -1 0 0.8
v -1 0.1 0.8
v -1 0.5 0.8
v -1 0.7 0.8
v -0.9 0.1 0.8
v -0.9 0.2 0.8
v -0.9 0.5 0.8
v -0.9 0.6 0.8
v -0.8 0.2 0.8
v -0.8 0.5 0.8
v -0.8 0.6 0.8
v -0.8 0.7 0.8
v -0.7 0.5 0.8
v -0.7 0.7 0.8
v -0.6 0.4 0.8
v -0.6 0.6 0.8
v -0.5 0.2 0.8
v -0.5 0.3 0.8
v -0.5 0.4 0.8
v -0.5 0.6 0.8
v -0.4 0.3 0.8
v -0.4 0.4 0.8
v -0.3 0.4 0.8
v -0.3 0.6 0.8
v 0.1 0.5 0.8
v 0.1 0.6 0.8
v 0.2 0.3 0.8
v 0.2 0.5 0.8
v 0.2 0.6 0.8
v 0.2 0.7 0.8
v 0.3 0.2 0.8
v 0.3 0.3 0.8
v 0.4 0.4 0.8
v 0.4 0.5 0.8
v 0.4 0.6 0.8
v 0.4 0.7 0.8
v 0.5 0.2 0.8
v 0.5 0.4 0.8
v 0.5 0.5 0.8
v 0.7 0.1 0.8
v 0.7 0.2 0.8
v 0.7 0.5 0.8
v 0.7 0.7 0.8
v 0.8 0 0.8
v 0.8 0.1 0.8
v 0.8 0.2 0.8
v 0.9 -0.1 0.8
v 0.9 0 0.8
v 0.9 0.1 0.8
v 1 -0.1 0.8
v 1 0 0.8
v -1.2 0 0.7
v -1.2 0.1 0.7
v -1.1 0 0.7
v -1.1 0.1 0.7
v -0.9 0.2 0.7
v -0.9 0.3 0.7
v -0.9 0.4 0.7
v -0.9 0.5 0.7
v -0.8 0.2 0.7
v -0.8 0.3 0.7
v -0.8 0.4 0.7
v -0.8 0.5 0.7
v 0.5 0.2 0.7
v 0.5 0.4 0.7
v 0.5 0.5 0.7
v 0.6 0.3 0.7
v 0.6 0.4 0.7
v 0.7 0.2 0.7
v 0.7 0.3 0.7
v 0.7 0.4 0.7
v 0.7 0.5 0.7
v 0.7 0.7 0.7
v 0.8 0.1 0.7
v 0.8 0.2 0.7
v 0.8 0.5 0.7
v 0.8 0.7 0.7
v 0.9 0.1 0.7
v 0.9 0.2 0.7
v -1 0.2 0.6
v -1 0.4 0.6
v -1 0.5 0.6
v -0.9 0.2 0.6
v -0.9 0.3 0.6
v -0.9 0.4 0.6
v -0.9 0.5 0.6
v -0.8 0.3 0.6
v -0.8 0.4 0.6
v 0.6 0.3 0.6
v 0.6 0.4 0.6
v 0.7 0.3 0.6
v 0.7 0.4 0.6
v 0.9 0 0.6
v 0.9 0.1 0.6
v 1 0 0.6
v 1 0.1 0.6
v 0.7 0.2 0.5
v 0.7 0.5 0.5
v 0.8 0.2 0.5
v 0.8 0.5 0.5
v 0.7 0.2 -0.5
v 0.7 0.5 -0.5
v 0.8 0.2 -0.5
v 0.8 0.5 -0.5
v -1 0.2 -0.6
v -1 0.4 -0.6
v -1 0.5 -0.6
v -0.9 0.2 -0.6
v -0.9 0.3 -0.6
v -0.9 0.4 -0.6
v -0.9 0.5 -0.6
v -0.8 0.3 -0.6
v -0.8 0.4 -0.6
v 0.6 0.3 -0.6
v 0.6 0.4 -0.6
v 0.7 0.3 -0.6
v 0.7 0.4 -0.6
v 0.9 0 -0.6
v 0.9 0.1 -0.6
v 1 0 -0.6
v 1 0.1 -0.6
v -1.2 0 -0.7
v -1.2 0.1 -0.7
v -1.1 0 -0.7
v -1.1 0.1 -0.7
v -0.9 0.2 -0.7
v -0.9 0.3 -0.7
v -0.9 0.4 -0.7
v -0.9 0.5 -0.7
v -0.8 0.2 -0.7
v -0.8 0.3 -0.7
v -0.8 0.4 -0.7
v -0.8 0.5 -0.7
v 0.5 0.2 -0.7
v 0.5 0.4 -0.7
v 0.5 0.5 -0.7
v 0.6 0.3 -0.7
v 0.6 0.4 -0.7
v 0.7 0.2 -0.7
v 0.7 0.3 -0.7
v 0.7 0.4 -0.7
v 0.7 0.5 -0.7
v 0.7 0.7 -0.7
v 0.8 0.1 -0.7
v 0.8 0.2 -0.7
v 0.8 0.5 -0.7
v 0.8 0.7 -0.7
v 0.9 0.1 -0.7
v 0.9 0.2 -0.7
v -1.2 -0.1 -0.8
v -1.2 0 -0.8
v -1.1 -0.1 -0.8
v -1.1 0 -0.8
v -1.1 0.2 -0.8
v -1 0 -0.8
v -1 0.1 -0.8
v -1 0.5 -0.8
v -1 0.7 -0.8
v -0.9 0.1 -0.8
v -0.9 0.2 -0.8
v -0.9 0.5 -0.8
v -0.9 0.6 -0.8
v -0.8 0.2 -0.8
v -0.8 0.5 -0.8
v -0.8 0.6 -0.8
v -0.8 0.7 -0.8
v -0.7 0.5 -0.8
v -0.7 0.7 -0.8
v -0.5 0.2 -0.8
v -0.5 0.3 -0.8
v -0.4 0.3 -0.8
v -0.4 0.4 -0.8
v -0.3 0.4 -0.8
v -0.3 0.6 -0.8
v 0.1 0.5 -0.8
v 0.1 0.6 -0.8
v 0.2 0.3 -0.8
v 0.2 0.5 -0.8
v 0.2 0.6 -0.8
v 0.2 0.7 -0.8
v 0.3 0.2 -0.8
v 0.3 0.3 -0.8
v 0.4 0.4 -0.8
v 0.4 0.5 -0.8
v 0.4 0.6 -0.8
v 0.4 0.7 -0.8
v 0.5 0.2 -0.8
v 0.5 0.4 -0.8
v 0.5 0.5 -0.8
v 0.7 0.1 -0.8
v 0.7 0.2 -0.8
v 0.7 0.5 -0.8
v 0.7 0.7 -0.8
v 0.8 0 -0.8
v 0.8 0.1 -0.8
v 0.8 0.2 -0.8
v 0.9 -0.1 -0.8
v 0.9 0 -0.8
v 0.9 0.1 -0.8
v 1 -0.1 -0.8
v 1 0 -0.8
v -1.1 -0.1 -0.9
v -1.1 0 -0.9
v -1 -0.1 -0.9
v -1 0 -0.9
v -1 0.1 -0.9
v -0.9 0 -0.9
v -0.9 0.1 -0.9
v -0.9 0.2 -0.9
v 0.7 0 -0.9
v 0.7 0.1 -0.9
v 0.7 0.2 -0.9
v 0.8 -0.1 -0.9
v 0.8 0 -0.9
v 0.8 0.1 -0.9
v 0.9 -0.1 -0.9
v 0.9 0 -0.9
v 1 -0.4 -0.9
v 1 -0.3 -0.9
v 1.1 -0.4 -0.9
v 1.1 -0.3 -0.9
v -1.3 -0.4 -1
v -1.3 -0.3 -1
v -1.2 -0.3 -1
v -1.2 -0.2 -1
v -1.2 -0.1 -1
v -1.1 -0.4 -1
v -1.1 -0.3 -1
v -1 -0.3 -1
v -1 -0.2 -1
v -1 -0.1 -1
v -1 0 -1
v -0.9 0 -1
v -0.9 0.1 -1
v -0.8 -0.2 -1
v -0.8 -0.1 -1
v -0.7 -0.3 -1
v -0.7 -0.2 -1
v -0.7 -0.1 -1
v -0.6 -0.2 -1
v -0.6 -0.1 -1
v -0.5 -0.2 -1
v -0.5 -0.1 -1
v -0.4 -0.3 -1
v -0.4 -0.2 -1
v -0.4 -0.1 -1
v -0.2 -0.2 -1
v -0.2 -0.1 -1
v -0.0999999 -0.3 -1
v -0.0999999 -0.1 -1
v 0 -0.2 -1
v 0 -0.1 -1
v 0.1 -0.2 -1
v 0.1 -0.1 -1
v 0.4 -0.3 -1
v 0.4 -0.2 -1
v 0.5 -0.2 -1
v 0.5 -0.1 -1
v 0.6 -0.2 -1
v 0.6 -0.1 -1
v 0.7 -0.3 -1
v 0.7 -0.2 -1
v 0.7 0 -1
v 0.7 0.1 -1
v 0.8 -0.1 -1
v 0.8 0 -1
v 0.9 -0.4 -1
v 0.9 -0.3 -1
v 0.9 -0.2 -1
v 0.9 -0.1 -1
v 1 -0.4 -1
v 1 -0.3 -1
v 1 -0.1 -1
v -1.1 -0.4 -1.1
v -1.1 -0.3 -1.1
v -1 -0.4 -1.1
v -1 -0.3 -1.1
v -0.7 -0.4 -1.1
v -0.7 -0.3 -1.1
v -0.4 -0.4 -1.1
v -0.4 -0.3 -1.1
v -0.0999999 -0.4 -1.1
v -0.0999999 -0.3 -1.1
v 0.4 -0.4 -1.1
v 0.4 -0.3 -1.1
v 0.7 -0.4 -1.1
v 0.7 -0.3 -1.1
v 0.9 -0.4 -1.1
v 0.9 -0.3 -1.1
v -1.1 -0.4 1.1
v -1 -0.4 1.1
v -0.7 -0.4 1.1
v -0.4 -0.4 1.1
v -0.0999999 -0.4 1.1
v 0.2 -0.4 1.1
v 0.5 -0.4 1.1
v 0.9 -0.4 1.1
v -1.3 -0.4 1
v -1.1 -0.4 1
v -0.7 -0.4 1
v -0.4 -0.4 1
v 0.2 -0.4 1
v 0.5 -0.4 1
v 0.9 -0.4 1
v 1 -0.4 1
v -1 -0.4 0.9
v -0.4 -0.4 0.9
v -0.0999999 -0.4 0.9
v 0.5 -0.4 0.9
v 1 -0.4 0.9
v 1.1 -0.4 0.9
v 0.5 -0.4 0.8
v 0.9 -0.4 0.8
v 1 -0.4 0.8
v 1.1 -0.4 0.8
v 0.9 -0.4 0.6
v 1 -0.4 0.6
v 0.9 -0.4 0.5
v 1.1 -0.4 0.5
v 0.9 -0.4 0.3
v 1.1 -0.4 0.3
v 0.9 -0.4 0.1
v 1.1 -0.4 0.1
v 0.9 -0.4 -0.1
v 1.1 -0.4 -0.1
v 0.9 -0.4 -0.3
v 1.1 -0.4 -0.3
v 0.9 -0.4 -0.7
v 1 -0.4 -0.7
v 1.1 -0.4 -0.7
v 0.5 -0.4 -0.8
v 0.9 -0.4 -0.8
v 1 -0.4 -0.8
v 1.1 -0.4 -0.8
v -1 -0.4 -0.9
v -0.4 -0.4 -0.9
v -0.0999999 -0.4 -0.9
v 0.4 -0.4 -0.9
v 0.5 -0.4 -0.9
v 0.7 -0.4 -0.9
v 1 -0.4 -0.9
v 1.1 -0.4 -0.9
v -1.3 -0.4 -1
v -1.1 -0.4 -1
v -0.7 -0.4 -1
v -0.4 -0.4 -1
v 0.7 -0.4 -1
v 0.9 -0.4 -1
v 1 -0.4 -1
v -1.1 -0.4 -1.1
v -1 -0.4 -1.1
v -0.7 -0.4 -1.1
v -0.4 -0.4 -1.1
v -0.0999999 -0.4 -1.1
v 0.4 -0.4 -1.1
v 0.7 -0.4 -1.1
v 0.9 -0.4 -1.1
v -0.9 0.4 0.7
v -0.8 0.4 0.7
v 0.6 0.4 0.7
v 0.7 0.4 0.7
v -0.9 0.4 0.6
v -0.8 0.4 0.6
v 0.6 0.4 0.6
v 0.7 0.4 0.6
v -0.9 0.4 -0.6
v -0.8 0.4 -0.6
v 0.6 0.4 -0.6
v 0.7 0.4 -0.6
v -0.9 0.4 -0.7
v -0.8 0.4 -0.7
v 0.6 0.4 -0.7
v 0.7 0.4 -0.7
v -1 0.5 0.8
v -0.9 0.5 0.8
v -0.8 0.5 0.8
v 0.5 0.5 0.8
v 0.7 0.5 0.8
v -1 0.5 0.7
v -0.9 0.5 0.7
v -0.8 0.5 0.7
v 0.5 0.5 0.7
v 0.7 0.5 0.7
v 0.8 0.5 0.7
v -1 0.5 0.6
v -0.9 0.5 0.6
v 0.7 0.5 0.5
v 0.8 0.5 0.5
v 0.7 0.5 -0.5
v 0.8 0.5 -0.5
v -1 0.5 -0.6
v -0.9 0.5 -0.6
v -1 0.5 -0.7
v -0.9 0.5 -0.7
v -0.8 0.5 -0.7
v 0.5 0.5 -0.7
v 0.7 0.5 -0.7
v 0.8 0.5 -0.7
v -1 0.5 -0.8
v -0.9 0.5 -0.8
v -0.8 0.5 -0.8
v 0.5 0.5 -0.8
v 0.7 0.5 -0.8
v -1.1 -0.3 1.1
v -1 -0.3 1.1
v -0.7 -0.3 1.1
v -0.4 -0.3 1.1
v -0.0999999 -0.3 1.1
v 0.2 -0.3 1.1
v 0.5 -0.3 1.1
v 0.9 -0.3 1.1
v -1.3 -0.3 1
v -1.2 -0.3 1
v -1.1 -0.3 1
v -1 -0.3 1
v -0.7 -0.3 1
v -0.4 -0.3 1
v -0.0999999 -0.3 1
v 0 -0.3 1
v 0.2 -0.3 1
v 0.5 -0.3 1
v 0.9 -0.3 1
v 1 -0.3 0.9
v 1.1 -0.3 0.9
v -1.2 -0.3 0.8
v 1 -0.3 0.8
v 1.1 -0.3 0.8
v 1 -0.3 0.6
v 1 -0.3 0.5
v 1.1 -0.3 0.5
v -1.2 -0.3 0.4
v 1 -0.3 0.3
v 1.1 -0.3 0.3
v -1.2 -0.3 0.1
v 1 -0.3 0.1
v 1.1 -0.3 0.1
v -1.2 -0.3 0
v -1.2 -0.3 -0.1
v 1 -0.3 -0.1
v 1.1 -0.3 -0.1
v -1.2 -0.3 -0.3
v 1 -0.3 -0.3
v 1.1 -0.3 -0.3
v -1.2 -0.3 -0.4
v -1.2 -0.3 -0.5
v -1.2 -0.3 -0.7
v 1 -0.3 -0.7
v 1.1 -0.3 -0.7
v 1 -0.3 -0.8
v 1.1 -0.3 -0.8
v 1 -0.3 -0.9
v 1.1 -0.3 -0.9
v -1.3 -0.3 -1
v -1.2 -0.3 -1
v -1.1 -0.3 -1
v -1 -0.3 -1
v -0.7 -0.3 -1
v -0.4 -0.3 -1
v -0.0999999 -0.3 -1
v 0.4 -0.3 -1
v 0.7 -0.3 -1
v 0.9 -0.3 -1
v -1.1 -0.3 -1.1
v -1 -0.3 -1.1
v -0.7 -0.3 -1.1
v -0.4 -0.3 -1.1
v -0.0999999 -0.3 -1.1
v 0.4 -0.3 -1.1
v 0.7 -0.3 -1.1
v 0.9 -0.3 -1.1
v -1.2 -0.1 1
v -1 -0.1 1
v 0.8 -0.1 1
v 1 -0.1 1
v -1.1 -0.1 0.9
v -1 -0.1 0.9
v 0.8 -0.1 0.9
v 0.9 -0.1 0.9
v -1.2 -0.1 0.8
v -1.1 -0.1 0.8
v 0.9 -0.1 0.8
v 1 -0.1 0.8
v -1.2 -0.1 -0.8
v -1.1 -0.1 -0.8
v 0.9 -0.1 -0.8
v 1 -0.1 -0.8
v -1.2 -0.1 -0.9
v -1.1 -0.1 -0.9
v -1 -0.1 -0.9
v 0.8 -0.1 -0.9
v 0.9 -0.1 -0.9
v -1.2 -0.1 -1
v -1 -0.1 -1
v 0.8 -0.1 -1
v 0.9 -0.1 -1
v 1 -0.1 -1
v -1 0 1
v -0.9 0 1
v 0.7 0 1
v 0.8 0 1
v -1.1 0 0.9
v -1 0 0.9
v -0.9 0 0.9
v 0.7 0 0.9
v 0.8 0 0.9
v 0.9 0 0.9
v -1.2 0 0.8
v -1.1 0 0.8
v -1 0 0.8
v 0.8 0 0.8
v 0.9 0 0.8
v 1 0 0.8
v -1.2 0 0.7
v -1.1 0 0.7
v 0.9 0 0.6
v 1 0 0.6
v 0.9 0 -0.6
v 1 0 -0.6
v -1.2 0 -0.7
v -1.1 0 -0.7
v -1.2 0 -0.8
v -1.1 0 -0.8
v -1 0 -0.8
v 0.8 0 -0.8
v 0.9 0 -0.8
v 1 0 -0.8
v -1.1 0 -0.9
v -1 0 -0.9
v -0.9 0 -0.9
v 0.7 0 -0.9
v 0.8 0 -0.9
v 0.9 0 -0.9
v -1 0 -1
v -0.9 0 -1
v 0.7 0 -1
v 0.8 0 -1
v -0.9 0.1 1
v 0.4 0.1 1
v 0.5 0.1 1
v 0.7 0.1 1
v -1 0.1 0.9
v -0.9 0.1 0.9
v 0.4 0.1 0.9
v 0.5 0.1 0.9
v 0.7 0.1 0.9
v 0.8 0.1 0.9
v -1 0.1 0.8
v -0.9 0.1 0.8
v 0.7 0.1 0.8
v 0.8 0.1 0.8
v 0.9 0.1 0.8
v -1.2 0.1 0.7
v -1.1 0.1 0.7
v 0.8 0.1 0.7
v 0.9 0.1 0.7
v 0.9 0.1 0.6
v 1 0.1 0.6
v -1.2 0.1 0.5
v -1.1 0.1 0.5
v -1.2 0.1 0.3
v -1.1 0.1 0.3
v -1.2 0.1 -0.3
v -1.1 0.1 -0.3
v -1.2 0.1 -0.5
v -1.1 0.1 -0.5
v 0.9 0.1 -0.6
v 1 0.1 -0.6
v -1.2 0.1 -0.7
v -1.1 0.1 -0.7
v 0.8 0.1 -0.7
v 0.9 0.1 -0.7
v -1 0.1 -0.8
v -0.9 0.1 -0.8
v 0.7 0.1 -0.8
v 0.8 0.1 -0.8
v 0.9 0.1 -0.8
v -1 0.1 -0.9
v -0.9 0.1 -0.9
v 0.7 0.1 -0.9
v 0.8 0.1 -0.9
v -0.9 0.1 -1
v 0.7 0.1 -1
v -0.9 0.2 0.9
v 0.7 0.2 0.9
v -1.1 0.2 0.8
v -0.9 0.2 0.8
v -0.8 0.2 0.8
v -0.5 0.2 0.8
v 0.3 0.2 0.8
v 0.5 0.2 0.8
v 0.7 0.2 0.8
v 0.8 0.2 0.8
v -0.9 0.2 0.7
v -0.8 0.2 0.7
v 0.5 0.2 0.7
v 0.7 0.2 0.7
v 0.8 0.2 0.7
v 0.9 0.2 0.7
v -1 0.2 0.6
v -0.9 0.2 0.6
v 0.7 0.2 0.5
v 0.8 0.2 0.5
v -1 0.2 0.2
v 0.8 0.2 0.2
v 0.8 0.2 0.1
v -1 0.2 0
v 0.8 0.2 -0.1
v -1 0.2 -0.2
v 0.8 0.2 -0.2
v -1 0.2 -0.3
v 0.7 0.2 -0.5
v 0.8 0.2 -0.5
v -1 0.2 -0.6
v -0.9 0.2 -0.6
v -0.9 0.2 -0.7
v -0.8 0.2 -0.7
v 0.5 0.2 -0.7
v 0.7 0.2 -0.7
v 0.8 0.2 -0.7
v 0.9 0.2 -0.7
v -1.1 0.2 -0.8
v -0.9 0.2 -0.8
v -0.8 0.2 -0.8
v -0.5 0.2 -0.8
v 0.3 0.2 -0.8
v 0.5 0.2 -0.8
v 0.7 0.2 -0.8
v 0.8 0.2 -0.8
v -0.9 0.2 -0.9
v 0.7 0.2 -0.9
v -0.9 0.3 0.7
v -0.8 0.3 0.7
v 0.6 0.3 0.7
v 0.7 0.3 0.7
v -0.9 0.3 0.6
v -0.8 0.3 0.6
v 0.6 0.3 0.6
v 0.7 0.3 0.6
v -0.9 0.3 -0.6
v -0.8 0.3 -0.6
v 0.6 0.3 -0.6
v 0.7 0.3 -0.6
v -0.9 0.3 -0.7
v -0.8 0.3 -0.7
v 0.6 0.3 -0.7
v 0.7 0.3 -0.7
v -1 0.7 0.8
v -0.8 0.7 0.8
v -0.7 0.7 0.8
v 0.2 0.7 0.8
v 0.4 0.7 0.8
v 0.7 0.7 0.8
v -0.8 0.7 0.7
v -0.7 0.7 0.7
v 0.2 0.7 0.7
v 0.4 0.7 0.7
v 0.7 0.7 0.7
v 0.8 0.7 0.7
v -1 0.7 0.5
v -0.9 0.7 0.5
v -1 0.7 0.4
v -0.9 0.7 0.4
v -0.8 0.7 -0.7
v -0.7 0.7 -0.7
v 0.2 0.7 -0.7
v 0.4 0.7 -0.7
v 0.7 0.7 -0.7
v 0.8 0.7 -0.7
v -1 0.7 -0.8
v -0.8 0.7 -0.8
v -0.7 0.7 -0.8
v 0.2 0.7 -0.8
v 0.4 0.7 -0.8
v 0.7 0.7 -0.8

# faces
f 3/1/1 2/1/1 1/1/1
f 4/1/1 2/1/1 3/1/1
f 16/1/1 6/1/1 5/1/1
f 16/2/1 7/2/1 6/2/1
f 17/2/1 7/2/1 16/2/1
f 18/1/1 8/1/1 7/1/1
f 19/2/1 9/2/1 8/2/1
f 19/1/1 8/1/1 18/1/1
f 20/1/1 10/1/1 9/1/1
f 20/2/1 9/2/1 19/2/1
f 21/3/1 11/3/1 10/3/1
f 21/1/1 10/1/1 20/1/1
f 22/1/1 12/1/1 11/1/1
f 22/3/1 11/3/1 21/3/1
f 23/2/1 13/2/1 12/2/1
f 23/1/1 12/1/1 22/1/1
f 24/3/1 14/3/1 13/3/1
f 24/2/1 13/2/1 23/2/1
f 25/3/1 14/3/1 24/3/1
f 26/1/1 15/1/1 14/1/1
f 26/3/1 14/3/1 25/3/1
f 27/1/1 15/1/1 26/1/1
f 28/1/1 15/1/1 27/1/1
f 29/1/1 16/1/1 5/1/1
f 29/1/1 17/1/1 16/1/1
f 30/1/1 17/1/1 29/1/1
f 31/2/1 7/2/1 17/2/1
f 31/1/1 17/1/1 30/1/1
f 32/1/1 18/1/1 7/1/1
f 32/2/1 7/2/1 31/2/1
f 33/1/1 18/1/1 32/1/1
f 34/3/1 19/3/1 18/3/1
f 34/1/1 18/1/1 33/1/1
f 34/3/1 20/3/1 19/3/1
f 35/3/1 20/3/1 34/3/1
f 36/1/1 25/1/1 24/1/1
f 36/3/1 20/3/1 35/3/1
f 36/1/1 23/1/1 22/1/1
f 36/1/1 21/1/1 20/1/1
f 36/1/1 22/1/1 21/1/1
f 36/1/1 24/1/1 23/1/1
f 37/1/1 25/1/1 36/1/1
f 38/1/1 25/1/1 37/1/1
f 39/2/1 26/2/1 25/2/1
f 39/1/1 25/1/1 38/1/1
f 40/1/1 27/1/1 26/1/1
f 40/2/1 26/2/1 39/2/1
f 41/1/1 27/1/1 40/1/1
f 42/3/1 28/3/1 27/3/1
f 42/1/1 27/1/1 41/1/1
f 43/3/1 28/3/1 42/3/1
f 44/1/1 31/1/1 30/1/1
f 44/1/1 32/1/1 31/1/1
f 45/1/1 32/1/1 44/1/1
f 46/1/1 32/1/1 45/1/1
f 47/2/1 33/2/1 32/2/1
f 47/1/1 32/1/1 46/1/1
f 48/2/1 35/2/1 34/2/1
f 48/1/1 34/1/1 33/1/1
f 49/1/1 37/1/1 36/1/1
f 49/2/1 35/2/1 48/2/1
f 49/1/1 36/1/1 35/1/1
f 50/1/1 40/1/1 39/1/1
f 50/1/1 39/1/1 38/1/1
f 50/1/1 41/1/1 40/1/1
f 50/2/1 38/2/1 37/2/1
f 51/1/1 41/1/1 50/1/1
f 52/1/1 41/1/1 51/1/1
f 53/1/1 41/1/1 52/1/1
f 54/1/1 46/1/1 45/1/1
f 55/2/1 47/2/1 46/2/1
f 55/1/1 46/1/1 54/1/1
f 56/2/1 33/2/1 47/2/1
f 56/2/1 47/2/1 55/2/1
f 56/1/1 48/1/1 33/1/1
f 56/1/1 49/1/1 48/1/1
f 57/1/1 37/1/1 49/1/1
f 57/1/1 49/1/1 56/1/1
f 57/2/1 51/2/1 50/2/1
f 57/2/1 50/2/1 37/2/1
f 58/1/1 52/1/1 51/1/1
f 58/2/1 51/2/1 57/2/1
f 59/1/1 52/1/1 58/1/1
f 64/1/1 61/1/1 60/1/1
f 65/1/1 61/1/1 64/1/1
f 66/1/1 63/1/1 62/1/1
f 67/1/1 63/1/1 66/1/1
f 72/1/1 69/1/1 68/1/1
f 73/1/1 69/1/1 72/1/1
f 76/1/1 71/1/1 70/1/1
f 77/1/1 71/1/1 76/1/1
f 78/1/1 74/1/1 73/1/1
f 83/1/1 76/1/1 75/1/1
f 84/1/1 82/1/1 81/1/1
f 84/1/1 83/1/1 82/1/1
f 84/1/1 78/1/1 73/1/1
f 84/1/1 79/1/1 78/1/1
f 84/1/1 81/1/1 80/1/1
f 84/1/1 80/1/1 79/1/1
f 85/1/1 76/1/1 83/1/1
f 85/1/1 83/1/1 84/1/1
f 90/1/1 87/1/1 86/1/1
f 91/1/1 87/1/1 90/1/1
f 94/1/1 89/1/1 88/1/1
f 95/1/1 89/1/1 94/1/1
f 96/1/1 92/1/1 91/1/1
f 97/1/1 92/1/1 96/1/1
f 98/1/1 94/1/1 93/1/1
f 99/1/1 94/1/1 98/1/1
f 106/1/1 101/1/1 100/1/1
f 107/1/1 101/1/1 106/1/1
f 108/3/1 102/3/1 101/3/1
f 108/1/1 101/1/1 107/1/1
f 109/3/1 102/3/1 108/3/1
f 110/1/1 103/1/1 102/1/1
f 110/3/1 104/3/1 103/3/1
f 111/1/1 105/1/1 104/1/1
f 111/3/1 104/3/1 110/3/1
f 112/1/1 105/1/1 111/1/1
f 113/1/1 105/1/1 112/1/1
f 114/1/1 106/1/1 100/1/1
f 115/3/1 107/3/1 106/3/1
f 115/1/1 106/1/1 114/1/1
f 116/1/1 109/1/1 108/1/1
f 116/3/1 107/3/1 115/3/1
f 116/1/1 108/1/1 107/1/1
f 117/3/1 102/3/1 109/3/1
f 117/1/1 109/1/1 116/1/1
f 118/1/1 110/1/1 102/1/1
f 118/3/1 102/3/1 117/3/1
f 118/1/1 111/1/1 110/1/1
f 118/1/1 112/1/1 111/1/1
f 119/1/1 112/1/1 118/1/1
f 120/1/1 112/1/1 119/1/1
f 121/3/1 113/3/1 112/3/1
f 121/1/1 112/1/1 120/1/1
f 122/1/1 105/1/1 113/1/1
f 122/3/1 113/3/1 121/3/1
f 123/1/1 105/1/1 122/1/1
f 126/2/1 115/2/1 114/2/1
f 127/1/1 117/1/1 116/1/1
f 127/1/1 116/1/1 115/1/1
f 127/2/1 115/2/1 126/2/1
f 127/1/1 118/1/1 117/1/1
f 127/1/1 119/1/1 118/1/1
f 128/1/1 119/1/1 127/1/1
f 129/1/1 119/1/1 128/1/1
f 130/1/1 121/1/1 120/1/1
f 130/2/1 123/2/1 122/2/1
f 130/1/1 122/1/1 121/1/1
f 131/2/1 123/2/1 130/2/1
f 134/2/1 126/2/1 125/2/1
f 134/1/1 125/1/1 124/1/1
f 135/1/1 128/1/1 127/1/1
f 135/2/1 126/2/1 134/2/1
f 135/1/1 127/1/1 126/1/1
f 136/1/1 128/1/1 135/1/1
f 137/1/1 128/1/1 136/1/1
f 138/3/1 129/3/1 128/3/1
f 138/1/1 128/1/1 137/1/1
f 139/1/1 119/1/1 129/1/1
f 139/3/1 129/3/1 138/3/1
f 140/3/1 120/3/1 119/3/1
f 140/1/1 119/1/1 139/1/1
f 141/1/1 131/1/1 130/1/1
f 141/3/1 120/3/1 140/3/1
f 141/1/1 130/1/1 120/1/1
f 142/2/1 132/2/1 131/2/1
f 142/1/1 131/1/1 141/1/1
f 143/1/1 133/1/1 132/1/1
f 143/2/1 132/2/1 142/2/1
f 144/1/1 134/1/1 124/1/1
f 144/1/1 136/1/1 135/1/1
f 144/1/1 135/1/1 134/1/1
f 145/3/1 137/3/1 136/3/1
f 145/1/1 136/1/1 144/1/1
f 146/1/1 142/1/1 141/1/1
f 146/3/1 137/3/1 145/3/1
f 146/1/1 141/1/1 140/1/1
f 146/1/1 143/1/1 142/1/1
f 146/1/1 138/1/1 137/1/1
f 146/1/1 139/1/1 138/1/1
f 146/1/1 140/1/1 139/1/1
f 147/1/1 133/1/1 143/1/1
f 147/1/1 143/1/1 146/1/1
f 152/1/1 149/1/1 148/1/1
f 153/1/1 149/1/1 152/1/1
f 156/1/1 151/1/1 150/1/1
f 157/1/1 151/1/1 156/1/1
f 158/1/1 154/1/1 153/1/1
f 159/1/1 154/1/1 158/1/1
f 164/1/1 156/1/1 155/1/1
f 165/1/1 156/1/1 164/1/1
f 166/1/1 161/1/1 160/1/1
f 167/1/1 161/1/1 166/1/1
f 168/1/1 163/1/1 162/1/1
f 169/1/1 163/1/1 168/1/1
f 174/2/1 171/2/1 170/2/1
f 175/2/1 171/2/1 174/2/1
f 176/2/1 173/2/1 172/2/1
f 177/2/1 173/2/1 176/2/1
f 182/1/1 179/1/1 178/1/1
f 185/1/1 181/1/1 180/1/1
f 186/1/1 183/1/1 182/1/1
f 186/1/1 182/1/1 178/1/1
f 187/1/1 183/1/1 186/1/1
f 188/1/1 185/1/1 184/1/1
f 189/1/1 181/1/1 185/1/1
f 189/1/1 185/1/1 188/1/1
f 190/1/1 186/1/1 178/1/1
f 191/1/1 186/1/1 190/1/1
f 192/1/1 181/1/1 189/1/1
f 193/1/1 181/1/1 192/1/1
f 194/1/2 195/1/2 198/1/2
f 198/1/2 195/1/2 199/1/2
f 196/1/2 197/1/2 200/1/2
f 200/1/2 197/1/2 201/1/2
f 198/3/2 199/3/2 202/3/2
f 202/3/2 199/3/2 203/3/2
f 200/3/2 201/3/2 204/3/2
f 204/3/2 201/3/2 205/3/2
f 206/1/2 207/1/2 210/1/2
f 210/1/2 207/1/2 211/1/2
f 208/1/2 209/1/2 212/1/2
f 212/1/2 209/1/2 213/1/2
f 214/1/2 215/1/2 218/1/2
f 218/1/2 215/1/2 219/1/2
f 216/1/2 217/1/2 222/1/2
f 222/1/2 217/1/2 223/1/2
f 219/1/2 220/1/2 224/1/2
f 224/1/2 220/1/2 225/1/2
f 221/1/2 222/1/2 230/1/2
f 230/1/2 222/1/2 231/1/2
f 226/1/2 227/1/2 232/1/2
f 232/1/2 227/1/2 233/1/2
f 228/1/2 229/1/2 234/1/2
f 234/1/2 229/1/2 235/1/2
f 233/1/2 227/1/2 237/1/2
f 228/1/2 234/1/2 238/1/2
f 236/1/2 237/1/2 241/1/2
f 237/1/2 227/1/2 242/1/2
f 241/1/2 237/1/2 242/1/2
f 238/1/2 239/1/2 243/1/2
f 228/1/2 238/1/2 243/1/2
f 243/1/2 239/1/2 244/1/2
f 240/1/2 241/1/2 246/1/2
f 246/1/2 241/1/2 247/1/2
f 244/1/2 245/1/2 248/1/2
f 248/1/2 245/1/2 249/1/2
f 250/1/2 251/1/2 254/1/2
f 254/1/2 251/1/2 255/1/2
f 252/1/2 253/1/2 258/1/2
f 258/1/2 253/1/2 259/1/2
f 255/1/2 256/1/2 260/1/2
f 260/1/2 256/1/2 261/1/2
f 257/1/2 258/1/2 264/1/2
f 264/1/2 258/1/2 265/1/2
f 261/1/2 262/1/2 266/1/2
f 266/1/2 262/1/2 267/1/2
f 263/1/2 264/1/2 274/1/2
f 274/1/2 264/1/2 275/1/2
f 268/1/2 269/1/2 276/1/2
f 269/3/2 270/3/2 277/3/2
f 276/1/2 269/1/2 277/1/2
f 270/1/2 271/1/2 278/1/2
f 277/3/2 270/3/2 278/3/2
f 278/1/2 271/1/2 279/1/2
f 271/3/2 272/3/2 280/3/2
f 279/1/2 271/1/2 280/1/2
f 272/1/2 273/1/2 281/1/2
f 280/3/2 272/3/2 281/3/2
f 281/1/2 273/1/2 282/1/2
f 268/1/2 276/1/2 283/1/2
f 276/3/2 277/3/2 283/3/2
f 278/1/2 279/1/2 284/1/2
f 283/3/2 277/3/2 284/3/2
f 277/1/2 278/1/2 284/1/2
f 284/1/2 279/1/2 285/1/2
f 279/3/2 280/3/2 286/3/2
f 285/1/2 279/1/2 286/1/2
f 281/3/2 282/3/2 287/3/2
f 280/1/2 281/1/2 287/1/2
f 282/1/2 273/1/2 288/1/2
f 287/3/2 282/3/2 288/3/2
f 284/1/2 285/1/2 290/1/2
f 268/1/2 283/1/2 290/1/2
f 283/1/2 284/1/2 290/1/2
f 285/3/2 286/3/2 291/3/2
f 290/1/2 285/1/2 291/1/2
f 286/3/2 280/3/2 292/3/2
f 291/3/2 286/3/2 292/3/2
f 288/1/2 273/1/2 293/1/2
f 287/1/2 288/1/2 293/1/2
f 292/3/2 280/3/2 295/3/2
f 290/1/2 291/1/2 295/1/2
f 291/1/2 292/1/2 295/1/2
f 289/1/2 290/1/2 295/1/2
f 293/1/2 294/1/2 296/1/2
f 295/3/2 280/3/2 296/3/2
f 280/1/2 287/1/2 296/1/2
f 287/1/2 293/1/2 296/1/2
f 289/1/2 295/1/2 297/1/2
f 295/1/2 296/1/2 297/1/2
f 296/1/2 294/1/2 298/1/2
f 297/1/2 296/1/2 298/1/2
f 299/1/2 300/1/2 303/1/2
f 303/1/2 300/1/2 304/1/2
f 301/1/2 302/1/2 305/1/2
f 305/1/2 302/1/2 306/1/2
f 307/1/2 308/1/2 311/1/2
f 311/1/2 308/1/2 312/1/2
f 309/1/2 310/1/2 315/1/2
f 315/1/2 310/1/2 316/1/2
f 312/1/2 313/1/2 317/1/2
f 317/1/2 313/1/2 318/1/2
f 318/1/2 313/1/2 319/1/2
f 314/1/2 315/1/2 320/1/2
f 320/1/2 315/1/2 321/1/2
f 321/1/2 315/1/2 322/1/2
f 318/1/2 319/1/2 323/1/2
f 320/1/2 321/1/2 323/1/2
f 319/1/2 320/1/2 323/1/2
f 323/1/2 321/1/2 324/1/2
f 325/2/2 326/2/2 329/2/2
f 327/2/2 328/2/2 339/2/2
f 339/2/2 328/2/2 340/2/2
f 325/2/2 329/2/2 341/2/2
f 329/2/2 330/2/2 341/2/2
f 330/2/2 331/2/2 341/2/2
f 341/2/2 331/2/2 342/2/2
f 331/1/2 332/1/2 343/1/2
f 342/2/2 331/2/2 343/2/2
f 332/2/2 333/2/2 344/2/2
f 343/1/2 332/1/2 344/1/2
f 344/2/2 333/2/2 345/2/2
f 333/1/2 334/1/2 346/1/2
f 345/2/2 333/2/2 346/2/2
f 334/3/2 335/3/2 347/3/2
f 346/1/2 334/1/2 347/1/2
f 335/1/2 336/1/2 348/1/2
f 347/3/2 335/3/2 348/3/2
f 348/1/2 336/1/2 349/1/2
f 337/3/2 338/3/2 350/3/2
f 349/1/2 336/1/2 350/1/2
f 339/3/2 340/3/2 350/3/2
f 338/3/2 339/3/2 350/3/2
f 336/3/2 337/3/2 350/3/2
f 350/3/2 340/3/2 351/3/2
f 351/3/2 340/3/2 352/3/2
f 352/3/2 340/3/2 353/3/2
f 341/1/2 342/1/2 354/1/2
f 343/3/2 344/3/2 355/3/2
f 354/1/2 342/1/2 355/1/2
f 342/3/2 343/3/2 355/3/2
f 344/2/2 345/2/2 356/2/2
f 355/3/2 344/3/2 356/3/2
f 345/3/2 346/3/2 357/3/2
f 356/2/2 345/2/2 357/2/2
f 346/3/2 347/3/2 357/3/2
f 357/3/2 347/3/2 358/3/2
f 358/3/2 347/3/2 359/3/2
f 348/1/2 349/1/2 360/1/2
f 359/3/2 347/3/2 360/3/2
f 347/1/2 348/1/2 360/1/2
f 349/3/2 350/3/2 361/3/2
f 350/3/2 351/3/2 361/3/2
f 351/2/2 352/2/2 362/2/2
f 361/3/2 351/3/2 362/3/2
f 352/1/2 353/1/2 363/1/2
f 362/2/2 352/2/2 363/2/2
f 353/3/2 340/3/2 364/3/2
f 363/1/2 353/1/2 364/1/2
f 364/3/2 340/3/2 365/3/2
f 365/3/2 340/3/2 366/3/2
f 357/1/2 358/1/2 367/1/2
f 355/1/2 356/1/2 367/1/2
f 356/1/2 357/1/2 367/1/2
f 367/1/2 358/1/2 368/1/2
f 358/3/2 359/3/2 369/3/2
f 368/1/2 358/1/2 369/1/2
f 359/1/2 360/1/2 370/1/2
f 369/3/2 359/3/2 370/3/2
f 349/3/2 361/3/2 371/3/2
f 370/1/2 360/1/2 371/1/2
f 360/1/2 349/1/2 371/1/2
f 362/1/2 363/1/2 372/1/2
f 371/3/2 361/3/2 372/3/2
f 361/1/2 362/1/2 372/1/2
f 364/1/2 365/1/2 372/1/2
f 363/1/2 364/1/2 372/1/2
f 372/1/2 365/1/2 373/1/2
f 373/1/2 365/1/2 374/1/2
f 370/1/2 371/1/2 375/1/2
f 372/1/2 373/1/2 375/1/2
f 371/1/2 372/1/2 375/1/2
f 368/1/2 369/1/2 375/1/2
f 369/1/2 370/1/2 375/1/2
f 375/1/2 373/1/2 376/1/2
f 377/2/2 378/2/2 387/2/2
f 378/1/2 379/1/2 388/1/2
f 387/2/2 378/2/2 388/2/2
f 379/2/2 380/2/2 389/2/2
f 388/1/2 379/1/2 389/1/2
f 380/1/2 381/1/2 390/1/2
f 389/2/2 380/2/2 390/2/2
f 381/3/2 382/3/2 391/3/2
f 390/1/2 381/1/2 391/1/2
f 382/1/2 383/1/2 392/1/2
f 391/3/2 382/3/2 392/3/2
f 383/3/2 384/3/2 393/3/2
f 392/1/2 383/1/2 393/1/2
f 384/1/2 385/1/2 394/1/2
f 393/3/2 384/3/2 394/3/2
f 385/2/2 386/2/2 395/2/2
f 394/1/2 385/1/2 395/1/2
f 395/2/2 386/2/2 396/2/2
f 399/1/3 398/1/3 397/1/3
f 400/1/3 398/1/3 399/1/3
f 401/2/3 400/2/3 399/2/3
f 402/2/3 400/2/3 401/2/3
f 403/3/3 402/3/3 401/3/3
f 404/3/3 402/3/3 403/3/3
f 405/1/3 404/1/3 403/1/3
f 406/1/3 404/1/3 405/1/3
f 407/2/3 406/2/3 405/2/3
f 408/2/3 406/2/3 407/2/3
f 409/3/3 408/3/3 407/3/3
f 410/3/3 408/3/3 409/3/3
f 411/1/3 410/1/3 409/1/3
f 412/1/3 410/1/3 411/1/3
f 415/1/3 414/1/3 413/1/3
f 417/1/3 415/1/3 413/1/3
f 417/1/3 416/1/3 415/1/3
f 418/1/3 416/1/3 417/1/3
f 419/1/3 416/1/3 418/1/3
f 420/1/3 416/1/3 419/1/3
f 421/1/3 416/1/3 420/1/3
f 423/1/3 422/1/3 421/1/3
f 425/2/3 420/2/3 419/2/3
f 426/3/3 421/3/3 420/3/3
f 426/2/3 420/2/3 425/2/3
f 427/1/3 424/1/3 423/1/3
f 427/3/3 421/3/3 426/3/3
f 427/1/3 423/1/3 421/1/3
f 428/2/3 426/2/3 425/2/3
f 428/1/3 427/1/3 426/1/3
f 429/1/3 424/1/3 427/1/3
f 429/1/3 427/1/3 428/1/3
f 430/2/3 428/2/3 425/2/3
f 430/2/3 429/2/3 428/2/3
f 431/1/3 424/1/3 429/1/3
f 431/2/3 429/2/3 430/2/3
f 432/2/3 430/2/3 425/2/3
f 433/1/3 431/1/3 430/1/3
f 433/2/3 430/2/3 432/2/3
f 434/1/3 424/1/3 431/1/3
f 434/1/3 431/1/3 433/1/3
f 435/1/3 433/1/3 432/1/3
f 435/3/3 434/3/3 433/3/3
f 436/1/3 424/1/3 434/1/3
f 436/3/3 434/3/3 435/3/3
f 437/1/3 435/1/3 432/1/3
f 437/1/3 436/1/3 435/1/3
f 438/1/3 424/1/3 436/1/3
f 438/1/3 436/1/3 437/1/3
f 439/2/3 438/2/3 437/2/3
f 440/1/3 424/1/3 438/1/3
f 440/2/3 438/2/3 439/2/3
f 441/3/3 440/3/3 439/3/3
f 442/1/3 424/1/3 440/1/3
f 442/3/3 440/3/3 441/3/3
f 443/1/3 424/1/3 442/1/3
f 444/2/3 442/2/3 441/2/3
f 444/3/3 443/3/3 442/3/3
f 445/1/3 424/1/3 443/1/3
f 445/3/3 443/3/3 444/3/3
f 446/1/3 424/1/3 445/1/3
f 447/2/3 444/2/3 441/2/3
f 448/2/3 444/2/3 447/2/3
f 449/1/3 445/1/3 444/1/3
f 449/2/3 444/2/3 448/2/3
f 450/3/3 446/3/3 445/3/3
f 450/1/3 445/1/3 449/1/3
f 451/3/3 446/3/3 450/3/3
f 452/2/3 448/2/3 447/2/3
f 452/3/3 449/3/3 448/3/3
f 452/3/3 450/3/3 449/3/3
f 453/1/3 451/1/3 450/1/3
f 453/3/3 450/3/3 452/3/3
f 454/1/3 453/1/3 452/1/3
f 454/1/3 451/1/3 453/1/3
f 455/1/3 451/1/3 454/1/3
f 456/1/3 454/1/3 452/1/3
f 457/1/3 454/1/3 456/1/3
f 459/2/3 452/2/3 447/2/3
f 460/2/3 459/2/3 458/2/3
f 461/1/3 456/1/3 452/1/3
f 461/2/3 459/2/3 460/2/3
f 461/2/3 452/2/3 459/2/3
f 462/1/3 456/1/3 461/1/3
f 465/1/3 464/1/3 463/1/3
f 466/1/3 464/1/3 465/1/3
f 468/1/3 467/1/3 466/1/3
f 469/1/3 467/1/3 468/1/3
f 471/1/3 470/1/3 469/1/3
f 472/1/3 470/1/3 471/1/3
f 474/1/3 470/1/3 472/1/3
f 475/1/3 470/1/3 474/1/3
f 477/1/3 474/1/3 473/1/3
f 478/1/3 474/1/3 477/1/3
f 479/1/3 477/1/3 476/1/3
f 480/1/3 477/1/3 479/1/3
f 483/2/3 482/2/3 481/2/3
f 484/2/3 482/2/3 483/2/3
f 487/1/3 486/1/3 485/1/3
f 488/1/3 486/1/3 487/1/3
f 490/1/3 489/1/3 488/1/3
f 491/1/3 489/1/3 490/1/3
f 494/1/3 489/1/3 491/1/3
f 495/1/3 489/1/3 494/1/3
f 496/1/3 493/1/3 492/1/3
f 497/1/3 493/1/3 496/1/3
f 499/2/3 497/2/3 496/2/3
f 500/1/3 493/1/3 497/1/3
f 500/2/3 497/2/3 499/2/3
f 501/1/3 493/1/3 500/1/3
f 502/1/3 499/1/3 498/1/3
f 502/2/3 500/2/3 499/2/3
f 502/2/3 501/2/3 500/2/3
f 503/2/3 501/2/3 502/2/3
f 504/1/3 502/1/3 498/1/3
f 504/1/3 503/1/3 502/1/3
f 505/1/3 503/1/3 504/1/3
f 506/1/3 504/1/3 498/1/3
f 507/1/3 504/1/3 506/1/3
f 508/3/3 505/3/3 504/3/3
f 508/1/3 504/1/3 507/1/3
f 509/1/3 503/1/3 505/1/3
f 509/3/3 505/3/3 508/3/3
f 510/1/3 508/1/3 507/1/3
f 510/2/3 507/2/3 506/2/3
f 510/1/3 509/1/3 508/1/3
f 511/1/3 509/1/3 510/1/3
f 512/2/3 511/2/3 510/2/3
f 512/1/3 509/1/3 511/1/3
f 513/1/3 503/1/3 509/1/3
f 513/1/3 509/1/3 512/1/3
f 514/2/3 513/2/3 512/2/3
f 515/1/3 503/1/3 513/1/3
f 515/2/3 513/2/3 514/2/3
f 516/2/3 512/2/3 510/2/3
f 516/2/3 510/2/3 506/2/3
f 516/2/3 514/2/3 512/2/3
f 517/1/3 515/1/3 514/1/3
f 517/2/3 514/2/3 516/2/3
f 518/1/3 503/1/3 515/1/3
f 518/1/3 515/1/3 517/1/3
f 519/1/3 503/1/3 518/1/3
f 520/2/3 516/2/3 506/2/3
f 521/1/3 517/1/3 516/1/3
f 521/2/3 516/2/3 520/2/3
f 521/1/3 518/1/3 517/1/3
f 522/1/3 521/1/3 520/1/3
f 522/1/3 518/1/3 521/1/3
f 523/1/3 518/1/3 522/1/3
f 524/2/3 519/2/3 518/2/3
f 524/1/3 518/1/3 523/1/3
f 525/2/3 519/2/3 524/2/3
f 526/1/3 522/1/3 520/1/3
f 527/3/3 523/3/3 522/3/3
f 527/1/3 522/1/3 526/1/3
f 528/1/3 524/1/3 523/1/3
f 528/3/3 523/3/3 527/3/3
f 528/1/3 525/1/3 524/1/3
f 531/1/3 525/1/3 528/1/3
f 532/1/3 525/1/3 531/1/3
f 534/1/3 530/1/3 529/1/3
f 535/1/3 530/1/3 534/1/3
f 537/1/3 534/1/3 533/1/3
f 538/1/3 534/1/3 537/1/3
f 539/1/3 537/1/3 536/1/3
f 540/1/3 537/1/3 539/1/3
f 543/1/3 542/1/3 541/1/3
f 544/1/3 542/1/3 543/1/3
f 549/1/3 546/1/3 545/1/3
f 550/1/3 546/1/3 549/1/3
f 551/2/3 548/2/3 547/2/3
f 552/2/3 548/2/3 551/2/3
f 556/1/3 554/1/3 553/1/3
f 556/1/3 555/1/3 554/1/3
f 557/1/3 555/1/3 556/1/3
f 558/1/3 556/1/3 553/1/3
f 559/1/3 556/1/3 558/1/3
f 560/1/3 555/1/3 557/1/3
f 561/1/3 555/1/3 560/1/3
f 565/1/3 562/1/3 561/1/3
f 566/1/3 562/1/3 565/1/3
f 567/1/3 564/1/3 563/1/3
f 568/1/3 564/1/3 567/1/3
f 572/1/3 570/1/3 569/1/3
f 573/1/3 570/1/3 572/1/3
f 574/2/3 571/2/3 570/2/3
f 574/1/3 570/1/3 573/1/3
f 575/2/3 571/2/3 574/2/3
f 576/1/3 574/1/3 573/1/3
f 577/1/3 574/1/3 576/1/3
f 580/1/3 579/1/3 578/1/3
f 581/1/3 579/1/3 580/1/3
f 584/1/3 583/1/3 582/1/3
f 585/1/3 583/1/3 584/1/3
f 588/1/3 587/1/3 586/1/3
f 589/1/3 587/1/3 588/1/3
f 590/1/4 591/1/4 592/1/4
f 592/1/4 591/1/4 593/1/4
f 594/1/4 595/1/4 597/1/4
f 597/1/4 595/1/4 598/1/4
f 595/2/4 596/2/4 599/2/4
f 598/1/4 595/1/4 599/1/4
f 599/2/4 596/2/4 600/2/4
f 598/1/4 599/1/4 601/1/4
f 601/1/4 599/1/4 602/1/4
f 603/1/4 604/1/4 605/1/4
f 605/1/4 604/1/4 606/1/4
f 607/1/4 608/1/4 609/1/4
f 609/1/4 608/1/4 610/1/4
f 611/1/4 612/1/4 613/1/4
f 613/1/4 612/1/4 614/1/4
f 615/1/4 616/1/4 619/1/4
f 619/1/4 616/1/4 620/1/4
f 617/2/4 618/2/4 621/2/4
f 621/2/4 618/2/4 622/2/4
f 623/1/4 624/1/4 626/1/4
f 624/1/4 625/1/4 626/1/4
f 626/1/4 625/1/4 627/1/4
f 623/1/4 626/1/4 628/1/4
f 628/1/4 626/1/4 629/1/4
f 627/1/4 625/1/4 630/1/4
f 630/1/4 625/1/4 631/1/4
f 631/1/4 632/1/4 635/1/4
f 635/1/4 632/1/4 636/1/4
f 633/1/4 634/1/4 637/1/4
f 637/1/4 634/1/4 638/1/4
f 639/1/4 640/1/4 641/1/4
f 641/1/4 640/1/4 642/1/4
f 642/1/4 643/1/4 644/1/4
f 644/1/4 643/1/4 645/1/4
f 645/1/4 643/1/4 648/1/4
f 648/1/4 643/1/4 649/1/4
f 646/1/4 647/1/4 650/1/4
f 650/1/4 647/1/4 651/1/4
f 650/2/4 651/2/4 653/2/4
f 651/1/4 647/1/4 654/1/4
f 653/2/4 651/2/4 654/2/4
f 654/1/4 647/1/4 655/1/4
f 652/1/4 653/1/4 656/1/4
f 653/2/4 654/2/4 656/2/4
f 654/2/4 655/2/4 656/2/4
f 656/2/4 655/2/4 657/2/4
f 652/1/4 656/1/4 658/1/4
f 656/1/4 657/1/4 658/1/4
f 658/1/4 657/1/4 659/1/4
f 658/2/4 659/2/4 660/2/4
f 659/1/4 657/1/4 660/1/4
f 660/1/4 657/1/4 661/1/4
f 660/2/4 661/2/4 662/2/4
f 661/1/4 657/1/4 662/1/4
f 662/1/4 657/1/4 663/1/4
f 662/2/4 663/2/4 664/2/4
f 663/1/4 657/1/4 665/1/4
f 664/2/4 663/2/4 665/2/4
f 658/2/4 660/2/4 666/2/4
f 660/2/4 662/2/4 666/2/4
f 662/2/4 664/2/4 666/2/4
f 664/1/4 665/1/4 667/1/4
f 666/2/4 664/2/4 667/2/4
f 665/1/4 657/1/4 668/1/4
f 667/1/4 665/1/4 668/1/4
f 668/1/4 657/1/4 669/1/4
f 658/2/4 666/2/4 670/2/4
f 666/1/4 667/1/4 671/1/4
f 670/2/4 666/2/4 671/2/4
f 667/1/4 668/1/4 671/1/4
f 670/1/4 671/1/4 672/1/4
f 671/1/4 668/1/4 672/1/4
f 672/1/4 668/1/4 673/1/4
f 668/2/4 669/2/4 674/2/4
f 673/1/4 668/1/4 674/1/4
f 674/2/4 669/2/4 675/2/4
f 670/1/4 672/1/4 676/1/4
f 672/3/4 673/3/4 677/3/4
f 676/1/4 672/1/4 677/1/4
f 673/1/4 674/1/4 678/1/4
f 677/3/4 673/3/4 678/3/4
f 674/1/4 675/1/4 678/1/4
f 678/1/4 675/1/4 681/1/4
f 681/1/4 675/1/4 682/1/4
f 679/1/4 680/1/4 684/1/4
f 684/1/4 680/1/4 685/1/4
f 683/1/4 684/1/4 687/1/4
f 687/1/4 684/1/4 688/1/4
f 686/1/4 687/1/4 689/1/4
f 689/1/4 687/1/4 690/1/4
f 691/1/4 692/1/4 693/1/4
f 693/1/4 692/1/4 694/1/4
f 694/1/4 695/1/4 696/1/4
f 696/1/4 695/1/4 697/1/4
f 697/1/4 698/1/4 700/1/4
f 700/1/4 698/1/4 701/1/4
f 699/1/4 700/1/4 703/1/4
f 703/1/4 700/1/4 704/1/4
f 702/1/4 703/1/4 705/1/4
f 705/1/4 703/1/4 706/1/4
f 707/2/4 708/2/4 709/2/4
f 709/2/4 708/2/4 710/2/4
f 711/1/4 712/1/4 713/1/4
f 711/1/4 713/1/4 716/1/4
f 713/1/4 714/1/4 716/1/4
f 716/1/4 714/1/4 717/1/4
f 717/1/4 714/1/4 718/1/4
f 714/3/4 715/3/4 719/3/4
f 718/1/4 714/1/4 719/1/4
f 719/3/4 715/3/4 720/3/4
f 719/1/4 720/1/4 722/1/4
f 720/1/4 721/1/4 722/1/4
f 718/2/4 719/2/4 724/2/4
f 722/1/4 723/1/4 724/1/4
f 719/1/4 722/1/4 724/1/4
f 724/1/4 723/1/4 725/1/4
f 718/2/4 724/2/4 726/2/4
f 724/3/4 725/3/4 727/3/4
f 726/2/4 724/2/4 727/2/4
f 725/1/4 723/1/4 728/1/4
f 727/3/4 725/3/4 728/3/4
f 726/2/4 727/2/4 729/2/4
f 727/1/4 728/1/4 729/1/4
f 728/1/4 723/1/4 730/1/4
f 729/1/4 728/1/4 730/1/4
f 726/2/4 729/2/4 731/2/4
f 729/2/4 730/2/4 731/2/4
f 730/1/4 723/1/4 732/1/4
f 731/2/4 730/2/4 732/2/4
f 726/2/4 731/2/4 733/2/4
f 731/1/4 732/1/4 734/1/4
f 733/2/4 731/2/4 734/2/4
f 732/1/4 723/1/4 735/1/4
f 734/1/4 732/1/4 735/1/4
f 733/1/4 734/1/4 736/1/4
f 734/3/4 735/3/4 736/3/4
f 735/1/4 723/1/4 737/1/4
f 736/3/4 735/3/4 737/3/4
f 733/1/4 736/1/4 738/1/4
f 736/1/4 737/1/4 738/1/4
f 737/1/4 723/1/4 739/1/4
f 738/1/4 737/1/4 739/1/4
f 738/2/4 739/2/4 740/2/4
f 739/1/4 723/1/4 741/1/4
f 740/2/4 739/2/4 741/2/4
f 738/2/4 740/2/4 742/2/4
f 740/3/4 741/3/4 742/3/4
f 741/1/4 723/1/4 743/1/4
f 742/3/4 741/3/4 743/3/4
f 738/2/4 742/2/4 744/2/4
f 742/2/4 743/2/4 744/2/4
f 744/2/4 743/2/4 745/2/4
f 744/3/4 745/3/4 746/3/4
f 745/2/4 743/2/4 746/2/4
f 743/1/4 723/1/4 747/1/4
f 746/2/4 743/2/4 747/2/4
f 744/3/4 746/3/4 748/3/4
f 746/3/4 747/3/4 748/3/4
f 747/1/4 723/1/4 749/1/4
f 748/3/4 747/3/4 749/3/4
f 744/3/4 748/3/4 750/3/4
f 748/1/4 749/1/4 751/1/4
f 750/3/4 748/3/4 751/3/4
f 749/1/4 723/1/4 752/1/4
f 751/1/4 749/1/4 752/1/4
f 752/1/4 723/1/4 753/1/4
f 751/1/4 752/1/4 754/1/4
f 754/1/4 752/1/4 755/1/4
f 750/2/4 751/2/4 757/2/4
f 751/1/4 754/1/4 758/1/4
f 757/2/4 751/2/4 758/2/4
f 758/1/4 754/1/4 759/1/4
f 756/2/4 757/2/4 760/2/4
f 757/3/4 758/3/4 761/3/4
f 760/2/4 757/2/4 761/2/4
f 758/3/4 759/3/4 761/3/4
f 761/3/4 759/3/4 762/3/4
f 763/1/4 764/1/4 765/1/4
f 765/1/4 764/1/4 766/1/4
f 765/2/4 766/2/4 767/2/4
f 767/2/4 766/2/4 768/2/4
f 767/3/4 768/3/4 769/3/4
f 769/3/4 768/3/4 770/3/4
f 769/1/4 770/1/4 771/1/4
f 771/1/4 770/1/4 772/1/4
f 771/2/4 772/2/4 773/2/4
f 773/2/4 772/2/4 774/2/4
f 773/3/4 774/3/4 775/3/4
f 775/3/4 774/3/4 776/3/4
f 775/1/4 776/1/4 777/1/4
f 777/1/4 776/1/4 778/1/4
f 788/1/5 780/1/5 779/1/5
f 789/2/5 781/2/5 780/2/5
f 789/3/5 782/3/5 781/3/5
f 790/1/5 783/1/5 782/1/5
f 790/3/5 782/3/5 789/3/5
f 791/2/5 784/2/5 783/2/5
f 791/3/5 785/3/5 784/3/5
f 792/1/5 786/1/5 785/1/5
f 792/3/5 785/3/5 791/3/5
f 793/1/5 786/1/5 792/1/5
f 795/1/5 788/1/5 787/1/5
f 795/1/5 780/1/5 788/1/5
f 795/2/5 789/2/5 780/2/5
f 795/2/5 790/2/5 789/2/5
f 796/1/5 783/1/5 790/1/5
f 796/2/5 790/2/5 795/2/5
f 797/2/5 791/2/5 783/2/5
f 797/1/5 783/1/5 796/1/5
f 797/2/5 794/2/5 793/2/5
f 797/2/5 793/2/5 792/2/5
f 797/2/5 792/2/5 791/2/5
f 798/2/5 794/2/5 797/2/5
f 799/2/5 794/2/5 798/2/5
f 801/1/5 796/1/5 795/1/5
f 801/2/5 800/2/5 799/2/5
f 801/2/5 799/2/5 798/2/5
f 801/1/5 798/1/5 797/1/5
f 801/1/5 797/1/5 796/1/5
f 802/2/5 800/2/5 801/2/5
f 803/2/5 800/2/5 802/2/5
f 804/2/5 800/2/5 803/2/5
f 805/1/5 802/1/5 801/1/5
f 805/2/5 803/2/5 802/2/5
f 806/1/5 804/1/5 803/1/5
f 806/2/5 803/2/5 805/2/5
f 807/1/5 805/1/5 801/1/5
f 807/1/5 806/1/5 805/1/5
f 808/1/5 804/1/5 806/1/5
f 808/1/5 806/1/5 807/1/5
f 809/1/5 807/1/5 801/1/5
f 809/2/5 808/2/5 807/2/5
f 810/2/5 808/2/5 809/2/5
f 811/1/5 809/1/5 801/1/5
f 811/1/5 810/1/5 809/1/5
f 812/1/5 810/1/5 811/1/5
f 813/1/5 811/1/5 801/1/5
f 813/3/5 812/3/5 811/3/5
f 814/3/5 812/3/5 813/3/5
f 815/1/5 813/1/5 801/1/5
f 815/1/5 814/1/5 813/1/5
f 816/1/5 814/1/5 815/1/5
f 817/1/5 815/1/5 801/1/5
f 817/3/5 816/3/5 815/3/5
f 818/3/5 816/3/5 817/3/5
f 819/3/5 816/3/5 818/3/5
f 820/1/5 801/1/5 795/1/5
f 820/1/5 817/1/5 801/1/5
f 821/2/5 818/2/5 817/2/5
f 821/1/5 817/1/5 820/1/5
f 822/1/5 819/1/5 818/1/5
f 822/2/5 818/2/5 821/2/5
f 823/1/5 819/1/5 822/1/5
f 824/1/5 795/1/5 787/1/5
f 824/1/5 820/1/5 795/1/5
f 825/1/5 820/1/5 824/1/5
f 826/1/5 820/1/5 825/1/5
f 827/1/5 820/1/5 826/1/5
f 828/2/5 821/2/5 820/2/5
f 828/1/5 820/1/5 827/1/5
f 828/2/5 823/2/5 822/2/5
f 828/2/5 822/2/5 821/2/5
f 829/2/5 823/2/5 828/2/5
f 830/2/5 823/2/5 829/2/5
f 831/2/5 823/2/5 830/2/5
f 832/1/5 824/1/5 787/1/5
f 833/1/5 824/1/5 832/1/5
f 834/2/5 825/2/5 824/2/5
f 835/1/5 826/1/5 825/1/5
f 835/2/5 825/2/5 834/2/5
f 836/3/5 828/3/5 827/3/5
f 836/3/5 829/3/5 828/3/5
f 836/2/5 830/2/5 829/2/5
f 837/2/5 830/2/5 836/2/5
f 838/2/5 830/2/5 837/2/5
f 839/1/5 824/1/5 833/1/5
f 840/2/5 834/2/5 824/2/5
f 840/1/5 824/1/5 839/1/5
f 841/3/5 835/3/5 834/3/5
f 841/2/5 834/2/5 840/2/5
f 842/1/5 826/1/5 835/1/5
f 842/3/5 835/3/5 841/3/5
f 843/2/5 827/2/5 826/2/5
f 843/1/5 826/1/5 842/1/5
f 844/3/5 836/3/5 827/3/5
f 844/2/5 827/2/5 843/2/5
f 845/1/5 837/1/5 836/1/5
f 845/3/5 836/3/5 844/3/5
f 846/1/5 837/1/5 845/1/5
f 851/2/5 848/2/5 847/2/5
f 852/2/5 848/2/5 851/2/5
f 853/1/5 850/1/5 849/1/5
f 854/1/5 850/1/5 853/1/5
f 859/2/5 856/2/5 855/2/5
f 860/2/5 856/2/5 859/2/5
f 861/1/5 858/1/5 857/1/5
f 862/1/5 858/1/5 861/1/5
f 868/1/5 864/1/5 863/1/5
f 869/2/5 865/2/5 864/2/5
f 869/1/5 864/1/5 868/1/5
f 870/2/5 865/2/5 869/2/5
f 871/1/5 867/1/5 866/1/5
f 872/1/5 867/1/5 871/1/5
f 874/2/5 869/2/5 868/2/5
f 875/2/5 869/2/5 874/2/5
f 876/1/5 873/1/5 872/1/5
f 877/1/5 873/1/5 876/1/5
f 882/2/5 881/2/5 880/2/5
f 883/2/5 881/2/5 882/2/5
f 886/1/5 879/1/5 878/1/5
f 887/1/5 879/1/5 886/1/5
f 888/1/5 883/1/5 882/1/5
f 889/2/5 884/2/5 883/2/5
f 889/1/5 883/1/5 888/1/5
f 890/2/5 884/2/5 889/2/5
f 891/1/5 886/1/5 885/1/5
f 892/1/5 886/1/5 891/1/5
f 893/1/6 894/1/6 903/1/6
f 894/2/6 895/2/6 904/2/6
f 903/1/6 894/1/6 904/1/6
f 895/3/6 896/3/6 905/3/6
f 904/2/6 895/2/6 905/2/6
f 896/1/6 897/1/6 906/1/6
f 905/3/6 896/3/6 906/3/6
f 897/2/6 898/2/6 907/2/6
f 906/1/6 897/1/6 907/1/6
f 907/2/6 898/2/6 908/2/6
f 898/3/6 899/3/6 909/3/6
f 908/2/6 898/2/6 909/2/6
f 899/1/6 900/1/6 910/1/6
f 909/3/6 899/3/6 910/3/6
f 910/1/6 900/1/6 911/1/6
f 901/1/6 902/1/6 914/1/6
f 912/2/6 913/2/6 915/2/6
f 915/2/6 913/2/6 916/2/6
f 915/1/6 916/1/6 917/1/6
f 917/1/6 916/1/6 918/1/6
f 918/1/6 916/1/6 919/1/6
f 901/1/6 914/1/6 920/1/6
f 918/2/6 919/2/6 921/2/6
f 921/2/6 919/2/6 922/2/6
f 901/1/6 920/1/6 923/1/6
f 921/1/6 922/1/6 924/1/6
f 924/1/6 922/1/6 925/1/6
f 901/1/6 923/1/6 926/1/6
f 901/1/6 926/1/6 927/1/6
f 924/3/6 925/3/6 928/3/6
f 928/3/6 925/3/6 929/3/6
f 901/1/6 927/1/6 930/1/6
f 928/1/6 929/1/6 931/1/6
f 931/1/6 929/1/6 932/1/6
f 901/1/6 930/1/6 933/1/6
f 901/1/6 933/1/6 934/1/6
f 901/1/6 934/1/6 935/1/6
f 931/3/6 932/3/6 936/3/6
f 936/3/6 932/3/6 937/3/6
f 936/1/6 937/1/6 938/1/6
f 938/1/6 937/1/6 939/1/6
f 938/2/6 939/2/6 940/2/6
f 940/2/6 939/2/6 941/2/6
f 901/1/6 935/1/6 942/1/6
f 942/1/6 935/1/6 943/1/6
f 944/1/6 945/1/6 952/1/6
f 945/2/6 946/2/6 953/2/6
f 952/1/6 945/1/6 953/1/6
f 946/3/6 947/3/6 954/3/6
f 953/2/6 946/2/6 954/2/6
f 947/1/6 948/1/6 955/1/6
f 954/3/6 947/3/6 955/3/6
f 948/2/6 949/2/6 956/2/6
f 955/1/6 948/1/6 956/1/6
f 949/3/6 950/3/6 957/3/6
f 956/2/6 949/2/6 957/2/6
f 950/1/6 951/1/6 958/1/6
f 957/3/6 950/3/6 958/3/6
f 958/1/6 951/1/6 959/1/6
f 960/1/6 961/1/6 964/1/6
f 964/1/6 961/1/6 965/1/6
f 962/1/6 963/1/6 966/1/6
f 966/1/6 963/1/6 967/1/6
f 960/1/6 964/1/6 968/1/6
f 968/1/6 964/1/6 969/1/6
f 967/1/6 963/1/6 970/1/6
f 970/1/6 963/1/6 971/1/6
f 972/1/6 973/1/6 976/1/6
f 976/1/6 973/1/6 977/1/6
f 974/3/6 975/3/6 980/3/6
f 977/3/6 978/3/6 981/3/6
f 976/3/6 977/3/6 981/3/6
f 981/3/6 978/3/6 982/3/6
f 979/1/6 980/1/6 983/1/6
f 980/3/6 975/3/6 984/3/6
f 983/1/6 980/1/6 984/1/6
f 984/3/6 975/3/6 985/3/6
f 986/1/6 987/1/6 991/1/6
f 991/1/6 987/1/6 992/1/6
f 988/1/6 989/1/6 993/1/6
f 993/1/6 989/1/6 994/1/6
f 990/1/6 991/1/6 997/1/6
f 997/1/6 991/1/6 998/1/6
f 994/1/6 995/1/6 999/1/6
f 999/1/6 995/1/6 1000/1/6
f 996/1/6 997/1/6 1002/1/6
f 1002/1/6 997/1/6 1003/1/6
f 1000/1/6 1001/1/6 1004/1/6
f 1004/1/6 1001/1/6 1005/1/6
f 1008/1/6 1009/1/6 1010/1/6
f 1010/1/6 1009/1/6 1011/1/6
f 1006/1/6 1007/1/6 1014/1/6
f 1014/1/6 1007/1/6 1015/1/6
f 1011/1/6 1012/1/6 1016/1/6
f 1016/1/6 1012/1/6 1017/1/6
f 1013/1/6 1014/1/6 1020/1/6
f 1020/1/6 1014/1/6 1021/1/6
f 1017/1/6 1018/1/6 1022/1/6
f 1022/1/6 1018/1/6 1023/1/6
f 1019/1/6 1020/1/6 1024/1/6
f 1024/1/6 1020/1/6 1025/1/6
f 1026/1/6 1027/1/6 1031/1/6
f 1027/3/6 1028/3/6 1032/3/6
f 1031/1/6 1027/1/6 1032/1/6
f 1028/1/6 1029/1/6 1033/1/6
f 1032/3/6 1028/3/6 1033/3/6
f 1033/1/6 1029/1/6 1034/1/6
f 1030/1/6 1031/1/6 1036/1/6
f 1036/1/6 1031/1/6 1037/1/6
f 1034/1/6 1035/1/6 1038/1/6
f 1038/1/6 1035/1/6 1039/1/6
f 1039/1/6 1040/1/6 1043/1/6
f 1043/1/6 1040/1/6 1044/1/6
f 1041/1/6 1042/1/6 1047/1/6
f 1047/1/6 1042/1/6 1048/1/6
f 1047/2/6 1048/2/6 1049/2/6
f 1049/2/6 1048/2/6 1050/2/6
f 1049/1/6 1050/1/6 1051/1/6
f 1051/1/6 1050/1/6 1052/1/6
f 1051/2/6 1052/2/6 1053/2/6
f 1053/2/6 1052/2/6 1054/2/6
f 1045/1/6 1046/1/6 1055/1/6
f 1055/1/6 1046/1/6 1056/1/6
f 1053/1/6 1054/1/6 1057/1/6
f 1057/1/6 1054/1/6 1058/1/6
f 1059/1/6 1060/1/6 1064/1/6
f 1064/1/6 1060/1/6 1065/1/6
f 1061/1/6 1062/1/6 1066/1/6
f 1066/1/6 1062/1/6 1067/1/6
f 1063/1/6 1064/1/6 1068/1/6
f 1068/1/6 1064/1/6 1069/1/6
f 1067/1/6 1068/1/6 1070/1/6
f 1070/1/6 1068/1/6 1071/1/6
f 1072/1/6 1073/1/6 1075/1/6
f 1075/1/6 1073/1/6 1076/1/6
f 1076/1/6 1073/1/6 1077/1/6
f 1077/1/6 1073/1/6 1078/1/6
f 1078/1/6 1073/1/6 1079/1/6
f 1079/1/6 1073/1/6 1080/1/6
f 1074/1/6 1075/1/6 1082/1/6
f 1075/1/6 1076/1/6 1082/1/6
f 1082/1/6 1076/1/6 1083/1/6
f 1080/1/6 1081/1/6 1084/1/6
f 1079/1/6 1080/1/6 1084/1/6
f 1084/1/6 1081/1/6 1085/1/6
f 1085/1/6 1081/1/6 1086/1/6
f 1074/1/6 1082/1/6 1088/1/6
f 1088/1/6 1082/1/6 1089/1/6
f 1086/1/6 1087/1/6 1090/1/6
f 1085/1/6 1086/1/6 1090/1/6
f 1090/1/6 1087/1/6 1091/1/6
f 1074/1/6 1088/1/6 1092/1/6
f 1091/1/6 1087/1/6 1093/1/6
f 1093/1/6 1087/1/6 1094/1/6
f 1074/1/6 1092/1/6 1095/1/6
f 1094/1/6 1087/1/6 1096/1/6
f 1074/1/6 1095/1/6 1097/1/6
f 1096/1/6 1087/1/6 1098/1/6
f 1074/1/6 1097/1/6 1099/1/6
f 1098/1/6 1087/1/6 1101/1/6
f 1074/1/6 1099/1/6 1102/1/6
f 1102/1/6 1103/1/6 1104/1/6
f 1100/1/6 1101/1/6 1107/1/6
f 1101/1/6 1087/1/6 1108/1/6
f 1107/1/6 1101/1/6 1108/1/6
f 1108/1/6 1087/1/6 1109/1/6
f 1104/1/6 1105/1/6 1110/1/6
f 1074/1/6 1102/1/6 1110/1/6
f 1102/1/6 1104/1/6 1110/1/6
f 1110/1/6 1105/1/6 1111/1/6
f 1111/1/6 1105/1/6 1112/1/6
f 1106/1/6 1107/1/6 1115/1/6
f 1107/1/6 1108/1/6 1115/1/6
f 1115/1/6 1108/1/6 1116/1/6
f 1116/1/6 1108/1/6 1117/1/6
f 1113/1/6 1114/1/6 1118/1/6
f 1112/1/6 1113/1/6 1118/1/6
f 1115/1/6 1116/1/6 1118/1/6
f 1114/1/6 1115/1/6 1118/1/6
f 1111/1/6 1112/1/6 1118/1/6
f 1118/1/6 1116/1/6 1119/1/6
f 1120/1/6 1121/1/6 1124/1/6
f 1124/1/6 1121/1/6 1125/1/6
f 1122/1/6 1123/1/6 1126/1/6
f 1126/1/6 1123/1/6 1127/1/6
f 1128/1/6 1129/1/6 1132/1/6
f 1132/1/6 1129/1/6 1133/1/6
f 1130/1/6 1131/1/6 1134/1/6
f 1134/1/6 1131/1/6 1135/1/6
f 1136/1/6 1137/1/6 1142/1/6
f 1137/2/6 1138/2/6 1142/2/6
f 1138/1/6 1139/1/6 1143/1/6
f 1142/2/6 1138/2/6 1143/2/6
f 1139/2/6 1140/2/6 1144/2/6
f 1143/1/6 1139/1/6 1144/1/6
f 1140/1/6 1141/1/6 1145/1/6
f 1144/2/6 1140/2/6 1145/2/6
f 1145/1/6 1141/1/6 1146/1/6
f 1143/1/6 1144/1/6 1148/1/6
f 1146/1/6 1147/1/6 1148/1/6
f 1145/1/6 1146/1/6 1148/1/6
f 1144/1/6 1145/1/6 1148/1/6
f 1136/1/6 1142/1/6 1148/1/6
f 1142/1/6 1143/1/6 1148/1/6
f 1148/1/6 1147/1/6 1149/1/6
f 1148/3/6 1149/3/6 1150/3/6
f 1149/1/6 1147/1/6 1151/1/6
f 1150/3/6 1149/3/6 1151/3/6
f 1150/1/6 1151/1/6 1152/1/6
f 1151/1/6 1147/1/6 1152/1/6
f 1152/1/6 1147/1/6 1153/1/6
f 1153/1/6 1147/1/6 1154/1/6
f 1154/1/6 1147/1/6 1155/1/6
f 1155/1/6 1147/1/6 1156/1/6
f 1156/1/6 1147/1/6 1157/1/6
f 1150/1/6 1152/1/6 1158/1/6
f 1152/2/6 1153/2/6 1159/2/6
f 1158/1/6 1152/1/6 1159/1/6
f 1153/1/6 1154/1/6 1160/1/6
f 1159/2/6 1153/2/6 1160/2/6
f 1154/2/6 1155/2/6 1161/2/6
f 1160/1/6 1154/1/6 1161/1/6
f 1155/1/6 1156/1/6 1162/1/6
f 1161/2/6 1155/2/6 1162/2/6
f 1162/1/6 1156/1/6 1163/1/6
