# MagicaVoxel @ Ephtracy

# group
o 

# material
mtllib Head.mtl
usemtl palette

# normals
vn -1 0 0
vn 1 0 0
vn 0 0 1
vn 0 0 -1
vn 0 -1 0
vn 0 1 0

# texcoords
vt 0.0136719 0.5
vt 0.0175781 0.5
vt 0.236328 0.5
vt 0.240234 0.5
vt 0.888672 0.5
vt 0.892578 0.5
vt 0.896484 0.5

# verts
v -1.2 0.8 0.8
v -1.2 0.8 0.2
v -1.2 0.8 -0.2
v -1.2 0.8 -0.8
v -1.2 0.9 0.9
v -1.2 0.9 0.8
v -1.2 0.9 0.4
v -1.2 0.9 0.2
v -1.2 0.9 -0.2
v -1.2 0.9 -0.4
v -1.2 0.9 -0.8
v -1.2 0.9 -0.9
v -1.2 1 1
v -1.2 1 0.9
v -1.2 1 0.8
v -1.2 1 0.7
v -1.2 1 0.5
v -1.2 1 0.4
v -1.2 1 0.2
v -1.2 1 -0.2
v -1.2 1 -0.4
v -1.2 1 -0.5
v -1.2 1 -0.7
v -1.2 1 -0.8
v -1.2 1 -0.9
v -1.2 1 -1
v -1.2 1.1 0.5
v -1.2 1.1 -0.5
v -1.2 1.1 -0.8
v -1.2 1.1 -0.9
v -1.2 1.2 0.9
v -1.2 1.2 0.8
v -1.2 1.2 0.7
v -1.2 1.2 -0.7
v -1.2 1.2 -0.8
v -1.2 1.3 0.9
v -1.2 1.3 0.8
v -1.2 1.3 0.6
v -1.2 1.3 0.4
v -1.2 1.3 0.3
v -1.2 1.3 0.2
v -1.2 1.3 -0.2
v -1.2 1.3 -0.6
v -1.2 1.4 0.7
v -1.2 1.4 0.6
v -1.2 1.4 0.4
v -1.2 1.4 0.3
v -1.2 1.4 0.2
v -1.2 1.4 -0.1
v -1.2 1.4 -0.2
v -1.2 1.4 -0.6
v -1.2 1.4 -0.7
v -1.2 1.4 -0.8
v -1.2 1.4 -0.9
v -1.2 1.6 1
v -1.2 1.6 0.9
v -1.2 1.6 0.8
v -1.2 1.6 0.7
v -1.2 1.6 0.6
v -1.2 1.6 -0.1
v -1.2 1.6 -0.2
v -1.2 1.6 -0.6
v -1.2 1.6 -0.7
v -1.2 1.6 -0.8
v -1.2 1.6 -0.9
v -1.2 1.6 -1
v -1.2 1.7 0.9
v -1.2 1.7 0.8
v -1.2 1.7 0.7
v -1.2 1.7 0.6
v -1.2 1.7 0.2
v -1.2 1.7 -0.2
v -1.2 1.7 -0.6
v -1.2 1.7 -0.7
v -1.2 1.7 -0.8
v -1.2 1.7 -0.9
v -1.2 1.8 0.8
v -1.2 1.8 0.7
v -1.2 1.8 -0.7
v -1.2 1.8 -0.8
v -1.1 0.7 0.8
v -1.1 0.7 -0.8
v -1.1 0.8 0.9
v -1.1 0.8 0.8
v -1.1 0.8 0.2
v -1.1 0.8 -0.2
v -1.1 0.8 -0.8
v -1.1 0.8 -0.9
v -1.1 0.9 1
v -1.1 0.9 0.9
v -1.1 0.9 0.8
v -1.1 0.9 0.2
v -1.1 0.9 -0.2
v -1.1 0.9 -0.8
v -1.1 0.9 -0.9
v -1.1 0.9 -1
v -1.1 1 1
v -1.1 1 0.9
v -1.1 1 0.2
v -1.1 1 -0.2
v -1.1 1 -0.9
v -1.1 1 -1
v -1.1 1.6 1
v -1.1 1.6 0.9
v -1.1 1.6 -0.9
v -1.1 1.6 -1
v -1.1 1.7 1
v -1.1 1.7 0.9
v -1.1 1.7 0.8
v -1.1 1.7 -0.8
v -1.1 1.7 -0.9
v -1.1 1.7 -1
v -1.1 1.8 0.9
v -1.1 1.8 0.8
v -1.1 1.8 0.7
v -1.1 1.8 0.5
v -1.1 1.8 0.2
v -1.1 1.8 0.1
v -1.1 1.8 -0.2
v -1.1 1.8 -0.4
v -1.1 1.8 -0.7
v -1.1 1.8 -0.8
v -1.1 1.8 -0.9
v -1.1 1.9 0.8
v -1.1 1.9 0.7
v -1.1 1.9 0.5
v -1.1 1.9 0.2
v -1.1 1.9 0.1
v -1.1 1.9 -0.2
v -1.1 1.9 -0.4
v -1.1 1.9 -0.7
v -1.1 1.9 -0.8
v -1 0.7 0.9
v -1 0.7 0.8
v -1 0.7 -0.8
v -1 0.7 -0.9
v -1 0.8 1
v -1 0.8 0.9
v -1 0.8 0.8
v -1 0.8 -0.8
v -1 0.8 -0.9
v -1 0.8 -1
v -1 0.9 1
v -1 0.9 0.9
v -1 0.9 -0.9
v -1 0.9 -1
v -1 1.7 1
v -1 1.7 0.9
v -1 1.7 -0.9
v -1 1.7 -1
v -1 1.8 1
v -1 1.8 0.9
v -1 1.8 0.8
v -1 1.8 -0.8
v -1 1.8 -0.9
v -1 1.8 -1
v -1 1.9 0.9
v -1 1.9 0.8
v -1 1.9 0.7
v -1 1.9 0.6
v -1 1.9 0.5
v -1 1.9 0.3
v -1 1.9 0.2
v -1 1.9 0.1
v -1 1.9 -0.2
v -1 1.9 -0.3
v -1 1.9 -0.4
v -1 1.9 -0.7
v -1 1.9 -0.8
v -1 1.9 -0.9
v -1 2 0.7
v -1 2 0.6
v -1 2 0.3
v -1 2 0.2
v -1 2 -0.2
v -1 2 -0.3
v -1 2 -0.7
v -0.9 1 1.1
v -0.9 1 1
v -0.9 1 -1
v -0.9 1 -1.1
v -0.9 1.6 1.1
v -0.9 1.6 1
v -0.9 1.6 -1
v -0.9 1.6 -1.1
v -0.9 1.9 0.8
v -0.9 1.9 0.7
v -0.9 1.9 -0.7
v -0.9 1.9 -0.8
v -0.9 2 0.8
v -0.9 2 0.7
v -0.9 2 0.6
v -0.9 2 0.5
v -0.9 2 0.4
v -0.9 2 0.3
v -0.9 2 0.2
v -0.9 2 0.1
v -0.9 2 -0.1
v -0.9 2 -0.2
v -0.9 2 -0.3
v -0.9 2 -0.4
v -0.9 2 -0.5
v -0.9 2 -0.6
v -0.9 2 -0.7
v -0.9 2 -0.8
v -0.9 2.1 0.6
v -0.9 2.1 0.5
v -0.9 2.1 0.4
v -0.9 2.1 0.2
v -0.9 2.1 0.1
v -0.9 2.1 -0.1
v -0.9 2.1 -0.4
v -0.9 2.1 -0.5
v -0.9 2.1 -0.6
v -0.8 0.9 1.1
v -0.8 0.9 1
v -0.8 0.9 -1
v -0.8 0.9 -1.1
v -0.8 1 1.1
v -0.8 1 1
v -0.8 1 -1
v -0.8 1 -1.1
v -0.8 1.6 1.1
v -0.8 1.6 1
v -0.8 1.6 -1
v -0.8 1.6 -1.1
v -0.8 1.7 1.1
v -0.8 1.7 1
v -0.8 1.7 -1
v -0.8 1.7 -1.1
v -0.8 2 0.7
v -0.8 2 0.6
v -0.8 2 0.5
v -0.8 2 0.4
v -0.8 2 0.1
v -0.8 2 -0.1
v -0.8 2 -0.4
v -0.8 2 -0.5
v -0.8 2 -0.6
v -0.8 2 -0.7
v -0.8 2.1 0.7
v -0.8 2.1 0.6
v -0.8 2.1 0.5
v -0.8 2.1 0.4
v -0.8 2.1 0.1
v -0.8 2.1 -0.1
v -0.8 2.1 -0.4
v -0.8 2.1 -0.5
v -0.8 2.1 -0.6
v -0.8 2.1 -0.7
v -0.5 2 0.7
v -0.5 2 0.6
v -0.5 2 -0.6
v -0.5 2 -0.7
v -0.5 2.1 0.7
v -0.5 2.1 0.6
v -0.5 2.1 -0.6
v -0.5 2.1 -0.7
v -0.2 2 0.7
v -0.2 2 0.6
v -0.2 2 -0.6
v -0.2 2 -0.7
v -0.2 2.1 0.7
v -0.2 2.1 0.6
v -0.2 2.1 -0.6
v -0.2 2.1 -0.7
v 0.3 2 0.7
v 0.3 2 0.6
v 0.3 2 -0.6
v 0.3 2 -0.7
v 0.3 2.1 0.7
v 0.3 2.1 0.6
v 0.3 2.1 -0.6
v 0.3 2.1 -0.7
v 0.6 2 0.7
v 0.6 2 0.6
v 0.6 2 -0.6
v 0.6 2 -0.7
v 0.6 2.1 0.7
v 0.6 2.1 0.6
v 0.6 2.1 -0.6
v 0.6 2.1 -0.7
v -0.6 2 0.7
v -0.6 2 0.6
v -0.6 2 -0.6
v -0.6 2 -0.7
v -0.6 2.1 0.7
v -0.6 2.1 0.6
v -0.6 2.1 -0.6
v -0.6 2.1 -0.7
v -0.3 2 0.7
v -0.3 2 0.6
v -0.3 2 -0.6
v -0.3 2 -0.7
v -0.3 2.1 0.7
v -0.3 2.1 0.6
v -0.3 2.1 -0.6
v -0.3 2.1 -0.7
v 0.2 2 0.7
v 0.2 2 0.6
v 0.2 2 -0.6
v 0.2 2 -0.7
v 0.2 2.1 0.7
v 0.2 2.1 0.6
v 0.2 2.1 -0.6
v 0.2 2.1 -0.7
v 0.5 2 0.7
v 0.5 2 0.6
v 0.5 2 -0.6
v 0.5 2 -0.7
v 0.5 2.1 0.7
v 0.5 2.1 0.6
v 0.5 2.1 -0.6
v 0.5 2.1 -0.7
v 0.6 0.9 1.1
v 0.6 0.9 1
v 0.6 0.9 -1
v 0.6 0.9 -1.1
v 0.6 1 1.1
v 0.6 1 1
v 0.6 1 -1
v 0.6 1 -1.1
v 0.6 1.6 1.1
v 0.6 1.6 1
v 0.6 1.6 -1
v 0.6 1.6 -1.1
v 0.6 1.7 1.1
v 0.6 1.7 1
v 0.6 1.7 -1
v 0.6 1.7 -1.1
v 0.7 1 1.1
v 0.7 1 1
v 0.7 1 -1
v 0.7 1 -1.1
v 0.7 1.2 1
v 0.7 1.2 -1
v 0.7 1.4 1
v 0.7 1.4 -1
v 0.7 1.6 1.1
v 0.7 1.6 1
v 0.7 1.6 -1
v 0.7 1.6 -1.1
v 0.7 2 0.7
v 0.7 2 0.2
v 0.7 2 0.1
v 0.7 2 0
v 0.7 2 -0.1
v 0.7 2 -0.5
v 0.7 2 -0.6
v 0.7 2 -0.7
v 0.7 2.1 0.7
v 0.7 2.1 -0.7
v 0.8 0.7 0.9
v 0.8 0.7 0.8
v 0.8 0.7 -0.8
v 0.8 0.7 -0.9
v 0.8 0.8 1
v 0.8 0.8 0.9
v 0.8 0.8 0.8
v 0.8 0.8 -0.8
v 0.8 0.8 -0.9
v 0.8 0.8 -1
v 0.8 0.9 1
v 0.8 0.9 0.9
v 0.8 0.9 -0.9
v 0.8 0.9 -1
v 0.8 1.7 1
v 0.8 1.7 0.9
v 0.8 1.7 -0.9
v 0.8 1.7 -1
v 0.8 1.8 1
v 0.8 1.8 0.9
v 0.8 1.8 0.8
v 0.8 1.8 -0.8
v 0.8 1.8 -0.9
v 0.8 1.8 -1
v 0.8 1.9 0.9
v 0.8 1.9 0.8
v 0.8 1.9 0.6
v 0.8 1.9 0.5
v 0.8 1.9 0.2
v 0.8 1.9 0.1
v 0.8 1.9 0
v 0.8 1.9 -0.1
v 0.8 1.9 -0.2
v 0.8 1.9 -0.3
v 0.8 1.9 -0.4
v 0.8 1.9 -0.5
v 0.8 1.9 -0.6
v 0.8 1.9 -0.8
v 0.8 1.9 -0.9
v 0.8 2 0.8
v 0.8 2 0.2
v 0.8 2 0.1
v 0.8 2 0
v 0.8 2 -0.1
v 0.8 2 -0.5
v 0.8 2 -0.6
v 0.8 2 -0.8
v 0.9 0.7 0.8
v 0.9 0.7 -0.8
v 0.9 0.8 0.9
v 0.9 0.8 0.8
v 0.9 0.8 0.7
v 0.9 0.8 -0.7
v 0.9 0.8 -0.8
v 0.9 0.8 -0.9
v 0.9 0.9 1
v 0.9 0.9 0.9
v 0.9 0.9 0.8
v 0.9 0.9 -0.8
v 0.9 0.9 -0.9
v 0.9 0.9 -1
v 0.9 1 1
v 0.9 1 0.9
v 0.9 1 -0.9
v 0.9 1 -1
v 0.9 1.6 1
v 0.9 1.6 0.9
v 0.9 1.6 -0.9
v 0.9 1.6 -1
v 0.9 1.7 1
v 0.9 1.7 0.9
v 0.9 1.7 0.8
v 0.9 1.7 -0.8
v 0.9 1.7 -0.9
v 0.9 1.7 -1
v 0.9 1.8 0.9
v 0.9 1.8 0.8
v 0.9 1.8 0.6
v 0.9 1.8 0.5
v 0.9 1.8 0.4
v 0.9 1.8 0.3
v 0.9 1.8 0.2
v 0.9 1.8 0.1
v 0.9 1.8 0
v 0.9 1.8 -0.1
v 0.9 1.8 -0.2
v 0.9 1.8 -0.3
v 0.9 1.8 -0.4
v 0.9 1.8 -0.6
v 0.9 1.8 -0.7
v 0.9 1.8 -0.8
v 0.9 1.8 -0.9
v 0.9 1.9 0.8
v 0.9 1.9 0.6
v 0.9 1.9 0.5
v 0.9 1.9 0.1
v 0.9 1.9 0
v 0.9 1.9 -0.1
v 0.9 1.9 -0.2
v 0.9 1.9 -0.3
v 0.9 1.9 -0.4
v 0.9 1.9 -0.8
v 1 0.8 0.8
v 1 0.8 0.7
v 1 0.8 -0.7
v 1 0.8 -0.8
v 1 0.9 0.9
v 1 0.9 0.8
v 1 0.9 0.7
v 1 0.9 0.6
v 1 0.9 -0.6
v 1 0.9 -0.7
v 1 0.9 -0.8
v 1 0.9 -0.9
v 1 1 1
v 1 1 0.9
v 1 1 0.8
v 1 1 0.7
v 1 1 0.6
v 1 1 -0.6
v 1 1 -0.7
v 1 1 -0.8
v 1 1 -0.9
v 1 1 -1
v 1 1.2 0.7
v 1 1.3 0.8
v 1 1.3 0.7
v 1 1.3 -0.7
v 1 1.3 -0.8
v 1 1.4 0.8
v 1 1.4 0.7
v 1 1.5 -0.7
v 1 1.5 -0.8
v 1 1.6 1
v 1 1.6 0.9
v 1 1.6 0.8
v 1 1.6 0.7
v 1 1.6 0.6
v 1 1.6 -0.6
v 1 1.6 -0.7
v 1 1.6 -0.8
v 1 1.6 -0.9
v 1 1.6 -1
v 1 1.7 0.9
v 1 1.7 0.8
v 1 1.7 0.7
v 1 1.7 0.6
v 1 1.7 0.4
v 1 1.7 0.3
v 1 1.7 0.2
v 1 1.7 -0.1
v 1 1.7 -0.2
v 1 1.7 -0.3
v 1 1.7 -0.6
v 1 1.7 -0.7
v 1 1.7 -0.8
v 1 1.7 -0.9
v 1 1.8 0.8
v 1 1.8 0.4
v 1 1.8 0.3
v 1 1.8 0.2
v 1 1.8 -0.1
v 1 1.8 -0.2
v 1 1.8 -0.3
v 1 1.8 -0.6
v 1 1.8 -0.7
v 1 1.8 -0.8
v 1.1 0.9 0.6
v 1.1 0.9 -0.6
v 1.1 1 0.7
v 1.1 1 0.6
v 1.1 1 0.2
v 1.1 1 -0.1
v 1.1 1 -0.6
v 1.1 1 -0.7
v 1.1 1.1 0.6
v 1.1 1.1 0.5
v 1.1 1.1 0.2
v 1.1 1.1 0.1
v 1.1 1.1 -0.2
v 1.1 1.1 -0.4
v 1.1 1.2 0.7
v 1.1 1.2 0.6
v 1.1 1.2 0.5
v 1.1 1.2 0.3
v 1.1 1.2 0.1
v 1.1 1.2 -0.1
v 1.1 1.2 -0.2
v 1.1 1.3 0.3
v 1.1 1.3 0.1
v 1.1 1.3 -0.1
v 1.1 1.3 -0.4
v 1.1 1.4 0.7
v 1.1 1.4 0.6
v 1.1 1.4 0.5
v 1.1 1.4 0.4
v 1.1 1.4 -0.2
v 1.1 1.4 -0.3
v 1.1 1.4 -0.4
v 1.1 1.4 -0.5
v 1.1 1.5 0.5
v 1.1 1.5 0.4
v 1.1 1.5 0.1
v 1.1 1.5 0
v 1.1 1.5 -0.2
v 1.1 1.5 -0.3
v 1.1 1.5 -0.4
v 1.1 1.5 -0.5
v 1.1 1.6 0.7
v 1.1 1.6 0.6
v 1.1 1.6 0.1
v 1.1 1.6 0
v 1.1 1.6 -0.6
v 1.1 1.6 -0.7
v 1.1 1.7 0.6
v 1.1 1.7 -0.6
v -0.9 1 1.1
v -0.9 1.6 1.1
v -0.8 0.9 1.1
v -0.8 1 1.1
v -0.8 1.6 1.1
v -0.8 1.7 1.1
v -0.7 1 1.1
v -0.7 1.1 1.1
v -0.7 1.4 1.1
v -0.7 1.6 1.1
v -0.6 1 1.1
v -0.6 1.1 1.1
v -0.6 1.2 1.1
v -0.6 1.3 1.1
v -0.6 1.4 1.1
v -0.6 1.5 1.1
v -0.5 1 1.1
v -0.5 1.1 1.1
v -0.5 1.2 1.1
v -0.5 1.3 1.1
v -0.5 1.4 1.1
v -0.5 1.5 1.1
v -0.5 1.6 1.1
v -0.4 1.1 1.1
v -0.4 1.2 1.1
v -0.3 1 1.1
v -0.3 1.2 1.1
v -0.3 1.3 1.1
v -0.3 1.4 1.1
v -0.2 1.1 1.1
v -0.2 1.3 1.1
v -0.2 1.4 1.1
v -0.0999999 1.2 1.1
v -0.0999999 1.3 1.1
v -0.0999999 1.4 1.1
v -0.0999999 1.5 1.1
v 1.19209e-07 1.1 1.1
v 1.19209e-07 1.2 1.1
v 1.19209e-07 1.3 1.1
v 1.19209e-07 1.5 1.1
v 0.1 1 1.1
v 0.1 1.2 1.1
v 0.1 1.4 1.1
v 0.1 1.5 1.1
v 0.2 1.2 1.1
v 0.2 1.4 1.1
v 0.2 1.5 1.1
v 0.3 1.2 1.1
v 0.3 1.3 1.1
v 0.3 1.4 1.1
v 0.4 1 1.1
v 0.4 1.1 1.1
v 0.4 1.2 1.1
v 0.4 1.3 1.1
v 0.5 1.1 1.1
v 0.5 1.2 1.1
v 0.6 0.9 1.1
v 0.6 1 1.1
v 0.6 1.6 1.1
v 0.6 1.7 1.1
v 0.7 1 1.1
v 0.7 1.6 1.1
v -1.2 1 1
v -1.2 1.6 1
v -1.1 0.9 1
v -1.1 1 1
v -1.1 1.5 1
v -1.1 1.6 1
v -1.1 1.7 1
v -1 0.8 1
v -1 0.9 1
v -1 1 1
v -1 1.5 1
v -1 1.7 1
v -1 1.8 1
v -0.9 0.8 1
v -0.9 0.9 1
v -0.9 1 1
v -0.9 1.6 1
v -0.9 1.7 1
v -0.8 0.9 1
v -0.8 1 1
v -0.8 1.6 1
v -0.8 1.7 1
v 0.6 0.9 1
v 0.6 1 1
v 0.6 1.6 1
v 0.6 1.7 1
v 0.7 0.8 1
v 0.7 0.9 1
v 0.7 1 1
v 0.7 1.2 1
v 0.7 1.4 1
v 0.7 1.6 1
v 0.7 1.7 1
v 0.8 0.8 1
v 0.8 0.9 1
v 0.8 1 1
v 0.8 1.3 1
v 0.8 1.4 1
v 0.8 1.6 1
v 0.8 1.7 1
v 0.8 1.8 1
v 0.9 0.9 1
v 0.9 1 1
v 0.9 1.2 1
v 0.9 1.3 1
v 0.9 1.6 1
v 0.9 1.7 1
v 1 1 1
v 1 1.6 1
v -1.2 0.9 0.9
v -1.2 1 0.9
v -1.2 1.6 0.9
v -1.2 1.7 0.9
v -1.1 0.8 0.9
v -1.1 0.9 0.9
v -1.1 1 0.9
v -1.1 1.6 0.9
v -1.1 1.7 0.9
v -1.1 1.8 0.9
v -1 0.7 0.9
v -1 0.8 0.9
v -1 0.9 0.9
v -1 1.7 0.9
v -1 1.8 0.9
v -1 1.9 0.9
v -0.9 0.7 0.9
v -0.9 0.8 0.9
v 0.2 0.7 0.9
v 0.2 0.8 0.9
v 0.3 0.7 0.9
v 0.3 0.8 0.9
v 0.7 0.7 0.9
v 0.7 0.8 0.9
v 0.8 0.7 0.9
v 0.8 0.8 0.9
v 0.8 0.9 0.9
v 0.8 1.7 0.9
v 0.8 1.8 0.9
v 0.8 1.9 0.9
v 0.9 0.8 0.9
v 0.9 0.9 0.9
v 0.9 1 0.9
v 0.9 1.6 0.9
v 0.9 1.7 0.9
v 0.9 1.8 0.9
v 1 0.9 0.9
v 1 1 0.9
v 1 1.6 0.9
v 1 1.7 0.9
v -1.2 0.8 0.8
v -1.2 0.9 0.8
v -1.2 1.7 0.8
v -1.2 1.8 0.8
v -1.1 0.7 0.8
v -1.1 0.8 0.8
v -1.1 0.9 0.8
v -1.1 1.7 0.8
v -1.1 1.8 0.8
v -1.1 1.9 0.8
v -1 0.7 0.8
v -1 0.8 0.8
v -1 1.8 0.8
v -1 1.9 0.8
v -0.9 1.9 0.8
v -0.9 2 0.8
v 0.8 0.7 0.8
v 0.8 0.8 0.8
v 0.8 1.8 0.8
v 0.8 1.9 0.8
v 0.8 2 0.8
v 0.9 0.7 0.8
v 0.9 0.8 0.8
v 0.9 0.9 0.8
v 0.9 1.7 0.8
v 0.9 1.8 0.8
v 0.9 1.9 0.8
v 1 0.8 0.8
v 1 0.9 0.8
v 1 1.7 0.8
v 1 1.8 0.8
v -1 1.9 0.7
v -1 2 0.7
v -0.9 1.9 0.7
v -0.9 2 0.7
v -0.8 2 0.7
v -0.8 2.1 0.7
v -0.6 2 0.7
v -0.6 2.1 0.7
v -0.5 2 0.7
v -0.5 2.1 0.7
v -0.3 2 0.7
v -0.3 2.1 0.7
v -0.2 2 0.7
v -0.2 2.1 0.7
v 0.2 2 0.7
v 0.2 2.1 0.7
v 0.3 2 0.7
v 0.3 2.1 0.7
v 0.5 2 0.7
v 0.5 2.1 0.7
v 0.6 2 0.7
v 0.6 2.1 0.7
v 0.7 2 0.7
v 0.7 2.1 0.7
v 1 1 0.7
v 1 1.2 0.7
v 1 1.3 0.7
v 1 1.4 0.7
v 1 1.6 0.7
v 1.1 1 0.7
v 1.1 1.2 0.7
v 1.1 1.4 0.7
v 1.1 1.6 0.7
v -0.9 2 0.6
v -0.9 2.1 0.6
v -0.8 2 0.6
v -0.8 2.1 0.6
v -0.6 2 0.6
v -0.6 2.1 0.6
v -0.5 2 0.6
v -0.5 2.1 0.6
v -0.3 2 0.6
v -0.3 2.1 0.6
v -0.2 2 0.6
v -0.2 2.1 0.6
v 0.2 2 0.6
v 0.2 2.1 0.6
v 0.3 2 0.6
v 0.3 2.1 0.6
v 0.5 2 0.6
v 0.5 2.1 0.6
v 0.6 2 0.6
v 0.6 2.1 0.6
v 1 0.9 0.6
v 1 1 0.6
v 1 1.6 0.6
v 1 1.7 0.6
v 1.1 0.9 0.6
v 1.1 1 0.6
v 1.1 1.6 0.6
v 1.1 1.7 0.6
v -0.9 2 0.4
v -0.9 2.1 0.4
v -0.8 2 0.4
v -0.8 2.1 0.4
v -0.9 2 -0.1
v -0.9 2.1 -0.1
v -0.8 2 -0.1
v -0.8 2.1 -0.1
v -1.2 0.8 -0.2
v -1.2 0.9 -0.2
v -1.2 1 -0.2
v -1.1 0.8 -0.2
v -1.1 0.9 -0.2
v -1.1 1 -0.2
v -0.9 2 -0.5
v -0.9 2.1 -0.5
v -0.8 2 -0.5
v -0.8 2.1 -0.5
v -0.9 2 0.5
v -0.9 2.1 0.5
v -0.8 2 0.5
v -0.8 2.1 0.5
v -1.2 0.8 0.2
v -1.2 0.9 0.2
v -1.2 1 0.2
v -1.1 0.8 0.2
v -1.1 0.9 0.2
v -1.1 1 0.2
v -0.9 2 0.1
v -0.9 2.1 0.1
v -0.8 2 0.1
v -0.8 2.1 0.1
v -0.9 2 -0.4
v -0.9 2.1 -0.4
v -0.8 2 -0.4
v -0.8 2.1 -0.4
v -0.9 2 -0.6
v -0.9 2.1 -0.6
v -0.8 2 -0.6
v -0.8 2.1 -0.6
v -0.6 2 -0.6
v -0.6 2.1 -0.6
v -0.5 2 -0.6
v -0.5 2.1 -0.6
v -0.3 2 -0.6
v -0.3 2.1 -0.6
v -0.2 2 -0.6
v -0.2 2.1 -0.6
v 0.2 2 -0.6
v 0.2 2.1 -0.6
v 0.3 2 -0.6
v 0.3 2.1 -0.6
v 0.5 2 -0.6
v 0.5 2.1 -0.6
v 0.6 2 -0.6
v 0.6 2.1 -0.6
v 1 0.9 -0.6
v 1 1 -0.6
v 1 1.6 -0.6
v 1 1.7 -0.6
v 1.1 0.9 -0.6
v 1.1 1 -0.6
v 1.1 1.6 -0.6
v 1.1 1.7 -0.6
v -1 1.9 -0.7
v -1 2 -0.7
v -0.9 1.9 -0.7
v -0.9 2 -0.7
v -0.8 2 -0.7
v -0.8 2.1 -0.7
v -0.6 2 -0.7
v -0.6 2.1 -0.7
v -0.5 2 -0.7
v -0.5 2.1 -0.7
v -0.3 2 -0.7
v -0.3 2.1 -0.7
v -0.2 2 -0.7
v -0.2 2.1 -0.7
v 0.2 2 -0.7
v 0.2 2.1 -0.7
v 0.3 2 -0.7
v 0.3 2.1 -0.7
v 0.5 2 -0.7
v 0.5 2.1 -0.7
v 0.6 2 -0.7
v 0.6 2.1 -0.7
v 0.7 2 -0.7
v 0.7 2.1 -0.7
v 1 1 -0.7
v 1 1.3 -0.7
v 1 1.5 -0.7
v 1 1.6 -0.7
v 1.1 1 -0.7
v 1.1 1.6 -0.7
v -1.2 0.8 -0.8
v -1.2 0.9 -0.8
v -1.2 1.7 -0.8
v -1.2 1.8 -0.8
v -1.1 0.7 -0.8
v -1.1 0.8 -0.8
v -1.1 0.9 -0.8
v -1.1 1.7 -0.8
v -1.1 1.8 -0.8
v -1.1 1.9 -0.8
v -1 0.7 -0.8
v -1 0.8 -0.8
v -1 1.8 -0.8
v -1 1.9 -0.8
v -0.9 1.9 -0.8
v -0.9 2 -0.8
v -0.6 1.9 -0.8
v -0.6 2 -0.8
v -0.5 1.9 -0.8
v -0.5 2 -0.8
v -0.4 1.9 -0.8
v 0.8 0.7 -0.8
v 0.8 0.8 -0.8
v 0.8 1.8 -0.8
v 0.8 1.9 -0.8
v 0.8 2 -0.8
v 0.9 0.7 -0.8
v 0.9 0.8 -0.8
v 0.9 0.9 -0.8
v 0.9 1.7 -0.8
v 0.9 1.8 -0.8
v 0.9 1.9 -0.8
v 1 0.8 -0.8
v 1 0.9 -0.8
v 1 1.7 -0.8
v 1 1.8 -0.8
v -1.2 0.9 -0.9
v -1.2 1 -0.9
v -1.2 1.6 -0.9
v -1.2 1.7 -0.9
v -1.1 0.8 -0.9
v -1.1 0.9 -0.9
v -1.1 1 -0.9
v -1.1 1.6 -0.9
v -1.1 1.7 -0.9
v -1.1 1.8 -0.9
v -1 0.7 -0.9
v -1 0.8 -0.9
v -1 0.9 -0.9
v -1 1.7 -0.9
v -1 1.8 -0.9
v -1 1.9 -0.9
v -0.9 0.7 -0.9
v -0.9 0.8 -0.9
v -0.6 1.8 -0.9
v -0.6 1.9 -0.9
v -0.4 1.8 -0.9
v -0.4 1.9 -0.9
v -0.3 1.8 -0.9
v -0.2 1.8 -0.9
v -0.0999999 1.8 -0.9
v 1.19209e-07 1.8 -0.9
v 0.2 0.7 -0.9
v 0.2 0.8 -0.9
v 0.3 0.7 -0.9
v 0.3 0.8 -0.9
v 0.7 0.7 -0.9
v 0.7 0.8 -0.9
v 0.8 0.7 -0.9
v 0.8 0.8 -0.9
v 0.8 0.9 -0.9
v 0.8 1.7 -0.9
v 0.8 1.8 -0.9
v 0.8 1.9 -0.9
v 0.9 0.8 -0.9
v 0.9 0.9 -0.9
v 0.9 1 -0.9
v 0.9 1.6 -0.9
v 0.9 1.7 -0.9
v 0.9 1.8 -0.9
v 1 0.9 -0.9
v 1 1 -0.9
v 1 1.6 -0.9
v 1 1.7 -0.9
v -1.2 1 -1
v -1.2 1.6 -1
v -1.1 0.9 -1
v -1.1 1 -1
v -1.1 1.5 -1
v -1.1 1.6 -1
v -1.1 1.7 -1
v -1 0.8 -1
v -1 0.9 -1
v -1 1 -1
v -1 1.5 -1
v -1 1.7 -1
v -1 1.8 -1
v -0.9 0.8 -1
v -0.9 0.9 -1
v -0.9 1 -1
v -0.9 1.6 -1
v -0.9 1.7 -1
v -0.8 0.9 -1
v -0.8 1 -1
v -0.8 1.6 -1
v -0.8 1.7 -1
v -0.3 1.7 -1
v -0.3 1.8 -1
v -0.2 1.7 -1
v -0.2 1.8 -1
v -0.0999999 1.7 -1
v -0.0999999 1.8 -1
v 1.19209e-07 1.7 -1
v 1.19209e-07 1.8 -1
v 0.6 0.9 -1
v 0.6 1 -1
v 0.6 1.6 -1
v 0.6 1.7 -1
v 0.7 0.8 -1
v 0.7 0.9 -1
v 0.7 1 -1
v 0.7 1.2 -1
v 0.7 1.4 -1
v 0.7 1.6 -1
v 0.7 1.7 -1
v 0.8 0.8 -1
v 0.8 0.9 -1
v 0.8 1 -1
v 0.8 1.3 -1
v 0.8 1.4 -1
v 0.8 1.6 -1
v 0.8 1.7 -1
v 0.8 1.8 -1
v 0.9 0.9 -1
v 0.9 1 -1
v 0.9 1.2 -1
v 0.9 1.3 -1
v 0.9 1.6 -1
v 0.9 1.7 -1
v 1 1 -1
v 1 1.6 -1
v -0.9 1 -1.1
v -0.9 1.6 -1.1
v -0.8 0.9 -1.1
v -0.8 1 -1.1
v -0.8 1.6 -1.1
v -0.8 1.7 -1.1
v -0.7 1 -1.1
v -0.7 1.1 -1.1
v -0.6 1 -1.1
v -0.6 1.1 -1.1
v -0.6 1.2 -1.1
v -0.6 1.3 -1.1
v -0.6 1.4 -1.1
v -0.6 1.5 -1.1
v -0.6 1.6 -1.1
v -0.5 1 -1.1
v -0.5 1.1 -1.1
v -0.5 1.2 -1.1
v -0.5 1.3 -1.1
v -0.5 1.4 -1.1
v -0.5 1.5 -1.1
v -0.5 1.6 -1.1
v -0.4 1.1 -1.1
v -0.4 1.2 -1.1
v -0.3 1 -1.1
v -0.3 1.2 -1.1
v -0.3 1.3 -1.1
v -0.3 1.4 -1.1
v -0.2 1.1 -1.1
v -0.2 1.3 -1.1
v -0.2 1.4 -1.1
v -0.2 1.6 -1.1
v -0.2 1.7 -1.1
v -0.0999999 1.2 -1.1
v -0.0999999 1.3 -1.1
v -0.0999999 1.4 -1.1
v -0.0999999 1.6 -1.1
v -0.0999999 1.7 -1.1
v 1.19209e-07 1.1 -1.1
v 1.19209e-07 1.2 -1.1
v 1.19209e-07 1.3 -1.1
v 1.19209e-07 1.4 -1.1
v 0.1 1 -1.1
v 0.1 1.2 -1.1
v 0.1 1.4 -1.1
v 0.1 1.5 -1.1
v 0.2 1.2 -1.1
v 0.2 1.4 -1.1
v 0.2 1.5 -1.1
v 0.3 1.1 -1.1
v 0.3 1.2 -1.1
v 0.3 1.4 -1.1
v 0.3 1.5 -1.1
v 0.3 1.6 -1.1
v 0.4 1 -1.1
v 0.4 1.1 -1.1
v 0.4 1.4 -1.1
v 0.4 1.5 -1.1
v 0.4 1.6 -1.1
v 0.5 1.4 -1.1
v 0.5 1.5 -1.1
v 0.6 0.9 -1.1
v 0.6 1 -1.1
v 0.6 1.6 -1.1
v 0.6 1.7 -1.1
v 0.7 1 -1.1
v 0.7 1.6 -1.1
v -1 0.7 0.9
v -0.9 0.7 0.9
v 0.2 0.7 0.9
v 0.3 0.7 0.9
v 0.7 0.7 0.9
v 0.8 0.7 0.9
v -1.1 0.7 0.8
v -1 0.7 0.8
v -0.9 0.7 0.8
v 0.2 0.7 0.8
v 0.3 0.7 0.8
v 0.7 0.7 0.8
v 0.8 0.7 0.8
v 0.9 0.7 0.8
v -1.1 0.7 -0.8
v -1 0.7 -0.8
v -0.9 0.7 -0.8
v 0.2 0.7 -0.8
v 0.3 0.7 -0.8
v 0.7 0.7 -0.8
v 0.8 0.7 -0.8
v 0.9 0.7 -0.8
v -1 0.7 -0.9
v -0.9 0.7 -0.9
v 0.2 0.7 -0.9
v 0.3 0.7 -0.9
v 0.7 0.7 -0.9
v 0.8 0.7 -0.9
v -1 0.8 1
v -0.9 0.8 1
v 0.7 0.8 1
v 0.8 0.8 1
v -1.1 0.8 0.9
v -1 0.8 0.9
v -0.9 0.8 0.9
v 0.2 0.8 0.9
v 0.3 0.8 0.9
v 0.7 0.8 0.9
v 0.8 0.8 0.9
v 0.9 0.8 0.9
v -1.2 0.8 0.8
v -1.1 0.8 0.8
v -1 0.8 0.8
v 0.8 0.8 0.8
v 0.9 0.8 0.8
v 1 0.8 0.8
v 0.9 0.8 0.7
v 1 0.8 0.7
v -1.2 0.8 0.2
v -1.1 0.8 0.2
v -1.2 0.8 -0.2
v -1.1 0.8 -0.2
v 0.9 0.8 -0.7
v 1 0.8 -0.7
v -1.2 0.8 -0.8
v -1.1 0.8 -0.8
v -1 0.8 -0.8
v 0.8 0.8 -0.8
v 0.9 0.8 -0.8
v 1 0.8 -0.8
v -1.1 0.8 -0.9
v -1 0.8 -0.9
v -0.9 0.8 -0.9
v 0.2 0.8 -0.9
v 0.3 0.8 -0.9
v 0.7 0.8 -0.9
v 0.8 0.8 -0.9
v 0.9 0.8 -0.9
v -1 0.8 -1
v -0.9 0.8 -1
v 0.7 0.8 -1
v 0.8 0.8 -1
v -0.8 0.9 1.1
v 0.6 0.9 1.1
v -1.1 0.9 1
v -1 0.9 1
v -0.8 0.9 1
v 0.6 0.9 1
v 0.8 0.9 1
v 0.9 0.9 1
v -1.2 0.9 0.9
v -1.1 0.9 0.9
v -1 0.9 0.9
v 0.8 0.9 0.9
v 0.9 0.9 0.9
v 1 0.9 0.9
v -1.2 0.9 0.8
v -1.1 0.9 0.8
v 0.9 0.9 0.8
v 1 0.9 0.8
v 1 0.9 0.6
v 1.1 0.9 0.6
v 1 0.9 -0.6
v 1.1 0.9 -0.6
v -1.2 0.9 -0.8
v -1.1 0.9 -0.8
v 0.9 0.9 -0.8
v 1 0.9 -0.8
v -1.2 0.9 -0.9
v -1.1 0.9 -0.9
v -1 0.9 -0.9
v 0.8 0.9 -0.9
v 0.9 0.9 -0.9
v 1 0.9 -0.9
v -1.1 0.9 -1
v -1 0.9 -1
v -0.8 0.9 -1
v 0.6 0.9 -1
v 0.8 0.9 -1
v 0.9 0.9 -1
v -0.8 0.9 -1.1
v 0.6 0.9 -1.1
v -0.9 1 1.1
v -0.8 1 1.1
v 0.6 1 1.1
v 0.7 1 1.1
v -1.2 1 1
v -1.1 1 1
v -0.9 1 1
v -0.8 1 1
v 0.6 1 1
v 0.7 1 1
v 0.9 1 1
v 1 1 1
v -1.2 1 0.9
v -1.1 1 0.9
v 0.9 1 0.9
v 1 1 0.9
v 1 1 0.7
v 1.1 1 0.7
v 1 1 0.6
v 1.1 1 0.6
v -1.2 1 0.2
v -1.1 1 0.2
v -1.2 1 -0.2
v -1.1 1 -0.2
v 1 1 -0.6
v 1.1 1 -0.6
v 1 1 -0.7
v 1.1 1 -0.7
v -1.2 1 -0.9
v -1.1 1 -0.9
v 0.9 1 -0.9
v 1 1 -0.9
v -1.2 1 -1
v -1.1 1 -1
v -0.9 1 -1
v -0.8 1 -1
v 0.6 1 -1
v 0.7 1 -1
v 0.9 1 -1
v 1 1 -1
v -0.9 1 -1.1
v -0.8 1 -1.1
v 0.6 1 -1.1
v 0.7 1 -1.1
v -0.9 1.6 1.1
v -0.8 1.6 1.1
v 0.6 1.6 1.1
v 0.7 1.6 1.1
v -1.2 1.6 1
v -1.1 1.6 1
v -0.9 1.6 1
v -0.8 1.6 1
v 0.6 1.6 1
v 0.7 1.6 1
v 0.9 1.6 1
v 1 1.6 1
v -1.2 1.6 0.9
v -1.1 1.6 0.9
v 0.9 1.6 0.9
v 1 1.6 0.9
v 1 1.6 0.7
v 1.1 1.6 0.7
v 1 1.6 0.6
v 1.1 1.6 0.6
v 1 1.6 -0.6
v 1.1 1.6 -0.6
v 1 1.6 -0.7
v 1.1 1.6 -0.7
v -1.2 1.6 -0.9
v -1.1 1.6 -0.9
v 0.9 1.6 -0.9
v 1 1.6 -0.9
v -1.2 1.6 -1
v -1.1 1.6 -1
v -0.9 1.6 -1
v -0.8 1.6 -1
v 0.6 1.6 -1
v 0.7 1.6 -1
v 0.9 1.6 -1
v 1 1.6 -1
v -0.9 1.6 -1.1
v -0.8 1.6 -1.1
v 0.6 1.6 -1.1
v 0.7 1.6 -1.1
v -0.8 1.7 1.1
v 0.6 1.7 1.1
v -1.1 1.7 1
v -1 1.7 1
v -0.8 1.7 1
v 0.6 1.7 1
v 0.8 1.7 1
v 0.9 1.7 1
v -1.2 1.7 0.9
v -1.1 1.7 0.9
v -1 1.7 0.9
v 0.8 1.7 0.9
v 0.9 1.7 0.9
v 1 1.7 0.9
v -1.2 1.7 0.8
v -1.1 1.7 0.8
v 0.9 1.7 0.8
v 1 1.7 0.8
v 1 1.7 0.6
v 1.1 1.7 0.6
v 1 1.7 0.4
v 1 1.7 0.3
v 1 1.7 0.2
v 1 1.7 -0.1
v 1 1.7 -0.2
v 1 1.7 -0.3
v 1 1.7 -0.6
v 1.1 1.7 -0.6
v -1.2 1.7 -0.8
v -1.1 1.7 -0.8
v 0.9 1.7 -0.8
v 1 1.7 -0.8
v -1.2 1.7 -0.9
v -1.1 1.7 -0.9
v -1 1.7 -0.9
v 0.8 1.7 -0.9
v 0.9 1.7 -0.9
v 1 1.7 -0.9
v -1.1 1.7 -1
v -1 1.7 -1
v -0.8 1.7 -1
v -0.3 1.7 -1
v -0.2 1.7 -1
v -0.0999999 1.7 -1
v 1.19209e-07 1.7 -1
v 0.6 1.7 -1
v 0.8 1.7 -1
v 0.9 1.7 -1
v -0.8 1.7 -1.1
v -0.2 1.7 -1.1
v -0.0999999 1.7 -1.1
v 0.6 1.7 -1.1
v -1 1.8 1
v 0.8 1.8 1
v -1.1 1.8 0.9
v -1 1.8 0.9
v 0.8 1.8 0.9
v 0.9 1.8 0.9
v -1.2 1.8 0.8
v -1.1 1.8 0.8
v -1 1.8 0.8
v 0.8 1.8 0.8
v 0.9 1.8 0.8
v 1 1.8 0.8
v -1.2 1.8 0.7
v -1.1 1.8 0.7
v 0.9 1.8 0.6
v -1.1 1.8 0.5
v 0.9 1.8 0.5
v 0.9 1.8 0.4
v 1 1.8 0.4
v 0.9 1.8 0.3
v 1 1.8 0.3
v -1.1 1.8 0.2
v 0.9 1.8 0.2
v 1 1.8 0.2
v -1.1 1.8 0.1
v 0.9 1.8 0.1
v 0.9 1.8 0
v 0.9 1.8 -0.1
v 1 1.8 -0.1
v -1.1 1.8 -0.2
v 0.9 1.8 -0.2
v 1 1.8 -0.2
v 0.9 1.8 -0.3
v 1 1.8 -0.3
v -1.1 1.8 -0.4
v 0.9 1.8 -0.4
v 0.9 1.8 -0.6
v 1 1.8 -0.6
v -1.2 1.8 -0.7
v -1.1 1.8 -0.7
v 0.9 1.8 -0.7
v 1 1.8 -0.7
v -1.2 1.8 -0.8
v -1.1 1.8 -0.8
v -1 1.8 -0.8
v 0.8 1.8 -0.8
v 0.9 1.8 -0.8
v 1 1.8 -0.8
v -1.1 1.8 -0.9
v -1 1.8 -0.9
v -0.6 1.8 -0.9
v -0.4 1.8 -0.9
v -0.3 1.8 -0.9
v -0.2 1.8 -0.9
v -0.0999999 1.8 -0.9
v 1.19209e-07 1.8 -0.9
v 0.8 1.8 -0.9
v 0.9 1.8 -0.9
v -1 1.8 -1
v -0.3 1.8 -1
v -0.2 1.8 -1
v -0.0999999 1.8 -1
v 1.19209e-07 1.8 -1
v 0.8 1.8 -1
v -1 1.9 0.9
v 0.8 1.9 0.9
v -1.1 1.9 0.8
v -1 1.9 0.8
v -0.9 1.9 0.8
v 0.8 1.9 0.8
v 0.9 1.9 0.8
v -1.1 1.9 0.7
v -1 1.9 0.7
v -0.9 1.9 0.7
v -1 1.9 0.6
v 0.8 1.9 0.6
v 0.9 1.9 0.6
v -1.1 1.9 0.5
v -1 1.9 0.5
v 0.8 1.9 0.5
v 0.9 1.9 0.5
v -1 1.9 0.3
v -1.1 1.9 0.2
v -1 1.9 0.2
v 0.8 1.9 0.2
v -1.1 1.9 0.1
v -1 1.9 0.1
v 0.8 1.9 0.1
v 0.9 1.9 0.1
v 0.8 1.9 0
v 0.9 1.9 0
v 0.8 1.9 -0.1
v 0.9 1.9 -0.1
v -1.1 1.9 -0.2
v -1 1.9 -0.2
v 0.8 1.9 -0.2
v 0.9 1.9 -0.2
v -1 1.9 -0.3
v 0.8 1.9 -0.3
v 0.9 1.9 -0.3
v -1.1 1.9 -0.4
v -1 1.9 -0.4
v 0.8 1.9 -0.4
v 0.9 1.9 -0.4
v 0.8 1.9 -0.5
v 0.8 1.9 -0.6
v -1.1 1.9 -0.7
v -1 1.9 -0.7
v -0.9 1.9 -0.7
v -1.1 1.9 -0.8
v -1 1.9 -0.8
v -0.9 1.9 -0.8
v -0.6 1.9 -0.8
v -0.5 1.9 -0.8
v -0.4 1.9 -0.8
v 0.8 1.9 -0.8
v 0.9 1.9 -0.8
v -1 1.9 -0.9
v -0.6 1.9 -0.9
v -0.4 1.9 -0.9
v 0.8 1.9 -0.9
v -0.9 2 0.8
v 0.8 2 0.8
v -1 2 0.7
v -0.9 2 0.7
v -0.8 2 0.7
v -0.6 2 0.7
v -0.5 2 0.7
v -0.3 2 0.7
v -0.2 2 0.7
v 0.2 2 0.7
v 0.3 2 0.7
v 0.5 2 0.7
v 0.6 2 0.7
v 0.7 2 0.7
v -1 2 0.6
v -0.9 2 0.6
v -0.8 2 0.6
v -0.6 2 0.6
v -0.5 2 0.6
v -0.3 2 0.6
v -0.2 2 0.6
v 0.2 2 0.6
v 0.3 2 0.6
v 0.5 2 0.6
v 0.6 2 0.6
v -0.9 2 0.5
v -0.8 2 0.5
v -0.9 2 0.4
v -0.8 2 0.4
v -1 2 0.3
v -0.9 2 0.3
v -1 2 0.2
v -0.9 2 0.2
v 0.7 2 0.2
v 0.8 2 0.2
v -0.9 2 0.1
v -0.8 2 0.1
v 0.7 2 0.1
v 0.8 2 0.1
v 0.7 2 0
v 0.8 2 0
v -0.9 2 -0.1
v -0.8 2 -0.1
v 0.7 2 -0.1
v 0.8 2 -0.1
v -1 2 -0.2
v -0.9 2 -0.2
v -1 2 -0.3
v -0.9 2 -0.3
v -0.9 2 -0.4
v -0.8 2 -0.4
v -0.9 2 -0.5
v -0.8 2 -0.5
v 0.7 2 -0.5
v 0.8 2 -0.5
v -0.9 2 -0.6
v -0.8 2 -0.6
v -0.6 2 -0.6
v -0.5 2 -0.6
v -0.3 2 -0.6
v -0.2 2 -0.6
v 0.2 2 -0.6
v 0.3 2 -0.6
v 0.5 2 -0.6
v 0.6 2 -0.6
v 0.7 2 -0.6
v 0.8 2 -0.6
v -1 2 -0.7
v -0.9 2 -0.7
v -0.8 2 -0.7
v -0.6 2 -0.7
v -0.5 2 -0.7
v -0.3 2 -0.7
v -0.2 2 -0.7
v 0.2 2 -0.7
v 0.3 2 -0.7
v 0.5 2 -0.7
v 0.6 2 -0.7
v 0.7 2 -0.7
v -0.9 2 -0.8
v -0.6 2 -0.8
v -0.5 2 -0.8
v 0.8 2 -0.8
v -0.8 2.1 0.7
v -0.6 2.1 0.7
v -0.5 2.1 0.7
v -0.3 2.1 0.7
v -0.2 2.1 0.7
v 0.2 2.1 0.7
v 0.3 2.1 0.7
v 0.5 2.1 0.7
v 0.6 2.1 0.7
v 0.7 2.1 0.7
v -0.9 2.1 0.6
v -0.8 2.1 0.6
v -0.6 2.1 0.6
v -0.5 2.1 0.6
v -0.3 2.1 0.6
v -0.2 2.1 0.6
v 0.2 2.1 0.6
v 0.3 2.1 0.6
v 0.5 2.1 0.6
v 0.6 2.1 0.6
v -0.9 2.1 0.5
v -0.8 2.1 0.5
v -0.9 2.1 0.4
v -0.8 2.1 0.4
v -0.5 2.1 0.4
v -0.4 2.1 0.4
v -0.2 2.1 0.4
v -0.0999999 2.1 0.4
v -0.5 2.1 0.3
v -0.4 2.1 0.3
v -0.2 2.1 0.3
v -0.0999999 2.1 0.3
v 0.3 2.1 0.3
v 0.4 2.1 0.3
v -0.9 2.1 0.2
v -0.8 2.1 0.2
v 0.3 2.1 0.2
v 0.4 2.1 0.2
v -0.9 2.1 0.1
v -0.8 2.1 0.1
v -0.6 2.1 0.1
v -0.5 2.1 0.1
v -0.2 2.1 0.1
v 1.19209e-07 2.1 0.1
v -0.6 2.1 0
v -0.5 2.1 0
v -0.0999999 2.1 0
v 1.19209e-07 2.1 0
v 0.1 2.1 0
v 0.2 2.1 0
v -0.9 2.1 -0.1
v -0.8 2.1 -0.1
v -0.2 2.1 -0.1
v -0.0999999 2.1 -0.1
v 0.1 2.1 -0.1
v 0.2 2.1 -0.1
v -0.4 2.1 -0.2
v -0.2 2.1 -0.2
v -0.7 2.1 -0.3
v -0.6 2.1 -0.3
v -0.4 2.1 -0.3
v -0.3 2.1 -0.3
v 0.2 2.1 -0.3
v 0.3 2.1 -0.3
v -0.9 2.1 -0.4
v -0.8 2.1 -0.4
v -0.7 2.1 -0.4
v -0.6 2.1 -0.4
v -0.3 2.1 -0.4
v -0.2 2.1 -0.4
v 0.2 2.1 -0.4
v 0.3 2.1 -0.4
v -0.9 2.1 -0.5
v -0.8 2.1 -0.5
v -0.9 2.1 -0.6
v -0.8 2.1 -0.6
v -0.6 2.1 -0.6
v -0.5 2.1 -0.6
v -0.3 2.1 -0.6
v -0.2 2.1 -0.6
v 0.2 2.1 -0.6
v 0.3 2.1 -0.6
v 0.5 2.1 -0.6
v 0.6 2.1 -0.6
v -0.8 2.1 -0.7
v -0.6 2.1 -0.7
v -0.5 2.1 -0.7
v -0.3 2.1 -0.7
v -0.2 2.1 -0.7
v 0.2 2.1 -0.7
v 0.3 2.1 -0.7
v 0.5 2.1 -0.7
v 0.6 2.1 -0.7
v 0.7 2.1 -0.7

# faces
f 6/6/1 2/6/1 1/6/1
f 7/6/1 2/6/1 6/6/1
f 8/6/1 2/6/1 7/6/1
f 9/6/1 4/6/1 3/6/1
f 10/6/1 4/6/1 9/6/1
f 11/6/1 4/6/1 10/6/1
f 14/6/1 6/6/1 5/6/1
f 15/5/1 7/5/1 6/5/1
f 15/6/1 6/6/1 14/6/1
f 16/5/1 7/5/1 15/5/1
f 17/5/1 7/5/1 16/5/1
f 18/3/1 8/3/1 7/3/1
f 18/5/1 7/5/1 17/5/1
f 19/3/1 8/3/1 18/3/1
f 20/3/1 10/3/1 9/3/1
f 21/5/1 11/5/1 10/5/1
f 21/3/1 10/3/1 20/3/1
f 22/5/1 11/5/1 21/5/1
f 23/5/1 11/5/1 22/5/1
f 24/6/1 12/6/1 11/6/1
f 24/5/1 11/5/1 23/5/1
f 25/6/1 12/6/1 24/6/1
f 27/5/1 17/5/1 16/5/1
f 27/3/1 19/3/1 18/3/1
f 27/3/1 20/3/1 19/3/1
f 27/3/1 18/3/1 17/3/1
f 27/3/1 22/3/1 21/3/1
f 27/3/1 21/3/1 20/3/1
f 28/5/1 23/5/1 22/5/1
f 28/3/1 22/3/1 27/3/1
f 29/7/1 25/7/1 24/7/1
f 29/7/1 24/7/1 23/7/1
f 30/6/1 26/6/1 25/6/1
f 30/7/1 25/7/1 29/7/1
f 31/6/1 14/6/1 13/6/1
f 31/5/1 15/5/1 14/5/1
f 32/7/1 16/7/1 15/7/1
f 32/5/1 15/5/1 31/5/1
f 33/5/1 27/5/1 16/5/1
f 33/7/1 16/7/1 32/7/1
f 33/5/1 28/5/1 27/5/1
f 34/7/1 29/7/1 23/7/1
f 34/5/1 28/5/1 33/5/1
f 34/5/1 23/5/1 28/5/1
f 35/5/1 30/5/1 29/5/1
f 35/7/1 29/7/1 34/7/1
f 36/7/1 32/7/1 31/7/1
f 36/6/1 31/6/1 13/6/1
f 37/5/1 33/5/1 32/5/1
f 37/7/1 32/7/1 36/7/1
f 37/5/1 35/5/1 34/5/1
f 37/5/1 34/5/1 33/5/1
f 38/5/1 35/5/1 37/5/1
f 39/5/1 35/5/1 38/5/1
f 40/5/1 35/5/1 39/5/1
f 41/5/1 35/5/1 40/5/1
f 42/5/1 35/5/1 41/5/1
f 43/5/1 35/5/1 42/5/1
f 44/5/1 37/5/1 36/5/1
f 44/5/1 38/5/1 37/5/1
f 45/1/1 39/1/1 38/1/1
f 45/5/1 38/5/1 44/5/1
f 46/2/1 40/2/1 39/2/1
f 46/1/1 39/1/1 45/1/1
f 47/1/1 41/1/1 40/1/1
f 47/2/1 40/2/1 46/2/1
f 48/5/1 42/5/1 41/5/1
f 48/1/1 41/1/1 47/1/1
f 49/5/1 42/5/1 48/5/1
f 50/1/1 43/1/1 42/1/1
f 50/5/1 42/5/1 49/5/1
f 51/5/1 35/5/1 43/5/1
f 51/1/1 43/1/1 50/1/1
f 52/5/1 35/5/1 51/5/1
f 53/5/1 30/5/1 35/5/1
f 53/5/1 35/5/1 52/5/1
f 54/6/1 26/6/1 30/6/1
f 54/5/1 30/5/1 53/5/1
f 55/6/1 36/6/1 13/6/1
f 56/5/1 44/5/1 36/5/1
f 56/6/1 36/6/1 55/6/1
f 57/5/1 44/5/1 56/5/1
f 58/1/1 45/1/1 44/1/1
f 58/5/1 44/5/1 57/5/1
f 59/2/1 46/2/1 45/2/1
f 59/1/1 45/1/1 58/1/1
f 59/2/1 47/2/1 46/2/1
f 59/2/1 48/2/1 47/2/1
f 60/1/1 50/1/1 49/1/1
f 60/5/1 49/5/1 48/5/1
f 61/2/1 51/2/1 50/2/1
f 61/1/1 50/1/1 60/1/1
f 62/1/1 52/1/1 51/1/1
f 62/2/1 51/2/1 61/2/1
f 63/5/1 53/5/1 52/5/1
f 63/1/1 52/1/1 62/1/1
f 64/7/1 54/7/1 53/7/1
f 64/5/1 53/5/1 63/5/1
f 65/6/1 26/6/1 54/6/1
f 65/7/1 54/7/1 64/7/1
f 66/6/1 26/6/1 65/6/1
f 67/6/1 57/6/1 56/6/1
f 68/5/1 59/5/1 58/5/1
f 68/6/1 57/6/1 67/6/1
f 68/5/1 58/5/1 57/5/1
f 69/5/1 59/5/1 68/5/1
f 70/2/1 48/2/1 59/2/1
f 70/5/1 59/5/1 69/5/1
f 71/5/1 61/5/1 60/5/1
f 71/2/1 48/2/1 70/2/1
f 71/5/1 60/5/1 48/5/1
f 72/2/1 62/2/1 61/2/1
f 72/5/1 61/5/1 71/5/1
f 73/5/1 64/5/1 63/5/1
f 73/2/1 62/2/1 72/2/1
f 73/5/1 63/5/1 62/5/1
f 74/5/1 64/5/1 73/5/1
f 75/6/1 65/6/1 64/6/1
f 75/5/1 64/5/1 74/5/1
f 76/6/1 65/6/1 75/6/1
f 77/6/1 69/6/1 68/6/1
f 78/5/1 72/5/1 71/5/1
f 78/6/1 69/6/1 77/6/1
f 78/5/1 70/5/1 69/5/1
f 78/5/1 73/5/1 72/5/1
f 78/5/1 74/5/1 73/5/1
f 78/5/1 71/5/1 70/5/1
f 79/6/1 75/6/1 74/6/1
f 79/5/1 74/5/1 78/5/1
f 80/6/1 75/6/1 79/6/1
f 84/6/1 82/6/1 81/6/1
f 85/6/1 82/6/1 84/6/1
f 86/6/1 82/6/1 85/6/1
f 87/6/1 82/6/1 86/6/1
f 90/6/1 84/6/1 83/6/1
f 91/6/1 84/6/1 90/6/1
f 92/4/1 86/4/1 85/4/1
f 93/4/1 86/4/1 92/4/1
f 94/6/1 88/6/1 87/6/1
f 95/6/1 88/6/1 94/6/1
f 97/6/1 90/6/1 89/6/1
f 98/6/1 90/6/1 97/6/1
f 99/4/1 93/4/1 92/4/1
f 100/4/1 93/4/1 99/4/1
f 101/6/1 96/6/1 95/6/1
f 102/6/1 96/6/1 101/6/1
f 107/6/1 104/6/1 103/6/1
f 108/6/1 104/6/1 107/6/1
f 111/6/1 106/6/1 105/6/1
f 112/6/1 106/6/1 111/6/1
f 113/6/1 109/6/1 108/6/1
f 114/6/1 109/6/1 113/6/1
f 122/6/1 111/6/1 110/6/1
f 123/6/1 111/6/1 122/6/1
f 124/6/1 115/6/1 114/6/1
f 125/7/1 116/7/1 115/7/1
f 125/6/1 115/6/1 124/6/1
f 126/5/1 117/5/1 116/5/1
f 126/7/1 116/7/1 125/7/1
f 127/7/1 118/7/1 117/7/1
f 127/5/1 117/5/1 126/5/1
f 128/5/1 119/5/1 118/5/1
f 128/7/1 118/7/1 127/7/1
f 129/7/1 120/7/1 119/7/1
f 129/5/1 119/5/1 128/5/1
f 130/5/1 121/5/1 120/5/1
f 130/7/1 120/7/1 129/7/1
f 131/6/1 122/6/1 121/6/1
f 131/5/1 121/5/1 130/5/1
f 132/6/1 122/6/1 131/6/1
f 138/6/1 134/6/1 133/6/1
f 139/6/1 134/6/1 138/6/1
f 140/6/1 136/6/1 135/6/1
f 141/6/1 136/6/1 140/6/1
f 143/6/1 138/6/1 137/6/1
f 144/6/1 138/6/1 143/6/1
f 145/6/1 142/6/1 141/6/1
f 146/6/1 142/6/1 145/6/1
f 151/5/1 148/5/1 147/5/1
f 152/5/1 148/5/1 151/5/1
f 155/5/1 150/5/1 149/5/1
f 156/5/1 150/5/1 155/5/1
f 157/6/1 153/6/1 152/6/1
f 158/6/1 153/6/1 157/6/1
f 169/6/1 155/6/1 154/6/1
f 170/6/1 155/6/1 169/6/1
f 171/7/1 160/7/1 159/7/1
f 172/5/1 161/5/1 160/5/1
f 172/7/1 160/7/1 171/7/1
f 172/5/1 162/5/1 161/5/1
f 173/7/1 163/7/1 162/7/1
f 173/5/1 162/5/1 172/5/1
f 174/5/1 164/5/1 163/5/1
f 174/7/1 163/7/1 173/7/1
f 174/5/1 165/5/1 164/5/1
f 175/7/1 166/7/1 165/7/1
f 175/5/1 165/5/1 174/5/1
f 176/5/1 168/5/1 167/5/1
f 176/7/1 166/7/1 175/7/1
f 176/5/1 167/5/1 166/5/1
f 177/5/1 168/5/1 176/5/1
f 182/6/1 179/6/1 178/6/1
f 183/6/1 179/6/1 182/6/1
f 184/6/1 181/6/1 180/6/1
f 185/6/1 181/6/1 184/6/1
f 190/6/1 187/6/1 186/6/1
f 191/6/1 187/6/1 190/6/1
f 204/6/1 189/6/1 188/6/1
f 205/6/1 189/6/1 204/6/1
f 206/5/1 193/5/1 192/5/1
f 207/5/1 193/5/1 206/5/1
f 208/5/1 195/5/1 194/5/1
f 208/5/1 196/5/1 195/5/1
f 209/7/1 197/7/1 196/7/1
f 209/5/1 196/5/1 208/5/1
f 210/7/1 197/7/1 209/7/1
f 211/5/1 199/5/1 198/5/1
f 211/5/1 200/5/1 199/5/1
f 211/5/1 201/5/1 200/5/1
f 212/5/1 201/5/1 211/5/1
f 213/7/1 203/7/1 202/7/1
f 214/7/1 203/7/1 213/7/1
f 219/6/1 216/6/1 215/6/1
f 220/6/1 216/6/1 219/6/1
f 221/6/1 218/6/1 217/6/1
f 222/6/1 218/6/1 221/6/1
f 227/6/1 224/6/1 223/6/1
f 228/6/1 224/6/1 227/6/1
f 229/6/1 226/6/1 225/6/1
f 230/6/1 226/6/1 229/6/1
f 241/5/1 232/5/1 231/5/1
f 242/5/1 232/5/1 241/5/1
f 243/5/1 234/5/1 233/5/1
f 244/5/1 234/5/1 243/5/1
f 245/5/1 236/5/1 235/5/1
f 246/5/1 236/5/1 245/5/1
f 247/5/1 238/5/1 237/5/1
f 248/5/1 238/5/1 247/5/1
f 249/5/1 240/5/1 239/5/1
f 250/5/1 240/5/1 249/5/1
f 255/5/1 252/5/1 251/5/1
f 256/5/1 252/5/1 255/5/1
f 257/5/1 254/5/1 253/5/1
f 258/5/1 254/5/1 257/5/1
f 263/5/1 260/5/1 259/5/1
f 264/5/1 260/5/1 263/5/1
f 265/5/1 262/5/1 261/5/1
f 266/5/1 262/5/1 265/5/1
f 271/5/1 268/5/1 267/5/1
f 272/5/1 268/5/1 271/5/1
f 273/5/1 270/5/1 269/5/1
f 274/5/1 270/5/1 273/5/1
f 279/6/1 276/6/1 275/6/1
f 280/6/1 276/6/1 279/6/1
f 281/6/1 278/6/1 277/6/1
f 282/6/1 278/6/1 281/6/1
f 283/5/2 284/5/2 287/5/2
f 287/5/2 284/5/2 288/5/2
f 285/5/2 286/5/2 289/5/2
f 289/5/2 286/5/2 290/5/2
f 291/5/2 292/5/2 295/5/2
f 295/5/2 292/5/2 296/5/2
f 293/5/2 294/5/2 297/5/2
f 297/5/2 294/5/2 298/5/2
f 299/5/2 300/5/2 303/5/2
f 303/5/2 300/5/2 304/5/2
f 301/5/2 302/5/2 305/5/2
f 305/5/2 302/5/2 306/5/2
f 307/5/2 308/5/2 311/5/2
f 311/5/2 308/5/2 312/5/2
f 309/5/2 310/5/2 313/5/2
f 313/5/2 310/5/2 314/5/2
f 315/6/2 316/6/2 319/6/2
f 319/6/2 316/6/2 320/6/2
f 317/6/2 318/6/2 321/6/2
f 321/6/2 318/6/2 322/6/2
f 323/6/2 324/6/2 327/6/2
f 327/6/2 324/6/2 328/6/2
f 325/6/2 326/6/2 329/6/2
f 329/6/2 326/6/2 330/6/2
f 331/6/2 332/6/2 335/6/2
f 333/6/2 334/6/2 336/6/2
f 331/6/2 335/6/2 337/6/2
f 336/6/2 334/6/2 338/6/2
f 331/6/2 337/6/2 339/6/2
f 339/6/2 337/6/2 340/6/2
f 338/6/2 334/6/2 341/6/2
f 341/6/2 334/6/2 342/6/2
f 343/6/2 344/6/2 351/6/2
f 349/6/2 350/6/2 351/6/2
f 348/6/2 349/6/2 351/6/2
f 347/6/2 348/6/2 351/6/2
f 346/6/2 347/6/2 351/6/2
f 345/6/2 346/6/2 351/6/2
f 344/6/2 345/6/2 351/6/2
f 351/6/2 350/6/2 352/6/2
f 353/6/2 354/6/2 358/6/2
f 358/6/2 354/6/2 359/6/2
f 355/6/2 356/6/2 360/6/2
f 360/6/2 356/6/2 361/6/2
f 357/6/2 358/6/2 363/6/2
f 363/6/2 358/6/2 364/6/2
f 361/6/2 362/6/2 365/6/2
f 365/6/2 362/6/2 366/6/2
f 367/5/2 368/5/2 371/5/2
f 371/5/2 368/5/2 372/5/2
f 369/5/2 370/5/2 375/5/2
f 375/5/2 370/5/2 376/5/2
f 372/6/2 373/6/2 377/6/2
f 377/6/2 373/6/2 378/6/2
f 374/6/2 375/6/2 390/6/2
f 390/6/2 375/6/2 391/6/2
f 378/6/2 379/6/2 392/6/2
f 379/6/2 380/6/2 392/6/2
f 380/6/2 381/6/2 392/6/2
f 381/7/2 382/7/2 393/7/2
f 392/6/2 381/6/2 393/6/2
f 382/6/2 383/6/2 394/6/2
f 393/7/2 382/7/2 394/7/2
f 383/7/2 384/7/2 395/7/2
f 394/6/2 383/6/2 395/6/2
f 387/6/2 388/6/2 396/6/2
f 395/7/2 384/7/2 396/7/2
f 384/6/2 385/6/2 396/6/2
f 386/6/2 387/6/2 396/6/2
f 385/6/2 386/6/2 396/6/2
f 388/7/2 389/7/2 397/7/2
f 396/6/2 388/6/2 397/6/2
f 389/6/2 390/6/2 398/6/2
f 397/7/2 389/7/2 398/7/2
f 398/6/2 390/6/2 399/6/2
f 400/6/2 401/6/2 403/6/2
f 403/6/2 401/6/2 404/6/2
f 404/6/2 401/6/2 405/6/2
f 405/6/2 401/6/2 406/6/2
f 402/6/2 403/6/2 409/6/2
f 409/6/2 403/6/2 410/6/2
f 406/6/2 407/6/2 411/6/2
f 411/6/2 407/6/2 412/6/2
f 408/6/2 409/6/2 414/6/2
f 414/6/2 409/6/2 415/6/2
f 412/6/2 413/6/2 416/6/2
f 416/6/2 413/6/2 417/6/2
f 418/6/2 419/6/2 422/6/2
f 422/6/2 419/6/2 423/6/2
f 420/6/2 421/6/2 426/6/2
f 426/6/2 421/6/2 427/6/2
f 423/6/2 424/6/2 428/6/2
f 428/6/2 424/6/2 429/6/2
f 425/6/2 426/6/2 443/6/2
f 443/6/2 426/6/2 444/6/2
f 429/6/2 430/6/2 445/6/2
f 430/7/2 431/7/2 446/7/2
f 445/6/2 430/6/2 446/6/2
f 431/6/2 432/6/2 447/6/2
f 446/7/2 431/7/2 447/7/2
f 432/6/2 433/6/2 447/6/2
f 433/6/2 434/6/2 447/6/2
f 434/6/2 435/6/2 447/6/2
f 435/7/2 436/7/2 448/7/2
f 447/6/2 435/6/2 448/6/2
f 436/6/2 437/6/2 449/6/2
f 448/7/2 436/7/2 449/7/2
f 437/7/2 438/7/2 450/7/2
f 449/6/2 437/6/2 450/6/2
f 438/6/2 439/6/2 451/6/2
f 450/7/2 438/7/2 451/7/2
f 439/7/2 440/7/2 452/7/2
f 451/6/2 439/6/2 452/6/2
f 441/6/2 442/6/2 453/6/2
f 452/7/2 440/7/2 453/7/2
f 442/6/2 443/6/2 453/6/2
f 440/6/2 441/6/2 453/6/2
f 453/6/2 443/6/2 454/6/2
f 455/6/2 456/6/2 460/6/2
f 456/5/2 457/5/2 461/5/2
f 460/6/2 456/6/2 461/6/2
f 461/5/2 457/5/2 462/5/2
f 462/5/2 457/5/2 463/5/2
f 457/6/2 458/6/2 464/6/2
f 463/5/2 457/5/2 464/5/2
f 464/6/2 458/6/2 465/6/2
f 459/6/2 460/6/2 468/6/2
f 460/5/2 461/5/2 469/5/2
f 461/5/2 462/5/2 469/5/2
f 468/6/2 460/6/2 469/6/2
f 469/5/2 462/5/2 470/5/2
f 470/5/2 462/5/2 471/5/2
f 464/5/2 465/5/2 472/5/2
f 463/5/2 464/5/2 472/5/2
f 472/5/2 465/5/2 473/5/2
f 465/6/2 466/6/2 474/6/2
f 473/5/2 465/5/2 474/5/2
f 474/6/2 466/6/2 475/6/2
f 469/5/2 470/5/2 477/5/2
f 468/5/2 469/5/2 477/5/2
f 468/5/2 477/5/2 478/5/2
f 478/5/2 477/5/2 479/5/2
f 474/5/2 475/5/2 480/5/2
f 473/5/2 474/5/2 480/5/2
f 480/5/2 475/5/2 481/5/2
f 478/7/2 479/7/2 482/7/2
f 468/5/2 478/5/2 482/5/2
f 482/7/2 479/7/2 483/7/2
f 480/7/2 481/7/2 484/7/2
f 481/5/2 475/5/2 485/5/2
f 484/7/2 481/7/2 485/7/2
f 467/6/2 468/6/2 486/6/2
f 482/5/2 483/5/2 487/5/2
f 486/6/2 468/6/2 487/6/2
f 468/5/2 482/5/2 487/5/2
f 487/5/2 483/5/2 488/5/2
f 488/5/2 483/5/2 489/5/2
f 484/5/2 485/5/2 492/5/2
f 485/5/2 475/5/2 493/5/2
f 492/5/2 485/5/2 493/5/2
f 475/6/2 476/6/2 494/6/2
f 493/5/2 475/5/2 494/5/2
f 494/6/2 476/6/2 495/6/2
f 487/6/2 488/6/2 496/6/2
f 488/7/2 489/7/2 497/7/2
f 496/6/2 488/6/2 497/6/2
f 489/5/2 490/5/2 498/5/2
f 497/7/2 489/7/2 498/7/2
f 498/5/2 490/5/2 499/5/2
f 491/7/2 492/7/2 506/7/2
f 492/5/2 493/5/2 507/5/2
f 506/7/2 492/7/2 507/7/2
f 493/6/2 494/6/2 508/6/2
f 507/5/2 493/5/2 508/5/2
f 508/6/2 494/6/2 509/6/2
f 497/6/2 498/6/2 510/6/2
f 498/6/2 499/6/2 510/6/2
f 499/6/2 500/6/2 510/6/2
f 500/7/2 501/7/2 511/7/2
f 510/6/2 500/6/2 511/6/2
f 501/6/2 502/6/2 512/6/2
f 511/7/2 501/7/2 512/7/2
f 502/7/2 503/7/2 513/7/2
f 512/6/2 502/6/2 513/6/2
f 503/6/2 504/6/2 514/6/2
f 513/7/2 503/7/2 514/7/2
f 504/7/2 505/7/2 515/7/2
f 514/6/2 504/6/2 515/6/2
f 505/6/2 506/6/2 516/6/2
f 515/7/2 505/7/2 516/7/2
f 506/7/2 507/7/2 517/7/2
f 516/6/2 506/6/2 517/6/2
f 507/6/2 508/6/2 518/6/2
f 517/7/2 507/7/2 518/7/2
f 518/6/2 508/6/2 519/6/2
f 520/6/2 521/6/2 523/6/2
f 523/6/2 521/6/2 524/6/2
f 524/6/2 521/6/2 525/6/2
f 525/6/2 521/6/2 526/6/2
f 522/6/2 523/6/2 528/6/2
f 523/5/2 524/5/2 528/5/2
f 528/5/2 524/5/2 529/5/2
f 524/6/2 525/6/2 530/6/2
f 529/5/2 524/5/2 530/5/2
f 530/6/2 525/6/2 531/6/2
f 525/5/2 526/5/2 532/5/2
f 532/5/2 526/5/2 533/5/2
f 522/6/2 528/6/2 534/6/2
f 528/7/2 529/7/2 535/7/2
f 534/6/2 528/6/2 535/6/2
f 529/5/2 530/5/2 536/5/2
f 535/7/2 529/7/2 536/7/2
f 530/5/2 531/5/2 536/5/2
f 536/5/2 531/5/2 537/5/2
f 531/6/2 525/6/2 538/6/2
f 537/5/2 531/5/2 538/5/2
f 525/5/2 532/5/2 539/5/2
f 538/6/2 525/6/2 539/6/2
f 532/7/2 533/7/2 540/7/2
f 539/5/2 532/5/2 540/5/2
f 536/5/2 537/5/2 541/5/2
f 537/7/2 538/7/2 541/7/2
f 535/5/2 536/5/2 541/5/2
f 538/5/2 539/5/2 542/5/2
f 541/7/2 538/7/2 542/7/2
f 539/7/2 540/7/2 543/7/2
f 542/5/2 539/5/2 543/5/2
f 540/7/2 533/7/2 544/7/2
f 543/7/2 540/7/2 544/7/2
f 533/5/2 526/5/2 544/5/2
f 534/7/2 535/7/2 545/7/2
f 542/5/2 543/5/2 546/5/2
f 545/7/2 535/7/2 546/7/2
f 541/5/2 542/5/2 546/5/2
f 543/5/2 544/5/2 546/5/2
f 535/5/2 541/5/2 546/5/2
f 546/5/2 544/5/2 547/5/2
f 547/5/2 544/5/2 548/5/2
f 548/5/2 544/5/2 549/5/2
f 549/5/2 544/5/2 550/5/2
f 544/5/2 526/5/2 551/5/2
f 550/5/2 544/5/2 551/5/2
f 551/5/2 526/5/2 552/5/2
f 546/5/2 547/5/2 553/5/2
f 547/7/2 548/7/2 553/7/2
f 548/5/2 549/5/2 554/5/2
f 553/7/2 548/7/2 554/7/2
f 554/5/2 549/5/2 555/5/2
f 555/5/2 549/5/2 556/5/2
f 549/7/2 550/7/2 557/7/2
f 556/5/2 549/5/2 557/5/2
f 550/5/2 551/5/2 558/5/2
f 557/7/2 550/7/2 558/7/2
f 551/7/2 552/7/2 559/7/2
f 558/5/2 551/5/2 559/5/2
f 552/5/2 526/5/2 560/5/2
f 559/7/2 552/7/2 560/7/2
f 545/6/2 546/6/2 561/6/2
f 546/5/2 553/5/2 562/5/2
f 561/6/2 546/6/2 562/6/2
f 553/5/2 554/5/2 562/5/2
f 554/5/2 555/5/2 562/5/2
f 555/7/2 556/7/2 563/7/2
f 562/5/2 555/5/2 563/5/2
f 558/5/2 559/5/2 564/5/2
f 563/7/2 556/7/2 564/7/2
f 557/5/2 558/5/2 564/5/2
f 559/5/2 560/5/2 564/5/2
f 556/5/2 557/5/2 564/5/2
f 526/6/2 527/6/2 565/6/2
f 564/5/2 560/5/2 565/5/2
f 560/5/2 526/5/2 565/5/2
f 565/6/2 527/6/2 566/6/2
f 563/6/2 564/6/2 567/6/2
f 564/6/2 565/6/2 567/6/2
f 562/6/2 563/6/2 567/6/2
f 567/6/2 565/6/2 568/6/2
f 572/6/3 570/6/3 569/6/3
f 573/6/3 570/6/3 572/6/3
f 575/6/3 572/6/3 571/6/3
f 575/5/3 573/5/3 572/5/3
f 576/5/3 573/5/3 575/5/3
f 577/5/3 573/5/3 576/5/3
f 578/6/3 574/6/3 573/6/3
f 578/5/3 573/5/3 577/5/3
f 579/6/3 575/6/3 571/6/3
f 579/7/3 576/7/3 575/7/3
f 580/5/3 577/5/3 576/5/3
f 580/7/3 576/7/3 579/7/3
f 581/5/3 577/5/3 580/5/3
f 582/5/3 577/5/3 581/5/3
f 583/7/3 578/7/3 577/7/3
f 583/5/3 577/5/3 582/5/3
f 584/7/3 578/7/3 583/7/3
f 585/6/3 579/6/3 571/6/3
f 585/5/3 580/5/3 579/5/3
f 586/6/3 581/6/3 580/6/3
f 586/5/3 580/5/3 585/5/3
f 587/5/3 582/5/3 581/5/3
f 587/6/3 581/6/3 586/6/3
f 588/6/3 583/6/3 582/6/3
f 588/5/3 582/5/3 587/5/3
f 589/5/3 584/5/3 583/5/3
f 589/6/3 583/6/3 588/6/3
f 590/7/3 578/7/3 584/7/3
f 590/5/3 584/5/3 589/5/3
f 591/6/3 574/6/3 578/6/3
f 591/7/3 578/7/3 590/7/3
f 592/5/3 589/5/3 588/5/3
f 592/5/3 590/5/3 589/5/3
f 592/5/3 591/5/3 590/5/3
f 592/5/3 587/5/3 586/5/3
f 592/6/3 586/6/3 585/6/3
f 592/5/3 588/5/3 587/5/3
f 593/5/3 591/5/3 592/5/3
f 594/6/3 585/6/3 571/6/3
f 594/6/3 592/6/3 585/6/3
f 594/6/3 593/6/3 592/6/3
f 595/5/3 591/5/3 593/5/3
f 595/6/3 593/6/3 594/6/3
f 596/5/3 591/5/3 595/5/3
f 597/5/3 591/5/3 596/5/3
f 598/5/3 595/5/3 594/5/3
f 598/5/3 596/5/3 595/5/3
f 599/6/3 597/6/3 596/6/3
f 599/5/3 596/5/3 598/5/3
f 600/5/3 591/5/3 597/5/3
f 600/6/3 597/6/3 599/6/3
f 601/6/3 599/6/3 598/6/3
f 602/7/3 600/7/3 599/7/3
f 602/6/3 599/6/3 601/6/3
f 603/5/3 591/5/3 600/5/3
f 603/7/3 600/7/3 602/7/3
f 604/5/3 591/5/3 603/5/3
f 605/5/3 598/5/3 594/5/3
f 605/6/3 601/6/3 598/6/3
f 606/5/3 602/5/3 601/5/3
f 606/6/3 601/6/3 605/6/3
f 607/7/3 604/7/3 603/7/3
f 607/5/3 602/5/3 606/5/3
f 607/7/3 603/7/3 602/7/3
f 608/5/3 591/5/3 604/5/3
f 608/7/3 604/7/3 607/7/3
f 609/6/3 594/6/3 571/6/3
f 609/5/3 605/5/3 594/5/3
f 609/5/3 608/5/3 607/5/3
f 609/5/3 606/5/3 605/5/3
f 609/5/3 607/5/3 606/5/3
f 610/5/3 608/5/3 609/5/3
f 611/5/3 608/5/3 610/5/3
f 612/5/3 591/5/3 608/5/3
f 612/5/3 608/5/3 611/5/3
f 613/5/3 611/5/3 610/5/3
f 613/7/3 610/7/3 609/7/3
f 614/7/3 612/7/3 611/7/3
f 614/5/3 611/5/3 613/5/3
f 615/5/3 591/5/3 612/5/3
f 615/7/3 612/7/3 614/7/3
f 616/6/3 614/6/3 613/6/3
f 616/7/3 613/7/3 609/7/3
f 617/6/3 614/6/3 616/6/3
f 618/5/3 615/5/3 614/5/3
f 618/6/3 614/6/3 617/6/3
f 619/6/3 609/6/3 571/6/3
f 619/7/3 617/7/3 616/7/3
f 619/7/3 616/7/3 609/7/3
f 620/7/3 617/7/3 619/7/3
f 621/7/3 617/7/3 620/7/3
f 622/5/3 618/5/3 617/5/3
f 622/7/3 617/7/3 621/7/3
f 623/7/3 621/7/3 620/7/3
f 623/5/3 620/5/3 619/5/3
f 624/5/3 622/5/3 621/5/3
f 624/7/3 621/7/3 623/7/3
f 625/6/3 619/6/3 571/6/3
f 626/5/3 623/5/3 619/5/3
f 626/6/3 619/6/3 625/6/3
f 626/5/3 624/5/3 623/5/3
f 627/6/3 574/6/3 591/6/3
f 627/5/3 624/5/3 626/5/3
f 627/5/3 591/5/3 615/5/3
f 627/5/3 615/5/3 618/5/3
f 627/5/3 622/5/3 624/5/3
f 627/5/3 618/5/3 622/5/3
f 628/6/3 574/6/3 627/6/3
f 629/6/3 627/6/3 626/6/3
f 630/6/3 627/6/3 629/6/3
f 634/6/3 632/6/3 631/6/3
f 635/6/3 632/6/3 634/6/3
f 636/6/3 632/6/3 635/6/3
f 639/6/3 634/6/3 633/6/3
f 640/5/3 635/5/3 634/5/3
f 640/6/3 634/6/3 639/6/3
f 641/6/3 637/6/3 636/6/3
f 641/5/3 635/5/3 640/5/3
f 641/6/3 636/6/3 635/6/3
f 642/6/3 637/6/3 641/6/3
f 644/6/3 639/6/3 638/6/3
f 645/5/3 640/5/3 639/5/3
f 645/6/3 639/6/3 644/6/3
f 645/5/3 643/5/3 642/5/3
f 645/5/3 642/5/3 641/5/3
f 645/5/3 641/5/3 640/5/3
f 646/5/3 643/5/3 645/5/3
f 647/5/3 643/5/3 646/5/3
f 648/5/3 643/5/3 647/5/3
f 649/5/3 645/5/3 644/5/3
f 649/6/3 646/6/3 645/6/3
f 650/6/3 646/6/3 649/6/3
f 651/6/3 648/6/3 647/6/3
f 652/5/3 643/5/3 648/5/3
f 652/6/3 648/6/3 651/6/3
f 653/5/3 649/5/3 644/5/3
f 656/5/3 643/5/3 652/5/3
f 657/5/3 653/5/3 644/5/3
f 658/6/3 654/6/3 653/6/3
f 658/5/3 653/5/3 657/5/3
f 659/6/3 654/6/3 658/6/3
f 662/6/3 656/6/3 655/6/3
f 663/5/3 643/5/3 656/5/3
f 663/6/3 656/6/3 662/6/3
f 664/6/3 658/6/3 657/6/3
f 665/5/3 659/5/3 658/5/3
f 665/6/3 658/6/3 664/6/3
f 665/5/3 660/5/3 659/5/3
f 666/5/3 660/5/3 665/5/3
f 667/6/3 661/6/3 660/6/3
f 668/5/3 662/5/3 661/5/3
f 668/6/3 661/6/3 667/6/3
f 668/5/3 663/5/3 662/5/3
f 669/5/3 663/5/3 668/5/3
f 670/5/3 643/5/3 663/5/3
f 670/5/3 663/5/3 669/5/3
f 671/5/3 643/5/3 670/5/3
f 672/6/3 666/6/3 665/6/3
f 673/5/3 660/5/3 666/5/3
f 673/6/3 666/6/3 672/6/3
f 674/6/3 667/6/3 660/6/3
f 674/5/3 660/5/3 673/5/3
f 675/5/3 669/5/3 668/5/3
f 675/6/3 667/6/3 674/6/3
f 675/5/3 668/5/3 667/5/3
f 676/6/3 670/6/3 669/6/3
f 676/5/3 669/5/3 675/5/3
f 677/6/3 670/6/3 676/6/3
f 678/6/3 674/6/3 673/6/3
f 678/6/3 676/6/3 675/6/3
f 678/6/3 675/6/3 674/6/3
f 679/6/3 676/6/3 678/6/3
f 685/6/3 681/6/3 680/6/3
f 686/6/3 681/6/3 685/6/3
f 687/6/3 683/6/3 682/6/3
f 688/6/3 683/6/3 687/6/3
f 691/6/3 685/6/3 684/6/3
f 692/6/3 685/6/3 691/6/3
f 693/6/3 689/6/3 688/6/3
f 694/6/3 689/6/3 693/6/3
f 696/6/3 691/6/3 690/6/3
f 697/6/3 691/6/3 696/6/3
f 698/5/3 697/5/3 696/5/3
f 699/5/3 697/5/3 698/5/3
f 700/6/3 699/6/3 698/6/3
f 701/6/3 699/6/3 700/6/3
f 702/5/3 701/5/3 700/5/3
f 703/5/3 701/5/3 702/5/3
f 704/6/3 703/6/3 702/6/3
f 705/6/3 703/6/3 704/6/3
f 708/6/3 695/6/3 694/6/3
f 709/6/3 695/6/3 708/6/3
f 710/6/3 706/6/3 705/6/3
f 711/6/3 706/6/3 710/6/3
f 714/6/3 708/6/3 707/6/3
f 715/6/3 708/6/3 714/6/3
f 716/6/3 712/6/3 711/6/3
f 717/6/3 712/6/3 716/6/3
f 718/6/3 714/6/3 713/6/3
f 719/6/3 714/6/3 718/6/3
f 725/6/3 721/6/3 720/6/3
f 726/6/3 721/6/3 725/6/3
f 727/6/3 723/6/3 722/6/3
f 728/6/3 723/6/3 727/6/3
f 730/6/3 725/6/3 724/6/3
f 731/6/3 725/6/3 730/6/3
f 732/6/3 729/6/3 728/6/3
f 733/6/3 729/6/3 732/6/3
f 739/6/3 735/6/3 734/6/3
f 740/6/3 735/6/3 739/6/3
f 741/6/3 737/6/3 736/6/3
f 742/6/3 737/6/3 741/6/3
f 745/6/3 739/6/3 738/6/3
f 746/6/3 739/6/3 745/6/3
f 747/6/3 743/6/3 742/6/3
f 748/6/3 743/6/3 747/6/3
f 749/6/3 745/6/3 744/6/3
f 750/6/3 745/6/3 749/6/3
f 753/7/3 752/7/3 751/7/3
f 754/7/3 752/7/3 753/7/3
f 757/5/3 756/5/3 755/5/3
f 758/5/3 756/5/3 757/5/3
f 761/5/3 760/5/3 759/5/3
f 762/5/3 760/5/3 761/5/3
f 765/5/3 764/5/3 763/5/3
f 766/5/3 764/5/3 765/5/3
f 769/5/3 768/5/3 767/5/3
f 770/5/3 768/5/3 769/5/3
f 773/6/3 772/6/3 771/6/3
f 774/6/3 772/6/3 773/6/3
f 780/6/3 776/6/3 775/6/3
f 781/7/3 777/7/3 776/7/3
f 781/6/3 776/6/3 780/6/3
f 781/7/3 778/7/3 777/7/3
f 782/6/3 779/6/3 778/6/3
f 782/7/3 778/7/3 781/7/3
f 783/6/3 779/6/3 782/6/3
f 786/5/3 785/5/3 784/5/3
f 787/5/3 785/5/3 786/5/3
f 790/5/3 789/5/3 788/5/3
f 791/5/3 789/5/3 790/5/3
f 794/5/3 793/5/3 792/5/3
f 795/5/3 793/5/3 794/5/3
f 798/5/3 797/5/3 796/5/3
f 799/5/3 797/5/3 798/5/3
f 802/5/3 801/5/3 800/5/3
f 803/5/3 801/5/3 802/5/3
f 808/6/3 805/6/3 804/6/3
f 809/6/3 805/6/3 808/6/3
f 810/6/3 807/6/3 806/6/3
f 811/6/3 807/6/3 810/6/3
f 814/5/3 813/5/3 812/5/3
f 815/5/3 813/5/3 814/5/3
f 818/5/3 817/5/3 816/5/3
f 819/5/3 817/5/3 818/5/3
f 823/6/3 821/6/3 820/6/3
f 824/3/3 822/3/3 821/3/3
f 824/6/3 821/6/3 823/6/3
f 825/3/3 822/3/3 824/3/3
f 828/7/3 827/7/3 826/7/3
f 829/7/3 827/7/3 828/7/3
f 830/5/4 831/5/4 832/5/4
f 832/5/4 831/5/4 833/5/4
f 834/6/4 835/6/4 837/6/4
f 835/3/4 836/3/4 838/3/4
f 837/6/4 835/6/4 838/6/4
f 838/3/4 836/3/4 839/3/4
f 840/7/4 841/7/4 842/7/4
f 842/7/4 841/7/4 843/7/4
f 844/5/4 845/5/4 846/5/4
f 846/5/4 845/5/4 847/5/4
f 848/7/4 849/7/4 850/7/4
f 850/7/4 849/7/4 851/7/4
f 852/5/4 853/5/4 854/5/4
f 854/5/4 853/5/4 855/5/4
f 856/5/4 857/5/4 858/5/4
f 858/5/4 857/5/4 859/5/4
f 860/5/4 861/5/4 862/5/4
f 862/5/4 861/5/4 863/5/4
f 864/5/4 865/5/4 866/5/4
f 866/5/4 865/5/4 867/5/4
f 868/6/4 869/6/4 872/6/4
f 872/6/4 869/6/4 873/6/4
f 870/6/4 871/6/4 874/6/4
f 874/6/4 871/6/4 875/6/4
f 876/5/4 877/5/4 878/5/4
f 878/5/4 877/5/4 879/5/4
f 880/5/4 881/5/4 882/5/4
f 882/5/4 881/5/4 883/5/4
f 884/5/4 885/5/4 886/5/4
f 886/5/4 885/5/4 887/5/4
f 888/5/4 889/5/4 890/5/4
f 890/5/4 889/5/4 891/5/4
f 892/5/4 893/5/4 894/5/4
f 894/5/4 893/5/4 895/5/4
f 896/6/4 897/6/4 898/6/4
f 898/6/4 897/6/4 899/6/4
f 900/6/4 901/6/4 904/6/4
f 902/6/4 903/6/4 904/6/4
f 901/6/4 902/6/4 904/6/4
f 904/6/4 903/6/4 905/6/4
f 906/6/4 907/6/4 911/6/4
f 911/6/4 907/6/4 912/6/4
f 908/6/4 909/6/4 913/6/4
f 913/6/4 909/6/4 914/6/4
f 910/6/4 911/6/4 916/6/4
f 916/6/4 911/6/4 917/6/4
f 914/6/4 915/6/4 918/6/4
f 918/6/4 915/6/4 919/6/4
f 920/6/4 921/6/4 922/6/4
f 922/6/4 921/6/4 923/6/4
f 922/7/4 923/7/4 924/7/4
f 924/7/4 923/7/4 925/7/4
f 924/6/4 925/6/4 926/6/4
f 926/6/4 925/6/4 930/6/4
f 930/6/4 925/6/4 931/6/4
f 927/6/4 928/6/4 932/6/4
f 932/6/4 928/6/4 933/6/4
f 929/6/4 930/6/4 936/6/4
f 936/6/4 930/6/4 937/6/4
f 933/6/4 934/6/4 938/6/4
f 938/6/4 934/6/4 939/6/4
f 935/6/4 936/6/4 940/6/4
f 940/6/4 936/6/4 941/6/4
f 942/6/4 943/6/4 947/6/4
f 947/6/4 943/6/4 948/6/4
f 944/6/4 945/6/4 949/6/4
f 949/6/4 945/6/4 950/6/4
f 946/6/4 947/6/4 953/6/4
f 953/6/4 947/6/4 954/6/4
f 950/6/4 951/6/4 955/6/4
f 955/6/4 951/6/4 956/6/4
f 952/6/4 953/6/4 958/6/4
f 958/6/4 953/6/4 959/6/4
f 956/6/4 957/6/4 960/6/4
f 960/6/4 957/6/4 961/6/4
f 960/7/4 961/7/4 962/7/4
f 962/7/4 961/7/4 963/7/4
f 962/6/4 963/6/4 964/6/4
f 964/6/4 963/6/4 965/6/4
f 965/6/4 963/6/4 966/6/4
f 966/6/4 963/6/4 967/6/4
f 958/5/4 959/5/4 968/5/4
f 968/5/4 959/5/4 969/5/4
f 968/6/4 969/6/4 970/6/4
f 970/6/4 969/6/4 971/6/4
f 970/5/4 971/5/4 972/5/4
f 972/5/4 971/5/4 973/5/4
f 972/6/4 973/6/4 974/6/4
f 974/6/4 973/6/4 975/6/4
f 967/6/4 963/6/4 978/6/4
f 978/6/4 963/6/4 979/6/4
f 975/6/4 976/6/4 980/6/4
f 980/6/4 976/6/4 981/6/4
f 977/6/4 978/6/4 984/6/4
f 984/6/4 978/6/4 985/6/4
f 981/6/4 982/6/4 986/6/4
f 986/6/4 982/6/4 987/6/4
f 983/6/4 984/6/4 988/6/4
f 988/6/4 984/6/4 989/6/4
f 990/6/4 991/6/4 993/6/4
f 993/6/4 991/6/4 994/6/4
f 994/6/4 991/6/4 995/6/4
f 992/6/4 993/6/4 998/6/4
f 993/5/4 994/5/4 999/5/4
f 998/6/4 993/6/4 999/6/4
f 995/6/4 996/6/4 1000/6/4
f 999/5/4 994/5/4 1000/5/4
f 994/6/4 995/6/4 1000/6/4
f 1000/6/4 996/6/4 1001/6/4
f 997/6/4 998/6/4 1003/6/4
f 998/5/4 999/5/4 1004/5/4
f 1003/6/4 998/6/4 1004/6/4
f 1001/5/4 1002/5/4 1004/5/4
f 1000/5/4 1001/5/4 1004/5/4
f 999/5/4 1000/5/4 1004/5/4
f 1004/5/4 1002/5/4 1005/5/4
f 1005/5/4 1002/5/4 1006/5/4
f 1006/5/4 1002/5/4 1007/5/4
f 1003/5/4 1004/5/4 1008/5/4
f 1004/6/4 1005/6/4 1008/6/4
f 1008/6/4 1005/6/4 1009/6/4
f 1006/6/4 1007/6/4 1010/6/4
f 1007/5/4 1002/5/4 1011/5/4
f 1010/6/4 1007/6/4 1011/6/4
f 1011/5/4 1002/5/4 1012/5/4
f 1012/5/4 1002/5/4 1013/5/4
f 1012/7/4 1013/7/4 1014/7/4
f 1014/7/4 1013/7/4 1015/7/4
f 1014/5/4 1015/5/4 1016/5/4
f 1016/5/4 1015/5/4 1017/5/4
f 1016/7/4 1017/7/4 1018/7/4
f 1018/7/4 1017/7/4 1019/7/4
f 1003/5/4 1008/5/4 1020/5/4
f 1018/5/4 1019/5/4 1023/5/4
f 1003/5/4 1020/5/4 1024/5/4
f 1020/6/4 1021/6/4 1025/6/4
f 1024/5/4 1020/5/4 1025/5/4
f 1025/6/4 1021/6/4 1026/6/4
f 1022/6/4 1023/6/4 1029/6/4
f 1023/5/4 1019/5/4 1030/5/4
f 1029/6/4 1023/6/4 1030/6/4
f 1024/6/4 1025/6/4 1031/6/4
f 1025/5/4 1026/5/4 1032/5/4
f 1031/6/4 1025/6/4 1032/6/4
f 1026/5/4 1027/5/4 1032/5/4
f 1032/5/4 1027/5/4 1033/5/4
f 1027/6/4 1028/6/4 1034/6/4
f 1028/5/4 1029/5/4 1035/5/4
f 1034/6/4 1028/6/4 1035/6/4
f 1029/5/4 1030/5/4 1035/5/4
f 1035/5/4 1030/5/4 1036/5/4
f 1030/5/4 1019/5/4 1037/5/4
f 1036/5/4 1030/5/4 1037/5/4
f 1037/5/4 1019/5/4 1038/5/4
f 1032/6/4 1033/6/4 1039/6/4
f 1033/5/4 1027/5/4 1040/5/4
f 1039/6/4 1033/6/4 1040/6/4
f 1027/6/4 1034/6/4 1041/6/4
f 1040/5/4 1027/5/4 1041/5/4
f 1035/5/4 1036/5/4 1042/5/4
f 1041/6/4 1034/6/4 1042/6/4
f 1034/5/4 1035/5/4 1042/5/4
f 1036/6/4 1037/6/4 1043/6/4
f 1042/5/4 1036/5/4 1043/5/4
f 1043/6/4 1037/6/4 1044/6/4
f 1040/6/4 1041/6/4 1045/6/4
f 1042/6/4 1043/6/4 1045/6/4
f 1041/6/4 1042/6/4 1045/6/4
f 1045/6/4 1043/6/4 1046/6/4
f 1047/6/4 1048/6/4 1050/6/4
f 1050/6/4 1048/6/4 1051/6/4
f 1049/6/4 1050/6/4 1053/6/4
f 1050/5/4 1051/5/4 1053/5/4
f 1053/5/4 1051/5/4 1054/5/4
f 1049/6/4 1053/6/4 1055/6/4
f 1053/7/4 1054/7/4 1055/7/4
f 1054/5/4 1051/5/4 1056/5/4
f 1055/7/4 1054/7/4 1056/7/4
f 1056/5/4 1051/5/4 1057/5/4
f 1057/5/4 1051/5/4 1058/5/4
f 1058/5/4 1051/5/4 1059/5/4
f 1059/5/4 1051/5/4 1060/5/4
f 1051/6/4 1052/6/4 1061/6/4
f 1060/5/4 1051/5/4 1061/5/4
f 1049/6/4 1055/6/4 1062/6/4
f 1055/5/4 1056/5/4 1062/5/4
f 1056/6/4 1057/6/4 1063/6/4
f 1062/5/4 1056/5/4 1063/5/4
f 1057/5/4 1058/5/4 1064/5/4
f 1063/6/4 1057/6/4 1064/6/4
f 1058/6/4 1059/6/4 1065/6/4
f 1064/5/4 1058/5/4 1065/5/4
f 1059/5/4 1060/5/4 1066/5/4
f 1065/6/4 1059/6/4 1066/6/4
f 1060/7/4 1061/7/4 1067/7/4
f 1066/5/4 1060/5/4 1067/5/4
f 1061/6/4 1052/6/4 1068/6/4
f 1067/7/4 1061/7/4 1068/7/4
f 1064/5/4 1065/5/4 1069/5/4
f 1066/5/4 1067/5/4 1069/5/4
f 1067/5/4 1068/5/4 1069/5/4
f 1063/5/4 1064/5/4 1069/5/4
f 1062/6/4 1063/6/4 1069/6/4
f 1065/5/4 1066/5/4 1069/5/4
f 1069/5/4 1068/5/4 1070/5/4
f 1049/6/4 1062/6/4 1071/6/4
f 1062/6/4 1069/6/4 1071/6/4
f 1069/6/4 1070/6/4 1071/6/4
f 1070/5/4 1068/5/4 1072/5/4
f 1071/6/4 1070/6/4 1072/6/4
f 1072/5/4 1068/5/4 1073/5/4
f 1073/5/4 1068/5/4 1074/5/4
f 1071/5/4 1072/5/4 1075/5/4
f 1072/5/4 1073/5/4 1075/5/4
f 1073/6/4 1074/6/4 1076/6/4
f 1075/5/4 1073/5/4 1076/5/4
f 1074/5/4 1068/5/4 1077/5/4
f 1076/6/4 1074/6/4 1077/6/4
f 1068/6/4 1052/6/4 1078/6/4
f 1077/5/4 1068/5/4 1078/5/4
f 1078/6/4 1052/6/4 1079/6/4
f 1075/6/4 1076/6/4 1080/6/4
f 1076/5/4 1077/5/4 1081/5/4
f 1080/6/4 1076/6/4 1081/6/4
f 1077/5/4 1078/5/4 1081/5/4
f 1081/5/4 1078/5/4 1082/5/4
f 1078/7/4 1079/7/4 1083/7/4
f 1082/5/4 1078/5/4 1083/5/4
f 1083/7/4 1079/7/4 1084/7/4
f 1075/6/4 1080/6/4 1085/6/4
f 1071/5/4 1075/5/4 1085/5/4
f 1080/5/4 1081/5/4 1086/5/4
f 1085/6/4 1080/6/4 1086/6/4
f 1081/7/4 1082/7/4 1087/7/4
f 1086/5/4 1081/5/4 1087/5/4
f 1082/5/4 1083/5/4 1088/5/4
f 1087/7/4 1082/7/4 1088/7/4
f 1049/6/4 1071/6/4 1089/6/4
f 1085/5/4 1086/5/4 1089/5/4
f 1087/5/4 1088/5/4 1089/5/4
f 1086/5/4 1087/5/4 1089/5/4
f 1071/5/4 1085/5/4 1089/5/4
f 1089/5/4 1088/5/4 1090/5/4
f 1088/5/4 1083/5/4 1091/5/4
f 1090/5/4 1088/5/4 1091/5/4
f 1091/5/4 1083/5/4 1092/5/4
f 1089/7/4 1090/7/4 1093/7/4
f 1090/5/4 1091/5/4 1093/5/4
f 1091/7/4 1092/7/4 1094/7/4
f 1093/5/4 1091/5/4 1094/5/4
f 1092/5/4 1083/5/4 1095/5/4
f 1094/7/4 1092/7/4 1095/7/4
f 1089/7/4 1093/7/4 1096/7/4
f 1093/6/4 1094/6/4 1097/6/4
f 1096/7/4 1093/7/4 1097/7/4
f 1094/5/4 1095/5/4 1098/5/4
f 1097/6/4 1094/6/4 1098/6/4
f 1095/5/4 1083/5/4 1099/5/4
f 1098/5/4 1095/5/4 1099/5/4
f 1083/6/4 1084/6/4 1100/6/4
f 1099/5/4 1083/5/4 1100/5/4
f 1089/7/4 1096/7/4 1101/7/4
f 1049/6/4 1089/6/4 1101/6/4
f 1098/5/4 1099/5/4 1102/5/4
f 1101/7/4 1096/7/4 1102/7/4
f 1097/5/4 1098/5/4 1102/5/4
f 1096/5/4 1097/5/4 1102/5/4
f 1102/5/4 1099/5/4 1103/5/4
f 1099/7/4 1100/7/4 1104/7/4
f 1103/5/4 1099/5/4 1104/5/4
f 1100/6/4 1084/6/4 1105/6/4
f 1104/7/4 1100/7/4 1105/7/4
f 1103/7/4 1104/7/4 1106/7/4
f 1102/5/4 1103/5/4 1106/5/4
f 1101/5/4 1102/5/4 1106/5/4
f 1104/5/4 1105/5/4 1107/5/4
f 1106/7/4 1104/7/4 1107/7/4
f 1049/6/4 1101/6/4 1108/6/4
f 1101/5/4 1106/5/4 1109/5/4
f 1108/6/4 1101/6/4 1109/6/4
f 1106/5/4 1107/5/4 1109/5/4
f 1105/6/4 1084/6/4 1110/6/4
f 1109/5/4 1107/5/4 1110/5/4
f 1107/5/4 1105/5/4 1110/5/4
f 1110/6/4 1084/6/4 1111/6/4
f 1109/6/4 1110/6/4 1112/6/4
f 1112/6/4 1110/6/4 1113/6/4
f 1121/6/5 1115/6/5 1114/6/5
f 1122/5/5 1116/5/5 1115/5/5
f 1122/6/5 1115/6/5 1121/6/5
f 1123/6/5 1117/6/5 1116/6/5
f 1123/5/5 1116/5/5 1122/5/5
f 1124/5/5 1118/5/5 1117/5/5
f 1124/6/5 1117/6/5 1123/6/5
f 1125/6/5 1119/6/5 1118/6/5
f 1125/5/5 1118/5/5 1124/5/5
f 1126/6/5 1119/6/5 1125/6/5
f 1128/6/5 1121/6/5 1120/6/5
f 1129/5/5 1124/5/5 1123/5/5
f 1129/6/5 1121/6/5 1128/6/5
f 1129/5/5 1122/5/5 1121/5/5
f 1129/5/5 1126/5/5 1125/5/5
f 1129/5/5 1125/5/5 1124/5/5
f 1129/5/5 1123/5/5 1122/5/5
f 1130/5/5 1126/5/5 1129/5/5
f 1131/5/5 1126/5/5 1130/5/5
f 1132/5/5 1126/5/5 1131/5/5
f 1133/5/5 1126/5/5 1132/5/5
f 1134/6/5 1127/6/5 1126/6/5
f 1134/5/5 1126/5/5 1133/5/5
f 1135/6/5 1127/6/5 1134/6/5
f 1136/6/5 1130/6/5 1129/6/5
f 1137/5/5 1131/5/5 1130/5/5
f 1137/6/5 1130/6/5 1136/6/5
f 1138/6/5 1132/6/5 1131/6/5
f 1138/5/5 1131/5/5 1137/5/5
f 1139/5/5 1133/5/5 1132/5/5
f 1139/6/5 1132/6/5 1138/6/5
f 1140/6/5 1134/6/5 1133/6/5
f 1140/5/5 1133/5/5 1139/5/5
f 1141/6/5 1134/6/5 1140/6/5
f 1147/6/5 1143/6/5 1142/6/5
f 1148/5/5 1144/5/5 1143/5/5
f 1148/6/5 1143/6/5 1147/6/5
f 1149/5/5 1144/5/5 1148/5/5
f 1150/5/5 1144/5/5 1149/5/5
f 1151/6/5 1145/6/5 1144/6/5
f 1151/5/5 1144/5/5 1150/5/5
f 1152/6/5 1145/6/5 1151/6/5
f 1155/6/5 1147/6/5 1146/6/5
f 1156/6/5 1147/6/5 1155/6/5
f 1157/6/5 1153/6/5 1152/6/5
f 1158/6/5 1153/6/5 1157/6/5
f 1160/6/5 1159/6/5 1158/6/5
f 1161/6/5 1159/6/5 1160/6/5
f 1162/6/5 1155/6/5 1154/6/5
f 1163/6/5 1155/6/5 1162/6/5
f 1166/5/5 1161/5/5 1160/5/5
f 1167/5/5 1161/5/5 1166/5/5
f 1168/6/5 1165/6/5 1164/6/5
f 1169/6/5 1165/6/5 1168/6/5
f 1172/6/5 1167/6/5 1166/6/5
f 1173/6/5 1167/6/5 1172/6/5
f 1174/6/5 1170/6/5 1169/6/5
f 1175/6/5 1170/6/5 1174/6/5
f 1180/6/5 1172/6/5 1171/6/5
f 1181/6/5 1172/6/5 1180/6/5
f 1182/6/5 1176/6/5 1175/6/5
f 1183/5/5 1179/5/5 1178/5/5
f 1183/6/5 1176/6/5 1182/6/5
f 1183/5/5 1177/5/5 1176/5/5
f 1183/5/5 1178/5/5 1177/5/5
f 1184/6/5 1180/6/5 1179/6/5
f 1184/5/5 1179/5/5 1183/5/5
f 1185/6/5 1180/6/5 1184/6/5
f 1190/6/5 1187/6/5 1186/6/5
f 1191/6/5 1187/6/5 1190/6/5
f 1195/6/5 1189/6/5 1188/6/5
f 1196/6/5 1189/6/5 1195/6/5
f 1197/6/5 1193/6/5 1192/6/5
f 1198/6/5 1193/6/5 1197/6/5
f 1200/6/5 1195/6/5 1194/6/5
f 1201/6/5 1195/6/5 1200/6/5
f 1202/6/5 1199/6/5 1198/6/5
f 1203/6/5 1199/6/5 1202/6/5
f 1206/6/5 1205/6/5 1204/6/5
f 1207/6/5 1205/6/5 1206/6/5
f 1212/6/5 1209/6/5 1208/6/5
f 1213/6/5 1209/6/5 1212/6/5
f 1216/6/5 1211/6/5 1210/6/5
f 1217/6/5 1211/6/5 1216/6/5
f 1218/6/5 1214/6/5 1213/6/5
f 1219/6/5 1214/6/5 1218/6/5
f 1222/6/5 1216/6/5 1215/6/5
f 1223/6/5 1216/6/5 1222/6/5
f 1224/6/5 1221/6/5 1220/6/5
f 1225/6/5 1221/6/5 1224/6/5
f 1232/6/5 1227/6/5 1226/6/5
f 1233/6/5 1227/6/5 1232/6/5
f 1234/6/5 1229/6/5 1228/6/5
f 1235/6/5 1229/6/5 1234/6/5
f 1238/6/5 1231/6/5 1230/6/5
f 1239/6/5 1231/6/5 1238/6/5
f 1240/6/5 1237/6/5 1236/6/5
f 1241/6/5 1237/6/5 1240/6/5
f 1244/6/5 1243/6/5 1242/6/5
f 1245/6/5 1243/6/5 1244/6/5
f 1248/3/5 1247/3/5 1246/3/5
f 1249/3/5 1247/3/5 1248/3/5
f 1252/6/5 1251/6/5 1250/6/5
f 1253/6/5 1251/6/5 1252/6/5
f 1258/6/5 1255/6/5 1254/6/5
f 1259/6/5 1255/6/5 1258/6/5
f 1264/6/5 1257/6/5 1256/6/5
f 1265/6/5 1257/6/5 1264/6/5
f 1266/6/5 1261/6/5 1260/6/5
f 1267/6/5 1261/6/5 1266/6/5
f 1268/6/5 1263/6/5 1262/6/5
f 1269/6/5 1263/6/5 1268/6/5
f 1270/6/6 1271/6/6 1276/6/6
f 1276/6/6 1271/6/6 1277/6/6
f 1272/6/6 1273/6/6 1278/6/6
f 1278/6/6 1273/6/6 1279/6/6
f 1274/6/6 1275/6/6 1282/6/6
f 1282/6/6 1275/6/6 1283/6/6
f 1280/6/6 1281/6/6 1284/6/6
f 1284/6/6 1281/6/6 1285/6/6
f 1286/6/6 1287/6/6 1288/6/6
f 1288/6/6 1287/6/6 1289/6/6
f 1290/6/6 1291/6/6 1292/6/6
f 1292/6/6 1291/6/6 1293/6/6
f 1294/6/6 1295/6/6 1298/6/6
f 1298/6/6 1295/6/6 1299/6/6
f 1296/6/6 1297/6/6 1304/6/6
f 1304/6/6 1297/6/6 1305/6/6
f 1300/6/6 1301/6/6 1306/6/6
f 1306/6/6 1301/6/6 1307/6/6
f 1302/6/6 1303/6/6 1308/6/6
f 1308/6/6 1303/6/6 1309/6/6
f 1310/6/6 1311/6/6 1314/6/6
f 1314/6/6 1311/6/6 1315/6/6
f 1312/6/6 1313/6/6 1319/6/6
f 1319/6/6 1313/6/6 1320/6/6
f 1316/6/6 1317/6/6 1321/6/6
f 1321/6/6 1317/6/6 1322/6/6
f 1318/6/6 1319/6/6 1324/6/6
f 1324/6/6 1319/6/6 1325/6/6
f 1322/6/6 1323/6/6 1326/6/6
f 1326/6/6 1323/6/6 1327/6/6
f 1328/6/6 1329/6/6 1330/6/6
f 1330/6/6 1329/6/6 1331/6/6
f 1331/6/6 1329/6/6 1332/6/6
f 1332/6/6 1329/6/6 1333/6/6
f 1333/6/6 1329/6/6 1334/6/6
f 1334/6/6 1329/6/6 1335/6/6
f 1335/6/6 1329/6/6 1336/6/6
f 1336/6/6 1329/6/6 1337/6/6
f 1338/6/6 1339/6/6 1342/6/6
f 1342/6/6 1339/6/6 1343/6/6
f 1340/6/6 1341/6/6 1346/6/6
f 1346/6/6 1341/6/6 1347/6/6
f 1343/6/6 1344/6/6 1348/6/6
f 1348/6/6 1344/6/6 1349/6/6
f 1345/6/6 1346/6/6 1356/6/6
f 1356/6/6 1346/6/6 1357/6/6
f 1350/6/6 1351/6/6 1358/6/6
f 1351/6/6 1352/6/6 1358/6/6
f 1352/7/6 1353/7/6 1359/7/6
f 1358/6/6 1352/6/6 1359/6/6
f 1354/6/6 1355/6/6 1360/6/6
f 1359/7/6 1353/7/6 1360/7/6
f 1353/6/6 1354/6/6 1360/6/6
f 1360/6/6 1355/6/6 1361/6/6
f 1362/5/6 1363/5/6 1365/5/6
f 1365/5/6 1363/5/6 1366/5/6
f 1364/6/6 1365/6/6 1369/6/6
f 1369/6/6 1365/6/6 1370/6/6
f 1366/6/6 1367/6/6 1371/6/6
f 1371/6/6 1367/6/6 1372/6/6
f 1368/6/6 1369/6/6 1374/6/6
f 1374/6/6 1369/6/6 1375/6/6
f 1372/6/6 1373/6/6 1376/6/6
f 1374/5/6 1375/5/6 1377/5/6
f 1376/6/6 1373/6/6 1378/6/6
f 1378/6/6 1373/6/6 1379/6/6
f 1379/6/6 1373/6/6 1380/6/6
f 1379/7/6 1380/7/6 1381/7/6
f 1381/7/6 1380/7/6 1382/7/6
f 1374/5/6 1377/5/6 1383/5/6
f 1381/6/6 1382/6/6 1384/6/6
f 1384/6/6 1382/6/6 1385/6/6
f 1374/5/6 1383/5/6 1386/5/6
f 1384/7/6 1385/7/6 1387/7/6
f 1387/7/6 1385/7/6 1388/7/6
f 1388/7/6 1385/7/6 1389/7/6
f 1389/7/6 1385/7/6 1390/7/6
f 1374/5/6 1386/5/6 1391/5/6
f 1389/6/6 1390/6/6 1392/6/6
f 1392/6/6 1390/6/6 1393/6/6
f 1392/7/6 1393/7/6 1394/7/6
f 1394/7/6 1393/7/6 1395/7/6
f 1374/5/6 1391/5/6 1396/5/6
f 1394/6/6 1395/6/6 1397/6/6
f 1397/6/6 1395/6/6 1398/6/6
f 1398/6/6 1395/6/6 1399/6/6
f 1374/5/6 1396/5/6 1400/5/6
f 1400/5/6 1396/5/6 1401/5/6
f 1398/7/6 1399/7/6 1402/7/6
f 1402/7/6 1399/7/6 1403/7/6
f 1400/6/6 1401/6/6 1404/6/6
f 1404/6/6 1401/6/6 1405/6/6
f 1402/6/6 1403/6/6 1408/6/6
f 1408/6/6 1403/6/6 1409/6/6
f 1405/6/6 1406/6/6 1410/6/6
f 1410/6/6 1406/6/6 1411/6/6
f 1407/6/6 1408/6/6 1418/6/6
f 1418/6/6 1408/6/6 1419/6/6
f 1411/5/6 1412/5/6 1420/5/6
f 1412/5/6 1413/5/6 1420/5/6
f 1413/5/6 1414/5/6 1420/5/6
f 1414/7/6 1415/7/6 1421/7/6
f 1420/5/6 1414/5/6 1421/5/6
f 1415/5/6 1416/5/6 1422/5/6
f 1421/7/6 1415/7/6 1422/7/6
f 1416/7/6 1417/7/6 1423/7/6
f 1422/5/6 1416/5/6 1423/5/6
f 1417/5/6 1418/5/6 1424/5/6
f 1423/7/6 1417/7/6 1424/7/6
f 1424/5/6 1418/5/6 1425/5/6
f 1426/6/6 1427/6/6 1429/6/6
f 1429/6/6 1427/6/6 1430/6/6
f 1430/6/6 1427/6/6 1431/6/6
f 1428/6/6 1429/6/6 1433/6/6
f 1429/6/6 1430/6/6 1433/6/6
f 1433/6/6 1430/6/6 1434/6/6
f 1434/6/6 1430/6/6 1435/6/6
f 1433/7/6 1434/7/6 1436/7/6
f 1431/6/6 1432/6/6 1437/6/6
f 1437/6/6 1432/6/6 1438/6/6
f 1433/7/6 1436/7/6 1439/7/6
f 1439/7/6 1436/7/6 1440/7/6
f 1437/7/6 1438/7/6 1441/7/6
f 1441/7/6 1438/7/6 1442/7/6
f 1439/5/6 1440/5/6 1443/5/6
f 1439/5/6 1443/5/6 1444/5/6
f 1444/5/6 1443/5/6 1445/5/6
f 1441/6/6 1442/6/6 1446/6/6
f 1444/7/6 1445/7/6 1447/7/6
f 1447/7/6 1445/7/6 1448/7/6
f 1446/6/6 1442/6/6 1449/6/6
f 1449/6/6 1442/6/6 1450/6/6
f 1449/7/6 1450/7/6 1451/7/6
f 1451/7/6 1450/7/6 1452/7/6
f 1451/6/6 1452/6/6 1453/6/6
f 1453/6/6 1452/6/6 1454/6/6
f 1447/5/6 1448/5/6 1455/5/6
f 1455/5/6 1448/5/6 1456/5/6
f 1453/7/6 1454/7/6 1457/7/6
f 1457/7/6 1454/7/6 1458/7/6
f 1455/7/6 1456/7/6 1459/7/6
f 1457/6/6 1458/6/6 1460/6/6
f 1460/6/6 1458/6/6 1461/6/6
f 1455/7/6 1459/7/6 1462/7/6
f 1462/7/6 1459/7/6 1463/7/6
f 1460/7/6 1461/7/6 1464/7/6
f 1464/7/6 1461/7/6 1465/7/6
f 1464/6/6 1465/6/6 1466/6/6
f 1466/6/6 1465/6/6 1467/6/6
f 1462/5/6 1463/5/6 1468/5/6
f 1468/5/6 1463/5/6 1469/5/6
f 1468/6/6 1469/6/6 1471/6/6
f 1469/6/6 1470/6/6 1471/6/6
f 1471/6/6 1470/6/6 1472/6/6
f 1472/6/6 1470/6/6 1473/6/6
f 1467/6/6 1465/6/6 1477/6/6
f 1477/6/6 1465/6/6 1478/6/6
f 1472/6/6 1473/6/6 1479/6/6
f 1473/6/6 1474/6/6 1479/6/6
f 1475/7/6 1476/7/6 1480/7/6
f 1479/6/6 1474/6/6 1480/6/6
f 1474/7/6 1475/7/6 1480/7/6
f 1476/6/6 1477/6/6 1481/6/6
f 1480/7/6 1476/7/6 1481/7/6
f 1481/6/6 1477/6/6 1482/6/6
f 1483/6/6 1484/6/6 1486/6/6
f 1486/6/6 1484/6/6 1487/6/6
f 1487/6/6 1484/6/6 1488/6/6
f 1488/6/6 1484/6/6 1489/6/6
f 1489/6/6 1484/6/6 1490/6/6
f 1490/6/6 1484/6/6 1491/6/6
f 1491/6/6 1484/6/6 1492/6/6
f 1492/6/6 1484/6/6 1493/6/6
f 1493/6/6 1484/6/6 1494/6/6
f 1494/6/6 1484/6/6 1495/6/6
f 1495/6/6 1484/6/6 1496/6/6
f 1485/7/6 1486/7/6 1497/7/6
f 1486/5/6 1487/5/6 1498/5/6
f 1497/7/6 1486/7/6 1498/7/6
f 1498/5/6 1487/5/6 1499/5/6
f 1488/5/6 1489/5/6 1500/5/6
f 1500/5/6 1489/5/6 1501/5/6
f 1490/5/6 1491/5/6 1502/5/6
f 1502/5/6 1491/5/6 1503/5/6
f 1492/5/6 1493/5/6 1504/5/6
f 1504/5/6 1493/5/6 1505/5/6
f 1494/5/6 1495/5/6 1506/5/6
f 1506/5/6 1495/5/6 1507/5/6
f 1497/5/6 1498/5/6 1508/5/6
f 1497/5/6 1508/5/6 1510/5/6
f 1508/5/6 1509/5/6 1510/5/6
f 1510/5/6 1509/5/6 1511/5/6
f 1497/5/6 1510/5/6 1512/5/6
f 1512/5/6 1510/5/6 1513/5/6
f 1512/7/6 1513/7/6 1514/7/6
f 1514/7/6 1513/7/6 1515/7/6
f 1496/6/6 1484/6/6 1516/6/6
f 1516/6/6 1484/6/6 1517/6/6
f 1514/5/6 1515/5/6 1518/5/6
f 1516/7/6 1517/7/6 1520/7/6
f 1520/7/6 1517/7/6 1521/7/6
f 1520/6/6 1521/6/6 1522/6/6
f 1522/6/6 1521/6/6 1523/6/6
f 1518/5/6 1519/5/6 1524/5/6
f 1514/5/6 1518/5/6 1524/5/6
f 1524/5/6 1519/5/6 1525/5/6
f 1522/7/6 1523/7/6 1526/7/6
f 1526/7/6 1523/7/6 1527/7/6
f 1514/5/6 1524/5/6 1528/5/6
f 1528/5/6 1524/5/6 1529/5/6
f 1528/7/6 1529/7/6 1530/7/6
f 1530/7/6 1529/7/6 1531/7/6
f 1530/5/6 1531/5/6 1532/5/6
f 1530/5/6 1532/5/6 1534/5/6
f 1532/5/6 1533/5/6 1534/5/6
f 1534/5/6 1533/5/6 1535/5/6
f 1526/6/6 1527/6/6 1536/6/6
f 1536/6/6 1527/6/6 1537/6/6
f 1530/5/6 1534/5/6 1538/5/6
f 1536/7/6 1537/7/6 1548/7/6
f 1548/7/6 1537/7/6 1549/7/6
f 1530/5/6 1538/5/6 1550/5/6
f 1538/5/6 1539/5/6 1550/5/6
f 1550/5/6 1539/5/6 1551/5/6
f 1551/5/6 1539/5/6 1552/5/6
f 1540/5/6 1541/5/6 1553/5/6
f 1553/5/6 1541/5/6 1554/5/6
f 1542/5/6 1543/5/6 1555/5/6
f 1555/5/6 1543/5/6 1556/5/6
f 1544/5/6 1545/5/6 1557/5/6
f 1557/5/6 1545/5/6 1558/5/6
f 1546/5/6 1547/5/6 1559/5/6
f 1559/5/6 1547/5/6 1560/5/6
f 1548/6/6 1549/6/6 1561/6/6
f 1551/6/6 1552/6/6 1562/6/6
f 1552/6/6 1553/6/6 1562/6/6
f 1553/7/6 1554/7/6 1563/7/6
f 1562/6/6 1553/6/6 1563/6/6
f 1557/6/6 1558/6/6 1564/6/6
f 1563/7/6 1554/7/6 1564/7/6
f 1559/6/6 1560/6/6 1564/6/6
f 1558/6/6 1559/6/6 1564/6/6
f 1560/6/6 1561/6/6 1564/6/6
f 1556/6/6 1557/6/6 1564/6/6
f 1555/6/6 1556/6/6 1564/6/6
f 1554/6/6 1555/6/6 1564/6/6
f 1561/6/6 1549/6/6 1565/6/6
f 1564/6/6 1561/6/6 1565/6/6
f 1566/5/6 1567/5/6 1577/5/6
f 1577/5/6 1567/5/6 1578/5/6
f 1568/5/6 1569/5/6 1579/5/6
f 1579/5/6 1569/5/6 1580/5/6
f 1570/5/6 1571/5/6 1581/5/6
f 1581/5/6 1571/5/6 1582/5/6
f 1572/5/6 1573/5/6 1583/5/6
f 1583/5/6 1573/5/6 1584/5/6
f 1574/6/6 1575/6/6 1585/6/6
f 1583/5/6 1584/5/6 1586/5/6
f 1584/5/6 1585/5/6 1586/5/6
f 1577/5/6 1578/5/6 1586/5/6
f 1579/5/6 1580/5/6 1586/5/6
f 1582/5/6 1583/5/6 1586/5/6
f 1581/5/6 1582/5/6 1586/5/6
f 1580/5/6 1581/5/6 1586/5/6
f 1576/5/6 1577/5/6 1586/5/6
f 1578/5/6 1579/5/6 1586/5/6
f 1586/5/6 1585/5/6 1587/5/6
f 1587/5/6 1585/5/6 1589/5/6
f 1589/5/6 1585/5/6 1590/5/6
f 1590/5/6 1585/5/6 1591/5/6
f 1591/5/6 1585/5/6 1592/5/6
f 1592/5/6 1585/5/6 1593/5/6
f 1588/5/6 1589/5/6 1594/5/6
f 1589/5/6 1590/5/6 1594/5/6
f 1590/7/6 1591/7/6 1594/7/6
f 1591/5/6 1592/5/6 1595/5/6
f 1594/7/6 1591/7/6 1595/7/6
f 1592/7/6 1593/7/6 1596/7/6
f 1595/5/6 1592/5/6 1596/5/6
f 1593/5/6 1585/5/6 1597/5/6
f 1596/7/6 1593/7/6 1597/7/6
f 1597/5/6 1585/5/6 1598/5/6
f 1598/5/6 1585/5/6 1599/5/6
f 1595/5/6 1596/5/6 1600/5/6
f 1594/5/6 1595/5/6 1600/5/6
f 1588/5/6 1594/5/6 1600/5/6
f 1597/5/6 1598/5/6 1600/5/6
f 1596/5/6 1597/5/6 1600/5/6
f 1600/5/6 1598/5/6 1601/5/6
f 1598/7/6 1599/7/6 1602/7/6
f 1601/5/6 1598/5/6 1602/5/6
f 1599/5/6 1585/5/6 1603/5/6
f 1602/7/6 1599/7/6 1603/7/6
f 1600/7/6 1601/7/6 1604/7/6
f 1601/5/6 1602/5/6 1605/5/6
f 1604/7/6 1601/7/6 1605/7/6
f 1602/5/6 1603/5/6 1605/5/6
f 1605/5/6 1603/5/6 1606/5/6
f 1606/5/6 1603/5/6 1607/5/6
f 1607/5/6 1603/5/6 1608/5/6
f 1608/5/6 1603/5/6 1609/5/6
f 1605/5/6 1606/5/6 1610/5/6
f 1606/7/6 1607/7/6 1610/7/6
f 1607/5/6 1608/5/6 1611/5/6
f 1610/7/6 1607/7/6 1611/7/6
f 1608/7/6 1609/7/6 1612/7/6
f 1609/5/6 1603/5/6 1613/5/6
f 1612/7/6 1609/7/6 1613/7/6
f 1613/5/6 1603/5/6 1614/5/6
f 1614/5/6 1603/5/6 1615/5/6
f 1605/5/6 1610/5/6 1617/5/6
f 1610/5/6 1611/5/6 1617/5/6
f 1608/7/6 1612/7/6 1618/7/6
f 1611/5/6 1608/5/6 1618/5/6
f 1617/5/6 1611/5/6 1618/5/6
f 1612/5/6 1613/5/6 1619/5/6
f 1618/7/6 1612/7/6 1619/7/6
f 1613/5/6 1614/5/6 1619/5/6
f 1614/7/6 1615/7/6 1620/7/6
f 1619/5/6 1614/5/6 1620/5/6
f 1615/5/6 1603/5/6 1621/5/6
f 1620/7/6 1615/7/6 1621/7/6
f 1616/5/6 1617/5/6 1622/5/6
f 1619/5/6 1620/5/6 1622/5/6
f 1620/5/6 1621/5/6 1622/5/6
f 1617/5/6 1618/5/6 1622/5/6
f 1618/5/6 1619/5/6 1622/5/6
f 1622/5/6 1621/5/6 1623/5/6
f 1616/5/6 1622/5/6 1624/5/6
f 1624/5/6 1622/5/6 1625/5/6
f 1622/7/6 1623/7/6 1626/7/6
f 1625/5/6 1622/5/6 1626/5/6
f 1626/7/6 1623/7/6 1627/7/6
f 1621/5/6 1603/5/6 1628/5/6
f 1623/5/6 1621/5/6 1628/5/6
f 1628/5/6 1603/5/6 1629/5/6
f 1616/5/6 1624/5/6 1630/5/6
f 1630/5/6 1624/5/6 1631/5/6
f 1624/7/6 1625/7/6 1632/7/6
f 1631/5/6 1624/5/6 1632/5/6
f 1626/5/6 1627/5/6 1633/5/6
f 1632/7/6 1625/7/6 1633/7/6
f 1625/5/6 1626/5/6 1633/5/6
f 1627/7/6 1623/7/6 1634/7/6
f 1633/5/6 1627/5/6 1634/5/6
f 1623/5/6 1628/5/6 1635/5/6
f 1634/7/6 1623/7/6 1635/7/6
f 1628/7/6 1629/7/6 1636/7/6
f 1635/5/6 1628/5/6 1636/5/6
f 1629/5/6 1603/5/6 1637/5/6
f 1636/7/6 1629/7/6 1637/7/6
f 1632/5/6 1633/5/6 1639/5/6
f 1636/5/6 1637/5/6 1639/5/6
f 1634/5/6 1635/5/6 1639/5/6
f 1633/5/6 1634/5/6 1639/5/6
f 1631/5/6 1632/5/6 1639/5/6
f 1635/5/6 1636/5/6 1639/5/6
f 1638/7/6 1639/7/6 1640/7/6
f 1639/5/6 1637/5/6 1641/5/6
f 1640/7/6 1639/7/6 1641/7/6
f 1641/5/6 1637/5/6 1642/5/6
f 1642/5/6 1637/5/6 1643/5/6
f 1643/5/6 1637/5/6 1644/5/6
f 1644/5/6 1637/5/6 1645/5/6
f 1645/5/6 1637/5/6 1646/5/6
f 1637/5/6 1603/5/6 1647/5/6
f 1646/5/6 1637/5/6 1647/5/6
f 1603/5/6 1585/5/6 1648/5/6
f 1647/5/6 1603/5/6 1648/5/6
f 1585/6/6 1575/6/6 1649/6/6
f 1648/5/6 1585/5/6 1649/5/6
f 1641/5/6 1642/5/6 1650/5/6
f 1650/5/6 1642/5/6 1651/5/6
f 1643/5/6 1644/5/6 1652/5/6
f 1652/5/6 1644/5/6 1653/5/6
f 1645/5/6 1646/5/6 1654/5/6
f 1654/5/6 1646/5/6 1655/5/6
f 1647/5/6 1648/5/6 1656/5/6
f 1656/5/6 1648/5/6 1657/5/6
f 1649/6/6 1575/6/6 1658/6/6
f 1658/6/6 1575/6/6 1659/6/6
