# MagicaVoxel @ Ephtracy

# group
o 

# material
mtllib LeftFoot.mtl
usemtl palette

# normals
vn -1 0 0
vn 1 0 0
vn 0 0 1
vn 0 0 -1
vn 0 -1 0
vn 0 1 0

# texcoords
vt 0.888672 0.5
vt 0.892578 0.5
vt 0.896484 0.5

# verts
v -1.4 -0.8 1.1
v -1.4 -0.8 0
v -1.4 -0.7 1.2
v -1.4 -0.7 1.1
v -1.4 -0.7 1
v -1.4 -0.7 0.9
v -1.4 -0.7 0.6
v -1.4 -0.7 0.5
v -1.4 -0.7 0.4
v -1.4 -0.7 0.3
v -1.4 -0.7 0.2
v -1.4 -0.7 0
v -1.4 -0.6 1.2
v -1.4 -0.6 1
v -1.4 -0.6 0.7
v -1.4 -0.6 0.6
v -1.4 -0.6 0.5
v -1.4 -0.6 0.4
v -1.4 -0.6 0.3
v -1.4 -0.6 0.2
v -1.4 -0.5 0.9
v -1.4 -0.5 0.8
v -1.4 -0.5 0.7
v -1.4 -0.5 0.4
v -1.4 -0.5 0.3
v -1.4 -0.5 0.1
v -1.4 -0.4 1
v -1.4 -0.4 0.8
v -1.4 -0.4 0.7
v -1.4 -0.4 0.4
v -1.4 -0.4 0.3
v -1.4 -0.4 0.1
v -1.4 -0.4 0
v -1.3 -0.6 1.1
v -1.3 -0.6 1
v -1.3 -0.5 1.1
v -1.3 -0.5 1
v -1.2 -0.8 1.4
v -1.2 -0.8 1.1
v -1.2 -0.7 1.4
v -1.2 -0.7 1.2
v -1.2 -0.5 1.1
v -1.2 -0.5 1
v -1.2 -0.4 1.2
v -1.2 -0.4 1
v -1.1 -0.7 1.4
v -1.1 -0.7 1.2
v -1.1 -0.6 1.4
v -1.1 -0.6 1.2
v -0.8 -0.8 1.4
v -0.8 -0.8 1.3
v -0.8 -0.7 1.3
v -0.8 -0.6 1.4
v -0.8 -0.6 1.3
v -0.4 -0.8 1.4
v -0.4 -0.8 1.3
v -0.4 -0.7 1.3
v -0.4 -0.6 1.4
v -0.4 -0.6 1.3
v -1.3 -0.7 1.2
v -1.3 -0.7 1.1
v -1.3 -0.6 1.2
v -1.3 -0.6 1.1
v -1 -0.8 1.4
v -1 -0.8 1.3
v -1 -0.7 1.4
v -1 -0.7 1.3
v -1 -0.6 1.4
v -1 -0.6 1.3
v -0.5 -0.8 1.4
v -0.5 -0.8 1.3
v -0.5 -0.7 1.4
v -0.5 -0.7 1.3
v -0.5 -0.6 1.4
v -0.5 -0.6 1.3
v 0.1 -0.8 1.4
v 0.1 -0.8 1.3
v 0.1 -0.7 1.4
v 0.1 -0.7 1.3
v 0.4 -0.7 1.4
v 0.4 -0.7 1.3
v 0.4 -0.6 1.4
v 0.4 -0.6 1.3
v 0.5 -0.7 1.3
v 0.5 -0.7 1.1
v 0.5 -0.7 1
v 0.5 -0.6 1.3
v 0.5 -0.6 1.2
v 0.5 -0.5 1.2
v 0.5 -0.5 1.1
v 0.5 -0.5 1
v 0.7 -0.8 1.3
v 0.7 -0.8 1.2
v 0.7 -0.7 1.3
v 0.7 -0.7 1.2
v 0.9 -0.8 1.2
v 0.9 -0.8 0.7
v 0.9 -0.7 1.2
v 0.9 -0.7 1
v 0.9 -0.7 0.9
v 0.9 -0.7 0.7
v 1.1 -0.5 1.2
v 1.1 -0.5 1.1
v 1.1 -0.4 1.2
v 1.1 -0.4 1.1
v 1.2 -0.7 1
v 1.2 -0.7 0.9
v 1.2 -0.6 1
v 1.2 -0.6 0.9
v 1.2 -0.6 0.8
v 1.2 -0.6 0.5
v 1.2 -0.6 0.3
v 1.2 -0.6 0
v 1.2 -0.5 1.1
v 1.2 -0.5 1
v 1.2 -0.5 0.8
v 1.2 -0.5 0.5
v 1.2 -0.5 0.3
v 1.2 -0.5 0
v 1.2 -0.4 1.1
v 1.2 -0.4 1
v 1.2 -0.4 0.8
v 1.2 -0.4 0
v 1.3 -0.8 0.7
v 1.3 -0.8 0.5
v 1.3 -0.8 0.2
v 1.3 -0.8 0
v 1.3 -0.7 0.9
v 1.3 -0.7 0.8
v 1.3 -0.7 0.7
v 1.3 -0.7 0.5
v 1.3 -0.7 0.4
v 1.3 -0.7 0.3
v 1.3 -0.7 0.2
v 1.3 -0.7 0.1
v 1.3 -0.6 0.9
v 1.3 -0.6 0.8
v 1.3 -0.6 0.7
v 1.3 -0.6 0.5
v 1.3 -0.6 0.4
v 1.3 -0.6 0.3
v 1.3 -0.6 0.1
v 1.3 -0.6 0
v 1.4 -0.8 0.5
v 1.4 -0.8 0.2
v 1.4 -0.7 0.8
v 1.4 -0.7 0.7
v 1.4 -0.7 0.5
v 1.4 -0.7 0.4
v 1.4 -0.7 0.3
v 1.4 -0.7 0.2
v 1.4 -0.7 0.1
v 1.4 -0.6 0.8
v 1.4 -0.6 0.7
v 1.4 -0.6 0.5
v 1.4 -0.6 0.4
v 1.4 -0.6 0.3
v 1.4 -0.6 0.1
v -1.2 -0.8 1.4
v -1.2 -0.7 1.4
v -1.1 -0.7 1.4
v -1.1 -0.6 1.4
v -1 -0.8 1.4
v -1 -0.7 1.4
v -1 -0.6 1.4
v -0.8 -0.8 1.4
v -0.8 -0.6 1.4
v -0.6 -0.7 1.4
v -0.6 -0.6 1.4
v -0.5 -0.8 1.4
v -0.5 -0.7 1.4
v -0.5 -0.6 1.4
v -0.4 -0.8 1.4
v -0.4 -0.6 1.4
v -0.2 -0.7 1.4
v -0.2 -0.6 1.4
v 0.1 -0.8 1.4
v 0.1 -0.7 1.4
v 0.1 -0.6 1.4
v 0.3 -0.7 1.4
v 0.3 -0.6 1.4
v 0.4 -0.7 1.4
v 0.4 -0.6 1.4
v -1 -0.8 1.3
v -1 -0.7 1.3
v -1 -0.6 1.3
v -0.8 -0.8 1.3
v -0.8 -0.7 1.3
v -0.8 -0.6 1.3
v -0.5 -0.8 1.3
v -0.5 -0.7 1.3
v -0.5 -0.6 1.3
v -0.4 -0.8 1.3
v -0.4 -0.7 1.3
v -0.4 -0.6 1.3
v 0.1 -0.8 1.3
v 0.1 -0.7 1.3
v 0.3 -0.7 1.3
v 0.4 -0.7 1.3
v 0.4 -0.6 1.3
v 0.5 -0.7 1.3
v 0.5 -0.6 1.3
v 0.7 -0.8 1.3
v 0.7 -0.7 1.3
v -1.4 -0.7 1.2
v -1.4 -0.6 1.2
v -1.3 -0.7 1.2
v -1.3 -0.6 1.2
v -1.2 -0.7 1.2
v -1.2 -0.4 1.2
v -1.1 -0.7 1.2
v -1.1 -0.6 1.2
v -1.1 -0.4 1.2
v -0.8 -0.6 1.2
v -0.8 -0.5 1.2
v -0.6 -0.6 1.2
v -0.6 -0.5 1.2
v -0.4 -0.6 1.2
v -0.4 -0.5 1.2
v -0.2 -0.6 1.2
v -0.2 -0.5 1.2
v 0.1 -0.6 1.2
v 0.2 -0.6 1.2
v 0.2 -0.4 1.2
v 0.5 -0.6 1.2
v 0.5 -0.5 1.2
v 0.5 -0.4 1.2
v 0.7 -0.8 1.2
v 0.7 -0.7 1.2
v 0.9 -0.8 1.2
v 0.9 -0.7 1.2
v 1.1 -0.5 1.2
v 1.1 -0.4 1.2
v -1.4 -0.8 1.1
v -1.4 -0.7 1.1
v -1.3 -0.7 1.1
v -1.3 -0.6 1.1
v -1.3 -0.5 1.1
v -1.2 -0.8 1.1
v -1.2 -0.5 1.1
v 1.1 -0.5 1.1
v 1.1 -0.4 1.1
v 1.2 -0.5 1.1
v 1.2 -0.4 1.1
v -1.4 -0.6 1
v -1.4 -0.4 1
v -1.3 -0.6 1
v -1.3 -0.5 1
v -1.3 -0.4 1
v -1.2 -0.5 1
v -1.2 -0.4 1
v 0.5 -0.7 1
v 0.5 -0.5 1
v 0.7 -0.7 1
v 0.7 -0.5 1
v 0.8 -0.5 1
v 0.9 -0.7 1
v 0.9 -0.5 1
v 1.1 -0.7 1
v 1.1 -0.6 1
v 1.2 -0.7 1
v 1.2 -0.6 1
v 1.2 -0.5 1
v 1.2 -0.7 0.9
v 1.2 -0.6 0.9
v 1.3 -0.7 0.9
v 1.3 -0.6 0.9
v 1.3 -0.7 0.8
v 1.3 -0.6 0.8
v 1.4 -0.7 0.8
v 1.4 -0.6 0.8
v 0.9 -0.8 0.7
v 0.9 -0.7 0.7
v 1.1 -0.7 0.7
v 1.3 -0.8 0.7
v 1.3 -0.7 0.7
v 1.3 -0.8 0.5
v 1.3 -0.7 0.5
v 1.3 -0.6 0.5
v 1.4 -0.8 0.5
v 1.4 -0.7 0.5
v 1.4 -0.6 0.5
v 1.3 -0.7 0.3
v 1.3 -0.6 0.3
v 1.4 -0.7 0.3
v 1.4 -0.6 0.3
v 1.3 -0.7 0.7
v 1.3 -0.6 0.7
v 1.4 -0.7 0.7
v 1.4 -0.6 0.7
v 1.3 -0.7 0.4
v 1.3 -0.6 0.4
v 1.4 -0.7 0.4
v 1.4 -0.6 0.4
v 1.3 -0.8 0.2
v 1.3 -0.7 0.2
v 1.4 -0.8 0.2
v 1.4 -0.7 0.2
v 1.3 -0.7 0.1
v 1.3 -0.6 0.1
v 1.4 -0.7 0.1
v 1.4 -0.6 0.1
v -1.4 -0.8 0
v -1.4 -0.7 0
v -1.4 -0.4 0
v -1.3 -0.5 0
v -1.3 -0.4 0
v -1.1 -0.7 0
v -1.1 -0.5 0
v 1 -0.7 0
v 1 -0.6 0
v 1.1 -0.7 0
v 1.1 -0.6 0
v 1.1 -0.5 0
v 1.1 -0.4 0
v 1.2 -0.6 0
v 1.2 -0.5 0
v 1.2 -0.4 0
v 1.3 -0.8 0
v 1.3 -0.6 0
v -1.2 -0.8 1.4
v -1 -0.8 1.4
v -0.8 -0.8 1.4
v -0.5 -0.8 1.4
v -0.4 -0.8 1.4
v 0.1 -0.8 1.4
v -1 -0.8 1.3
v -0.8 -0.8 1.3
v -0.5 -0.8 1.3
v -0.4 -0.8 1.3
v 0.1 -0.8 1.3
v 0.7 -0.8 1.3
v 0.7 -0.8 1.2
v 0.9 -0.8 1.2
v -1.4 -0.8 1.1
v -1.2 -0.8 1.1
v 0.9 -0.8 0.7
v 1.3 -0.8 0.7
v 1.3 -0.8 0.5
v 1.4 -0.8 0.5
v 1.3 -0.8 0.2
v 1.4 -0.8 0.2
v -1.4 -0.8 0
v 1.3 -0.8 0
v 0.1 -0.7 1.4
v 0.3 -0.7 1.4
v 0.4 -0.7 1.4
v 0.1 -0.7 1.3
v 0.3 -0.7 1.3
v 0.4 -0.7 1.3
v -1.4 -0.7 1.2
v -1.3 -0.7 1.2
v -1.4 -0.7 1.1
v -1.3 -0.7 1.1
v 0.9 -0.7 1
v 1.1 -0.7 1
v 1.2 -0.7 1
v 0.9 -0.7 0.9
v 1.1 -0.7 0.9
v 1.2 -0.7 0.9
v 1.3 -0.7 0.9
v 1.1 -0.7 0.8
v 1.3 -0.7 0.8
v 1.4 -0.7 0.8
v 0.9 -0.7 0.7
v 1.1 -0.7 0.7
v 1.3 -0.7 0.7
v 1.4 -0.7 0.7
v 1.3 -0.7 0.2
v 1.4 -0.7 0.2
v 1.3 -0.7 0.1
v 1.4 -0.7 0.1
v 0.5 -0.5 1.2
v 1.1 -0.5 1.2
v 0.5 -0.5 1.1
v 0.8 -0.5 1.1
v 1.1 -0.5 1.1
v 1.2 -0.5 1.1
v 0.5 -0.5 1
v 0.7 -0.5 1
v 0.8 -0.5 1
v 0.9 -0.5 1
v 1.2 -0.5 1
v -1.2 -0.7 1.4
v -1.1 -0.7 1.4
v 0.5 -0.7 1.3
v 0.7 -0.7 1.3
v -1.2 -0.7 1.2
v -1.1 -0.7 1.2
v 0.7 -0.7 1.2
v 0.9 -0.7 1.2
v 0.5 -0.7 1.1
v 0.5 -0.7 1
v 0.7 -0.7 1
v 0.9 -0.7 1
v 1.3 -0.7 0.4
v 1.4 -0.7 0.4
v 1.3 -0.7 0.3
v 1.4 -0.7 0.3
v -1.1 -0.6 1.4
v -1 -0.6 1.4
v -0.8 -0.6 1.4
v -0.6 -0.6 1.4
v -0.5 -0.6 1.4
v -0.4 -0.6 1.4
v -0.2 -0.6 1.4
v 0.1 -0.6 1.4
v 0.3 -0.6 1.4
v 0.4 -0.6 1.4
v -1 -0.6 1.3
v -0.8 -0.6 1.3
v -0.5 -0.6 1.3
v -0.4 -0.6 1.3
v 0.3 -0.6 1.3
v 0.4 -0.6 1.3
v 0.5 -0.6 1.3
v -1.4 -0.6 1.2
v -1.3 -0.6 1.2
v -1.1 -0.6 1.2
v -0.8 -0.6 1.2
v -0.6 -0.6 1.2
v -0.4 -0.6 1.2
v -0.2 -0.6 1.2
v 0.1 -0.6 1.2
v 0.2 -0.6 1.2
v 0.5 -0.6 1.2
v -1.3 -0.6 1.1
v -1.4 -0.6 1
v -1.3 -0.6 1
v 1.2 -0.6 0.9
v 1.3 -0.6 0.9
v 1.2 -0.6 0.8
v 1.3 -0.6 0.8
v 1.4 -0.6 0.8
v 1.3 -0.6 0.7
v 1.4 -0.6 0.7
v 1.2 -0.6 0.5
v 1.3 -0.6 0.5
v 1.4 -0.6 0.5
v 1.3 -0.6 0.4
v 1.4 -0.6 0.4
v 1.2 -0.6 0.3
v 1.3 -0.6 0.3
v 1.4 -0.6 0.3
v 1.3 -0.6 0.1
v 1.4 -0.6 0.1
v 1.2 -0.6 0
v 1.3 -0.6 0
v -1.3 -0.5 1.1
v -1.2 -0.5 1.1
v -1.3 -0.5 1
v -1.2 -0.5 1
v -1.2 -0.4 1.2
v -1.1 -0.4 1.2
v 0.2 -0.4 1.2
v 0.5 -0.4 1.2
v 1.1 -0.4 1.2
v -1.1 -0.4 1.1
v -1 -0.4 1.1
v -0.4 -0.4 1.1
v -0.1 -0.4 1.1
v 0.5 -0.4 1.1
v 0.8 -0.4 1.1
v 1.1 -0.4 1.1
v 1.2 -0.4 1.1
v -1.4 -0.4 1
v -1.3 -0.4 1
v -1.2 -0.4 1
v -1.1 -0.4 1
v 0.2 -0.4 1
v 0.5 -0.4 1
v 1.1 -0.4 1
v 1.2 -0.4 1
v -1 -0.4 0.9
v -0.4 -0.4 0.9
v -0.1 -0.4 0.9
v 0.5 -0.4 0.9
v -1.4 -0.4 0.8
v -1.3 -0.4 0.8
v 1.1 -0.4 0.8
v 1.2 -0.4 0.8
v -1.4 -0.4 0.7
v -1.3 -0.4 0.7
v 0.8 -0.4 0.6
v 1.1 -0.4 0.6
v 0.9 -0.4 0.5
v 1.1 -0.4 0.5
v -1.4 -0.4 0.4
v -1.3 -0.4 0.4
v -1.4 -0.4 0.3
v -1.3 -0.4 0.3
v 0.9 -0.4 0.3
v 1.1 -0.4 0.3
v -1.4 -0.4 0.1
v -1.3 -0.4 0.1
v -1.4 -0.4 0
v -1.3 -0.4 0
v 1.1 -0.4 0
v 1.2 -0.4 0

# faces
f 4/3/1 2/3/1 1/3/1
f 5/3/1 2/3/1 4/3/1
f 6/3/1 2/3/1 5/3/1
f 7/3/1 2/3/1 6/3/1
f 8/3/1 2/3/1 7/3/1
f 9/3/1 2/3/1 8/3/1
f 10/3/1 2/3/1 9/3/1
f 11/3/1 2/3/1 10/3/1
f 12/3/1 2/3/1 11/3/1
f 13/3/1 4/3/1 3/3/1
f 13/3/1 5/3/1 4/3/1
f 14/2/1 6/2/1 5/2/1
f 14/3/1 5/3/1 13/3/1
f 15/3/1 7/3/1 6/3/1
f 16/2/1 8/2/1 7/2/1
f 16/3/1 7/3/1 15/3/1
f 17/3/1 9/3/1 8/3/1
f 17/2/1 8/2/1 16/2/1
f 18/2/1 10/2/1 9/2/1
f 18/3/1 9/3/1 17/3/1
f 19/3/1 11/3/1 10/3/1
f 19/2/1 10/2/1 18/2/1
f 20/2/1 12/2/1 11/2/1
f 20/3/1 11/3/1 19/3/1
f 21/2/1 6/2/1 14/2/1
f 21/3/1 15/3/1 6/3/1
f 22/3/1 15/3/1 21/3/1
f 23/2/1 19/2/1 18/2/1
f 23/3/1 15/3/1 22/3/1
f 23/2/1 20/2/1 19/2/1
f 23/2/1 16/2/1 15/2/1
f 23/2/1 18/2/1 17/2/1
f 23/2/1 17/2/1 16/2/1
f 24/2/1 20/2/1 23/2/1
f 25/2/1 20/2/1 24/2/1
f 26/2/1 12/2/1 20/2/1
f 26/2/1 20/2/1 25/2/1
f 27/2/1 22/2/1 21/2/1
f 27/2/1 21/2/1 14/2/1
f 28/1/1 23/1/1 22/1/1
f 28/2/1 22/2/1 27/2/1
f 29/3/1 24/3/1 23/3/1
f 29/1/1 23/1/1 28/1/1
f 30/2/1 25/2/1 24/2/1
f 30/3/1 24/3/1 29/3/1
f 31/1/1 26/1/1 25/1/1
f 31/2/1 25/2/1 30/2/1
f 32/2/1 12/2/1 26/2/1
f 32/1/1 26/1/1 31/1/1
f 33/2/1 12/2/1 32/2/1
f 36/3/1 35/3/1 34/3/1
f 37/3/1 35/3/1 36/3/1
f 40/3/1 39/3/1 38/3/1
f 41/3/1 39/3/1 40/3/1
f 42/3/1 39/3/1 41/3/1
f 44/3/1 42/3/1 41/3/1
f 44/3/1 43/3/1 42/3/1
f 45/3/1 43/3/1 44/3/1
f 48/2/1 47/2/1 46/2/1
f 49/2/1 47/2/1 48/2/1
f 52/3/1 51/3/1 50/3/1
f 53/3/1 52/3/1 50/3/1
f 54/3/1 52/3/1 53/3/1
f 57/3/1 56/3/1 55/3/1
f 58/3/1 57/3/1 55/3/1
f 59/3/1 57/3/1 58/3/1
f 60/3/2 61/3/2 62/3/2
f 62/3/2 61/3/2 63/3/2
f 64/3/2 65/3/2 66/3/2
f 66/3/2 65/3/2 67/3/2
f 66/2/2 67/2/2 68/2/2
f 68/2/2 67/2/2 69/2/2
f 70/3/2 71/3/2 72/3/2
f 72/3/2 71/3/2 73/3/2
f 72/2/2 73/2/2 74/2/2
f 74/2/2 73/2/2 75/2/2
f 76/3/2 77/3/2 78/3/2
f 78/3/2 77/3/2 79/3/2
f 80/2/2 81/2/2 82/2/2
f 82/2/2 81/2/2 83/2/2
f 84/3/2 85/3/2 87/3/2
f 87/3/2 85/3/2 88/3/2
f 88/3/2 85/3/2 89/3/2
f 85/2/2 86/2/2 90/2/2
f 89/3/2 85/3/2 90/3/2
f 90/2/2 86/2/2 91/2/2
f 92/3/2 93/3/2 94/3/2
f 94/3/2 93/3/2 95/3/2
f 96/3/2 97/3/2 98/3/2
f 98/3/2 97/3/2 99/3/2
f 99/3/2 97/3/2 100/3/2
f 100/3/2 97/3/2 101/3/2
f 102/2/2 103/2/2 104/2/2
f 104/2/2 103/2/2 105/2/2
f 106/2/2 107/2/2 108/2/2
f 108/2/2 107/2/2 109/2/2
f 108/3/2 109/3/2 115/3/2
f 109/3/2 110/3/2 115/3/2
f 110/3/2 111/3/2 115/3/2
f 115/3/2 111/3/2 116/3/2
f 111/2/2 112/2/2 117/2/2
f 116/3/2 111/3/2 117/3/2
f 112/3/2 113/3/2 118/3/2
f 117/2/2 112/2/2 118/2/2
f 118/3/2 113/3/2 119/3/2
f 114/2/2 115/2/2 120/2/2
f 115/3/2 116/3/2 121/3/2
f 120/2/2 115/2/2 121/2/2
f 116/2/2 117/2/2 122/2/2
f 121/3/2 116/3/2 122/3/2
f 117/2/2 118/2/2 122/2/2
f 118/2/2 119/2/2 122/2/2
f 122/2/2 119/2/2 123/2/2
f 124/3/2 125/3/2 130/3/2
f 130/3/2 125/3/2 131/3/2
f 126/3/2 127/3/2 134/3/2
f 134/3/2 127/3/2 135/3/2
f 128/2/2 129/2/2 136/2/2
f 136/2/2 129/2/2 137/2/2
f 130/3/2 131/3/2 138/3/2
f 138/3/2 131/3/2 139/3/2
f 132/2/2 133/2/2 140/2/2
f 140/2/2 133/2/2 141/2/2
f 135/3/2 127/3/2 142/3/2
f 142/3/2 127/3/2 143/3/2
f 144/3/2 145/3/2 148/3/2
f 148/3/2 145/3/2 149/3/2
f 149/3/2 145/3/2 150/3/2
f 150/3/2 145/3/2 151/3/2
f 146/3/2 147/3/2 153/3/2
f 153/3/2 147/3/2 154/3/2
f 148/2/2 149/2/2 155/2/2
f 155/2/2 149/2/2 156/2/2
f 151/3/2 152/3/2 157/3/2
f 150/3/2 151/3/2 157/3/2
f 157/3/2 152/3/2 158/3/2
f 161/3/3 160/3/3 159/3/3
f 163/3/3 161/3/3 159/3/3
f 164/2/3 162/2/3 161/2/3
f 164/3/3 161/3/3 163/3/3
f 165/2/3 162/2/3 164/2/3
f 168/3/3 167/3/3 166/3/3
f 169/3/3 167/3/3 168/3/3
f 170/3/3 168/3/3 166/3/3
f 171/2/3 169/2/3 168/2/3
f 171/3/3 168/3/3 170/3/3
f 172/2/3 169/2/3 171/2/3
f 175/3/3 174/3/3 173/3/3
f 176/3/3 174/3/3 175/3/3
f 177/3/3 175/3/3 173/3/3
f 178/2/3 176/2/3 175/2/3
f 178/3/3 175/3/3 177/3/3
f 179/2/3 176/2/3 178/2/3
f 180/3/3 179/3/3 178/3/3
f 181/3/3 179/3/3 180/3/3
f 182/2/3 181/2/3 180/2/3
f 183/2/3 181/2/3 182/2/3
f 187/3/3 185/3/3 184/3/3
f 188/2/3 186/2/3 185/2/3
f 188/3/3 185/3/3 187/3/3
f 189/2/3 186/2/3 188/2/3
f 193/3/3 191/3/3 190/3/3
f 194/2/3 192/2/3 191/2/3
f 194/3/3 191/3/3 193/3/3
f 195/2/3 192/2/3 194/2/3
f 198/3/3 197/3/3 196/3/3
f 199/3/3 198/3/3 196/3/3
f 201/3/3 199/3/3 196/3/3
f 201/3/3 200/3/3 199/3/3
f 202/3/3 200/3/3 201/3/3
f 203/3/3 201/3/3 196/3/3
f 204/3/3 201/3/3 203/3/3
f 207/3/3 206/3/3 205/3/3
f 208/3/3 206/3/3 207/3/3
f 211/3/3 210/3/3 209/3/3
f 212/3/3 210/3/3 211/3/3
f 213/3/3 210/3/3 212/3/3
f 214/2/3 213/2/3 212/2/3
f 215/2/3 213/2/3 214/2/3
f 216/3/3 215/3/3 214/3/3
f 217/2/3 213/2/3 215/2/3
f 217/3/3 215/3/3 216/3/3
f 218/2/3 217/2/3 216/2/3
f 219/2/3 213/2/3 217/2/3
f 219/2/3 217/2/3 218/2/3
f 220/3/3 219/3/3 218/3/3
f 221/2/3 213/2/3 219/2/3
f 221/3/3 219/3/3 220/3/3
f 222/2/3 221/2/3 220/2/3
f 223/2/3 221/2/3 222/2/3
f 224/2/3 213/2/3 221/2/3
f 224/2/3 221/2/3 223/2/3
f 225/3/3 224/3/3 223/3/3
f 226/3/3 224/3/3 225/3/3
f 227/3/3 224/3/3 226/3/3
f 230/3/3 229/3/3 228/3/3
f 231/3/3 229/3/3 230/3/3
f 232/2/3 227/2/3 226/2/3
f 233/2/3 227/2/3 232/2/3
f 236/3/3 235/3/3 234/3/3
f 239/3/3 236/3/3 234/3/3
f 239/3/3 238/3/3 237/3/3
f 239/3/3 237/3/3 236/3/3
f 240/3/3 238/3/3 239/3/3
f 243/2/3 242/2/3 241/2/3
f 244/2/3 242/2/3 243/2/3
f 247/2/3 246/2/3 245/2/3
f 248/2/3 246/2/3 247/2/3
f 249/2/3 246/2/3 248/2/3
f 250/1/3 249/1/3 248/1/3
f 251/1/3 249/1/3 250/1/3
f 254/3/3 253/3/3 252/3/3
f 255/3/3 253/3/3 254/3/3
f 256/2/3 255/2/3 254/2/3
f 257/2/3 256/2/3 254/2/3
f 258/2/3 256/2/3 257/2/3
f 259/3/3 258/3/3 257/3/3
f 260/3/3 258/3/3 259/3/3
f 261/2/3 260/2/3 259/2/3
f 262/3/3 258/3/3 260/3/3
f 262/2/3 260/2/3 261/2/3
f 263/3/3 258/3/3 262/3/3
f 266/2/3 265/2/3 264/2/3
f 267/2/3 265/2/3 266/2/3
f 270/3/3 269/3/3 268/3/3
f 271/3/3 269/3/3 270/3/3
f 274/3/3 273/3/3 272/3/3
f 275/3/3 274/3/3 272/3/3
f 276/3/3 274/3/3 275/3/3
f 280/3/3 278/3/3 277/3/3
f 281/2/3 279/2/3 278/2/3
f 281/3/3 278/3/3 280/3/3
f 282/2/3 279/2/3 281/2/3
f 285/3/3 284/3/3 283/3/3
f 286/3/3 284/3/3 285/3/3
f 287/3/4 288/3/4 289/3/4
f 289/3/4 288/3/4 290/3/4
f 291/2/4 292/2/4 293/2/4
f 293/2/4 292/2/4 294/2/4
f 295/3/4 296/3/4 297/3/4
f 297/3/4 296/3/4 298/3/4
f 299/3/4 300/3/4 301/3/4
f 301/3/4 300/3/4 302/3/4
f 304/2/4 305/2/4 306/2/4
f 306/2/4 305/2/4 307/2/4
f 303/3/4 304/3/4 308/3/4
f 304/2/4 306/2/4 308/2/4
f 306/1/4 307/1/4 309/1/4
f 308/2/4 306/2/4 309/2/4
f 303/3/4 308/3/4 310/3/4
f 308/1/4 309/1/4 310/1/4
f 310/1/4 309/1/4 311/1/4
f 303/3/4 310/3/4 312/3/4
f 310/2/4 311/2/4 312/2/4
f 311/1/4 309/1/4 313/1/4
f 312/2/4 311/2/4 313/2/4
f 309/1/4 307/1/4 314/1/4
f 313/1/4 309/1/4 314/1/4
f 314/1/4 307/1/4 315/1/4
f 312/3/4 313/3/4 316/3/4
f 313/3/4 314/3/4 316/3/4
f 314/2/4 315/2/4 317/2/4
f 316/3/4 314/3/4 317/3/4
f 317/2/4 315/2/4 318/2/4
f 303/3/4 312/3/4 319/3/4
f 312/3/4 316/3/4 319/3/4
f 319/3/4 316/3/4 320/3/4
f 327/3/5 322/3/5 321/3/5
f 328/3/5 324/3/5 323/3/5
f 329/3/5 324/3/5 328/3/5
f 330/3/5 326/3/5 325/3/5
f 331/3/5 326/3/5 330/3/5
f 333/3/5 329/3/5 328/3/5
f 333/3/5 332/3/5 331/3/5
f 333/3/5 331/3/5 330/3/5
f 333/3/5 330/3/5 329/3/5
f 333/3/5 328/3/5 327/3/5
f 336/3/5 327/3/5 321/3/5
f 336/3/5 334/3/5 333/3/5
f 336/3/5 333/3/5 327/3/5
f 337/3/5 334/3/5 336/3/5
f 337/3/5 336/3/5 335/3/5
f 339/3/5 338/3/5 337/3/5
f 341/3/5 339/3/5 337/3/5
f 341/3/5 340/3/5 339/3/5
f 342/3/5 340/3/5 341/3/5
f 343/3/5 337/3/5 335/3/5
f 343/3/5 341/3/5 337/3/5
f 344/3/5 341/3/5 343/3/5
f 348/3/5 346/3/5 345/3/5
f 349/2/5 347/2/5 346/2/5
f 349/3/5 346/3/5 348/3/5
f 350/2/5 347/2/5 349/2/5
f 353/3/5 352/3/5 351/3/5
f 354/3/5 352/3/5 353/3/5
f 358/3/5 356/3/5 355/3/5
f 359/2/5 357/2/5 356/2/5
f 359/3/5 356/3/5 358/3/5
f 360/2/5 357/2/5 359/2/5
f 362/2/5 359/2/5 358/2/5
f 362/2/5 361/2/5 360/2/5
f 362/2/5 360/2/5 359/2/5
f 363/2/5 361/2/5 362/2/5
f 365/2/5 362/2/5 358/2/5
f 366/3/5 364/3/5 363/3/5
f 366/2/5 362/2/5 365/2/5
f 366/3/5 363/3/5 362/3/5
f 367/3/5 364/3/5 366/3/5
f 368/3/5 364/3/5 367/3/5
f 371/3/5 370/3/5 369/3/5
f 372/3/5 370/3/5 371/3/5
f 375/2/5 374/2/5 373/2/5
f 376/2/5 374/2/5 375/2/5
f 377/2/5 374/2/5 376/2/5
f 379/1/5 376/1/5 375/1/5
f 380/1/5 376/1/5 379/1/5
f 381/2/5 378/2/5 377/2/5
f 381/1/5 376/1/5 380/1/5
f 381/2/5 377/2/5 376/2/5
f 382/2/5 378/2/5 381/2/5
f 383/2/5 378/2/5 382/2/5
f 384/3/6 385/3/6 388/3/6
f 388/3/6 385/3/6 389/3/6
f 386/3/6 387/3/6 390/3/6
f 390/3/6 391/3/6 392/3/6
f 386/3/6 390/3/6 392/3/6
f 392/3/6 391/3/6 393/3/6
f 393/3/6 391/3/6 394/3/6
f 394/3/6 391/3/6 395/3/6
f 396/3/6 397/3/6 398/3/6
f 398/3/6 397/3/6 399/3/6
f 400/2/6 401/2/6 410/2/6
f 402/3/6 403/3/6 411/3/6
f 403/2/6 404/2/6 412/2/6
f 405/3/6 406/3/6 413/3/6
f 408/2/6 409/2/6 414/2/6
f 407/3/6 408/3/6 414/3/6
f 414/2/6 409/2/6 415/2/6
f 400/2/6 410/2/6 419/2/6
f 410/2/6 411/2/6 419/2/6
f 411/3/6 403/3/6 420/3/6
f 419/2/6 411/2/6 420/2/6
f 412/2/6 413/2/6 421/2/6
f 420/3/6 403/3/6 421/3/6
f 403/2/6 412/2/6 421/2/6
f 413/3/6 406/3/6 422/3/6
f 421/2/6 413/2/6 422/2/6
f 406/2/6 407/2/6 423/2/6
f 422/3/6 406/3/6 423/3/6
f 415/3/6 416/3/6 424/3/6
f 423/2/6 407/2/6 424/2/6
f 414/3/6 415/3/6 424/3/6
f 407/3/6 414/3/6 424/3/6
f 424/3/6 416/3/6 425/3/6
f 425/3/6 416/3/6 426/3/6
f 417/3/6 418/3/6 427/3/6
f 417/3/6 427/3/6 428/3/6
f 428/3/6 427/3/6 429/3/6
f 430/2/6 431/2/6 432/2/6
f 432/2/6 431/2/6 433/2/6
f 432/3/6 433/3/6 435/3/6
f 433/3/6 434/3/6 435/3/6
f 435/3/6 434/3/6 436/3/6
f 432/3/6 435/3/6 437/3/6
f 437/3/6 435/3/6 438/3/6
f 437/2/6 438/2/6 440/2/6
f 438/2/6 439/2/6 440/2/6
f 440/2/6 439/2/6 441/2/6
f 437/2/6 440/2/6 442/2/6
f 442/2/6 440/2/6 443/2/6
f 442/3/6 443/3/6 445/3/6
f 443/3/6 444/3/6 445/3/6
f 445/3/6 444/3/6 446/3/6
f 442/3/6 445/3/6 447/3/6
f 447/3/6 445/3/6 448/3/6
f 449/3/6 450/3/6 451/3/6
f 451/3/6 450/3/6 452/3/6
f 453/3/6 454/3/6 458/3/6
f 454/2/6 455/2/6 458/2/6
f 458/2/6 455/2/6 459/2/6
f 459/2/6 455/2/6 460/2/6
f 460/2/6 455/2/6 461/2/6
f 456/2/6 457/2/6 462/2/6
f 455/3/6 456/3/6 462/3/6
f 462/2/6 457/2/6 463/2/6
f 463/2/6 457/2/6 464/2/6
f 453/3/6 458/3/6 468/3/6
f 458/1/6 459/1/6 469/1/6
f 468/3/6 458/3/6 469/3/6
f 461/2/6 455/2/6 470/2/6
f 455/3/6 462/3/6 470/3/6
f 462/1/6 463/1/6 471/1/6
f 470/3/6 462/3/6 471/3/6
f 463/2/6 464/2/6 472/2/6
f 464/2/6 465/2/6 472/2/6
f 472/2/6 465/2/6 473/2/6
f 469/1/6 459/1/6 474/1/6
f 467/1/6 468/1/6 474/1/6
f 459/2/6 460/2/6 474/2/6
f 468/1/6 469/1/6 474/1/6
f 460/1/6 461/1/6 475/1/6
f 474/2/6 460/2/6 475/2/6
f 461/2/6 470/2/6 476/2/6
f 475/1/6 461/1/6 476/1/6
f 470/2/6 471/2/6 476/2/6
f 471/1/6 463/1/6 477/1/6
f 476/2/6 471/2/6 477/2/6
f 466/2/6 467/2/6 478/2/6
f 467/1/6 474/1/6 479/1/6
f 478/2/6 467/2/6 479/2/6
f 474/1/6 475/1/6 479/1/6
f 476/1/6 477/1/6 479/1/6
f 475/1/6 476/1/6 479/1/6
f 472/3/6 473/3/6 480/3/6
f 463/2/6 472/2/6 480/2/6
f 480/3/6 473/3/6 481/3/6
f 478/1/6 479/1/6 482/1/6
f 479/1/6 477/1/6 483/1/6
f 482/1/6 479/1/6 483/1/6
f 477/1/6 463/1/6 484/1/6
f 483/1/6 477/1/6 484/1/6
f 463/2/6 480/2/6 484/2/6
f 480/2/6 481/2/6 484/2/6
f 484/2/6 481/2/6 485/2/6
f 484/1/6 485/1/6 486/1/6
f 485/2/6 481/2/6 487/2/6
f 486/1/6 485/1/6 487/1/6
f 482/3/6 483/3/6 488/3/6
f 483/1/6 484/1/6 489/1/6
f 488/3/6 483/3/6 489/3/6
f 484/1/6 486/1/6 489/1/6
f 488/2/6 489/2/6 490/2/6
f 489/1/6 486/1/6 491/1/6
f 490/2/6 489/2/6 491/2/6
f 486/2/6 487/2/6 492/2/6
f 491/1/6 486/1/6 492/1/6
f 487/2/6 481/2/6 493/2/6
f 492/2/6 487/2/6 493/2/6
f 491/1/6 492/1/6 494/1/6
f 490/1/6 491/1/6 494/1/6
f 492/1/6 493/1/6 494/1/6
f 494/1/6 493/1/6 495/1/6
f 494/2/6 495/2/6 496/2/6
f 495/1/6 493/1/6 497/1/6
f 496/2/6 495/2/6 497/2/6
f 493/2/6 481/2/6 498/2/6
f 497/1/6 493/1/6 498/1/6
f 498/2/6 481/2/6 499/2/6
