# MagicaVoxel @ Ephtracy

# group
o 

# material
mtllib RightFoot.mtl
usemtl palette

# normals
vn -1 0 0
vn 1 0 0
vn 0 0 1
vn 0 0 -1
vn 0 -1 0
vn 0 1 0

# texcoords
vt 0.888672 0.5
vt 0.892578 0.5
vt 0.896484 0.5

# verts
v -1.4 -0.8 2.23517e-08
v -1.4 -0.8 -1
v -1.4 -0.7 -0.3
v -1.4 -0.7 -0.6
v -1.4 -0.7 -1
v -1.4 -0.7 -1.1
v -1.4 -0.6 -0.6
v -1.4 -0.6 -0.7
v -1.4 -0.6 -1
v -1.4 -0.6 -1.1
v -1.4 -0.5 2.23517e-08
v -1.4 -0.5 -0.1
v -1.4 -0.5 -0.3
v -1.4 -0.5 -0.5
v -1.4 -0.5 -0.6
v -1.4 -0.5 -0.7
v -1.4 -0.5 -0.8
v -1.4 -0.5 -1
v -1.4 -0.4 2.23517e-08
v -1.4 -0.4 -0.1
v -1.4 -0.4 -0.3
v -1.4 -0.4 -0.5
v -1.4 -0.4 -0.6
v -1.4 -0.4 -0.7
v -1.4 -0.4 -0.8
v -1.4 -0.4 -1
v -1.3 -0.8 -1
v -1.3 -0.8 -1.2
v -1.3 -0.7 -1
v -1.3 -0.7 -1.1
v -1.3 -0.6 -1
v -1.3 -0.6 -1.1
v -1.3 -0.6 -1.2
v -1.3 -0.5 -1
v -1.3 -0.5 -1.1
v -1.2 -0.6 -1.1
v -1.2 -0.6 -1.2
v -1.2 -0.5 -1
v -1.2 -0.5 -1.1
v -1.2 -0.4 -1
v -1.2 -0.4 -1.2
v -1.1 -0.8 -1.2
v -1.1 -0.8 -1.3
v -1.1 -0.7 -1.2
v -1.1 -0.7 -1.3
v -1.1 -0.6 -1.2
v -1.1 -0.6 -1.3
v -0.8 -0.8 -1.3
v -0.8 -0.8 -1.4
v -0.8 -0.7 -1.3
v -0.8 -0.6 -1.3
v -0.8 -0.6 -1.4
v -0.4 -0.8 -1.3
v -0.4 -0.8 -1.4
v -0.4 -0.7 -1.3
v -0.4 -0.6 -1.3
v -0.4 -0.6 -1.4
v 0.2 -0.8 -1.3
v 0.2 -0.8 -1.4
v 0.2 -0.6 -1.3
v 0.2 -0.6 -1.4
v -0.6 -0.8 -1.3
v -0.6 -0.8 -1.4
v -0.6 -0.7 -1.3
v -0.6 -0.6 -1.3
v -0.6 -0.6 -1.4
v -0.1 -0.8 -1.3
v -0.1 -0.8 -1.4
v -0.1 -0.7 -1.3
v -0.1 -0.7 -1.4
v -0.1 -0.6 -1.3
v -0.1 -0.6 -1.4
v 0.4 -0.8 -1.3
v 0.4 -0.8 -1.4
v 0.4 -0.7 -1.3
v 0.4 -0.7 -1.4
v 0.4 -0.6 -1.3
v 0.4 -0.6 -1.4
v 0.5 -0.8 -1
v 0.5 -0.8 -1.3
v 0.5 -0.7 -1
v 0.5 -0.7 -1.1
v 0.5 -0.6 -1.2
v 0.5 -0.6 -1.3
v 0.5 -0.5 -1
v 0.5 -0.5 -1.1
v 0.5 -0.5 -1.2
v 1 -0.5 -1
v 1 -0.5 -1.2
v 1 -0.4 -1
v 1 -0.4 -1.2
v 1.2 -0.6 2.23517e-08
v 1.2 -0.6 -0.1
v 1.2 -0.6 -0.4
v 1.2 -0.6 -0.5
v 1.2 -0.6 -0.6
v 1.2 -0.6 -0.7
v 1.2 -0.6 -1
v 1.2 -0.5 2.23517e-08
v 1.2 -0.5 -0.1
v 1.2 -0.5 -0.3
v 1.2 -0.5 -0.4
v 1.2 -0.5 -0.5
v 1.2 -0.5 -0.6
v 1.2 -0.4 2.23517e-08
v 1.2 -0.4 -0.3
v 1.2 -0.4 -0.7
v 1.2 -0.4 -1
v 1.3 -0.8 2.23517e-08
v 1.3 -0.8 -0.2
v 1.3 -0.8 -0.5
v 1.3 -0.8 -0.7
v 1.3 -0.8 -0.9
v 1.3 -0.8 -1
v 1.3 -0.7 2.23517e-08
v 1.3 -0.7 -0.1
v 1.3 -0.7 -0.2
v 1.3 -0.7 -0.3
v 1.3 -0.7 -0.5
v 1.3 -0.7 -0.6
v 1.3 -0.7 -0.7
v 1.3 -0.7 -0.9
v 1.3 -0.7 -1
v 1.3 -0.6 -0.2
v 1.3 -0.6 -0.3
v 1.3 -0.6 -0.5
v 1.3 -0.6 -0.6
v 1.3 -0.6 -0.7
v 1.3 -0.6 -0.9
v 1.3 -0.6 -1
v 1.4 -0.8 -0.2
v 1.4 -0.8 -0.5
v 1.4 -0.8 -0.7
v 1.4 -0.8 -0.9
v 1.4 -0.7 2.23517e-08
v 1.4 -0.7 -0.1
v 1.4 -0.7 -0.2
v 1.4 -0.7 -0.3
v 1.4 -0.7 -0.5
v 1.4 -0.7 -0.7
v 1.4 -0.7 -0.9
v 1.4 -0.6 2.23517e-08
v 1.4 -0.6 -0.1
v 1.4 -0.6 -0.2
v 1.4 -0.6 -0.3
v 1.4 -0.6 -0.5
v 1.4 -0.6 -0.7
v 1.4 -0.6 -0.9
v -1.4 -0.8 2.23517e-08
v -1.4 -0.5 2.23517e-08
v -1.4 -0.4 2.23517e-08
v -1.3 -0.7 2.23517e-08
v -1.3 -0.5 2.23517e-08
v -1.3 -0.4 2.23517e-08
v -1.1 -0.7 2.23517e-08
v -1.1 -0.5 2.23517e-08
v 1 -0.7 2.23517e-08
v 1 -0.6 2.23517e-08
v 1.1 -0.7 2.23517e-08
v 1.1 -0.6 2.23517e-08
v 1.1 -0.5 2.23517e-08
v 1.1 -0.4 2.23517e-08
v 1.2 -0.6 2.23517e-08
v 1.2 -0.5 2.23517e-08
v 1.2 -0.4 2.23517e-08
v 1.3 -0.8 2.23517e-08
v 1.3 -0.7 2.23517e-08
v 1.4 -0.7 2.23517e-08
v 1.4 -0.6 2.23517e-08
v 1.3 -0.8 -0.2
v 1.3 -0.7 -0.2
v 1.4 -0.8 -0.2
v 1.4 -0.7 -0.2
v 1.3 -0.7 -0.3
v 1.3 -0.6 -0.3
v 1.4 -0.7 -0.3
v 1.4 -0.6 -0.3
v 1.3 -0.8 -0.7
v 1.3 -0.7 -0.7
v 1.3 -0.6 -0.7
v 1.4 -0.8 -0.7
v 1.4 -0.7 -0.7
v 1.4 -0.6 -0.7
v 1.3 -0.7 -0.2
v 1.3 -0.6 -0.2
v 1.4 -0.7 -0.2
v 1.4 -0.6 -0.2
v 1.3 -0.8 -0.5
v 1.3 -0.7 -0.5
v 1.3 -0.6 -0.5
v 1.4 -0.8 -0.5
v 1.4 -0.7 -0.5
v 1.4 -0.6 -0.5
v 1.3 -0.8 -0.9
v 1.3 -0.7 -0.9
v 1.3 -0.6 -0.9
v 1.4 -0.8 -0.9
v 1.4 -0.7 -0.9
v 1.4 -0.6 -0.9
v -1.4 -0.8 -1
v -1.4 -0.7 -1
v -1.4 -0.6 -1
v -1.4 -0.5 -1
v -1.4 -0.4 -1
v -1.3 -0.8 -1
v -1.3 -0.7 -1
v -1.3 -0.6 -1
v -1.3 -0.5 -1
v -1.3 -0.4 -1
v -1.2 -0.5 -1
v -1.2 -0.4 -1
v 0.5 -0.8 -1
v 0.5 -0.7 -1
v 0.5 -0.5 -1
v 0.7 -0.7 -1
v 0.7 -0.5 -1
v 0.8 -0.5 -1
v 0.9 -0.7 -1
v 0.9 -0.5 -1
v 1 -0.5 -1
v 1 -0.4 -1
v 1.1 -0.7 -1
v 1.1 -0.5 -1
v 1.2 -0.6 -1
v 1.2 -0.4 -1
v 1.3 -0.8 -1
v 1.3 -0.7 -1
v 1.3 -0.6 -1
v -1.4 -0.7 -1.1
v -1.4 -0.6 -1.1
v -1.3 -0.7 -1.1
v -1.3 -0.6 -1.1
v -1.3 -0.5 -1.1
v -1.2 -0.6 -1.1
v -1.2 -0.5 -1.1
v -1.3 -0.8 -1.2
v -1.3 -0.6 -1.2
v -1.2 -0.6 -1.2
v -1.2 -0.4 -1.2
v -1.1 -0.8 -1.2
v -1.1 -0.7 -1.2
v -1.1 -0.6 -1.2
v -1.1 -0.4 -1.2
v -0.8 -0.6 -1.2
v -0.8 -0.5 -1.2
v -0.7 -0.5 -1.2
v -0.7 -0.4 -1.2
v -0.6 -0.6 -1.2
v -0.6 -0.5 -1.2
v -0.4 -0.6 -1.2
v -0.4 -0.5 -1.2
v -0.4 -0.4 -1.2
v -0.2 -0.6 -1.2
v -0.2 -0.5 -1.2
v 0.1 -0.6 -1.2
v 0.2 -0.6 -1.2
v 0.2 -0.5 -1.2
v 0.5 -0.6 -1.2
v 0.5 -0.5 -1.2
v 1 -0.5 -1.2
v 1 -0.4 -1.2
v -1.1 -0.8 -1.3
v -1.1 -0.7 -1.3
v -1.1 -0.6 -1.3
v -0.8 -0.8 -1.3
v -0.8 -0.7 -1.3
v -0.8 -0.6 -1.3
v -0.6 -0.8 -1.3
v -0.6 -0.7 -1.3
v -0.6 -0.6 -1.3
v -0.4 -0.8 -1.3
v -0.4 -0.7 -1.3
v -0.4 -0.6 -1.3
v -0.1 -0.8 -1.3
v -0.1 -0.7 -1.3
v -0.1 -0.6 -1.3
v 0.1 -0.7 -1.3
v 0.1 -0.6 -1.3
v 0.2 -0.8 -1.3
v 0.2 -0.6 -1.3
v 0.4 -0.8 -1.3
v 0.4 -0.7 -1.3
v 0.4 -0.6 -1.3
v 0.5 -0.8 -1.3
v 0.5 -0.6 -1.3
v -0.8 -0.8 -1.4
v -0.8 -0.6 -1.4
v -0.6 -0.8 -1.4
v -0.6 -0.6 -1.4
v -0.4 -0.8 -1.4
v -0.4 -0.6 -1.4
v -0.2 -0.7 -1.4
v -0.2 -0.6 -1.4
v -0.1 -0.8 -1.4
v -0.1 -0.7 -1.4
v -0.1 -0.6 -1.4
v 0.2 -0.8 -1.4
v 0.2 -0.6 -1.4
v 0.3 -0.7 -1.4
v 0.3 -0.6 -1.4
v 0.4 -0.8 -1.4
v 0.4 -0.7 -1.4
v 0.4 -0.6 -1.4
v -1.4 -0.8 2.23517e-08
v 1.3 -0.8 2.23517e-08
v 1.3 -0.8 -0.2
v 1.4 -0.8 -0.2
v 1.3 -0.8 -0.5
v 1.4 -0.8 -0.5
v 1.3 -0.8 -0.7
v 1.4 -0.8 -0.7
v 1.3 -0.8 -0.9
v 1.4 -0.8 -0.9
v -1.4 -0.8 -1
v -1.3 -0.8 -1
v 0.5 -0.8 -1
v 1.3 -0.8 -1
v -1.3 -0.8 -1.2
v -1.1 -0.8 -1.2
v -1.1 -0.8 -1.3
v -0.8 -0.8 -1.3
v -0.6 -0.8 -1.3
v -0.4 -0.8 -1.3
v -0.1 -0.8 -1.3
v 0.2 -0.8 -1.3
v 0.4 -0.8 -1.3
v 0.5 -0.8 -1.3
v -0.8 -0.8 -1.4
v -0.6 -0.8 -1.4
v -0.4 -0.8 -1.4
v -0.1 -0.8 -1.4
v 0.2 -0.8 -1.4
v 0.4 -0.8 -1.4
v 1.3 -0.7 2.23517e-08
v 1.4 -0.7 2.23517e-08
v 1.3 -0.7 -0.1
v 1.4 -0.7 -0.1
v 1.3 -0.7 -0.2
v 1.4 -0.7 -0.2
v -1.4 -0.7 -1
v -1.3 -0.7 -1
v -1.4 -0.7 -1.1
v -1.3 -0.7 -1.1
v 0.5 -0.5 -1
v 0.7 -0.5 -1
v 0.8 -0.5 -1
v 0.9 -0.5 -1
v 1 -0.5 -1
v 0.5 -0.5 -1.1
v 0.8 -0.5 -1.1
v 0.5 -0.5 -1.2
v 1 -0.5 -1.2
v 1.3 -0.7 -0.2
v 1.4 -0.7 -0.2
v 1.3 -0.7 -0.3
v 1.4 -0.7 -0.3
v 1.2 -0.6 2.23517e-08
v 1.4 -0.6 2.23517e-08
v 1.2 -0.6 -0.1
v 1.4 -0.6 -0.1
v 1.3 -0.6 -0.2
v 1.4 -0.6 -0.2
v 1.3 -0.6 -0.3
v 1.4 -0.6 -0.3
v 1.2 -0.6 -0.4
v 1.2 -0.6 -0.5
v 1.3 -0.6 -0.5
v 1.4 -0.6 -0.5
v 1.2 -0.6 -0.6
v 1.3 -0.6 -0.6
v 1.2 -0.6 -0.7
v 1.3 -0.6 -0.7
v 1.4 -0.6 -0.7
v 1.3 -0.6 -0.9
v 1.4 -0.6 -0.9
v -1.4 -0.6 -1
v -1.3 -0.6 -1
v 1.2 -0.6 -1
v 1.3 -0.6 -1
v -1.4 -0.6 -1.1
v -1.3 -0.6 -1.1
v -1.2 -0.6 -1.1
v -1.3 -0.6 -1.2
v -1.2 -0.6 -1.2
v -1.1 -0.6 -1.2
v -0.8 -0.6 -1.2
v -0.6 -0.6 -1.2
v -0.4 -0.6 -1.2
v -0.2 -0.6 -1.2
v 0.1 -0.6 -1.2
v 0.2 -0.6 -1.2
v 0.5 -0.6 -1.2
v -1.1 -0.6 -1.3
v -0.8 -0.6 -1.3
v -0.6 -0.6 -1.3
v -0.4 -0.6 -1.3
v -0.1 -0.6 -1.3
v 0.1 -0.6 -1.3
v 0.2 -0.6 -1.3
v 0.3 -0.6 -1.3
v 0.4 -0.6 -1.3
v 0.5 -0.6 -1.3
v -0.8 -0.6 -1.4
v -0.6 -0.6 -1.4
v -0.4 -0.6 -1.4
v -0.2 -0.6 -1.4
v -0.1 -0.6 -1.4
v 0.2 -0.6 -1.4
v 0.3 -0.6 -1.4
v 0.4 -0.6 -1.4
v -1.3 -0.5 -1
v -1.2 -0.5 -1
v -1.3 -0.5 -1.1
v -1.2 -0.5 -1.1
v -1.4 -0.4 2.23517e-08
v -1.3 -0.4 2.23517e-08
v 1.1 -0.4 2.23517e-08
v 1.2 -0.4 2.23517e-08
v -1.4 -0.4 -0.1
v -1.3 -0.4 -0.1
v -1.4 -0.4 -0.3
v -1.3 -0.4 -0.3
v 0.9 -0.4 -0.3
v 1.1 -0.4 -0.3
v 1.2 -0.4 -0.3
v -1.4 -0.4 -0.5
v -1.3 -0.4 -0.5
v -1.4 -0.4 -0.6
v -1.3 -0.4 -0.6
v 0.8 -0.4 -0.6
v 0.9 -0.4 -0.6
v -1.4 -0.4 -0.7
v -1.3 -0.4 -0.7
v 0.9 -0.4 -0.7
v 1.2 -0.4 -0.7
v -1.4 -0.4 -0.8
v -1.3 -0.4 -0.8
v -1 -0.4 -0.9
v -0.4 -0.4 -0.9
v -0.1 -0.4 -0.9
v 0.5 -0.4 -0.9
v -1.4 -0.4 -1
v -1.3 -0.4 -1
v -1.2 -0.4 -1
v -1.1 -0.4 -1
v -0.7 -0.4 -1
v -0.4 -0.4 -1
v 1 -0.4 -1
v 1.2 -0.4 -1
v -1.1 -0.4 -1.1
v -1 -0.4 -1.1
v -0.4 -0.4 -1.1
v -0.1 -0.4 -1.1
v 0.5 -0.4 -1.1
v 0.8 -0.4 -1.1
v -1.2 -0.4 -1.2
v -1.1 -0.4 -1.2
v -0.7 -0.4 -1.2
v -0.4 -0.4 -1.2
v 1 -0.4 -1.2

# faces
f 3/3/1 2/3/1 1/3/1
f 4/3/1 2/3/1 3/3/1
f 5/3/1 2/3/1 4/3/1
f 7/2/1 4/2/1 3/2/1
f 7/3/1 6/3/1 5/3/1
f 7/3/1 5/3/1 4/3/1
f 8/3/1 6/3/1 7/3/1
f 9/3/1 6/3/1 8/3/1
f 10/3/1 6/3/1 9/3/1
f 11/3/1 3/3/1 1/3/1
f 12/3/1 3/3/1 11/3/1
f 13/2/1 7/2/1 3/2/1
f 13/3/1 3/3/1 12/3/1
f 13/2/1 8/2/1 7/2/1
f 14/2/1 8/2/1 13/2/1
f 15/2/1 8/2/1 14/2/1
f 16/3/1 9/3/1 8/3/1
f 16/2/1 8/2/1 15/2/1
f 17/3/1 9/3/1 16/3/1
f 18/3/1 9/3/1 17/3/1
f 19/2/1 12/2/1 11/2/1
f 20/1/1 13/1/1 12/1/1
f 20/2/1 12/2/1 19/2/1
f 21/2/1 14/2/1 13/2/1
f 21/1/1 13/1/1 20/1/1
f 22/1/1 15/1/1 14/1/1
f 22/2/1 14/2/1 21/2/1
f 23/2/1 16/2/1 15/2/1
f 23/1/1 15/1/1 22/1/1
f 24/1/1 17/1/1 16/1/1
f 24/2/1 16/2/1 23/2/1
f 25/2/1 18/2/1 17/2/1
f 25/1/1 17/1/1 24/1/1
f 26/2/1 18/2/1 25/2/1
f 29/3/1 28/3/1 27/3/1
f 30/3/1 28/3/1 29/3/1
f 32/3/1 28/3/1 30/3/1
f 33/3/1 28/3/1 32/3/1
f 34/3/1 32/3/1 31/3/1
f 35/3/1 32/3/1 34/3/1
f 39/3/1 37/3/1 36/3/1
f 40/3/1 39/3/1 38/3/1
f 41/3/1 37/3/1 39/3/1
f 41/3/1 39/3/1 40/3/1
f 44/3/1 43/3/1 42/3/1
f 45/3/1 43/3/1 44/3/1
f 46/2/1 45/2/1 44/2/1
f 47/2/1 45/2/1 46/2/1
f 50/3/1 49/3/1 48/3/1
f 51/3/1 49/3/1 50/3/1
f 52/3/1 49/3/1 51/3/1
f 55/3/1 54/3/1 53/3/1
f 56/3/1 54/3/1 55/3/1
f 57/3/1 54/3/1 56/3/1
f 60/3/1 59/3/1 58/3/1
f 61/3/1 59/3/1 60/3/1
f 62/3/2 63/3/2 64/3/2
f 64/3/2 63/3/2 65/3/2
f 65/3/2 63/3/2 66/3/2
f 67/3/2 68/3/2 69/3/2
f 69/3/2 68/3/2 70/3/2
f 69/2/2 70/2/2 71/2/2
f 71/2/2 70/2/2 72/2/2
f 73/3/2 74/3/2 75/3/2
f 75/3/2 74/3/2 76/3/2
f 75/2/2 76/2/2 77/2/2
f 77/2/2 76/2/2 78/2/2
f 79/3/2 80/3/2 81/3/2
f 81/3/2 80/3/2 82/3/2
f 82/3/2 80/3/2 83/3/2
f 83/3/2 80/3/2 84/3/2
f 81/2/2 82/2/2 85/2/2
f 82/3/2 83/3/2 86/3/2
f 85/2/2 82/2/2 86/2/2
f 86/3/2 83/3/2 87/3/2
f 88/2/2 89/2/2 90/2/2
f 90/2/2 89/2/2 91/2/2
f 92/3/2 93/3/2 99/3/2
f 93/2/2 94/2/2 100/2/2
f 99/3/2 93/3/2 100/3/2
f 100/2/2 94/2/2 101/2/2
f 94/3/2 95/3/2 102/3/2
f 101/2/2 94/2/2 102/2/2
f 95/2/2 96/2/2 103/2/2
f 102/3/2 95/3/2 103/3/2
f 96/3/2 97/3/2 104/3/2
f 103/2/2 96/2/2 104/2/2
f 100/2/2 101/2/2 105/2/2
f 99/2/2 100/2/2 105/2/2
f 101/3/2 102/3/2 106/3/2
f 105/2/2 101/2/2 106/2/2
f 102/3/2 103/3/2 106/3/2
f 103/3/2 104/3/2 106/3/2
f 97/2/2 98/2/2 107/2/2
f 106/3/2 104/3/2 107/3/2
f 104/3/2 97/3/2 107/3/2
f 107/2/2 98/2/2 108/2/2
f 109/3/2 110/3/2 115/3/2
f 115/3/2 110/3/2 116/3/2
f 116/3/2 110/3/2 117/3/2
f 111/3/2 112/3/2 119/3/2
f 119/3/2 112/3/2 120/3/2
f 120/3/2 112/3/2 121/3/2
f 113/3/2 114/3/2 122/3/2
f 122/3/2 114/3/2 123/3/2
f 117/2/2 118/2/2 124/2/2
f 124/2/2 118/2/2 125/2/2
f 119/2/2 120/2/2 126/2/2
f 120/3/2 121/3/2 127/3/2
f 126/2/2 120/2/2 127/2/2
f 127/3/2 121/3/2 128/3/2
f 122/2/2 123/2/2 129/2/2
f 129/2/2 123/2/2 130/2/2
f 131/3/2 132/3/2 137/3/2
f 137/3/2 132/3/2 138/3/2
f 138/3/2 132/3/2 139/3/2
f 133/3/2 134/3/2 140/3/2
f 140/3/2 134/3/2 141/3/2
f 135/3/2 136/3/2 142/3/2
f 136/2/2 137/2/2 143/2/2
f 142/3/2 136/3/2 143/3/2
f 143/2/2 137/2/2 144/2/2
f 138/2/2 139/2/2 145/2/2
f 145/2/2 139/2/2 146/2/2
f 140/2/2 141/2/2 147/2/2
f 147/2/2 141/2/2 148/2/2
f 152/3/3 150/3/3 149/3/3
f 153/2/3 151/2/3 150/2/3
f 153/3/3 150/3/3 152/3/3
f 154/2/3 151/2/3 153/2/3
f 155/3/3 152/3/3 149/3/3
f 155/2/3 153/2/3 152/2/3
f 156/1/3 154/1/3 153/1/3
f 156/2/3 153/2/3 155/2/3
f 157/3/3 155/3/3 149/3/3
f 157/1/3 156/1/3 155/1/3
f 158/1/3 156/1/3 157/1/3
f 159/3/3 157/3/3 149/3/3
f 159/2/3 158/2/3 157/2/3
f 160/1/3 156/1/3 158/1/3
f 160/2/3 158/2/3 159/2/3
f 161/1/3 154/1/3 156/1/3
f 161/1/3 156/1/3 160/1/3
f 162/1/3 154/1/3 161/1/3
f 163/3/3 160/3/3 159/3/3
f 163/3/3 161/3/3 160/3/3
f 164/2/3 162/2/3 161/2/3
f 164/3/3 161/3/3 163/3/3
f 165/2/3 162/2/3 164/2/3
f 166/3/3 159/3/3 149/3/3
f 166/3/3 163/3/3 159/3/3
f 167/3/3 163/3/3 166/3/3
f 168/3/3 163/3/3 167/3/3
f 169/3/3 163/3/3 168/3/3
f 172/3/3 171/3/3 170/3/3
f 173/3/3 171/3/3 172/3/3
f 176/2/3 175/2/3 174/2/3
f 177/2/3 175/2/3 176/2/3
f 181/3/3 179/3/3 178/3/3
f 182/2/3 180/2/3 179/2/3
f 182/3/3 179/3/3 181/3/3
f 183/2/3 180/2/3 182/2/3
f 184/2/4 185/2/4 186/2/4
f 186/2/4 185/2/4 187/2/4
f 188/3/4 189/3/4 191/3/4
f 189/2/4 190/2/4 192/2/4
f 191/3/4 189/3/4 192/3/4
f 192/2/4 190/2/4 193/2/4
f 194/3/4 195/3/4 197/3/4
f 195/2/4 196/2/4 198/2/4
f 197/3/4 195/3/4 198/3/4
f 198/2/4 196/2/4 199/2/4
f 200/3/4 201/3/4 205/3/4
f 205/3/4 201/3/4 206/3/4
f 202/3/4 203/3/4 207/3/4
f 203/2/4 204/2/4 208/2/4
f 207/3/4 203/3/4 208/3/4
f 208/2/4 204/2/4 209/2/4
f 208/1/4 209/1/4 210/1/4
f 210/1/4 209/1/4 211/1/4
f 212/3/4 213/3/4 215/3/4
f 213/3/4 214/3/4 215/3/4
f 215/3/4 214/3/4 216/3/4
f 215/2/4 216/2/4 217/2/4
f 212/3/4 215/3/4 218/3/4
f 215/2/4 217/2/4 218/2/4
f 218/2/4 217/2/4 219/2/4
f 218/3/4 219/3/4 220/3/4
f 218/3/4 220/3/4 222/3/4
f 212/3/4 218/3/4 222/3/4
f 220/2/4 221/2/4 223/2/4
f 222/3/4 220/3/4 223/3/4
f 222/2/4 223/2/4 224/2/4
f 223/2/4 221/2/4 225/2/4
f 224/2/4 223/2/4 225/2/4
f 212/3/4 222/3/4 226/3/4
f 222/2/4 224/2/4 227/2/4
f 226/3/4 222/3/4 227/3/4
f 227/2/4 224/2/4 228/2/4
f 229/3/4 230/3/4 231/3/4
f 231/3/4 230/3/4 232/3/4
f 232/3/4 233/3/4 234/3/4
f 234/3/4 233/3/4 235/3/4
f 236/3/4 237/3/4 238/3/4
f 236/3/4 238/3/4 240/3/4
f 238/3/4 239/3/4 240/3/4
f 240/3/4 239/3/4 241/3/4
f 241/3/4 239/3/4 242/3/4
f 242/3/4 239/3/4 243/3/4
f 242/2/4 243/2/4 244/2/4
f 244/2/4 243/2/4 245/2/4
f 244/3/4 245/3/4 246/3/4
f 245/2/4 243/2/4 246/2/4
f 246/2/4 243/2/4 247/2/4
f 244/3/4 246/3/4 248/3/4
f 246/3/4 247/3/4 248/3/4
f 248/3/4 247/3/4 249/3/4
f 248/2/4 249/2/4 250/2/4
f 249/3/4 247/3/4 251/3/4
f 250/2/4 249/2/4 251/2/4
f 251/3/4 247/3/4 252/3/4
f 250/3/4 251/3/4 253/3/4
f 251/2/4 252/2/4 254/2/4
f 253/3/4 251/3/4 254/3/4
f 253/2/4 254/2/4 255/2/4
f 255/2/4 254/2/4 256/2/4
f 254/2/4 252/2/4 257/2/4
f 256/2/4 254/2/4 257/2/4
f 256/3/4 257/3/4 258/3/4
f 257/2/4 252/2/4 259/2/4
f 258/3/4 257/3/4 259/3/4
f 259/2/4 252/2/4 260/2/4
f 260/2/4 252/2/4 261/2/4
f 262/3/4 263/3/4 265/3/4
f 263/2/4 264/2/4 266/2/4
f 265/3/4 263/3/4 266/3/4
f 266/2/4 264/2/4 267/2/4
f 268/3/4 269/3/4 271/3/4
f 269/2/4 270/2/4 272/2/4
f 271/3/4 269/3/4 272/3/4
f 272/2/4 270/2/4 273/2/4
f 274/3/4 275/3/4 277/3/4
f 275/2/4 276/2/4 277/2/4
f 277/2/4 276/2/4 278/2/4
f 274/3/4 277/3/4 279/3/4
f 277/3/4 278/3/4 279/3/4
f 279/3/4 278/3/4 280/3/4
f 281/3/4 282/3/4 284/3/4
f 282/3/4 283/3/4 284/3/4
f 284/3/4 283/3/4 285/3/4
f 286/3/4 287/3/4 288/3/4
f 288/3/4 287/3/4 289/3/4
f 290/3/4 291/3/4 292/3/4
f 292/3/4 291/3/4 293/3/4
f 290/3/4 292/3/4 294/3/4
f 292/2/4 293/2/4 295/2/4
f 294/3/4 292/3/4 295/3/4
f 295/2/4 293/2/4 296/2/4
f 297/3/4 298/3/4 299/3/4
f 299/3/4 298/3/4 300/3/4
f 297/3/4 299/3/4 301/3/4
f 299/2/4 300/2/4 302/2/4
f 301/3/4 299/3/4 302/3/4
f 302/2/4 300/2/4 303/2/4
f 306/3/5 305/3/5 304/3/5
f 308/3/5 306/3/5 304/3/5
f 308/3/5 307/3/5 306/3/5
f 309/3/5 307/3/5 308/3/5
f 310/3/5 308/3/5 304/3/5
f 312/3/5 310/3/5 304/3/5
f 312/3/5 311/3/5 310/3/5
f 313/3/5 311/3/5 312/3/5
f 314/3/5 312/3/5 304/3/5
f 315/3/5 312/3/5 314/3/5
f 316/3/5 312/3/5 315/3/5
f 317/3/5 312/3/5 316/3/5
f 318/3/5 316/3/5 315/3/5
f 319/3/5 316/3/5 318/3/5
f 320/3/5 316/3/5 319/3/5
f 321/3/5 316/3/5 320/3/5
f 322/3/5 316/3/5 321/3/5
f 323/3/5 316/3/5 322/3/5
f 324/3/5 316/3/5 323/3/5
f 325/3/5 316/3/5 324/3/5
f 326/3/5 316/3/5 325/3/5
f 327/3/5 316/3/5 326/3/5
f 328/3/5 322/3/5 321/3/5
f 329/3/5 322/3/5 328/3/5
f 330/3/5 324/3/5 323/3/5
f 331/3/5 324/3/5 330/3/5
f 332/3/5 326/3/5 325/3/5
f 333/3/5 326/3/5 332/3/5
f 336/3/5 335/3/5 334/3/5
f 337/3/5 335/3/5 336/3/5
f 338/2/5 337/2/5 336/2/5
f 339/2/5 337/2/5 338/2/5
f 342/3/5 341/3/5 340/3/5
f 343/3/5 341/3/5 342/3/5
f 349/1/5 345/1/5 344/1/5
f 349/1/5 346/1/5 345/1/5
f 350/2/5 348/2/5 347/2/5
f 350/1/5 346/1/5 349/1/5
f 350/2/5 347/2/5 346/2/5
f 351/2/5 350/2/5 349/2/5
f 352/2/5 348/2/5 350/2/5
f 352/2/5 350/2/5 351/2/5
f 353/3/6 354/3/6 355/3/6
f 355/3/6 354/3/6 356/3/6
f 357/3/6 358/3/6 359/3/6
f 359/3/6 358/3/6 360/3/6
f 359/2/6 360/2/6 361/2/6
f 361/2/6 360/2/6 362/2/6
f 359/2/6 361/2/6 363/2/6
f 359/2/6 363/2/6 365/2/6
f 363/2/6 364/2/6 365/2/6
f 365/2/6 364/2/6 366/2/6
f 366/2/6 364/2/6 367/2/6
f 367/2/6 364/2/6 368/2/6
f 366/2/6 367/2/6 369/2/6
f 369/2/6 367/2/6 370/2/6
f 369/3/6 370/3/6 371/3/6
f 371/3/6 370/3/6 372/3/6
f 371/2/6 372/2/6 374/2/6
f 372/2/6 373/2/6 374/2/6
f 374/2/6 373/2/6 375/2/6
f 371/2/6 374/2/6 378/2/6
f 378/2/6 374/2/6 379/2/6
f 376/3/6 377/3/6 380/3/6
f 380/3/6 377/3/6 381/3/6
f 381/3/6 382/3/6 383/3/6
f 383/3/6 382/3/6 384/3/6
f 385/2/6 386/2/6 393/2/6
f 386/3/6 387/3/6 394/3/6
f 393/2/6 386/2/6 394/2/6
f 387/2/6 388/2/6 395/2/6
f 394/3/6 387/3/6 395/3/6
f 388/3/6 389/3/6 396/3/6
f 395/2/6 388/2/6 396/2/6
f 389/2/6 390/2/6 397/2/6
f 391/3/6 392/3/6 398/3/6
f 397/2/6 390/2/6 398/2/6
f 390/3/6 391/3/6 398/3/6
f 398/3/6 392/3/6 399/3/6
f 399/3/6 392/3/6 400/3/6
f 400/3/6 392/3/6 401/3/6
f 401/3/6 392/3/6 402/3/6
f 394/3/6 395/3/6 403/3/6
f 403/3/6 395/3/6 404/3/6
f 396/3/6 389/3/6 405/3/6
f 389/2/6 397/2/6 406/2/6
f 405/3/6 389/3/6 406/3/6
f 406/2/6 397/2/6 407/2/6
f 399/3/6 400/3/6 408/3/6
f 400/2/6 401/2/6 409/2/6
f 408/3/6 400/3/6 409/3/6
f 409/2/6 401/2/6 410/2/6
f 411/3/6 412/3/6 413/3/6
f 413/3/6 412/3/6 414/3/6
f 415/2/6 416/2/6 419/2/6
f 416/1/6 417/1/6 420/1/6
f 419/2/6 416/2/6 420/2/6
f 419/1/6 420/1/6 421/1/6
f 420/1/6 417/1/6 422/1/6
f 421/1/6 420/1/6 422/1/6
f 422/1/6 417/1/6 423/1/6
f 417/2/6 418/2/6 424/2/6
f 423/1/6 417/1/6 424/1/6
f 424/2/6 418/2/6 425/2/6
f 421/2/6 422/2/6 426/2/6
f 422/1/6 423/1/6 427/1/6
f 426/2/6 422/2/6 427/2/6
f 426/1/6 427/1/6 428/1/6
f 427/1/6 423/1/6 429/1/6
f 428/1/6 427/1/6 429/1/6
f 429/1/6 423/1/6 430/1/6
f 423/3/6 424/3/6 431/3/6
f 430/1/6 423/1/6 431/1/6
f 424/3/6 425/3/6 431/3/6
f 428/2/6 429/2/6 432/2/6
f 429/1/6 430/1/6 433/1/6
f 432/2/6 429/2/6 433/2/6
f 431/3/6 425/3/6 434/3/6
f 430/2/6 431/2/6 434/2/6
f 434/3/6 425/3/6 435/3/6
f 432/1/6 433/1/6 436/1/6
f 433/1/6 430/1/6 437/1/6
f 436/1/6 433/1/6 437/1/6
f 437/1/6 430/1/6 438/1/6
f 438/1/6 430/1/6 439/1/6
f 439/1/6 430/1/6 440/1/6
f 440/1/6 430/1/6 441/1/6
f 436/2/6 437/2/6 442/2/6
f 437/1/6 438/1/6 443/1/6
f 442/2/6 437/2/6 443/2/6
f 443/1/6 438/1/6 444/1/6
f 444/1/6 438/1/6 445/1/6
f 438/2/6 439/2/6 446/2/6
f 439/1/6 440/1/6 447/1/6
f 446/2/6 439/2/6 447/2/6
f 434/2/6 435/2/6 448/2/6
f 448/2/6 435/2/6 449/2/6
f 445/1/6 438/1/6 450/1/6
f 444/3/6 445/3/6 450/3/6
f 438/2/6 446/2/6 451/2/6
f 450/1/6 438/1/6 451/1/6
f 447/1/6 440/1/6 452/1/6
f 446/3/6 447/3/6 452/3/6
f 440/2/6 441/2/6 453/2/6
f 452/1/6 440/1/6 453/1/6
f 441/1/6 430/1/6 454/1/6
f 453/2/6 441/2/6 454/2/6
f 430/2/6 434/2/6 455/2/6
f 454/1/6 430/1/6 455/1/6
f 434/2/6 448/2/6 455/2/6
f 444/3/6 450/3/6 456/3/6
f 450/2/6 451/2/6 457/2/6
f 456/3/6 450/3/6 457/3/6
f 451/2/6 446/2/6 458/2/6
f 457/2/6 451/2/6 458/2/6
f 446/3/6 452/3/6 458/3/6
f 453/2/6 454/2/6 459/2/6
f 458/3/6 452/3/6 459/3/6
f 452/2/6 453/2/6 459/2/6
f 454/2/6 455/2/6 459/2/6
f 455/2/6 448/2/6 460/2/6
f 459/2/6 455/2/6 460/2/6
