# MagicaVoxel @ Ephtracy

# group
o 

# material
mtllib RightArm.mtl
usemtl palette

# normals
vn -1 0 0
vn 1 0 0
vn 0 0 1
vn 0 0 -1
vn 0 -1 0
vn 0 1 0

# texcoords
vt 0.892578 0.5
vt 0.896484 0.5

# verts
v -0.8 -0.3 -1.3
v -0.8 -0.3 -1.4
v -0.8 -0.1 -1.2
v -0.8 -0.1 -1.3
v -0.8 0 -1.2
v -0.8 0 -1.4
v -0.3 0 -1.2
v -0.3 0 -1.4
v -0.3 0.1 -1.2
v -0.3 0.1 -1.4
v -0.2 0.1 -1.2
v -0.2 0.1 -1.4
v -0.2 0.2 -1.2
v -0.2 0.2 -1.4
v -0.2 0.3 -0.8
v -0.2 0.3 -1.4
v -0.2 0.4 -1
v -0.2 0.4 -1.3
v -0.2 0.5 -0.8
v -0.2 0.5 -1
v -0.2 0.5 -1.3
v -0.2 0.5 -1.4
v -0.1 0 -1.4
v -0.1 0 -1.5
v -0.1 0.1 -1.4
v -0.1 0.1 -1.5
v -0.1 0.2 -1.2
v -0.1 0.2 -1.4
v -0.1 0.3 -1.2
v -0.1 0.3 -1.4
v -0.1 0.3 -1.5
v -0.1 0.4 -1
v -0.1 0.4 -1.3
v -0.1 0.4 -1.4
v -0.1 0.4 -1.5
v -0.1 0.5 -1
v -0.1 0.5 -1.3
v 0 0.4 -1.4
v 0 0.4 -1.5
v 0 0.5 -1.4
v 0 0.5 -1.5
v -0.7 -0.3 -1.3
v -0.7 -0.3 -1.4
v -0.7 -0.2 -1.3
v -0.7 -0.2 -1.4
v -0.1 -0.1 -1.2
v -0.1 -0.1 -1.3
v -0.1 0 -1.2
v -0.1 0 -1.3
v 0 -0.2 -1.3
v 0 -0.2 -1.4
v 0 -0.1 -1.3
v 0 -0.1 -1.4
v 0 0 -1.4
v 0 0 -1.5
v 0 0.1 -1.4
v 0 0.1 -1.5
v 0 0.2 -1.3
v 0 0.2 -1.4
v 0 0.3 -0.8
v 0 0.3 -1.2
v 0 0.3 -1.3
v 0 0.3 -1.4
v 0 0.4 -1.1
v 0 0.4 -1.3
v 0 0.5 -0.8
v 0 0.5 -1.1
v 0.1 -0.1 -1.3
v 0.1 -0.1 -1.4
v 0.1 0 -1.3
v 0.1 0 -1.4
v 0.1 0.1 -1.2
v 0.1 0.1 -1.4
v 0.1 0.2 -1.3
v 0.1 0.2 -1.4
v 0.1 0.3 -1.2
v 0.1 0.3 -1.3
v 0.1 0.3 -1.5
v 0.1 0.4 -1.2
v 0.1 0.4 -1.3
v 0.1 0.4 -1.4
v 0.1 0.5 -1.2
v 0.1 0.5 -1.3
v 0.1 0.5 -1.4
v 0.1 0.5 -1.5
v 0.2 0 -1.2
v 0.2 0 -1.4
v 0.2 0.1 -1.2
v 0.2 0.1 -1.4
v 0.2 0.4 -1.1
v 0.2 0.4 -1.2
v 0.2 0.4 -1.3
v 0.2 0.4 -1.4
v 0.2 0.5 -1.1
v 0.2 0.5 -1.2
v 0.2 0.5 -1.3
v 0.2 0.5 -1.4
v -0.2 0.3 -0.8
v -0.2 0.5 -0.8
v 0 0.3 -0.8
v 0 0.5 -0.8
v 0 0.4 -1.1
v 0 0.5 -1.1
v 0.2 0.4 -1.1
v 0.2 0.5 -1.1
v -0.8 -0.1 -1.2
v -0.8 0 -1.2
v -0.7 -0.1 -1.2
v -0.7 0 -1.2
v -0.3 0 -1.2
v -0.3 0.1 -1.2
v -0.2 0.1 -1.2
v -0.2 0.2 -1.2
v -0.1 -0.1 -1.2
v -0.1 0 -1.2
v -0.1 0.2 -1.2
v -0.1 0.3 -1.2
v 0 0.3 -1.2
v 0.1 0.1 -1.2
v 0.1 0.3 -1.2
v 0.2 0 -1.2
v 0.2 0.1 -1.2
v -0.8 -0.3 -1.3
v -0.8 -0.1 -1.3
v -0.7 -0.3 -1.3
v -0.7 -0.2 -1.3
v -0.7 -0.1 -1.3
v -0.5 -0.2 -1.3
v -0.5 -0.1 -1.3
v -0.2 0.4 -1.3
v -0.2 0.5 -1.3
v -0.1 -0.1 -1.3
v -0.1 0 -1.3
v -0.1 0.4 -1.3
v -0.1 0.5 -1.3
v 0 -0.2 -1.3
v 0 -0.1 -1.3
v 0 0.3 -1.3
v 0 0.4 -1.3
v 0.1 -0.1 -1.3
v 0.1 0 -1.3
v 0.1 0.3 -1.3
v 0.1 0.4 -1.3
v 0.1 0.5 -1.3
v 0.2 0.4 -1.3
v 0.2 0.5 -1.3
v -0.2 0.4 -1
v -0.2 0.5 -1
v -0.1 0.4 -1
v -0.1 0.5 -1
v 0.1 0.4 -1.2
v 0.1 0.5 -1.2
v 0.2 0.4 -1.2
v 0.2 0.5 -1.2
v 0 0.2 -1.3
v 0 0.3 -1.3
v 0.1 0.2 -1.3
v 0.1 0.3 -1.3
v -0.8 -0.3 -1.4
v -0.8 0 -1.4
v -0.7 -0.3 -1.4
v -0.7 -0.2 -1.4
v -0.6 -0.1 -1.4
v -0.6 0 -1.4
v -0.5 -0.2 -1.4
v -0.5 -0.1 -1.4
v -0.3 0 -1.4
v -0.3 0.1 -1.4
v -0.2 0.1 -1.4
v -0.2 0.2 -1.4
v -0.2 0.3 -1.4
v -0.2 0.5 -1.4
v -0.1 0 -1.4
v -0.1 0.1 -1.4
v -0.1 0.2 -1.4
v -0.1 0.3 -1.4
v -0.1 0.4 -1.4
v 0 -0.2 -1.4
v 0 -0.1 -1.4
v 0 0 -1.4
v 0 0.1 -1.4
v 0 0.2 -1.4
v 0 0.3 -1.4
v 0 0.4 -1.4
v 0 0.5 -1.4
v 0.1 -0.1 -1.4
v 0.1 0 -1.4
v 0.1 0.1 -1.4
v 0.1 0.2 -1.4
v 0.1 0.4 -1.4
v 0.1 0.5 -1.4
v 0.2 0 -1.4
v 0.2 0.1 -1.4
v 0.2 0.4 -1.4
v 0.2 0.5 -1.4
v -0.1 0 -1.5
v -0.1 0.1 -1.5
v -0.1 0.3 -1.5
v -0.1 0.4 -1.5
v 0 0 -1.5
v 0 0.1 -1.5
v 0 0.4 -1.5
v 0 0.5 -1.5
v 0.1 0.3 -1.5
v 0.1 0.5 -1.5
v -0.8 -0.3 -1.3
v -0.7 -0.3 -1.3
v -0.8 -0.3 -1.4
v -0.7 -0.3 -1.4
v -0.7 -0.2 -1.3
v -0.5 -0.2 -1.3
v 0 -0.2 -1.3
v -0.7 -0.2 -1.4
v -0.5 -0.2 -1.4
v 0 -0.2 -1.4
v -0.8 -0.1 -1.2
v -0.7 -0.1 -1.2
v -0.1 -0.1 -1.2
v -0.8 -0.1 -1.3
v -0.7 -0.1 -1.3
v -0.5 -0.1 -1.3
v -0.1 -0.1 -1.3
v 0 -0.1 -1.3
v 0.1 -0.1 -1.3
v 0 -0.1 -1.4
v 0.1 -0.1 -1.4
v -0.1 0 -1.2
v 0.2 0 -1.2
v -0.1 0 -1.3
v 0.1 0 -1.3
v -0.1 0 -1.4
v 0 0 -1.4
v 0.1 0 -1.4
v 0.2 0 -1.4
v -0.1 0 -1.5
v 0 0 -1.5
v -0.2 0.3 -0.8
v 0 0.3 -0.8
v -0.1 0.3 -1.2
v 0 0.3 -1.2
v 0 0.3 -1.3
v 0.1 0.3 -1.3
v -0.2 0.3 -1.4
v -0.1 0.3 -1.4
v 0 0.3 -1.4
v -0.1 0.3 -1.5
v 0.1 0.3 -1.5
v 0 0.4 -1.1
v 0.2 0.4 -1.1
v 0.1 0.4 -1.2
v 0.2 0.4 -1.2
v 0 0.4 -1.3
v 0.1 0.4 -1.3
v 0.2 0.4 -1.3
v 0.1 0.4 -1.4
v 0.2 0.4 -1.4
v -0.8 0 -1.2
v -0.7 0 -1.2
v -0.3 0 -1.2
v -0.7 0 -1.3
v -0.6 0 -1.3
v -0.8 0 -1.4
v -0.6 0 -1.4
v -0.3 0 -1.4
v -0.3 0.1 -1.2
v -0.2 0.1 -1.2
v 0.1 0.1 -1.2
v 0.2 0.1 -1.2
v -0.3 0.1 -1.4
v -0.2 0.1 -1.4
v -0.1 0.1 -1.4
v 0 0.1 -1.4
v 0.1 0.1 -1.4
v 0.2 0.1 -1.4
v -0.1 0.1 -1.5
v 0 0.1 -1.5
v -0.2 0.2 -1.2
v -0.1 0.2 -1.2
v 0 0.2 -1.3
v 0.1 0.2 -1.3
v -0.2 0.2 -1.4
v -0.1 0.2 -1.4
v 0 0.2 -1.4
v 0.1 0.2 -1.4
v 0 0.3 -1.2
v 0.1 0.3 -1.2
v 0 0.3 -1.3
v 0.1 0.3 -1.3
v -0.2 0.4 -1
v -0.1 0.4 -1
v -0.2 0.4 -1.3
v -0.1 0.4 -1.3
v -0.1 0.4 -1.4
v 0 0.4 -1.4
v -0.1 0.4 -1.5
v 0 0.4 -1.5
v -0.2 0.5 -0.8
v 0 0.5 -0.8
v -0.2 0.5 -1
v -0.1 0.5 -1
v 0 0.5 -1.1
v 0.2 0.5 -1.1
v 0.1 0.5 -1.2
v 0.2 0.5 -1.2
v -0.2 0.5 -1.3
v -0.1 0.5 -1.3
v 0.1 0.5 -1.3
v 0.2 0.5 -1.3
v -0.2 0.5 -1.4
v 0 0.5 -1.4
v 0.1 0.5 -1.4
v 0.2 0.5 -1.4
v 0 0.5 -1.5
v 0.1 0.5 -1.5

# faces
f 4/2/1 2/2/1 1/2/1
f 5/2/1 4/2/1 3/2/1
f 6/2/1 2/2/1 4/2/1
f 6/2/1 4/2/1 5/2/1
f 9/1/1 8/1/1 7/1/1
f 10/1/1 8/1/1 9/1/1
f 13/1/1 12/1/1 11/1/1
f 14/1/1 12/1/1 13/1/1
f 17/1/1 16/1/1 15/1/1
f 18/1/1 16/1/1 17/1/1
f 19/1/1 17/1/1 15/1/1
f 20/1/1 17/1/1 19/1/1
f 21/1/1 16/1/1 18/1/1
f 22/1/1 16/1/1 21/1/1
f 25/1/1 24/1/1 23/1/1
f 26/1/1 24/1/1 25/1/1
f 29/1/1 28/1/1 27/1/1
f 30/1/1 28/1/1 29/1/1
f 34/1/1 31/1/1 30/1/1
f 35/1/1 31/1/1 34/1/1
f 36/1/1 33/1/1 32/1/1
f 37/1/1 33/1/1 36/1/1
f 40/1/1 39/1/1 38/1/1
f 41/1/1 39/1/1 40/1/1
f 42/2/2 43/2/2 44/2/2
f 44/2/2 43/2/2 45/2/2
f 46/1/2 47/1/2 48/1/2
f 48/1/2 47/1/2 49/1/2
f 50/1/2 51/1/2 52/1/2
f 52/1/2 51/1/2 53/1/2
f 54/1/2 55/1/2 56/1/2
f 56/1/2 55/1/2 57/1/2
f 58/1/2 59/1/2 62/1/2
f 62/1/2 59/1/2 63/1/2
f 60/1/2 61/1/2 64/1/2
f 61/1/2 62/1/2 64/1/2
f 64/1/2 62/1/2 65/1/2
f 60/1/2 64/1/2 66/1/2
f 66/1/2 64/1/2 67/1/2
f 68/1/2 69/1/2 70/1/2
f 70/1/2 69/1/2 71/1/2
f 72/1/2 73/1/2 74/1/2
f 74/1/2 73/1/2 75/1/2
f 72/1/2 74/1/2 76/1/2
f 76/1/2 74/1/2 77/1/2
f 77/1/2 78/1/2 80/1/2
f 80/1/2 78/1/2 81/1/2
f 79/1/2 80/1/2 82/1/2
f 82/1/2 80/1/2 83/1/2
f 81/1/2 78/1/2 84/1/2
f 84/1/2 78/1/2 85/1/2
f 86/1/2 87/1/2 88/1/2
f 88/1/2 87/1/2 89/1/2
f 90/1/2 91/1/2 94/1/2
f 94/1/2 91/1/2 95/1/2
f 92/1/2 93/1/2 96/1/2
f 96/1/2 93/1/2 97/1/2
f 100/1/3 99/1/3 98/1/3
f 101/1/3 99/1/3 100/1/3
f 104/1/3 103/1/3 102/1/3
f 105/1/3 103/1/3 104/1/3
f 108/2/3 107/2/3 106/2/3
f 109/2/3 107/2/3 108/2/3
f 110/1/3 109/1/3 108/1/3
f 112/1/3 111/1/3 110/1/3
f 114/1/3 110/1/3 108/1/3
f 114/1/3 113/1/3 112/1/3
f 114/1/3 112/1/3 110/1/3
f 115/1/3 113/1/3 114/1/3
f 116/1/3 113/1/3 115/1/3
f 118/1/3 117/1/3 116/1/3
f 118/1/3 116/1/3 115/1/3
f 119/1/3 118/1/3 115/1/3
f 120/1/3 118/1/3 119/1/3
f 121/1/3 119/1/3 115/1/3
f 122/1/3 119/1/3 121/1/3
f 125/2/3 124/2/3 123/2/3
f 126/2/3 124/2/3 125/2/3
f 127/2/3 124/2/3 126/2/3
f 128/2/3 127/2/3 126/2/3
f 129/2/3 127/2/3 128/2/3
f 132/1/3 129/1/3 128/1/3
f 134/1/3 131/1/3 130/1/3
f 135/1/3 131/1/3 134/1/3
f 136/1/3 133/1/3 132/1/3
f 136/1/3 132/1/3 128/1/3
f 137/1/3 133/1/3 136/1/3
f 140/1/3 133/1/3 137/1/3
f 141/1/3 133/1/3 140/1/3
f 142/1/3 139/1/3 138/1/3
f 143/1/3 139/1/3 142/1/3
f 145/1/3 144/1/3 143/1/3
f 146/1/3 144/1/3 145/1/3
f 147/1/4 148/1/4 149/1/4
f 149/1/4 148/1/4 150/1/4
f 151/1/4 152/1/4 153/1/4
f 153/1/4 152/1/4 154/1/4
f 155/1/4 156/1/4 157/1/4
f 157/1/4 156/1/4 158/1/4
f 159/2/4 160/2/4 161/2/4
f 161/2/4 160/2/4 162/2/4
f 162/2/4 160/2/4 163/2/4
f 163/2/4 160/2/4 164/2/4
f 162/2/4 163/2/4 165/2/4
f 163/1/4 164/1/4 166/1/4
f 165/2/4 163/2/4 166/2/4
f 165/1/4 166/1/4 167/1/4
f 166/1/4 164/1/4 167/1/4
f 167/1/4 168/1/4 169/1/4
f 165/1/4 167/1/4 173/1/4
f 167/1/4 169/1/4 173/1/4
f 169/1/4 170/1/4 173/1/4
f 173/1/4 170/1/4 174/1/4
f 174/1/4 170/1/4 175/1/4
f 171/1/4 172/1/4 176/1/4
f 176/1/4 172/1/4 177/1/4
f 165/1/4 173/1/4 178/1/4
f 178/1/4 173/1/4 179/1/4
f 179/1/4 173/1/4 180/1/4
f 174/1/4 175/1/4 181/1/4
f 175/1/4 176/1/4 181/1/4
f 181/1/4 176/1/4 182/1/4
f 182/1/4 176/1/4 183/1/4
f 177/1/4 172/1/4 184/1/4
f 184/1/4 172/1/4 185/1/4
f 179/1/4 180/1/4 186/1/4
f 181/1/4 182/1/4 186/1/4
f 180/1/4 181/1/4 186/1/4
f 186/1/4 182/1/4 187/1/4
f 187/1/4 182/1/4 188/1/4
f 188/1/4 182/1/4 189/1/4
f 187/1/4 188/1/4 192/1/4
f 192/1/4 188/1/4 193/1/4
f 190/1/4 191/1/4 194/1/4
f 194/1/4 191/1/4 195/1/4
f 196/1/4 197/1/4 200/1/4
f 200/1/4 197/1/4 201/1/4
f 198/1/4 199/1/4 202/1/4
f 202/1/4 203/1/4 204/1/4
f 198/1/4 202/1/4 204/1/4
f 204/1/4 203/1/4 205/1/4
f 208/2/5 207/2/5 206/2/5
f 209/2/5 207/2/5 208/2/5
f 213/2/5 211/2/5 210/2/5
f 214/1/5 212/1/5 211/1/5
f 214/2/5 211/2/5 213/2/5
f 215/1/5 212/1/5 214/1/5
f 219/2/5 217/2/5 216/2/5
f 220/1/5 218/1/5 217/1/5
f 220/2/5 217/2/5 219/2/5
f 221/1/5 218/1/5 220/1/5
f 222/1/5 218/1/5 221/1/5
f 225/1/5 224/1/5 223/1/5
f 226/1/5 224/1/5 225/1/5
f 229/1/5 228/1/5 227/1/5
f 230/1/5 228/1/5 229/1/5
f 233/1/5 228/1/5 230/1/5
f 234/1/5 228/1/5 233/1/5
f 235/1/5 232/1/5 231/1/5
f 236/1/5 232/1/5 235/1/5
f 239/1/5 238/1/5 237/1/5
f 240/1/5 238/1/5 239/1/5
f 243/1/5 239/1/5 237/1/5
f 244/1/5 239/1/5 243/1/5
f 245/1/5 242/1/5 241/1/5
f 246/1/5 245/1/5 244/1/5
f 247/1/5 242/1/5 245/1/5
f 247/1/5 245/1/5 246/1/5
f 250/1/5 249/1/5 248/1/5
f 251/1/5 249/1/5 250/1/5
f 252/1/5 250/1/5 248/1/5
f 253/1/5 250/1/5 252/1/5
f 255/1/5 254/1/5 253/1/5
f 256/1/5 254/1/5 255/1/5
f 257/2/6 258/2/6 260/2/6
f 258/1/6 259/1/6 260/1/6
f 260/1/6 259/1/6 261/1/6
f 257/2/6 260/2/6 262/2/6
f 260/2/6 261/2/6 262/2/6
f 261/1/6 259/1/6 263/1/6
f 262/2/6 261/2/6 263/2/6
f 263/1/6 259/1/6 264/1/6
f 265/1/6 266/1/6 269/1/6
f 269/1/6 266/1/6 270/1/6
f 267/1/6 268/1/6 273/1/6
f 273/1/6 268/1/6 274/1/6
f 271/1/6 272/1/6 275/1/6
f 275/1/6 272/1/6 276/1/6
f 277/1/6 278/1/6 281/1/6
f 281/1/6 278/1/6 282/1/6
f 279/1/6 280/1/6 283/1/6
f 283/1/6 280/1/6 284/1/6
f 285/1/6 286/1/6 287/1/6
f 287/1/6 286/1/6 288/1/6
f 289/1/6 290/1/6 291/1/6
f 291/1/6 290/1/6 292/1/6
f 293/1/6 294/1/6 295/1/6
f 295/1/6 294/1/6 296/1/6
f 297/1/6 298/1/6 299/1/6
f 299/1/6 298/1/6 300/1/6
f 300/1/6 298/1/6 301/1/6
f 301/1/6 302/1/6 303/1/6
f 303/1/6 302/1/6 304/1/6
f 300/1/6 301/1/6 306/1/6
f 301/1/6 303/1/6 306/1/6
f 306/1/6 303/1/6 307/1/6
f 305/1/6 306/1/6 309/1/6
f 307/1/6 308/1/6 309/1/6
f 306/1/6 307/1/6 309/1/6
f 309/1/6 308/1/6 310/1/6
f 310/1/6 308/1/6 311/1/6
f 311/1/6 308/1/6 312/1/6
f 310/1/6 311/1/6 313/1/6
f 313/1/6 311/1/6 314/1/6
