# MagicaVoxel @ Ephtracy

# group
o 

# material
mtllib floor32.mtl
usemtl palette

# normals
vn -1 0 0
vn 1 0 0
vn 0 0 1
vn 0 0 -1
vn 0 -1 0
vn 0 1 0

# texcoords
vt 0.826172 0.5
vt 0.830078 0.5
vt 0.833984 0.5

# verts
v -1.6 -0.8 1.6
v -1.6 -0.8 -1.6
v -1.6 -0.6 1.5
v -1.6 -0.6 0.8
v -1.6 -0.6 0.7
v -1.6 -0.6 0
v -1.6 -0.6 -0.1
v -1.6 -0.6 -0.6
v -1.6 -0.6 -0.7
v -1.6 -0.6 -1.4
v -1.6 -0.2 1.4
v -1.6 -0.2 0.8
v -1.6 -0.2 0.7
v -1.6 -0.2 0
v -1.6 -0.2 -0.1
v -1.6 -0.2 -0.6
v -1.6 -0.2 -0.7
v -1.6 -0.2 -1.4
v -1.6 -0.1 1.4
v -1.6 -0.1 1.2
v -1.6 -0.1 1.1
v -1.6 -0.1 0.4
v -1.6 -0.1 0.3
v -1.6 -0.1 -0.3
v -1.6 -0.1 -0.4
v -1.6 -0.1 -1
v -1.6 -0.1 -1.1
v -1.6 -0.1 -1.4
v -1.6 0.3 1.4
v -1.6 0.3 1.2
v -1.6 0.3 1.1
v -1.6 0.3 0.4
v -1.6 0.3 0.3
v -1.6 0.3 -0.3
v -1.6 0.3 -0.4
v -1.6 0.3 -1
v -1.6 0.3 -1.1
v -1.6 0.3 -1.4
v -1.6 0.4 1.4
v -1.6 0.4 0.7
v -1.6 0.4 0.6
v -1.6 0.4 -0.1
v -1.6 0.4 -0.2
v -1.6 0.4 -0.9
v -1.6 0.4 -1
v -1.6 0.4 -1.4
v -1.6 0.8 1.4
v -1.6 0.8 0.7
v -1.6 0.8 0.6
v -1.6 0.8 -0.1
v -1.6 0.8 -0.2
v -1.6 0.8 -0.9
v -1.6 0.8 -1
v -1.6 0.8 -1.4
v -1.6 0.9 1.4
v -1.6 0.9 1.1
v -1.6 0.9 1
v -1.6 0.9 0.3
v -1.6 0.9 0.2
v -1.6 0.9 -0.4
v -1.6 0.9 -0.5
v -1.6 0.9 -1.1
v -1.6 0.9 -1.2
v -1.6 0.9 -1.4
v -1.6 1.3 1.4
v -1.6 1.3 1.1
v -1.6 1.3 1
v -1.6 1.3 0.3
v -1.6 1.3 0.2
v -1.6 1.3 -0.4
v -1.6 1.3 -0.5
v -1.6 1.3 -1.1
v -1.6 1.3 -1.2
v -1.6 1.3 -1.4
v -1.6 1.4 1.4
v -1.6 1.4 1
v -1.6 1.4 0.9
v -1.6 1.4 0.2
v -1.6 1.4 0.1
v -1.6 1.4 -0.6
v -1.6 1.4 -0.7
v -1.6 1.4 -1.4
v -1.6 1.8 1.4
v -1.6 1.8 1
v -1.6 1.8 0.9
v -1.6 1.8 0.2
v -1.6 1.8 0.1
v -1.6 1.8 -0.6
v -1.6 1.8 -0.7
v -1.6 1.8 -1.4
v -1.6 1.9 1.4
v -1.6 1.9 0.9
v -1.6 1.9 0.8
v -1.6 1.9 0.1
v -1.6 1.9 0
v -1.6 1.9 -0.7
v -1.6 1.9 -0.8
v -1.6 1.9 -1.4
v -1.6 2.2 1.5
v -1.6 2.2 0.9
v -1.6 2.2 0.8
v -1.6 2.2 0.1
v -1.6 2.2 0
v -1.6 2.2 -0.7
v -1.6 2.2 -0.8
v -1.6 2.2 -1.4
v -1.6 2.4 1.6
v -1.6 2.4 -1.6
v 1.6 -0.8 1.6
v 1.6 -0.8 -1.6
v 1.6 -0.6 1.4
v 1.6 -0.6 0.8
v 1.6 -0.6 0.7
v 1.6 -0.6 0
v 1.6 -0.6 -0.1
v 1.6 -0.6 -0.6
v 1.6 -0.6 -0.7
v 1.6 -0.6 -1.4
v 1.6 -0.2 1.4
v 1.6 -0.2 0.8
v 1.6 -0.2 0.7
v 1.6 -0.2 0
v 1.6 -0.2 -0.1
v 1.6 -0.2 -0.6
v 1.6 -0.2 -0.7
v 1.6 -0.2 -1.4
v 1.6 -0.1 1.4
v 1.6 -0.1 1.2
v 1.6 -0.1 1.1
v 1.6 -0.1 0.4
v 1.6 -0.1 0.3
v 1.6 -0.1 -0.3
v 1.6 -0.1 -0.4
v 1.6 -0.1 -1
v 1.6 -0.1 -1.1
v 1.6 -0.1 -1.4
v 1.6 0.3 1.4
v 1.6 0.3 1.2
v 1.6 0.3 1.1
v 1.6 0.3 0.4
v 1.6 0.3 0.3
v 1.6 0.3 -0.3
v 1.6 0.3 -0.4
v 1.6 0.3 -1
v 1.6 0.3 -1.1
v 1.6 0.3 -1.4
v 1.6 0.4 1.4
v 1.6 0.4 0.7
v 1.6 0.4 0.6
v 1.6 0.4 -0.1
v 1.6 0.4 -0.2
v 1.6 0.4 -0.9
v 1.6 0.4 -1
v 1.6 0.4 -1.4
v 1.6 0.8 1.4
v 1.6 0.8 0.7
v 1.6 0.8 0.6
v 1.6 0.8 -0.1
v 1.6 0.8 -0.2
v 1.6 0.8 -0.9
v 1.6 0.8 -1
v 1.6 0.8 -1.4
v 1.6 0.9 1.4
v 1.6 0.9 1.1
v 1.6 0.9 1
v 1.6 0.9 0.3
v 1.6 0.9 0.2
v 1.6 0.9 -0.4
v 1.6 0.9 -0.5
v 1.6 0.9 -1.1
v 1.6 0.9 -1.2
v 1.6 0.9 -1.4
v 1.6 1.3 1.4
v 1.6 1.3 1.1
v 1.6 1.3 1
v 1.6 1.3 0.3
v 1.6 1.3 0.2
v 1.6 1.3 -0.4
v 1.6 1.3 -0.5
v 1.6 1.3 -1.1
v 1.6 1.3 -1.2
v 1.6 1.3 -1.4
v 1.6 1.4 1.4
v 1.6 1.4 1
v 1.6 1.4 0.9
v 1.6 1.4 0.2
v 1.6 1.4 0.1
v 1.6 1.4 -0.6
v 1.6 1.4 -0.7
v 1.6 1.4 -1.4
v 1.6 1.8 1.4
v 1.6 1.8 1
v 1.6 1.8 0.9
v 1.6 1.8 0.2
v 1.6 1.8 0.1
v 1.6 1.8 -0.6
v 1.6 1.8 -0.7
v 1.6 1.8 -1.4
v 1.6 1.9 1.4
v 1.6 1.9 0.9
v 1.6 1.9 0.8
v 1.6 1.9 0.1
v 1.6 1.9 0
v 1.6 1.9 -0.7
v 1.6 1.9 -0.8
v 1.6 1.9 -1.4
v 1.6 2.2 1.4
v 1.6 2.2 0.9
v 1.6 2.2 0.8
v 1.6 2.2 0.1
v 1.6 2.2 0
v 1.6 2.2 -0.7
v 1.6 2.2 -0.8
v 1.6 2.2 -1.4
v 1.6 2.4 1.6
v 1.6 2.4 -1.6
v -1.6 -0.8 1.6
v -1.6 2.4 1.6
v -1.4 -0.6 1.6
v -1.4 -0.2 1.6
v -1.4 -0.1 1.6
v -1.4 0.3 1.6
v -1.4 0.4 1.6
v -1.4 0.8 1.6
v -1.4 0.9 1.6
v -1.4 1.3 1.6
v -1.4 1.4 1.6
v -1.4 1.8 1.6
v -1.4 1.9 1.6
v -1.4 2.2 1.6
v -1.2 -0.6 1.6
v -1.2 -0.2 1.6
v -1.1 -0.6 1.6
v -1.1 -0.2 1.6
v -1.1 0.9 1.6
v -1.1 1.3 1.6
v -1 0.9 1.6
v -1 1.3 1.6
v -0.9 1.9 1.6
v -0.9 2.2 1.6
v -0.8 0.4 1.6
v -0.8 0.8 1.6
v -0.8 1.9 1.6
v -0.8 2.2 1.6
v -0.7 -0.1 1.6
v -0.7 0.3 1.6
v -0.7 0.4 1.6
v -0.7 0.8 1.6
v -0.7 1.4 1.6
v -0.7 1.8 1.6
v -0.6 -0.1 1.6
v -0.6 0.3 1.6
v -0.6 1.4 1.6
v -0.6 1.8 1.6
v -0.4 -0.6 1.6
v -0.4 -0.2 1.6
v -0.3 -0.6 1.6
v -0.3 -0.2 1.6
v -0.2 0.9 1.6
v -0.2 1.3 1.6
v -0.2 1.9 1.6
v -0.2 2.2 1.6
v -0.1 0.9 1.6
v -0.1 1.3 1.6
v -0.1 1.9 1.6
v -0.1 2.2 1.6
v 0 0.4 1.6
v 0 0.8 1.6
v 0.1 -0.1 1.6
v 0.1 0.3 1.6
v 0.1 0.4 1.6
v 0.1 0.8 1.6
v 0.1 1.4 1.6
v 0.1 1.8 1.6
v 0.2 -0.1 1.6
v 0.2 0.3 1.6
v 0.2 1.4 1.6
v 0.2 1.8 1.6
v 0.6 -0.6 1.6
v 0.6 -0.2 1.6
v 0.6 0.9 1.6
v 0.6 1.3 1.6
v 0.6 1.9 1.6
v 0.6 2.2 1.6
v 0.7 -0.6 1.6
v 0.7 -0.2 1.6
v 0.7 0.4 1.6
v 0.7 0.8 1.6
v 0.7 0.9 1.6
v 0.7 1.3 1.6
v 0.7 1.9 1.6
v 0.7 2.2 1.6
v 0.8 -0.1 1.6
v 0.8 0.3 1.6
v 0.8 0.4 1.6
v 0.8 0.8 1.6
v 0.8 1.4 1.6
v 0.8 1.8 1.6
v 0.9 -0.1 1.6
v 0.9 0.3 1.6
v 0.9 1.4 1.6
v 0.9 1.8 1.6
v 1.4 -0.6 1.6
v 1.4 -0.2 1.6
v 1.4 -0.1 1.6
v 1.4 0.3 1.6
v 1.4 0.4 1.6
v 1.4 0.8 1.6
v 1.4 0.9 1.6
v 1.4 1.3 1.6
v 1.4 1.4 1.6
v 1.4 1.8 1.6
v 1.4 1.9 1.6
v 1.4 2.2 1.6
v 1.6 -0.8 1.6
v 1.6 2.4 1.6
v -1.6 -0.8 -1.6
v -1.6 2.4 -1.6
v -1.4 -0.6 -1.6
v -1.4 -0.2 -1.6
v -1.4 -0.1 -1.6
v -1.4 0.3 -1.6
v -1.4 0.4 -1.6
v -1.4 0.8 -1.6
v -1.4 0.9 -1.6
v -1.4 1.3 -1.6
v -1.4 1.4 -1.6
v -1.4 1.8 -1.6
v -1.4 1.9 -1.6
v -1.4 2.2 -1.6
v -1.2 -0.6 -1.6
v -1.2 -0.2 -1.6
v -1.1 -0.6 -1.6
v -1.1 -0.2 -1.6
v -1.1 0.9 -1.6
v -1.1 1.3 -1.6
v -1 0.9 -1.6
v -1 1.3 -1.6
v -0.9 1.9 -1.6
v -0.9 2.2 -1.6
v -0.8 0.4 -1.6
v -0.8 0.8 -1.6
v -0.8 1.9 -1.6
v -0.8 2.2 -1.6
v -0.7 -0.1 -1.6
v -0.7 0.3 -1.6
v -0.7 0.4 -1.6
v -0.7 0.8 -1.6
v -0.7 1.4 -1.6
v -0.7 1.8 -1.6
v -0.6 -0.1 -1.6
v -0.6 0.3 -1.6
v -0.6 1.4 -1.6
v -0.6 1.8 -1.6
v -0.4 -0.6 -1.6
v -0.4 -0.2 -1.6
v -0.3 -0.6 -1.6
v -0.3 -0.2 -1.6
v -0.2 0.9 -1.6
v -0.2 1.3 -1.6
v -0.2 1.9 -1.6
v -0.2 2.2 -1.6
v -0.1 0.9 -1.6
v -0.1 1.3 -1.6
v -0.1 1.9 -1.6
v -0.1 2.2 -1.6
v 0 0.4 -1.6
v 0 0.8 -1.6
v 0.1 -0.1 -1.6
v 0.1 0.3 -1.6
v 0.1 0.4 -1.6
v 0.1 0.8 -1.6
v 0.1 1.4 -1.6
v 0.1 1.8 -1.6
v 0.2 -0.1 -1.6
v 0.2 0.3 -1.6
v 0.2 1.4 -1.6
v 0.2 1.8 -1.6
v 0.6 -0.6 -1.6
v 0.6 -0.2 -1.6
v 0.6 0.9 -1.6
v 0.6 1.3 -1.6
v 0.6 1.9 -1.6
v 0.6 2.2 -1.6
v 0.7 -0.6 -1.6
v 0.7 -0.2 -1.6
v 0.7 0.4 -1.6
v 0.7 0.8 -1.6
v 0.7 0.9 -1.6
v 0.7 1.3 -1.6
v 0.7 1.9 -1.6
v 0.7 2.2 -1.6
v 0.8 -0.1 -1.6
v 0.8 0.3 -1.6
v 0.8 0.4 -1.6
v 0.8 0.8 -1.6
v 0.8 1.4 -1.6
v 0.8 1.8 -1.6
v 0.9 -0.1 -1.6
v 0.9 0.3 -1.6
v 0.9 1.4 -1.6
v 0.9 1.8 -1.6
v 1.4 -0.6 -1.6
v 1.4 -0.2 -1.6
v 1.4 -0.1 -1.6
v 1.4 0.3 -1.6
v 1.4 0.4 -1.6
v 1.4 0.8 -1.6
v 1.4 0.9 -1.6
v 1.4 1.3 -1.6
v 1.4 1.4 -1.6
v 1.4 1.8 -1.6
v 1.4 1.9 -1.6
v 1.4 2.2 -1.6
v 1.6 -0.8 -1.6
v 1.6 2.4 -1.6
v -1.6 -0.8 1.6
v 1.6 -0.8 1.6
v -1.4 -0.8 1.4
v -1.2 -0.8 1.4
v -1.1 -0.8 1.4
v -0.4 -0.8 1.4
v -0.3 -0.8 1.4
v 0.6 -0.8 1.4
v 0.7 -0.8 1.4
v 1.4 -0.8 1.4
v -1.4 -0.8 1
v -1.2 -0.8 1
v -1.1 -0.8 1
v -0.4 -0.8 1
v -0.3 -0.8 1
v 0.6 -0.8 1
v 0.7 -0.8 1
v 1.4 -0.8 1
v -1.4 -0.8 0.9
v -0.7 -0.8 0.9
v -0.6 -0.8 0.9
v 0.1 -0.8 0.9
v 0.2 -0.8 0.9
v 0.8 -0.8 0.9
v 0.9 -0.8 0.9
v 1.4 -0.8 0.9
v -1.4 -0.8 0.5
v -0.7 -0.8 0.5
v -0.6 -0.8 0.5
v 0.1 -0.8 0.5
v 0.2 -0.8 0.5
v 0.8 -0.8 0.5
v 0.9 -0.8 0.5
v 1.4 -0.8 0.5
v -1.4 -0.8 0.4
v -0.8 -0.8 0.4
v -0.7 -0.8 0.4
v 0 -0.8 0.4
v 0.1 -0.8 0.4
v 0.7 -0.8 0.4
v 0.8 -0.8 0.4
v 1.4 -0.8 0.4
v -1.4 -0.8 0
v -0.8 -0.8 0
v -0.7 -0.8 0
v 0 -0.8 0
v 0.1 -0.8 0
v 0.7 -0.8 0
v 0.8 -0.8 0
v 1.4 -0.8 0
v -1.4 -0.8 -0.1
v -1.1 -0.8 -0.1
v -1 -0.8 -0.1
v -0.2 -0.8 -0.1
v -0.1 -0.8 -0.1
v 0.6 -0.8 -0.1
v 0.7 -0.8 -0.1
v 1.4 -0.8 -0.1
v -1.4 -0.8 -0.5
v -1.1 -0.8 -0.5
v -1 -0.8 -0.5
v -0.2 -0.8 -0.5
v -0.1 -0.8 -0.5
v 0.6 -0.8 -0.5
v 0.7 -0.8 -0.5
v 1.4 -0.8 -0.5
v -1.4 -0.8 -0.6
v -0.7 -0.8 -0.6
v -0.6 -0.8 -0.6
v 0.1 -0.8 -0.6
v 0.2 -0.8 -0.6
v 0.8 -0.8 -0.6
v 0.9 -0.8 -0.6
v 1.4 -0.8 -0.6
v -1.4 -0.8 -1
v -0.7 -0.8 -1
v -0.6 -0.8 -1
v 0.1 -0.8 -1
v 0.2 -0.8 -1
v 0.8 -0.8 -1
v 0.9 -0.8 -1
v 1.4 -0.8 -1
v -1.4 -0.8 -1.1
v -0.9 -0.8 -1.1
v -0.8 -0.8 -1.1
v -0.2 -0.8 -1.1
v -0.1 -0.8 -1.1
v 0.6 -0.8 -1.1
v 0.7 -0.8 -1.1
v 1.4 -0.8 -1.1
v -1.4 -0.8 -1.4
v -0.9 -0.8 -1.4
v -0.8 -0.8 -1.4
v -0.2 -0.8 -1.4
v -0.1 -0.8 -1.4
v 0.6 -0.8 -1.4
v 0.7 -0.8 -1.4
v 1.4 -0.8 -1.4
v -1.6 -0.8 -1.6
v 1.6 -0.8 -1.6
v -1.6 2.4 1.6
v 1.6 2.4 1.6
v -1.4 2.4 1.4
v -1.2 2.4 1.4
v -1.1 2.4 1.4
v -0.4 2.4 1.4
v -0.3 2.4 1.4
v 0.6 2.4 1.4
v 0.7 2.4 1.4
v 1.4 2.4 1.4
v -1.4 2.4 1
v -1.2 2.4 1
v -1.1 2.4 1
v -0.4 2.4 1
v -0.3 2.4 1
v 0.6 2.4 1
v 0.7 2.4 1
v 1.4 2.4 1
v -1.4 2.4 0.9
v -0.7 2.4 0.9
v -0.6 2.4 0.9
v 0.1 2.4 0.9
v 0.2 2.4 0.9
v 0.8 2.4 0.9
v 0.9 2.4 0.9
v 1.4 2.4 0.9
v -1.4 2.4 0.5
v -0.7 2.4 0.5
v -0.6 2.4 0.5
v 0.1 2.4 0.5
v 0.2 2.4 0.5
v 0.8 2.4 0.5
v 0.9 2.4 0.5
v 1.4 2.4 0.5
v -1.4 2.4 0.4
v -0.8 2.4 0.4
v -0.7 2.4 0.4
v 0 2.4 0.4
v 0.1 2.4 0.4
v 0.7 2.4 0.4
v 0.8 2.4 0.4
v 1.4 2.4 0.4
v -1.4 2.4 0
v -0.8 2.4 0
v -0.7 2.4 0
v 0 2.4 0
v 0.1 2.4 0
v 0.7 2.4 0
v 0.8 2.4 0
v 1.4 2.4 0
v -1.4 2.4 -0.1
v -1.1 2.4 -0.1
v -1 2.4 -0.1
v -0.2 2.4 -0.1
v -0.1 2.4 -0.1
v 0.6 2.4 -0.1
v 0.7 2.4 -0.1
v 1.4 2.4 -0.1
v -1.4 2.4 -0.5
v -1.1 2.4 -0.5
v -1 2.4 -0.5
v -0.2 2.4 -0.5
v -0.1 2.4 -0.5
v 0.6 2.4 -0.5
v 0.7 2.4 -0.5
v 1.4 2.4 -0.5
v -1.4 2.4 -0.6
v -0.7 2.4 -0.6
v -0.6 2.4 -0.6
v 0.1 2.4 -0.6
v 0.2 2.4 -0.6
v 0.8 2.4 -0.6
v 0.9 2.4 -0.6
v 1.4 2.4 -0.6
v -1.4 2.4 -1
v -0.7 2.4 -1
v -0.6 2.4 -1
v 0.1 2.4 -1
v 0.2 2.4 -1
v 0.8 2.4 -1
v 0.9 2.4 -1
v 1.4 2.4 -1
v -1.4 2.4 -1.1
v -0.9 2.4 -1.1
v -0.8 2.4 -1.1
v -0.2 2.4 -1.1
v -0.1 2.4 -1.1
v 0.6 2.4 -1.1
v 0.7 2.4 -1.1
v 1.4 2.4 -1.1
v -1.4 2.4 -1.4
v -0.9 2.4 -1.4
v -0.8 2.4 -1.4
v -0.2 2.4 -1.4
v -0.1 2.4 -1.4
v 0.6 2.4 -1.4
v 0.7 2.4 -1.4
v 1.4 2.4 -1.4
v -1.6 2.4 -1.6
v 1.6 2.4 -1.6

# faces
f 3/2/1 2/2/1 1/2/1
f 4/2/1 2/2/1 3/2/1
f 5/2/1 2/2/1 4/2/1
f 6/2/1 2/2/1 5/2/1
f 7/2/1 2/2/1 6/2/1
f 8/2/1 2/2/1 7/2/1
f 9/2/1 2/2/1 8/2/1
f 10/2/1 2/2/1 9/2/1
f 11/3/1 4/3/1 3/3/1
f 12/1/1 5/1/1 4/1/1
f 12/3/1 4/3/1 11/3/1
f 13/3/1 6/3/1 5/3/1
f 13/1/1 5/1/1 12/1/1
f 14/1/1 7/1/1 6/1/1
f 14/3/1 6/3/1 13/3/1
f 15/3/1 8/3/1 7/3/1
f 15/1/1 7/1/1 14/1/1
f 16/1/1 9/1/1 8/1/1
f 16/3/1 8/3/1 15/3/1
f 17/3/1 10/3/1 9/3/1
f 17/1/1 9/1/1 16/1/1
f 18/2/1 2/2/1 10/2/1
f 18/3/1 10/3/1 17/3/1
f 19/1/1 17/1/1 16/1/1
f 19/3/1 11/3/1 3/3/1
f 19/1/1 18/1/1 17/1/1
f 19/1/1 16/1/1 15/1/1
f 19/1/1 15/1/1 14/1/1
f 19/1/1 14/1/1 13/1/1
f 19/1/1 13/1/1 12/1/1
f 19/1/1 12/1/1 11/1/1
f 20/1/1 18/1/1 19/1/1
f 21/1/1 18/1/1 20/1/1
f 22/1/1 18/1/1 21/1/1
f 23/1/1 18/1/1 22/1/1
f 24/1/1 18/1/1 23/1/1
f 25/1/1 18/1/1 24/1/1
f 26/1/1 18/1/1 25/1/1
f 27/1/1 18/1/1 26/1/1
f 28/2/1 2/2/1 18/2/1
f 28/1/1 18/1/1 27/1/1
f 29/3/1 19/3/1 3/3/1
f 29/3/1 20/3/1 19/3/1
f 30/1/1 21/1/1 20/1/1
f 30/3/1 20/3/1 29/3/1
f 31/3/1 22/3/1 21/3/1
f 31/1/1 21/1/1 30/1/1
f 32/1/1 23/1/1 22/1/1
f 32/3/1 22/3/1 31/3/1
f 33/3/1 24/3/1 23/3/1
f 33/1/1 23/1/1 32/1/1
f 34/1/1 25/1/1 24/1/1
f 34/3/1 24/3/1 33/3/1
f 35/3/1 26/3/1 25/3/1
f 35/1/1 25/1/1 34/1/1
f 36/1/1 27/1/1 26/1/1
f 36/3/1 26/3/1 35/3/1
f 37/3/1 28/3/1 27/3/1
f 37/1/1 27/1/1 36/1/1
f 38/2/1 2/2/1 28/2/1
f 38/3/1 28/3/1 37/3/1
f 39/1/1 35/1/1 34/1/1
f 39/1/1 37/1/1 36/1/1
f 39/1/1 38/1/1 37/1/1
f 39/1/1 34/1/1 33/1/1
f 39/1/1 33/1/1 32/1/1
f 39/1/1 32/1/1 31/1/1
f 39/1/1 31/1/1 30/1/1
f 39/1/1 30/1/1 29/1/1
f 39/3/1 29/3/1 3/3/1
f 39/1/1 36/1/1 35/1/1
f 40/1/1 38/1/1 39/1/1
f 41/1/1 38/1/1 40/1/1
f 42/1/1 38/1/1 41/1/1
f 43/1/1 38/1/1 42/1/1
f 44/1/1 38/1/1 43/1/1
f 45/1/1 38/1/1 44/1/1
f 46/2/1 2/2/1 38/2/1
f 46/1/1 38/1/1 45/1/1
f 47/3/1 39/3/1 3/3/1
f 47/3/1 40/3/1 39/3/1
f 48/1/1 41/1/1 40/1/1
f 48/3/1 40/3/1 47/3/1
f 49/3/1 42/3/1 41/3/1
f 49/1/1 41/1/1 48/1/1
f 50/1/1 43/1/1 42/1/1
f 50/3/1 42/3/1 49/3/1
f 51/3/1 44/3/1 43/3/1
f 51/1/1 43/1/1 50/1/1
f 52/1/1 45/1/1 44/1/1
f 52/3/1 44/3/1 51/3/1
f 53/3/1 46/3/1 45/3/1
f 53/1/1 45/1/1 52/1/1
f 54/2/1 2/2/1 46/2/1
f 54/3/1 46/3/1 53/3/1
f 55/1/1 51/1/1 50/1/1
f 55/1/1 53/1/1 52/1/1
f 55/1/1 54/1/1 53/1/1
f 55/1/1 50/1/1 49/1/1
f 55/1/1 49/1/1 48/1/1
f 55/1/1 48/1/1 47/1/1
f 55/3/1 47/3/1 3/3/1
f 55/1/1 52/1/1 51/1/1
f 56/1/1 54/1/1 55/1/1
f 57/1/1 54/1/1 56/1/1
f 58/1/1 54/1/1 57/1/1
f 59/1/1 54/1/1 58/1/1
f 60/1/1 54/1/1 59/1/1
f 61/1/1 54/1/1 60/1/1
f 62/1/1 54/1/1 61/1/1
f 63/1/1 54/1/1 62/1/1
f 64/2/1 2/2/1 54/2/1
f 64/1/1 54/1/1 63/1/1
f 65/3/1 55/3/1 3/3/1
f 65/3/1 56/3/1 55/3/1
f 66/1/1 57/1/1 56/1/1
f 66/3/1 56/3/1 65/3/1
f 67/3/1 58/3/1 57/3/1
f 67/1/1 57/1/1 66/1/1
f 68/1/1 59/1/1 58/1/1
f 68/3/1 58/3/1 67/3/1
f 69/3/1 60/3/1 59/3/1
f 69/1/1 59/1/1 68/1/1
f 70/1/1 61/1/1 60/1/1
f 70/3/1 60/3/1 69/3/1
f 71/3/1 62/3/1 61/3/1
f 71/1/1 61/1/1 70/1/1
f 72/1/1 63/1/1 62/1/1
f 72/3/1 62/3/1 71/3/1
f 73/3/1 64/3/1 63/3/1
f 73/1/1 63/1/1 72/1/1
f 74/2/1 2/2/1 64/2/1
f 74/3/1 64/3/1 73/3/1
f 75/1/1 71/1/1 70/1/1
f 75/1/1 73/1/1 72/1/1
f 75/1/1 74/1/1 73/1/1
f 75/1/1 70/1/1 69/1/1
f 75/1/1 69/1/1 68/1/1
f 75/1/1 68/1/1 67/1/1
f 75/1/1 67/1/1 66/1/1
f 75/1/1 66/1/1 65/1/1
f 75/3/1 65/3/1 3/3/1
f 75/1/1 72/1/1 71/1/1
f 76/1/1 74/1/1 75/1/1
f 77/1/1 74/1/1 76/1/1
f 78/1/1 74/1/1 77/1/1
f 79/1/1 74/1/1 78/1/1
f 80/1/1 74/1/1 79/1/1
f 81/1/1 74/1/1 80/1/1
f 82/2/1 2/2/1 74/2/1
f 82/1/1 74/1/1 81/1/1
f 83/3/1 75/3/1 3/3/1
f 83/3/1 76/3/1 75/3/1
f 84/1/1 77/1/1 76/1/1
f 84/3/1 76/3/1 83/3/1
f 85/3/1 78/3/1 77/3/1
f 85/1/1 77/1/1 84/1/1
f 86/1/1 79/1/1 78/1/1
f 86/3/1 78/3/1 85/3/1
f 87/3/1 80/3/1 79/3/1
f 87/1/1 79/1/1 86/1/1
f 88/1/1 81/1/1 80/1/1
f 88/3/1 80/3/1 87/3/1
f 89/3/1 82/3/1 81/3/1
f 89/1/1 81/1/1 88/1/1
f 90/2/1 2/2/1 82/2/1
f 90/3/1 82/3/1 89/3/1
f 91/1/1 87/1/1 86/1/1
f 91/1/1 89/1/1 88/1/1
f 91/1/1 90/1/1 89/1/1
f 91/1/1 86/1/1 85/1/1
f 91/1/1 85/1/1 84/1/1
f 91/1/1 84/1/1 83/1/1
f 91/3/1 83/3/1 3/3/1
f 91/1/1 88/1/1 87/1/1
f 92/1/1 90/1/1 91/1/1
f 93/1/1 90/1/1 92/1/1
f 94/1/1 90/1/1 93/1/1
f 95/1/1 90/1/1 94/1/1
f 96/1/1 90/1/1 95/1/1
f 97/1/1 90/1/1 96/1/1
f 98/2/1 2/2/1 90/2/1
f 98/1/1 90/1/1 97/1/1
f 99/2/1 3/2/1 1/2/1
f 99/3/1 91/3/1 3/3/1
f 99/3/1 92/3/1 91/3/1
f 100/1/1 93/1/1 92/1/1
f 100/3/1 92/3/1 99/3/1
f 101/3/1 94/3/1 93/3/1
f 101/1/1 93/1/1 100/1/1
f 102/1/1 95/1/1 94/1/1
f 102/3/1 94/3/1 101/3/1
f 103/3/1 96/3/1 95/3/1
f 103/1/1 95/1/1 102/1/1
f 104/1/1 97/1/1 96/1/1
f 104/3/1 96/3/1 103/3/1
f 105/3/1 98/3/1 97/3/1
f 105/1/1 97/1/1 104/1/1
f 106/2/1 2/2/1 98/2/1
f 106/3/1 98/3/1 105/3/1
f 107/2/1 105/2/1 104/2/1
f 107/2/1 103/2/1 102/2/1
f 107/2/1 106/2/1 105/2/1
f 107/2/1 101/2/1 100/2/1
f 107/2/1 100/2/1 99/2/1
f 107/2/1 99/2/1 1/2/1
f 107/2/1 102/2/1 101/2/1
f 107/2/1 104/2/1 103/2/1
f 108/2/1 2/2/1 106/2/1
f 108/2/1 106/2/1 107/2/1
f 109/2/2 110/2/2 111/2/2
f 111/2/2 110/2/2 112/2/2
f 112/2/2 110/2/2 113/2/2
f 113/2/2 110/2/2 114/2/2
f 114/2/2 110/2/2 115/2/2
f 115/2/2 110/2/2 116/2/2
f 116/2/2 110/2/2 117/2/2
f 117/2/2 110/2/2 118/2/2
f 109/2/2 111/2/2 119/2/2
f 111/3/2 112/3/2 119/3/2
f 112/1/2 113/1/2 120/1/2
f 119/3/2 112/3/2 120/3/2
f 113/3/2 114/3/2 121/3/2
f 120/1/2 113/1/2 121/1/2
f 114/1/2 115/1/2 122/1/2
f 121/3/2 114/3/2 122/3/2
f 115/3/2 116/3/2 123/3/2
f 122/1/2 115/1/2 123/1/2
f 116/1/2 117/1/2 124/1/2
f 123/3/2 116/3/2 124/3/2
f 117/3/2 118/3/2 125/3/2
f 124/1/2 117/1/2 125/1/2
f 118/2/2 110/2/2 126/2/2
f 125/3/2 118/3/2 126/3/2
f 124/1/2 125/1/2 127/1/2
f 123/1/2 124/1/2 127/1/2
f 125/1/2 126/1/2 127/1/2
f 122/1/2 123/1/2 127/1/2
f 121/1/2 122/1/2 127/1/2
f 120/1/2 121/1/2 127/1/2
f 119/1/2 120/1/2 127/1/2
f 109/2/2 119/2/2 127/2/2
f 127/1/2 126/1/2 128/1/2
f 128/1/2 126/1/2 129/1/2
f 129/1/2 126/1/2 130/1/2
f 130/1/2 126/1/2 131/1/2
f 131/1/2 126/1/2 132/1/2
f 132/1/2 126/1/2 133/1/2
f 133/1/2 126/1/2 134/1/2
f 134/1/2 126/1/2 135/1/2
f 126/2/2 110/2/2 136/2/2
f 135/1/2 126/1/2 136/1/2
f 109/2/2 127/2/2 137/2/2
f 127/3/2 128/3/2 137/3/2
f 128/1/2 129/1/2 138/1/2
f 137/3/2 128/3/2 138/3/2
f 129/3/2 130/3/2 139/3/2
f 138/1/2 129/1/2 139/1/2
f 130/1/2 131/1/2 140/1/2
f 139/3/2 130/3/2 140/3/2
f 131/3/2 132/3/2 141/3/2
f 140/1/2 131/1/2 141/1/2
f 132/1/2 133/1/2 142/1/2
f 141/3/2 132/3/2 142/3/2
f 133/3/2 134/3/2 143/3/2
f 142/1/2 133/1/2 143/1/2
f 134/1/2 135/1/2 144/1/2
f 143/3/2 134/3/2 144/3/2
f 135/3/2 136/3/2 145/3/2
f 144/1/2 135/1/2 145/1/2
f 136/2/2 110/2/2 146/2/2
f 145/3/2 136/3/2 146/3/2
f 142/1/2 143/1/2 147/1/2
f 144/1/2 145/1/2 147/1/2
f 145/1/2 146/1/2 147/1/2
f 141/1/2 142/1/2 147/1/2
f 140/1/2 141/1/2 147/1/2
f 139/1/2 140/1/2 147/1/2
f 138/1/2 139/1/2 147/1/2
f 137/1/2 138/1/2 147/1/2
f 109/2/2 137/2/2 147/2/2
f 143/1/2 144/1/2 147/1/2
f 147/1/2 146/1/2 148/1/2
f 148/1/2 146/1/2 149/1/2
f 149/1/2 146/1/2 150/1/2
f 150/1/2 146/1/2 151/1/2
f 151/1/2 146/1/2 152/1/2
f 152/1/2 146/1/2 153/1/2
f 146/2/2 110/2/2 154/2/2
f 153/1/2 146/1/2 154/1/2
f 109/2/2 147/2/2 155/2/2
f 147/3/2 148/3/2 155/3/2
f 148/1/2 149/1/2 156/1/2
f 155/3/2 148/3/2 156/3/2
f 149/3/2 150/3/2 157/3/2
f 156/1/2 149/1/2 157/1/2
f 150/1/2 151/1/2 158/1/2
f 157/3/2 150/3/2 158/3/2
f 151/3/2 152/3/2 159/3/2
f 158/1/2 151/1/2 159/1/2
f 152/1/2 153/1/2 160/1/2
f 159/3/2 152/3/2 160/3/2
f 153/3/2 154/3/2 161/3/2
f 160/1/2 153/1/2 161/1/2
f 154/2/2 110/2/2 162/2/2
f 161/3/2 154/3/2 162/3/2
f 158/1/2 159/1/2 163/1/2
f 160/1/2 161/1/2 163/1/2
f 161/1/2 162/1/2 163/1/2
f 157/1/2 158/1/2 163/1/2
f 156/1/2 157/1/2 163/1/2
f 155/1/2 156/1/2 163/1/2
f 109/2/2 155/2/2 163/2/2
f 159/1/2 160/1/2 163/1/2
f 163/1/2 162/1/2 164/1/2
f 164/1/2 162/1/2 165/1/2
f 165/1/2 162/1/2 166/1/2
f 166/1/2 162/1/2 167/1/2
f 167/1/2 162/1/2 168/1/2
f 168/1/2 162/1/2 169/1/2
f 169/1/2 162/1/2 170/1/2
f 170/1/2 162/1/2 171/1/2
f 162/2/2 110/2/2 172/2/2
f 171/1/2 162/1/2 172/1/2
f 109/2/2 163/2/2 173/2/2
f 163/3/2 164/3/2 173/3/2
f 164/1/2 165/1/2 174/1/2
f 173/3/2 164/3/2 174/3/2
f 165/3/2 166/3/2 175/3/2
f 174/1/2 165/1/2 175/1/2
f 166/1/2 167/1/2 176/1/2
f 175/3/2 166/3/2 176/3/2
f 167/3/2 168/3/2 177/3/2
f 176/1/2 167/1/2 177/1/2
f 168/1/2 169/1/2 178/1/2
f 177/3/2 168/3/2 178/3/2
f 169/3/2 170/3/2 179/3/2
f 178/1/2 169/1/2 179/1/2
f 170/1/2 171/1/2 180/1/2
f 179/3/2 170/3/2 180/3/2
f 171/3/2 172/3/2 181/3/2
f 180/1/2 171/1/2 181/1/2
f 172/2/2 110/2/2 182/2/2
f 181/3/2 172/3/2 182/3/2
f 178/1/2 179/1/2 183/1/2
f 180/1/2 181/1/2 183/1/2
f 181/1/2 182/1/2 183/1/2
f 177/1/2 178/1/2 183/1/2
f 176/1/2 177/1/2 183/1/2
f 175/1/2 176/1/2 183/1/2
f 174/1/2 175/1/2 183/1/2
f 173/1/2 174/1/2 183/1/2
f 109/2/2 173/2/2 183/2/2
f 179/1/2 180/1/2 183/1/2
f 183/1/2 182/1/2 184/1/2
f 184/1/2 182/1/2 185/1/2
f 185/1/2 182/1/2 186/1/2
f 186/1/2 182/1/2 187/1/2
f 187/1/2 182/1/2 188/1/2
f 188/1/2 182/1/2 189/1/2
f 182/2/2 110/2/2 190/2/2
f 189/1/2 182/1/2 190/1/2
f 109/2/2 183/2/2 191/2/2
f 183/3/2 184/3/2 191/3/2
f 184/1/2 185/1/2 192/1/2
f 191/3/2 184/3/2 192/3/2
f 185/3/2 186/3/2 193/3/2
f 192/1/2 185/1/2 193/1/2
f 186/1/2 187/1/2 194/1/2
f 193/3/2 186/3/2 194/3/2
f 187/3/2 188/3/2 195/3/2
f 194/1/2 187/1/2 195/1/2
f 188/1/2 189/1/2 196/1/2
f 195/3/2 188/3/2 196/3/2
f 189/3/2 190/3/2 197/3/2
f 196/1/2 189/1/2 197/1/2
f 190/2/2 110/2/2 198/2/2
f 197/3/2 190/3/2 198/3/2
f 194/1/2 195/1/2 199/1/2
f 196/1/2 197/1/2 199/1/2
f 197/1/2 198/1/2 199/1/2
f 193/1/2 194/1/2 199/1/2
f 192/1/2 193/1/2 199/1/2
f 191/1/2 192/1/2 199/1/2
f 109/2/2 191/2/2 199/2/2
f 195/1/2 196/1/2 199/1/2
f 199/1/2 198/1/2 200/1/2
f 200/1/2 198/1/2 201/1/2
f 201/1/2 198/1/2 202/1/2
f 202/1/2 198/1/2 203/1/2
f 203/1/2 198/1/2 204/1/2
f 204/1/2 198/1/2 205/1/2
f 198/2/2 110/2/2 206/2/2
f 205/1/2 198/1/2 206/1/2
f 109/2/2 199/2/2 207/2/2
f 199/3/2 200/3/2 207/3/2
f 200/1/2 201/1/2 208/1/2
f 207/3/2 200/3/2 208/3/2
f 201/3/2 202/3/2 209/3/2
f 208/1/2 201/1/2 209/1/2
f 202/1/2 203/1/2 210/1/2
f 209/3/2 202/3/2 210/3/2
f 203/3/2 204/3/2 211/3/2
f 210/1/2 203/1/2 211/1/2
f 204/1/2 205/1/2 212/1/2
f 211/3/2 204/3/2 212/3/2
f 205/3/2 206/3/2 213/3/2
f 212/1/2 205/1/2 213/1/2
f 206/2/2 110/2/2 214/2/2
f 213/3/2 206/3/2 214/3/2
f 210/2/2 211/2/2 215/2/2
f 212/2/2 213/2/2 215/2/2
f 213/2/2 214/2/2 215/2/2
f 209/2/2 210/2/2 215/2/2
f 208/2/2 209/2/2 215/2/2
f 207/2/2 208/2/2 215/2/2
f 109/2/2 207/2/2 215/2/2
f 211/2/2 212/2/2 215/2/2
f 214/2/2 110/2/2 216/2/2
f 215/2/2 214/2/2 216/2/2
f 219/2/3 218/2/3 217/2/3
f 220/2/3 218/2/3 219/2/3
f 221/2/3 218/2/3 220/2/3
f 222/2/3 218/2/3 221/2/3
f 223/2/3 218/2/3 222/2/3
f 224/2/3 218/2/3 223/2/3
f 225/2/3 218/2/3 224/2/3
f 226/2/3 218/2/3 225/2/3
f 227/2/3 218/2/3 226/2/3
f 228/2/3 218/2/3 227/2/3
f 229/2/3 218/2/3 228/2/3
f 230/2/3 218/2/3 229/2/3
f 231/2/3 219/2/3 217/2/3
f 231/3/3 220/3/3 219/3/3
f 232/1/3 221/1/3 220/1/3
f 232/3/3 220/3/3 231/3/3
f 233/2/3 231/2/3 217/2/3
f 233/1/3 232/1/3 231/1/3
f 234/1/3 221/1/3 232/1/3
f 234/1/3 232/1/3 233/1/3
f 235/1/3 225/1/3 224/1/3
f 235/3/3 226/3/3 225/3/3
f 236/1/3 227/1/3 226/1/3
f 236/3/3 226/3/3 235/3/3
f 237/1/3 235/1/3 224/1/3
f 237/1/3 236/1/3 235/1/3
f 238/1/3 227/1/3 236/1/3
f 238/1/3 236/1/3 237/1/3
f 239/3/3 230/3/3 229/3/3
f 239/1/3 229/1/3 228/1/3
f 240/2/3 218/2/3 230/2/3
f 240/3/3 230/3/3 239/3/3
f 241/1/3 223/1/3 222/1/3
f 241/3/3 224/3/3 223/3/3
f 242/1/3 237/1/3 224/1/3
f 242/3/3 224/3/3 241/3/3
f 243/1/3 239/1/3 228/1/3
f 243/1/3 240/1/3 239/1/3
f 244/2/3 218/2/3 240/2/3
f 244/1/3 240/1/3 243/1/3
f 245/3/3 222/3/3 221/3/3
f 245/1/3 221/1/3 234/1/3
f 246/1/3 242/1/3 241/1/3
f 246/3/3 222/3/3 245/3/3
f 246/1/3 241/1/3 222/1/3
f 247/1/3 242/1/3 246/1/3
f 248/1/3 237/1/3 242/1/3
f 248/1/3 242/1/3 247/1/3
f 249/1/3 227/1/3 238/1/3
f 249/3/3 228/3/3 227/3/3
f 250/1/3 243/1/3 228/1/3
f 250/3/3 228/3/3 249/3/3
f 251/1/3 247/1/3 246/1/3
f 251/1/3 245/1/3 234/1/3
f 251/1/3 246/1/3 245/1/3
f 252/1/3 247/1/3 251/1/3
f 253/1/3 249/1/3 238/1/3
f 253/1/3 250/1/3 249/1/3
f 254/1/3 243/1/3 250/1/3
f 254/1/3 250/1/3 253/1/3
f 255/2/3 233/2/3 217/2/3
f 255/3/3 234/3/3 233/3/3
f 256/1/3 251/1/3 234/1/3
f 256/3/3 234/3/3 255/3/3
f 257/2/3 255/2/3 217/2/3
f 257/1/3 256/1/3 255/1/3
f 258/1/3 251/1/3 256/1/3
f 258/1/3 256/1/3 257/1/3
f 259/1/3 237/1/3 248/1/3
f 259/3/3 238/3/3 237/3/3
f 260/1/3 253/1/3 238/1/3
f 260/3/3 238/3/3 259/3/3
f 261/1/3 243/1/3 254/1/3
f 261/3/3 244/3/3 243/3/3
f 262/2/3 218/2/3 244/2/3
f 262/3/3 244/3/3 261/3/3
f 263/1/3 259/1/3 248/1/3
f 263/1/3 260/1/3 259/1/3
f 264/1/3 253/1/3 260/1/3
f 264/1/3 260/1/3 263/1/3
f 265/1/3 261/1/3 254/1/3
f 265/1/3 262/1/3 261/1/3
f 266/2/3 218/2/3 262/2/3
f 266/1/3 262/1/3 265/1/3
f 267/1/3 247/1/3 252/1/3
f 267/3/3 248/3/3 247/3/3
f 268/1/3 263/1/3 248/1/3
f 268/3/3 248/3/3 267/3/3
f 269/1/3 251/1/3 258/1/3
f 269/3/3 252/3/3 251/3/3
f 270/1/3 267/1/3 252/1/3
f 270/3/3 252/3/3 269/3/3
f 270/1/3 268/1/3 267/1/3
f 271/1/3 268/1/3 270/1/3
f 272/1/3 263/1/3 268/1/3
f 272/1/3 268/1/3 271/1/3
f 273/1/3 253/1/3 264/1/3
f 273/3/3 254/3/3 253/3/3
f 274/1/3 265/1/3 254/1/3
f 274/3/3 254/3/3 273/3/3
f 275/1/3 271/1/3 270/1/3
f 275/1/3 269/1/3 258/1/3
f 275/1/3 270/1/3 269/1/3
f 276/1/3 271/1/3 275/1/3
f 277/1/3 273/1/3 264/1/3
f 277/1/3 274/1/3 273/1/3
f 278/1/3 265/1/3 274/1/3
f 278/1/3 274/1/3 277/1/3
f 279/2/3 257/2/3 217/2/3
f 279/3/3 258/3/3 257/3/3
f 280/1/3 275/1/3 258/1/3
f 280/3/3 258/3/3 279/3/3
f 281/1/3 263/1/3 272/1/3
f 281/3/3 264/3/3 263/3/3
f 282/1/3 277/1/3 264/1/3
f 282/3/3 264/3/3 281/3/3
f 283/1/3 265/1/3 278/1/3
f 283/3/3 266/3/3 265/3/3
f 284/2/3 218/2/3 266/2/3
f 284/3/3 266/3/3 283/3/3
f 285/1/3 280/1/3 279/1/3
f 285/2/3 279/2/3 217/2/3
f 286/1/3 275/1/3 280/1/3
f 286/1/3 280/1/3 285/1/3
f 287/1/3 271/1/3 276/1/3
f 287/3/3 272/3/3 271/3/3
f 288/1/3 281/1/3 272/1/3
f 288/3/3 272/3/3 287/3/3
f 288/1/3 282/1/3 281/1/3
f 289/1/3 282/1/3 288/1/3
f 290/1/3 277/1/3 282/1/3
f 290/1/3 282/1/3 289/1/3
f 291/1/3 283/1/3 278/1/3
f 291/1/3 284/1/3 283/1/3
f 292/2/3 218/2/3 284/2/3
f 292/1/3 284/1/3 291/1/3
f 293/1/3 275/1/3 286/1/3
f 293/3/3 276/3/3 275/3/3
f 294/1/3 287/1/3 276/1/3
f 294/3/3 276/3/3 293/3/3
f 294/1/3 289/1/3 288/1/3
f 294/1/3 288/1/3 287/1/3
f 295/1/3 289/1/3 294/1/3
f 296/1/3 289/1/3 295/1/3
f 297/1/3 277/1/3 290/1/3
f 297/3/3 278/3/3 277/3/3
f 298/1/3 291/1/3 278/1/3
f 298/3/3 278/3/3 297/3/3
f 299/1/3 293/1/3 286/1/3
f 299/1/3 294/1/3 293/1/3
f 299/1/3 295/1/3 294/1/3
f 300/1/3 295/1/3 299/1/3
f 301/1/3 297/1/3 290/1/3
f 301/1/3 298/1/3 297/1/3
f 302/1/3 291/1/3 298/1/3
f 302/1/3 298/1/3 301/1/3
f 303/2/3 285/2/3 217/2/3
f 303/3/3 286/3/3 285/3/3
f 304/1/3 299/1/3 286/1/3
f 304/3/3 286/3/3 303/3/3
f 305/3/3 300/3/3 299/3/3
f 305/1/3 299/1/3 304/1/3
f 306/1/3 295/1/3 300/1/3
f 306/3/3 300/3/3 305/3/3
f 307/3/3 296/3/3 295/3/3
f 307/1/3 295/1/3 306/1/3
f 308/1/3 289/1/3 296/1/3
f 308/3/3 296/3/3 307/3/3
f 309/3/3 290/3/3 289/3/3
f 309/1/3 289/1/3 308/1/3
f 310/1/3 301/1/3 290/1/3
f 310/3/3 290/3/3 309/3/3
f 311/3/3 302/3/3 301/3/3
f 311/1/3 301/1/3 310/1/3
f 312/1/3 291/1/3 302/1/3
f 312/3/3 302/3/3 311/3/3
f 313/3/3 292/3/3 291/3/3
f 313/1/3 291/1/3 312/1/3
f 314/2/3 218/2/3 292/2/3
f 314/3/3 292/3/3 313/3/3
f 315/2/3 313/2/3 312/2/3
f 315/2/3 309/2/3 308/2/3
f 315/2/3 314/2/3 313/2/3
f 315/2/3 303/2/3 217/2/3
f 315/2/3 304/2/3 303/2/3
f 315/2/3 306/2/3 305/2/3
f 315/2/3 310/2/3 309/2/3
f 315/2/3 305/2/3 304/2/3
f 315/2/3 308/2/3 307/2/3
f 315/2/3 307/2/3 306/2/3
f 315/2/3 311/2/3 310/2/3
f 315/2/3 312/2/3 311/2/3
f 316/2/3 218/2/3 314/2/3
f 316/2/3 314/2/3 315/2/3
f 317/2/4 318/2/4 319/2/4
f 319/2/4 318/2/4 320/2/4
f 320/2/4 318/2/4 321/2/4
f 321/2/4 318/2/4 322/2/4
f 322/2/4 318/2/4 323/2/4
f 323/2/4 318/2/4 324/2/4
f 324/2/4 318/2/4 325/2/4
f 325/2/4 318/2/4 326/2/4
f 326/2/4 318/2/4 327/2/4
f 327/2/4 318/2/4 328/2/4
f 328/2/4 318/2/4 329/2/4
f 329/2/4 318/2/4 330/2/4
f 317/2/4 319/2/4 331/2/4
f 319/3/4 320/3/4 331/3/4
f 320/1/4 321/1/4 332/1/4
f 331/3/4 320/3/4 332/3/4
f 317/2/4 331/2/4 333/2/4
f 331/1/4 332/1/4 333/1/4
f 332/1/4 321/1/4 334/1/4
f 333/1/4 332/1/4 334/1/4
f 324/1/4 325/1/4 335/1/4
f 325/3/4 326/3/4 335/3/4
f 326/1/4 327/1/4 336/1/4
f 335/3/4 326/3/4 336/3/4
f 324/1/4 335/1/4 337/1/4
f 335/1/4 336/1/4 337/1/4
f 336/1/4 327/1/4 338/1/4
f 337/1/4 336/1/4 338/1/4
f 329/3/4 330/3/4 339/3/4
f 328/1/4 329/1/4 339/1/4
f 330/2/4 318/2/4 340/2/4
f 339/3/4 330/3/4 340/3/4
f 322/1/4 323/1/4 341/1/4
f 323/3/4 324/3/4 341/3/4
f 324/1/4 337/1/4 342/1/4
f 341/3/4 324/3/4 342/3/4
f 328/1/4 339/1/4 343/1/4
f 339/1/4 340/1/4 343/1/4
f 340/2/4 318/2/4 344/2/4
f 343/1/4 340/1/4 344/1/4
f 321/3/4 322/3/4 345/3/4
f 334/1/4 321/1/4 345/1/4
f 341/1/4 342/1/4 346/1/4
f 345/3/4 322/3/4 346/3/4
f 322/1/4 341/1/4 346/1/4
f 346/1/4 342/1/4 347/1/4
f 342/1/4 337/1/4 348/1/4
f 347/1/4 342/1/4 348/1/4
f 338/1/4 327/1/4 349/1/4
f 327/3/4 328/3/4 349/3/4
f 328/1/4 343/1/4 350/1/4
f 349/3/4 328/3/4 350/3/4
f 346/1/4 347/1/4 351/1/4
f 334/1/4 345/1/4 351/1/4
f 345/1/4 346/1/4 351/1/4
f 351/1/4 347/1/4 352/1/4
f 338/1/4 349/1/4 353/1/4
f 349/1/4 350/1/4 353/1/4
f 350/1/4 343/1/4 354/1/4
f 353/1/4 350/1/4 354/1/4
f 317/2/4 333/2/4 355/2/4
f 333/3/4 334/3/4 355/3/4
f 334/1/4 351/1/4 356/1/4
f 355/3/4 334/3/4 356/3/4
f 317/2/4 355/2/4 357/2/4
f 355/1/4 356/1/4 357/1/4
f 356/1/4 351/1/4 358/1/4
f 357/1/4 356/1/4 358/1/4
f 348/1/4 337/1/4 359/1/4
f 337/3/4 338/3/4 359/3/4
f 338/1/4 353/1/4 360/1/4
f 359/3/4 338/3/4 360/3/4
f 354/1/4 343/1/4 361/1/4
f 343/3/4 344/3/4 361/3/4
f 344/2/4 318/2/4 362/2/4
f 361/3/4 344/3/4 362/3/4
f 348/1/4 359/1/4 363/1/4
f 359/1/4 360/1/4 363/1/4
f 360/1/4 353/1/4 364/1/4
f 363/1/4 360/1/4 364/1/4
f 354/1/4 361/1/4 365/1/4
f 361/1/4 362/1/4 365/1/4
f 362/2/4 318/2/4 366/2/4
f 365/1/4 362/1/4 366/1/4
f 352/1/4 347/1/4 367/1/4
f 347/3/4 348/3/4 367/3/4
f 348/1/4 363/1/4 368/1/4
f 367/3/4 348/3/4 368/3/4
f 358/1/4 351/1/4 369/1/4
f 351/3/4 352/3/4 369/3/4
f 352/1/4 367/1/4 370/1/4
f 369/3/4 352/3/4 370/3/4
f 367/1/4 368/1/4 370/1/4
f 370/1/4 368/1/4 371/1/4
f 368/1/4 363/1/4 372/1/4
f 371/1/4 368/1/4 372/1/4
f 364/1/4 353/1/4 373/1/4
f 353/3/4 354/3/4 373/3/4
f 354/1/4 365/1/4 374/1/4
f 373/3/4 354/3/4 374/3/4
f 370/1/4 371/1/4 375/1/4
f 358/1/4 369/1/4 375/1/4
f 369/1/4 370/1/4 375/1/4
f 375/1/4 371/1/4 376/1/4
f 364/1/4 373/1/4 377/1/4
f 373/1/4 374/1/4 377/1/4
f 374/1/4 365/1/4 378/1/4
f 377/1/4 374/1/4 378/1/4
f 317/2/4 357/2/4 379/2/4
f 357/3/4 358/3/4 379/3/4
f 358/1/4 375/1/4 380/1/4
f 379/3/4 358/3/4 380/3/4
f 372/1/4 363/1/4 381/1/4
f 363/3/4 364/3/4 381/3/4
f 364/1/4 377/1/4 382/1/4
f 381/3/4 364/3/4 382/3/4
f 378/1/4 365/1/4 383/1/4
f 365/3/4 366/3/4 383/3/4
f 366/2/4 318/2/4 384/2/4
f 383/3/4 366/3/4 384/3/4
f 379/1/4 380/1/4 385/1/4
f 317/2/4 379/2/4 385/2/4
f 380/1/4 375/1/4 386/1/4
f 385/1/4 380/1/4 386/1/4
f 376/1/4 371/1/4 387/1/4
f 371/3/4 372/3/4 387/3/4
f 372/1/4 381/1/4 388/1/4
f 387/3/4 372/3/4 388/3/4
f 381/1/4 382/1/4 388/1/4
f 388/1/4 382/1/4 389/1/4
f 382/1/4 377/1/4 390/1/4
f 389/1/4 382/1/4 390/1/4
f 378/1/4 383/1/4 391/1/4
f 383/1/4 384/1/4 391/1/4
f 384/2/4 318/2/4 392/2/4
f 391/1/4 384/1/4 392/1/4
f 386/1/4 375/1/4 393/1/4
f 375/3/4 376/3/4 393/3/4
f 376/1/4 387/1/4 394/1/4
f 393/3/4 376/3/4 394/3/4
f 388/1/4 389/1/4 394/1/4
f 387/1/4 388/1/4 394/1/4
f 394/1/4 389/1/4 395/1/4
f 395/1/4 389/1/4 396/1/4
f 390/1/4 377/1/4 397/1/4
f 377/3/4 378/3/4 397/3/4
f 378/1/4 391/1/4 398/1/4
f 397/3/4 378/3/4 398/3/4
f 386/1/4 393/1/4 399/1/4
f 393/1/4 394/1/4 399/1/4
f 394/1/4 395/1/4 399/1/4
f 399/1/4 395/1/4 400/1/4
f 390/1/4 397/1/4 401/1/4
f 397/1/4 398/1/4 401/1/4
f 398/1/4 391/1/4 402/1/4
f 401/1/4 398/1/4 402/1/4
f 317/2/4 385/2/4 403/2/4
f 385/3/4 386/3/4 403/3/4
f 386/1/4 399/1/4 404/1/4
f 403/3/4 386/3/4 404/3/4
f 399/3/4 400/3/4 405/3/4
f 404/1/4 399/1/4 405/1/4
f 400/1/4 395/1/4 406/1/4
f 405/3/4 400/3/4 406/3/4
f 395/3/4 396/3/4 407/3/4
f 406/1/4 395/1/4 407/1/4
f 396/1/4 389/1/4 408/1/4
f 407/3/4 396/3/4 408/3/4
f 389/3/4 390/3/4 409/3/4
f 408/1/4 389/1/4 409/1/4
f 390/1/4 401/1/4 410/1/4
f 409/3/4 390/3/4 410/3/4
f 401/3/4 402/3/4 411/3/4
f 410/1/4 401/1/4 411/1/4
f 402/1/4 391/1/4 412/1/4
f 411/3/4 402/3/4 412/3/4
f 391/3/4 392/3/4 413/3/4
f 412/1/4 391/1/4 413/1/4
f 392/2/4 318/2/4 414/2/4
f 413/3/4 392/3/4 414/3/4
f 412/2/4 413/2/4 415/2/4
f 408/2/4 409/2/4 415/2/4
f 413/2/4 414/2/4 415/2/4
f 317/2/4 403/2/4 415/2/4
f 403/2/4 404/2/4 415/2/4
f 405/2/4 406/2/4 415/2/4
f 409/2/4 410/2/4 415/2/4
f 404/2/4 405/2/4 415/2/4
f 407/2/4 408/2/4 415/2/4
f 406/2/4 407/2/4 415/2/4
f 410/2/4 411/2/4 415/2/4
f 411/2/4 412/2/4 415/2/4
f 414/2/4 318/2/4 416/2/4
f 415/2/4 414/2/4 416/2/4
f 419/2/5 418/2/5 417/2/5
f 420/2/5 418/2/5 419/2/5
f 421/2/5 418/2/5 420/2/5
f 422/2/5 418/2/5 421/2/5
f 423/2/5 418/2/5 422/2/5
f 424/2/5 418/2/5 423/2/5
f 425/2/5 418/2/5 424/2/5
f 426/2/5 418/2/5 425/2/5
f 427/2/5 419/2/5 417/2/5
f 427/3/5 420/3/5 419/3/5
f 428/1/5 421/1/5 420/1/5
f 428/3/5 420/3/5 427/3/5
f 429/3/5 422/3/5 421/3/5
f 429/1/5 421/1/5 428/1/5
f 430/1/5 423/1/5 422/1/5
f 430/3/5 422/3/5 429/3/5
f 431/3/5 424/3/5 423/3/5
f 431/1/5 423/1/5 430/1/5
f 432/1/5 425/1/5 424/1/5
f 432/3/5 424/3/5 431/3/5
f 433/3/5 426/3/5 425/3/5
f 433/1/5 425/1/5 432/1/5
f 434/2/5 418/2/5 426/2/5
f 434/3/5 426/3/5 433/3/5
f 435/1/5 433/1/5 432/1/5
f 435/1/5 432/1/5 431/1/5
f 435/1/5 434/1/5 433/1/5
f 435/1/5 431/1/5 430/1/5
f 435/1/5 430/1/5 429/1/5
f 435/1/5 429/1/5 428/1/5
f 435/1/5 428/1/5 427/1/5
f 435/2/5 427/2/5 417/2/5
f 436/1/5 434/1/5 435/1/5
f 437/1/5 434/1/5 436/1/5
f 438/1/5 434/1/5 437/1/5
f 439/1/5 434/1/5 438/1/5
f 440/1/5 434/1/5 439/1/5
f 441/1/5 434/1/5 440/1/5
f 442/2/5 418/2/5 434/2/5
f 442/1/5 434/1/5 441/1/5
f 443/2/5 435/2/5 417/2/5
f 443/3/5 436/3/5 435/3/5
f 444/1/5 437/1/5 436/1/5
f 444/3/5 436/3/5 443/3/5
f 445/3/5 438/3/5 437/3/5
f 445/1/5 437/1/5 444/1/5
f 446/1/5 439/1/5 438/1/5
f 446/3/5 438/3/5 445/3/5
f 447/3/5 440/3/5 439/3/5
f 447/1/5 439/1/5 446/1/5
f 448/1/5 441/1/5 440/1/5
f 448/3/5 440/3/5 447/3/5
f 449/3/5 442/3/5 441/3/5
f 449/1/5 441/1/5 448/1/5
f 450/2/5 418/2/5 442/2/5
f 450/3/5 442/3/5 449/3/5
f 451/1/5 447/1/5 446/1/5
f 451/1/5 449/1/5 448/1/5
f 451/1/5 450/1/5 449/1/5
f 451/1/5 446/1/5 445/1/5
f 451/1/5 445/1/5 444/1/5
f 451/1/5 444/1/5 443/1/5
f 451/2/5 443/2/5 417/2/5
f 451/1/5 448/1/5 447/1/5
f 452/1/5 450/1/5 451/1/5
f 453/1/5 450/1/5 452/1/5
f 454/1/5 450/1/5 453/1/5
f 455/1/5 450/1/5 454/1/5
f 456/1/5 450/1/5 455/1/5
f 457/1/5 450/1/5 456/1/5
f 458/2/5 418/2/5 450/2/5
f 458/1/5 450/1/5 457/1/5
f 459/2/5 451/2/5 417/2/5
f 459/3/5 452/3/5 451/3/5
f 460/1/5 453/1/5 452/1/5
f 460/3/5 452/3/5 459/3/5
f 461/3/5 454/3/5 453/3/5
f 461/1/5 453/1/5 460/1/5
f 462/1/5 455/1/5 454/1/5
f 462/3/5 454/3/5 461/3/5
f 463/3/5 456/3/5 455/3/5
f 463/1/5 455/1/5 462/1/5
f 464/1/5 457/1/5 456/1/5
f 464/3/5 456/3/5 463/3/5
f 465/3/5 458/3/5 457/3/5
f 465/1/5 457/1/5 464/1/5
f 466/2/5 418/2/5 458/2/5
f 466/3/5 458/3/5 465/3/5
f 467/1/5 463/1/5 462/1/5
f 467/1/5 465/1/5 464/1/5
f 467/1/5 466/1/5 465/1/5
f 467/1/5 462/1/5 461/1/5
f 467/1/5 461/1/5 460/1/5
f 467/1/5 460/1/5 459/1/5
f 467/2/5 459/2/5 417/2/5
f 467/1/5 464/1/5 463/1/5
f 468/1/5 466/1/5 467/1/5
f 469/1/5 466/1/5 468/1/5
f 470/1/5 466/1/5 469/1/5
f 471/1/5 466/1/5 470/1/5
f 472/1/5 466/1/5 471/1/5
f 473/1/5 466/1/5 472/1/5
f 474/2/5 418/2/5 466/2/5
f 474/1/5 466/1/5 473/1/5
f 475/2/5 467/2/5 417/2/5
f 475/3/5 468/3/5 467/3/5
f 476/1/5 469/1/5 468/1/5
f 476/3/5 468/3/5 475/3/5
f 477/3/5 470/3/5 469/3/5
f 477/1/5 469/1/5 476/1/5
f 478/1/5 471/1/5 470/1/5
f 478/3/5 470/3/5 477/3/5
f 479/3/5 472/3/5 471/3/5
f 479/1/5 471/1/5 478/1/5
f 480/1/5 473/1/5 472/1/5
f 480/3/5 472/3/5 479/3/5
f 481/3/5 474/3/5 473/3/5
f 481/1/5 473/1/5 480/1/5
f 482/2/5 418/2/5 474/2/5
f 482/3/5 474/3/5 481/3/5
f 483/1/5 479/1/5 478/1/5
f 483/1/5 481/1/5 480/1/5
f 483/1/5 482/1/5 481/1/5
f 483/1/5 478/1/5 477/1/5
f 483/1/5 477/1/5 476/1/5
f 483/1/5 476/1/5 475/1/5
f 483/2/5 475/2/5 417/2/5
f 483/1/5 480/1/5 479/1/5
f 484/1/5 482/1/5 483/1/5
f 485/1/5 482/1/5 484/1/5
f 486/1/5 482/1/5 485/1/5
f 487/1/5 482/1/5 486/1/5
f 488/1/5 482/1/5 487/1/5
f 489/1/5 482/1/5 488/1/5
f 490/2/5 418/2/5 482/2/5
f 490/1/5 482/1/5 489/1/5
f 491/2/5 483/2/5 417/2/5
f 491/3/5 484/3/5 483/3/5
f 492/1/5 485/1/5 484/1/5
f 492/3/5 484/3/5 491/3/5
f 493/3/5 486/3/5 485/3/5
f 493/1/5 485/1/5 492/1/5
f 494/1/5 487/1/5 486/1/5
f 494/3/5 486/3/5 493/3/5
f 495/3/5 488/3/5 487/3/5
f 495/1/5 487/1/5 494/1/5
f 496/1/5 489/1/5 488/1/5
f 496/3/5 488/3/5 495/3/5
f 497/3/5 490/3/5 489/3/5
f 497/1/5 489/1/5 496/1/5
f 498/2/5 418/2/5 490/2/5
f 498/3/5 490/3/5 497/3/5
f 499/1/5 495/1/5 494/1/5
f 499/1/5 497/1/5 496/1/5
f 499/1/5 498/1/5 497/1/5
f 499/1/5 494/1/5 493/1/5
f 499/1/5 493/1/5 492/1/5
f 499/1/5 492/1/5 491/1/5
f 499/2/5 491/2/5 417/2/5
f 499/1/5 496/1/5 495/1/5
f 500/1/5 498/1/5 499/1/5
f 501/1/5 498/1/5 500/1/5
f 502/1/5 498/1/5 501/1/5
f 503/1/5 498/1/5 502/1/5
f 504/1/5 498/1/5 503/1/5
f 505/1/5 498/1/5 504/1/5
f 506/2/5 418/2/5 498/2/5
f 506/1/5 498/1/5 505/1/5
f 507/2/5 499/2/5 417/2/5
f 507/3/5 500/3/5 499/3/5
f 508/1/5 501/1/5 500/1/5
f 508/3/5 500/3/5 507/3/5
f 509/3/5 502/3/5 501/3/5
f 509/1/5 501/1/5 508/1/5
f 510/1/5 503/1/5 502/1/5
f 510/3/5 502/3/5 509/3/5
f 511/3/5 504/3/5 503/3/5
f 511/1/5 503/1/5 510/1/5
f 512/1/5 505/1/5 504/1/5
f 512/3/5 504/3/5 511/3/5
f 513/3/5 506/3/5 505/3/5
f 513/1/5 505/1/5 512/1/5
f 514/2/5 418/2/5 506/2/5
f 514/3/5 506/3/5 513/3/5
f 515/2/5 511/2/5 510/2/5
f 515/2/5 513/2/5 512/2/5
f 515/2/5 514/2/5 513/2/5
f 515/2/5 510/2/5 509/2/5
f 515/2/5 509/2/5 508/2/5
f 515/2/5 508/2/5 507/2/5
f 515/2/5 507/2/5 417/2/5
f 515/2/5 512/2/5 511/2/5
f 516/2/5 418/2/5 514/2/5
f 516/2/5 514/2/5 515/2/5
f 517/2/6 518/2/6 519/2/6
f 519/2/6 518/2/6 520/2/6
f 520/2/6 518/2/6 521/2/6
f 521/2/6 518/2/6 522/2/6
f 522/2/6 518/2/6 523/2/6
f 523/2/6 518/2/6 524/2/6
f 524/2/6 518/2/6 525/2/6
f 525/2/6 518/2/6 526/2/6
f 517/2/6 519/2/6 527/2/6
f 519/3/6 520/3/6 527/3/6
f 520/1/6 521/1/6 528/1/6
f 527/3/6 520/3/6 528/3/6
f 521/3/6 522/3/6 529/3/6
f 528/1/6 521/1/6 529/1/6
f 522/1/6 523/1/6 530/1/6
f 529/3/6 522/3/6 530/3/6
f 523/3/6 524/3/6 531/3/6
f 530/1/6 523/1/6 531/1/6
f 524/1/6 525/1/6 532/1/6
f 531/3/6 524/3/6 532/3/6
f 525/3/6 526/3/6 533/3/6
f 532/1/6 525/1/6 533/1/6
f 526/2/6 518/2/6 534/2/6
f 533/3/6 526/3/6 534/3/6
f 532/1/6 533/1/6 535/1/6
f 531/1/6 532/1/6 535/1/6
f 533/1/6 534/1/6 535/1/6
f 530/1/6 531/1/6 535/1/6
f 529/1/6 530/1/6 535/1/6
f 528/1/6 529/1/6 535/1/6
f 527/1/6 528/1/6 535/1/6
f 517/2/6 527/2/6 535/2/6
f 535/1/6 534/1/6 536/1/6
f 536/1/6 534/1/6 537/1/6
f 537/1/6 534/1/6 538/1/6
f 538/1/6 534/1/6 539/1/6
f 539/1/6 534/1/6 540/1/6
f 540/1/6 534/1/6 541/1/6
f 534/2/6 518/2/6 542/2/6
f 541/1/6 534/1/6 542/1/6
f 517/2/6 535/2/6 543/2/6
f 535/3/6 536/3/6 543/3/6
f 536/1/6 537/1/6 544/1/6
f 543/3/6 536/3/6 544/3/6
f 537/3/6 538/3/6 545/3/6
f 544/1/6 537/1/6 545/1/6
f 538/1/6 539/1/6 546/1/6
f 545/3/6 538/3/6 546/3/6
f 539/3/6 540/3/6 547/3/6
f 546/1/6 539/1/6 547/1/6
f 540/1/6 541/1/6 548/1/6
f 547/3/6 540/3/6 548/3/6
f 541/3/6 542/3/6 549/3/6
f 548/1/6 541/1/6 549/1/6
f 542/2/6 518/2/6 550/2/6
f 549/3/6 542/3/6 550/3/6
f 546/1/6 547/1/6 551/1/6
f 548/1/6 549/1/6 551/1/6
f 549/1/6 550/1/6 551/1/6
f 545/1/6 546/1/6 551/1/6
f 544/1/6 545/1/6 551/1/6
f 543/1/6 544/1/6 551/1/6
f 517/2/6 543/2/6 551/2/6
f 547/1/6 548/1/6 551/1/6
f 551/1/6 550/1/6 552/1/6
f 552/1/6 550/1/6 553/1/6
f 553/1/6 550/1/6 554/1/6
f 554/1/6 550/1/6 555/1/6
f 555/1/6 550/1/6 556/1/6
f 556/1/6 550/1/6 557/1/6
f 550/2/6 518/2/6 558/2/6
f 557/1/6 550/1/6 558/1/6
f 517/2/6 551/2/6 559/2/6
f 551/3/6 552/3/6 559/3/6
f 552/1/6 553/1/6 560/1/6
f 559/3/6 552/3/6 560/3/6
f 553/3/6 554/3/6 561/3/6
f 560/1/6 553/1/6 561/1/6
f 554/1/6 555/1/6 562/1/6
f 561/3/6 554/3/6 562/3/6
f 555/3/6 556/3/6 563/3/6
f 562/1/6 555/1/6 563/1/6
f 556/1/6 557/1/6 564/1/6
f 563/3/6 556/3/6 564/3/6
f 557/3/6 558/3/6 565/3/6
f 564/1/6 557/1/6 565/1/6
f 558/2/6 518/2/6 566/2/6
f 565/3/6 558/3/6 566/3/6
f 562/1/6 563/1/6 567/1/6
f 564/1/6 565/1/6 567/1/6
f 565/1/6 566/1/6 567/1/6
f 561/1/6 562/1/6 567/1/6
f 560/1/6 561/1/6 567/1/6
f 559/1/6 560/1/6 567/1/6
f 517/2/6 559/2/6 567/2/6
f 563/1/6 564/1/6 567/1/6
f 567/1/6 566/1/6 568/1/6
f 568/1/6 566/1/6 569/1/6
f 569/1/6 566/1/6 570/1/6
f 570/1/6 566/1/6 571/1/6
f 571/1/6 566/1/6 572/1/6
f 572/1/6 566/1/6 573/1/6
f 566/2/6 518/2/6 574/2/6
f 573/1/6 566/1/6 574/1/6
f 517/2/6 567/2/6 575/2/6
f 567/3/6 568/3/6 575/3/6
f 568/1/6 569/1/6 576/1/6
f 575/3/6 568/3/6 576/3/6
f 569/3/6 570/3/6 577/3/6
f 576/1/6 569/1/6 577/1/6
f 570/1/6 571/1/6 578/1/6
f 577/3/6 570/3/6 578/3/6
f 571/3/6 572/3/6 579/3/6
f 578/1/6 571/1/6 579/1/6
f 572/1/6 573/1/6 580/1/6
f 579/3/6 572/3/6 580/3/6
f 573/3/6 574/3/6 581/3/6
f 580/1/6 573/1/6 581/1/6
f 574/2/6 518/2/6 582/2/6
f 581/3/6 574/3/6 582/3/6
f 578/1/6 579/1/6 583/1/6
f 580/1/6 581/1/6 583/1/6
f 581/1/6 582/1/6 583/1/6
f 577/1/6 578/1/6 583/1/6
f 576/1/6 577/1/6 583/1/6
f 575/1/6 576/1/6 583/1/6
f 517/2/6 575/2/6 583/2/6
f 579/1/6 580/1/6 583/1/6
f 583/1/6 582/1/6 584/1/6
f 584/1/6 582/1/6 585/1/6
f 585/1/6 582/1/6 586/1/6
f 586/1/6 582/1/6 587/1/6
f 587/1/6 582/1/6 588/1/6
f 588/1/6 582/1/6 589/1/6
f 582/2/6 518/2/6 590/2/6
f 589/1/6 582/1/6 590/1/6
f 517/2/6 583/2/6 591/2/6
f 583/3/6 584/3/6 591/3/6
f 584/1/6 585/1/6 592/1/6
f 591/3/6 584/3/6 592/3/6
f 585/3/6 586/3/6 593/3/6
f 592/1/6 585/1/6 593/1/6
f 586/1/6 587/1/6 594/1/6
f 593/3/6 586/3/6 594/3/6
f 587/3/6 588/3/6 595/3/6
f 594/1/6 587/1/6 595/1/6
f 588/1/6 589/1/6 596/1/6
f 595/3/6 588/3/6 596/3/6
f 589/3/6 590/3/6 597/3/6
f 596/1/6 589/1/6 597/1/6
f 590/2/6 518/2/6 598/2/6
f 597/3/6 590/3/6 598/3/6
f 594/1/6 595/1/6 599/1/6
f 596/1/6 597/1/6 599/1/6
f 597/1/6 598/1/6 599/1/6
f 593/1/6 594/1/6 599/1/6
f 592/1/6 593/1/6 599/1/6
f 591/1/6 592/1/6 599/1/6
f 517/2/6 591/2/6 599/2/6
f 595/1/6 596/1/6 599/1/6
f 599/1/6 598/1/6 600/1/6
f 600/1/6 598/1/6 601/1/6
f 601/1/6 598/1/6 602/1/6
f 602/1/6 598/1/6 603/1/6
f 603/1/6 598/1/6 604/1/6
f 604/1/6 598/1/6 605/1/6
f 598/2/6 518/2/6 606/2/6
f 605/1/6 598/1/6 606/1/6
f 517/2/6 599/2/6 607/2/6
f 599/3/6 600/3/6 607/3/6
f 600/1/6 601/1/6 608/1/6
f 607/3/6 600/3/6 608/3/6
f 601/3/6 602/3/6 609/3/6
f 608/1/6 601/1/6 609/1/6
f 602/1/6 603/1/6 610/1/6
f 609/3/6 602/3/6 610/3/6
f 603/3/6 604/3/6 611/3/6
f 610/1/6 603/1/6 611/1/6
f 604/1/6 605/1/6 612/1/6
f 611/3/6 604/3/6 612/3/6
f 605/3/6 606/3/6 613/3/6
f 612/1/6 605/1/6 613/1/6
f 606/2/6 518/2/6 614/2/6
f 613/3/6 606/3/6 614/3/6
f 610/2/6 611/2/6 615/2/6
f 612/2/6 613/2/6 615/2/6
f 613/2/6 614/2/6 615/2/6
f 609/2/6 610/2/6 615/2/6
f 608/2/6 609/2/6 615/2/6
f 607/2/6 608/2/6 615/2/6
f 517/2/6 607/2/6 615/2/6
f 611/2/6 612/2/6 615/2/6
f 614/2/6 518/2/6 616/2/6
f 615/2/6 614/2/6 616/2/6
