# MagicaVoxel @ Ephtracy

# group
o 

# material
mtllib wall.mtl
usemtl palette

# normals
vn -1 0 0
vn 1 0 0
vn 0 0 1
vn 0 0 -1
vn 0 -1 0
vn 0 1 0

# texcoords
vt 0.970703 0.5
vt 0.974609 0.5

# verts
v -1.6 -1.6 1.4
v -1.6 -1.6 1
v -1.6 3.8 1.4
v -1.6 3.8 1
v -1.4 3.8 1.4
v -1.4 3.8 1
v -1.4 4 1.4
v -1.4 4 1
v -1.2 -1 1.6
v -1.2 -1 1.4
v -1.2 -0.6 1.6
v -1.2 -0.6 1.4
v -1 2.6 1.6
v -1 2.6 1.4
v -1 3 1.6
v -1 3 1.4
v -1 4 1.4
v -1 4 1
v -1 4.2 1.4
v -1 4.2 1
v -0.8 -0.2 1.6
v -0.8 -0.2 1.4
v -0.8 0.2 1.6
v -0.8 0.2 1.4
v 0 1.8 1.6
v 0 1.8 1.4
v 0 2.2 1.6
v 0 2.2 1.4
v 0.4 3.8 1.4
v 0.4 3.8 1
v 0.4 4 1.4
v 0.4 4 1
v 0.6 -0.8 1.6
v 0.6 -0.8 1.4
v 0.6 -0.4 1.6
v 0.6 -0.4 1.4
v 0.6 4 1.4
v 0.6 4 1
v 0.6 4.2 1.4
v 0.6 4.2 1
v -0.6 -1 1.6
v -0.6 -1 1.4
v -0.6 -0.6 1.6
v -0.6 -0.6 1.4
v -0.4 4 1.4
v -0.4 4 1
v -0.4 4.2 1.4
v -0.4 4.2 1
v -0.2 3.8 1.4
v -0.2 3.8 1
v -0.2 4 1.4
v -0.2 4 1
v 0 -0.2 1.6
v 0 -0.2 1.4
v 0 0.2 1.6
v 0 0.2 1.4
v 0 2.6 1.6
v 0 2.6 1.4
v 0 3 1.6
v 0 3 1.4
v 0.8 1.8 1.6
v 0.8 1.8 1.4
v 0.8 2.2 1.6
v 0.8 2.2 1.4
v 1.2 -0.8 1.6
v 1.2 -0.8 1.4
v 1.2 -0.4 1.6
v 1.2 -0.4 1.4
v 1.4 4 1.4
v 1.4 4 1
v 1.4 4.2 1.4
v 1.4 4.2 1
v 1.6 -1.6 1.4
v 1.6 -1.6 1
v 1.6 4 1.4
v 1.6 4 1
v -1.2 -1 1.6
v -1.2 -0.6 1.6
v -1 2.6 1.6
v -1 3 1.6
v -0.8 -0.2 1.6
v -0.8 0.2 1.6
v -0.6 -1 1.6
v -0.6 -0.6 1.6
v 0 -0.2 1.6
v 0 0.2 1.6
v 0 1.8 1.6
v 0 2.2 1.6
v 0 2.6 1.6
v 0 3 1.6
v 0.6 -0.8 1.6
v 0.6 -0.4 1.6
v 0.8 1.8 1.6
v 0.8 2.2 1.6
v 1.2 -0.8 1.6
v 1.2 -0.4 1.6
v -1.6 -1.6 1.4
v -1.6 3.8 1.4
v -1.4 3.8 1.4
v -1.4 4 1.4
v -1.2 -1 1.4
v -1.2 -0.6 1.4
v -1 2.6 1.4
v -1 3 1.4
v -1 4 1.4
v -1 4.2 1.4
v -0.8 -0.2 1.4
v -0.8 0.2 1.4
v -0.6 -1 1.4
v -0.6 -0.6 1.4
v -0.4 4 1.4
v -0.4 4.2 1.4
v -0.2 3.8 1.4
v -0.2 4 1.4
v 0 -0.2 1.4
v 0 0.2 1.4
v 0 1.8 1.4
v 0 2.2 1.4
v 0 2.6 1.4
v 0 3 1.4
v 0.4 3.8 1.4
v 0.4 4 1.4
v 0.6 -0.8 1.4
v 0.6 -0.4 1.4
v 0.6 4 1.4
v 0.6 4.2 1.4
v 0.8 1.8 1.4
v 0.8 2.2 1.4
v 1.2 -0.8 1.4
v 1.2 -0.4 1.4
v 1.4 4 1.4
v 1.4 4.2 1.4
v 1.6 -1.6 1.4
v 1.6 4 1.4
v -1.6 -1.6 1
v -1.6 3.8 1
v -1.4 3.8 1
v -1.4 4 1
v -1 4 1
v -1 4.2 1
v -0.4 4 1
v -0.4 4.2 1
v -0.2 3.8 1
v -0.2 4 1
v 0.4 3.8 1
v 0.4 4 1
v 0.6 4 1
v 0.6 4.2 1
v 1.4 4 1
v 1.4 4.2 1
v 1.6 -1.6 1
v 1.6 4 1
v -1.6 -1.6 1.4
v 1.6 -1.6 1.4
v -1.6 -1.6 1
v 1.6 -1.6 1
v -1.2 -1 1.6
v -0.6 -1 1.6
v -1.2 -1 1.4
v -0.6 -1 1.4
v 0.6 -0.8 1.6
v 1.2 -0.8 1.6
v 0.6 -0.8 1.4
v 1.2 -0.8 1.4
v -0.8 -0.2 1.6
v 0 -0.2 1.6
v -0.8 -0.2 1.4
v 0 -0.2 1.4
v 0 1.8 1.6
v 0.8 1.8 1.6
v 0 1.8 1.4
v 0.8 1.8 1.4
v -1 2.6 1.6
v 0 2.6 1.6
v -1 2.6 1.4
v 0 2.6 1.4
v -1.2 -0.6 1.6
v -0.6 -0.6 1.6
v -1.2 -0.6 1.4
v -0.6 -0.6 1.4
v 0.6 -0.4 1.6
v 1.2 -0.4 1.6
v 0.6 -0.4 1.4
v 1.2 -0.4 1.4
v -0.8 0.2 1.6
v 0 0.2 1.6
v -0.8 0.2 1.4
v 0 0.2 1.4
v 0 2.2 1.6
v 0.8 2.2 1.6
v 0 2.2 1.4
v 0.8 2.2 1.4
v -1 3 1.6
v 0 3 1.6
v -1 3 1.4
v 0 3 1.4
v -1.6 3.8 1.4
v -1.4 3.8 1.4
v -0.2 3.8 1.4
v 0.4 3.8 1.4
v -1.6 3.8 1
v -1.4 3.8 1
v -0.2 3.8 1
v 0.4 3.8 1
v -1.4 4 1.4
v -1 4 1.4
v -0.4 4 1.4
v -0.2 4 1.4
v 0.4 4 1.4
v 0.6 4 1.4
v 1.4 4 1.4
v 1.6 4 1.4
v -1.4 4 1
v -1 4 1
v -0.4 4 1
v -0.2 4 1
v 0.4 4 1
v 0.6 4 1
v 1.4 4 1
v 1.6 4 1
v -1 4.2 1.4
v -0.4 4.2 1.4
v 0.6 4.2 1.4
v 1.4 4.2 1.4
v -1 4.2 1
v -0.4 4.2 1
v 0.6 4.2 1
v 1.4 4.2 1

# faces
f 3/1/1 2/1/1 1/1/1
f 4/1/1 2/1/1 3/1/1
f 7/1/1 6/1/1 5/1/1
f 8/1/1 6/1/1 7/1/1
f 11/2/1 10/2/1 9/2/1
f 12/2/1 10/2/1 11/2/1
f 15/2/1 14/2/1 13/2/1
f 16/2/1 14/2/1 15/2/1
f 19/1/1 18/1/1 17/1/1
f 20/1/1 18/1/1 19/1/1
f 23/2/1 22/2/1 21/2/1
f 24/2/1 22/2/1 23/2/1
f 27/2/1 26/2/1 25/2/1
f 28/2/1 26/2/1 27/2/1
f 31/1/1 30/1/1 29/1/1
f 32/1/1 30/1/1 31/1/1
f 35/2/1 34/2/1 33/2/1
f 36/2/1 34/2/1 35/2/1
f 39/1/1 38/1/1 37/1/1
f 40/1/1 38/1/1 39/1/1
f 41/2/2 42/2/2 43/2/2
f 43/2/2 42/2/2 44/2/2
f 45/1/2 46/1/2 47/1/2
f 47/1/2 46/1/2 48/1/2
f 49/1/2 50/1/2 51/1/2
f 51/1/2 50/1/2 52/1/2
f 53/2/2 54/2/2 55/2/2
f 55/2/2 54/2/2 56/2/2
f 57/2/2 58/2/2 59/2/2
f 59/2/2 58/2/2 60/2/2
f 61/2/2 62/2/2 63/2/2
f 63/2/2 62/2/2 64/2/2
f 65/2/2 66/2/2 67/2/2
f 67/2/2 66/2/2 68/2/2
f 69/1/2 70/1/2 71/1/2
f 71/1/2 70/1/2 72/1/2
f 73/1/2 74/1/2 75/1/2
f 75/1/2 74/1/2 76/1/2
f 83/2/3 78/2/3 77/2/3
f 84/2/3 78/2/3 83/2/3
f 85/2/3 82/2/3 81/2/3
f 86/2/3 82/2/3 85/2/3
f 89/2/3 80/2/3 79/2/3
f 90/2/3 80/2/3 89/2/3
f 93/2/3 88/2/3 87/2/3
f 94/2/3 88/2/3 93/2/3
f 95/2/3 92/2/3 91/2/3
f 96/2/3 92/2/3 95/2/3
f 99/1/3 98/1/3 97/1/3
f 101/1/3 99/1/3 97/1/3
f 101/1/3 100/1/3 99/1/3
f 102/1/3 100/1/3 101/1/3
f 103/1/3 100/1/3 102/1/3
f 104/1/3 100/1/3 103/1/3
f 105/1/3 100/1/3 104/1/3
f 107/1/3 103/1/3 102/1/3
f 108/1/3 103/1/3 107/1/3
f 109/1/3 101/1/3 97/1/3
f 110/1/3 107/1/3 102/1/3
f 111/1/3 106/1/3 105/1/3
f 111/1/3 105/1/3 104/1/3
f 112/1/3 106/1/3 111/1/3
f 113/1/3 111/1/3 104/1/3
f 114/1/3 111/1/3 113/1/3
f 115/1/3 110/1/3 109/1/3
f 115/1/3 107/1/3 110/1/3
f 116/1/3 103/1/3 108/1/3
f 117/1/3 103/1/3 116/1/3
f 118/1/3 103/1/3 117/1/3
f 119/1/3 103/1/3 118/1/3
f 120/1/3 113/1/3 104/1/3
f 121/1/3 119/1/3 118/1/3
f 121/1/3 120/1/3 119/1/3
f 121/1/3 113/1/3 120/1/3
f 123/1/3 115/1/3 109/1/3
f 123/1/3 116/1/3 115/1/3
f 123/1/3 117/1/3 116/1/3
f 124/1/3 117/1/3 123/1/3
f 125/1/3 122/1/3 121/1/3
f 127/1/3 117/1/3 124/1/3
f 128/1/3 126/1/3 125/1/3
f 128/1/3 125/1/3 121/1/3
f 128/1/3 121/1/3 118/1/3
f 129/1/3 123/1/3 109/1/3
f 130/1/3 127/1/3 124/1/3
f 130/1/3 128/1/3 127/1/3
f 131/1/3 126/1/3 128/1/3
f 131/1/3 130/1/3 129/1/3
f 131/1/3 128/1/3 130/1/3
f 132/1/3 126/1/3 131/1/3
f 133/1/3 129/1/3 109/1/3
f 133/1/3 109/1/3 97/1/3
f 133/1/3 131/1/3 129/1/3
f 134/1/3 131/1/3 133/1/3
f 135/1/4 136/1/4 137/1/4
f 137/1/4 138/1/4 139/1/4
f 137/1/4 139/1/4 141/1/4
f 139/1/4 140/1/4 141/1/4
f 141/1/4 140/1/4 142/1/4
f 135/1/4 137/1/4 143/1/4
f 137/1/4 141/1/4 143/1/4
f 143/1/4 141/1/4 144/1/4
f 135/1/4 143/1/4 145/1/4
f 145/1/4 146/1/4 147/1/4
f 145/1/4 147/1/4 149/1/4
f 147/1/4 148/1/4 149/1/4
f 149/1/4 148/1/4 150/1/4
f 135/1/4 145/1/4 151/1/4
f 145/1/4 149/1/4 151/1/4
f 151/1/4 149/1/4 152/1/4
f 155/1/5 154/1/5 153/1/5
f 156/1/5 154/1/5 155/1/5
f 159/2/5 158/2/5 157/2/5
f 160/2/5 158/2/5 159/2/5
f 163/2/5 162/2/5 161/2/5
f 164/2/5 162/2/5 163/2/5
f 167/2/5 166/2/5 165/2/5
f 168/2/5 166/2/5 167/2/5
f 171/2/5 170/2/5 169/2/5
f 172/2/5 170/2/5 171/2/5
f 175/2/5 174/2/5 173/2/5
f 176/2/5 174/2/5 175/2/5
f 177/2/6 178/2/6 179/2/6
f 179/2/6 178/2/6 180/2/6
f 181/2/6 182/2/6 183/2/6
f 183/2/6 182/2/6 184/2/6
f 185/2/6 186/2/6 187/2/6
f 187/2/6 186/2/6 188/2/6
f 189/2/6 190/2/6 191/2/6
f 191/2/6 190/2/6 192/2/6
f 193/2/6 194/2/6 195/2/6
f 195/2/6 194/2/6 196/2/6
f 197/1/6 198/1/6 201/1/6
f 201/1/6 198/1/6 202/1/6
f 199/1/6 200/1/6 203/1/6
f 203/1/6 200/1/6 204/1/6
f 205/1/6 206/1/6 213/1/6
f 213/1/6 206/1/6 214/1/6
f 207/1/6 208/1/6 215/1/6
f 215/1/6 208/1/6 216/1/6
f 209/1/6 210/1/6 217/1/6
f 217/1/6 210/1/6 218/1/6
f 211/1/6 212/1/6 219/1/6
f 219/1/6 212/1/6 220/1/6
f 221/1/6 222/1/6 225/1/6
f 225/1/6 222/1/6 226/1/6
f 223/1/6 224/1/6 227/1/6
f 227/1/6 224/1/6 228/1/6
