# MagicaVoxel @ Ephtracy

# group
o 

# material
mtllib weaponRack.mtl
usemtl palette

# normals
vn -1 0 0
vn 1 0 0
vn 0 0 1
vn 0 0 -1
vn 0 -1 0
vn 0 1 0

# texcoords
vt 0.939453 0.5
vt 0.943359 0.5
vt 0.947266 0.5
vt 0.970703 0.5
vt 0.974609 0.5
vt 0.978516 0.5

# verts
v -0.8 0 0.8
v -0.8 0 -0.8
v -0.8 0.1 0.5
v -0.8 0.1 0.2
v -0.8 0.1 -0.2
v -0.8 0.1 -0.5
v -0.8 0.2 0.2
v -0.8 0.2 0.1
v -0.8 0.2 -0.1
v -0.8 0.2 -0.2
v -0.8 0.3 0.8
v -0.8 0.3 0.7
v -0.8 0.3 0.6
v -0.8 0.3 0.5
v -0.8 0.3 0.4
v -0.8 0.3 -0.4
v -0.8 0.3 -0.5
v -0.8 0.3 -0.6
v -0.8 0.3 -0.7
v -0.8 0.3 -0.8
v -0.8 0.4 0.7
v -0.8 0.4 0.6
v -0.8 0.4 -0.6
v -0.8 0.4 -0.7
v -0.8 0.5 0.6
v -0.8 0.5 0.5
v -0.8 0.5 0.4
v -0.8 0.5 0.3
v -0.8 0.5 -0.3
v -0.8 0.5 -0.4
v -0.8 0.5 -0.5
v -0.8 0.5 -0.6
v -0.8 0.7 0.5
v -0.8 0.7 0.4
v -0.8 0.7 0.3
v -0.8 0.7 0.2
v -0.8 0.7 -0.2
v -0.8 0.7 -0.3
v -0.8 0.7 -0.4
v -0.8 0.7 -0.5
v -0.8 0.9 0.4
v -0.8 0.9 0.3
v -0.8 0.9 0.2
v -0.8 0.9 0.1
v -0.8 0.9 -0.1
v -0.8 0.9 -0.2
v -0.8 0.9 -0.3
v -0.8 0.9 -0.4
v -0.8 1.1 0.3
v -0.8 1.1 0.2
v -0.8 1.1 -0.2
v -0.8 1.1 -0.3
v -0.8 1.2 0.3
v -0.8 1.2 0.2
v -0.8 1.2 -0.2
v -0.8 1.2 -0.3
v -0.8 1.3 0.3
v -0.8 1.3 0.2
v -0.8 1.3 -0.2
v -0.8 1.3 -0.3
v -0.8 1.4 0.2
v -0.8 1.4 0.1
v -0.8 1.4 -0.1
v -0.8 1.4 -0.2
v -0.8 1.6 0.1
v -0.8 1.6 -0.1
v -0.5 0 0.8
v -0.5 0 0.7
v -0.5 0.2 0.8
v -0.5 0.2 0.7
v -0.5 0.2 0.6
v -0.5 0.3 0.7
v -0.5 0.3 0.6
v -0.5 0.3 -0.6
v -0.5 0.3 -0.7
v -0.5 0.4 0.6
v -0.5 0.4 0.5
v -0.5 0.4 -0.6
v -0.5 0.4 -0.7
v -0.5 0.5 0.6
v -0.5 0.5 0.5
v -0.5 0.6 0.6
v -0.5 0.6 0.5
v -0.5 0.6 0.4
v -0.5 0.7 0.5
v -0.5 0.7 0.4
v -0.5 0.9 0.5
v -0.5 0.9 0.4
v -0.5 0.9 0.3
v -0.5 1 0.4
v -0.5 1 0.3
v -0.5 1.2 0.4
v -0.5 1.2 0.3
v -0.5 1.2 -0.2
v -0.5 1.2 -0.3
v -0.5 1.3 0.3
v -0.5 1.3 0.2
v -0.5 1.3 -0.2
v -0.5 1.3 -0.3
v -0.5 1.4 0.2
v -0.5 1.5 0.3
v -0.5 1.5 0.2
v -0.5 1.5 0.1
v -0.5 1.6 0.2
v -0.5 1.6 0.1
v -0.5 1.8 0.2
v -0.5 1.8 0.1
v -0.5 1.8 0
v -0.5 1.9 0.1
v -0.5 1.9 0
v -0.5 2.1 0.1
v -0.5 2.1 0
v -0.5 2.1 -0.1
v -0.5 2.3 0
v -0.5 2.3 -0.1
v -0.5 2.3 -0.2
v -0.5 2.4 0
v -0.5 2.4 -0.1
v -0.5 2.4 -0.2
v -0.5 2.5 0
v -0.5 2.5 -0.1
v -0.5 2.7 -0.1
v -0.5 2.7 -0.2
v -0.3 0.3 -0.6
v -0.3 0.3 -0.7
v -0.3 0.4 -0.6
v -0.3 0.4 -0.7
v -0.3 1.2 -0.2
v -0.3 1.2 -0.3
v -0.3 1.3 -0.2
v -0.3 1.3 -0.3
v -0.2 0 -0.7
v -0.2 0 -0.8
v -0.2 0.2 -0.6
v -0.2 0.2 -0.7
v -0.2 0.2 -0.8
v -0.2 0.3 0.7
v -0.2 0.3 0.6
v -0.2 0.3 -0.6
v -0.2 0.3 -0.7
v -0.2 0.4 0.7
v -0.2 0.4 0.6
v -0.2 0.4 -0.5
v -0.2 0.4 -0.6
v -0.2 0.5 -0.5
v -0.2 0.5 -0.6
v -0.2 0.6 -0.4
v -0.2 0.6 -0.5
v -0.2 0.6 -0.6
v -0.2 0.7 -0.4
v -0.2 0.7 -0.5
v -0.2 0.9 -0.3
v -0.2 0.9 -0.4
v -0.2 0.9 -0.5
v -0.2 1 -0.3
v -0.2 1 -0.4
v -0.2 1.2 0.3
v -0.2 1.2 0.2
v -0.2 1.2 -0.3
v -0.2 1.2 -0.4
v -0.2 1.3 0.3
v -0.2 1.3 0.2
v -0.2 1.3 -0.2
v -0.2 1.3 -0.3
v -0.2 1.4 -0.2
v -0.2 1.5 -0.1
v -0.2 1.5 -0.2
v -0.2 1.5 -0.3
v -0.2 1.6 -0.1
v -0.2 1.6 -0.2
v -0.2 1.8 0
v -0.2 1.8 -0.1
v -0.2 1.8 -0.2
v -0.2 1.9 0
v -0.2 1.9 -0.1
v -0.2 2.1 0.1
v -0.2 2.1 0
v -0.2 2.1 -0.1
v -0.2 2.2 0.1
v -0.2 2.2 0
v -0.2 2.3 0.2
v -0.2 2.3 0.1
v -0.2 2.4 0.2
v -0.2 2.4 0.1
v -0.2 2.4 0
v -0.2 2.5 0.3
v -0.2 2.5 0.2
v -0.2 2.5 0.1
v -0.2 2.5 0
v -0.2 2.6 0.2
v -0.2 2.6 0.1
v -0.2 2.7 0.3
v -0.2 2.7 0.2
v 0 0.3 0.7
v 0 0.3 0.6
v 0 0.4 0.7
v 0 0.4 0.6
v 0 1.2 0.3
v 0 1.2 0.2
v 0 1.3 0.3
v 0 1.3 0.2
v 0.1 0 0.8
v 0.1 0 0.7
v 0.1 0.2 0.8
v 0.1 0.2 0.7
v 0.1 0.2 0.6
v 0.1 0.3 0.7
v 0.1 0.3 0.6
v 0.1 0.3 -0.6
v 0.1 0.3 -0.7
v 0.1 0.4 0.6
v 0.1 0.4 0.5
v 0.1 0.4 -0.6
v 0.1 0.4 -0.7
v 0.1 0.5 0.6
v 0.1 0.5 0.5
v 0.1 0.6 0.6
v 0.1 0.6 0.5
v 0.1 0.6 0.4
v 0.1 0.7 0.5
v 0.1 0.7 0.4
v 0.1 0.9 0.5
v 0.1 0.9 0.4
v 0.1 0.9 0.3
v 0.1 1 0.4
v 0.1 1 0.3
v 0.1 1.2 0.4
v 0.1 1.2 0.3
v 0.1 1.2 -0.2
v 0.1 1.2 -0.3
v 0.1 1.3 0.3
v 0.1 1.3 0.2
v 0.1 1.3 -0.2
v 0.1 1.3 -0.3
v 0.1 1.4 0.2
v 0.1 1.5 0.3
v 0.1 1.5 0.2
v 0.1 1.5 0.1
v 0.1 1.6 0.2
v 0.1 1.6 0.1
v 0.1 1.8 0.2
v 0.1 1.8 0.1
v 0.1 1.8 0
v 0.1 1.9 0.1
v 0.1 1.9 0
v 0.1 2.1 0.1
v 0.1 2.1 0
v 0.1 2.1 -0.1
v 0.1 2.2 0
v 0.1 2.2 -0.1
v 0.1 2.3 -0.1
v 0.1 2.3 -0.2
v 0.1 2.4 0
v 0.1 2.4 -0.1
v 0.1 2.4 -0.2
v 0.1 2.5 0
v 0.1 2.5 -0.1
v 0.1 2.5 -0.2
v 0.1 2.5 -0.3
v 0.1 2.6 -0.1
v 0.1 2.6 -0.2
v 0.1 2.7 -0.2
v 0.1 2.7 -0.3
v 0.3 0 0.8
v 0.3 0 0.7
v 0.3 0.2 0.8
v 0.3 0.2 0.7
v 0.3 0.2 0.6
v 0.3 0.3 0.7
v 0.3 0.3 0.6
v 0.3 0.3 -0.6
v 0.3 0.3 -0.7
v 0.3 0.4 0.6
v 0.3 0.4 0.5
v 0.3 0.4 -0.6
v 0.3 0.4 -0.7
v 0.3 0.5 0.6
v 0.3 0.5 0.5
v 0.3 0.6 0.6
v 0.3 0.6 0.5
v 0.3 0.6 0.4
v 0.3 0.7 0.5
v 0.3 0.7 0.4
v 0.3 0.9 0.5
v 0.3 0.9 0.4
v 0.3 0.9 0.3
v 0.3 1 0.4
v 0.3 1 0.3
v 0.3 1.2 0.4
v 0.3 1.2 0.3
v 0.3 1.2 -0.2
v 0.3 1.2 -0.3
v 0.3 1.3 0.3
v 0.3 1.3 0.2
v 0.3 1.3 -0.2
v 0.3 1.3 -0.3
v 0.3 1.4 0.2
v 0.3 1.5 0.3
v 0.3 1.5 0.2
v 0.3 1.5 0.1
v 0.3 1.6 0.2
v 0.3 1.6 0.1
v 0.3 1.8 0.2
v 0.3 1.8 0.1
v 0.3 1.8 0
v 0.3 1.9 0.1
v 0.3 1.9 0
v 0.3 2.1 0.1
v 0.3 2.1 0
v 0.3 2.1 -0.1
v 0.3 2.2 0
v 0.3 2.2 -0.1
v 0.3 2.3 -0.1
v 0.3 2.3 -0.2
v 0.3 2.4 0
v 0.3 2.4 -0.1
v 0.3 2.4 -0.2
v 0.3 2.5 0
v 0.3 2.5 -0.1
v 0.3 2.7 -0.1
v 0.3 2.7 -0.2
v 0.5 0.3 -0.6
v 0.5 0.3 -0.7
v 0.5 0.4 -0.6
v 0.5 0.4 -0.7
v 0.5 1.2 -0.2
v 0.5 1.2 -0.3
v 0.5 1.3 -0.2
v 0.5 1.3 -0.3
v 0.6 0 0.8
v 0.6 0 -0.8
v 0.6 0.1 0.5
v 0.6 0.1 0.2
v 0.6 0.1 -0.2
v 0.6 0.1 -0.5
v 0.6 0.2 0.8
v 0.6 0.2 0.7
v 0.6 0.2 0.2
v 0.6 0.2 0.1
v 0.6 0.2 -0.1
v 0.6 0.2 -0.2
v 0.6 0.2 -0.7
v 0.6 0.2 -0.8
v 0.6 0.3 0.7
v 0.6 0.3 0.6
v 0.6 0.3 0.5
v 0.6 0.3 0.4
v 0.6 0.3 -0.4
v 0.6 0.3 -0.5
v 0.6 0.3 -0.6
v 0.6 0.3 -0.7
v 0.6 0.4 0.7
v 0.6 0.4 0.6
v 0.6 0.4 -0.6
v 0.6 0.5 0.6
v 0.6 0.5 0.5
v 0.6 0.5 0.4
v 0.6 0.5 0.3
v 0.6 0.5 -0.3
v 0.6 0.5 -0.4
v 0.6 0.5 -0.5
v 0.6 0.5 -0.6
v 0.6 0.7 0.5
v 0.6 0.7 0.4
v 0.6 0.7 0.3
v 0.6 0.7 0.2
v 0.6 0.7 -0.2
v 0.6 0.7 -0.3
v 0.6 0.7 -0.4
v 0.6 0.7 -0.5
v 0.6 0.9 0.4
v 0.6 0.9 0.3
v 0.6 0.9 0.2
v 0.6 0.9 0.1
v 0.6 0.9 -0.1
v 0.6 0.9 -0.2
v 0.6 0.9 -0.3
v 0.6 0.9 -0.4
v 0.6 1.1 0.3
v 0.6 1.1 0.2
v 0.6 1.1 -0.2
v 0.6 1.1 -0.3
v 0.6 1.2 0.3
v 0.6 1.2 0.2
v 0.6 1.2 0.1
v 0.6 1.2 -0.1
v 0.6 1.2 -0.2
v 0.6 1.3 0.3
v 0.6 1.3 0.2
v 0.6 1.3 0.1
v 0.6 1.3 -0.1
v 0.6 1.3 -0.2
v 0.6 1.4 0.1
v 0.6 1.4 -0.1
v 0.6 1.6 0.1
v 0.6 1.6 -0.1
v -0.7 0.5 0.5
v -0.7 0.5 0.4
v -0.7 0.6 0.5
v -0.7 0.6 0.4
v -0.6 0 0.8
v -0.6 0 -0.8
v -0.6 0.1 0.5
v -0.6 0.1 0.2
v -0.6 0.1 -0.2
v -0.6 0.1 -0.5
v -0.6 0.2 0.8
v -0.6 0.2 0.7
v -0.6 0.2 0.2
v -0.6 0.2 0.1
v -0.6 0.2 -0.1
v -0.6 0.2 -0.2
v -0.6 0.2 -0.7
v -0.6 0.2 -0.8
v -0.6 0.3 0.7
v -0.6 0.3 0.6
v -0.6 0.3 0.5
v -0.6 0.3 0.4
v -0.6 0.3 -0.4
v -0.6 0.3 -0.5
v -0.6 0.3 -0.6
v -0.6 0.3 -0.7
v -0.6 0.4 0.6
v -0.6 0.4 -0.6
v -0.6 0.4 -0.7
v -0.6 0.5 0.6
v -0.6 0.5 0.4
v -0.6 0.5 0.3
v -0.6 0.5 -0.3
v -0.6 0.5 -0.4
v -0.6 0.5 -0.5
v -0.6 0.5 -0.6
v -0.6 0.6 0.5
v -0.6 0.6 0.4
v -0.6 0.7 0.5
v -0.6 0.7 0.4
v -0.6 0.7 0.3
v -0.6 0.7 0.2
v -0.6 0.7 -0.2
v -0.6 0.7 -0.3
v -0.6 0.7 -0.4
v -0.6 0.7 -0.5
v -0.6 0.9 0.4
v -0.6 0.9 0.3
v -0.6 0.9 0.2
v -0.6 0.9 0.1
v -0.6 0.9 -0.1
v -0.6 0.9 -0.2
v -0.6 0.9 -0.3
v -0.6 0.9 -0.4
v -0.6 1.1 0.3
v -0.6 1.1 0.2
v -0.6 1.1 -0.2
v -0.6 1.1 -0.3
v -0.6 1.2 0.2
v -0.6 1.2 0.1
v -0.6 1.2 -0.1
v -0.6 1.2 -0.2
v -0.6 1.2 -0.3
v -0.6 1.3 0.2
v -0.6 1.3 0.1
v -0.6 1.3 -0.1
v -0.6 1.3 -0.2
v -0.6 1.3 -0.3
v -0.6 1.4 0.1
v -0.6 1.4 -0.1
v -0.6 1.6 0.1
v -0.6 1.6 -0.1
v -0.4 0 0.8
v -0.4 0 0.7
v -0.4 0.2 0.8
v -0.4 0.2 0.7
v -0.4 0.2 0.6
v -0.4 0.3 0.7
v -0.4 0.3 0.6
v -0.4 0.3 -0.6
v -0.4 0.3 -0.7
v -0.4 0.4 0.6
v -0.4 0.4 0.5
v -0.4 0.4 -0.6
v -0.4 0.4 -0.7
v -0.4 0.5 0.6
v -0.4 0.5 0.5
v -0.4 0.6 0.6
v -0.4 0.6 0.5
v -0.4 0.6 0.4
v -0.4 0.7 0.5
v -0.4 0.7 0.4
v -0.4 0.9 0.5
v -0.4 0.9 0.4
v -0.4 0.9 0.3
v -0.4 1 0.4
v -0.4 1 0.3
v -0.4 1.2 0.4
v -0.4 1.2 0.3
v -0.4 1.2 -0.2
v -0.4 1.2 -0.3
v -0.4 1.3 0.3
v -0.4 1.3 0.2
v -0.4 1.3 -0.2
v -0.4 1.3 -0.3
v -0.4 1.4 0.2
v -0.4 1.5 0.3
v -0.4 1.5 0.2
v -0.4 1.5 0.1
v -0.4 1.6 0.2
v -0.4 1.6 0.1
v -0.4 1.8 0.2
v -0.4 1.8 0.1
v -0.4 1.8 0
v -0.4 1.9 0.1
v -0.4 1.9 0
v -0.4 2.1 0.1
v -0.4 2.1 0
v -0.4 2.1 -0.1
v -0.4 2.3 0
v -0.4 2.3 -0.1
v -0.4 2.3 -0.2
v -0.4 2.4 0
v -0.4 2.4 -0.1
v -0.4 2.4 -0.2
v -0.4 2.5 0
v -0.4 2.5 -0.1
v -0.4 2.7 -0.1
v -0.4 2.7 -0.2
v -0.3 0.3 0.7
v -0.3 0.3 0.6
v -0.3 0.4 0.7
v -0.3 0.4 0.6
v -0.3 1.2 0.3
v -0.3 1.2 0.2
v -0.3 1.3 0.3
v -0.3 1.3 0.2
v -0.1 0 -0.7
v -0.1 0 -0.8
v -0.1 0.2 -0.6
v -0.1 0.2 -0.7
v -0.1 0.2 -0.8
v -0.1 0.3 0.7
v -0.1 0.3 0.6
v -0.1 0.3 -0.6
v -0.1 0.3 -0.7
v -0.1 0.4 0.7
v -0.1 0.4 0.6
v -0.1 0.4 -0.5
v -0.1 0.4 -0.6
v -0.1 0.5 -0.5
v -0.1 0.5 -0.6
v -0.1 0.6 -0.4
v -0.1 0.6 -0.5
v -0.1 0.6 -0.6
v -0.1 0.7 -0.4
v -0.1 0.7 -0.5
v -0.1 0.9 -0.3
v -0.1 0.9 -0.4
v -0.1 0.9 -0.5
v -0.1 1 -0.3
v -0.1 1 -0.4
v -0.1 1.2 0.3
v -0.1 1.2 0.2
v -0.1 1.2 -0.3
v -0.1 1.2 -0.4
v -0.1 1.3 0.3
v -0.1 1.3 0.2
v -0.1 1.3 -0.2
v -0.1 1.3 -0.3
v -0.1 1.4 -0.2
v -0.1 1.5 -0.1
v -0.1 1.5 -0.2
v -0.1 1.5 -0.3
v -0.1 1.6 -0.1
v -0.1 1.6 -0.2
v -0.1 1.8 0
v -0.1 1.8 -0.1
v -0.1 1.8 -0.2
v -0.1 1.9 0
v -0.1 1.9 -0.1
v -0.1 2.1 0.1
v -0.1 2.1 0
v -0.1 2.1 -0.1
v -0.1 2.2 0.1
v -0.1 2.2 0
v -0.1 2.3 0.2
v -0.1 2.3 0.1
v -0.1 2.4 0.2
v -0.1 2.4 0.1
v -0.1 2.4 0
v -0.1 2.5 0.3
v -0.1 2.5 0.2
v -0.1 2.5 0.1
v -0.1 2.5 0
v -0.1 2.6 0.2
v -0.1 2.6 0.1
v -0.1 2.7 0.3
v -0.1 2.7 0.2
v 0 0.3 -0.6
v 0 0.3 -0.7
v 0 0.4 -0.6
v 0 0.4 -0.7
v 0 1.2 -0.2
v 0 1.2 -0.3
v 0 1.3 -0.2
v 0 1.3 -0.3
v 0.2 0 0.8
v 0.2 0 0.7
v 0.2 0.2 0.8
v 0.2 0.2 0.7
v 0.2 0.2 0.6
v 0.2 0.3 0.7
v 0.2 0.3 0.6
v 0.2 0.3 -0.6
v 0.2 0.3 -0.7
v 0.2 0.4 0.6
v 0.2 0.4 0.5
v 0.2 0.4 -0.6
v 0.2 0.4 -0.7
v 0.2 0.5 0.6
v 0.2 0.5 0.5
v 0.2 0.6 0.6
v 0.2 0.6 0.5
v 0.2 0.6 0.4
v 0.2 0.7 0.5
v 0.2 0.7 0.4
v 0.2 0.9 0.5
v 0.2 0.9 0.4
v 0.2 0.9 0.3
v 0.2 1 0.4
v 0.2 1 0.3
v 0.2 1.2 0.4
v 0.2 1.2 0.3
v 0.2 1.2 -0.2
v 0.2 1.2 -0.3
v 0.2 1.3 0.3
v 0.2 1.3 0.2
v 0.2 1.3 -0.2
v 0.2 1.3 -0.3
v 0.2 1.4 0.2
v 0.2 1.5 0.3
v 0.2 1.5 0.2
v 0.2 1.5 0.1
v 0.2 1.6 0.2
v 0.2 1.6 0.1
v 0.2 1.8 0.2
v 0.2 1.8 0.1
v 0.2 1.8 0
v 0.2 1.9 0.1
v 0.2 1.9 0
v 0.2 2.1 0.1
v 0.2 2.1 0
v 0.2 2.1 -0.1
v 0.2 2.2 0
v 0.2 2.2 -0.1
v 0.2 2.3 -0.1
v 0.2 2.3 -0.2
v 0.2 2.4 0
v 0.2 2.4 -0.1
v 0.2 2.4 -0.2
v 0.2 2.5 0
v 0.2 2.5 -0.1
v 0.2 2.5 -0.2
v 0.2 2.5 -0.3
v 0.2 2.6 -0.1
v 0.2 2.6 -0.2
v 0.2 2.7 -0.2
v 0.2 2.7 -0.3
v 0.4 0 0.8
v 0.4 0 0.7
v 0.4 0.2 0.8
v 0.4 0.2 0.7
v 0.4 0.2 0.6
v 0.4 0.3 0.7
v 0.4 0.3 0.6
v 0.4 0.3 -0.6
v 0.4 0.3 -0.7
v 0.4 0.4 0.6
v 0.4 0.4 0.5
v 0.4 0.4 -0.6
v 0.4 0.4 -0.7
v 0.4 0.5 0.6
v 0.4 0.5 0.5
v 0.4 0.6 0.6
v 0.4 0.6 0.5
v 0.4 0.6 0.4
v 0.4 0.7 0.5
v 0.4 0.7 0.4
v 0.4 0.9 0.5
v 0.4 0.9 0.4
v 0.4 0.9 0.3
v 0.4 1 0.4
v 0.4 1 0.3
v 0.4 1.2 0.4
v 0.4 1.2 0.3
v 0.4 1.2 -0.2
v 0.4 1.2 -0.3
v 0.4 1.3 0.3
v 0.4 1.3 0.2
v 0.4 1.3 -0.2
v 0.4 1.3 -0.3
v 0.4 1.4 0.2
v 0.4 1.5 0.3
v 0.4 1.5 0.2
v 0.4 1.5 0.1
v 0.4 1.6 0.2
v 0.4 1.6 0.1
v 0.4 1.8 0.2
v 0.4 1.8 0.1
v 0.4 1.8 0
v 0.4 1.9 0.1
v 0.4 1.9 0
v 0.4 2.1 0.1
v 0.4 2.1 0
v 0.4 2.1 -0.1
v 0.4 2.2 0
v 0.4 2.2 -0.1
v 0.4 2.3 -0.1
v 0.4 2.3 -0.2
v 0.4 2.4 0
v 0.4 2.4 -0.1
v 0.4 2.4 -0.2
v 0.4 2.5 0
v 0.4 2.5 -0.1
v 0.4 2.7 -0.1
v 0.4 2.7 -0.2
v 0.5 0.3 0.7
v 0.5 0.3 0.6
v 0.5 0.4 0.7
v 0.5 0.4 0.6
v 0.5 1.2 0.3
v 0.5 1.2 0.2
v 0.5 1.3 0.3
v 0.5 1.3 0.2
v 0.8 0 0.8
v 0.8 0 -0.8
v 0.8 0.1 0.5
v 0.8 0.1 0.2
v 0.8 0.1 -0.2
v 0.8 0.1 -0.5
v 0.8 0.2 0.2
v 0.8 0.2 0.1
v 0.8 0.2 -0.1
v 0.8 0.2 -0.2
v 0.8 0.3 0.8
v 0.8 0.3 0.7
v 0.8 0.3 0.6
v 0.8 0.3 0.5
v 0.8 0.3 0.4
v 0.8 0.3 -0.4
v 0.8 0.3 -0.5
v 0.8 0.3 -0.6
v 0.8 0.3 -0.7
v 0.8 0.3 -0.8
v 0.8 0.4 0.7
v 0.8 0.4 0.6
v 0.8 0.4 -0.6
v 0.8 0.4 -0.7
v 0.8 0.5 0.6
v 0.8 0.5 0.5
v 0.8 0.5 0.4
v 0.8 0.5 0.3
v 0.8 0.5 -0.3
v 0.8 0.5 -0.4
v 0.8 0.5 -0.5
v 0.8 0.5 -0.6
v 0.8 0.7 0.5
v 0.8 0.7 0.4
v 0.8 0.7 0.3
v 0.8 0.7 0.2
v 0.8 0.7 -0.2
v 0.8 0.7 -0.3
v 0.8 0.7 -0.4
v 0.8 0.7 -0.5
v 0.8 0.9 0.4
v 0.8 0.9 0.3
v 0.8 0.9 0.2
v 0.8 0.9 0.1
v 0.8 0.9 -0.1
v 0.8 0.9 -0.2
v 0.8 0.9 -0.3
v 0.8 0.9 -0.4
v 0.8 1.1 0.3
v 0.8 1.1 0.2
v 0.8 1.1 -0.2
v 0.8 1.1 -0.3
v 0.8 1.2 0.3
v 0.8 1.2 0.2
v 0.8 1.2 -0.2
v 0.8 1.2 -0.3
v 0.8 1.3 0.3
v 0.8 1.3 0.2
v 0.8 1.3 -0.2
v 0.8 1.3 -0.3
v 0.8 1.4 0.2
v 0.8 1.4 0.1
v 0.8 1.4 -0.1
v 0.8 1.4 -0.2
v 0.8 1.6 0.1
v 0.8 1.6 -0.1
v -0.8 0 0.8
v -0.8 0.3 0.8
v -0.6 0 0.8
v -0.6 0.2 0.8
v -0.5 0 0.8
v -0.5 0.2 0.8
v -0.4 0 0.8
v -0.4 0.2 0.8
v 0.1 0 0.8
v 0.1 0.2 0.8
v 0.2 0 0.8
v 0.2 0.2 0.8
v 0.3 0 0.8
v 0.3 0.2 0.8
v 0.4 0 0.8
v 0.4 0.2 0.8
v 0.6 0 0.8
v 0.6 0.2 0.8
v 0.8 0 0.8
v 0.8 0.3 0.8
v -0.8 0.3 0.7
v -0.8 0.4 0.7
v -0.5 0.3 0.7
v -0.5 0.4 0.7
v -0.4 0.3 0.7
v -0.4 0.4 0.7
v -0.3 0.3 0.7
v -0.3 0.4 0.7
v -0.2 0.3 0.7
v -0.2 0.4 0.7
v -0.1 0.3 0.7
v -0.1 0.4 0.7
v 0 0.3 0.7
v 0 0.4 0.7
v 0.1 0.3 0.7
v 0.1 0.4 0.7
v 0.2 0.3 0.7
v 0.2 0.4 0.7
v 0.3 0.3 0.7
v 0.3 0.4 0.7
v 0.4 0.3 0.7
v 0.4 0.4 0.7
v 0.5 0.3 0.7
v 0.5 0.4 0.7
v 0.6 0.3 0.7
v 0.6 0.4 0.7
v 0.8 0.3 0.7
v 0.8 0.4 0.7
v -0.8 0.4 0.6
v -0.8 0.5 0.6
v -0.6 0.4 0.6
v -0.6 0.5 0.6
v -0.5 0.4 0.6
v -0.5 0.5 0.6
v -0.5 0.6 0.6
v -0.4 0.4 0.6
v -0.4 0.5 0.6
v -0.4 0.6 0.6
v 0.1 0.4 0.6
v 0.1 0.5 0.6
v 0.1 0.6 0.6
v 0.2 0.4 0.6
v 0.2 0.5 0.6
v 0.2 0.6 0.6
v 0.3 0.4 0.6
v 0.3 0.5 0.6
v 0.3 0.6 0.6
v 0.4 0.4 0.6
v 0.4 0.5 0.6
v 0.4 0.6 0.6
v 0.6 0.4 0.6
v 0.6 0.5 0.6
v 0.8 0.4 0.6
v 0.8 0.5 0.6
v -0.8 0.5 0.5
v -0.8 0.7 0.5
v -0.7 0.5 0.5
v -0.7 0.6 0.5
v -0.6 0.6 0.5
v -0.6 0.7 0.5
v -0.5 0.6 0.5
v -0.5 0.7 0.5
v -0.5 0.9 0.5
v -0.4 0.6 0.5
v -0.4 0.7 0.5
v -0.4 0.9 0.5
v 0.1 0.6 0.5
v 0.1 0.7 0.5
v 0.1 0.9 0.5
v 0.2 0.6 0.5
v 0.2 0.7 0.5
v 0.2 0.9 0.5
v 0.3 0.6 0.5
v 0.3 0.7 0.5
v 0.3 0.9 0.5
v 0.4 0.6 0.5
v 0.4 0.7 0.5
v 0.4 0.9 0.5
v 0.6 0.5 0.5
v 0.6 0.7 0.5
v 0.8 0.5 0.5
v 0.8 0.7 0.5
v -0.8 0.7 0.4
v -0.8 0.9 0.4
v -0.7 0.5 0.4
v -0.7 0.6 0.4
v -0.6 0.5 0.4
v -0.6 0.6 0.4
v -0.6 0.7 0.4
v -0.6 0.9 0.4
v -0.5 0.9 0.4
v -0.5 1 0.4
v -0.5 1.2 0.4
v -0.4 0.9 0.4
v -0.4 1 0.4
v -0.4 1.2 0.4
v 0.1 0.9 0.4
v 0.1 1 0.4
v 0.1 1.2 0.4
v 0.2 0.9 0.4
v 0.2 1 0.4
v 0.2 1.2 0.4
v 0.3 0.9 0.4
v 0.3 1 0.4
v 0.3 1.2 0.4
v 0.4 0.9 0.4
v 0.4 1 0.4
v 0.4 1.2 0.4
v 0.6 0.7 0.4
v 0.6 0.9 0.4
v 0.8 0.7 0.4
v 0.8 0.9 0.4
v -0.8 0.9 0.3
v -0.8 1.1 0.3
v -0.8 1.2 0.3
v -0.8 1.3 0.3
v -0.6 0.9 0.3
v -0.6 1.1 0.3
v -0.5 1.2 0.3
v -0.5 1.3 0.3
v -0.5 1.5 0.3
v -0.4 1.2 0.3
v -0.4 1.3 0.3
v -0.4 1.5 0.3
v -0.3 1.2 0.3
v -0.3 1.3 0.3
v -0.2 1.2 0.3
v -0.2 1.3 0.3
v -0.2 2.5 0.3
v -0.2 2.7 0.3
v -0.1 1.2 0.3
v -0.1 1.3 0.3
v -0.1 2.5 0.3
v -0.1 2.7 0.3
v 0 1.2 0.3
v 0 1.3 0.3
v 0.1 1.2 0.3
v 0.1 1.3 0.3
v 0.1 1.5 0.3
v 0.2 1.2 0.3
v 0.2 1.3 0.3
v 0.2 1.5 0.3
v 0.3 1.2 0.3
v 0.3 1.3 0.3
v 0.3 1.5 0.3
v 0.4 1.2 0.3
v 0.4 1.3 0.3
v 0.4 1.5 0.3
v 0.5 1.2 0.3
v 0.5 1.3 0.3
v 0.6 0.9 0.3
v 0.6 1.1 0.3
v 0.6 1.2 0.3
v 0.6 1.3 0.3
v 0.8 0.9 0.3
v 0.8 1.1 0.3
v 0.8 1.2 0.3
v 0.8 1.3 0.3
v -0.8 0.1 0.2
v -0.8 0.2 0.2
v -0.8 1.1 0.2
v -0.8 1.2 0.2
v -0.8 1.3 0.2
v -0.8 1.4 0.2
v -0.6 0.1 0.2
v -0.6 0.2 0.2
v -0.6 1.1 0.2
v -0.6 1.2 0.2
v -0.5 1.3 0.2
v -0.5 1.4 0.2
v -0.5 1.5 0.2
v -0.5 1.6 0.2
v -0.5 1.8 0.2
v -0.4 1.3 0.2
v -0.4 1.4 0.2
v -0.4 1.5 0.2
v -0.4 1.6 0.2
v -0.4 1.8 0.2
v -0.3 1.3 0.2
v -0.2 1.3 0.2
v -0.2 2.3 0.2
v -0.2 2.4 0.2
v -0.2 2.5 0.2
v -0.1 1.3 0.2
v -0.1 2.3 0.2
v -0.1 2.4 0.2
v -0.1 2.5 0.2
v 0 1.3 0.2
v 0.1 1.3 0.2
v 0.1 1.4 0.2
v 0.1 1.5 0.2
v 0.1 1.6 0.2
v 0.1 1.8 0.2
v 0.2 1.3 0.2
v 0.2 1.4 0.2
v 0.2 1.5 0.2
v 0.2 1.6 0.2
v 0.2 1.8 0.2
v 0.3 1.3 0.2
v 0.3 1.4 0.2
v 0.3 1.5 0.2
v 0.3 1.6 0.2
v 0.3 1.8 0.2
v 0.4 1.3 0.2
v 0.4 1.4 0.2
v 0.4 1.5 0.2
v 0.4 1.6 0.2
v 0.4 1.8 0.2
v 0.5 1.3 0.2
v 0.6 0.1 0.2
v 0.6 0.2 0.2
v 0.6 1.1 0.2
v 0.6 1.2 0.2
v 0.6 1.3 0.2
v 0.8 0.1 0.2
v 0.8 0.2 0.2
v 0.8 1.1 0.2
v 0.8 1.2 0.2
v 0.8 1.3 0.2
v 0.8 1.4 0.2
v -0.8 0.2 0.1
v -0.8 0.9 0.1
v -0.8 1.4 0.1
v -0.8 1.6 0.1
v -0.6 0.2 0.1
v -0.6 0.9 0.1
v -0.6 1.4 0.1
v -0.6 1.6 0.1
v -0.5 1.8 0.1
v -0.5 1.9 0.1
v -0.5 2.1 0.1
v -0.4 1.8 0.1
v -0.4 1.9 0.1
v -0.4 2.1 0.1
v -0.2 2.1 0.1
v -0.2 2.2 0.1
v -0.2 2.3 0.1
v -0.1 2.1 0.1
v -0.1 2.2 0.1
v -0.1 2.3 0.1
v 0.1 1.8 0.1
v 0.1 1.9 0.1
v 0.1 2.1 0.1
v 0.2 1.8 0.1
v 0.2 1.9 0.1
v 0.2 2.1 0.1
v 0.3 1.8 0.1
v 0.3 1.9 0.1
v 0.3 2.1 0.1
v 0.4 1.8 0.1
v 0.4 1.9 0.1
v 0.4 2.1 0.1
v 0.6 0.2 0.1
v 0.6 0.9 0.1
v 0.6 1.4 0.1
v 0.6 1.6 0.1
v 0.8 0.2 0.1
v 0.8 0.9 0.1
v 0.8 1.4 0.1
v 0.8 1.6 0.1
v -0.5 2.1 0
v -0.5 2.3 0
v -0.5 2.4 0
v -0.5 2.5 0
v -0.4 2.1 0
v -0.4 2.3 0
v -0.4 2.4 0
v -0.4 2.5 0
v -0.2 1.8 0
v -0.2 1.9 0
v -0.2 2.1 0
v -0.1 1.8 0
v -0.1 1.9 0
v -0.1 2.1 0
v 0.1 2.1 0
v 0.1 2.2 0
v 0.1 2.4 0
v 0.1 2.5 0
v 0.2 2.1 0
v 0.2 2.2 0
v 0.2 2.4 0
v 0.2 2.5 0
v 0.3 2.1 0
v 0.3 2.2 0
v 0.3 2.4 0
v 0.3 2.5 0
v 0.4 2.1 0
v 0.4 2.2 0
v 0.4 2.4 0
v 0.4 2.5 0
v -0.6 1.3 -0.1
v -0.6 1.4 -0.1
v -0.5 2.5 -0.1
v -0.5 2.7 -0.1
v -0.4 2.5 -0.1
v -0.4 2.7 -0.1
v -0.2 1.5 -0.1
v -0.2 1.6 -0.1
v -0.2 1.8 -0.1
v -0.1 1.5 -0.1
v -0.1 1.6 -0.1
v -0.1 1.8 -0.1
v 0.1 2.5 -0.1
v 0.1 2.6 -0.1
v 0.2 2.5 -0.1
v 0.2 2.6 -0.1
v 0.3 2.5 -0.1
v 0.3 2.7 -0.1
v 0.4 2.5 -0.1
v 0.4 2.7 -0.1
v 0.6 1.3 -0.1
v 0.6 1.4 -0.1
v -0.8 0.7 -0.2
v -0.8 0.9 -0.2
v -0.6 0.7 -0.2
v -0.6 0.9 -0.2
v -0.5 1.2 -0.2
v -0.5 1.3 -0.2
v -0.4 1.2 -0.2
v -0.4 1.3 -0.2
v -0.3 1.2 -0.2
v -0.3 1.3 -0.2
v -0.2 1.2 -0.2
v -0.2 1.3 -0.2
v -0.2 1.4 -0.2
v -0.2 1.5 -0.2
v -0.1 1.2 -0.2
v -0.1 1.3 -0.2
v -0.1 1.4 -0.2
v -0.1 1.5 -0.2
v 0 1.2 -0.2
v 0 1.3 -0.2
v 0.1 1.2 -0.2
v 0.1 1.3 -0.2
v 0.1 2.6 -0.2
v 0.1 2.7 -0.2
v 0.2 1.2 -0.2
v 0.2 1.3 -0.2
v 0.2 2.6 -0.2
v 0.2 2.7 -0.2
v 0.3 1.2 -0.2
v 0.3 1.3 -0.2
v 0.4 1.2 -0.2
v 0.4 1.3 -0.2
v 0.5 1.2 -0.2
v 0.5 1.3 -0.2
v 0.6 0.7 -0.2
v 0.6 0.9 -0.2
v 0.6 1.2 -0.2
v 0.6 1.3 -0.2
v 0.8 0.7 -0.2
v 0.8 0.9 -0.2
v -0.8 0.5 -0.3
v -0.8 0.7 -0.3
v -0.6 0.5 -0.3
v -0.6 0.7 -0.3
v -0.2 0.9 -0.3
v -0.2 1 -0.3
v -0.2 1.2 -0.3
v -0.1 0.9 -0.3
v -0.1 1 -0.3
v -0.1 1.2 -0.3
v 0.6 0.5 -0.3
v 0.6 0.7 -0.3
v 0.8 0.5 -0.3
v 0.8 0.7 -0.3
v -0.8 0.3 -0.4
v -0.8 0.5 -0.4
v -0.6 0.3 -0.4
v -0.6 0.5 -0.4
v -0.2 0.6 -0.4
v -0.2 0.7 -0.4
v -0.2 0.9 -0.4
v -0.1 0.6 -0.4
v -0.1 0.7 -0.4
v -0.1 0.9 -0.4
v 0.6 0.3 -0.4
v 0.6 0.5 -0.4
v 0.8 0.3 -0.4
v 0.8 0.5 -0.4
v -0.8 0.1 -0.5
v -0.8 0.3 -0.5
v -0.6 0.1 -0.5
v -0.6 0.3 -0.5
v -0.2 0.4 -0.5
v -0.2 0.5 -0.5
v -0.2 0.6 -0.5
v -0.1 0.4 -0.5
v -0.1 0.5 -0.5
v -0.1 0.6 -0.5
v 0.6 0.1 -0.5
v 0.6 0.3 -0.5
v 0.8 0.1 -0.5
v 0.8 0.3 -0.5
v -0.5 0.3 -0.6
v -0.5 0.4 -0.6
v -0.4 0.3 -0.6
v -0.4 0.4 -0.6
v -0.3 0.3 -0.6
v -0.3 0.4 -0.6
v -0.2 0.2 -0.6
v -0.2 0.3 -0.6
v -0.2 0.4 -0.6
v -0.1 0.2 -0.6
v -0.1 0.3 -0.6
v -0.1 0.4 -0.6
v 0 0.3 -0.6
v 0 0.4 -0.6
v 0.1 0.3 -0.6
v 0.1 0.4 -0.6
v 0.2 0.3 -0.6
v 0.2 0.4 -0.6
v 0.3 0.3 -0.6
v 0.3 0.4 -0.6
v 0.4 0.3 -0.6
v 0.4 0.4 -0.6
v 0.5 0.3 -0.6
v 0.5 0.4 -0.6
v 0.6 0.3 -0.6
v 0.6 0.4 -0.6
v -0.6 0.2 -0.7
v -0.6 0.3 -0.7
v -0.5 0.3 -0.7
v -0.4 0.3 -0.7
v -0.3 0.3 -0.7
v -0.2 0 -0.7
v -0.2 0.2 -0.7
v -0.2 0.3 -0.7
v -0.1 0 -0.7
v -0.1 0.2 -0.7
v -0.1 0.3 -0.7
v 0 0.3 -0.7
v 0.1 0.3 -0.7
v 0.2 0.3 -0.7
v 0.3 0.3 -0.7
v 0.4 0.3 -0.7
v 0.5 0.3 -0.7
v 0.6 0.2 -0.7
v 0.6 0.3 -0.7
v -0.6 0.2 0.7
v -0.6 0.3 0.7
v -0.5 0 0.7
v -0.5 0.2 0.7
v -0.5 0.3 0.7
v -0.4 0 0.7
v -0.4 0.2 0.7
v -0.4 0.3 0.7
v -0.3 0.3 0.7
v -0.2 0.3 0.7
v -0.1 0.3 0.7
v 0 0.3 0.7
v 0.1 0 0.7
v 0.1 0.2 0.7
v 0.1 0.3 0.7
v 0.2 0 0.7
v 0.2 0.2 0.7
v 0.2 0.3 0.7
v 0.3 0 0.7
v 0.3 0.2 0.7
v 0.3 0.3 0.7
v 0.4 0 0.7
v 0.4 0.2 0.7
v 0.4 0.3 0.7
v 0.5 0.3 0.7
v 0.6 0.2 0.7
v 0.6 0.3 0.7
v -0.6 0.3 0.6
v -0.6 0.4 0.6
v -0.5 0.2 0.6
v -0.5 0.3 0.6
v -0.5 0.4 0.6
v -0.4 0.2 0.6
v -0.4 0.3 0.6
v -0.4 0.4 0.6
v -0.3 0.3 0.6
v -0.3 0.4 0.6
v -0.2 0.3 0.6
v -0.2 0.4 0.6
v -0.1 0.3 0.6
v -0.1 0.4 0.6
v 0 0.3 0.6
v 0 0.4 0.6
v 0.1 0.2 0.6
v 0.1 0.3 0.6
v 0.1 0.4 0.6
v 0.2 0.2 0.6
v 0.2 0.3 0.6
v 0.2 0.4 0.6
v 0.3 0.2 0.6
v 0.3 0.3 0.6
v 0.3 0.4 0.6
v 0.4 0.2 0.6
v 0.4 0.3 0.6
v 0.4 0.4 0.6
v 0.5 0.3 0.6
v 0.5 0.4 0.6
v -0.8 0.1 0.5
v -0.8 0.3 0.5
v -0.6 0.1 0.5
v -0.6 0.3 0.5
v -0.5 0.4 0.5
v -0.5 0.5 0.5
v -0.5 0.6 0.5
v -0.4 0.4 0.5
v -0.4 0.5 0.5
v -0.4 0.6 0.5
v 0.1 0.4 0.5
v 0.1 0.5 0.5
v 0.1 0.6 0.5
v 0.2 0.4 0.5
v 0.2 0.5 0.5
v 0.2 0.6 0.5
v 0.3 0.4 0.5
v 0.3 0.5 0.5
v 0.3 0.6 0.5
v 0.4 0.4 0.5
v 0.4 0.5 0.5
v 0.4 0.6 0.5
v 0.6 0.1 0.5
v 0.6 0.3 0.5
v 0.8 0.1 0.5
v 0.8 0.3 0.5
v -0.8 0.3 0.4
v -0.8 0.5 0.4
v -0.6 0.3 0.4
v -0.6 0.5 0.4
v -0.5 0.6 0.4
v -0.5 0.7 0.4
v -0.5 0.9 0.4
v -0.4 0.6 0.4
v -0.4 0.7 0.4
v -0.4 0.9 0.4
v 0.1 0.6 0.4
v 0.1 0.7 0.4
v 0.1 0.9 0.4
v 0.2 0.6 0.4
v 0.2 0.7 0.4
v 0.2 0.9 0.4
v 0.3 0.6 0.4
v 0.3 0.7 0.4
v 0.3 0.9 0.4
v 0.4 0.6 0.4
v 0.4 0.7 0.4
v 0.4 0.9 0.4
v 0.6 0.3 0.4
v 0.6 0.5 0.4
v 0.8 0.3 0.4
v 0.8 0.5 0.4
v -0.8 0.5 0.3
v -0.8 0.7 0.3
v -0.6 0.5 0.3
v -0.6 0.7 0.3
v -0.5 0.9 0.3
v -0.5 1 0.3
v -0.5 1.2 0.3
v -0.4 0.9 0.3
v -0.4 1 0.3
v -0.4 1.2 0.3
v 0.1 0.9 0.3
v 0.1 1 0.3
v 0.1 1.2 0.3
v 0.2 0.9 0.3
v 0.2 1 0.3
v 0.2 1.2 0.3
v 0.3 0.9 0.3
v 0.3 1 0.3
v 0.3 1.2 0.3
v 0.4 0.9 0.3
v 0.4 1 0.3
v 0.4 1.2 0.3
v 0.6 0.5 0.3
v 0.6 0.7 0.3
v 0.8 0.5 0.3
v 0.8 0.7 0.3
v -0.8 0.7 0.2
v -0.8 0.9 0.2
v -0.6 0.7 0.2
v -0.6 0.9 0.2
v -0.6 1.2 0.2
v -0.6 1.3 0.2
v -0.5 1.2 0.2
v -0.5 1.3 0.2
v -0.5 1.4 0.2
v -0.5 1.5 0.2
v -0.4 1.2 0.2
v -0.4 1.3 0.2
v -0.4 1.4 0.2
v -0.4 1.5 0.2
v -0.3 1.2 0.2
v -0.3 1.3 0.2
v -0.2 1.2 0.2
v -0.2 1.3 0.2
v -0.2 2.6 0.2
v -0.2 2.7 0.2
v -0.1 1.2 0.2
v -0.1 1.3 0.2
v -0.1 2.6 0.2
v -0.1 2.7 0.2
v 0 1.2 0.2
v 0 1.3 0.2
v 0.1 1.2 0.2
v 0.1 1.3 0.2
v 0.1 1.4 0.2
v 0.1 1.5 0.2
v 0.2 1.2 0.2
v 0.2 1.3 0.2
v 0.2 1.4 0.2
v 0.2 1.5 0.2
v 0.3 1.2 0.2
v 0.3 1.3 0.2
v 0.3 1.4 0.2
v 0.3 1.5 0.2
v 0.4 1.2 0.2
v 0.4 1.3 0.2
v 0.4 1.4 0.2
v 0.4 1.5 0.2
v 0.5 1.2 0.2
v 0.5 1.3 0.2
v 0.6 0.7 0.2
v 0.6 0.9 0.2
v 0.8 0.7 0.2
v 0.8 0.9 0.2
v -0.6 1.3 0.1
v -0.6 1.4 0.1
v -0.5 1.5 0.1
v -0.5 1.6 0.1
v -0.5 1.8 0.1
v -0.4 1.5 0.1
v -0.4 1.6 0.1
v -0.4 1.8 0.1
v -0.2 2.5 0.1
v -0.2 2.6 0.1
v -0.1 2.5 0.1
v -0.1 2.6 0.1
v 0.1 1.5 0.1
v 0.1 1.6 0.1
v 0.1 1.8 0.1
v 0.2 1.5 0.1
v 0.2 1.6 0.1
v 0.2 1.8 0.1
v 0.3 1.5 0.1
v 0.3 1.6 0.1
v 0.3 1.8 0.1
v 0.4 1.5 0.1
v 0.4 1.6 0.1
v 0.4 1.8 0.1
v 0.6 1.3 0.1
v 0.6 1.4 0.1
v -0.5 1.8 0
v -0.5 1.9 0
v -0.5 2.1 0
v -0.4 1.8 0
v -0.4 1.9 0
v -0.4 2.1 0
v -0.2 2.1 0
v -0.2 2.2 0
v -0.2 2.4 0
v -0.2 2.5 0
v -0.1 2.1 0
v -0.1 2.2 0
v -0.1 2.4 0
v -0.1 2.5 0
v 0.1 1.8 0
v 0.1 1.9 0
v 0.1 2.1 0
v 0.2 1.8 0
v 0.2 1.9 0
v 0.2 2.1 0
v 0.3 1.8 0
v 0.3 1.9 0
v 0.3 2.1 0
v 0.4 1.8 0
v 0.4 1.9 0
v 0.4 2.1 0
v -0.8 0.2 -0.1
v -0.8 0.9 -0.1
v -0.8 1.4 -0.1
v -0.8 1.6 -0.1
v -0.6 0.2 -0.1
v -0.6 0.9 -0.1
v -0.6 1.4 -0.1
v -0.6 1.6 -0.1
v -0.5 2.1 -0.1
v -0.5 2.3 -0.1
v -0.4 2.1 -0.1
v -0.4 2.3 -0.1
v -0.2 1.8 -0.1
v -0.2 1.9 -0.1
v -0.2 2.1 -0.1
v -0.1 1.8 -0.1
v -0.1 1.9 -0.1
v -0.1 2.1 -0.1
v 0.1 2.1 -0.1
v 0.1 2.2 -0.1
v 0.1 2.3 -0.1
v 0.2 2.1 -0.1
v 0.2 2.2 -0.1
v 0.2 2.3 -0.1
v 0.3 2.1 -0.1
v 0.3 2.2 -0.1
v 0.3 2.3 -0.1
v 0.4 2.1 -0.1
v 0.4 2.2 -0.1
v 0.4 2.3 -0.1
v 0.6 0.2 -0.1
v 0.6 0.9 -0.1
v 0.6 1.4 -0.1
v 0.6 1.6 -0.1
v 0.8 0.2 -0.1
v 0.8 0.9 -0.1
v 0.8 1.4 -0.1
v 0.8 1.6 -0.1
v -0.8 0.1 -0.2
v -0.8 0.2 -0.2
v -0.8 1.1 -0.2
v -0.8 1.2 -0.2
v -0.8 1.3 -0.2
v -0.8 1.4 -0.2
v -0.6 0.1 -0.2
v -0.6 0.2 -0.2
v -0.6 1.1 -0.2
v -0.6 1.2 -0.2
v -0.6 1.3 -0.2
v -0.5 1.3 -0.2
v -0.5 2.3 -0.2
v -0.5 2.4 -0.2
v -0.5 2.7 -0.2
v -0.4 1.3 -0.2
v -0.4 2.3 -0.2
v -0.4 2.4 -0.2
v -0.4 2.7 -0.2
v -0.3 1.3 -0.2
v -0.2 1.3 -0.2
v -0.2 1.4 -0.2
v -0.2 1.5 -0.2
v -0.2 1.6 -0.2
v -0.2 1.8 -0.2
v -0.1 1.3 -0.2
v -0.1 1.4 -0.2
v -0.1 1.5 -0.2
v -0.1 1.6 -0.2
v -0.1 1.8 -0.2
v 0 1.3 -0.2
v 0.1 1.3 -0.2
v 0.1 2.3 -0.2
v 0.1 2.4 -0.2
v 0.1 2.5 -0.2
v 0.2 1.3 -0.2
v 0.2 2.3 -0.2
v 0.2 2.4 -0.2
v 0.2 2.5 -0.2
v 0.3 1.3 -0.2
v 0.3 2.3 -0.2
v 0.3 2.4 -0.2
v 0.3 2.7 -0.2
v 0.4 1.3 -0.2
v 0.4 2.3 -0.2
v 0.4 2.4 -0.2
v 0.4 2.7 -0.2
v 0.5 1.3 -0.2
v 0.6 0.1 -0.2
v 0.6 0.2 -0.2
v 0.6 1.1 -0.2
v 0.6 1.2 -0.2
v 0.8 0.1 -0.2
v 0.8 0.2 -0.2
v 0.8 1.1 -0.2
v 0.8 1.2 -0.2
v 0.8 1.3 -0.2
v 0.8 1.4 -0.2
v -0.8 0.9 -0.3
v -0.8 1.1 -0.3
v -0.8 1.2 -0.3
v -0.8 1.3 -0.3
v -0.6 0.9 -0.3
v -0.6 1.1 -0.3
v -0.6 1.2 -0.3
v -0.6 1.3 -0.3
v -0.5 1.2 -0.3
v -0.5 1.3 -0.3
v -0.4 1.2 -0.3
v -0.4 1.3 -0.3
v -0.3 1.2 -0.3
v -0.3 1.3 -0.3
v -0.2 1.2 -0.3
v -0.2 1.3 -0.3
v -0.2 1.5 -0.3
v -0.1 1.2 -0.3
v -0.1 1.3 -0.3
v -0.1 1.5 -0.3
v 0 1.2 -0.3
v 0 1.3 -0.3
v 0.1 1.2 -0.3
v 0.1 1.3 -0.3
v 0.1 2.5 -0.3
v 0.1 2.7 -0.3
v 0.2 1.2 -0.3
v 0.2 1.3 -0.3
v 0.2 2.5 -0.3
v 0.2 2.7 -0.3
v 0.3 1.2 -0.3
v 0.3 1.3 -0.3
v 0.4 1.2 -0.3
v 0.4 1.3 -0.3
v 0.5 1.2 -0.3
v 0.5 1.3 -0.3
v 0.6 0.9 -0.3
v 0.6 1.1 -0.3
v 0.8 0.9 -0.3
v 0.8 1.1 -0.3
v 0.8 1.2 -0.3
v 0.8 1.3 -0.3
v -0.8 0.7 -0.4
v -0.8 0.9 -0.4
v -0.6 0.7 -0.4
v -0.6 0.9 -0.4
v -0.2 0.9 -0.4
v -0.2 1 -0.4
v -0.2 1.2 -0.4
v -0.1 0.9 -0.4
v -0.1 1 -0.4
v -0.1 1.2 -0.4
v 0.6 0.7 -0.4
v 0.6 0.9 -0.4
v 0.8 0.7 -0.4
v 0.8 0.9 -0.4
v -0.8 0.5 -0.5
v -0.8 0.7 -0.5
v -0.6 0.5 -0.5
v -0.6 0.7 -0.5
v -0.2 0.6 -0.5
v -0.2 0.7 -0.5
v -0.2 0.9 -0.5
v -0.1 0.6 -0.5
v -0.1 0.7 -0.5
v -0.1 0.9 -0.5
v 0.6 0.5 -0.5
v 0.6 0.7 -0.5
v 0.8 0.5 -0.5
v 0.8 0.7 -0.5
v -0.8 0.4 -0.6
v -0.8 0.5 -0.6
v -0.6 0.4 -0.6
v -0.6 0.5 -0.6
v -0.2 0.4 -0.6
v -0.2 0.5 -0.6
v -0.2 0.6 -0.6
v -0.1 0.4 -0.6
v -0.1 0.5 -0.6
v -0.1 0.6 -0.6
v 0.6 0.4 -0.6
v 0.6 0.5 -0.6
v 0.8 0.4 -0.6
v 0.8 0.5 -0.6
v -0.8 0.3 -0.7
v -0.8 0.4 -0.7
v -0.6 0.3 -0.7
v -0.6 0.4 -0.7
v -0.5 0.3 -0.7
v -0.5 0.4 -0.7
v -0.4 0.3 -0.7
v -0.4 0.4 -0.7
v -0.3 0.3 -0.7
v -0.3 0.4 -0.7
v -0.2 0.3 -0.7
v -0.2 0.4 -0.7
v -0.1 0.3 -0.7
v -0.1 0.4 -0.7
v 0 0.3 -0.7
v 0 0.4 -0.7
v 0.1 0.3 -0.7
v 0.1 0.4 -0.7
v 0.2 0.3 -0.7
v 0.2 0.4 -0.7
v 0.3 0.3 -0.7
v 0.3 0.4 -0.7
v 0.4 0.3 -0.7
v 0.4 0.4 -0.7
v 0.5 0.3 -0.7
v 0.5 0.4 -0.7
v 0.8 0.3 -0.7
v 0.8 0.4 -0.7
v -0.8 0 -0.8
v -0.8 0.3 -0.8
v -0.6 0 -0.8
v -0.6 0.2 -0.8
v -0.2 0 -0.8
v -0.2 0.2 -0.8
v -0.1 0 -0.8
v -0.1 0.2 -0.8
v 0.6 0 -0.8
v 0.6 0.2 -0.8
v 0.8 0 -0.8
v 0.8 0.3 -0.8
v -0.8 0 0.8
v -0.6 0 0.8
v -0.5 0 0.8
v -0.4 0 0.8
v 0.1 0 0.8
v 0.2 0 0.8
v 0.3 0 0.8
v 0.4 0 0.8
v 0.6 0 0.8
v 0.8 0 0.8
v -0.5 0 0.7
v -0.4 0 0.7
v 0.1 0 0.7
v 0.2 0 0.7
v 0.3 0 0.7
v 0.4 0 0.7
v -0.2 0 -0.7
v -0.1 0 -0.7
v -0.8 0 -0.8
v -0.6 0 -0.8
v -0.2 0 -0.8
v -0.1 0 -0.8
v 0.6 0 -0.8
v 0.8 0 -0.8
v -0.6 0.2 0.8
v -0.5 0.2 0.8
v -0.4 0.2 0.8
v 0.1 0.2 0.8
v 0.2 0.2 0.8
v 0.3 0.2 0.8
v 0.4 0.2 0.8
v 0.6 0.2 0.8
v -0.6 0.2 0.7
v -0.5 0.2 0.7
v -0.4 0.2 0.7
v 0.1 0.2 0.7
v 0.2 0.2 0.7
v 0.3 0.2 0.7
v 0.4 0.2 0.7
v 0.6 0.2 0.7
v -0.5 0.2 0.6
v -0.4 0.2 0.6
v 0.1 0.2 0.6
v 0.2 0.2 0.6
v 0.3 0.2 0.6
v 0.4 0.2 0.6
v -0.2 0.2 -0.6
v -0.1 0.2 -0.6
v -0.6 0.2 -0.7
v -0.2 0.2 -0.7
v -0.1 0.2 -0.7
v 0.6 0.2 -0.7
v -0.6 0.2 -0.8
v -0.2 0.2 -0.8
v -0.1 0.2 -0.8
v 0.6 0.2 -0.8
v -0.6 0.3 0.7
v -0.5 0.3 0.7
v -0.4 0.3 0.7
v -0.3 0.3 0.7
v -0.2 0.3 0.7
v -0.1 0.3 0.7
v 0 0.3 0.7
v 0.1 0.3 0.7
v 0.2 0.3 0.7
v 0.3 0.3 0.7
v 0.4 0.3 0.7
v 0.5 0.3 0.7
v -0.6 0.3 0.6
v -0.5 0.3 0.6
v -0.4 0.3 0.6
v -0.3 0.3 0.6
v -0.2 0.3 0.6
v -0.1 0.3 0.6
v 0 0.3 0.6
v 0.1 0.3 0.6
v 0.2 0.3 0.6
v 0.3 0.3 0.6
v 0.4 0.3 0.6
v 0.5 0.3 0.6
v -0.8 0.3 0.5
v -0.6 0.3 0.5
v 0.6 0.3 0.5
v 0.8 0.3 0.5
v -0.8 0.3 0.4
v -0.6 0.3 0.4
v 0.6 0.3 0.4
v 0.8 0.3 0.4
v -0.8 0.3 -0.4
v -0.6 0.3 -0.4
v 0.6 0.3 -0.4
v 0.8 0.3 -0.4
v -0.8 0.3 -0.5
v -0.6 0.3 -0.5
v 0.6 0.3 -0.5
v 0.8 0.3 -0.5
v -0.5 0.3 -0.6
v -0.4 0.3 -0.6
v -0.3 0.3 -0.6
v -0.2 0.3 -0.6
v -0.1 0.3 -0.6
v 0 0.3 -0.6
v 0.1 0.3 -0.6
v 0.2 0.3 -0.6
v 0.3 0.3 -0.6
v 0.4 0.3 -0.6
v 0.5 0.3 -0.6
v 0.6 0.3 -0.6
v -0.5 0.3 -0.7
v -0.4 0.3 -0.7
v -0.3 0.3 -0.7
v -0.2 0.3 -0.7
v -0.1 0.3 -0.7
v 0 0.3 -0.7
v 0.1 0.3 -0.7
v 0.2 0.3 -0.7
v 0.3 0.3 -0.7
v 0.4 0.3 -0.7
v 0.5 0.3 -0.7
v 0.6 0.3 -0.7
v -0.5 0.4 0.6
v -0.4 0.4 0.6
v 0.1 0.4 0.6
v 0.2 0.4 0.6
v 0.3 0.4 0.6
v 0.4 0.4 0.6
v -0.5 0.4 0.5
v -0.4 0.4 0.5
v 0.1 0.4 0.5
v 0.2 0.4 0.5
v 0.3 0.4 0.5
v 0.4 0.4 0.5
v -0.2 0.4 -0.5
v -0.1 0.4 -0.5
v -0.2 0.4 -0.6
v -0.1 0.4 -0.6
v -0.8 0.5 0.4
v -0.6 0.5 0.4
v 0.6 0.5 0.4
v 0.8 0.5 0.4
v -0.8 0.5 0.3
v -0.6 0.5 0.3
v 0.6 0.5 0.3
v 0.8 0.5 0.3
v -0.8 0.5 -0.3
v -0.6 0.5 -0.3
v 0.6 0.5 -0.3
v 0.8 0.5 -0.3
v -0.8 0.5 -0.4
v -0.6 0.5 -0.4
v 0.6 0.5 -0.4
v 0.8 0.5 -0.4
v -0.7 0.6 0.5
v -0.6 0.6 0.5
v -0.5 0.6 0.5
v -0.4 0.6 0.5
v 0.1 0.6 0.5
v 0.2 0.6 0.5
v 0.3 0.6 0.5
v 0.4 0.6 0.5
v -0.7 0.6 0.4
v -0.6 0.6 0.4
v -0.5 0.6 0.4
v -0.4 0.6 0.4
v 0.1 0.6 0.4
v 0.2 0.6 0.4
v 0.3 0.6 0.4
v 0.4 0.6 0.4
v -0.2 0.6 -0.4
v -0.1 0.6 -0.4
v -0.2 0.6 -0.5
v -0.1 0.6 -0.5
v -0.8 0.7 0.3
v -0.6 0.7 0.3
v 0.6 0.7 0.3
v 0.8 0.7 0.3
v -0.8 0.7 0.2
v -0.6 0.7 0.2
v 0.6 0.7 0.2
v 0.8 0.7 0.2
v -0.8 0.7 -0.2
v -0.6 0.7 -0.2
v 0.6 0.7 -0.2
v 0.8 0.7 -0.2
v -0.8 0.7 -0.3
v -0.6 0.7 -0.3
v 0.6 0.7 -0.3
v 0.8 0.7 -0.3
v -0.5 0.9 0.4
v -0.4 0.9 0.4
v 0.1 0.9 0.4
v 0.2 0.9 0.4
v 0.3 0.9 0.4
v 0.4 0.9 0.4
v -0.5 0.9 0.3
v -0.4 0.9 0.3
v 0.1 0.9 0.3
v 0.2 0.9 0.3
v 0.3 0.9 0.3
v 0.4 0.9 0.3
v -0.8 0.9 0.2
v -0.6 0.9 0.2
v 0.6 0.9 0.2
v 0.8 0.9 0.2
v -0.8 0.9 0.1
v -0.6 0.9 0.1
v 0.6 0.9 0.1
v 0.8 0.9 0.1
v -0.8 0.9 -0.1
v -0.6 0.9 -0.1
v 0.6 0.9 -0.1
v 0.8 0.9 -0.1
v -0.8 0.9 -0.2
v -0.6 0.9 -0.2
v 0.6 0.9 -0.2
v 0.8 0.9 -0.2
v -0.2 0.9 -0.3
v -0.1 0.9 -0.3
v -0.2 0.9 -0.4
v -0.1 0.9 -0.4
v -0.8 1.2 0.3
v -0.5 1.2 0.3
v -0.4 1.2 0.3
v -0.3 1.2 0.3
v -0.2 1.2 0.3
v -0.1 1.2 0.3
v 0 1.2 0.3
v 0.1 1.2 0.3
v 0.2 1.2 0.3
v 0.3 1.2 0.3
v 0.4 1.2 0.3
v 0.5 1.2 0.3
v 0.6 1.2 0.3
v 0.8 1.2 0.3
v -0.8 1.2 0.2
v -0.6 1.2 0.2
v -0.5 1.2 0.2
v -0.4 1.2 0.2
v -0.3 1.2 0.2
v -0.2 1.2 0.2
v -0.1 1.2 0.2
v 0 1.2 0.2
v 0.1 1.2 0.2
v 0.2 1.2 0.2
v 0.3 1.2 0.2
v 0.4 1.2 0.2
v 0.5 1.2 0.2
v 0.6 1.2 0.2
v 0.8 1.2 0.2
v -0.8 1.2 -0.2
v -0.6 1.2 -0.2
v -0.5 1.2 -0.2
v -0.4 1.2 -0.2
v -0.3 1.2 -0.2
v -0.2 1.2 -0.2
v -0.1 1.2 -0.2
v 0 1.2 -0.2
v 0.1 1.2 -0.2
v 0.2 1.2 -0.2
v 0.3 1.2 -0.2
v 0.4 1.2 -0.2
v 0.5 1.2 -0.2
v 0.6 1.2 -0.2
v 0.8 1.2 -0.2
v -0.8 1.2 -0.3
v -0.6 1.2 -0.3
v -0.5 1.2 -0.3
v -0.4 1.2 -0.3
v -0.3 1.2 -0.3
v -0.2 1.2 -0.3
v -0.1 1.2 -0.3
v 0 1.2 -0.3
v 0.1 1.2 -0.3
v 0.2 1.2 -0.3
v 0.3 1.2 -0.3
v 0.4 1.2 -0.3
v 0.5 1.2 -0.3
v 0.8 1.2 -0.3
v -0.6 1.3 0.2
v -0.5 1.3 0.2
v -0.4 1.3 0.2
v -0.3 1.3 0.2
v -0.2 1.3 0.2
v -0.1 1.3 0.2
v 0 1.3 0.2
v 0.1 1.3 0.2
v 0.2 1.3 0.2
v 0.3 1.3 0.2
v 0.4 1.3 0.2
v 0.5 1.3 0.2
v 0.6 1.3 0.2
v -0.6 1.3 0.1
v 0.6 1.3 0.1
v -0.6 1.3 -0.1
v 0.6 1.3 -0.1
v -0.6 1.3 -0.2
v -0.5 1.3 -0.2
v -0.4 1.3 -0.2
v -0.3 1.3 -0.2
v -0.2 1.3 -0.2
v -0.1 1.3 -0.2
v 0 1.3 -0.2
v 0.1 1.3 -0.2
v 0.2 1.3 -0.2
v 0.3 1.3 -0.2
v 0.4 1.3 -0.2
v 0.5 1.3 -0.2
v 0.6 1.3 -0.2
v -0.5 1.5 0.2
v -0.4 1.5 0.2
v 0.1 1.5 0.2
v 0.2 1.5 0.2
v 0.3 1.5 0.2
v 0.4 1.5 0.2
v -0.5 1.5 0.1
v -0.4 1.5 0.1
v 0.1 1.5 0.1
v 0.2 1.5 0.1
v 0.3 1.5 0.1
v 0.4 1.5 0.1
v -0.2 1.5 -0.1
v -0.1 1.5 -0.1
v -0.2 1.5 -0.2
v -0.1 1.5 -0.2
v -0.5 1.8 0.1
v -0.4 1.8 0.1
v 0.1 1.8 0.1
v 0.2 1.8 0.1
v 0.3 1.8 0.1
v 0.4 1.8 0.1
v -0.5 1.8 0
v -0.4 1.8 0
v -0.2 1.8 0
v -0.1 1.8 0
v 0.1 1.8 0
v 0.2 1.8 0
v 0.3 1.8 0
v 0.4 1.8 0
v -0.2 1.8 -0.1
v -0.1 1.8 -0.1
v -0.2 2.1 0.1
v -0.1 2.1 0.1
v -0.5 2.1 0
v -0.4 2.1 0
v -0.2 2.1 0
v -0.1 2.1 0
v 0.1 2.1 0
v 0.2 2.1 0
v 0.3 2.1 0
v 0.4 2.1 0
v -0.5 2.1 -0.1
v -0.4 2.1 -0.1
v 0.1 2.1 -0.1
v 0.2 2.1 -0.1
v 0.3 2.1 -0.1
v 0.4 2.1 -0.1
v -0.2 2.3 0.2
v -0.1 2.3 0.2
v -0.2 2.3 0.1
v -0.1 2.3 0.1
v -0.5 2.3 -0.1
v -0.4 2.3 -0.1
v 0.1 2.3 -0.1
v 0.2 2.3 -0.1
v 0.3 2.3 -0.1
v 0.4 2.3 -0.1
v -0.5 2.3 -0.2
v -0.4 2.3 -0.2
v 0.1 2.3 -0.2
v 0.2 2.3 -0.2
v 0.3 2.3 -0.2
v 0.4 2.3 -0.2
v -0.2 2.5 0.3
v -0.1 2.5 0.3
v -0.2 2.5 0.2
v -0.1 2.5 0.2
v 0.1 2.5 -0.2
v 0.2 2.5 -0.2
v 0.1 2.5 -0.3
v 0.2 2.5 -0.3
v -0.8 0.1 0.5
v -0.6 0.1 0.5
v 0.6 0.1 0.5
v 0.8 0.1 0.5
v -0.8 0.1 0.2
v -0.6 0.1 0.2
v 0.6 0.1 0.2
v 0.8 0.1 0.2
v -0.8 0.1 -0.2
v -0.6 0.1 -0.2
v 0.6 0.1 -0.2
v 0.8 0.1 -0.2
v -0.8 0.1 -0.5
v -0.6 0.1 -0.5
v 0.6 0.1 -0.5
v 0.8 0.1 -0.5
v -0.8 0.2 0.2
v -0.6 0.2 0.2
v 0.6 0.2 0.2
v 0.8 0.2 0.2
v -0.8 0.2 0.1
v -0.6 0.2 0.1
v 0.6 0.2 0.1
v 0.8 0.2 0.1
v -0.8 0.2 -0.1
v -0.6 0.2 -0.1
v 0.6 0.2 -0.1
v 0.8 0.2 -0.1
v -0.8 0.2 -0.2
v -0.6 0.2 -0.2
v 0.6 0.2 -0.2
v 0.8 0.2 -0.2
v -0.8 0.3 0.8
v 0.8 0.3 0.8
v -0.8 0.3 0.7
v -0.5 0.3 0.7
v -0.4 0.3 0.7
v -0.3 0.3 0.7
v -0.2 0.3 0.7
v -0.1 0.3 0.7
v 0 0.3 0.7
v 0.1 0.3 0.7
v 0.2 0.3 0.7
v 0.3 0.3 0.7
v 0.4 0.3 0.7
v 0.5 0.3 0.7
v 0.6 0.3 0.7
v 0.8 0.3 0.7
v -0.8 0.3 -0.7
v -0.6 0.3 -0.7
v -0.5 0.3 -0.7
v -0.4 0.3 -0.7
v -0.3 0.3 -0.7
v -0.2 0.3 -0.7
v -0.1 0.3 -0.7
v 0 0.3 -0.7
v 0.1 0.3 -0.7
v 0.2 0.3 -0.7
v 0.3 0.3 -0.7
v 0.4 0.3 -0.7
v 0.5 0.3 -0.7
v 0.8 0.3 -0.7
v -0.8 0.3 -0.8
v 0.8 0.3 -0.8
v -0.8 0.4 0.7
v -0.5 0.4 0.7
v -0.4 0.4 0.7
v -0.3 0.4 0.7
v -0.2 0.4 0.7
v -0.1 0.4 0.7
v 0 0.4 0.7
v 0.1 0.4 0.7
v 0.2 0.4 0.7
v 0.3 0.4 0.7
v 0.4 0.4 0.7
v 0.5 0.4 0.7
v 0.6 0.4 0.7
v 0.8 0.4 0.7
v -0.8 0.4 0.6
v -0.6 0.4 0.6
v -0.5 0.4 0.6
v -0.4 0.4 0.6
v -0.3 0.4 0.6
v -0.2 0.4 0.6
v -0.1 0.4 0.6
v 0 0.4 0.6
v 0.1 0.4 0.6
v 0.2 0.4 0.6
v 0.3 0.4 0.6
v 0.4 0.4 0.6
v 0.5 0.4 0.6
v 0.6 0.4 0.6
v 0.8 0.4 0.6
v -0.8 0.4 -0.6
v -0.6 0.4 -0.6
v -0.5 0.4 -0.6
v -0.4 0.4 -0.6
v -0.3 0.4 -0.6
v -0.2 0.4 -0.6
v -0.1 0.4 -0.6
v 0 0.4 -0.6
v 0.1 0.4 -0.6
v 0.2 0.4 -0.6
v 0.3 0.4 -0.6
v 0.4 0.4 -0.6
v 0.5 0.4 -0.6
v 0.6 0.4 -0.6
v 0.8 0.4 -0.6
v -0.8 0.4 -0.7
v -0.6 0.4 -0.7
v -0.5 0.4 -0.7
v -0.4 0.4 -0.7
v -0.3 0.4 -0.7
v -0.2 0.4 -0.7
v -0.1 0.4 -0.7
v 0 0.4 -0.7
v 0.1 0.4 -0.7
v 0.2 0.4 -0.7
v 0.3 0.4 -0.7
v 0.4 0.4 -0.7
v 0.5 0.4 -0.7
v 0.8 0.4 -0.7
v -0.8 0.5 0.6
v -0.6 0.5 0.6
v 0.6 0.5 0.6
v 0.8 0.5 0.6
v -0.8 0.5 0.5
v -0.7 0.5 0.5
v 0.6 0.5 0.5
v 0.8 0.5 0.5
v -0.7 0.5 0.4
v -0.6 0.5 0.4
v -0.8 0.5 -0.5
v -0.6 0.5 -0.5
v 0.6 0.5 -0.5
v 0.8 0.5 -0.5
v -0.8 0.5 -0.6
v -0.6 0.5 -0.6
v 0.6 0.5 -0.6
v 0.8 0.5 -0.6
v -0.5 0.6 0.6
v -0.4 0.6 0.6
v 0.1 0.6 0.6
v 0.2 0.6 0.6
v 0.3 0.6 0.6
v 0.4 0.6 0.6
v -0.5 0.6 0.5
v -0.4 0.6 0.5
v 0.1 0.6 0.5
v 0.2 0.6 0.5
v 0.3 0.6 0.5
v 0.4 0.6 0.5
v -0.2 0.6 -0.5
v -0.1 0.6 -0.5
v -0.2 0.6 -0.6
v -0.1 0.6 -0.6
v -0.8 0.7 0.5
v -0.6 0.7 0.5
v 0.6 0.7 0.5
v 0.8 0.7 0.5
v -0.8 0.7 0.4
v -0.6 0.7 0.4
v 0.6 0.7 0.4
v 0.8 0.7 0.4
v -0.8 0.7 -0.4
v -0.6 0.7 -0.4
v 0.6 0.7 -0.4
v 0.8 0.7 -0.4
v -0.8 0.7 -0.5
v -0.6 0.7 -0.5
v 0.6 0.7 -0.5
v 0.8 0.7 -0.5
v -0.5 0.9 0.5
v -0.4 0.9 0.5
v 0.1 0.9 0.5
v 0.2 0.9 0.5
v 0.3 0.9 0.5
v 0.4 0.9 0.5
v -0.8 0.9 0.4
v -0.6 0.9 0.4
v -0.5 0.9 0.4
v -0.4 0.9 0.4
v 0.1 0.9 0.4
v 0.2 0.9 0.4
v 0.3 0.9 0.4
v 0.4 0.9 0.4
v 0.6 0.9 0.4
v 0.8 0.9 0.4
v -0.8 0.9 0.3
v -0.6 0.9 0.3
v 0.6 0.9 0.3
v 0.8 0.9 0.3
v -0.8 0.9 -0.3
v -0.6 0.9 -0.3
v 0.6 0.9 -0.3
v 0.8 0.9 -0.3
v -0.8 0.9 -0.4
v -0.6 0.9 -0.4
v -0.2 0.9 -0.4
v -0.1 0.9 -0.4
v 0.6 0.9 -0.4
v 0.8 0.9 -0.4
v -0.2 0.9 -0.5
v -0.1 0.9 -0.5
v -0.8 1.1 0.3
v -0.6 1.1 0.3
v 0.6 1.1 0.3
v 0.8 1.1 0.3
v -0.8 1.1 0.2
v -0.6 1.1 0.2
v 0.6 1.1 0.2
v 0.8 1.1 0.2
v -0.8 1.1 -0.2
v -0.6 1.1 -0.2
v 0.6 1.1 -0.2
v 0.8 1.1 -0.2
v -0.8 1.1 -0.3
v -0.6 1.1 -0.3
v 0.6 1.1 -0.3
v 0.8 1.1 -0.3
v -0.5 1.2 0.4
v -0.4 1.2 0.4
v 0.1 1.2 0.4
v 0.2 1.2 0.4
v 0.3 1.2 0.4
v 0.4 1.2 0.4
v -0.5 1.2 0.3
v -0.4 1.2 0.3
v 0.1 1.2 0.3
v 0.2 1.2 0.3
v 0.3 1.2 0.3
v 0.4 1.2 0.3
v -0.2 1.2 -0.3
v -0.1 1.2 -0.3
v -0.2 1.2 -0.4
v -0.1 1.2 -0.4
v -0.8 1.3 0.3
v -0.5 1.3 0.3
v -0.4 1.3 0.3
v -0.3 1.3 0.3
v -0.2 1.3 0.3
v -0.1 1.3 0.3
v 0 1.3 0.3
v 0.1 1.3 0.3
v 0.2 1.3 0.3
v 0.3 1.3 0.3
v 0.4 1.3 0.3
v 0.5 1.3 0.3
v 0.6 1.3 0.3
v 0.8 1.3 0.3
v -0.8 1.3 0.2
v -0.5 1.3 0.2
v -0.4 1.3 0.2
v -0.3 1.3 0.2
v -0.2 1.3 0.2
v -0.1 1.3 0.2
v 0 1.3 0.2
v 0.1 1.3 0.2
v 0.2 1.3 0.2
v 0.3 1.3 0.2
v 0.4 1.3 0.2
v 0.5 1.3 0.2
v 0.6 1.3 0.2
v 0.8 1.3 0.2
v -0.8 1.3 -0.2
v -0.6 1.3 -0.2
v -0.5 1.3 -0.2
v -0.4 1.3 -0.2
v -0.3 1.3 -0.2
v -0.2 1.3 -0.2
v -0.1 1.3 -0.2
v 0 1.3 -0.2
v 0.1 1.3 -0.2
v 0.2 1.3 -0.2
v 0.3 1.3 -0.2
v 0.4 1.3 -0.2
v 0.5 1.3 -0.2
v 0.8 1.3 -0.2
v -0.8 1.3 -0.3
v -0.6 1.3 -0.3
v -0.5 1.3 -0.3
v -0.4 1.3 -0.3
v -0.3 1.3 -0.3
v -0.2 1.3 -0.3
v -0.1 1.3 -0.3
v 0 1.3 -0.3
v 0.1 1.3 -0.3
v 0.2 1.3 -0.3
v 0.3 1.3 -0.3
v 0.4 1.3 -0.3
v 0.5 1.3 -0.3
v 0.8 1.3 -0.3
v -0.8 1.4 0.2
v -0.5 1.4 0.2
v -0.4 1.4 0.2
v 0.1 1.4 0.2
v 0.2 1.4 0.2
v 0.3 1.4 0.2
v 0.4 1.4 0.2
v 0.8 1.4 0.2
v -0.8 1.4 0.1
v -0.6 1.4 0.1
v 0.6 1.4 0.1
v 0.8 1.4 0.1
v -0.8 1.4 -0.1
v -0.6 1.4 -0.1
v 0.6 1.4 -0.1
v 0.8 1.4 -0.1
v -0.8 1.4 -0.2
v -0.2 1.4 -0.2
v -0.1 1.4 -0.2
v 0.8 1.4 -0.2
v -0.5 1.5 0.3
v -0.4 1.5 0.3
v 0.1 1.5 0.3
v 0.2 1.5 0.3
v 0.3 1.5 0.3
v 0.4 1.5 0.3
v -0.5 1.5 0.2
v -0.4 1.5 0.2
v 0.1 1.5 0.2
v 0.2 1.5 0.2
v 0.3 1.5 0.2
v 0.4 1.5 0.2
v -0.2 1.5 -0.2
v -0.1 1.5 -0.2
v -0.2 1.5 -0.3
v -0.1 1.5 -0.3
v -0.8 1.6 0.1
v -0.6 1.6 0.1
v 0.6 1.6 0.1
v 0.8 1.6 0.1
v -0.8 1.6 -0.1
v -0.6 1.6 -0.1
v 0.6 1.6 -0.1
v 0.8 1.6 -0.1
v -0.5 1.8 0.2
v -0.4 1.8 0.2
v 0.1 1.8 0.2
v 0.2 1.8 0.2
v 0.3 1.8 0.2
v 0.4 1.8 0.2
v -0.5 1.8 0.1
v -0.4 1.8 0.1
v 0.1 1.8 0.1
v 0.2 1.8 0.1
v 0.3 1.8 0.1
v 0.4 1.8 0.1
v -0.2 1.8 -0.1
v -0.1 1.8 -0.1
v -0.2 1.8 -0.2
v -0.1 1.8 -0.2
v -0.5 2.1 0.1
v -0.4 2.1 0.1
v 0.1 2.1 0.1
v 0.2 2.1 0.1
v 0.3 2.1 0.1
v 0.4 2.1 0.1
v -0.5 2.1 0
v -0.4 2.1 0
v -0.2 2.1 0
v -0.1 2.1 0
v 0.1 2.1 0
v 0.2 2.1 0
v 0.3 2.1 0
v 0.4 2.1 0
v -0.2 2.1 -0.1
v -0.1 2.1 -0.1
v -0.2 2.5 0.1
v -0.1 2.5 0.1
v -0.5 2.5 0
v -0.4 2.5 0
v -0.2 2.5 0
v -0.1 2.5 0
v 0.1 2.5 0
v 0.2 2.5 0
v 0.3 2.5 0
v 0.4 2.5 0
v -0.5 2.5 -0.1
v -0.4 2.5 -0.1
v 0.1 2.5 -0.1
v 0.2 2.5 -0.1
v 0.3 2.5 -0.1
v 0.4 2.5 -0.1
v -0.2 2.6 0.2
v -0.1 2.6 0.2
v -0.2 2.6 0.1
v -0.1 2.6 0.1
v 0.1 2.6 -0.1
v 0.2 2.6 -0.1
v 0.1 2.6 -0.2
v 0.2 2.6 -0.2
v -0.2 2.7 0.3
v -0.1 2.7 0.3
v -0.2 2.7 0.2
v -0.1 2.7 0.2
v -0.5 2.7 -0.1
v -0.4 2.7 -0.1
v 0.3 2.7 -0.1
v 0.4 2.7 -0.1
v -0.5 2.7 -0.2
v -0.4 2.7 -0.2
v 0.1 2.7 -0.2
v 0.2 2.7 -0.2
v 0.3 2.7 -0.2
v 0.4 2.7 -0.2
v 0.1 2.7 -0.3
v 0.2 2.7 -0.3

# faces
f 3/1/1 2/1/1 1/1/1
f 4/1/1 2/1/1 3/1/1
f 5/1/1 2/1/1 4/1/1
f 6/1/1 2/1/1 5/1/1
f 7/1/1 5/1/1 4/1/1
f 8/1/1 5/1/1 7/1/1
f 9/1/1 5/1/1 8/1/1
f 10/1/1 5/1/1 9/1/1
f 11/1/1 3/1/1 1/1/1
f 12/1/1 3/1/1 11/1/1
f 13/1/1 3/1/1 12/1/1
f 14/1/1 3/1/1 13/1/1
f 17/1/1 2/1/1 6/1/1
f 18/1/1 2/1/1 17/1/1
f 19/1/1 2/1/1 18/1/1
f 20/1/1 2/1/1 19/1/1
f 21/1/1 13/1/1 12/1/1
f 22/4/1 15/4/1 14/4/1
f 22/1/1 13/1/1 21/1/1
f 22/4/1 14/4/1 13/4/1
f 23/4/1 18/4/1 17/4/1
f 23/1/1 19/1/1 18/1/1
f 23/4/1 17/4/1 16/4/1
f 24/1/1 19/1/1 23/1/1
f 25/4/1 15/4/1 22/4/1
f 26/4/1 15/4/1 25/4/1
f 27/4/1 15/4/1 26/4/1
f 30/4/1 23/4/1 16/4/1
f 31/4/1 23/4/1 30/4/1
f 32/4/1 23/4/1 31/4/1
f 33/4/1 28/4/1 27/4/1
f 33/4/1 27/4/1 26/4/1
f 34/4/1 28/4/1 33/4/1
f 35/4/1 28/4/1 34/4/1
f 38/4/1 31/4/1 30/4/1
f 38/4/1 30/4/1 29/4/1
f 39/4/1 31/4/1 38/4/1
f 40/4/1 31/4/1 39/4/1
f 41/4/1 36/4/1 35/4/1
f 41/4/1 35/4/1 34/4/1
f 42/4/1 36/4/1 41/4/1
f 43/4/1 36/4/1 42/4/1
f 44/4/1 9/4/1 8/4/1
f 45/4/1 9/4/1 44/4/1
f 46/4/1 39/4/1 38/4/1
f 46/4/1 38/4/1 37/4/1
f 47/4/1 39/4/1 46/4/1
f 48/4/1 39/4/1 47/4/1
f 49/4/1 43/4/1 42/4/1
f 49/4/1 45/4/1 44/4/1
f 49/4/1 47/4/1 46/4/1
f 49/4/1 46/4/1 45/4/1
f 49/4/1 44/4/1 43/4/1
f 50/4/1 47/4/1 49/4/1
f 51/4/1 47/4/1 50/4/1
f 52/4/1 47/4/1 51/4/1
f 54/4/1 51/4/1 50/4/1
f 55/4/1 51/4/1 54/4/1
f 57/1/1 54/1/1 53/1/1
f 57/1/1 56/1/1 55/1/1
f 57/1/1 55/1/1 54/1/1
f 58/1/1 56/1/1 57/1/1
f 59/1/1 56/1/1 58/1/1
f 60/1/1 56/1/1 59/1/1
f 61/1/1 59/1/1 58/1/1
f 62/1/1 59/1/1 61/1/1
f 63/1/1 59/1/1 62/1/1
f 64/1/1 59/1/1 63/1/1
f 65/4/1 63/4/1 62/4/1
f 66/4/1 63/4/1 65/4/1
f 69/2/1 68/2/1 67/2/1
f 70/2/1 68/2/1 69/2/1
f 72/5/1 71/5/1 70/5/1
f 73/5/1 71/5/1 72/5/1
f 78/1/1 75/1/1 74/1/1
f 79/1/1 75/1/1 78/1/1
f 80/2/1 77/2/1 76/2/1
f 81/2/1 77/2/1 80/2/1
f 82/5/1 81/5/1 80/5/1
f 83/5/1 81/5/1 82/5/1
f 85/2/1 84/2/1 83/2/1
f 86/2/1 84/2/1 85/2/1
f 87/5/1 86/5/1 85/5/1
f 88/5/1 86/5/1 87/5/1
f 90/2/1 89/2/1 88/2/1
f 91/2/1 89/2/1 90/2/1
f 92/5/1 91/5/1 90/5/1
f 93/5/1 91/5/1 92/5/1
f 98/1/1 95/1/1 94/1/1
f 99/1/1 95/1/1 98/1/1
f 100/5/1 97/5/1 96/5/1
f 101/5/1 100/5/1 96/5/1
f 102/5/1 100/5/1 101/5/1
f 104/2/1 103/2/1 102/2/1
f 105/2/1 103/2/1 104/2/1
f 106/5/1 105/5/1 104/5/1
f 107/5/1 105/5/1 106/5/1
f 109/2/1 108/2/1 107/2/1
f 110/2/1 108/2/1 109/2/1
f 111/5/1 110/5/1 109/5/1
f 112/5/1 110/5/1 111/5/1
f 114/2/1 113/2/1 112/2/1
f 115/2/1 113/2/1 114/2/1
f 117/5/1 115/5/1 114/5/1
f 118/3/1 116/3/1 115/3/1
f 118/5/1 115/5/1 117/5/1
f 119/3/1 116/3/1 118/3/1
f 120/3/1 118/3/1 117/3/1
f 121/6/1 119/6/1 118/6/1
f 121/3/1 118/3/1 120/3/1
f 122/6/1 119/6/1 121/6/1
f 123/6/1 119/6/1 122/6/1
f 126/1/1 125/1/1 124/1/1
f 127/1/1 125/1/1 126/1/1
f 130/1/1 129/1/1 128/1/1
f 131/1/1 129/1/1 130/1/1
f 135/2/1 133/2/1 132/2/1
f 136/2/1 133/2/1 135/2/1
f 139/5/1 135/5/1 134/5/1
f 140/5/1 135/5/1 139/5/1
f 141/1/1 138/1/1 137/1/1
f 142/1/1 138/1/1 141/1/1
f 145/2/1 144/2/1 143/2/1
f 146/2/1 144/2/1 145/2/1
f 148/5/1 146/5/1 145/5/1
f 149/5/1 146/5/1 148/5/1
f 150/2/1 148/2/1 147/2/1
f 151/2/1 148/2/1 150/2/1
f 153/5/1 151/5/1 150/5/1
f 154/5/1 151/5/1 153/5/1
f 155/2/1 153/2/1 152/2/1
f 156/2/1 153/2/1 155/2/1
f 159/5/1 156/5/1 155/5/1
f 160/5/1 156/5/1 159/5/1
f 161/1/1 158/1/1 157/1/1
f 162/1/1 158/1/1 161/1/1
f 165/5/1 164/5/1 163/5/1
f 167/5/1 164/5/1 165/5/1
f 168/5/1 164/5/1 167/5/1
f 169/2/1 167/2/1 166/2/1
f 170/2/1 167/2/1 169/2/1
f 172/5/1 170/5/1 169/5/1
f 173/5/1 170/5/1 172/5/1
f 174/2/1 172/2/1 171/2/1
f 175/2/1 172/2/1 174/2/1
f 177/5/1 175/5/1 174/5/1
f 178/5/1 175/5/1 177/5/1
f 179/2/1 177/2/1 176/2/1
f 180/2/1 177/2/1 179/2/1
f 182/5/1 180/5/1 179/5/1
f 183/3/1 182/3/1 181/3/1
f 184/5/1 180/5/1 182/5/1
f 184/3/1 182/3/1 183/3/1
f 185/5/1 180/5/1 184/5/1
f 187/6/1 184/6/1 183/6/1
f 188/3/1 185/3/1 184/3/1
f 188/6/1 184/6/1 187/6/1
f 189/3/1 185/3/1 188/3/1
f 190/6/1 187/6/1 186/6/1
f 190/6/1 188/6/1 187/6/1
f 191/6/1 188/6/1 190/6/1
f 192/6/1 190/6/1 186/6/1
f 193/6/1 190/6/1 192/6/1
f 196/1/1 195/1/1 194/1/1
f 197/1/1 195/1/1 196/1/1
f 200/1/1 199/1/1 198/1/1
f 201/1/1 199/1/1 200/1/1
f 204/2/1 203/2/1 202/2/1
f 205/2/1 203/2/1 204/2/1
f 207/5/1 206/5/1 205/5/1
f 208/5/1 206/5/1 207/5/1
f 213/1/1 210/1/1 209/1/1
f 214/1/1 210/1/1 213/1/1
f 215/2/1 212/2/1 211/2/1
f 216/2/1 212/2/1 215/2/1
f 217/5/1 216/5/1 215/5/1
f 218/5/1 216/5/1 217/5/1
f 220/2/1 219/2/1 218/2/1
f 221/2/1 219/2/1 220/2/1
f 222/5/1 221/5/1 220/5/1
f 223/5/1 221/5/1 222/5/1
f 225/2/1 224/2/1 223/2/1
f 226/2/1 224/2/1 225/2/1
f 227/5/1 226/5/1 225/5/1
f 228/5/1 226/5/1 227/5/1
f 233/1/1 230/1/1 229/1/1
f 234/1/1 230/1/1 233/1/1
f 235/5/1 232/5/1 231/5/1
f 236/5/1 235/5/1 231/5/1
f 237/5/1 235/5/1 236/5/1
f 239/2/1 238/2/1 237/2/1
f 240/2/1 238/2/1 239/2/1
f 241/5/1 240/5/1 239/5/1
f 242/5/1 240/5/1 241/5/1
f 244/2/1 243/2/1 242/2/1
f 245/2/1 243/2/1 244/2/1
f 246/5/1 245/5/1 244/5/1
f 247/5/1 245/5/1 246/5/1
f 249/2/1 248/2/1 247/2/1
f 250/2/1 248/2/1 249/2/1
f 251/5/1 250/5/1 249/5/1
f 253/5/1 251/5/1 249/5/1
f 254/3/1 252/3/1 251/3/1
f 254/5/1 251/5/1 253/5/1
f 255/3/1 252/3/1 254/3/1
f 256/3/1 254/3/1 253/3/1
f 257/6/1 255/6/1 254/6/1
f 257/3/1 254/3/1 256/3/1
f 258/6/1 255/6/1 257/6/1
f 260/6/1 258/6/1 257/6/1
f 260/6/1 259/6/1 258/6/1
f 261/6/1 259/6/1 260/6/1
f 262/6/1 259/6/1 261/6/1
f 263/6/1 259/6/1 262/6/1
f 266/2/1 265/2/1 264/2/1
f 267/2/1 265/2/1 266/2/1
f 269/5/1 268/5/1 267/5/1
f 270/5/1 268/5/1 269/5/1
f 275/1/1 272/1/1 271/1/1
f 276/1/1 272/1/1 275/1/1
f 277/2/1 274/2/1 273/2/1
f 278/2/1 274/2/1 277/2/1
f 279/5/1 278/5/1 277/5/1
f 280/5/1 278/5/1 279/5/1
f 282/2/1 281/2/1 280/2/1
f 283/2/1 281/2/1 282/2/1
f 284/5/1 283/5/1 282/5/1
f 285/5/1 283/5/1 284/5/1
f 287/2/1 286/2/1 285/2/1
f 288/2/1 286/2/1 287/2/1
f 289/5/1 288/5/1 287/5/1
f 290/5/1 288/5/1 289/5/1
f 295/1/1 292/1/1 291/1/1
f 296/1/1 292/1/1 295/1/1
f 297/5/1 294/5/1 293/5/1
f 298/5/1 297/5/1 293/5/1
f 299/5/1 297/5/1 298/5/1
f 301/2/1 300/2/1 299/2/1
f 302/2/1 300/2/1 301/2/1
f 303/5/1 302/5/1 301/5/1
f 304/5/1 302/5/1 303/5/1
f 306/2/1 305/2/1 304/2/1
f 307/2/1 305/2/1 306/2/1
f 308/5/1 307/5/1 306/5/1
f 309/5/1 307/5/1 308/5/1
f 311/2/1 310/2/1 309/2/1
f 312/2/1 310/2/1 311/2/1
f 313/5/1 312/5/1 311/5/1
f 315/5/1 313/5/1 311/5/1
f 316/3/1 314/3/1 313/3/1
f 316/5/1 313/5/1 315/5/1
f 317/3/1 314/3/1 316/3/1
f 318/3/1 316/3/1 315/3/1
f 319/6/1 317/6/1 316/6/1
f 319/3/1 316/3/1 318/3/1
f 320/6/1 317/6/1 319/6/1
f 321/6/1 317/6/1 320/6/1
f 324/1/1 323/1/1 322/1/1
f 325/1/1 323/1/1 324/1/1
f 328/1/1 327/1/1 326/1/1
f 329/1/1 327/1/1 328/1/1
f 332/1/1 331/1/1 330/1/1
f 333/1/1 331/1/1 332/1/1
f 334/1/1 331/1/1 333/1/1
f 335/1/1 331/1/1 334/1/1
f 336/1/1 332/1/1 330/1/1
f 337/1/1 332/1/1 336/1/1
f 338/1/1 334/1/1 333/1/1
f 339/1/1 334/1/1 338/1/1
f 340/1/1 334/1/1 339/1/1
f 341/1/1 334/1/1 340/1/1
f 342/1/1 331/1/1 335/1/1
f 343/1/1 331/1/1 342/1/1
f 344/1/1 332/1/1 337/1/1
f 345/1/1 332/1/1 344/1/1
f 346/1/1 332/1/1 345/1/1
f 349/1/1 342/1/1 335/1/1
f 350/1/1 342/1/1 349/1/1
f 351/1/1 342/1/1 350/1/1
f 352/1/1 345/1/1 344/1/1
f 353/4/1 347/4/1 346/4/1
f 353/1/1 345/1/1 352/1/1
f 353/4/1 346/4/1 345/4/1
f 354/4/1 350/4/1 349/4/1
f 354/4/1 349/4/1 348/4/1
f 355/4/1 347/4/1 353/4/1
f 356/4/1 347/4/1 355/4/1
f 357/4/1 347/4/1 356/4/1
f 360/4/1 354/4/1 348/4/1
f 361/4/1 354/4/1 360/4/1
f 362/4/1 354/4/1 361/4/1
f 363/4/1 358/4/1 357/4/1
f 363/4/1 357/4/1 356/4/1
f 364/4/1 358/4/1 363/4/1
f 365/4/1 358/4/1 364/4/1
f 368/4/1 361/4/1 360/4/1
f 368/4/1 360/4/1 359/4/1
f 369/4/1 361/4/1 368/4/1
f 370/4/1 361/4/1 369/4/1
f 371/4/1 366/4/1 365/4/1
f 371/4/1 365/4/1 364/4/1
f 372/4/1 366/4/1 371/4/1
f 373/4/1 366/4/1 372/4/1
f 374/4/1 340/4/1 339/4/1
f 375/4/1 340/4/1 374/4/1
f 376/4/1 369/4/1 368/4/1
f 376/4/1 368/4/1 367/4/1
f 377/4/1 369/4/1 376/4/1
f 378/4/1 369/4/1 377/4/1
f 379/4/1 373/4/1 372/4/1
f 379/4/1 375/4/1 374/4/1
f 379/4/1 377/4/1 376/4/1
f 379/4/1 376/4/1 375/4/1
f 379/4/1 374/4/1 373/4/1
f 380/4/1 377/4/1 379/4/1
f 381/4/1 377/4/1 380/4/1
f 382/4/1 377/4/1 381/4/1
f 384/4/1 381/4/1 380/4/1
f 385/4/1 381/4/1 384/4/1
f 386/4/1 381/4/1 385/4/1
f 387/4/1 381/4/1 386/4/1
f 388/1/1 384/1/1 383/1/1
f 388/1/1 385/1/1 384/1/1
f 389/1/1 385/1/1 388/1/1
f 390/4/1 386/4/1 385/4/1
f 390/1/1 385/1/1 389/1/1
f 391/1/1 387/1/1 386/1/1
f 391/4/1 386/4/1 390/4/1
f 392/1/1 387/1/1 391/1/1
f 393/4/1 391/4/1 390/4/1
f 394/4/1 391/4/1 393/4/1
f 395/4/1 394/4/1 393/4/1
f 396/4/1 394/4/1 395/4/1
f 397/4/2 398/4/2 399/4/2
f 399/4/2 398/4/2 400/4/2
f 401/1/2 402/1/2 403/1/2
f 403/1/2 402/1/2 404/1/2
f 404/1/2 402/1/2 405/1/2
f 405/1/2 402/1/2 406/1/2
f 401/1/2 403/1/2 407/1/2
f 407/1/2 403/1/2 408/1/2
f 404/1/2 405/1/2 409/1/2
f 409/1/2 405/1/2 410/1/2
f 410/1/2 405/1/2 411/1/2
f 411/1/2 405/1/2 412/1/2
f 406/1/2 402/1/2 413/1/2
f 413/1/2 402/1/2 414/1/2
f 408/1/2 403/1/2 415/1/2
f 415/1/2 403/1/2 416/1/2
f 416/1/2 403/1/2 417/1/2
f 406/1/2 413/1/2 420/1/2
f 420/1/2 413/1/2 421/1/2
f 421/1/2 413/1/2 422/1/2
f 417/4/2 418/4/2 423/4/2
f 416/4/2 417/4/2 423/4/2
f 421/1/2 422/1/2 424/1/2
f 420/4/2 421/4/2 424/4/2
f 419/4/2 420/4/2 424/4/2
f 424/1/2 422/1/2 425/1/2
f 423/4/2 418/4/2 426/4/2
f 426/4/2 418/4/2 427/4/2
f 419/4/2 424/4/2 430/4/2
f 430/4/2 424/4/2 431/4/2
f 431/4/2 424/4/2 432/4/2
f 427/4/2 428/4/2 434/4/2
f 433/4/2 434/4/2 435/4/2
f 434/4/2 428/4/2 436/4/2
f 435/4/2 434/4/2 436/4/2
f 436/4/2 428/4/2 437/4/2
f 430/4/2 431/4/2 440/4/2
f 429/4/2 430/4/2 440/4/2
f 440/4/2 431/4/2 441/4/2
f 441/4/2 431/4/2 442/4/2
f 437/4/2 438/4/2 443/4/2
f 436/4/2 437/4/2 443/4/2
f 443/4/2 438/4/2 444/4/2
f 444/4/2 438/4/2 445/4/2
f 410/4/2 411/4/2 446/4/2
f 446/4/2 411/4/2 447/4/2
f 440/4/2 441/4/2 448/4/2
f 439/4/2 440/4/2 448/4/2
f 448/4/2 441/4/2 449/4/2
f 449/4/2 441/4/2 450/4/2
f 444/4/2 445/4/2 451/4/2
f 446/4/2 447/4/2 451/4/2
f 448/4/2 449/4/2 451/4/2
f 447/4/2 448/4/2 451/4/2
f 445/4/2 446/4/2 451/4/2
f 451/4/2 449/4/2 452/4/2
f 452/4/2 449/4/2 453/4/2
f 453/4/2 449/4/2 454/4/2
f 452/4/2 453/4/2 455/4/2
f 455/4/2 453/4/2 456/4/2
f 456/4/2 453/4/2 457/4/2
f 457/4/2 453/4/2 458/4/2
f 455/1/2 456/1/2 460/1/2
f 456/4/2 457/4/2 461/4/2
f 460/1/2 456/1/2 461/1/2
f 458/1/2 459/1/2 462/1/2
f 461/4/2 457/4/2 462/4/2
f 457/1/2 458/1/2 462/1/2
f 462/1/2 459/1/2 463/1/2
f 463/1/2 459/1/2 464/1/2
f 461/4/2 462/4/2 465/4/2
f 465/4/2 462/4/2 466/4/2
f 465/4/2 466/4/2 467/4/2
f 467/4/2 466/4/2 468/4/2
f 469/2/2 470/2/2 471/2/2
f 471/2/2 470/2/2 472/2/2
f 472/5/2 473/5/2 474/5/2
f 474/5/2 473/5/2 475/5/2
f 476/1/2 477/1/2 480/1/2
f 480/1/2 477/1/2 481/1/2
f 478/2/2 479/2/2 482/2/2
f 482/2/2 479/2/2 483/2/2
f 482/5/2 483/5/2 484/5/2
f 484/5/2 483/5/2 485/5/2
f 485/2/2 486/2/2 487/2/2
f 487/2/2 486/2/2 488/2/2
f 487/5/2 488/5/2 489/5/2
f 489/5/2 488/5/2 490/5/2
f 490/2/2 491/2/2 492/2/2
f 492/2/2 491/2/2 493/2/2
f 492/5/2 493/5/2 494/5/2
f 494/5/2 493/5/2 495/5/2
f 496/1/2 497/1/2 500/1/2
f 500/1/2 497/1/2 501/1/2
f 498/5/2 499/5/2 502/5/2
f 498/5/2 502/5/2 503/5/2
f 503/5/2 502/5/2 504/5/2
f 504/2/2 505/2/2 506/2/2
f 506/2/2 505/2/2 507/2/2
f 506/5/2 507/5/2 508/5/2
f 508/5/2 507/5/2 509/5/2
f 509/2/2 510/2/2 511/2/2
f 511/2/2 510/2/2 512/2/2
f 511/5/2 512/5/2 513/5/2
f 513/5/2 512/5/2 514/5/2
f 514/2/2 515/2/2 516/2/2
f 516/2/2 515/2/2 517/2/2
f 516/5/2 517/5/2 519/5/2
f 517/3/2 518/3/2 520/3/2
f 519/5/2 517/5/2 520/5/2
f 520/3/2 518/3/2 521/3/2
f 519/3/2 520/3/2 522/3/2
f 520/6/2 521/6/2 523/6/2
f 522/3/2 520/3/2 523/3/2
f 523/6/2 521/6/2 524/6/2
f 524/6/2 521/6/2 525/6/2
f 526/1/2 527/1/2 528/1/2
f 528/1/2 527/1/2 529/1/2
f 530/1/2 531/1/2 532/1/2
f 532/1/2 531/1/2 533/1/2
f 534/2/2 535/2/2 537/2/2
f 537/2/2 535/2/2 538/2/2
f 536/5/2 537/5/2 541/5/2
f 541/5/2 537/5/2 542/5/2
f 539/1/2 540/1/2 543/1/2
f 543/1/2 540/1/2 544/1/2
f 545/2/2 546/2/2 547/2/2
f 547/2/2 546/2/2 548/2/2
f 547/5/2 548/5/2 550/5/2
f 550/5/2 548/5/2 551/5/2
f 549/2/2 550/2/2 552/2/2
f 552/2/2 550/2/2 553/2/2
f 552/5/2 553/5/2 555/5/2
f 555/5/2 553/5/2 556/5/2
f 554/2/2 555/2/2 557/2/2
f 557/2/2 555/2/2 558/2/2
f 557/5/2 558/5/2 561/5/2
f 561/5/2 558/5/2 562/5/2
f 559/1/2 560/1/2 563/1/2
f 563/1/2 560/1/2 564/1/2
f 565/5/2 566/5/2 567/5/2
f 567/5/2 566/5/2 569/5/2
f 569/5/2 566/5/2 570/5/2
f 568/2/2 569/2/2 571/2/2
f 571/2/2 569/2/2 572/2/2
f 571/5/2 572/5/2 574/5/2
f 574/5/2 572/5/2 575/5/2
f 573/2/2 574/2/2 576/2/2
f 576/2/2 574/2/2 577/2/2
f 576/5/2 577/5/2 579/5/2
f 579/5/2 577/5/2 580/5/2
f 578/2/2 579/2/2 581/2/2
f 581/2/2 579/2/2 582/2/2
f 581/5/2 582/5/2 584/5/2
f 583/3/2 584/3/2 585/3/2
f 584/5/2 582/5/2 586/5/2
f 585/3/2 584/3/2 586/3/2
f 586/5/2 582/5/2 587/5/2
f 585/6/2 586/6/2 589/6/2
f 586/3/2 587/3/2 590/3/2
f 589/6/2 586/6/2 590/6/2
f 590/3/2 587/3/2 591/3/2
f 588/6/2 589/6/2 592/6/2
f 589/6/2 590/6/2 592/6/2
f 592/6/2 590/6/2 593/6/2
f 588/6/2 592/6/2 594/6/2
f 594/6/2 592/6/2 595/6/2
f 596/1/2 597/1/2 598/1/2
f 598/1/2 597/1/2 599/1/2
f 600/1/2 601/1/2 602/1/2
f 602/1/2 601/1/2 603/1/2
f 604/2/2 605/2/2 606/2/2
f 606/2/2 605/2/2 607/2/2
f 607/5/2 608/5/2 609/5/2
f 609/5/2 608/5/2 610/5/2
f 611/1/2 612/1/2 615/1/2
f 615/1/2 612/1/2 616/1/2
f 613/2/2 614/2/2 617/2/2
f 617/2/2 614/2/2 618/2/2
f 617/5/2 618/5/2 619/5/2
f 619/5/2 618/5/2 620/5/2
f 620/2/2 621/2/2 622/2/2
f 622/2/2 621/2/2 623/2/2
f 622/5/2 623/5/2 624/5/2
f 624/5/2 623/5/2 625/5/2
f 625/2/2 626/2/2 627/2/2
f 627/2/2 626/2/2 628/2/2
f 627/5/2 628/5/2 629/5/2
f 629/5/2 628/5/2 630/5/2
f 631/1/2 632/1/2 635/1/2
f 635/1/2 632/1/2 636/1/2
f 633/5/2 634/5/2 637/5/2
f 633/5/2 637/5/2 638/5/2
f 638/5/2 637/5/2 639/5/2
f 639/2/2 640/2/2 641/2/2
f 641/2/2 640/2/2 642/2/2
f 641/5/2 642/5/2 643/5/2
f 643/5/2 642/5/2 644/5/2
f 644/2/2 645/2/2 646/2/2
f 646/2/2 645/2/2 647/2/2
f 646/5/2 647/5/2 648/5/2
f 648/5/2 647/5/2 649/5/2
f 649/2/2 650/2/2 651/2/2
f 651/2/2 650/2/2 652/2/2
f 651/5/2 652/5/2 653/5/2
f 651/5/2 653/5/2 655/5/2
f 653/3/2 654/3/2 656/3/2
f 655/5/2 653/5/2 656/5/2
f 656/3/2 654/3/2 657/3/2
f 655/3/2 656/3/2 658/3/2
f 656/6/2 657/6/2 659/6/2
f 658/3/2 656/3/2 659/3/2
f 659/6/2 657/6/2 660/6/2
f 659/6/2 660/6/2 662/6/2
f 660/6/2 661/6/2 662/6/2
f 662/6/2 661/6/2 663/6/2
f 663/6/2 661/6/2 664/6/2
f 664/6/2 661/6/2 665/6/2
f 666/2/2 667/2/2 668/2/2
f 668/2/2 667/2/2 669/2/2
f 669/5/2 670/5/2 671/5/2
f 671/5/2 670/5/2 672/5/2
f 673/1/2 674/1/2 677/1/2
f 677/1/2 674/1/2 678/1/2
f 675/2/2 676/2/2 679/2/2
f 679/2/2 676/2/2 680/2/2
f 679/5/2 680/5/2 681/5/2
f 681/5/2 680/5/2 682/5/2
f 682/2/2 683/2/2 684/2/2
f 684/2/2 683/2/2 685/2/2
f 684/5/2 685/5/2 686/5/2
f 686/5/2 685/5/2 687/5/2
f 687/2/2 688/2/2 689/2/2
f 689/2/2 688/2/2 690/2/2
f 689/5/2 690/5/2 691/5/2
f 691/5/2 690/5/2 692/5/2
f 693/1/2 694/1/2 697/1/2
f 697/1/2 694/1/2 698/1/2
f 695/5/2 696/5/2 699/5/2
f 695/5/2 699/5/2 700/5/2
f 700/5/2 699/5/2 701/5/2
f 701/2/2 702/2/2 703/2/2
f 703/2/2 702/2/2 704/2/2
f 703/5/2 704/5/2 705/5/2
f 705/5/2 704/5/2 706/5/2
f 706/2/2 707/2/2 708/2/2
f 708/2/2 707/2/2 709/2/2
f 708/5/2 709/5/2 710/5/2
f 710/5/2 709/5/2 711/5/2
f 711/2/2 712/2/2 713/2/2
f 713/2/2 712/2/2 714/2/2
f 713/5/2 714/5/2 715/5/2
f 713/5/2 715/5/2 717/5/2
f 715/3/2 716/3/2 718/3/2
f 717/5/2 715/5/2 718/5/2
f 718/3/2 716/3/2 719/3/2
f 717/3/2 718/3/2 720/3/2
f 718/6/2 719/6/2 721/6/2
f 720/3/2 718/3/2 721/3/2
f 721/6/2 719/6/2 722/6/2
f 722/6/2 719/6/2 723/6/2
f 724/1/2 725/1/2 726/1/2
f 726/1/2 725/1/2 727/1/2
f 728/1/2 729/1/2 730/1/2
f 730/1/2 729/1/2 731/1/2
f 732/1/2 733/1/2 734/1/2
f 734/1/2 733/1/2 735/1/2
f 735/1/2 733/1/2 736/1/2
f 736/1/2 733/1/2 737/1/2
f 735/1/2 736/1/2 738/1/2
f 738/1/2 736/1/2 739/1/2
f 739/1/2 736/1/2 740/1/2
f 740/1/2 736/1/2 741/1/2
f 732/1/2 734/1/2 742/1/2
f 742/1/2 734/1/2 743/1/2
f 743/1/2 734/1/2 744/1/2
f 744/1/2 734/1/2 745/1/2
f 737/1/2 733/1/2 748/1/2
f 748/1/2 733/1/2 749/1/2
f 749/1/2 733/1/2 750/1/2
f 750/1/2 733/1/2 751/1/2
f 743/1/2 744/1/2 752/1/2
f 745/4/2 746/4/2 753/4/2
f 752/1/2 744/1/2 753/1/2
f 744/4/2 745/4/2 753/4/2
f 748/4/2 749/4/2 754/4/2
f 749/1/2 750/1/2 754/1/2
f 747/4/2 748/4/2 754/4/2
f 754/1/2 750/1/2 755/1/2
f 753/4/2 746/4/2 756/4/2
f 756/4/2 746/4/2 757/4/2
f 757/4/2 746/4/2 758/4/2
f 747/4/2 754/4/2 761/4/2
f 761/4/2 754/4/2 762/4/2
f 762/4/2 754/4/2 763/4/2
f 758/4/2 759/4/2 764/4/2
f 757/4/2 758/4/2 764/4/2
f 764/4/2 759/4/2 765/4/2
f 765/4/2 759/4/2 766/4/2
f 761/4/2 762/4/2 769/4/2
f 760/4/2 761/4/2 769/4/2
f 769/4/2 762/4/2 770/4/2
f 770/4/2 762/4/2 771/4/2
f 766/4/2 767/4/2 772/4/2
f 765/4/2 766/4/2 772/4/2
f 772/4/2 767/4/2 773/4/2
f 773/4/2 767/4/2 774/4/2
f 739/4/2 740/4/2 775/4/2
f 775/4/2 740/4/2 776/4/2
f 769/4/2 770/4/2 777/4/2
f 768/4/2 769/4/2 777/4/2
f 777/4/2 770/4/2 778/4/2
f 778/4/2 770/4/2 779/4/2
f 773/4/2 774/4/2 780/4/2
f 775/4/2 776/4/2 780/4/2
f 777/4/2 778/4/2 780/4/2
f 776/4/2 777/4/2 780/4/2
f 774/4/2 775/4/2 780/4/2
f 780/4/2 778/4/2 781/4/2
f 781/4/2 778/4/2 782/4/2
f 782/4/2 778/4/2 783/4/2
f 781/4/2 782/4/2 785/4/2
f 785/4/2 782/4/2 786/4/2
f 784/1/2 785/1/2 788/1/2
f 786/1/2 787/1/2 788/1/2
f 785/1/2 786/1/2 788/1/2
f 788/1/2 787/1/2 789/1/2
f 789/1/2 787/1/2 790/1/2
f 790/1/2 787/1/2 791/1/2
f 789/1/2 790/1/2 792/1/2
f 792/1/2 790/1/2 793/1/2
f 793/1/2 790/1/2 794/1/2
f 794/1/2 790/1/2 795/1/2
f 793/4/2 794/4/2 796/4/2
f 796/4/2 794/4/2 797/4/2
f 800/1/3 799/1/3 798/1/3
f 801/1/3 799/1/3 800/1/3
f 803/1/3 799/1/3 801/1/3
f 804/2/3 803/2/3 802/2/3
f 805/1/3 799/1/3 803/1/3
f 805/2/3 803/2/3 804/2/3
f 807/1/3 799/1/3 805/1/3
f 808/2/3 807/2/3 806/2/3
f 809/1/3 799/1/3 807/1/3
f 809/2/3 807/2/3 808/2/3
f 811/1/3 799/1/3 809/1/3
f 812/2/3 811/2/3 810/2/3
f 813/1/3 799/1/3 811/1/3
f 813/2/3 811/2/3 812/2/3
f 815/1/3 799/1/3 813/1/3
f 816/1/3 815/1/3 814/1/3
f 817/1/3 799/1/3 815/1/3
f 817/1/3 815/1/3 816/1/3
f 820/1/3 819/1/3 818/1/3
f 821/1/3 819/1/3 820/1/3
f 822/2/3 821/2/3 820/2/3
f 823/2/3 821/2/3 822/2/3
f 824/1/3 823/1/3 822/1/3
f 825/1/3 823/1/3 824/1/3
f 828/1/3 827/1/3 826/1/3
f 829/1/3 827/1/3 828/1/3
f 832/1/3 831/1/3 830/1/3
f 833/1/3 831/1/3 832/1/3
f 834/2/3 833/2/3 832/2/3
f 835/2/3 833/2/3 834/2/3
f 836/1/3 835/1/3 834/1/3
f 837/1/3 835/1/3 836/1/3
f 838/2/3 837/2/3 836/2/3
f 839/2/3 837/2/3 838/2/3
f 840/1/3 839/1/3 838/1/3
f 841/1/3 839/1/3 840/1/3
f 844/1/3 843/1/3 842/1/3
f 845/1/3 843/1/3 844/1/3
f 848/4/3 847/4/3 846/4/3
f 849/4/3 847/4/3 848/4/3
f 853/2/3 851/2/3 850/2/3
f 854/5/3 852/5/3 851/5/3
f 854/2/3 851/2/3 853/2/3
f 855/5/3 852/5/3 854/5/3
f 859/2/3 857/2/3 856/2/3
f 860/5/3 858/5/3 857/5/3
f 860/2/3 857/2/3 859/2/3
f 861/5/3 858/5/3 860/5/3
f 865/2/3 863/2/3 862/2/3
f 866/5/3 864/5/3 863/5/3
f 866/2/3 863/2/3 865/2/3
f 867/5/3 864/5/3 866/5/3
f 870/4/3 869/4/3 868/4/3
f 871/4/3 869/4/3 870/4/3
f 874/4/3 873/4/3 872/4/3
f 875/4/3 873/4/3 874/4/3
f 876/4/3 873/4/3 875/4/3
f 877/4/3 873/4/3 876/4/3
f 881/2/3 879/2/3 878/2/3
f 882/5/3 880/5/3 879/5/3
f 882/2/3 879/2/3 881/2/3
f 883/5/3 880/5/3 882/5/3
f 887/2/3 885/2/3 884/2/3
f 888/5/3 886/5/3 885/5/3
f 888/2/3 885/2/3 887/2/3
f 889/5/3 886/5/3 888/5/3
f 893/2/3 891/2/3 890/2/3
f 894/5/3 892/5/3 891/5/3
f 894/2/3 891/2/3 893/2/3
f 895/5/3 892/5/3 894/5/3
f 898/4/3 897/4/3 896/4/3
f 899/4/3 897/4/3 898/4/3
f 904/4/3 903/4/3 902/4/3
f 905/4/3 903/4/3 904/4/3
f 906/4/3 901/4/3 900/4/3
f 907/4/3 901/4/3 906/4/3
f 911/2/3 909/2/3 908/2/3
f 912/5/3 910/5/3 909/5/3
f 912/2/3 909/2/3 911/2/3
f 913/5/3 910/5/3 912/5/3
f 917/2/3 915/2/3 914/2/3
f 918/5/3 916/5/3 915/5/3
f 918/2/3 915/2/3 917/2/3
f 919/5/3 916/5/3 918/5/3
f 923/2/3 921/2/3 920/2/3
f 924/5/3 922/5/3 921/5/3
f 924/2/3 921/2/3 923/2/3
f 925/5/3 922/5/3 924/5/3
f 928/4/3 927/4/3 926/4/3
f 929/4/3 927/4/3 928/4/3
f 934/4/3 931/4/3 930/4/3
f 935/4/3 931/4/3 934/4/3
f 936/1/3 933/1/3 932/1/3
f 937/1/3 933/1/3 936/1/3
f 939/2/3 937/2/3 936/2/3
f 940/5/3 938/5/3 937/5/3
f 940/2/3 937/2/3 939/2/3
f 941/5/3 938/5/3 940/5/3
f 942/1/3 940/1/3 939/1/3
f 943/1/3 940/1/3 942/1/3
f 948/1/3 945/1/3 944/1/3
f 949/1/3 945/1/3 948/1/3
f 950/6/3 947/6/3 946/6/3
f 951/6/3 947/6/3 950/6/3
f 954/1/3 953/1/3 952/1/3
f 955/1/3 953/1/3 954/1/3
f 957/2/3 955/2/3 954/2/3
f 958/5/3 956/5/3 955/5/3
f 958/2/3 955/2/3 957/2/3
f 959/5/3 956/5/3 958/5/3
f 960/4/3 958/4/3 957/4/3
f 961/4/3 958/4/3 960/4/3
f 963/2/3 961/2/3 960/2/3
f 964/5/3 962/5/3 961/5/3
f 964/2/3 961/2/3 963/2/3
f 965/5/3 962/5/3 964/5/3
f 966/1/3 964/1/3 963/1/3
f 967/1/3 964/1/3 966/1/3
f 972/4/3 969/4/3 968/4/3
f 973/4/3 969/4/3 972/4/3
f 974/1/3 971/1/3 970/1/3
f 975/1/3 971/1/3 974/1/3
f 982/1/3 977/1/3 976/1/3
f 983/1/3 977/1/3 982/1/3
f 984/4/3 979/4/3 978/4/3
f 985/4/3 979/4/3 984/4/3
f 986/1/3 981/1/3 980/1/3
f 987/1/3 981/1/3 986/1/3
f 993/2/3 989/2/3 988/2/3
f 994/5/3 990/5/3 989/5/3
f 994/2/3 989/2/3 993/2/3
f 995/5/3 990/5/3 994/5/3
f 996/1/3 992/1/3 991/1/3
f 997/1/3 992/1/3 996/1/3
f 1001/1/3 992/1/3 997/1/3
f 1002/3/3 999/3/3 998/3/3
f 1003/6/3 1000/6/3 999/6/3
f 1003/3/3 999/3/3 1002/3/3
f 1004/6/3 1000/6/3 1003/6/3
f 1005/1/3 992/1/3 1001/1/3
f 1006/1/3 992/1/3 1005/1/3
f 1007/1/3 992/1/3 1006/1/3
f 1013/2/3 1009/2/3 1008/2/3
f 1014/5/3 1010/5/3 1009/5/3
f 1014/2/3 1009/2/3 1013/2/3
f 1015/5/3 1010/5/3 1014/5/3
f 1016/1/3 1012/1/3 1011/1/3
f 1017/1/3 1012/1/3 1016/1/3
f 1023/2/3 1019/2/3 1018/2/3
f 1024/5/3 1020/5/3 1019/5/3
f 1024/2/3 1019/2/3 1023/2/3
f 1025/5/3 1020/5/3 1024/5/3
f 1026/1/3 1022/1/3 1021/1/3
f 1031/1/3 1022/1/3 1026/1/3
f 1032/1/3 1028/1/3 1027/1/3
f 1033/1/3 1028/1/3 1032/1/3
f 1034/4/3 1030/4/3 1029/4/3
f 1035/4/3 1030/4/3 1034/4/3
f 1036/1/3 1022/1/3 1031/1/3
f 1037/1/3 1022/1/3 1036/1/3
f 1042/4/3 1039/4/3 1038/4/3
f 1043/4/3 1039/4/3 1042/4/3
f 1044/4/3 1041/4/3 1040/4/3
f 1045/4/3 1041/4/3 1044/4/3
f 1049/2/3 1047/2/3 1046/2/3
f 1050/5/3 1048/5/3 1047/5/3
f 1050/2/3 1047/2/3 1049/2/3
f 1051/5/3 1048/5/3 1050/5/3
f 1055/2/3 1053/2/3 1052/2/3
f 1056/5/3 1054/5/3 1053/5/3
f 1056/2/3 1053/2/3 1055/2/3
f 1057/5/3 1054/5/3 1056/5/3
f 1061/2/3 1059/2/3 1058/2/3
f 1062/5/3 1060/5/3 1059/5/3
f 1062/2/3 1059/2/3 1061/2/3
f 1063/5/3 1060/5/3 1062/5/3
f 1067/2/3 1065/2/3 1064/2/3
f 1068/5/3 1066/5/3 1065/5/3
f 1068/2/3 1065/2/3 1067/2/3
f 1069/5/3 1066/5/3 1068/5/3
f 1074/4/3 1071/4/3 1070/4/3
f 1075/4/3 1071/4/3 1074/4/3
f 1076/4/3 1073/4/3 1072/4/3
f 1077/4/3 1073/4/3 1076/4/3
f 1082/2/3 1079/2/3 1078/2/3
f 1083/5/3 1080/5/3 1079/5/3
f 1083/2/3 1079/2/3 1082/2/3
f 1084/3/3 1081/3/3 1080/3/3
f 1084/5/3 1080/5/3 1083/5/3
f 1085/3/3 1081/3/3 1084/3/3
f 1089/2/3 1087/2/3 1086/2/3
f 1090/5/3 1088/5/3 1087/5/3
f 1090/2/3 1087/2/3 1089/2/3
f 1091/5/3 1088/5/3 1090/5/3
f 1096/2/3 1093/2/3 1092/2/3
f 1097/5/3 1094/5/3 1093/5/3
f 1097/2/3 1093/2/3 1096/2/3
f 1098/3/3 1095/3/3 1094/3/3
f 1098/5/3 1094/5/3 1097/5/3
f 1099/3/3 1095/3/3 1098/3/3
f 1104/2/3 1101/2/3 1100/2/3
f 1105/5/3 1102/5/3 1101/5/3
f 1105/2/3 1101/2/3 1104/2/3
f 1106/3/3 1103/3/3 1102/3/3
f 1106/5/3 1102/5/3 1105/5/3
f 1107/3/3 1103/3/3 1106/3/3
f 1112/6/3 1111/6/3 1110/6/3
f 1113/6/3 1111/6/3 1112/6/3
f 1117/2/3 1115/2/3 1114/2/3
f 1118/5/3 1116/5/3 1115/5/3
f 1118/2/3 1115/2/3 1117/2/3
f 1119/5/3 1116/5/3 1118/5/3
f 1122/6/3 1121/6/3 1120/6/3
f 1123/6/3 1121/6/3 1122/6/3
f 1126/6/3 1125/6/3 1124/6/3
f 1127/6/3 1125/6/3 1126/6/3
f 1128/1/3 1109/1/3 1108/1/3
f 1129/1/3 1109/1/3 1128/1/3
f 1132/4/3 1131/4/3 1130/4/3
f 1133/4/3 1131/4/3 1132/4/3
f 1136/1/3 1135/1/3 1134/1/3
f 1137/1/3 1135/1/3 1136/1/3
f 1140/1/3 1139/1/3 1138/1/3
f 1141/1/3 1139/1/3 1140/1/3
f 1144/2/3 1141/2/3 1140/2/3
f 1145/2/3 1141/2/3 1144/2/3
f 1146/5/3 1143/5/3 1142/5/3
f 1147/5/3 1143/5/3 1146/5/3
f 1148/1/3 1145/1/3 1144/1/3
f 1149/1/3 1145/1/3 1148/1/3
f 1154/1/3 1151/1/3 1150/1/3
f 1155/1/3 1151/1/3 1154/1/3
f 1156/6/3 1153/6/3 1152/6/3
f 1157/6/3 1153/6/3 1156/6/3
f 1160/1/3 1159/1/3 1158/1/3
f 1161/1/3 1159/1/3 1160/1/3
f 1166/1/3 1163/1/3 1162/1/3
f 1167/1/3 1163/1/3 1166/1/3
f 1168/4/3 1165/4/3 1164/4/3
f 1169/4/3 1165/4/3 1168/4/3
f 1172/4/3 1171/4/3 1170/4/3
f 1173/4/3 1171/4/3 1172/4/3
f 1177/2/3 1175/2/3 1174/2/3
f 1178/5/3 1176/5/3 1175/5/3
f 1178/2/3 1175/2/3 1177/2/3
f 1179/5/3 1176/5/3 1178/5/3
f 1182/4/3 1181/4/3 1180/4/3
f 1183/4/3 1181/4/3 1182/4/3
f 1186/4/3 1185/4/3 1184/4/3
f 1187/4/3 1185/4/3 1186/4/3
f 1191/2/3 1189/2/3 1188/2/3
f 1192/5/3 1190/5/3 1189/5/3
f 1192/2/3 1189/2/3 1191/2/3
f 1193/5/3 1190/5/3 1192/5/3
f 1196/4/3 1195/4/3 1194/4/3
f 1197/4/3 1195/4/3 1196/4/3
f 1200/1/3 1199/1/3 1198/1/3
f 1201/1/3 1199/1/3 1200/1/3
f 1205/2/3 1203/2/3 1202/2/3
f 1206/5/3 1204/5/3 1203/5/3
f 1206/2/3 1203/2/3 1205/2/3
f 1207/5/3 1204/5/3 1206/5/3
f 1210/1/3 1209/1/3 1208/1/3
f 1211/1/3 1209/1/3 1210/1/3
f 1214/1/3 1213/1/3 1212/1/3
f 1215/1/3 1213/1/3 1214/1/3
f 1219/1/3 1217/1/3 1216/1/3
f 1220/1/3 1217/1/3 1219/1/3
f 1221/5/3 1219/5/3 1218/5/3
f 1222/2/3 1220/2/3 1219/2/3
f 1222/5/3 1219/5/3 1221/5/3
f 1223/2/3 1220/2/3 1222/2/3
f 1224/1/3 1223/1/3 1222/1/3
f 1225/1/3 1223/1/3 1224/1/3
f 1228/1/3 1227/1/3 1226/1/3
f 1229/1/3 1227/1/3 1228/1/3
f 1232/1/3 1231/1/3 1230/1/3
f 1233/1/3 1231/1/3 1232/1/3
f 1236/1/3 1235/1/3 1234/1/3
f 1237/1/3 1235/1/3 1236/1/3
f 1240/1/3 1239/1/3 1238/1/3
f 1241/1/3 1240/1/3 1238/1/3
f 1242/1/3 1241/1/3 1238/1/3
f 1244/1/3 1242/1/3 1238/1/3
f 1245/1/3 1242/1/3 1244/1/3
f 1246/2/3 1244/2/3 1243/2/3
f 1247/2/3 1244/2/3 1246/2/3
f 1249/1/3 1248/1/3 1247/1/3
f 1250/1/3 1249/1/3 1247/1/3
f 1251/1/3 1250/1/3 1247/1/3
f 1252/1/3 1251/1/3 1247/1/3
f 1253/1/3 1252/1/3 1247/1/3
f 1254/1/3 1253/1/3 1247/1/3
f 1255/1/3 1254/1/3 1247/1/3
f 1256/1/3 1254/1/3 1255/1/3
f 1257/1/4 1258/1/4 1260/1/4
f 1260/1/4 1258/1/4 1261/1/4
f 1259/2/4 1260/2/4 1262/2/4
f 1262/2/4 1260/2/4 1263/2/4
f 1263/1/4 1264/1/4 1265/1/4
f 1263/1/4 1265/1/4 1266/1/4
f 1263/1/4 1266/1/4 1267/1/4
f 1263/1/4 1267/1/4 1268/1/4
f 1263/1/4 1268/1/4 1270/1/4
f 1270/1/4 1268/1/4 1271/1/4
f 1269/2/4 1270/2/4 1272/2/4
f 1272/2/4 1270/2/4 1273/2/4
f 1273/1/4 1274/1/4 1276/1/4
f 1276/1/4 1274/1/4 1277/1/4
f 1275/2/4 1276/2/4 1278/2/4
f 1278/2/4 1276/2/4 1279/2/4
f 1279/1/4 1280/1/4 1281/1/4
f 1279/1/4 1281/1/4 1282/1/4
f 1282/1/4 1281/1/4 1283/1/4
f 1284/1/4 1285/1/4 1287/1/4
f 1287/1/4 1285/1/4 1288/1/4
f 1286/5/4 1287/5/4 1289/5/4
f 1287/2/4 1288/2/4 1290/2/4
f 1289/5/4 1287/5/4 1290/5/4
f 1290/2/4 1288/2/4 1291/2/4
f 1290/1/4 1291/1/4 1292/1/4
f 1292/1/4 1291/1/4 1293/1/4
f 1294/1/4 1295/1/4 1296/1/4
f 1296/1/4 1295/1/4 1297/1/4
f 1298/1/4 1299/1/4 1301/1/4
f 1301/1/4 1299/1/4 1302/1/4
f 1300/5/4 1301/5/4 1303/5/4
f 1301/2/4 1302/2/4 1304/2/4
f 1303/5/4 1301/5/4 1304/5/4
f 1304/2/4 1302/2/4 1305/2/4
f 1304/1/4 1305/1/4 1307/1/4
f 1307/1/4 1305/1/4 1308/1/4
f 1306/5/4 1307/5/4 1309/5/4
f 1307/2/4 1308/2/4 1310/2/4
f 1309/5/4 1307/5/4 1310/5/4
f 1310/2/4 1308/2/4 1311/2/4
f 1310/1/4 1311/1/4 1312/1/4
f 1312/1/4 1311/1/4 1313/1/4
f 1314/1/4 1315/1/4 1316/1/4
f 1316/1/4 1315/1/4 1317/1/4
f 1318/2/4 1319/2/4 1321/2/4
f 1319/5/4 1320/5/4 1322/5/4
f 1321/2/4 1319/2/4 1322/2/4
f 1322/5/4 1320/5/4 1323/5/4
f 1324/2/4 1325/2/4 1327/2/4
f 1325/5/4 1326/5/4 1328/5/4
f 1327/2/4 1325/2/4 1328/2/4
f 1328/5/4 1326/5/4 1329/5/4
f 1330/2/4 1331/2/4 1333/2/4
f 1331/5/4 1332/5/4 1334/5/4
f 1333/2/4 1331/2/4 1334/2/4
f 1334/5/4 1332/5/4 1335/5/4
f 1336/1/4 1337/1/4 1338/1/4
f 1338/1/4 1337/1/4 1339/1/4
f 1340/4/4 1341/4/4 1342/4/4
f 1342/4/4 1341/4/4 1343/4/4
f 1344/2/4 1345/2/4 1347/2/4
f 1345/5/4 1346/5/4 1348/5/4
f 1347/2/4 1345/2/4 1348/2/4
f 1348/5/4 1346/5/4 1349/5/4
f 1350/2/4 1351/2/4 1353/2/4
f 1351/5/4 1352/5/4 1354/5/4
f 1353/2/4 1351/2/4 1354/2/4
f 1354/5/4 1352/5/4 1355/5/4
f 1356/2/4 1357/2/4 1359/2/4
f 1357/5/4 1358/5/4 1360/5/4
f 1359/2/4 1357/2/4 1360/2/4
f 1360/5/4 1358/5/4 1361/5/4
f 1362/4/4 1363/4/4 1364/4/4
f 1364/4/4 1363/4/4 1365/4/4
f 1366/4/4 1367/4/4 1368/4/4
f 1368/4/4 1367/4/4 1369/4/4
f 1370/2/4 1371/2/4 1373/2/4
f 1371/5/4 1372/5/4 1374/5/4
f 1373/2/4 1371/2/4 1374/2/4
f 1374/5/4 1372/5/4 1375/5/4
f 1376/2/4 1377/2/4 1379/2/4
f 1377/5/4 1378/5/4 1380/5/4
f 1379/2/4 1377/2/4 1380/2/4
f 1380/5/4 1378/5/4 1381/5/4
f 1382/2/4 1383/2/4 1385/2/4
f 1383/5/4 1384/5/4 1386/5/4
f 1385/2/4 1383/2/4 1386/2/4
f 1386/5/4 1384/5/4 1387/5/4
f 1388/4/4 1389/4/4 1390/4/4
f 1390/4/4 1389/4/4 1391/4/4
f 1392/4/4 1393/4/4 1394/4/4
f 1394/4/4 1393/4/4 1395/4/4
f 1396/1/4 1397/1/4 1398/1/4
f 1398/1/4 1397/1/4 1399/1/4
f 1398/2/4 1399/2/4 1402/2/4
f 1402/2/4 1399/2/4 1403/2/4
f 1400/5/4 1401/5/4 1404/5/4
f 1404/5/4 1401/5/4 1405/5/4
f 1402/1/4 1403/1/4 1406/1/4
f 1406/1/4 1403/1/4 1407/1/4
f 1408/1/4 1409/1/4 1412/1/4
f 1412/1/4 1409/1/4 1413/1/4
f 1410/6/4 1411/6/4 1414/6/4
f 1414/6/4 1411/6/4 1415/6/4
f 1416/1/4 1417/1/4 1418/1/4
f 1418/1/4 1417/1/4 1419/1/4
f 1418/2/4 1419/2/4 1422/2/4
f 1422/2/4 1419/2/4 1423/2/4
f 1420/5/4 1421/5/4 1424/5/4
f 1424/5/4 1421/5/4 1425/5/4
f 1422/4/4 1423/4/4 1426/4/4
f 1426/4/4 1423/4/4 1427/4/4
f 1426/2/4 1427/2/4 1430/2/4
f 1430/2/4 1427/2/4 1431/2/4
f 1428/5/4 1429/5/4 1432/5/4
f 1432/5/4 1429/5/4 1433/5/4
f 1430/1/4 1431/1/4 1434/1/4
f 1434/1/4 1431/1/4 1435/1/4
f 1436/4/4 1437/4/4 1438/4/4
f 1438/4/4 1437/4/4 1439/4/4
f 1442/2/4 1443/2/4 1445/2/4
f 1443/5/4 1444/5/4 1446/5/4
f 1445/2/4 1443/2/4 1446/2/4
f 1446/5/4 1444/5/4 1447/5/4
f 1448/6/4 1449/6/4 1450/6/4
f 1450/6/4 1449/6/4 1451/6/4
f 1452/2/4 1453/2/4 1455/2/4
f 1453/5/4 1454/5/4 1456/5/4
f 1455/2/4 1453/2/4 1456/2/4
f 1456/5/4 1454/5/4 1457/5/4
f 1458/2/4 1459/2/4 1461/2/4
f 1459/5/4 1460/5/4 1462/5/4
f 1461/2/4 1459/2/4 1462/2/4
f 1462/5/4 1460/5/4 1463/5/4
f 1440/1/4 1441/1/4 1464/1/4
f 1464/1/4 1441/1/4 1465/1/4
f 1466/2/4 1467/2/4 1469/2/4
f 1467/5/4 1468/5/4 1470/5/4
f 1469/2/4 1467/2/4 1470/2/4
f 1470/5/4 1468/5/4 1471/5/4
f 1472/2/4 1473/2/4 1476/2/4
f 1473/5/4 1474/5/4 1477/5/4
f 1476/2/4 1473/2/4 1477/2/4
f 1474/3/4 1475/3/4 1478/3/4
f 1477/5/4 1474/5/4 1478/5/4
f 1478/3/4 1475/3/4 1479/3/4
f 1480/2/4 1481/2/4 1483/2/4
f 1481/5/4 1482/5/4 1484/5/4
f 1483/2/4 1481/2/4 1484/2/4
f 1484/5/4 1482/5/4 1485/5/4
f 1486/2/4 1487/2/4 1489/2/4
f 1487/5/4 1488/5/4 1490/5/4
f 1489/2/4 1487/2/4 1490/2/4
f 1490/5/4 1488/5/4 1491/5/4
f 1492/4/4 1493/4/4 1496/4/4
f 1496/4/4 1493/4/4 1497/4/4
f 1494/4/4 1495/4/4 1498/4/4
f 1498/4/4 1495/4/4 1499/4/4
f 1500/2/4 1501/2/4 1502/2/4
f 1502/2/4 1501/2/4 1503/2/4
f 1504/2/4 1505/2/4 1507/2/4
f 1505/5/4 1506/5/4 1508/5/4
f 1507/2/4 1505/2/4 1508/2/4
f 1508/5/4 1506/5/4 1509/5/4
f 1510/2/4 1511/2/4 1513/2/4
f 1511/5/4 1512/5/4 1514/5/4
f 1513/2/4 1511/2/4 1514/2/4
f 1514/5/4 1512/5/4 1515/5/4
f 1516/2/4 1517/2/4 1519/2/4
f 1517/5/4 1518/5/4 1520/5/4
f 1519/2/4 1517/2/4 1520/2/4
f 1520/5/4 1518/5/4 1521/5/4
f 1522/4/4 1523/4/4 1526/4/4
f 1526/4/4 1523/4/4 1527/4/4
f 1524/4/4 1525/4/4 1528/4/4
f 1528/4/4 1525/4/4 1529/4/4
f 1530/1/4 1531/1/4 1536/1/4
f 1536/1/4 1531/1/4 1537/1/4
f 1532/4/4 1533/4/4 1538/4/4
f 1538/4/4 1533/4/4 1539/4/4
f 1534/1/4 1535/1/4 1540/1/4
f 1540/1/4 1535/1/4 1541/1/4
f 1541/1/4 1535/1/4 1545/1/4
f 1542/3/4 1543/3/4 1546/3/4
f 1543/6/4 1544/6/4 1547/6/4
f 1546/3/4 1543/3/4 1547/3/4
f 1547/6/4 1544/6/4 1548/6/4
f 1545/1/4 1535/1/4 1549/1/4
f 1549/1/4 1535/1/4 1550/1/4
f 1550/1/4 1535/1/4 1551/1/4
f 1552/2/4 1553/2/4 1557/2/4
f 1553/5/4 1554/5/4 1558/5/4
f 1557/2/4 1553/2/4 1558/2/4
f 1558/5/4 1554/5/4 1559/5/4
f 1555/1/4 1556/1/4 1560/1/4
f 1560/1/4 1556/1/4 1561/1/4
f 1561/1/4 1556/1/4 1565/1/4
f 1562/3/4 1563/3/4 1566/3/4
f 1563/6/4 1564/6/4 1567/6/4
f 1566/3/4 1563/3/4 1567/3/4
f 1567/6/4 1564/6/4 1568/6/4
f 1565/1/4 1556/1/4 1569/1/4
f 1569/1/4 1556/1/4 1573/1/4
f 1570/3/4 1571/3/4 1574/3/4
f 1571/6/4 1572/6/4 1575/6/4
f 1574/3/4 1571/3/4 1575/3/4
f 1575/6/4 1572/6/4 1576/6/4
f 1573/1/4 1556/1/4 1577/1/4
f 1578/1/4 1579/1/4 1582/1/4
f 1582/1/4 1579/1/4 1583/1/4
f 1580/4/4 1581/4/4 1584/4/4
f 1584/4/4 1581/4/4 1585/4/4
f 1577/1/4 1556/1/4 1586/1/4
f 1586/1/4 1556/1/4 1587/1/4
f 1588/4/4 1589/4/4 1592/4/4
f 1592/4/4 1589/4/4 1593/4/4
f 1590/1/4 1591/1/4 1594/1/4
f 1594/1/4 1591/1/4 1595/1/4
f 1596/1/4 1597/1/4 1598/1/4
f 1598/1/4 1597/1/4 1599/1/4
f 1600/1/4 1601/1/4 1602/1/4
f 1602/1/4 1601/1/4 1603/1/4
f 1602/2/4 1603/2/4 1605/2/4
f 1603/5/4 1604/5/4 1606/5/4
f 1605/2/4 1603/2/4 1606/2/4
f 1606/5/4 1604/5/4 1607/5/4
f 1605/1/4 1606/1/4 1608/1/4
f 1608/1/4 1606/1/4 1609/1/4
f 1610/1/4 1611/1/4 1614/1/4
f 1614/1/4 1611/1/4 1615/1/4
f 1612/6/4 1613/6/4 1616/6/4
f 1616/6/4 1613/6/4 1617/6/4
f 1618/1/4 1619/1/4 1620/1/4
f 1620/1/4 1619/1/4 1621/1/4
f 1624/4/4 1625/4/4 1626/4/4
f 1626/4/4 1625/4/4 1627/4/4
f 1622/1/4 1623/1/4 1628/1/4
f 1628/1/4 1623/1/4 1629/1/4
f 1630/4/4 1631/4/4 1632/4/4
f 1632/4/4 1631/4/4 1633/4/4
f 1634/2/4 1635/2/4 1637/2/4
f 1635/5/4 1636/5/4 1638/5/4
f 1637/2/4 1635/2/4 1638/2/4
f 1638/5/4 1636/5/4 1639/5/4
f 1640/4/4 1641/4/4 1642/4/4
f 1642/4/4 1641/4/4 1643/4/4
f 1644/4/4 1645/4/4 1646/4/4
f 1646/4/4 1645/4/4 1647/4/4
f 1648/2/4 1649/2/4 1651/2/4
f 1649/5/4 1650/5/4 1652/5/4
f 1651/2/4 1649/2/4 1652/2/4
f 1652/5/4 1650/5/4 1653/5/4
f 1654/4/4 1655/4/4 1656/4/4
f 1656/4/4 1655/4/4 1657/4/4
f 1658/4/4 1659/4/4 1660/4/4
f 1660/4/4 1659/4/4 1661/4/4
f 1662/2/4 1663/2/4 1665/2/4
f 1663/5/4 1664/5/4 1666/5/4
f 1665/2/4 1663/2/4 1666/2/4
f 1666/5/4 1664/5/4 1667/5/4
f 1668/4/4 1669/4/4 1670/4/4
f 1670/4/4 1669/4/4 1671/4/4
f 1672/1/4 1673/1/4 1674/1/4
f 1674/1/4 1673/1/4 1675/1/4
f 1676/1/4 1677/1/4 1678/1/4
f 1678/1/4 1677/1/4 1679/1/4
f 1680/1/4 1681/1/4 1682/1/4
f 1682/1/4 1681/1/4 1683/1/4
f 1682/2/4 1683/2/4 1684/2/4
f 1684/2/4 1683/2/4 1685/2/4
f 1684/1/4 1685/1/4 1686/1/4
f 1686/1/4 1685/1/4 1687/1/4
f 1688/1/4 1689/1/4 1690/1/4
f 1690/1/4 1689/1/4 1691/1/4
f 1692/1/4 1693/1/4 1694/1/4
f 1694/1/4 1693/1/4 1695/1/4
f 1696/1/4 1697/1/4 1698/1/4
f 1698/1/4 1697/1/4 1699/1/4
f 1700/1/4 1701/1/4 1702/1/4
f 1702/1/4 1701/1/4 1703/1/4
f 1703/1/4 1701/1/4 1705/1/4
f 1704/2/4 1705/2/4 1706/2/4
f 1705/1/4 1701/1/4 1707/1/4
f 1706/2/4 1705/2/4 1707/2/4
f 1707/1/4 1701/1/4 1709/1/4
f 1708/1/4 1709/1/4 1710/1/4
f 1709/1/4 1701/1/4 1711/1/4
f 1710/1/4 1709/1/4 1711/1/4
f 1722/2/5 1715/2/5 1714/2/5
f 1723/2/5 1715/2/5 1722/2/5
f 1724/2/5 1717/2/5 1716/2/5
f 1725/2/5 1717/2/5 1724/2/5
f 1726/2/5 1719/2/5 1718/2/5
f 1727/2/5 1719/2/5 1726/2/5
f 1730/1/5 1713/1/5 1712/1/5
f 1731/1/5 1713/1/5 1730/1/5
f 1732/2/5 1729/2/5 1728/2/5
f 1733/2/5 1729/2/5 1732/2/5
f 1734/1/5 1721/1/5 1720/1/5
f 1735/1/5 1721/1/5 1734/1/5
f 1744/1/5 1737/1/5 1736/1/5
f 1745/1/5 1737/1/5 1744/1/5
f 1746/1/5 1739/1/5 1738/1/5
f 1747/1/5 1739/1/5 1746/1/5
f 1748/1/5 1741/1/5 1740/1/5
f 1749/1/5 1741/1/5 1748/1/5
f 1750/1/5 1743/1/5 1742/1/5
f 1751/1/5 1743/1/5 1750/1/5
f 1752/5/5 1746/5/5 1745/5/5
f 1753/5/5 1746/5/5 1752/5/5
f 1754/5/5 1748/5/5 1747/5/5
f 1755/5/5 1748/5/5 1754/5/5
f 1756/5/5 1750/5/5 1749/5/5
f 1757/5/5 1750/5/5 1756/5/5
f 1761/5/5 1759/5/5 1758/5/5
f 1762/5/5 1759/5/5 1761/5/5
f 1764/1/5 1761/1/5 1760/1/5
f 1765/1/5 1761/1/5 1764/1/5
f 1766/1/5 1763/1/5 1762/1/5
f 1767/1/5 1763/1/5 1766/1/5
f 1780/1/5 1769/1/5 1768/1/5
f 1781/1/5 1769/1/5 1780/1/5
f 1782/1/5 1771/1/5 1770/1/5
f 1783/1/5 1771/1/5 1782/1/5
f 1784/1/5 1773/1/5 1772/1/5
f 1785/1/5 1773/1/5 1784/1/5
f 1786/1/5 1775/1/5 1774/1/5
f 1787/1/5 1775/1/5 1786/1/5
f 1788/1/5 1777/1/5 1776/1/5
f 1789/1/5 1777/1/5 1788/1/5
f 1790/1/5 1779/1/5 1778/1/5
f 1791/1/5 1779/1/5 1790/1/5
f 1796/4/5 1793/4/5 1792/4/5
f 1797/4/5 1793/4/5 1796/4/5
f 1798/4/5 1795/4/5 1794/4/5
f 1799/4/5 1795/4/5 1798/4/5
f 1804/4/5 1801/4/5 1800/4/5
f 1805/4/5 1801/4/5 1804/4/5
f 1806/4/5 1803/4/5 1802/4/5
f 1807/4/5 1803/4/5 1806/4/5
f 1820/1/5 1809/1/5 1808/1/5
f 1821/1/5 1809/1/5 1820/1/5
f 1822/1/5 1811/1/5 1810/1/5
f 1823/1/5 1811/1/5 1822/1/5
f 1824/1/5 1813/1/5 1812/1/5
f 1825/1/5 1813/1/5 1824/1/5
f 1826/1/5 1815/1/5 1814/1/5
f 1827/1/5 1815/1/5 1826/1/5
f 1828/1/5 1817/1/5 1816/1/5
f 1829/1/5 1817/1/5 1828/1/5
f 1830/1/5 1819/1/5 1818/1/5
f 1831/1/5 1819/1/5 1830/1/5
f 1838/2/5 1833/2/5 1832/2/5
f 1839/2/5 1833/2/5 1838/2/5
f 1840/2/5 1835/2/5 1834/2/5
f 1841/2/5 1835/2/5 1840/2/5
f 1842/2/5 1837/2/5 1836/2/5
f 1843/2/5 1837/2/5 1842/2/5
f 1846/2/5 1845/2/5 1844/2/5
f 1847/2/5 1845/2/5 1846/2/5
f 1852/4/5 1849/4/5 1848/4/5
f 1853/4/5 1849/4/5 1852/4/5
f 1854/4/5 1851/4/5 1850/4/5
f 1855/4/5 1851/4/5 1854/4/5
f 1860/4/5 1857/4/5 1856/4/5
f 1861/4/5 1857/4/5 1860/4/5
f 1862/4/5 1859/4/5 1858/4/5
f 1863/4/5 1859/4/5 1862/4/5
f 1872/4/5 1865/4/5 1864/4/5
f 1873/4/5 1865/4/5 1872/4/5
f 1874/2/5 1867/2/5 1866/2/5
f 1875/2/5 1867/2/5 1874/2/5
f 1876/2/5 1869/2/5 1868/2/5
f 1877/2/5 1869/2/5 1876/2/5
f 1878/2/5 1871/2/5 1870/2/5
f 1879/2/5 1871/2/5 1878/2/5
f 1882/2/5 1881/2/5 1880/2/5
f 1883/2/5 1881/2/5 1882/2/5
f 1888/4/5 1885/4/5 1884/4/5
f 1889/4/5 1885/4/5 1888/4/5
f 1890/4/5 1887/4/5 1886/4/5
f 1891/4/5 1887/4/5 1890/4/5
f 1896/4/5 1893/4/5 1892/4/5
f 1897/4/5 1893/4/5 1896/4/5
f 1898/4/5 1895/4/5 1894/4/5
f 1899/4/5 1895/4/5 1898/4/5
f 1906/2/5 1901/2/5 1900/2/5
f 1907/2/5 1901/2/5 1906/2/5
f 1908/2/5 1903/2/5 1902/2/5
f 1909/2/5 1903/2/5 1908/2/5
f 1910/2/5 1905/2/5 1904/2/5
f 1911/2/5 1905/2/5 1910/2/5
f 1916/4/5 1913/4/5 1912/4/5
f 1917/4/5 1913/4/5 1916/4/5
f 1918/4/5 1915/4/5 1914/4/5
f 1919/4/5 1915/4/5 1918/4/5
f 1924/4/5 1921/4/5 1920/4/5
f 1925/4/5 1921/4/5 1924/4/5
f 1926/4/5 1923/4/5 1922/4/5
f 1927/4/5 1923/4/5 1926/4/5
f 1930/2/5 1929/2/5 1928/2/5
f 1931/2/5 1929/2/5 1930/2/5
f 1946/1/5 1933/1/5 1932/1/5
f 1947/1/5 1933/1/5 1946/1/5
f 1948/2/5 1934/2/5 1933/2/5
f 1948/1/5 1933/1/5 1947/1/5
f 1949/1/5 1935/1/5 1934/1/5
f 1949/2/5 1934/2/5 1948/2/5
f 1950/1/5 1935/1/5 1949/1/5
f 1951/1/5 1937/1/5 1936/1/5
f 1952/1/5 1937/1/5 1951/1/5
f 1953/1/5 1939/1/5 1938/1/5
f 1954/2/5 1940/2/5 1939/2/5
f 1954/1/5 1939/1/5 1953/1/5
f 1955/4/5 1941/4/5 1940/4/5
f 1955/2/5 1940/2/5 1954/2/5
f 1956/2/5 1942/2/5 1941/2/5
f 1956/4/5 1941/4/5 1955/4/5
f 1957/1/5 1943/1/5 1942/1/5
f 1957/2/5 1942/2/5 1956/2/5
f 1958/1/5 1943/1/5 1957/1/5
f 1959/1/5 1945/1/5 1944/1/5
f 1960/1/5 1945/1/5 1959/1/5
f 1976/1/5 1962/1/5 1961/1/5
f 1977/1/5 1962/1/5 1976/1/5
f 1978/1/5 1964/1/5 1963/1/5
f 1979/1/5 1964/1/5 1978/1/5
f 1980/1/5 1966/1/5 1965/1/5
f 1981/2/5 1967/2/5 1966/2/5
f 1981/1/5 1966/1/5 1980/1/5
f 1982/1/5 1968/1/5 1967/1/5
f 1982/2/5 1967/2/5 1981/2/5
f 1983/1/5 1968/1/5 1982/1/5
f 1984/1/5 1970/1/5 1969/1/5
f 1985/1/5 1970/1/5 1984/1/5
f 1986/1/5 1972/1/5 1971/1/5
f 1987/1/5 1972/1/5 1986/1/5
f 1988/1/5 1975/1/5 1974/1/5
f 1988/1/5 1974/1/5 1973/1/5
f 1989/1/5 1975/1/5 1988/1/5
f 2003/1/5 1991/1/5 1990/1/5
f 2003/1/5 2002/1/5 2001/1/5
f 2003/1/5 2001/1/5 2000/1/5
f 2003/1/5 2000/1/5 1999/1/5
f 2003/1/5 1999/1/5 1998/1/5
f 2003/1/5 1998/1/5 1997/1/5
f 2003/1/5 1997/1/5 1996/1/5
f 2003/1/5 1996/1/5 1995/1/5
f 2003/1/5 1995/1/5 1994/1/5
f 2003/1/5 1994/1/5 1993/1/5
f 2003/1/5 1993/1/5 1992/1/5
f 2003/1/5 1992/1/5 1991/1/5
f 2004/1/5 2002/1/5 2003/1/5
f 2007/1/5 2006/1/5 2005/1/5
f 2008/1/5 2006/1/5 2007/1/5
f 2009/1/5 2006/1/5 2008/1/5
f 2010/1/5 2006/1/5 2009/1/5
f 2011/1/5 2006/1/5 2010/1/5
f 2012/1/5 2006/1/5 2011/1/5
f 2013/1/5 2006/1/5 2012/1/5
f 2014/1/5 2006/1/5 2013/1/5
f 2015/1/5 2006/1/5 2014/1/5
f 2016/1/5 2006/1/5 2015/1/5
f 2017/1/5 2006/1/5 2016/1/5
f 2018/1/5 2006/1/5 2017/1/5
f 2019/1/5 2006/1/5 2018/1/5
f 2026/2/5 2021/2/5 2020/2/5
f 2027/2/5 2021/2/5 2026/2/5
f 2028/2/5 2023/2/5 2022/2/5
f 2029/2/5 2023/2/5 2028/2/5
f 2030/2/5 2025/2/5 2024/2/5
f 2031/2/5 2025/2/5 2030/2/5
f 2034/2/5 2033/2/5 2032/2/5
f 2035/2/5 2033/2/5 2034/2/5
f 2042/2/5 2037/2/5 2036/2/5
f 2043/2/5 2037/2/5 2042/2/5
f 2046/2/5 2039/2/5 2038/2/5
f 2047/2/5 2039/2/5 2046/2/5
f 2048/2/5 2041/2/5 2040/2/5
f 2049/2/5 2041/2/5 2048/2/5
f 2050/2/5 2045/2/5 2044/2/5
f 2051/2/5 2045/2/5 2050/2/5
f 2056/2/5 2053/2/5 2052/2/5
f 2057/2/5 2053/2/5 2056/2/5
f 2062/2/5 2055/2/5 2054/2/5
f 2063/2/5 2055/2/5 2062/2/5
f 2064/2/5 2059/2/5 2058/2/5
f 2065/2/5 2059/2/5 2064/2/5
f 2066/2/5 2061/2/5 2060/2/5
f 2067/2/5 2061/2/5 2066/2/5
f 2070/3/5 2069/3/5 2068/3/5
f 2071/3/5 2069/3/5 2070/3/5
f 2078/3/5 2073/3/5 2072/3/5
f 2079/3/5 2073/3/5 2078/3/5
f 2080/3/5 2075/3/5 2074/3/5
f 2081/3/5 2075/3/5 2080/3/5
f 2082/3/5 2077/3/5 2076/3/5
f 2083/3/5 2077/3/5 2082/3/5
f 2086/6/5 2085/6/5 2084/6/5
f 2087/6/5 2085/6/5 2086/6/5
f 2090/6/5 2089/6/5 2088/6/5
f 2091/6/5 2089/6/5 2090/6/5
f 2092/1/6 2093/1/6 2096/1/6
f 2096/1/6 2093/1/6 2097/1/6
f 2094/1/6 2095/1/6 2098/1/6
f 2098/1/6 2095/1/6 2099/1/6
f 2100/1/6 2101/1/6 2104/1/6
f 2104/1/6 2101/1/6 2105/1/6
f 2102/1/6 2103/1/6 2106/1/6
f 2106/1/6 2103/1/6 2107/1/6
f 2108/1/6 2109/1/6 2112/1/6
f 2112/1/6 2109/1/6 2113/1/6
f 2110/1/6 2111/1/6 2114/1/6
f 2114/1/6 2111/1/6 2115/1/6
f 2116/1/6 2117/1/6 2120/1/6
f 2120/1/6 2117/1/6 2121/1/6
f 2118/1/6 2119/1/6 2122/1/6
f 2122/1/6 2119/1/6 2123/1/6
f 2124/1/6 2125/1/6 2126/1/6
f 2126/1/6 2125/1/6 2127/1/6
f 2127/1/6 2125/1/6 2128/1/6
f 2128/1/6 2125/1/6 2129/1/6
f 2129/1/6 2125/1/6 2130/1/6
f 2130/1/6 2125/1/6 2131/1/6
f 2131/1/6 2125/1/6 2132/1/6
f 2132/1/6 2125/1/6 2133/1/6
f 2133/1/6 2125/1/6 2134/1/6
f 2134/1/6 2125/1/6 2135/1/6
f 2135/1/6 2125/1/6 2136/1/6
f 2136/1/6 2125/1/6 2137/1/6
f 2137/1/6 2125/1/6 2138/1/6
f 2138/1/6 2125/1/6 2139/1/6
f 2140/1/6 2141/1/6 2154/1/6
f 2152/1/6 2153/1/6 2154/1/6
f 2151/1/6 2152/1/6 2154/1/6
f 2150/1/6 2151/1/6 2154/1/6
f 2149/1/6 2150/1/6 2154/1/6
f 2148/1/6 2149/1/6 2154/1/6
f 2147/1/6 2148/1/6 2154/1/6
f 2146/1/6 2147/1/6 2154/1/6
f 2145/1/6 2146/1/6 2154/1/6
f 2144/1/6 2145/1/6 2154/1/6
f 2143/1/6 2144/1/6 2154/1/6
f 2142/1/6 2143/1/6 2154/1/6
f 2141/1/6 2142/1/6 2154/1/6
f 2154/1/6 2153/1/6 2155/1/6
f 2156/1/6 2157/1/6 2170/1/6
f 2170/1/6 2157/1/6 2171/1/6
f 2157/2/6 2158/2/6 2172/2/6
f 2171/1/6 2157/1/6 2172/1/6
f 2158/1/6 2159/1/6 2173/1/6
f 2172/2/6 2158/2/6 2173/2/6
f 2173/1/6 2159/1/6 2174/1/6
f 2160/1/6 2161/1/6 2175/1/6
f 2175/1/6 2161/1/6 2176/1/6
f 2162/1/6 2163/1/6 2177/1/6
f 2163/2/6 2164/2/6 2178/2/6
f 2177/1/6 2163/1/6 2178/1/6
f 2164/1/6 2165/1/6 2179/1/6
f 2178/2/6 2164/2/6 2179/2/6
f 2165/2/6 2166/2/6 2180/2/6
f 2179/1/6 2165/1/6 2180/1/6
f 2166/1/6 2167/1/6 2181/1/6
f 2180/2/6 2166/2/6 2181/2/6
f 2181/1/6 2167/1/6 2182/1/6
f 2168/1/6 2169/1/6 2183/1/6
f 2183/1/6 2169/1/6 2184/1/6
f 2185/1/6 2186/1/6 2200/1/6
f 2200/1/6 2186/1/6 2201/1/6
f 2187/1/6 2188/1/6 2202/1/6
f 2202/1/6 2188/1/6 2203/1/6
f 2189/1/6 2190/1/6 2204/1/6
f 2190/2/6 2191/2/6 2205/2/6
f 2204/1/6 2190/1/6 2205/1/6
f 2191/1/6 2192/1/6 2206/1/6
f 2205/2/6 2191/2/6 2206/2/6
f 2206/1/6 2192/1/6 2207/1/6
f 2193/1/6 2194/1/6 2208/1/6
f 2208/1/6 2194/1/6 2209/1/6
f 2195/1/6 2196/1/6 2210/1/6
f 2210/1/6 2196/1/6 2211/1/6
f 2198/1/6 2199/1/6 2212/1/6
f 2197/1/6 2198/1/6 2212/1/6
f 2212/1/6 2199/1/6 2213/1/6
f 2214/4/6 2215/4/6 2218/4/6
f 2218/4/6 2215/4/6 2219/4/6
f 2216/4/6 2217/4/6 2220/4/6
f 2220/4/6 2217/4/6 2221/4/6
f 2219/4/6 2215/4/6 2222/4/6
f 2222/4/6 2215/4/6 2223/4/6
f 2224/4/6 2225/4/6 2228/4/6
f 2228/4/6 2225/4/6 2229/4/6
f 2226/4/6 2227/4/6 2230/4/6
f 2230/4/6 2227/4/6 2231/4/6
f 2232/5/6 2233/5/6 2238/5/6
f 2238/5/6 2233/5/6 2239/5/6
f 2234/5/6 2235/5/6 2240/5/6
f 2240/5/6 2235/5/6 2241/5/6
f 2236/5/6 2237/5/6 2242/5/6
f 2242/5/6 2237/5/6 2243/5/6
f 2244/5/6 2245/5/6 2246/5/6
f 2246/5/6 2245/5/6 2247/5/6
f 2248/4/6 2249/4/6 2252/4/6
f 2252/4/6 2249/4/6 2253/4/6
f 2250/4/6 2251/4/6 2254/4/6
f 2254/4/6 2251/4/6 2255/4/6
f 2256/4/6 2257/4/6 2260/4/6
f 2260/4/6 2257/4/6 2261/4/6
f 2258/4/6 2259/4/6 2262/4/6
f 2262/4/6 2259/4/6 2263/4/6
f 2264/5/6 2265/5/6 2272/5/6
f 2272/5/6 2265/5/6 2273/5/6
f 2266/5/6 2267/5/6 2274/5/6
f 2274/5/6 2267/5/6 2275/5/6
f 2268/5/6 2269/5/6 2276/5/6
f 2276/5/6 2269/5/6 2277/5/6
f 2270/4/6 2271/4/6 2280/4/6
f 2280/4/6 2271/4/6 2281/4/6
f 2278/4/6 2279/4/6 2282/4/6
f 2282/4/6 2279/4/6 2283/4/6
f 2284/4/6 2285/4/6 2288/4/6
f 2288/4/6 2285/4/6 2289/4/6
f 2286/4/6 2287/4/6 2292/4/6
f 2292/4/6 2287/4/6 2293/4/6
f 2290/5/6 2291/5/6 2294/5/6
f 2294/5/6 2291/5/6 2295/5/6
f 2296/4/6 2297/4/6 2300/4/6
f 2300/4/6 2297/4/6 2301/4/6
f 2298/4/6 2299/4/6 2302/4/6
f 2302/4/6 2299/4/6 2303/4/6
f 2304/4/6 2305/4/6 2308/4/6
f 2308/4/6 2305/4/6 2309/4/6
f 2306/4/6 2307/4/6 2310/4/6
f 2310/4/6 2307/4/6 2311/4/6
f 2312/5/6 2313/5/6 2318/5/6
f 2318/5/6 2313/5/6 2319/5/6
f 2314/5/6 2315/5/6 2320/5/6
f 2320/5/6 2315/5/6 2321/5/6
f 2316/5/6 2317/5/6 2322/5/6
f 2322/5/6 2317/5/6 2323/5/6
f 2324/5/6 2325/5/6 2326/5/6
f 2326/5/6 2325/5/6 2327/5/6
f 2328/1/6 2329/1/6 2342/1/6
f 2342/1/6 2329/1/6 2343/1/6
f 2330/1/6 2331/1/6 2344/1/6
f 2344/1/6 2331/1/6 2345/1/6
f 2332/1/6 2333/1/6 2346/1/6
f 2346/1/6 2333/1/6 2347/1/6
f 2334/1/6 2335/1/6 2348/1/6
f 2348/1/6 2335/1/6 2349/1/6
f 2336/4/6 2337/4/6 2350/4/6
f 2350/4/6 2337/4/6 2351/4/6
f 2338/1/6 2339/1/6 2352/1/6
f 2352/1/6 2339/1/6 2353/1/6
f 2340/1/6 2341/1/6 2354/1/6
f 2354/1/6 2341/1/6 2355/1/6
f 2356/1/6 2357/1/6 2370/1/6
f 2370/1/6 2357/1/6 2371/1/6
f 2358/1/6 2359/1/6 2372/1/6
f 2372/1/6 2359/1/6 2373/1/6
f 2360/1/6 2361/1/6 2374/1/6
f 2374/1/6 2361/1/6 2375/1/6
f 2362/1/6 2363/1/6 2376/1/6
f 2376/1/6 2363/1/6 2377/1/6
f 2364/1/6 2365/1/6 2378/1/6
f 2378/1/6 2365/1/6 2379/1/6
f 2366/1/6 2367/1/6 2380/1/6
f 2380/1/6 2367/1/6 2381/1/6
f 2368/1/6 2369/1/6 2382/1/6
f 2382/1/6 2369/1/6 2383/1/6
f 2384/1/6 2385/1/6 2392/1/6
f 2390/1/6 2391/1/6 2392/1/6
f 2389/1/6 2390/1/6 2392/1/6
f 2388/1/6 2389/1/6 2392/1/6
f 2387/1/6 2388/1/6 2392/1/6
f 2386/1/6 2387/1/6 2392/1/6
f 2385/1/6 2386/1/6 2392/1/6
f 2392/1/6 2391/1/6 2393/1/6
f 2393/1/6 2391/1/6 2394/1/6
f 2394/1/6 2391/1/6 2395/1/6
f 2396/1/6 2397/1/6 2400/1/6
f 2398/1/6 2399/1/6 2400/1/6
f 2397/1/6 2398/1/6 2400/1/6
f 2400/1/6 2399/1/6 2401/1/6
f 2401/1/6 2399/1/6 2402/1/6
f 2402/1/6 2399/1/6 2403/1/6
f 2404/5/6 2405/5/6 2410/5/6
f 2410/5/6 2405/5/6 2411/5/6
f 2406/5/6 2407/5/6 2412/5/6
f 2412/5/6 2407/5/6 2413/5/6
f 2408/5/6 2409/5/6 2414/5/6
f 2414/5/6 2409/5/6 2415/5/6
f 2416/5/6 2417/5/6 2418/5/6
f 2418/5/6 2417/5/6 2419/5/6
f 2420/4/6 2421/4/6 2424/4/6
f 2424/4/6 2421/4/6 2425/4/6
f 2422/4/6 2423/4/6 2426/4/6
f 2426/4/6 2423/4/6 2427/4/6
f 2428/5/6 2429/5/6 2434/5/6
f 2434/5/6 2429/5/6 2435/5/6
f 2430/5/6 2431/5/6 2436/5/6
f 2436/5/6 2431/5/6 2437/5/6
f 2432/5/6 2433/5/6 2438/5/6
f 2438/5/6 2433/5/6 2439/5/6
f 2440/5/6 2441/5/6 2442/5/6
f 2442/5/6 2441/5/6 2443/5/6
f 2444/5/6 2445/5/6 2450/5/6
f 2450/5/6 2445/5/6 2451/5/6
f 2446/5/6 2447/5/6 2454/5/6
f 2454/5/6 2447/5/6 2455/5/6
f 2448/5/6 2449/5/6 2456/5/6
f 2456/5/6 2449/5/6 2457/5/6
f 2452/5/6 2453/5/6 2458/5/6
f 2458/5/6 2453/5/6 2459/5/6
f 2460/3/6 2461/3/6 2464/3/6
f 2464/3/6 2461/3/6 2465/3/6
f 2462/3/6 2463/3/6 2470/3/6
f 2470/3/6 2463/3/6 2471/3/6
f 2466/3/6 2467/3/6 2472/3/6
f 2472/3/6 2467/3/6 2473/3/6
f 2468/3/6 2469/3/6 2474/3/6
f 2474/3/6 2469/3/6 2475/3/6
f 2476/6/6 2477/6/6 2478/6/6
f 2478/6/6 2477/6/6 2479/6/6
f 2480/6/6 2481/6/6 2482/6/6
f 2482/6/6 2481/6/6 2483/6/6
f 2484/6/6 2485/6/6 2486/6/6
f 2486/6/6 2485/6/6 2487/6/6
f 2488/6/6 2489/6/6 2492/6/6
f 2492/6/6 2489/6/6 2493/6/6
f 2490/6/6 2491/6/6 2496/6/6
f 2496/6/6 2491/6/6 2497/6/6
f 2494/6/6 2495/6/6 2498/6/6
f 2498/6/6 2495/6/6 2499/6/6
